<svg width="691" height="400" viewBox="0 0 691 400" fill="none" xmlns="http://www.w3.org/2000/svg">
<rect width="345.001" height="200" transform="scale(2)" fill="#F6F6F6"/>
<path fill-rule="evenodd" clip-rule="evenodd" d="M196.152 164.801L198.908 164.801C201.694 164.801 204.38 165.839 206.442 167.714L223.535 183.253C225.87 185.375 227.201 188.384 227.201 191.54V224.001C227.201 230.186 222.186 235.201 216.001 235.201H168.001C161.815 235.201 156.801 230.186 156.801 224.001V176.001C156.801 169.815 161.815 164.801 168.001 164.801L196.001 164.799C196.051 164.799 196.102 164.8 196.152 164.801ZM178.001 187.199C175.129 187.199 172.801 184.871 172.801 181.999V171.201H168.001C165.35 171.201 163.201 173.35 163.201 176.001L163.201 224.001C163.201 226.652 165.35 228.801 168.001 228.801H170.801V212.001C170.801 205.815 175.815 200.801 182.001 200.801H202.001C208.186 200.801 213.201 205.815 213.201 212.001V228.801H216.001C218.652 228.801 220.801 226.652 220.801 224.001V191.54C220.801 190.187 220.23 188.898 219.23 187.988L203.201 173.416V181.999C203.201 184.871 200.873 187.199 198.001 187.199H178.001ZM179.201 171.201H196.051C196.47 171.227 196.801 171.574 196.801 171.999V180.799H179.201V171.201ZM206.801 228.801H177.201V212.001C177.201 209.35 179.35 207.201 182.001 207.201H202.001C204.652 207.201 206.801 209.35 206.801 212.001V228.801Z" fill="#3C5AAA"/>
<g clip-path="url(#clip0_15283_31151)">
<mask id="path-2-inside-1_15283_31151" fill="white">
<path d="M300 160C300 151.163 307.163 144 316 144H530C538.837 144 546 151.163 546 160V240C546 248.837 538.837 256 530 256H316C307.163 256 300 248.837 300 240V160Z"/>
</mask>
<path d="M300 160C300 151.163 307.163 144 316 144H530C538.837 144 546 151.163 546 160V240C546 248.837 538.837 256 530 256H316C307.163 256 300 248.837 300 240V160Z" fill="#3C5AAA"/>
<path fill-rule="evenodd" clip-rule="evenodd" d="M374.076 182.4L375.454 182.4C376.847 182.4 378.19 182.919 379.221 183.857L387.767 191.626C388.935 192.687 389.6 194.192 389.6 195.77V212C389.6 215.093 387.093 217.6 384 217.6H360C356.908 217.6 354.4 215.093 354.4 212V188C354.4 184.907 356.908 182.4 360 182.4L374 182.399C374.026 182.399 374.051 182.4 374.076 182.4ZM365 193.599C363.564 193.599 362.4 192.435 362.4 190.999V185.6H360C358.675 185.6 357.6 186.675 357.6 188L357.6 212C357.6 213.326 358.675 214.4 360 214.4H361.4V206C361.4 202.907 363.908 200.4 367 200.4H377C380.093 200.4 382.6 202.907 382.6 206V214.4H384C385.326 214.4 386.4 213.326 386.4 212V195.77C386.4 195.093 386.115 194.449 385.615 193.994L377.6 186.708V190.999C377.6 192.435 376.436 193.599 375 193.599H365ZM365.6 185.6H374.026C374.235 185.613 374.4 185.787 374.4 185.999V190.399H365.6V185.6ZM379.4 214.4H364.6V206C364.6 204.675 365.675 203.6 367 203.6H377C378.326 203.6 379.4 204.675 379.4 206V214.4Z" fill="white"/>
<path d="M429.17 194.696C429.034 193.486 428.471 192.548 427.482 191.884C426.494 191.21 425.25 190.874 423.75 190.874C422.676 190.874 421.747 191.044 420.963 191.385C420.179 191.717 419.569 192.178 419.134 192.766C418.708 193.345 418.495 194.006 418.495 194.747C418.495 195.369 418.64 195.906 418.93 196.358C419.228 196.81 419.616 197.189 420.093 197.496C420.579 197.794 421.099 198.045 421.653 198.25C422.207 198.446 422.74 198.608 423.251 198.736L425.808 199.401C426.643 199.605 427.5 199.882 428.377 200.232C429.255 200.581 430.069 201.041 430.819 201.612C431.569 202.183 432.174 202.891 432.634 203.734C433.103 204.578 433.338 205.588 433.338 206.764C433.338 208.247 432.954 209.564 432.187 210.714C431.429 211.865 430.325 212.773 428.876 213.438C427.436 214.102 425.693 214.435 423.647 214.435C421.687 214.435 419.991 214.124 418.559 213.501C417.127 212.879 416.007 211.997 415.197 210.855C414.387 209.705 413.94 208.341 413.855 206.764H417.818C417.894 207.71 418.201 208.499 418.738 209.129C419.284 209.751 419.978 210.216 420.822 210.523C421.674 210.821 422.607 210.97 423.622 210.97C424.738 210.97 425.731 210.795 426.6 210.446C427.478 210.088 428.169 209.594 428.671 208.963C429.174 208.324 429.426 207.578 429.426 206.726C429.426 205.95 429.204 205.315 428.761 204.821C428.326 204.327 427.734 203.918 426.984 203.594C426.242 203.27 425.403 202.984 424.465 202.737L421.372 201.893C419.275 201.322 417.613 200.483 416.386 199.375C415.167 198.267 414.558 196.801 414.558 194.977C414.558 193.469 414.967 192.152 415.785 191.027C416.603 189.902 417.711 189.028 419.109 188.406C420.507 187.776 422.083 187.46 423.839 187.46C425.612 187.46 427.176 187.771 428.531 188.393C429.894 189.016 430.968 189.872 431.752 190.963C432.536 192.045 432.946 193.29 432.98 194.696H429.17ZM444.186 214.435C442.941 214.435 441.816 214.205 440.811 213.744C439.805 213.276 439.008 212.598 438.42 211.712C437.841 210.825 437.551 209.739 437.551 208.452C437.551 207.344 437.764 206.432 438.19 205.716C438.616 205 439.191 204.433 439.916 204.016C440.64 203.598 441.45 203.283 442.345 203.07C443.24 202.857 444.152 202.695 445.081 202.584C446.257 202.447 447.211 202.337 447.944 202.251C448.677 202.158 449.21 202.009 449.542 201.804C449.875 201.599 450.041 201.267 450.041 200.807V200.717C450.041 199.601 449.726 198.736 449.095 198.122C448.473 197.509 447.544 197.202 446.308 197.202C445.021 197.202 444.007 197.487 443.265 198.058C442.532 198.621 442.025 199.247 441.744 199.938L438.152 199.119C438.578 197.926 439.2 196.963 440.018 196.23C440.845 195.489 441.795 194.952 442.869 194.619C443.943 194.278 445.072 194.108 446.257 194.108C447.041 194.108 447.872 194.202 448.75 194.389C449.636 194.568 450.463 194.901 451.23 195.386C452.005 195.872 452.64 196.567 453.135 197.47C453.629 198.365 453.876 199.528 453.876 200.96V214H450.143V211.315H449.99C449.743 211.81 449.372 212.295 448.878 212.773C448.383 213.25 447.748 213.646 446.973 213.962C446.197 214.277 445.268 214.435 444.186 214.435ZM445.017 211.366C446.074 211.366 446.977 211.158 447.727 210.74C448.486 210.322 449.061 209.777 449.453 209.104C449.853 208.422 450.054 207.693 450.054 206.918V204.386C449.917 204.523 449.653 204.651 449.261 204.77C448.878 204.881 448.439 204.979 447.944 205.064C447.45 205.141 446.968 205.213 446.5 205.281C446.031 205.341 445.639 205.392 445.324 205.435C444.582 205.528 443.905 205.686 443.291 205.908C442.686 206.129 442.2 206.449 441.834 206.866C441.476 207.276 441.297 207.821 441.297 208.503C441.297 209.449 441.646 210.165 442.345 210.651C443.044 211.128 443.934 211.366 445.017 211.366ZM475.783 194.364L468.662 214H464.571L457.437 194.364H461.541L466.514 209.474H466.719L471.679 194.364H475.783ZM487.89 214.396C485.955 214.396 484.289 213.983 482.891 213.156C481.502 212.321 480.428 211.149 479.67 209.641C478.92 208.124 478.545 206.347 478.545 204.31C478.545 202.298 478.92 200.526 479.67 198.991C480.428 197.457 481.485 196.26 482.84 195.399C484.204 194.538 485.798 194.108 487.622 194.108C488.73 194.108 489.803 194.291 490.843 194.658C491.883 195.024 492.816 195.599 493.643 196.384C494.47 197.168 495.122 198.186 495.599 199.439C496.076 200.683 496.315 202.196 496.315 203.977V205.332H480.705V202.469H492.569C492.569 201.463 492.364 200.572 491.955 199.797C491.546 199.013 490.971 198.395 490.23 197.943C489.497 197.491 488.636 197.266 487.647 197.266C486.573 197.266 485.636 197.53 484.835 198.058C484.042 198.578 483.428 199.26 482.994 200.104C482.568 200.939 482.355 201.847 482.355 202.827V205.064C482.355 206.376 482.585 207.493 483.045 208.413C483.514 209.334 484.166 210.037 485.001 210.523C485.836 211 486.812 211.239 487.928 211.239C488.653 211.239 489.313 211.136 489.91 210.932C490.506 210.719 491.022 210.403 491.457 209.986C491.891 209.568 492.224 209.053 492.454 208.439L496.072 209.091C495.782 210.156 495.262 211.089 494.512 211.891C493.771 212.683 492.837 213.301 491.712 213.744C490.596 214.179 489.322 214.396 487.89 214.396Z" fill="white"/>
</g>
<path d="M316 144V146H530V144V142H316V144ZM546 160H544V240H546H548V160H546ZM530 256V254H316V256V258H530V256ZM300 240H302V160H300H298V240H300ZM316 256V254C308.268 254 302 247.732 302 240H300H298C298 249.941 306.059 258 316 258V256ZM546 240H544C544 247.732 537.732 254 530 254V256V258C539.941 258 548 249.941 548 240H546ZM530 144V146C537.732 146 544 152.268 544 160H546H548C548 150.059 539.941 142 530 142V144ZM316 144V142C306.059 142 298 150.059 298 160H300H302C302 152.268 308.268 146 316 146V144Z" fill="#3C5AAA" mask="url(#path-2-inside-1_15283_31151)"/>
<defs>
<clipPath id="clip0_15283_31151">
<path d="M300 160C300 151.163 307.163 144 316 144H530C538.837 144 546 151.163 546 160V240C546 248.837 538.837 256 530 256H316C307.163 256 300 248.837 300 240V160Z" fill="white"/>
</clipPath>
</defs>
</svg>
