<svg width="1512" height="720" viewBox="0 0 1512 720" fill="none" xmlns="http://www.w3.org/2000/svg">
<rect width="756" height="360" transform="scale(2)" fill="#F6F6F6"/>
<path d="M356 360C356 332.386 378.386 310 406 310H1106C1133.61 310 1156 332.386 1156 360C1156 387.614 1133.61 410 1106 410H406C378.386 410 356 387.614 356 360Z" fill="#E5E5E5"/>
<path d="M372 360C372 341.222 387.222 326 406 326H562C580.778 326 596 341.222 596 360C596 378.778 580.778 394 562 394H406C387.222 394 372 378.778 372 360Z" fill="black"/>
<path d="M434.791 355.818L429.833 370H425.401L420.443 355.818H424.598L427.543 365.965H427.691L430.627 355.818H434.791ZM448.604 359.862L445.003 360.084C444.941 359.776 444.809 359.499 444.606 359.253C444.403 359 444.135 358.8 443.803 358.653C443.476 358.499 443.085 358.422 442.63 358.422C442.021 358.422 441.507 358.551 441.088 358.81C440.67 359.062 440.46 359.401 440.46 359.825C440.46 360.164 440.596 360.45 440.866 360.684C441.137 360.918 441.602 361.106 442.261 361.247L444.827 361.764C446.206 362.047 447.234 362.503 447.911 363.131C448.588 363.759 448.927 364.583 448.927 365.605C448.927 366.535 448.653 367.35 448.105 368.052C447.563 368.754 446.819 369.301 445.871 369.695C444.929 370.083 443.843 370.277 442.612 370.277C440.734 370.277 439.238 369.886 438.124 369.104C437.016 368.317 436.367 367.246 436.176 365.891L440.045 365.688C440.162 366.261 440.445 366.698 440.894 366.999C441.344 367.295 441.919 367.442 442.621 367.442C443.31 367.442 443.864 367.31 444.283 367.045C444.707 366.775 444.923 366.427 444.929 366.002C444.923 365.645 444.772 365.353 444.477 365.125C444.181 364.891 443.726 364.713 443.11 364.589L440.654 364.1C439.269 363.823 438.238 363.343 437.561 362.66C436.89 361.977 436.555 361.106 436.555 360.047C436.555 359.136 436.801 358.351 437.293 357.692C437.792 357.034 438.491 356.526 439.389 356.169C440.294 355.812 441.353 355.634 442.565 355.634C444.357 355.634 445.766 356.012 446.794 356.769C447.828 357.526 448.431 358.557 448.604 359.862ZM456.629 370.231C455.552 370.231 454.577 369.954 453.703 369.4C452.835 368.84 452.145 368.018 451.634 366.935C451.13 365.845 450.877 364.509 450.877 362.928C450.877 361.303 451.139 359.951 451.662 358.874C452.185 357.791 452.881 356.982 453.749 356.446C454.623 355.904 455.58 355.634 456.62 355.634C457.414 355.634 458.076 355.769 458.605 356.04C459.141 356.304 459.572 356.637 459.898 357.037C460.23 357.431 460.483 357.819 460.655 358.2H460.775V351.091H464.699V370H460.821V367.729H460.655C460.47 368.123 460.209 368.513 459.87 368.901C459.538 369.283 459.104 369.6 458.568 369.852C458.039 370.105 457.393 370.231 456.629 370.231ZM457.876 367.101C458.51 367.101 459.045 366.929 459.482 366.584C459.926 366.233 460.264 365.744 460.498 365.116C460.738 364.488 460.858 363.752 460.858 362.909C460.858 362.066 460.741 361.333 460.507 360.712C460.273 360.09 459.935 359.61 459.492 359.271C459.048 358.933 458.51 358.763 457.876 358.763C457.23 358.763 456.685 358.939 456.242 359.29C455.798 359.641 455.463 360.127 455.235 360.749C455.008 361.37 454.894 362.09 454.894 362.909C454.894 363.734 455.008 364.463 455.235 365.097C455.469 365.725 455.805 366.218 456.242 366.575C456.685 366.925 457.23 367.101 457.876 367.101ZM479.733 359.862L476.132 360.084C476.07 359.776 475.938 359.499 475.735 359.253C475.532 359 475.264 358.8 474.931 358.653C474.605 358.499 474.214 358.422 473.759 358.422C473.15 358.422 472.636 358.551 472.217 358.81C471.798 359.062 471.589 359.401 471.589 359.825C471.589 360.164 471.725 360.45 471.995 360.684C472.266 360.918 472.731 361.106 473.39 361.247L475.956 361.764C477.335 362.047 478.363 362.503 479.04 363.131C479.717 363.759 480.056 364.583 480.056 365.605C480.056 366.535 479.782 367.35 479.234 368.052C478.692 368.754 477.948 369.301 477 369.695C476.058 370.083 474.971 370.277 473.74 370.277C471.863 370.277 470.367 369.886 469.253 369.104C468.145 368.317 467.496 367.246 467.305 365.891L471.174 365.688C471.291 366.261 471.574 366.698 472.023 366.999C472.472 367.295 473.048 367.442 473.75 367.442C474.439 367.442 474.993 367.31 475.412 367.045C475.836 366.775 476.052 366.427 476.058 366.002C476.052 365.645 475.901 365.353 475.605 365.125C475.31 364.891 474.855 364.713 474.239 364.589L471.783 364.1C470.398 363.823 469.367 363.343 468.69 362.66C468.019 361.977 467.684 361.106 467.684 360.047C467.684 359.136 467.93 358.351 468.422 357.692C468.921 357.034 469.619 356.526 470.518 356.169C471.423 355.812 472.482 355.634 473.694 355.634C475.485 355.634 476.895 356.012 477.923 356.769C478.957 357.526 479.56 358.557 479.733 359.862ZM491.368 360.675V363.795H482.745V360.675H491.368ZM494.72 370V355.818H498.653V370H494.72ZM496.696 353.99C496.111 353.99 495.609 353.796 495.191 353.408C494.778 353.014 494.572 352.544 494.572 351.996C494.572 351.454 494.778 350.989 495.191 350.602C495.609 350.208 496.111 350.011 496.696 350.011C497.281 350.011 497.779 350.208 498.192 350.602C498.61 350.989 498.819 351.454 498.819 351.996C498.819 352.544 498.61 353.014 498.192 353.408C497.779 353.796 497.281 353.99 496.696 353.99ZM508.212 370.277C506.759 370.277 505.509 369.969 504.463 369.354C503.423 368.732 502.623 367.87 502.062 366.768C501.509 365.667 501.232 364.399 501.232 362.964C501.232 361.512 501.512 360.238 502.072 359.142C502.638 358.04 503.441 357.182 504.482 356.566C505.522 355.944 506.759 355.634 508.193 355.634C509.43 355.634 510.514 355.858 511.443 356.308C512.373 356.757 513.108 357.388 513.65 358.2C514.192 359.013 514.49 359.967 514.545 361.062H510.834C510.729 360.355 510.452 359.785 510.003 359.354C509.56 358.917 508.978 358.699 508.258 358.699C507.648 358.699 507.116 358.865 506.661 359.197C506.211 359.524 505.86 360.001 505.608 360.629C505.356 361.256 505.229 362.017 505.229 362.909C505.229 363.814 505.353 364.583 505.599 365.217C505.851 365.851 506.205 366.335 506.661 366.667C507.116 366.999 507.648 367.165 508.258 367.165C508.707 367.165 509.11 367.073 509.467 366.888C509.83 366.704 510.129 366.436 510.363 366.085C510.603 365.728 510.76 365.3 510.834 364.802H514.545C514.484 365.885 514.188 366.839 513.659 367.664C513.136 368.483 512.413 369.123 511.489 369.585C510.566 370.046 509.473 370.277 508.212 370.277ZM523.471 370.277C522.037 370.277 520.797 369.972 519.751 369.363C518.71 368.747 517.907 367.892 517.341 366.796C516.774 365.694 516.491 364.417 516.491 362.964C516.491 361.5 516.774 360.219 517.341 359.124C517.907 358.022 518.71 357.166 519.751 356.557C520.797 355.941 522.037 355.634 523.471 355.634C524.906 355.634 526.143 355.941 527.183 356.557C528.229 357.166 529.036 358.022 529.602 359.124C530.168 360.219 530.452 361.5 530.452 362.964C530.452 364.417 530.168 365.694 529.602 366.796C529.036 367.892 528.229 368.747 527.183 369.363C526.143 369.972 524.906 370.277 523.471 370.277ZM523.49 367.23C524.142 367.23 524.687 367.045 525.124 366.676C525.561 366.301 525.89 365.79 526.112 365.143C526.34 364.497 526.454 363.762 526.454 362.937C526.454 362.112 526.34 361.376 526.112 360.73C525.89 360.084 525.561 359.573 525.124 359.197C524.687 358.822 524.142 358.634 523.49 358.634C522.831 358.634 522.277 358.822 521.828 359.197C521.385 359.573 521.049 360.084 520.822 360.73C520.6 361.376 520.489 362.112 520.489 362.937C520.489 363.762 520.6 364.497 520.822 365.143C521.049 365.79 521.385 366.301 521.828 366.676C522.277 367.045 522.831 367.23 523.49 367.23ZM536.942 361.801V370H533.009V355.818H536.758V358.32H536.924C537.238 357.496 537.764 356.843 538.503 356.363C539.241 355.877 540.137 355.634 541.189 355.634C542.174 355.634 543.033 355.849 543.765 356.28C544.498 356.711 545.067 357.326 545.474 358.126C545.88 358.92 546.083 359.868 546.083 360.97V370H542.15V361.672C542.156 360.804 541.934 360.127 541.485 359.641C541.036 359.148 540.417 358.902 539.629 358.902C539.1 358.902 538.632 359.016 538.226 359.244C537.826 359.471 537.512 359.804 537.284 360.241C537.062 360.672 536.948 361.192 536.942 361.801Z" fill="white"/>
<path d="M619.534 368.707V356.52H621.602V368.707H619.534ZM614.474 363.648V361.58H626.662V363.648H614.474Z" fill="#4D4D4D"/>
<path d="M646 360C646 341.222 661.222 326 680 326H840C858.778 326 874 341.222 874 360C874 378.778 858.778 394 840 394H680C661.222 394 646 378.778 646 360Z" fill="#3C5AAA"/>
<path d="M695.643 370V351.091H703.104C704.538 351.091 705.76 351.365 706.769 351.913C707.779 352.454 708.548 353.208 709.077 354.175C709.613 355.135 709.881 356.243 709.881 357.499C709.881 358.754 709.61 359.862 709.068 360.822C708.527 361.783 707.742 362.531 706.714 363.066C705.692 363.602 704.455 363.869 703.002 363.869H698.247V360.665H702.356C703.125 360.665 703.759 360.533 704.258 360.268C704.763 359.998 705.138 359.625 705.384 359.151C705.637 358.671 705.763 358.12 705.763 357.499C705.763 356.871 705.637 356.323 705.384 355.855C705.138 355.381 704.763 355.015 704.258 354.756C703.753 354.492 703.113 354.359 702.337 354.359H699.641V370H695.643ZM712.404 370V355.818H716.337V370H712.404ZM714.379 353.99C713.795 353.99 713.293 353.796 712.874 353.408C712.462 353.014 712.256 352.544 712.256 351.996C712.256 351.454 712.462 350.989 712.874 350.602C713.293 350.208 713.795 350.011 714.379 350.011C714.964 350.011 715.463 350.208 715.875 350.602C716.294 350.989 716.503 351.454 716.503 351.996C716.503 352.544 716.294 353.014 715.875 353.408C715.463 353.796 714.964 353.99 714.379 353.99ZM725.895 370.277C724.443 370.277 723.193 369.969 722.147 369.354C721.106 368.732 720.306 367.87 719.746 366.768C719.192 365.667 718.915 364.399 718.915 362.964C718.915 361.512 719.195 360.238 719.755 359.142C720.322 358.04 721.125 357.182 722.165 356.566C723.205 355.944 724.443 355.634 725.877 355.634C727.114 355.634 728.197 355.858 729.127 356.308C730.056 356.757 730.792 357.388 731.333 358.2C731.875 359.013 732.174 359.967 732.229 361.062H728.517C728.413 360.355 728.136 359.785 727.686 359.354C727.243 358.917 726.662 358.699 725.941 358.699C725.332 358.699 724.8 358.865 724.344 359.197C723.895 359.524 723.544 360.001 723.292 360.629C723.039 361.256 722.913 362.017 722.913 362.909C722.913 363.814 723.036 364.583 723.282 365.217C723.535 365.851 723.889 366.335 724.344 366.667C724.8 366.999 725.332 367.165 725.941 367.165C726.391 367.165 726.794 367.073 727.151 366.888C727.514 366.704 727.813 366.436 728.047 366.085C728.287 365.728 728.444 365.3 728.517 364.802H732.229C732.167 365.885 731.872 366.839 731.343 367.664C730.819 368.483 730.096 369.123 729.173 369.585C728.25 370.046 727.157 370.277 725.895 370.277ZM742.291 355.818V358.773H733.75V355.818H742.291ZM735.689 352.42H739.622V365.642C739.622 366.005 739.678 366.288 739.789 366.491C739.899 366.688 740.053 366.827 740.25 366.907C740.453 366.987 740.687 367.027 740.952 367.027C741.137 367.027 741.321 367.012 741.506 366.981C741.691 366.944 741.832 366.916 741.931 366.898L742.549 369.825C742.352 369.886 742.075 369.957 741.718 370.037C741.361 370.123 740.927 370.175 740.416 370.194C739.468 370.231 738.637 370.105 737.923 369.815C737.216 369.526 736.665 369.077 736.271 368.467C735.877 367.858 735.683 367.089 735.689 366.159V352.42ZM751.108 370.277C749.674 370.277 748.434 369.972 747.387 369.363C746.347 368.747 745.544 367.892 744.977 366.796C744.411 365.694 744.128 364.417 744.128 362.964C744.128 361.5 744.411 360.219 744.977 359.124C745.544 358.022 746.347 357.166 747.387 356.557C748.434 355.941 749.674 355.634 751.108 355.634C752.542 355.634 753.78 355.941 754.82 356.557C755.866 357.166 756.673 358.022 757.239 359.124C757.805 360.219 758.088 361.5 758.088 362.964C758.088 364.417 757.805 365.694 757.239 366.796C756.673 367.892 755.866 368.747 754.82 369.363C753.78 369.972 752.542 370.277 751.108 370.277ZM751.127 367.23C751.779 367.23 752.324 367.045 752.761 366.676C753.198 366.301 753.527 365.79 753.749 365.143C753.977 364.497 754.09 363.762 754.09 362.937C754.09 362.112 753.977 361.376 753.749 360.73C753.527 360.084 753.198 359.573 752.761 359.197C752.324 358.822 751.779 358.634 751.127 358.634C750.468 358.634 749.914 358.822 749.465 359.197C749.021 359.573 748.686 360.084 748.458 360.73C748.237 361.376 748.126 362.112 748.126 362.937C748.126 363.762 748.237 364.497 748.458 365.143C748.686 365.79 749.021 366.301 749.465 366.676C749.914 367.045 750.468 367.23 751.127 367.23ZM767.035 375.614C765.761 375.614 764.668 375.438 763.757 375.087C762.852 374.743 762.132 374.272 761.597 373.675C761.061 373.078 760.713 372.407 760.553 371.662L764.191 371.173C764.302 371.456 764.477 371.72 764.718 371.967C764.958 372.213 765.275 372.41 765.669 372.558C766.069 372.711 766.555 372.788 767.127 372.788C767.983 372.788 768.688 372.579 769.242 372.161C769.802 371.748 770.082 371.056 770.082 370.083V367.489H769.916C769.743 367.883 769.485 368.255 769.14 368.606C768.795 368.957 768.352 369.243 767.811 369.464C767.269 369.686 766.623 369.797 765.872 369.797C764.807 369.797 763.837 369.551 762.963 369.058C762.095 368.56 761.403 367.799 760.886 366.778C760.375 365.75 760.119 364.451 760.119 362.881C760.119 361.275 760.381 359.933 760.904 358.856C761.427 357.779 762.123 356.972 762.991 356.437C763.865 355.901 764.822 355.634 765.862 355.634C766.656 355.634 767.321 355.769 767.857 356.04C768.392 356.304 768.823 356.637 769.149 357.037C769.482 357.431 769.737 357.819 769.916 358.2H770.063V355.818H773.969V370.138C773.969 371.345 773.673 372.354 773.083 373.167C772.492 373.979 771.673 374.589 770.627 374.995C769.586 375.407 768.389 375.614 767.035 375.614ZM767.118 366.842C767.752 366.842 768.288 366.685 768.725 366.371C769.168 366.051 769.506 365.596 769.74 365.005C769.98 364.408 770.1 363.694 770.1 362.863C770.1 362.032 769.983 361.312 769.749 360.702C769.516 360.087 769.177 359.61 768.734 359.271C768.291 358.933 767.752 358.763 767.118 358.763C766.472 358.763 765.927 358.939 765.484 359.29C765.041 359.634 764.705 360.115 764.477 360.73C764.25 361.346 764.136 362.057 764.136 362.863C764.136 363.682 764.25 364.389 764.477 364.987C764.711 365.577 765.047 366.036 765.484 366.362C765.927 366.682 766.472 366.842 767.118 366.842ZM777.099 370V355.818H780.912V358.293H781.06C781.318 357.412 781.752 356.748 782.362 356.298C782.971 355.843 783.673 355.615 784.467 355.615C784.664 355.615 784.876 355.627 785.104 355.652C785.332 355.677 785.532 355.71 785.704 355.754V359.244C785.519 359.188 785.264 359.139 784.938 359.096C784.611 359.053 784.313 359.031 784.042 359.031C783.463 359.031 782.946 359.157 782.491 359.41C782.042 359.656 781.685 360.001 781.42 360.444C781.161 360.887 781.032 361.398 781.032 361.977V370H777.099ZM791.375 370.268C790.471 370.268 789.664 370.111 788.956 369.797C788.248 369.477 787.688 369.006 787.276 368.384C786.87 367.756 786.667 366.975 786.667 366.039C786.667 365.251 786.811 364.589 787.1 364.054C787.39 363.518 787.784 363.088 788.282 362.761C788.781 362.435 789.347 362.189 789.981 362.023C790.621 361.857 791.292 361.74 791.994 361.672C792.819 361.586 793.484 361.506 793.988 361.432C794.493 361.352 794.859 361.235 795.087 361.081C795.315 360.927 795.429 360.699 795.429 360.398V360.342C795.429 359.758 795.244 359.305 794.875 358.985C794.511 358.665 793.994 358.505 793.324 358.505C792.616 358.505 792.052 358.662 791.634 358.976C791.215 359.284 790.938 359.671 790.803 360.139L787.165 359.844C787.35 358.982 787.713 358.237 788.255 357.609C788.796 356.975 789.495 356.489 790.35 356.151C791.212 355.806 792.209 355.634 793.342 355.634C794.13 355.634 794.884 355.726 795.604 355.911C796.33 356.095 796.974 356.381 797.534 356.769C798.1 357.157 798.546 357.656 798.873 358.265C799.199 358.868 799.362 359.591 799.362 360.435V370H795.632V368.033H795.521C795.293 368.477 794.989 368.867 794.607 369.206C794.225 369.538 793.767 369.8 793.231 369.991C792.696 370.175 792.077 370.268 791.375 370.268ZM792.502 367.553C793.08 367.553 793.591 367.439 794.034 367.212C794.478 366.978 794.825 366.664 795.078 366.27C795.33 365.876 795.456 365.43 795.456 364.931V363.426C795.333 363.506 795.164 363.58 794.949 363.648C794.739 363.709 794.502 363.768 794.238 363.823C793.973 363.872 793.708 363.919 793.444 363.962C793.179 363.999 792.939 364.032 792.723 364.063C792.262 364.131 791.859 364.239 791.514 364.386C791.169 364.534 790.901 364.734 790.711 364.987C790.52 365.233 790.424 365.54 790.424 365.91C790.424 366.445 790.618 366.855 791.006 367.138C791.4 367.415 791.899 367.553 792.502 367.553ZM802.413 370V355.818H806.162V358.32H806.328C806.624 357.489 807.116 356.834 807.805 356.354C808.495 355.874 809.32 355.634 810.28 355.634C811.252 355.634 812.08 355.877 812.763 356.363C813.447 356.843 813.902 357.496 814.13 358.32H814.278C814.567 357.508 815.09 356.858 815.847 356.372C816.611 355.88 817.512 355.634 818.553 355.634C819.876 355.634 820.95 356.055 821.775 356.898C822.606 357.736 823.021 358.924 823.021 360.462V370H819.097V361.238C819.097 360.45 818.888 359.859 818.469 359.465C818.051 359.071 817.528 358.874 816.9 358.874C816.186 358.874 815.629 359.102 815.229 359.558C814.829 360.007 814.629 360.601 814.629 361.339V370H810.815V361.155C810.815 360.459 810.615 359.905 810.215 359.493C809.821 359.08 809.301 358.874 808.655 358.874C808.218 358.874 807.824 358.985 807.473 359.207C807.128 359.422 806.854 359.727 806.651 360.121C806.448 360.509 806.347 360.964 806.347 361.487V370H802.413Z" fill="white"/>
<path d="M897.534 368.707V356.52H899.602V368.707H897.534ZM892.474 363.648V361.58H904.662V363.648H892.474Z" fill="#4D4D4D"/>
<path d="M924 360C924 341.222 939.222 326 958 326H1106C1124.78 326 1140 341.222 1140 360C1140 378.778 1124.78 394 1106 394H958C939.222 394 924 378.778 924 360Z" fill="#3C5AAA"/>
<path d="M977.06 351.091L981.63 365.457H981.805L986.385 351.091H990.817L984.298 370H979.146L972.619 351.091H977.06ZM995.489 370.268C994.584 370.268 993.777 370.111 993.07 369.797C992.362 369.477 991.802 369.006 991.389 368.384C990.983 367.756 990.78 366.975 990.78 366.039C990.78 365.251 990.924 364.589 991.214 364.054C991.503 363.518 991.897 363.088 992.396 362.761C992.894 362.435 993.46 362.189 994.094 362.023C994.735 361.857 995.406 361.74 996.107 361.672C996.932 361.586 997.597 361.506 998.102 361.432C998.606 361.352 998.973 361.235 999.2 361.081C999.428 360.927 999.542 360.699 999.542 360.398V360.342C999.542 359.758 999.357 359.305 998.988 358.985C998.625 358.665 998.108 358.505 997.437 358.505C996.729 358.505 996.166 358.662 995.747 358.976C995.329 359.284 995.052 359.671 994.916 360.139L991.278 359.844C991.463 358.982 991.826 358.237 992.368 357.609C992.91 356.975 993.608 356.489 994.464 356.151C995.326 355.806 996.323 355.634 997.455 355.634C998.243 355.634 998.997 355.726 999.717 355.911C1000.44 356.095 1001.09 356.381 1001.65 356.769C1002.21 357.157 1002.66 357.656 1002.99 358.265C1003.31 358.868 1003.48 359.591 1003.48 360.435V370H999.745V368.033H999.634C999.406 368.477 999.102 368.867 998.72 369.206C998.339 369.538 997.88 369.8 997.344 369.991C996.809 370.175 996.19 370.268 995.489 370.268ZM996.615 367.553C997.194 367.553 997.705 367.439 998.148 367.212C998.591 366.978 998.939 366.664 999.191 366.27C999.443 365.876 999.57 365.43 999.57 364.931V363.426C999.446 363.506 999.277 363.58 999.062 363.648C998.853 363.709 998.616 363.768 998.351 363.823C998.086 363.872 997.821 363.919 997.557 363.962C997.292 363.999 997.052 364.032 996.837 364.063C996.375 364.131 995.972 364.239 995.627 364.386C995.282 364.534 995.015 364.734 994.824 364.987C994.633 365.233 994.538 365.54 994.538 365.91C994.538 366.445 994.732 366.855 995.119 367.138C995.513 367.415 996.012 367.553 996.615 367.553ZM1006.53 370V355.818H1010.34V358.293H1010.49C1010.75 357.412 1011.18 356.748 1011.79 356.298C1012.4 355.843 1013.1 355.615 1013.89 355.615C1014.09 355.615 1014.3 355.627 1014.53 355.652C1014.76 355.677 1014.96 355.71 1015.13 355.754V359.244C1014.95 359.188 1014.69 359.139 1014.37 359.096C1014.04 359.053 1013.74 359.031 1013.47 359.031C1012.89 359.031 1012.37 359.157 1011.92 359.41C1011.47 359.656 1011.11 360.001 1010.85 360.444C1010.59 360.887 1010.46 361.398 1010.46 361.977V370H1006.53ZM1017.17 370V355.818H1021.1V370H1017.17ZM1019.14 353.99C1018.56 353.99 1018.05 353.796 1017.64 353.408C1017.22 353.014 1017.02 352.544 1017.02 351.996C1017.02 351.454 1017.22 350.989 1017.64 350.602C1018.05 350.208 1018.56 350.011 1019.14 350.011C1019.73 350.011 1020.22 350.208 1020.64 350.602C1021.06 350.989 1021.26 351.454 1021.26 351.996C1021.26 352.544 1021.06 353.014 1020.64 353.408C1020.22 353.796 1019.73 353.99 1019.14 353.99ZM1028.29 370.268C1027.39 370.268 1026.58 370.111 1025.87 369.797C1025.17 369.477 1024.61 369.006 1024.19 368.384C1023.79 367.756 1023.58 366.975 1023.58 366.039C1023.58 365.251 1023.73 364.589 1024.02 364.054C1024.31 363.518 1024.7 363.088 1025.2 362.761C1025.7 362.435 1026.27 362.189 1026.9 362.023C1027.54 361.857 1028.21 361.74 1028.91 361.672C1029.74 361.586 1030.4 361.506 1030.91 361.432C1031.41 361.352 1031.78 361.235 1032 361.081C1032.23 360.927 1032.35 360.699 1032.35 360.398V360.342C1032.35 359.758 1032.16 359.305 1031.79 358.985C1031.43 358.665 1030.91 358.505 1030.24 358.505C1029.53 358.505 1028.97 358.662 1028.55 358.976C1028.13 359.284 1027.86 359.671 1027.72 360.139L1024.08 359.844C1024.27 358.982 1024.63 358.237 1025.17 357.609C1025.71 356.975 1026.41 356.489 1027.27 356.151C1028.13 355.806 1029.13 355.634 1030.26 355.634C1031.05 355.634 1031.8 355.726 1032.52 355.911C1033.25 356.095 1033.89 356.381 1034.45 356.769C1035.02 357.157 1035.46 357.656 1035.79 358.265C1036.12 358.868 1036.28 359.591 1036.28 360.435V370H1032.55V368.033H1032.44C1032.21 368.477 1031.91 368.867 1031.52 369.206C1031.14 369.538 1030.68 369.8 1030.15 369.991C1029.61 370.175 1029 370.268 1028.29 370.268ZM1029.42 367.553C1030 367.553 1030.51 367.439 1030.95 367.212C1031.4 366.978 1031.74 366.664 1032 366.27C1032.25 365.876 1032.37 365.43 1032.37 364.931V363.426C1032.25 363.506 1032.08 363.58 1031.87 363.648C1031.66 363.709 1031.42 363.768 1031.16 363.823C1030.89 363.872 1030.63 363.919 1030.36 363.962C1030.1 363.999 1029.86 364.032 1029.64 364.063C1029.18 364.131 1028.78 364.239 1028.43 364.386C1028.09 364.534 1027.82 364.734 1027.63 364.987C1027.44 365.233 1027.34 365.54 1027.34 365.91C1027.34 366.445 1027.54 366.855 1027.92 367.138C1028.32 367.415 1028.82 367.553 1029.42 367.553ZM1039.41 370V351.091H1043.34V358.2H1043.46C1043.63 357.819 1043.88 357.431 1044.21 357.037C1044.54 356.637 1044.97 356.304 1045.5 356.04C1046.03 355.769 1046.7 355.634 1047.49 355.634C1048.53 355.634 1049.48 355.904 1050.36 356.446C1051.23 356.982 1051.93 357.791 1052.45 358.874C1052.97 359.951 1053.24 361.303 1053.24 362.928C1053.24 364.509 1052.98 365.845 1052.47 366.935C1051.97 368.018 1051.28 368.84 1050.4 369.4C1049.53 369.954 1048.56 370.231 1047.48 370.231C1046.72 370.231 1046.07 370.105 1045.54 369.852C1045.01 369.6 1044.57 369.283 1044.23 368.901C1043.9 368.513 1043.64 368.123 1043.46 367.729H1043.28V370H1039.41ZM1043.26 362.909C1043.26 363.752 1043.37 364.488 1043.61 365.116C1043.84 365.744 1044.18 366.233 1044.62 366.584C1045.06 366.929 1045.6 367.101 1046.24 367.101C1046.88 367.101 1047.42 366.925 1047.86 366.575C1048.31 366.218 1048.64 365.725 1048.87 365.097C1049.1 364.463 1049.22 363.734 1049.22 362.909C1049.22 362.09 1049.11 361.37 1048.88 360.749C1048.65 360.127 1048.31 359.641 1047.87 359.29C1047.43 358.939 1046.88 358.763 1046.24 358.763C1045.6 358.763 1045.06 358.933 1044.61 359.271C1044.18 359.61 1043.84 360.09 1043.61 360.712C1043.37 361.333 1043.26 362.066 1043.26 362.909ZM1059.79 351.091V370H1055.86V351.091H1059.79ZM1069.41 370.277C1067.95 370.277 1066.69 369.982 1065.64 369.391C1064.59 368.794 1063.79 367.95 1063.22 366.861C1062.66 365.765 1062.37 364.469 1062.37 362.974C1062.37 361.515 1062.66 360.235 1063.22 359.133C1063.79 358.031 1064.58 357.172 1065.61 356.557C1066.65 355.941 1067.86 355.634 1069.25 355.634C1070.19 355.634 1071.06 355.784 1071.86 356.086C1072.68 356.381 1073.38 356.828 1073.99 357.425C1074.6 358.022 1075.07 358.773 1075.41 359.678C1075.75 360.576 1075.92 361.629 1075.92 362.835V363.915H1063.94V361.478H1072.21C1072.21 360.912 1072.09 360.41 1071.85 359.973C1071.6 359.536 1071.26 359.194 1070.82 358.948C1070.39 358.696 1069.89 358.57 1069.32 358.57C1068.72 358.57 1068.19 358.708 1067.73 358.985C1067.27 359.256 1066.91 359.622 1066.66 360.084C1066.4 360.539 1066.27 361.047 1066.26 361.607V363.925C1066.26 364.626 1066.39 365.233 1066.65 365.744C1066.91 366.254 1067.28 366.648 1067.76 366.925C1068.24 367.202 1068.81 367.341 1069.47 367.341C1069.91 367.341 1070.31 367.279 1070.67 367.156C1071.04 367.033 1071.35 366.848 1071.61 366.602C1071.86 366.356 1072.06 366.054 1072.2 365.697L1075.83 365.938C1075.65 366.812 1075.27 367.575 1074.7 368.227C1074.13 368.874 1073.4 369.378 1072.5 369.741C1071.61 370.098 1070.58 370.277 1069.41 370.277ZM1090.28 359.862L1086.68 360.084C1086.62 359.776 1086.49 359.499 1086.29 359.253C1086.08 359 1085.81 358.8 1085.48 358.653C1085.16 358.499 1084.77 358.422 1084.31 358.422C1083.7 358.422 1083.19 358.551 1082.77 358.81C1082.35 359.062 1082.14 359.401 1082.14 359.825C1082.14 360.164 1082.28 360.45 1082.55 360.684C1082.82 360.918 1083.28 361.106 1083.94 361.247L1086.51 361.764C1087.89 362.047 1088.91 362.503 1089.59 363.131C1090.27 363.759 1090.61 364.583 1090.61 365.605C1090.61 366.535 1090.33 367.35 1089.78 368.052C1089.24 368.754 1088.5 369.301 1087.55 369.695C1086.61 370.083 1085.52 370.277 1084.29 370.277C1082.41 370.277 1080.92 369.886 1079.8 369.104C1078.7 368.317 1078.05 367.246 1077.86 365.891L1081.72 365.688C1081.84 366.261 1082.12 366.698 1082.57 366.999C1083.02 367.295 1083.6 367.442 1084.3 367.442C1084.99 367.442 1085.54 367.31 1085.96 367.045C1086.39 366.775 1086.6 366.427 1086.61 366.002C1086.6 365.645 1086.45 365.353 1086.16 365.125C1085.86 364.891 1085.41 364.713 1084.79 364.589L1082.33 364.1C1080.95 363.823 1079.92 363.343 1079.24 362.66C1078.57 361.977 1078.23 361.106 1078.23 360.047C1078.23 359.136 1078.48 358.351 1078.97 357.692C1079.47 357.034 1080.17 356.526 1081.07 356.169C1081.97 355.812 1083.03 355.634 1084.25 355.634C1086.04 355.634 1087.45 356.012 1088.47 356.769C1089.51 357.526 1090.11 358.557 1090.28 359.862Z" fill="white"/>
<path d="M452.8 470V452.545H459.022C460.38 452.545 461.505 452.793 462.397 453.287C463.289 453.781 463.957 454.457 464.4 455.315C464.843 456.168 465.065 457.128 465.065 458.196C465.065 459.27 464.84 460.236 464.391 461.094C463.948 461.946 463.278 462.622 462.38 463.122C461.488 463.616 460.366 463.864 459.013 463.864H454.735V461.631H458.775C459.633 461.631 460.329 461.483 460.863 461.188C461.397 460.886 461.789 460.477 462.039 459.96C462.289 459.443 462.414 458.855 462.414 458.196C462.414 457.537 462.289 456.952 462.039 456.44C461.789 455.929 461.394 455.528 460.854 455.239C460.32 454.949 459.616 454.804 458.741 454.804H455.434V470H452.8ZM467.947 470V456.909H470.411V458.989H470.547C470.786 458.284 471.206 457.73 471.808 457.327C472.416 456.918 473.104 456.713 473.871 456.713C474.03 456.713 474.217 456.719 474.433 456.73C474.655 456.741 474.828 456.756 474.953 456.773V459.21C474.851 459.182 474.669 459.151 474.408 459.116C474.146 459.077 473.885 459.057 473.624 459.057C473.021 459.057 472.484 459.185 472.013 459.44C471.547 459.69 471.178 460.04 470.905 460.489C470.632 460.932 470.496 461.437 470.496 462.006V470H467.947ZM482.332 470.264C481.042 470.264 479.931 469.989 478.999 469.438C478.073 468.881 477.357 468.099 476.852 467.094C476.352 466.082 476.102 464.898 476.102 463.54C476.102 462.199 476.352 461.017 476.852 459.994C477.357 458.972 478.062 458.173 478.965 457.599C479.874 457.026 480.937 456.739 482.153 456.739C482.891 456.739 483.607 456.861 484.3 457.105C484.994 457.349 485.616 457.733 486.167 458.256C486.718 458.778 487.153 459.457 487.471 460.293C487.789 461.122 487.948 462.131 487.948 463.318V464.222H477.542V462.312H485.451C485.451 461.642 485.315 461.048 485.042 460.531C484.769 460.009 484.386 459.597 483.891 459.295C483.403 458.994 482.829 458.844 482.17 458.844C481.454 458.844 480.829 459.02 480.295 459.372C479.766 459.719 479.357 460.173 479.067 460.736C478.783 461.293 478.641 461.898 478.641 462.551V464.043C478.641 464.918 478.795 465.662 479.102 466.276C479.414 466.889 479.849 467.358 480.406 467.682C480.962 468 481.613 468.159 482.357 468.159C482.84 468.159 483.281 468.091 483.678 467.955C484.076 467.812 484.42 467.602 484.71 467.324C484.999 467.045 485.221 466.702 485.374 466.293L487.786 466.727C487.593 467.437 487.246 468.06 486.746 468.594C486.252 469.122 485.63 469.534 484.88 469.83C484.136 470.119 483.286 470.264 482.332 470.264ZM497.006 456.909V458.955H489.608V456.909H497.006ZM491.636 470V455.392C491.636 454.574 491.815 453.895 492.173 453.355C492.531 452.81 493.006 452.403 493.597 452.136C494.188 451.864 494.83 451.727 495.523 451.727C496.034 451.727 496.472 451.77 496.835 451.855C497.199 451.935 497.469 452.009 497.645 452.077L497.048 454.139C496.929 454.105 496.776 454.065 496.588 454.02C496.401 453.969 496.173 453.943 495.906 453.943C495.287 453.943 494.844 454.097 494.577 454.403C494.315 454.71 494.185 455.153 494.185 455.733V470H491.636ZM499.635 470V456.909H502.183V470H499.635ZM500.922 454.889C500.479 454.889 500.098 454.741 499.78 454.446C499.467 454.145 499.311 453.787 499.311 453.372C499.311 452.952 499.467 452.594 499.78 452.298C500.098 451.997 500.479 451.847 500.922 451.847C501.365 451.847 501.743 451.997 502.055 452.298C502.374 452.594 502.533 452.952 502.533 453.372C502.533 453.787 502.374 454.145 502.055 454.446C501.743 454.741 501.365 454.889 500.922 454.889ZM507.623 456.909L510.512 462.006L513.427 456.909H516.214L512.131 463.455L516.248 470H513.461L510.512 465.108L507.572 470H504.776L508.85 463.455L504.827 456.909H507.623Z" fill="#333333"/>
<path d="M741.787 464.571V456.909H744.344V470H741.838V467.733H741.702C741.401 468.432 740.918 469.014 740.253 469.48C739.594 469.94 738.773 470.17 737.79 470.17C736.949 470.17 736.205 469.986 735.557 469.616C734.915 469.241 734.409 468.688 734.04 467.955C733.676 467.222 733.494 466.315 733.494 465.236V456.909H736.043V464.929C736.043 465.821 736.29 466.531 736.784 467.06C737.278 467.588 737.92 467.852 738.71 467.852C739.188 467.852 739.662 467.733 740.134 467.494C740.611 467.256 741.006 466.895 741.318 466.412C741.636 465.929 741.793 465.315 741.787 464.571ZM757.577 460.105L755.268 460.514C755.171 460.219 755.018 459.937 754.808 459.67C754.603 459.403 754.325 459.185 753.972 459.014C753.62 458.844 753.18 458.759 752.651 458.759C751.93 458.759 751.327 458.92 750.844 459.244C750.362 459.562 750.12 459.974 750.12 460.48C750.12 460.918 750.282 461.27 750.606 461.537C750.93 461.804 751.452 462.023 752.174 462.193L754.254 462.67C755.458 462.949 756.356 463.378 756.947 463.957C757.538 464.537 757.833 465.29 757.833 466.216C757.833 467 757.606 467.699 757.151 468.312C756.702 468.92 756.075 469.398 755.268 469.744C754.467 470.091 753.538 470.264 752.481 470.264C751.015 470.264 749.819 469.952 748.893 469.327C747.967 468.696 747.398 467.801 747.188 466.642L749.651 466.267C749.805 466.909 750.12 467.395 750.597 467.724C751.075 468.048 751.697 468.21 752.464 468.21C753.299 468.21 753.967 468.037 754.467 467.69C754.967 467.338 755.217 466.909 755.217 466.403C755.217 465.994 755.063 465.651 754.756 465.372C754.455 465.094 753.992 464.884 753.367 464.741L751.151 464.256C749.93 463.977 749.026 463.534 748.441 462.926C747.862 462.318 747.572 461.548 747.572 460.616C747.572 459.844 747.788 459.168 748.219 458.588C748.651 458.009 749.248 457.557 750.009 457.233C750.771 456.903 751.643 456.739 752.626 456.739C754.04 456.739 755.154 457.045 755.967 457.659C756.779 458.267 757.316 459.082 757.577 460.105ZM766.277 470.264C764.987 470.264 763.876 469.989 762.945 469.438C762.018 468.881 761.303 468.099 760.797 467.094C760.297 466.082 760.047 464.898 760.047 463.54C760.047 462.199 760.297 461.017 760.797 459.994C761.303 458.972 762.007 458.173 762.911 457.599C763.82 457.026 764.882 456.739 766.098 456.739C766.837 456.739 767.553 456.861 768.246 457.105C768.939 457.349 769.561 457.733 770.112 458.256C770.663 458.778 771.098 459.457 771.416 460.293C771.734 461.122 771.893 462.131 771.893 463.318V464.222H761.487V462.312H769.396C769.396 461.642 769.26 461.048 768.987 460.531C768.714 460.009 768.331 459.597 767.837 459.295C767.348 458.994 766.774 458.844 766.115 458.844C765.399 458.844 764.774 459.02 764.24 459.372C763.712 459.719 763.303 460.173 763.013 460.736C762.729 461.293 762.587 461.898 762.587 462.551V464.043C762.587 464.918 762.74 465.662 763.047 466.276C763.359 466.889 763.794 467.358 764.351 467.682C764.908 468 765.558 468.159 766.303 468.159C766.786 468.159 767.226 468.091 767.624 467.955C768.021 467.812 768.365 467.602 768.655 467.324C768.945 467.045 769.166 466.702 769.32 466.293L771.732 466.727C771.538 467.437 771.192 468.06 770.692 468.594C770.197 469.122 769.575 469.534 768.825 469.83C768.081 470.119 767.232 470.264 766.277 470.264ZM774.721 470V456.909H777.184V458.989H777.32C777.559 458.284 777.979 457.73 778.582 457.327C779.19 456.918 779.877 456.713 780.644 456.713C780.803 456.713 780.991 456.719 781.207 456.73C781.428 456.741 781.602 456.756 781.727 456.773V459.21C781.624 459.182 781.442 459.151 781.181 459.116C780.92 459.077 780.658 459.057 780.397 459.057C779.795 459.057 779.258 459.185 778.786 459.44C778.32 459.69 777.951 460.04 777.678 460.489C777.406 460.932 777.269 461.437 777.269 462.006V470H774.721ZM704.643 508V494.909H707.089V497.04H707.251C707.523 496.318 707.969 495.756 708.589 495.352C709.208 494.943 709.95 494.739 710.813 494.739C711.688 494.739 712.421 494.943 713.012 495.352C713.609 495.761 714.049 496.324 714.333 497.04H714.469C714.782 496.341 715.279 495.784 715.961 495.369C716.643 494.949 717.455 494.739 718.398 494.739C719.586 494.739 720.555 495.111 721.305 495.855C722.06 496.599 722.438 497.722 722.438 499.222V508H719.89V499.46C719.89 498.574 719.648 497.932 719.165 497.534C718.683 497.136 718.106 496.938 717.435 496.938C716.606 496.938 715.961 497.193 715.501 497.705C715.04 498.21 714.81 498.861 714.81 499.656V508H712.271V499.298C712.271 498.588 712.049 498.017 711.606 497.585C711.163 497.153 710.586 496.938 709.876 496.938C709.393 496.938 708.947 497.065 708.538 497.321C708.134 497.571 707.808 497.92 707.558 498.369C707.313 498.818 707.191 499.338 707.191 499.929V508H704.643ZM729.663 508.29C728.834 508.29 728.084 508.136 727.413 507.83C726.743 507.517 726.212 507.065 725.82 506.474C725.433 505.884 725.24 505.159 725.24 504.301C725.24 503.562 725.382 502.955 725.666 502.477C725.95 502 726.334 501.622 726.817 501.344C727.3 501.065 727.839 500.855 728.436 500.713C729.033 500.571 729.641 500.463 730.26 500.389C731.044 500.298 731.68 500.224 732.169 500.168C732.658 500.105 733.013 500.006 733.234 499.869C733.456 499.733 733.567 499.511 733.567 499.205V499.145C733.567 498.401 733.357 497.824 732.936 497.415C732.521 497.006 731.902 496.801 731.078 496.801C730.22 496.801 729.544 496.991 729.05 497.372C728.561 497.747 728.223 498.165 728.036 498.625L725.641 498.08C725.925 497.284 726.339 496.642 726.885 496.153C727.436 495.659 728.07 495.301 728.786 495.08C729.501 494.852 730.254 494.739 731.044 494.739C731.567 494.739 732.121 494.801 732.706 494.926C733.297 495.045 733.848 495.267 734.359 495.591C734.876 495.915 735.3 496.378 735.629 496.98C735.959 497.577 736.124 498.352 736.124 499.307V508H733.635V506.21H733.533C733.368 506.54 733.121 506.864 732.791 507.182C732.462 507.5 732.038 507.764 731.521 507.974C731.004 508.185 730.385 508.29 729.663 508.29ZM730.217 506.244C730.922 506.244 731.524 506.105 732.024 505.827C732.53 505.548 732.913 505.185 733.175 504.736C733.442 504.281 733.575 503.795 733.575 503.278V501.591C733.484 501.682 733.308 501.767 733.047 501.847C732.791 501.92 732.499 501.986 732.169 502.043C731.839 502.094 731.518 502.142 731.206 502.188C730.893 502.227 730.632 502.261 730.422 502.29C729.928 502.352 729.476 502.457 729.067 502.605C728.663 502.753 728.339 502.966 728.095 503.244C727.857 503.517 727.737 503.881 727.737 504.335C727.737 504.966 727.97 505.443 728.436 505.767C728.902 506.085 729.496 506.244 730.217 506.244ZM745.006 513.182C743.967 513.182 743.072 513.045 742.322 512.773C741.577 512.5 740.969 512.139 740.498 511.69C740.026 511.241 739.674 510.75 739.441 510.216L741.631 509.312C741.785 509.562 741.989 509.827 742.245 510.105C742.506 510.389 742.859 510.631 743.302 510.83C743.751 511.028 744.327 511.128 745.032 511.128C745.998 511.128 746.796 510.892 747.427 510.42C748.058 509.955 748.373 509.21 748.373 508.188V505.614H748.211C748.058 505.892 747.836 506.202 747.546 506.543C747.262 506.884 746.87 507.179 746.37 507.429C745.87 507.679 745.219 507.804 744.418 507.804C743.384 507.804 742.452 507.562 741.623 507.08C740.799 506.591 740.146 505.872 739.663 504.923C739.185 503.969 738.947 502.795 738.947 501.403C738.947 500.011 739.183 498.818 739.654 497.824C740.131 496.83 740.785 496.068 741.614 495.54C742.444 495.006 743.384 494.739 744.435 494.739C745.248 494.739 745.904 494.875 746.404 495.148C746.904 495.415 747.293 495.727 747.572 496.085C747.856 496.443 748.075 496.759 748.228 497.031H748.415V494.909H750.913V508.29C750.913 509.415 750.651 510.338 750.129 511.06C749.606 511.781 748.898 512.315 748.006 512.662C747.12 513.009 746.12 513.182 745.006 513.182ZM744.981 505.69C745.714 505.69 746.333 505.52 746.839 505.179C747.35 504.832 747.737 504.338 747.998 503.696C748.265 503.048 748.398 502.273 748.398 501.369C748.398 500.489 748.268 499.713 748.006 499.043C747.745 498.372 747.362 497.849 746.856 497.474C746.35 497.094 745.725 496.903 744.981 496.903C744.214 496.903 743.575 497.102 743.063 497.5C742.552 497.892 742.165 498.426 741.904 499.102C741.648 499.778 741.521 500.534 741.521 501.369C741.521 502.227 741.651 502.98 741.913 503.628C742.174 504.276 742.56 504.781 743.072 505.145C743.589 505.509 744.225 505.69 744.981 505.69ZM756.879 500.227V508H754.33V494.909H756.776V497.04H756.938C757.239 496.347 757.711 495.79 758.353 495.369C759.001 494.949 759.816 494.739 760.799 494.739C761.691 494.739 762.472 494.926 763.143 495.301C763.813 495.67 764.333 496.222 764.702 496.955C765.072 497.687 765.256 498.594 765.256 499.673V508H762.708V499.98C762.708 499.031 762.461 498.29 761.967 497.756C761.472 497.216 760.793 496.946 759.93 496.946C759.339 496.946 758.813 497.074 758.353 497.33C757.898 497.585 757.538 497.96 757.271 498.455C757.009 498.943 756.879 499.534 756.879 500.227ZM768.674 508V494.909H771.222V508H768.674ZM769.961 492.889C769.518 492.889 769.137 492.741 768.819 492.446C768.506 492.145 768.35 491.787 768.35 491.372C768.35 490.952 768.506 490.594 768.819 490.298C769.137 489.997 769.518 489.847 769.961 489.847C770.404 489.847 770.782 489.997 771.094 490.298C771.413 490.594 771.572 490.952 771.572 491.372C771.572 491.787 771.413 492.145 771.094 492.446C770.782 492.741 770.404 492.889 769.961 492.889ZM780.881 494.909V496.955H773.483V494.909H780.881ZM775.511 508V493.392C775.511 492.574 775.69 491.895 776.048 491.355C776.406 490.81 776.881 490.403 777.472 490.136C778.063 489.864 778.705 489.727 779.398 489.727C779.909 489.727 780.347 489.77 780.71 489.855C781.074 489.935 781.344 490.009 781.52 490.077L780.923 492.139C780.804 492.105 780.651 492.065 780.463 492.02C780.276 491.969 780.048 491.943 779.781 491.943C779.162 491.943 778.719 492.097 778.452 492.403C778.19 492.71 778.06 493.153 778.06 493.733V508H775.511ZM783.51 508V494.909H786.058V508H783.51ZM784.797 492.889C784.354 492.889 783.973 492.741 783.655 492.446C783.342 492.145 783.186 491.787 783.186 491.372C783.186 490.952 783.342 490.594 783.655 490.298C783.973 489.997 784.354 489.847 784.797 489.847C785.24 489.847 785.618 489.997 785.93 490.298C786.249 490.594 786.408 490.952 786.408 491.372C786.408 491.787 786.249 492.145 785.93 492.446C785.618 492.741 785.24 492.889 784.797 492.889ZM795.129 508.264C793.839 508.264 792.728 507.989 791.796 507.438C790.87 506.881 790.154 506.099 789.648 505.094C789.148 504.082 788.898 502.898 788.898 501.54C788.898 500.199 789.148 499.017 789.648 497.994C790.154 496.972 790.859 496.173 791.762 495.599C792.671 495.026 793.734 494.739 794.95 494.739C795.688 494.739 796.404 494.861 797.097 495.105C797.79 495.349 798.413 495.733 798.964 496.256C799.515 496.778 799.95 497.457 800.268 498.293C800.586 499.122 800.745 500.131 800.745 501.318V502.222H790.339V500.312H798.248C798.248 499.642 798.112 499.048 797.839 498.531C797.566 498.009 797.183 497.597 796.688 497.295C796.2 496.994 795.626 496.844 794.967 496.844C794.251 496.844 793.626 497.02 793.092 497.372C792.563 497.719 792.154 498.173 791.864 498.736C791.58 499.293 791.438 499.898 791.438 500.551V502.043C791.438 502.918 791.592 503.662 791.898 504.276C792.211 504.889 792.646 505.358 793.202 505.682C793.759 506 794.41 506.159 795.154 506.159C795.637 506.159 796.077 506.091 796.475 505.955C796.873 505.812 797.217 505.602 797.506 505.324C797.796 505.045 798.018 504.702 798.171 504.293L800.583 504.727C800.39 505.437 800.043 506.06 799.543 506.594C799.049 507.122 798.427 507.534 797.677 507.83C796.933 508.119 796.083 508.264 795.129 508.264ZM803.572 508V494.909H806.036V496.989H806.172C806.411 496.284 806.831 495.73 807.433 495.327C808.041 494.918 808.729 494.713 809.496 494.713C809.655 494.713 809.842 494.719 810.058 494.73C810.28 494.741 810.453 494.756 810.578 494.773V497.21C810.476 497.182 810.294 497.151 810.033 497.116C809.771 497.077 809.51 497.057 809.249 497.057C808.646 497.057 808.109 497.185 807.638 497.44C807.172 497.69 806.803 498.04 806.53 498.489C806.257 498.932 806.121 499.437 806.121 500.006V508H803.572ZM743.882 546.264C742.593 546.264 741.482 545.989 740.55 545.438C739.624 544.881 738.908 544.099 738.402 543.094C737.902 542.082 737.652 540.898 737.652 539.54C737.652 538.199 737.902 537.017 738.402 535.994C738.908 534.972 739.613 534.173 740.516 533.599C741.425 533.026 742.488 532.739 743.703 532.739C744.442 532.739 745.158 532.861 745.851 533.105C746.544 533.349 747.167 533.733 747.718 534.256C748.269 534.778 748.703 535.457 749.022 536.293C749.34 537.122 749.499 538.131 749.499 539.318V540.222H739.093V538.312H747.002C747.002 537.642 746.865 537.048 746.593 536.531C746.32 536.009 745.936 535.597 745.442 535.295C744.953 534.994 744.38 534.844 743.721 534.844C743.005 534.844 742.38 535.02 741.846 535.372C741.317 535.719 740.908 536.173 740.618 536.736C740.334 537.293 740.192 537.898 740.192 538.551V540.043C740.192 540.918 740.346 541.662 740.652 542.276C740.965 542.889 741.4 543.358 741.956 543.682C742.513 544 743.164 544.159 743.908 544.159C744.391 544.159 744.831 544.091 745.229 543.955C745.627 543.812 745.971 543.602 746.26 543.324C746.55 543.045 746.772 542.702 746.925 542.293L749.337 542.727C749.144 543.437 748.797 544.06 748.297 544.594C747.803 545.122 747.181 545.534 746.431 545.83C745.686 546.119 744.837 546.264 743.882 546.264ZM753.562 550.909C753.181 550.909 752.835 550.878 752.522 550.815C752.21 550.759 751.977 550.696 751.824 550.628L752.437 548.54C752.903 548.665 753.318 548.719 753.681 548.702C754.045 548.685 754.366 548.548 754.645 548.293C754.929 548.037 755.179 547.619 755.395 547.04L755.71 546.17L750.92 532.909H753.647L756.963 543.068H757.099L760.414 532.909H763.15L757.755 547.747C757.505 548.429 757.187 549.006 756.801 549.477C756.414 549.955 755.954 550.313 755.42 550.551C754.886 550.79 754.267 550.909 753.562 550.909ZM770.742 546.264C769.452 546.264 768.341 545.989 767.409 545.438C766.483 544.881 765.767 544.099 765.262 543.094C764.762 542.082 764.512 540.898 764.512 539.54C764.512 538.199 764.762 537.017 765.262 535.994C765.767 534.972 766.472 534.173 767.375 533.599C768.284 533.026 769.347 532.739 770.563 532.739C771.301 532.739 772.017 532.861 772.711 533.105C773.404 533.349 774.026 533.733 774.577 534.256C775.128 534.778 775.563 535.457 775.881 536.293C776.199 537.122 776.358 538.131 776.358 539.318V540.222H765.952V538.312H773.861C773.861 537.642 773.725 537.048 773.452 536.531C773.179 536.009 772.796 535.597 772.301 535.295C771.813 534.994 771.239 534.844 770.58 534.844C769.864 534.844 769.239 535.02 768.705 535.372C768.176 535.719 767.767 536.173 767.478 536.736C767.194 537.293 767.051 537.898 767.051 538.551V540.043C767.051 540.918 767.205 541.662 767.512 542.276C767.824 542.889 768.259 543.358 768.816 543.682C769.373 544 770.023 544.159 770.767 544.159C771.25 544.159 771.691 544.091 772.088 543.955C772.486 543.812 772.83 543.602 773.12 543.324C773.409 543.045 773.631 542.702 773.784 542.293L776.196 542.727C776.003 543.437 775.657 544.06 775.157 544.594C774.662 545.122 774.04 545.534 773.29 545.83C772.546 546.119 771.696 546.264 770.742 546.264ZM757.191 571.037C756.753 571.037 756.375 570.889 756.057 570.594C755.739 570.298 755.58 569.94 755.58 569.52C755.58 569.099 755.739 568.741 756.057 568.446C756.375 568.151 756.753 568.003 757.191 568.003C757.634 568.003 758.012 568.151 758.324 568.446C758.642 568.741 758.801 569.099 758.801 569.52C758.801 569.94 758.642 570.298 758.324 570.594C758.012 570.889 757.634 571.037 757.191 571.037ZM757.02 577.795C756.583 577.795 756.205 577.648 755.887 577.352C755.569 577.057 755.409 576.699 755.409 576.278C755.409 575.858 755.569 575.5 755.887 575.205C756.205 574.909 756.583 574.761 757.02 574.761C757.463 574.761 757.841 574.909 758.154 575.205C758.472 575.5 758.631 575.858 758.631 576.278C758.631 576.699 758.472 577.057 758.154 577.352C757.841 577.648 757.463 577.795 757.02 577.795ZM757.191 584.588C756.753 584.588 756.375 584.44 756.057 584.145C755.739 583.849 755.58 583.491 755.58 583.071C755.58 582.651 755.739 582.293 756.057 581.997C756.375 581.702 756.753 581.554 757.191 581.554C757.634 581.554 758.012 581.702 758.324 581.997C758.642 582.293 758.801 582.651 758.801 583.071C758.801 583.491 758.642 583.849 758.324 584.145C758.012 584.44 757.634 584.588 757.191 584.588Z" fill="#333333"/>
<path d="M1013.62 460.105L1011.31 460.514C1011.21 460.219 1011.06 459.937 1010.85 459.67C1010.64 459.403 1010.36 459.185 1010.01 459.014C1009.66 458.844 1009.22 458.759 1008.69 458.759C1007.97 458.759 1007.37 458.92 1006.88 459.244C1006.4 459.562 1006.16 459.974 1006.16 460.48C1006.16 460.918 1006.32 461.27 1006.64 461.537C1006.97 461.804 1007.49 462.023 1008.21 462.193L1010.29 462.67C1011.5 462.949 1012.39 463.378 1012.99 463.957C1013.58 464.537 1013.87 465.29 1013.87 466.216C1013.87 467 1013.64 467.699 1013.19 468.312C1012.74 468.92 1012.11 469.398 1011.31 469.744C1010.51 470.091 1009.58 470.264 1008.52 470.264C1007.05 470.264 1005.86 469.952 1004.93 469.327C1004.01 468.696 1003.44 467.801 1003.23 466.642L1005.69 466.267C1005.84 466.909 1006.16 467.395 1006.64 467.724C1007.11 468.048 1007.74 468.21 1008.5 468.21C1009.34 468.21 1010.01 468.037 1010.51 467.69C1011.01 467.338 1011.26 466.909 1011.26 466.403C1011.26 465.994 1011.1 465.651 1010.8 465.372C1010.49 465.094 1010.03 464.884 1009.41 464.741L1007.19 464.256C1005.97 463.977 1005.07 463.534 1004.48 462.926C1003.9 462.318 1003.61 461.548 1003.61 460.616C1003.61 459.844 1003.83 459.168 1004.26 458.588C1004.69 458.009 1005.29 457.557 1006.05 457.233C1006.81 456.903 1007.68 456.739 1008.66 456.739C1010.08 456.739 1011.19 457.045 1012.01 457.659C1012.82 458.267 1013.36 459.082 1013.62 460.105ZM1019.22 452.545V470H1016.67V452.545H1019.22ZM1026.46 470.29C1025.63 470.29 1024.88 470.136 1024.21 469.83C1023.54 469.517 1023.01 469.065 1022.62 468.474C1022.23 467.884 1022.04 467.159 1022.04 466.301C1022.04 465.562 1022.18 464.955 1022.46 464.477C1022.75 464 1023.13 463.622 1023.61 463.344C1024.1 463.065 1024.64 462.855 1025.23 462.713C1025.83 462.571 1026.44 462.463 1027.06 462.389C1027.84 462.298 1028.48 462.224 1028.97 462.168C1029.45 462.105 1029.81 462.006 1030.03 461.869C1030.25 461.733 1030.36 461.511 1030.36 461.205V461.145C1030.36 460.401 1030.15 459.824 1029.73 459.415C1029.32 459.006 1028.7 458.801 1027.88 458.801C1027.02 458.801 1026.34 458.991 1025.85 459.372C1025.36 459.747 1025.02 460.165 1024.83 460.625L1022.44 460.08C1022.72 459.284 1023.14 458.642 1023.68 458.153C1024.23 457.659 1024.87 457.301 1025.58 457.08C1026.3 456.852 1027.05 456.739 1027.84 456.739C1028.36 456.739 1028.92 456.801 1029.5 456.926C1030.09 457.045 1030.64 457.267 1031.16 457.591C1031.67 457.915 1032.1 458.378 1032.43 458.98C1032.76 459.577 1032.92 460.352 1032.92 461.307V470H1030.43V468.21H1030.33C1030.16 468.54 1029.92 468.864 1029.59 469.182C1029.26 469.5 1028.84 469.764 1028.32 469.974C1027.8 470.185 1027.18 470.29 1026.46 470.29ZM1027.01 468.244C1027.72 468.244 1028.32 468.105 1028.82 467.827C1029.33 467.548 1029.71 467.185 1029.97 466.736C1030.24 466.281 1030.37 465.795 1030.37 465.278V463.591C1030.28 463.682 1030.11 463.767 1029.84 463.847C1029.59 463.92 1029.3 463.986 1028.97 464.043C1028.64 464.094 1028.32 464.142 1028 464.188C1027.69 464.227 1027.43 464.261 1027.22 464.29C1026.72 464.352 1026.27 464.457 1025.86 464.605C1025.46 464.753 1025.14 464.966 1024.89 465.244C1024.65 465.517 1024.53 465.881 1024.53 466.335C1024.53 466.966 1024.77 467.443 1025.23 467.767C1025.7 468.085 1026.29 468.244 1027.01 468.244ZM1046.12 460.105L1043.81 460.514C1043.72 460.219 1043.56 459.937 1043.35 459.67C1043.15 459.403 1042.87 459.185 1042.52 459.014C1042.17 458.844 1041.73 458.759 1041.2 458.759C1040.48 458.759 1039.87 458.92 1039.39 459.244C1038.91 459.562 1038.67 459.974 1038.67 460.48C1038.67 460.918 1038.83 461.27 1039.15 461.537C1039.48 461.804 1040 462.023 1040.72 462.193L1042.8 462.67C1044 462.949 1044.9 463.378 1045.49 463.957C1046.08 464.537 1046.38 465.29 1046.38 466.216C1046.38 467 1046.15 467.699 1045.7 468.312C1045.25 468.92 1044.62 469.398 1043.81 469.744C1043.01 470.091 1042.08 470.264 1041.03 470.264C1039.56 470.264 1038.37 469.952 1037.44 469.327C1036.51 468.696 1035.95 467.801 1035.74 466.642L1038.2 466.267C1038.35 466.909 1038.67 467.395 1039.14 467.724C1039.62 468.048 1040.24 468.21 1041.01 468.21C1041.85 468.21 1042.51 468.037 1043.01 467.69C1043.51 467.338 1043.76 466.909 1043.76 466.403C1043.76 465.994 1043.61 465.651 1043.3 465.372C1043 465.094 1042.54 464.884 1041.91 464.741L1039.7 464.256C1038.48 463.977 1037.57 463.534 1036.99 462.926C1036.41 462.318 1036.12 461.548 1036.12 460.616C1036.12 459.844 1036.33 459.168 1036.77 458.588C1037.2 458.009 1037.79 457.557 1038.56 457.233C1039.32 456.903 1040.19 456.739 1041.17 456.739C1042.59 456.739 1043.7 457.045 1044.51 457.659C1045.33 458.267 1045.86 459.082 1046.12 460.105ZM1051.73 462.227V470H1049.18V452.545H1051.7V459.04H1051.86C1052.16 458.335 1052.63 457.776 1053.26 457.361C1053.89 456.946 1054.72 456.739 1055.74 456.739C1056.63 456.739 1057.42 456.923 1058.09 457.293C1058.76 457.662 1059.29 458.213 1059.66 458.946C1060.03 459.673 1060.22 460.582 1060.22 461.673V470H1057.67V461.98C1057.67 461.02 1057.42 460.276 1056.93 459.747C1056.43 459.213 1055.75 458.946 1054.87 458.946C1054.26 458.946 1053.72 459.074 1053.25 459.33C1052.78 459.585 1052.4 459.96 1052.13 460.455C1051.86 460.943 1051.73 461.534 1051.73 462.227ZM1012.09 512.909V494.909H1014.58V497.031H1014.79C1014.94 496.759 1015.15 496.443 1015.43 496.085C1015.71 495.727 1016.1 495.415 1016.59 495.148C1017.09 494.875 1017.74 494.739 1018.55 494.739C1019.61 494.739 1020.55 495.006 1021.38 495.54C1022.21 496.074 1022.86 496.844 1023.33 497.849C1023.81 498.855 1024.05 500.065 1024.05 501.48C1024.05 502.895 1023.81 504.108 1023.34 505.119C1022.87 506.125 1022.22 506.901 1021.4 507.446C1020.57 507.986 1019.63 508.256 1018.58 508.256C1017.78 508.256 1017.13 508.122 1016.63 507.855C1016.13 507.588 1015.73 507.276 1015.45 506.918C1015.17 506.56 1014.95 506.241 1014.79 505.963H1014.64V512.909H1012.09ZM1014.59 501.455C1014.59 502.375 1014.72 503.182 1014.99 503.875C1015.26 504.568 1015.64 505.111 1016.15 505.503C1016.65 505.889 1017.27 506.082 1018.01 506.082C1018.77 506.082 1019.4 505.881 1019.92 505.477C1020.43 505.068 1020.81 504.514 1021.07 503.815C1021.34 503.116 1021.48 502.33 1021.48 501.455C1021.48 500.591 1021.34 499.815 1021.08 499.128C1020.83 498.44 1020.44 497.898 1019.92 497.5C1019.41 497.102 1018.77 496.903 1018.01 496.903C1017.27 496.903 1016.64 497.094 1016.13 497.474C1015.63 497.855 1015.24 498.386 1014.98 499.068C1014.72 499.75 1014.59 500.545 1014.59 501.455ZM1032.55 508.264C1031.26 508.264 1030.15 507.989 1029.21 507.438C1028.29 506.881 1027.57 506.099 1027.07 505.094C1026.57 504.082 1026.32 502.898 1026.32 501.54C1026.32 500.199 1026.57 499.017 1027.07 497.994C1027.57 496.972 1028.28 496.173 1029.18 495.599C1030.09 495.026 1031.15 494.739 1032.37 494.739C1033.11 494.739 1033.82 494.861 1034.52 495.105C1035.21 495.349 1035.83 495.733 1036.38 496.256C1036.93 496.778 1037.37 497.457 1037.69 498.293C1038 499.122 1038.16 500.131 1038.16 501.318V502.222H1027.76V500.312H1035.67C1035.67 499.642 1035.53 499.048 1035.26 498.531C1034.98 498.009 1034.6 497.597 1034.11 497.295C1033.62 496.994 1033.04 496.844 1032.38 496.844C1031.67 496.844 1031.04 497.02 1030.51 497.372C1029.98 497.719 1029.57 498.173 1029.28 498.736C1029 499.293 1028.86 499.898 1028.86 500.551V502.043C1028.86 502.918 1029.01 503.662 1029.32 504.276C1029.63 504.889 1030.06 505.358 1030.62 505.682C1031.18 506 1031.83 506.159 1032.57 506.159C1033.06 506.159 1033.5 506.091 1033.89 505.955C1034.29 505.812 1034.63 505.602 1034.92 505.324C1035.21 505.045 1035.44 504.702 1035.59 504.293L1038 504.727C1037.81 505.437 1037.46 506.06 1036.96 506.594C1036.47 507.122 1035.84 507.534 1035.09 507.83C1034.35 508.119 1033.5 508.264 1032.55 508.264ZM1043.54 500.227V508H1040.99V494.909H1043.44V497.04H1043.6C1043.9 496.347 1044.37 495.79 1045.01 495.369C1045.66 494.949 1046.48 494.739 1047.46 494.739C1048.35 494.739 1049.13 494.926 1049.8 495.301C1050.47 495.67 1050.99 496.222 1051.36 496.955C1051.73 497.687 1051.92 498.594 1051.92 499.673V508H1049.37V499.98C1049.37 499.031 1049.12 498.29 1048.63 497.756C1048.13 497.216 1047.45 496.946 1046.59 496.946C1046 496.946 1045.47 497.074 1045.01 497.33C1044.56 497.585 1044.2 497.96 1043.93 498.455C1043.67 498.943 1043.54 499.534 1043.54 500.227ZM1012.55 528.545V546H1010.01V528.545H1012.55ZM1021.5 546.264C1020.27 546.264 1019.2 545.983 1018.28 545.42C1017.37 544.858 1016.66 544.071 1016.15 543.06C1015.65 542.048 1015.39 540.866 1015.39 539.514C1015.39 538.156 1015.65 536.969 1016.15 535.952C1016.66 534.935 1017.37 534.145 1018.28 533.582C1019.2 533.02 1020.27 532.739 1021.5 532.739C1022.72 532.739 1023.8 533.02 1024.71 533.582C1025.62 534.145 1026.33 534.935 1026.84 535.952C1027.35 536.969 1027.6 538.156 1027.6 539.514C1027.6 540.866 1027.35 542.048 1026.84 543.06C1026.33 544.071 1025.62 544.858 1024.71 545.42C1023.8 545.983 1022.72 546.264 1021.5 546.264ZM1021.51 544.125C1022.3 544.125 1022.96 543.915 1023.48 543.494C1024.01 543.074 1024.39 542.514 1024.64 541.815C1024.9 541.116 1025.03 540.347 1025.03 539.506C1025.03 538.67 1024.9 537.903 1024.64 537.205C1024.39 536.5 1024.01 535.935 1023.48 535.509C1022.96 535.082 1022.3 534.869 1021.51 534.869C1020.7 534.869 1020.04 535.082 1019.51 535.509C1018.99 535.935 1018.6 536.5 1018.34 537.205C1018.09 537.903 1017.97 538.67 1017.97 539.506C1017.97 540.347 1018.09 541.116 1018.34 541.815C1018.6 542.514 1018.99 543.074 1019.51 543.494C1020.04 543.915 1020.7 544.125 1021.51 544.125ZM1035.96 546.264C1034.69 546.264 1033.6 545.977 1032.69 545.403C1031.78 544.824 1031.08 544.026 1030.59 543.009C1030.1 541.991 1029.86 540.827 1029.86 539.514C1029.86 538.185 1030.11 537.011 1030.61 535.994C1031.11 534.972 1031.81 534.173 1032.72 533.599C1033.63 533.026 1034.7 532.739 1035.93 532.739C1036.93 532.739 1037.81 532.923 1038.59 533.293C1039.37 533.656 1040 534.168 1040.47 534.827C1040.96 535.486 1041.24 536.256 1041.34 537.136H1038.86C1038.72 536.523 1038.41 535.994 1037.92 535.551C1037.44 535.108 1036.79 534.886 1035.97 534.886C1035.26 534.886 1034.64 535.074 1034.11 535.449C1033.58 535.818 1033.17 536.347 1032.87 537.034C1032.58 537.716 1032.43 538.523 1032.43 539.455C1032.43 540.409 1032.57 541.233 1032.86 541.926C1033.15 542.619 1033.56 543.156 1034.09 543.537C1034.63 543.918 1035.25 544.108 1035.97 544.108C1036.46 544.108 1036.9 544.02 1037.29 543.844C1037.69 543.662 1038.02 543.403 1038.28 543.068C1038.56 542.733 1038.75 542.33 1038.86 541.858H1041.34C1041.24 542.705 1040.97 543.46 1040.51 544.125C1040.05 544.79 1039.43 545.312 1038.66 545.693C1037.89 546.074 1036.99 546.264 1035.96 546.264ZM1046.4 541.56L1046.39 538.449H1046.83L1052.05 532.909H1055.1L1049.15 539.216H1048.75L1046.4 541.56ZM1044.06 546V528.545H1046.61V546H1044.06ZM1052.33 546L1047.64 539.778L1049.4 537.997L1055.46 546H1052.33ZM1032.19 571.037C1031.75 571.037 1031.38 570.889 1031.06 570.594C1030.74 570.298 1030.58 569.94 1030.58 569.52C1030.58 569.099 1030.74 568.741 1031.06 568.446C1031.38 568.151 1031.75 568.003 1032.19 568.003C1032.63 568.003 1033.01 568.151 1033.32 568.446C1033.64 568.741 1033.8 569.099 1033.8 569.52C1033.8 569.94 1033.64 570.298 1033.32 570.594C1033.01 570.889 1032.63 571.037 1032.19 571.037ZM1032.02 577.795C1031.58 577.795 1031.2 577.648 1030.89 577.352C1030.57 577.057 1030.41 576.699 1030.41 576.278C1030.41 575.858 1030.57 575.5 1030.89 575.205C1031.2 574.909 1031.58 574.761 1032.02 574.761C1032.46 574.761 1032.84 574.909 1033.15 575.205C1033.47 575.5 1033.63 575.858 1033.63 576.278C1033.63 576.699 1033.47 577.057 1033.15 577.352C1032.84 577.648 1032.46 577.795 1032.02 577.795ZM1032.19 584.588C1031.75 584.588 1031.38 584.44 1031.06 584.145C1030.74 583.849 1030.58 583.491 1030.58 583.071C1030.58 582.651 1030.74 582.293 1031.06 581.997C1031.38 581.702 1031.75 581.554 1032.19 581.554C1032.63 581.554 1033.01 581.702 1033.32 581.997C1033.64 582.293 1033.8 582.651 1033.8 583.071C1033.8 583.491 1033.64 583.849 1033.32 584.145C1033.01 584.44 1032.63 584.588 1032.19 584.588Z" fill="#333333"/>
<path d="M613 219H899C902.866 219 906 222.134 906 226V254C906 257.866 902.866 261 899 261H613C609.134 261 606 257.866 606 254V226C606 222.134 609.134 219 613 219Z" fill="white"/>
<path d="M613 219H899C902.866 219 906 222.134 906 226V254C906 257.866 902.866 261 899 261H613C609.134 261 606 257.866 606 254V226C606 222.134 609.134 219 613 219Z" stroke="#E5E5E5"/>
<path d="M622.137 241.006V239.94C622.938 239.94 623.496 239.777 623.814 239.45C624.131 239.119 624.289 238.572 624.289 237.81V235.771C624.289 235.047 624.37 234.438 624.531 233.946C624.697 233.449 624.948 233.051 625.284 232.753C625.62 232.455 626.046 232.239 626.562 232.107C627.078 231.974 627.687 231.908 628.387 231.908V233.591C627.838 233.591 627.41 233.671 627.102 233.832C626.794 233.993 626.579 234.244 626.456 234.585C626.337 234.921 626.278 235.352 626.278 235.878V238.463C626.278 238.828 626.224 239.166 626.115 239.479C626.006 239.786 625.805 240.054 625.511 240.281C625.217 240.509 624.798 240.686 624.254 240.814C623.709 240.942 623.004 241.006 622.137 241.006ZM628.387 250.026C627.687 250.026 627.078 249.959 626.562 249.827C626.046 249.694 625.62 249.479 625.284 249.18C624.948 248.882 624.697 248.484 624.531 247.987C624.37 247.495 624.289 246.886 624.289 246.162V244.116C624.289 243.359 624.131 242.814 623.814 242.483C623.496 242.152 622.938 241.986 622.137 241.986V240.928C623.004 240.928 623.709 240.991 624.254 241.119C624.798 241.242 625.217 241.42 625.511 241.652C625.805 241.879 626.006 242.149 626.115 242.462C626.224 242.769 626.278 243.106 626.278 243.47V246.055C626.278 246.576 626.337 247.005 626.456 247.341C626.579 247.682 626.794 247.933 627.102 248.094C627.41 248.259 627.838 248.342 628.387 248.342V250.026ZM622.137 241.986V239.94H624.105V241.986H622.137Z" fill="#333333"/>
<path d="M650.085 234.909L645.244 248H643.199L638.358 234.909H640.54L644.153 245.341H644.29L647.903 234.909H650.085ZM662.493 237.841L660.686 238.352C660.572 238.051 660.405 237.759 660.183 237.474C659.967 237.185 659.672 236.946 659.297 236.759C658.922 236.571 658.442 236.477 657.856 236.477C657.055 236.477 656.388 236.662 655.853 237.031C655.325 237.395 655.061 237.858 655.061 238.42C655.061 238.92 655.243 239.315 655.606 239.605C655.97 239.895 656.538 240.136 657.311 240.33L659.254 240.807C660.425 241.091 661.297 241.526 661.871 242.111C662.444 242.69 662.731 243.437 662.731 244.352C662.731 245.102 662.515 245.773 662.084 246.364C661.657 246.955 661.061 247.42 660.294 247.761C659.527 248.102 658.635 248.273 657.618 248.273C656.282 248.273 655.177 247.983 654.302 247.403C653.427 246.824 652.873 245.977 652.64 244.864L654.55 244.386C654.731 245.091 655.075 245.619 655.581 245.972C656.092 246.324 656.76 246.5 657.584 246.5C658.521 246.5 659.265 246.301 659.817 245.903C660.373 245.5 660.652 245.017 660.652 244.455C660.652 244 660.493 243.619 660.175 243.312C659.856 243 659.368 242.767 658.709 242.614L656.527 242.102C655.328 241.818 654.447 241.378 653.885 240.781C653.328 240.179 653.05 239.426 653.05 238.523C653.05 237.784 653.257 237.131 653.672 236.562C654.092 235.994 654.663 235.548 655.385 235.224C656.112 234.901 656.936 234.739 657.856 234.739C659.152 234.739 660.169 235.023 660.907 235.591C661.652 236.159 662.18 236.909 662.493 237.841ZM671.182 248.273C670.091 248.273 669.128 247.997 668.293 247.446C667.458 246.889 666.804 246.105 666.333 245.094C665.861 244.077 665.625 242.875 665.625 241.489C665.625 240.114 665.861 238.92 666.333 237.909C666.804 236.898 667.461 236.116 668.302 235.565C669.142 235.014 670.114 234.739 671.216 234.739C672.069 234.739 672.742 234.881 673.236 235.165C673.736 235.443 674.117 235.761 674.378 236.119C674.645 236.472 674.853 236.761 675 236.989H675.171V230.545H677.182V248H675.239V245.989H675C674.853 246.227 674.642 246.528 674.37 246.892C674.097 247.25 673.708 247.571 673.202 247.855C672.696 248.134 672.023 248.273 671.182 248.273ZM671.455 246.466C672.262 246.466 672.944 246.256 673.5 245.835C674.057 245.409 674.481 244.821 674.77 244.071C675.06 243.315 675.205 242.443 675.205 241.455C675.205 240.477 675.063 239.622 674.779 238.889C674.495 238.151 674.074 237.577 673.517 237.168C672.961 236.753 672.273 236.545 671.455 236.545C670.603 236.545 669.892 236.764 669.324 237.202C668.762 237.634 668.338 238.222 668.054 238.966C667.776 239.705 667.637 240.534 667.637 241.455C667.637 242.386 667.779 243.233 668.063 243.994C668.353 244.75 668.779 245.352 669.341 245.801C669.909 246.244 670.614 246.466 671.455 246.466ZM690.898 237.841L689.091 238.352C688.978 238.051 688.81 237.759 688.588 237.474C688.372 237.185 688.077 236.946 687.702 236.759C687.327 236.571 686.847 236.477 686.262 236.477C685.461 236.477 684.793 236.662 684.259 237.031C683.73 237.395 683.466 237.858 683.466 238.42C683.466 238.92 683.648 239.315 684.012 239.605C684.375 239.895 684.943 240.136 685.716 240.33L687.659 240.807C688.83 241.091 689.702 241.526 690.276 242.111C690.85 242.69 691.137 243.437 691.137 244.352C691.137 245.102 690.921 245.773 690.489 246.364C690.063 246.955 689.466 247.42 688.699 247.761C687.932 248.102 687.04 248.273 686.023 248.273C684.688 248.273 683.583 247.983 682.708 247.403C681.833 246.824 681.279 245.977 681.046 244.864L682.955 244.386C683.137 245.091 683.48 245.619 683.986 245.972C684.497 246.324 685.165 246.5 685.989 246.5C686.926 246.5 687.671 246.301 688.222 245.903C688.779 245.5 689.057 245.017 689.057 244.455C689.057 244 688.898 243.619 688.58 243.312C688.262 243 687.773 242.767 687.114 242.614L684.932 242.102C683.733 241.818 682.853 241.378 682.29 240.781C681.733 240.179 681.455 239.426 681.455 238.523C681.455 237.784 681.662 237.131 682.077 236.562C682.497 235.994 683.068 235.548 683.79 235.224C684.517 234.901 685.341 234.739 686.262 234.739C687.557 234.739 688.574 235.023 689.313 235.591C690.057 236.159 690.586 236.909 690.898 237.841ZM702.144 239.58V241.455H694.508V239.58H702.144ZM706.163 248V234.909H708.175V248H706.163ZM707.186 232.727C706.794 232.727 706.456 232.594 706.172 232.327C705.894 232.06 705.754 231.739 705.754 231.364C705.754 230.989 705.894 230.668 706.172 230.401C706.456 230.134 706.794 230 707.186 230C707.578 230 707.913 230.134 708.192 230.401C708.476 230.668 708.618 230.989 708.618 231.364C708.618 231.739 708.476 232.06 708.192 232.327C707.913 232.594 707.578 232.727 707.186 232.727ZM717.657 248.273C716.43 248.273 715.373 247.983 714.486 247.403C713.6 246.824 712.918 246.026 712.441 245.009C711.964 243.991 711.725 242.83 711.725 241.523C711.725 240.193 711.969 239.02 712.458 238.003C712.952 236.98 713.64 236.182 714.521 235.608C715.407 235.028 716.441 234.739 717.623 234.739C718.543 234.739 719.373 234.909 720.111 235.25C720.85 235.591 721.455 236.068 721.927 236.682C722.398 237.295 722.691 238.011 722.805 238.83H720.793C720.64 238.233 720.299 237.705 719.771 237.244C719.248 236.778 718.543 236.545 717.657 236.545C716.873 236.545 716.185 236.75 715.594 237.159C715.009 237.562 714.552 238.134 714.222 238.872C713.898 239.605 713.736 240.466 713.736 241.455C713.736 242.466 713.896 243.347 714.214 244.097C714.538 244.847 714.992 245.429 715.577 245.844C716.168 246.259 716.861 246.466 717.657 246.466C718.18 246.466 718.654 246.375 719.08 246.193C719.506 246.011 719.867 245.75 720.163 245.409C720.458 245.068 720.668 244.659 720.793 244.182H722.805C722.691 244.955 722.41 245.651 721.961 246.27C721.518 246.884 720.93 247.372 720.197 247.736C719.469 248.094 718.623 248.273 717.657 248.273ZM731.543 248.273C730.361 248.273 729.324 247.991 728.432 247.429C727.546 246.866 726.853 246.08 726.353 245.068C725.858 244.057 725.611 242.875 725.611 241.523C725.611 240.159 725.858 238.969 726.353 237.952C726.853 236.935 727.546 236.145 728.432 235.582C729.324 235.02 730.361 234.739 731.543 234.739C732.725 234.739 733.759 235.02 734.645 235.582C735.537 236.145 736.231 236.935 736.725 237.952C737.225 238.969 737.475 240.159 737.475 241.523C737.475 242.875 737.225 244.057 736.725 245.068C736.231 246.08 735.537 246.866 734.645 247.429C733.759 247.991 732.725 248.273 731.543 248.273ZM731.543 246.466C732.441 246.466 733.18 246.236 733.759 245.776C734.339 245.315 734.768 244.71 735.046 243.96C735.324 243.21 735.464 242.398 735.464 241.523C735.464 240.648 735.324 239.832 735.046 239.077C734.768 238.321 734.339 237.71 733.759 237.244C733.18 236.778 732.441 236.545 731.543 236.545C730.645 236.545 729.907 236.778 729.327 237.244C728.748 237.71 728.319 238.321 728.04 239.077C727.762 239.832 727.623 240.648 727.623 241.523C727.623 242.398 727.762 243.21 728.04 243.96C728.319 244.71 728.748 245.315 729.327 245.776C729.907 246.236 730.645 246.466 731.543 246.466ZM743.037 240.125V248H741.025V234.909H742.968V236.955H743.139C743.446 236.29 743.912 235.756 744.537 235.352C745.162 234.943 745.968 234.739 746.957 234.739C747.843 234.739 748.619 234.92 749.284 235.284C749.949 235.642 750.466 236.188 750.835 236.92C751.204 237.648 751.389 238.568 751.389 239.682V248H749.378V239.818C749.378 238.79 749.111 237.989 748.576 237.415C748.042 236.835 747.309 236.545 746.378 236.545C745.736 236.545 745.162 236.685 744.656 236.963C744.156 237.241 743.761 237.648 743.471 238.182C743.182 238.716 743.037 239.364 743.037 240.125ZM763.044 239.58V241.455H755.408V239.58H763.044ZM775.313 242.648V234.909H777.325V248H775.313V245.784H775.177C774.87 246.449 774.393 247.014 773.745 247.48C773.098 247.94 772.279 248.17 771.291 248.17C770.473 248.17 769.745 247.991 769.109 247.634C768.473 247.27 767.973 246.724 767.609 245.997C767.245 245.264 767.063 244.341 767.063 243.227V234.909H769.075V243.091C769.075 244.045 769.342 244.807 769.876 245.375C770.416 245.943 771.103 246.227 771.938 246.227C772.438 246.227 772.947 246.099 773.464 245.844C773.987 245.588 774.424 245.196 774.776 244.668C775.134 244.139 775.313 243.466 775.313 242.648ZM790.761 237.841L788.955 238.352C788.841 238.051 788.673 237.759 788.452 237.474C788.236 237.185 787.94 236.946 787.565 236.759C787.19 236.571 786.71 236.477 786.125 236.477C785.324 236.477 784.656 236.662 784.122 237.031C783.594 237.395 783.33 237.858 783.33 238.42C783.33 238.92 783.511 239.315 783.875 239.605C784.239 239.895 784.807 240.136 785.58 240.33L787.523 240.807C788.693 241.091 789.565 241.526 790.139 242.111C790.713 242.69 791 243.437 791 244.352C791 245.102 790.784 245.773 790.352 246.364C789.926 246.955 789.33 247.42 788.563 247.761C787.796 248.102 786.903 248.273 785.886 248.273C784.551 248.273 783.446 247.983 782.571 247.403C781.696 246.824 781.142 245.977 780.909 244.864L782.818 244.386C783 245.091 783.344 245.619 783.85 245.972C784.361 246.324 785.028 246.5 785.852 246.5C786.79 246.5 787.534 246.301 788.085 245.903C788.642 245.5 788.921 245.017 788.921 244.455C788.921 244 788.761 243.619 788.443 243.312C788.125 243 787.636 242.767 786.977 242.614L784.796 242.102C783.597 241.818 782.716 241.378 782.153 240.781C781.597 240.179 781.318 239.426 781.318 238.523C781.318 237.784 781.526 237.131 781.94 236.562C782.361 235.994 782.932 235.548 783.653 235.224C784.381 234.901 785.205 234.739 786.125 234.739C787.421 234.739 788.438 235.023 789.176 235.591C789.921 236.159 790.449 236.909 790.761 237.841ZM799.996 248.273C798.735 248.273 797.647 247.994 796.732 247.438C795.823 246.875 795.121 246.091 794.627 245.085C794.138 244.074 793.894 242.898 793.894 241.557C793.894 240.216 794.138 239.034 794.627 238.011C795.121 236.983 795.809 236.182 796.69 235.608C797.576 235.028 798.61 234.739 799.792 234.739C800.474 234.739 801.147 234.852 801.812 235.08C802.477 235.307 803.082 235.676 803.627 236.188C804.173 236.693 804.607 237.364 804.931 238.199C805.255 239.034 805.417 240.062 805.417 241.284V242.136H795.326V240.398H803.371C803.371 239.659 803.224 239 802.928 238.42C802.638 237.841 802.224 237.384 801.684 237.048C801.15 236.713 800.519 236.545 799.792 236.545C798.991 236.545 798.298 236.744 797.712 237.142C797.133 237.534 796.687 238.045 796.374 238.676C796.062 239.307 795.906 239.983 795.906 240.705V241.864C795.906 242.852 796.076 243.69 796.417 244.378C796.763 245.06 797.244 245.58 797.857 245.938C798.471 246.29 799.184 246.466 799.996 246.466C800.525 246.466 801.002 246.392 801.428 246.244C801.86 246.091 802.232 245.864 802.545 245.562C802.857 245.256 803.099 244.875 803.269 244.42L805.212 244.966C805.008 245.625 804.664 246.205 804.181 246.705C803.698 247.199 803.102 247.585 802.391 247.864C801.681 248.136 800.883 248.273 799.996 248.273ZM808.957 248V234.909H810.9V236.886H811.036C811.275 236.239 811.707 235.713 812.332 235.31C812.957 234.906 813.661 234.705 814.445 234.705C814.593 234.705 814.778 234.707 814.999 234.713C815.221 234.719 815.388 234.727 815.502 234.739V236.784C815.434 236.767 815.278 236.741 815.033 236.707C814.795 236.668 814.542 236.648 814.275 236.648C813.638 236.648 813.07 236.781 812.57 237.048C812.076 237.31 811.684 237.673 811.394 238.139C811.11 238.599 810.968 239.125 810.968 239.716V248H808.957ZM824.905 239.58V241.455H817.269V239.58H824.905ZM830.936 230.545V248H828.924V230.545H830.936ZM840.418 248.273C839.236 248.273 838.199 247.991 837.307 247.429C836.421 246.866 835.727 246.08 835.227 245.068C834.733 244.057 834.486 242.875 834.486 241.523C834.486 240.159 834.733 238.969 835.227 237.952C835.727 236.935 836.421 236.145 837.307 235.582C838.199 235.02 839.236 234.739 840.418 234.739C841.6 234.739 842.634 235.02 843.52 235.582C844.412 236.145 845.105 236.935 845.6 237.952C846.1 238.969 846.35 240.159 846.35 241.523C846.35 242.875 846.1 244.057 845.6 245.068C845.105 246.08 844.412 246.866 843.52 247.429C842.634 247.991 841.6 248.273 840.418 248.273ZM840.418 246.466C841.316 246.466 842.054 246.236 842.634 245.776C843.213 245.315 843.642 244.71 843.921 243.96C844.199 243.21 844.338 242.398 844.338 241.523C844.338 240.648 844.199 239.832 843.921 239.077C843.642 238.321 843.213 237.71 842.634 237.244C842.054 236.778 841.316 236.545 840.418 236.545C839.52 236.545 838.781 236.778 838.202 237.244C837.622 237.71 837.193 238.321 836.915 239.077C836.637 239.832 836.497 240.648 836.497 241.523C836.497 242.398 836.637 243.21 836.915 243.96C837.193 244.71 837.622 245.315 838.202 245.776C838.781 246.236 839.52 246.466 840.418 246.466ZM855.218 248.273C853.991 248.273 852.934 247.983 852.048 247.403C851.161 246.824 850.48 246.026 850.002 245.009C849.525 243.991 849.286 242.83 849.286 241.523C849.286 240.193 849.531 239.02 850.019 238.003C850.514 236.98 851.201 236.182 852.082 235.608C852.968 235.028 854.002 234.739 855.184 234.739C856.105 234.739 856.934 234.909 857.673 235.25C858.411 235.591 859.016 236.068 859.488 236.682C859.96 237.295 860.252 238.011 860.366 238.83H858.355C858.201 238.233 857.86 237.705 857.332 237.244C856.809 236.778 856.105 236.545 855.218 236.545C854.434 236.545 853.747 236.75 853.156 237.159C852.57 237.562 852.113 238.134 851.783 238.872C851.46 239.605 851.298 240.466 851.298 241.455C851.298 242.466 851.457 243.347 851.775 244.097C852.099 244.847 852.553 245.429 853.139 245.844C853.73 246.259 854.423 246.466 855.218 246.466C855.741 246.466 856.215 246.375 856.641 246.193C857.068 246.011 857.428 245.75 857.724 245.409C858.019 245.068 858.23 244.659 858.355 244.182H860.366C860.252 244.955 859.971 245.651 859.522 246.27C859.079 246.884 858.491 247.372 857.758 247.736C857.031 248.094 856.184 248.273 855.218 248.273ZM865.661 243.227L865.627 240.739H866.036L871.763 234.909H874.252L868.15 241.08H867.979L865.661 243.227ZM863.786 248V230.545H865.798V248H863.786ZM872.104 248L866.991 241.523L868.423 240.125L874.661 248H872.104Z" fill="#333333"/>
<path d="M890.302 240.928V241.986C889.502 241.986 888.943 242.152 888.626 242.483C888.309 242.814 888.15 243.359 888.15 244.116V246.162C888.15 246.886 888.067 247.495 887.902 247.987C887.741 248.484 887.492 248.882 887.156 249.18C886.82 249.479 886.394 249.694 885.877 249.827C885.361 249.959 884.753 250.026 884.052 250.026V248.342C884.601 248.342 885.03 248.259 885.338 248.094C885.645 247.933 885.859 247.682 885.977 247.341C886.1 247.005 886.162 246.576 886.162 246.055V243.47C886.162 243.106 886.216 242.769 886.325 242.462C886.434 242.149 886.635 241.879 886.929 241.652C887.222 241.42 887.641 241.242 888.186 241.119C888.73 240.991 889.436 240.928 890.302 240.928ZM884.052 231.908C884.753 231.908 885.361 231.974 885.877 232.107C886.394 232.239 886.82 232.455 887.156 232.753C887.492 233.051 887.741 233.449 887.902 233.946C888.067 234.438 888.15 235.047 888.15 235.771V237.81C888.15 238.572 888.309 239.119 888.626 239.45C888.943 239.777 889.502 239.94 890.302 239.94V241.006C889.436 241.006 888.73 240.942 888.186 240.814C887.641 240.686 887.222 240.509 886.929 240.281C886.635 240.054 886.434 239.786 886.325 239.479C886.216 239.166 886.162 238.828 886.162 238.463V235.878C886.162 235.352 886.1 234.921 885.977 234.585C885.859 234.244 885.645 233.993 885.338 233.832C885.03 233.671 884.601 233.591 884.052 233.591V231.908ZM890.302 239.94V241.986H888.335V239.94H890.302Z" fill="#333333"/>
</svg>
