<svg width="1512" height="480" viewBox="0 0 1512 480" fill="none" xmlns="http://www.w3.org/2000/svg">
<rect width="756" height="240" transform="scale(2)" fill="#F6F6F6"/>
<path d="M1496 0C1504.84 0 1512 7.16344 1512 16V464C1512 472.837 1504.84 480 1496 480H16C7.16346 480 0 472.837 0 464V16C7.21566e-06 7.16345 7.16345 0 16 0H1496Z" fill="#FAFAFA"/>
<path d="M1496 0C1504.84 0 1512 7.16344 1512 16V464C1512 472.837 1504.84 480 1496 480H16C7.16346 480 0 472.837 0 464V16C7.21566e-06 7.16345 7.16345 0 16 0H1496Z" stroke="#E5E5E5"/>
<path fill-rule="evenodd" clip-rule="evenodd" d="M243.2 104C233.701 104 226 111.701 226 121.2C226 130.699 233.701 138.4 243.2 138.4C252.699 138.4 260.4 130.699 260.4 121.2C260.4 111.701 252.699 104 243.2 104ZM232.4 121.2C232.4 115.235 237.235 110.4 243.2 110.4C249.165 110.4 254 115.235 254 121.2C254 127.165 249.165 132 243.2 132C237.235 132 232.4 127.165 232.4 121.2Z" fill="#333333"/>
<path fill-rule="evenodd" clip-rule="evenodd" d="M243.201 144C235.015 144 227.447 145.889 221.814 149.108C216.272 152.275 212.001 157.138 212.001 163.2L212 163.613C211.995 167.704 211.988 173.113 216.661 176.979C218.963 178.884 222.149 180.209 226.369 181.077C230.601 181.947 236.089 182.4 243.201 182.4C250.313 182.4 255.801 181.947 260.033 181.077C264.252 180.209 267.438 178.884 269.741 176.979C274.414 173.113 274.407 167.704 274.401 163.613L274.401 163.2C274.401 157.138 270.129 152.275 264.587 149.108C258.954 145.889 251.386 144 243.201 144ZM218.401 163.2C218.401 160.426 220.398 157.289 224.99 154.665C229.491 152.093 235.923 150.4 243.201 150.4C250.478 150.4 256.91 152.093 261.412 154.665C266.004 157.289 268.001 160.426 268.001 163.2C268.001 167.902 267.829 170.254 265.661 172.048C264.463 173.038 262.399 174.056 258.744 174.808C255.101 175.557 250.089 176 243.201 176C236.313 176 231.301 175.557 227.658 174.808C224.002 174.056 221.938 173.038 220.741 172.048C218.573 170.254 218.401 167.902 218.401 163.2Z" fill="#333333"/>
<path d="M243.998 296.6C234.388 296.6 226.598 304.39 226.598 314C226.598 323.609 234.388 331.4 243.998 331.4C253.607 331.4 261.398 323.609 261.398 314C261.398 304.39 253.607 296.6 243.998 296.6Z" fill="#3C5AAA"/>
<path opacity="0.48" d="M243.999 336C235.659 336 227.938 337.925 222.182 341.214C216.524 344.447 212.114 349.44 212.114 355.7L212.114 356.134C212.108 360.277 212.099 365.86 216.92 369.848C219.293 371.811 222.564 373.167 226.866 374.052C231.183 374.94 236.771 375.4 243.999 375.4C251.228 375.4 256.816 374.94 261.133 374.052C265.435 373.167 268.706 371.811 271.079 369.848C275.9 365.86 275.891 360.277 275.885 356.134L275.885 355.7C275.885 349.44 271.475 344.447 265.817 341.214C260.061 337.925 252.34 336 243.999 336Z" fill="#3C5AAA"/>
<path fill-rule="evenodd" clip-rule="evenodd" d="M492.891 111.4C487.896 111.4 483.847 115.449 483.847 120.444C483.847 125.439 487.896 129.488 492.891 129.488C497.886 129.488 501.936 125.439 501.936 120.444C501.936 115.449 497.886 111.4 492.891 111.4ZM477.047 120.444C477.047 111.693 484.141 104.6 492.891 104.6C501.642 104.6 508.736 111.693 508.736 120.444C508.736 129.195 501.642 136.288 492.891 136.288C484.141 136.288 477.047 129.195 477.047 120.444Z" fill="#333333"/>
<path fill-rule="evenodd" clip-rule="evenodd" d="M505.99 142.095C502.043 140.842 497.575 140.154 492.891 140.154C485.537 140.154 478.711 141.851 473.606 144.768C468.597 147.63 464.603 152.103 464.603 157.777L464.602 158.184C464.595 161.79 464.586 166.845 468.946 170.453C471.089 172.225 474.018 173.43 477.818 174.211C481.631 174.995 486.55 175.399 492.891 175.399C494.187 175.399 495.423 175.382 496.603 175.348C495.578 173.239 494.83 170.971 494.406 168.59C493.913 168.596 493.408 168.599 492.891 168.599C486.788 168.599 482.374 168.206 479.187 167.551C475.987 166.893 474.25 166.014 473.281 165.213C471.586 163.81 471.403 162.005 471.403 157.777C471.403 155.596 472.98 152.958 476.98 150.672C480.883 148.442 486.501 146.954 492.891 146.954C495.343 146.954 497.68 147.173 499.851 147.569C501.592 145.437 503.664 143.586 505.99 142.095Z" fill="#333333"/>
<path fill-rule="evenodd" clip-rule="evenodd" d="M540 164C540 175.046 531.046 184 520 184C508.954 184 500 175.046 500 164C500 152.954 508.954 144 520 144C531.046 144 540 152.954 540 164ZM520 151C521.656 151 523 152.343 523 154V161H530C531.657 161 533 162.343 533 164C533 165.656 531.657 167 530 167H523V174C523 175.657 521.656 177 520 177C518.343 177 517 175.657 517 174V167H510C508.343 167 507 165.656 507 164C507 162.343 508.343 161 510 161H517V154C517 152.343 518.343 151 520 151Z" fill="#333333"/>
<path fill-rule="evenodd" clip-rule="evenodd" d="M765.33 154.67H764.662V148.836C764.662 142.448 769.841 137.27 776.229 137.27C782.617 137.27 787.796 142.448 787.796 148.836V154.67H786.663C791.082 154.67 794.663 158.251 794.663 162.67V174.67C794.663 179.088 791.082 182.67 786.663 182.67H765.33C760.912 182.67 757.33 179.088 757.33 174.67V162.67C757.33 158.251 760.912 154.67 765.33 154.67ZM771.463 148.836C771.463 146.204 773.597 144.07 776.229 144.07C778.862 144.07 780.996 146.204 780.996 148.836V154.67H771.463V148.836Z" fill="#333333"/>
<path fill-rule="evenodd" clip-rule="evenodd" d="M733.244 120.445C733.244 111.805 740.248 104.801 748.889 104.801C757.529 104.801 764.533 111.805 764.533 120.445C764.533 129.085 757.529 136.09 748.889 136.09C740.248 136.09 733.244 129.085 733.244 120.445ZM748.889 111.201C743.783 111.201 739.644 115.34 739.644 120.445C739.644 125.551 743.783 129.69 748.889 129.69C753.994 129.69 758.133 125.551 758.133 120.445C758.133 115.34 753.994 111.201 748.889 111.201Z" fill="#333333"/>
<path d="M732.876 150.5C728.847 152.802 727.198 155.495 727.198 157.778C727.198 161.988 727.37 163.897 729.149 165.368C730.152 166.198 731.924 167.086 735.142 167.748C738.348 168.407 742.776 168.8 748.887 168.8C750.025 168.8 751.106 168.786 752.131 168.76V174.67C752.131 174.835 752.134 174.999 752.14 175.162C751.1 175.187 750.016 175.2 748.887 175.2C742.553 175.2 737.648 174.797 733.853 174.017C730.071 173.239 727.177 172.044 725.069 170.3C720.783 166.754 720.791 161.788 720.797 158.171L720.798 157.778C720.798 152.207 724.721 147.788 729.7 144.943C734.77 142.046 741.56 140.355 748.887 140.355C753.159 140.355 757.25 140.93 760.923 141.984C760.063 143.902 759.553 146.011 759.474 148.229C756.364 147.301 752.765 146.755 748.887 146.755C742.468 146.755 736.814 148.249 732.876 150.5Z" fill="#333333"/>
<path fill-rule="evenodd" clip-rule="evenodd" d="M1004.89 104.801C996.25 104.801 989.246 111.805 989.246 120.445C989.246 129.085 996.25 136.09 1004.89 136.09C1013.53 136.09 1020.53 129.085 1020.53 120.445C1020.53 111.805 1013.53 104.801 1004.89 104.801ZM995.646 120.445C995.646 115.34 999.785 111.201 1004.89 111.201C1010 111.201 1014.13 115.34 1014.13 120.445C1014.13 125.551 1010 129.69 1004.89 129.69C999.785 129.69 995.646 125.551 995.646 120.445Z" fill="#333333"/>
<path d="M1004.89 140.355C997.564 140.355 990.774 142.046 985.704 144.943C980.725 147.788 976.802 152.207 976.802 157.778L976.801 158.171C976.795 161.788 976.787 166.754 981.073 170.3C983.181 172.044 986.075 173.239 989.857 174.017C993.652 174.797 998.557 175.2 1004.89 175.2C1005.48 175.2 1006.06 175.196 1006.63 175.189L1007.26 171.854C1007.47 170.779 1007.81 169.739 1008.26 168.756C1007.2 168.785 1006.08 168.8 1004.89 168.8C998.78 168.8 994.352 168.407 991.146 167.748C987.928 167.086 986.156 166.198 985.153 165.368C983.374 163.897 983.202 161.988 983.202 157.778C983.202 155.495 984.85 152.802 988.879 150.5C992.818 148.249 998.472 146.755 1004.89 146.755C1011.31 146.755 1016.96 148.249 1020.9 150.5C1021.94 151.092 1022.82 151.71 1023.55 152.34L1028.08 147.811C1026.88 146.729 1025.52 145.77 1024.08 144.943C1019.01 142.046 1012.22 140.355 1004.89 140.355Z" fill="#333333"/>
<path d="M1049.24 158.001L1026.57 180.671C1025.44 181.805 1023.99 182.572 1022.41 182.873L1012.89 184.689C1011.51 184.953 1010.29 183.736 1010.55 182.35L1012.37 172.829C1012.67 171.254 1013.44 169.805 1014.57 168.671L1037.24 146C1040.56 142.686 1045.93 142.686 1049.24 146C1052.56 149.314 1052.56 154.687 1049.24 158.001Z" fill="#333333"/>
<g opacity="0.48">
<path d="M493 295.312C483.974 295.312 476.657 302.63 476.657 311.656C476.657 320.682 483.974 327.999 493 327.999C502.026 327.999 509.343 320.682 509.343 311.656C509.343 302.63 502.026 295.312 493 295.312Z" fill="#3C5AAA"/>
<path d="M493 331.756C485.488 331.756 478.506 333.488 473.273 336.478C468.145 339.409 464.001 344.019 464.001 349.907L464.001 350.336C463.993 353.993 463.983 359.237 468.502 362.976C470.721 364.811 473.74 366.047 477.624 366.846C481.523 367.648 486.543 368.059 493 368.059C499.457 368.059 504.477 367.648 508.376 366.846L506 356L511.329 339.471H516.895C515.642 338.336 514.227 337.335 512.727 336.478C507.494 333.488 500.512 331.756 493 331.756Z" fill="#3C5AAA"/>
</g>
<path fill-rule="evenodd" clip-rule="evenodd" d="M540 356C540 367.046 531.046 376 520 376C508.954 376 500 367.046 500 356C500 344.954 508.954 336 520 336C531.046 336 540 344.954 540 356ZM520 343C521.656 343 523 344.343 523 346V353H530C531.657 353 533 354.343 533 356C533 357.656 531.657 359 530 359H523V366C523 367.657 521.656 369 520 369C518.343 369 517 367.657 517 366V359H510C508.343 359 507 357.656 507 356C507 354.343 508.343 353 510 353H517V346C517 344.343 518.343 343 520 343Z" fill="#3C5AAA"/>
<path fill-rule="evenodd" clip-rule="evenodd" d="M765.332 346.67H764.664V340.836C764.664 334.448 769.843 329.27 776.231 329.27C782.619 329.27 787.798 334.448 787.798 340.836V346.67H786.665C791.084 346.67 794.665 350.251 794.665 354.67V366.67C794.665 371.088 791.084 374.67 786.665 374.67H765.332C760.914 374.67 757.332 371.088 757.332 366.67V354.67C757.332 350.251 760.914 346.67 765.332 346.67ZM771.464 340.836C771.464 338.204 773.599 336.07 776.231 336.07C778.864 336.07 780.998 338.204 780.998 340.836V346.67H771.464V340.836Z" fill="#3C5AAA"/>
<g opacity="0.48">
<path d="M748.891 296.801C740.25 296.801 733.246 303.805 733.246 312.445C733.246 321.085 740.25 328.09 748.891 328.09C757.531 328.09 764.535 321.085 764.535 312.445C764.535 303.805 757.531 296.801 748.891 296.801Z" fill="#3C5AAA"/>
<path d="M765.822 335.786C765.081 337.312 764.664 339.025 764.664 340.836V346.67H765.332C760.914 346.67 757.332 350.251 757.332 354.67V366.67C757.332 366.748 757.333 366.825 757.335 366.903C754.858 367.099 752.057 367.2 748.891 367.2C742.557 367.2 737.652 366.797 733.857 366.017C730.075 365.239 727.181 364.044 725.073 362.3C720.787 358.754 720.795 353.788 720.801 350.171L720.802 349.778C720.802 344.207 724.725 339.788 729.704 336.943C734.774 334.046 741.564 332.355 748.891 332.355C755.194 332.355 761.083 333.606 765.822 335.786Z" fill="#3C5AAA"/>
</g>
<g opacity="0.48">
<path d="M1004.89 296.801C996.25 296.801 989.246 303.805 989.246 312.445C989.246 321.085 996.25 328.09 1004.89 328.09C1013.53 328.09 1020.53 321.085 1020.53 312.445C1020.53 303.805 1013.53 296.801 1004.89 296.801Z" fill="#3C5AAA"/>
<path d="M1004.89 332.355C997.564 332.355 990.774 334.046 985.704 336.943C980.725 339.788 976.802 344.207 976.802 349.778L976.801 350.171C976.795 353.788 976.787 358.754 981.073 362.3C983.181 364.044 986.075 365.239 989.857 366.017C993.652 366.797 998.557 367.2 1004.89 367.2C1011.22 367.2 1016.13 366.797 1019.92 366.017C1023.71 365.239 1026.6 364.044 1028.71 362.3C1032.99 358.754 1032.99 353.788 1032.98 350.171L1032.98 349.778C1032.98 344.207 1029.06 339.788 1024.08 336.943C1019.01 334.046 1012.22 332.355 1004.89 332.355Z" fill="#3C5AAA"/>
</g>
<path d="M1026.57 372.671L1049.24 350.001C1052.56 346.687 1052.56 341.314 1049.24 338C1045.93 334.686 1040.56 334.686 1037.24 338L1014.57 360.671C1013.44 361.805 1012.67 363.254 1012.37 364.829L1010.55 374.35C1010.29 375.736 1011.51 376.954 1012.89 376.689L1022.41 374.873C1023.99 374.572 1025.44 373.805 1026.57 372.671Z" fill="#3C5AAA"/>
<path fill-rule="evenodd" clip-rule="evenodd" d="M1286 332C1288.17 332 1289.26 332 1290.12 332.334C1290.68 332.555 1291.2 332.878 1291.63 333.287C1292.06 333.696 1292.41 334.182 1292.64 334.717C1292.86 335.208 1292.94 335.78 1292.98 336.616C1292.99 337.22 1293.17 337.81 1293.49 338.331C1293.82 338.851 1294.27 339.286 1294.82 339.592C1295.38 339.888 1296.01 340.044 1296.65 340.047C1297.29 340.05 1297.92 339.9 1298.48 339.61C1299.26 339.218 1299.83 339.003 1300.39 338.932C1301.62 338.779 1302.86 339.092 1303.84 339.803C1304.57 340.336 1305.11 341.218 1306.19 342.979L1306.21 343C1307.3 344.775 1307.84 345.664 1307.96 346.531C1308.04 347.104 1308 347.687 1307.84 348.246C1307.68 348.804 1307.41 349.327 1307.04 349.785C1306.69 350.207 1306.21 350.561 1305.46 351.008C1304.35 351.659 1303.65 352.772 1303.65 354C1303.65 355.228 1304.35 356.341 1305.46 356.994C1306.21 357.439 1306.69 357.793 1307.03 358.215C1307.41 358.673 1307.68 359.196 1307.84 359.754C1308 360.313 1308.04 360.895 1307.96 361.469C1307.84 362.338 1307.3 363.225 1306.21 365C1305.12 366.775 1304.58 367.664 1303.84 368.197C1302.86 368.907 1301.62 369.222 1300.39 369.068C1299.83 368.997 1299.26 368.782 1298.48 368.39C1297.92 368.101 1297.29 367.95 1296.65 367.953C1296.01 367.956 1295.38 368.113 1294.82 368.408C1293.7 369.022 1293.03 370.157 1292.98 371.384C1292.94 372.22 1292.86 372.792 1292.64 373.283C1292.17 374.364 1291.26 375.221 1290.12 375.666C1289.26 376 1288.17 376 1286 376C1283.83 376 1282.74 376 1281.88 375.666C1280.74 375.219 1279.83 374.361 1279.36 373.283C1279.14 372.792 1279.06 372.22 1279.02 371.384C1278.97 370.157 1278.3 369.024 1277.18 368.408C1276.62 368.112 1275.99 367.956 1275.35 367.953C1274.71 367.95 1274.08 368.1 1273.52 368.39C1272.74 368.782 1272.17 368.997 1271.61 369.068C1270.38 369.22 1269.14 368.907 1268.16 368.197C1267.43 367.664 1266.89 366.782 1265.81 365.021L1265.79 365C1264.7 363.225 1264.16 362.336 1264.04 361.469C1263.96 360.896 1264 360.313 1264.16 359.754C1264.32 359.196 1264.59 358.673 1264.96 358.215C1265.31 357.793 1265.79 357.439 1266.54 356.992C1267.65 356.341 1268.35 355.228 1268.35 354C1268.35 352.772 1267.65 351.659 1266.54 351.006C1265.79 350.561 1265.31 350.207 1264.97 349.785C1264.21 348.859 1263.88 347.688 1264.04 346.531C1264.16 345.662 1264.7 344.775 1265.79 343C1266.88 341.225 1267.42 340.336 1268.16 339.803C1269.14 339.092 1270.38 338.779 1271.61 338.932C1272.17 339.003 1272.74 339.218 1273.52 339.61C1274.08 339.899 1274.71 340.05 1275.35 340.047C1275.99 340.044 1276.62 339.887 1277.18 339.592C1277.73 339.286 1278.18 338.852 1278.51 338.331C1278.83 337.81 1279.01 337.22 1279.02 336.616C1279.06 335.782 1279.14 335.208 1279.36 334.717C1279.83 333.636 1280.74 332.779 1281.88 332.334C1282.74 332 1283.83 332 1286 332ZM1293 354C1293 357.645 1289.87 360.6 1286 360.6C1282.14 360.6 1279 357.645 1279 354C1279 350.355 1282.13 347.4 1286 347.4C1289.87 347.4 1293 350.355 1293 354Z" fill="#3C5AAA"/>
<path opacity="0.48" d="M1260.89 332.355C1267.79 332.355 1274.19 333.853 1279.14 336.434L1283.54 338.729L1279.64 341.789C1279.36 342.011 1279.06 342.211 1278.74 342.387L1278.67 342.422C1277.65 342.96 1276.52 343.242 1275.37 343.248C1274.23 343.254 1273.1 342.986 1272.08 342.465L1271.21 342.107C1270.78 342.053 1270.35 342.17 1270.04 342.396C1270.02 342.414 1269.92 342.507 1269.71 342.793C1269.43 343.191 1269.09 343.748 1268.52 344.674C1267.96 345.599 1267.62 346.154 1267.4 346.582C1267.26 346.84 1267.22 346.962 1267.21 346.996C1267.18 347.242 1267.25 347.515 1267.45 347.762C1267.46 347.771 1267.49 347.798 1267.55 347.846C1267.66 347.934 1267.85 348.061 1268.17 348.252C1270.11 349.398 1271.56 351.487 1271.56 354C1271.56 356.509 1270.11 358.598 1268.18 359.744C1267.85 359.937 1267.66 360.066 1267.55 360.156C1267.48 360.207 1267.45 360.234 1267.44 360.244C1267.34 360.367 1267.28 360.499 1267.24 360.629C1267.2 360.753 1267.19 360.88 1267.21 361.004C1267.22 361.028 1267.24 361.089 1267.29 361.199C1267.39 361.429 1267.57 361.755 1267.89 362.289L1270.67 366.943L1265.25 367.129C1263.88 367.176 1262.43 367.199 1260.89 367.199C1254.56 367.199 1249.65 366.796 1245.86 366.016C1242.08 365.238 1239.18 364.043 1237.07 362.299C1232.79 358.753 1232.79 353.788 1232.8 350.172V349.777C1232.8 344.207 1236.73 339.789 1241.71 336.943C1246.77 334.046 1253.56 332.355 1260.89 332.355ZM1268.45 296.801C1277.09 296.801 1284.09 303.805 1284.09 312.445C1284.09 321.085 1277.09 328.09 1268.45 328.09C1259.81 328.09 1252.8 321.085 1252.8 312.445C1252.8 303.805 1259.81 296.801 1268.45 296.801Z" fill="#3C5AAA"/>
<path fill-rule="evenodd" clip-rule="evenodd" d="M1268.45 106.801C1259.81 106.801 1252.8 113.805 1252.8 122.445C1252.8 131.085 1259.81 138.09 1268.45 138.09C1277.09 138.09 1284.09 131.085 1284.09 122.445C1284.09 113.805 1277.09 106.801 1268.45 106.801ZM1259.2 122.445C1259.2 117.34 1263.34 113.201 1268.45 113.201C1273.55 113.201 1277.69 117.34 1277.69 122.445C1277.69 127.551 1273.55 131.69 1268.45 131.69C1263.34 131.69 1259.2 127.551 1259.2 122.445Z" fill="#333333"/>
<path fill-rule="evenodd" clip-rule="evenodd" d="M1286 142C1288.17 142 1289.26 142 1290.12 142.334C1290.68 142.555 1291.2 142.878 1291.63 143.287C1292.06 143.696 1292.41 144.182 1292.64 144.717C1292.86 145.208 1292.94 145.78 1292.98 146.616C1292.99 147.22 1293.17 147.81 1293.49 148.331C1293.82 148.851 1294.27 149.286 1294.82 149.592C1295.38 149.888 1296.01 150.044 1296.65 150.047C1297.29 150.05 1297.92 149.9 1298.48 149.61C1299.26 149.218 1299.83 149.003 1300.39 148.932C1301.62 148.779 1302.86 149.092 1303.84 149.803C1304.57 150.336 1305.11 151.218 1306.19 152.979L1306.21 153C1307.3 154.775 1307.84 155.664 1307.96 156.531C1308.04 157.104 1308 157.687 1307.84 158.246C1307.68 158.804 1307.41 159.327 1307.04 159.785C1306.69 160.207 1306.21 160.561 1305.46 161.008C1304.35 161.659 1303.65 162.772 1303.65 164C1303.65 165.228 1304.35 166.341 1305.46 166.994C1306.21 167.439 1306.69 167.793 1307.03 168.215C1307.41 168.673 1307.68 169.196 1307.84 169.754C1308 170.313 1308.04 170.895 1307.96 171.469C1307.84 172.338 1307.3 173.225 1306.21 175C1305.12 176.775 1304.58 177.664 1303.84 178.197C1302.86 178.907 1301.62 179.222 1300.39 179.068C1299.83 178.997 1299.26 178.782 1298.48 178.39C1297.92 178.101 1297.29 177.95 1296.65 177.953C1296.01 177.956 1295.38 178.113 1294.82 178.408C1293.7 179.022 1293.03 180.157 1292.98 181.384C1292.94 182.22 1292.86 182.792 1292.64 183.283C1292.17 184.364 1291.26 185.221 1290.12 185.666C1289.26 186 1288.17 186 1286 186C1283.83 186 1282.74 186 1281.88 185.666C1280.74 185.219 1279.83 184.361 1279.36 183.283C1279.14 182.792 1279.06 182.22 1279.02 181.384C1278.97 180.157 1278.3 179.024 1277.18 178.408C1276.62 178.112 1275.99 177.956 1275.35 177.953C1274.71 177.95 1274.08 178.1 1273.52 178.39C1272.74 178.782 1272.17 178.997 1271.61 179.068C1270.38 179.22 1269.14 178.907 1268.16 178.197C1267.43 177.664 1266.89 176.782 1265.81 175.021L1265.79 175C1264.7 173.225 1264.16 172.336 1264.04 171.469C1263.96 170.896 1264 170.313 1264.16 169.754C1264.32 169.196 1264.59 168.673 1264.96 168.215C1265.31 167.793 1265.79 167.439 1266.54 166.992C1267.65 166.341 1268.35 165.228 1268.35 164C1268.35 162.772 1267.65 161.659 1266.54 161.006C1265.79 160.561 1265.31 160.207 1264.97 159.785C1264.21 158.859 1263.88 157.688 1264.04 156.531C1264.16 155.662 1264.7 154.775 1265.79 153C1266.88 151.225 1267.42 150.336 1268.16 149.803C1269.14 149.092 1270.38 148.779 1271.61 148.932C1272.17 149.003 1272.74 149.218 1273.52 149.61C1274.08 149.899 1274.71 150.05 1275.35 150.047C1275.99 150.044 1276.62 149.887 1277.18 149.592C1277.73 149.286 1278.18 148.852 1278.51 148.331C1278.83 147.81 1279.01 147.22 1279.02 146.616C1279.06 145.782 1279.14 145.208 1279.36 144.717C1279.83 143.636 1280.74 142.779 1281.88 142.334C1282.74 142 1283.83 142 1286 142ZM1293 164C1293 167.645 1289.87 170.6 1286 170.6C1282.14 170.6 1279 167.645 1279 164C1279 160.355 1282.13 157.4 1286 157.4C1289.87 157.4 1293 160.355 1293 164Z" fill="#333333"/>
<path d="M1260.89 142.355C1264.84 142.355 1268.63 142.847 1272.09 143.753C1269.63 143.489 1267.14 144.127 1265.12 145.589C1264.1 146.321 1263.4 147.181 1262.87 147.919C1262.68 148.186 1262.49 148.476 1262.29 148.779C1261.83 148.764 1261.36 148.755 1260.89 148.755C1254.47 148.755 1248.82 150.249 1244.88 152.5C1240.85 154.802 1239.2 157.495 1239.2 159.778C1239.2 163.988 1239.37 165.897 1241.15 167.368C1242.16 168.198 1243.93 169.086 1247.15 169.748C1249.97 170.329 1253.75 170.704 1258.8 170.784C1258.8 171.252 1258.83 171.721 1258.89 172.187L1258.89 172.199C1259.07 173.462 1259.53 174.498 1259.94 175.291C1260.25 175.888 1260.64 176.542 1261.04 177.2L1260.89 177.2C1254.56 177.2 1249.65 176.797 1245.86 176.017C1242.08 175.239 1239.18 174.044 1237.07 172.3C1232.79 168.754 1232.8 163.788 1232.8 160.171L1232.8 159.778C1232.8 154.207 1236.72 149.788 1241.7 146.943C1246.77 144.046 1253.56 142.355 1260.89 142.355Z" fill="#333333"/>
</svg>
