<svg width="1512" height="720" viewBox="0 0 1512 720" fill="none" xmlns="http://www.w3.org/2000/svg">
<rect width="756" height="360" transform="scale(2)" fill="#F6F6F6"/>
<path d="M1496 0C1504.84 0 1512 7.16344 1512 16V704C1512 712.837 1504.84 720 1496 720H16C7.16346 720 0 712.837 0 704V16C0 7.16344 7.16344 0 16 0H1496Z" fill="#FAFAFA"/>
<path d="M1496 0C1504.84 0 1512 7.16344 1512 16V704C1512 712.837 1504.84 720 1496 720H16C7.16346 720 0 712.837 0 704V16C0 7.16344 7.16344 0 16 0H1496Z" stroke="#E5E5E5"/>
<path d="M275.412 539.273C275.412 541.136 275.071 542.739 274.389 544.08C273.707 545.415 272.772 546.443 271.585 547.165C270.403 547.881 269.059 548.239 267.554 548.239C266.042 548.239 264.693 547.881 263.505 547.165C262.324 546.443 261.392 545.412 260.71 544.071C260.028 542.73 259.687 541.131 259.687 539.273C259.687 537.409 260.028 535.81 260.71 534.474C261.392 533.134 262.324 532.105 263.505 531.389C264.693 530.668 266.042 530.307 267.554 530.307C269.059 530.307 270.403 530.668 271.585 531.389C272.772 532.105 273.707 533.134 274.389 534.474C275.071 535.81 275.412 537.409 275.412 539.273ZM272.804 539.273C272.804 537.852 272.574 536.656 272.113 535.685C271.659 534.707 271.034 533.969 270.238 533.469C269.449 532.963 268.554 532.71 267.554 532.71C266.548 532.71 265.65 532.963 264.86 533.469C264.071 533.969 263.446 534.707 262.985 535.685C262.531 536.656 262.304 537.852 262.304 539.273C262.304 540.693 262.531 541.892 262.985 542.869C263.446 543.841 264.071 544.58 264.86 545.085C265.65 545.585 266.548 545.835 267.554 545.835C268.554 545.835 269.449 545.585 270.238 545.085C271.034 544.58 271.659 543.841 272.113 542.869C272.574 541.892 272.804 540.693 272.804 539.273ZM286.783 542.571V534.909H289.34V548H286.834V545.733H286.698C286.397 546.432 285.914 547.014 285.249 547.48C284.59 547.94 283.769 548.17 282.786 548.17C281.945 548.17 281.201 547.986 280.553 547.616C279.911 547.241 279.405 546.688 279.036 545.955C278.672 545.222 278.49 544.315 278.49 543.236V534.909H281.039V542.929C281.039 543.821 281.286 544.531 281.78 545.06C282.275 545.588 282.917 545.852 283.706 545.852C284.184 545.852 284.658 545.733 285.13 545.494C285.607 545.256 286.002 544.895 286.314 544.412C286.632 543.929 286.789 543.315 286.783 542.571ZM298.875 534.909V536.955H291.724V534.909H298.875ZM293.642 531.773H296.19V544.156C296.19 544.651 296.264 545.023 296.412 545.273C296.559 545.517 296.75 545.685 296.983 545.776C297.221 545.861 297.48 545.903 297.758 545.903C297.963 545.903 298.142 545.889 298.295 545.861C298.449 545.832 298.568 545.81 298.653 545.793L299.113 547.898C298.966 547.955 298.755 548.011 298.483 548.068C298.21 548.131 297.869 548.165 297.46 548.17C296.789 548.182 296.164 548.062 295.585 547.812C295.005 547.562 294.537 547.176 294.179 546.653C293.821 546.131 293.642 545.474 293.642 544.685V531.773ZM304.523 530.545V548H301.975V530.545H304.523ZM307.951 548V534.909H310.5V548H307.951ZM309.238 532.889C308.795 532.889 308.414 532.741 308.096 532.446C307.784 532.145 307.627 531.787 307.627 531.372C307.627 530.952 307.784 530.594 308.096 530.298C308.414 529.997 308.795 529.847 309.238 529.847C309.681 529.847 310.059 529.997 310.372 530.298C310.69 530.594 310.849 530.952 310.849 531.372C310.849 531.787 310.69 532.145 310.372 532.446C310.059 532.741 309.681 532.889 309.238 532.889ZM316.476 540.227V548H313.928V534.909H316.374V537.04H316.536C316.837 536.347 317.309 535.79 317.951 535.369C318.598 534.949 319.414 534.739 320.397 534.739C321.289 534.739 322.07 534.926 322.74 535.301C323.411 535.67 323.931 536.222 324.3 536.955C324.669 537.687 324.854 538.594 324.854 539.673V548H322.306V539.98C322.306 539.031 322.059 538.29 321.564 537.756C321.07 537.216 320.391 536.946 319.527 536.946C318.936 536.946 318.411 537.074 317.951 537.33C317.496 537.585 317.135 537.96 316.868 538.455C316.607 538.943 316.476 539.534 316.476 540.227ZM333.914 548.264C332.624 548.264 331.513 547.989 330.581 547.438C329.655 546.881 328.939 546.099 328.434 545.094C327.934 544.082 327.684 542.898 327.684 541.54C327.684 540.199 327.934 539.017 328.434 537.994C328.939 536.972 329.644 536.173 330.547 535.599C331.456 535.026 332.519 534.739 333.735 534.739C334.473 534.739 335.189 534.861 335.882 535.105C336.576 535.349 337.198 535.733 337.749 536.256C338.3 536.778 338.735 537.457 339.053 538.293C339.371 539.122 339.53 540.131 339.53 541.318V542.222H329.124V540.312H337.033C337.033 539.642 336.897 539.048 336.624 538.531C336.351 538.009 335.968 537.597 335.473 537.295C334.985 536.994 334.411 536.844 333.752 536.844C333.036 536.844 332.411 537.02 331.877 537.372C331.348 537.719 330.939 538.173 330.65 538.736C330.365 539.293 330.223 539.898 330.223 540.551V542.043C330.223 542.918 330.377 543.662 330.684 544.276C330.996 544.889 331.431 545.358 331.988 545.682C332.544 546 333.195 546.159 333.939 546.159C334.422 546.159 334.863 546.091 335.26 545.955C335.658 545.812 336.002 545.602 336.292 545.324C336.581 545.045 336.803 544.702 336.956 544.293L339.368 544.727C339.175 545.437 338.828 546.06 338.328 546.594C337.834 547.122 337.212 547.534 336.462 547.83C335.718 548.119 334.868 548.264 333.914 548.264ZM347.258 548.256C346.201 548.256 345.258 547.986 344.429 547.446C343.605 546.901 342.957 546.125 342.485 545.119C342.02 544.108 341.787 542.895 341.787 541.48C341.787 540.065 342.022 538.855 342.494 537.849C342.971 536.844 343.625 536.074 344.454 535.54C345.284 535.006 346.224 534.739 347.275 534.739C348.088 534.739 348.741 534.875 349.235 535.148C349.735 535.415 350.122 535.727 350.395 536.085C350.673 536.443 350.889 536.759 351.042 537.031H351.196V530.545H353.744V548H351.255V545.963H351.042C350.889 546.241 350.667 546.56 350.377 546.918C350.093 547.276 349.701 547.588 349.201 547.855C348.701 548.122 348.054 548.256 347.258 548.256ZM347.821 546.082C348.554 546.082 349.173 545.889 349.679 545.503C350.19 545.111 350.576 544.568 350.838 543.875C351.105 543.182 351.238 542.375 351.238 541.455C351.238 540.545 351.108 539.75 350.846 539.068C350.585 538.386 350.201 537.855 349.696 537.474C349.19 537.094 348.565 536.903 347.821 536.903C347.054 536.903 346.414 537.102 345.903 537.5C345.392 537.898 345.005 538.44 344.744 539.128C344.488 539.815 344.36 540.591 344.36 541.455C344.36 542.33 344.491 543.116 344.752 543.815C345.014 544.514 345.4 545.068 345.912 545.477C346.429 545.881 347.065 546.082 347.821 546.082Z" fill="#333333"/>
<path d="M212 540C212 530.059 220.059 522 230 522C239.941 522 248 530.059 248 540C248 549.941 239.941 558 230 558C220.059 558 212 549.941 212 540Z" fill="#333333"/>
<path d="M232.191 533.455V548H229.989V535.656H229.904L226.424 537.929V535.827L230.053 533.455H232.191Z" fill="white"/>
<path d="M680 540C680 530.059 688.059 522 698 522C707.941 522 716 530.059 716 540C716 549.941 707.941 558 698 558C688.059 558 680 549.941 680 540Z" fill="#333333"/>
<path d="M693.266 548V546.409L698.188 541.31C698.714 540.756 699.147 540.27 699.488 539.854C699.834 539.432 700.092 539.032 700.262 538.653C700.433 538.275 700.518 537.872 700.518 537.446C700.518 536.963 700.404 536.546 700.177 536.196C699.95 535.841 699.639 535.569 699.246 535.379C698.853 535.185 698.411 535.088 697.918 535.088C697.397 535.088 696.943 535.195 696.555 535.408C696.166 535.621 695.868 535.921 695.66 536.31C695.451 536.698 695.347 537.152 695.347 537.673H693.252C693.252 536.788 693.456 536.014 693.863 535.351C694.27 534.688 694.829 534.174 695.539 533.81C696.249 533.44 697.057 533.256 697.961 533.256C698.875 533.256 699.68 533.438 700.376 533.803C701.076 534.162 701.623 534.655 702.016 535.28C702.409 535.9 702.606 536.601 702.606 537.382C702.606 537.922 702.504 538.45 702.3 538.966C702.102 539.482 701.754 540.057 701.256 540.692C700.759 541.321 700.068 542.086 699.183 542.986L696.292 546.011V546.118H702.84V548H693.266Z" fill="white"/>
<path d="M1108 540C1108 530.059 1116.06 522 1126 522C1135.94 522 1144 530.059 1144 540C1144 549.941 1135.94 558 1126 558C1116.06 558 1108 549.941 1108 540Z" fill="#333333"/>
<path d="M1126.02 548.199C1125.04 548.199 1124.17 548.031 1123.4 547.695C1122.64 547.358 1122.04 546.892 1121.59 546.295C1121.15 545.694 1120.92 544.998 1120.88 544.207H1123.11C1123.14 544.638 1123.29 545.012 1123.55 545.33C1123.81 545.642 1124.16 545.884 1124.58 546.054C1125.01 546.224 1125.48 546.31 1126 546.31C1126.58 546.31 1127.08 546.21 1127.52 546.011C1127.97 545.812 1128.32 545.536 1128.57 545.18C1128.82 544.821 1128.94 544.406 1128.94 543.938C1128.94 543.45 1128.82 543.021 1128.57 542.652C1128.32 542.278 1127.96 541.984 1127.48 541.771C1127.01 541.558 1126.43 541.452 1125.76 541.452H1124.53V539.662H1125.76C1126.3 539.662 1126.78 539.565 1127.18 539.371C1127.59 539.177 1127.92 538.907 1128.15 538.561C1128.38 538.211 1128.5 537.801 1128.5 537.332C1128.5 536.883 1128.39 536.492 1128.19 536.161C1127.99 535.824 1127.71 535.562 1127.34 535.372C1126.97 535.183 1126.54 535.088 1126.05 535.088C1125.57 535.088 1125.13 535.176 1124.72 535.351C1124.31 535.521 1123.98 535.768 1123.72 536.089C1123.47 536.407 1123.33 536.788 1123.31 537.233H1121.19C1121.21 536.447 1121.44 535.756 1121.88 535.159C1122.33 534.562 1122.92 534.096 1123.65 533.76C1124.37 533.424 1125.18 533.256 1126.07 533.256C1127.01 533.256 1127.81 533.438 1128.49 533.803C1129.17 534.162 1129.7 534.643 1130.07 535.244C1130.44 535.846 1130.62 536.504 1130.62 537.219C1130.62 538.033 1130.4 538.724 1129.94 539.293C1129.48 539.861 1128.88 540.242 1128.12 540.436V540.55C1129.09 540.696 1129.83 541.08 1130.36 541.7C1130.9 542.321 1131.16 543.09 1131.16 544.009C1131.16 544.809 1130.94 545.526 1130.49 546.161C1130.05 546.795 1129.44 547.295 1128.67 547.659C1127.9 548.019 1127.01 548.199 1126.02 548.199Z" fill="white"/>
<path d="M737.996 535.131C737.905 534.324 737.53 533.699 736.871 533.256C736.212 532.807 735.382 532.582 734.382 532.582C733.667 532.582 733.047 532.696 732.525 532.923C732.002 533.145 731.596 533.452 731.306 533.844C731.022 534.23 730.88 534.67 730.88 535.165C730.88 535.58 730.976 535.937 731.169 536.239C731.368 536.54 731.627 536.793 731.945 536.997C732.269 537.196 732.615 537.364 732.985 537.5C733.354 537.631 733.709 537.739 734.05 537.824L735.755 538.267C736.311 538.403 736.882 538.588 737.468 538.821C738.053 539.054 738.596 539.361 739.096 539.741C739.596 540.122 739.999 540.594 740.306 541.156C740.618 541.719 740.775 542.392 740.775 543.176C740.775 544.165 740.519 545.043 740.007 545.81C739.502 546.577 738.766 547.182 737.8 547.625C736.84 548.068 735.678 548.29 734.314 548.29C733.007 548.29 731.877 548.082 730.922 547.668C729.968 547.253 729.221 546.665 728.681 545.903C728.141 545.136 727.843 544.227 727.786 543.176H730.428C730.479 543.807 730.684 544.332 731.042 544.753C731.405 545.168 731.868 545.477 732.431 545.682C732.999 545.881 733.621 545.98 734.297 545.98C735.042 545.98 735.703 545.864 736.283 545.631C736.868 545.392 737.328 545.062 737.664 544.642C737.999 544.216 738.167 543.719 738.167 543.151C738.167 542.634 738.019 542.21 737.723 541.881C737.434 541.551 737.039 541.278 736.539 541.062C736.044 540.847 735.485 540.656 734.86 540.491L732.797 539.929C731.4 539.548 730.292 538.989 729.473 538.25C728.661 537.511 728.255 536.534 728.255 535.318C728.255 534.312 728.527 533.435 729.073 532.685C729.618 531.935 730.357 531.352 731.289 530.938C732.221 530.517 733.272 530.307 734.442 530.307C735.624 530.307 736.667 530.514 737.57 530.929C738.479 531.344 739.195 531.915 739.718 532.642C740.24 533.364 740.513 534.193 740.536 535.131H737.996ZM749.231 548.264C748.004 548.264 746.933 547.983 746.018 547.42C745.103 546.858 744.393 546.071 743.887 545.06C743.382 544.048 743.129 542.866 743.129 541.514C743.129 540.156 743.382 538.969 743.887 537.952C744.393 536.935 745.103 536.145 746.018 535.582C746.933 535.02 748.004 534.739 749.231 534.739C750.458 534.739 751.529 535.02 752.444 535.582C753.359 536.145 754.069 536.935 754.575 537.952C755.081 538.969 755.333 540.156 755.333 541.514C755.333 542.866 755.081 544.048 754.575 545.06C754.069 546.071 753.359 546.858 752.444 547.42C751.529 547.983 750.458 548.264 749.231 548.264ZM749.24 546.125C750.035 546.125 750.694 545.915 751.217 545.494C751.74 545.074 752.126 544.514 752.376 543.815C752.632 543.116 752.76 542.347 752.76 541.506C752.76 540.67 752.632 539.903 752.376 539.205C752.126 538.5 751.74 537.935 751.217 537.509C750.694 537.082 750.035 536.869 749.24 536.869C748.439 536.869 747.774 537.082 747.245 537.509C746.723 537.935 746.333 538.5 746.078 539.205C745.828 539.903 745.703 540.67 745.703 541.506C745.703 542.347 745.828 543.116 746.078 543.815C746.333 544.514 746.723 545.074 747.245 545.494C747.774 545.915 748.439 546.125 749.24 546.125ZM760.726 530.545V548H758.178V530.545H760.726ZM764.154 548V534.909H766.703V548H764.154ZM765.441 532.889C764.998 532.889 764.618 532.741 764.299 532.446C763.987 532.145 763.831 531.787 763.831 531.372C763.831 530.952 763.987 530.594 764.299 530.298C764.618 529.997 764.998 529.847 765.441 529.847C765.885 529.847 766.262 529.997 766.575 530.298C766.893 530.594 767.052 530.952 767.052 531.372C767.052 531.787 766.893 532.145 766.575 532.446C766.262 532.741 765.885 532.889 765.441 532.889ZM775.032 548.256C773.975 548.256 773.032 547.986 772.202 547.446C771.378 546.901 770.73 546.125 770.259 545.119C769.793 544.108 769.56 542.895 769.56 541.48C769.56 540.065 769.796 538.855 770.267 537.849C770.745 536.844 771.398 536.074 772.228 535.54C773.057 535.006 773.998 534.739 775.049 534.739C775.861 534.739 776.515 534.875 777.009 535.148C777.509 535.415 777.895 535.727 778.168 536.085C778.446 536.443 778.662 536.759 778.816 537.031H778.969V530.545H781.517V548H779.029V545.963H778.816C778.662 546.241 778.441 546.56 778.151 546.918C777.867 547.276 777.475 547.588 776.975 547.855C776.475 548.122 775.827 548.256 775.032 548.256ZM775.594 546.082C776.327 546.082 776.946 545.889 777.452 545.503C777.963 545.111 778.35 544.568 778.611 543.875C778.878 543.182 779.012 542.375 779.012 541.455C779.012 540.545 778.881 539.75 778.62 539.068C778.358 538.386 777.975 537.855 777.469 537.474C776.963 537.094 776.338 536.903 775.594 536.903C774.827 536.903 774.188 537.102 773.676 537.5C773.165 537.898 772.779 538.44 772.517 539.128C772.262 539.815 772.134 540.591 772.134 541.455C772.134 542.33 772.265 543.116 772.526 543.815C772.787 544.514 773.174 545.068 773.685 545.477C774.202 545.881 774.838 546.082 775.594 546.082Z" fill="#333333"/>
<path d="M1161.7 548H1156.05V530.545H1161.88C1163.59 530.545 1165.06 530.895 1166.29 531.594C1167.51 532.287 1168.45 533.284 1169.11 534.585C1169.77 535.881 1170.1 537.435 1170.1 539.247C1170.1 541.065 1169.76 542.628 1169.1 543.935C1168.44 545.241 1167.49 546.247 1166.24 546.952C1164.99 547.651 1163.47 548 1161.7 548ZM1158.68 545.699H1161.56C1162.89 545.699 1163.99 545.449 1164.87 544.949C1165.75 544.443 1166.41 543.713 1166.85 542.759C1167.29 541.798 1167.5 540.628 1167.5 539.247C1167.5 537.878 1167.29 536.716 1166.85 535.761C1166.42 534.807 1165.77 534.082 1164.91 533.588C1164.06 533.094 1162.99 532.847 1161.72 532.847H1158.68V545.699ZM1181.46 542.571V534.909H1184.02V548H1181.51V545.733H1181.37C1181.07 546.432 1180.59 547.014 1179.92 547.48C1179.27 547.94 1178.44 548.17 1177.46 548.17C1176.62 548.17 1175.88 547.986 1175.23 547.616C1174.59 547.241 1174.08 546.688 1173.71 545.955C1173.35 545.222 1173.17 544.315 1173.17 543.236V534.909H1175.71V542.929C1175.71 543.821 1175.96 544.531 1176.46 545.06C1176.95 545.588 1177.59 545.852 1178.38 545.852C1178.86 545.852 1179.33 545.733 1179.81 545.494C1180.28 545.256 1180.68 544.895 1180.99 544.412C1181.31 543.929 1181.46 543.315 1181.46 542.571ZM1192.95 548.264C1191.73 548.264 1190.66 547.983 1189.74 547.42C1188.83 546.858 1188.12 546.071 1187.61 545.06C1187.1 544.048 1186.85 542.866 1186.85 541.514C1186.85 540.156 1187.1 538.969 1187.61 537.952C1188.12 536.935 1188.83 536.145 1189.74 535.582C1190.66 535.02 1191.73 534.739 1192.95 534.739C1194.18 534.739 1195.25 535.02 1196.17 535.582C1197.08 536.145 1197.79 536.935 1198.3 537.952C1198.8 538.969 1199.06 540.156 1199.06 541.514C1199.06 542.866 1198.8 544.048 1198.3 545.06C1197.79 546.071 1197.08 546.858 1196.17 547.42C1195.25 547.983 1194.18 548.264 1192.95 548.264ZM1192.96 546.125C1193.76 546.125 1194.42 545.915 1194.94 545.494C1195.46 545.074 1195.85 544.514 1196.1 543.815C1196.35 543.116 1196.48 542.347 1196.48 541.506C1196.48 540.67 1196.35 539.903 1196.1 539.205C1195.85 538.5 1195.46 537.935 1194.94 537.509C1194.42 537.082 1193.76 536.869 1192.96 536.869C1192.16 536.869 1191.5 537.082 1190.97 537.509C1190.45 537.935 1190.06 538.5 1189.8 539.205C1189.55 539.903 1189.43 540.67 1189.43 541.506C1189.43 542.347 1189.55 543.116 1189.8 543.815C1190.06 544.514 1190.45 545.074 1190.97 545.494C1191.5 545.915 1192.16 546.125 1192.96 546.125ZM1208.01 534.909V536.955H1200.86V534.909H1208.01ZM1202.78 531.773H1205.33V544.156C1205.33 544.651 1205.4 545.023 1205.55 545.273C1205.7 545.517 1205.89 545.685 1206.12 545.776C1206.36 545.861 1206.62 545.903 1206.89 545.903C1207.1 545.903 1207.28 545.889 1207.43 545.861C1207.59 545.832 1207.7 545.81 1207.79 545.793L1208.25 547.898C1208.1 547.955 1207.89 548.011 1207.62 548.068C1207.35 548.131 1207.01 548.165 1206.6 548.17C1205.93 548.182 1205.3 548.062 1204.72 547.812C1204.14 547.562 1203.67 547.176 1203.32 546.653C1202.96 546.131 1202.78 545.474 1202.78 544.685V531.773ZM1216.2 548.264C1214.98 548.264 1213.91 547.983 1212.99 547.42C1212.08 546.858 1211.37 546.071 1210.86 545.06C1210.35 544.048 1210.1 542.866 1210.1 541.514C1210.1 540.156 1210.35 538.969 1210.86 537.952C1211.37 536.935 1212.08 536.145 1212.99 535.582C1213.91 535.02 1214.98 534.739 1216.2 534.739C1217.43 534.739 1218.5 535.02 1219.42 535.582C1220.33 536.145 1221.04 536.935 1221.55 537.952C1222.05 538.969 1222.31 540.156 1222.31 541.514C1222.31 542.866 1222.05 544.048 1221.55 545.06C1221.04 546.071 1220.33 546.858 1219.42 547.42C1218.5 547.983 1217.43 548.264 1216.2 548.264ZM1216.21 546.125C1217.01 546.125 1217.67 545.915 1218.19 545.494C1218.71 545.074 1219.1 544.514 1219.35 543.815C1219.6 543.116 1219.73 542.347 1219.73 541.506C1219.73 540.67 1219.6 539.903 1219.35 539.205C1219.1 538.5 1218.71 537.935 1218.19 537.509C1217.67 537.082 1217.01 536.869 1216.21 536.869C1215.41 536.869 1214.75 537.082 1214.22 537.509C1213.7 537.935 1213.31 538.5 1213.05 539.205C1212.8 539.903 1212.68 540.67 1212.68 541.506C1212.68 542.347 1212.8 543.116 1213.05 543.815C1213.31 544.514 1213.7 545.074 1214.22 545.494C1214.75 545.915 1215.41 546.125 1216.21 546.125ZM1227.7 540.227V548H1225.15V534.909H1227.6V537.04H1227.76C1228.06 536.347 1228.53 535.79 1229.17 535.369C1229.82 534.949 1230.64 534.739 1231.62 534.739C1232.51 534.739 1233.29 534.926 1233.96 535.301C1234.63 535.67 1235.15 536.222 1235.52 536.955C1235.89 537.687 1236.08 538.594 1236.08 539.673V548H1233.53V539.98C1233.53 539.031 1233.28 538.29 1232.79 537.756C1232.29 537.216 1231.61 536.946 1230.75 536.946C1230.16 536.946 1229.63 537.074 1229.17 537.33C1228.72 537.585 1228.36 537.96 1228.09 538.455C1227.83 538.943 1227.7 539.534 1227.7 540.227ZM1245.14 548.264C1243.85 548.264 1242.74 547.989 1241.8 547.438C1240.88 546.881 1240.16 546.099 1239.66 545.094C1239.16 544.082 1238.91 542.898 1238.91 541.54C1238.91 540.199 1239.16 539.017 1239.66 537.994C1240.16 536.972 1240.87 536.173 1241.77 535.599C1242.68 535.026 1243.74 534.739 1244.96 534.739C1245.7 534.739 1246.41 534.861 1247.11 535.105C1247.8 535.349 1248.42 535.733 1248.97 536.256C1249.52 536.778 1249.96 537.457 1250.28 538.293C1250.59 539.122 1250.75 540.131 1250.75 541.318V542.222H1240.35V540.312H1248.26C1248.26 539.642 1248.12 539.048 1247.85 538.531C1247.57 538.009 1247.19 537.597 1246.7 537.295C1246.21 536.994 1245.63 536.844 1244.97 536.844C1244.26 536.844 1243.63 537.02 1243.1 537.372C1242.57 537.719 1242.16 538.173 1241.87 538.736C1241.59 539.293 1241.45 539.898 1241.45 540.551V542.043C1241.45 542.918 1241.6 543.662 1241.91 544.276C1242.22 544.889 1242.65 545.358 1243.21 545.682C1243.77 546 1244.42 546.159 1245.16 546.159C1245.64 546.159 1246.09 546.091 1246.48 545.955C1246.88 545.812 1247.22 545.602 1247.51 545.324C1247.8 545.045 1248.03 544.702 1248.18 544.293L1250.59 544.727C1250.4 545.437 1250.05 546.06 1249.55 546.594C1249.06 547.122 1248.43 547.534 1247.68 547.83C1246.94 548.119 1246.09 548.264 1245.14 548.264Z" fill="#333333"/>
<path fill-rule="evenodd" clip-rule="evenodd" d="M163.2 180C153.701 180 146 187.701 146 197.2C146 206.699 153.701 214.4 163.2 214.4C172.699 214.4 180.4 206.699 180.4 197.2C180.4 187.701 172.699 180 163.2 180ZM152.4 197.2C152.4 191.235 157.235 186.4 163.2 186.4C169.165 186.4 174 191.235 174 197.2C174 203.165 169.165 208 163.2 208C157.235 208 152.4 203.165 152.4 197.2Z" fill="#333333"/>
<path fill-rule="evenodd" clip-rule="evenodd" d="M163.201 220C155.015 220 147.447 221.889 141.814 225.108C136.272 228.275 132.001 233.138 132.001 239.2L132 239.613C131.995 243.704 131.988 249.113 136.661 252.979C138.963 254.884 142.149 256.209 146.369 257.077C150.601 257.947 156.089 258.4 163.201 258.4C170.313 258.4 175.801 257.947 180.033 257.077C184.252 256.209 187.438 254.884 189.741 252.979C194.414 249.113 194.407 243.704 194.401 239.613L194.401 239.2C194.401 233.138 190.129 228.275 184.587 225.108C178.954 221.889 171.386 220 163.201 220ZM138.401 239.2C138.401 236.426 140.398 233.289 144.99 230.665C149.491 228.093 155.923 226.4 163.201 226.4C170.478 226.4 176.91 228.093 181.412 230.665C186.004 233.289 188.001 236.426 188.001 239.2C188.001 243.902 187.829 246.255 185.661 248.048C184.463 249.038 182.399 250.056 178.744 250.808C175.101 251.557 170.089 252 163.201 252C156.313 252 151.301 251.557 147.658 250.808C144.002 250.056 141.938 249.038 140.741 248.048C138.573 246.255 138.401 243.902 138.401 239.2Z" fill="#333333"/>
<path d="M611.998 180.6C602.388 180.6 594.598 188.39 594.598 198C594.598 207.609 602.388 215.4 611.998 215.4C621.607 215.4 629.398 207.609 629.398 198C629.398 188.39 621.607 180.6 611.998 180.6Z" fill="#333333"/>
<path d="M611.999 220.6C603.785 220.6 596.181 222.495 590.513 225.734C584.941 228.918 580.599 233.835 580.599 240L580.598 240.428C580.592 244.507 580.584 250.005 585.331 253.933C587.668 255.866 590.889 257.201 595.126 258.072C599.377 258.947 604.88 259.4 611.999 259.4C619.117 259.4 624.62 258.947 628.871 258.072C633.108 257.201 636.329 255.866 638.666 253.933C643.413 250.005 643.405 244.507 643.399 240.428L643.399 240C643.399 233.835 639.056 228.918 633.484 225.734C627.816 222.495 620.212 220.6 611.999 220.6Z" fill="#333333"/>
<path d="M1060 180.6C1050.39 180.6 1042.6 188.39 1042.6 198C1042.6 207.609 1050.39 215.4 1060 215.4C1069.61 215.4 1077.4 207.609 1077.4 198C1077.4 188.39 1069.61 180.6 1060 180.6Z" fill="#3C5AAA"/>
<path opacity="0.48" d="M1060 220C1051.66 220 1043.94 221.925 1038.18 225.214C1032.52 228.447 1028.11 233.44 1028.11 239.7L1028.11 240.135C1028.11 244.277 1028.1 249.86 1032.92 253.848C1035.29 255.811 1038.56 257.167 1042.87 258.052C1047.18 258.94 1052.77 259.4 1060 259.4C1067.23 259.4 1072.82 258.94 1077.13 258.052C1081.44 257.167 1084.71 255.811 1087.08 253.848C1091.9 249.86 1091.89 244.277 1091.89 240.135L1091.88 239.7C1091.88 233.44 1087.48 228.447 1081.82 225.214C1076.06 221.925 1068.34 220 1060 220Z" fill="#3C5AAA"/>
<path d="M150 390C147.8 390 146 388.2 146 386C146 383.8 147.8 382 150 382C152.2 382 154 383.8 154 386C154 388.2 152.2 390 150 390Z" fill="#333333"/>
<path d="M146 398C146 400.2 147.8 402 150 402C152.2 402 154 400.2 154 398C154 395.8 152.2 394 150 394C147.8 394 146 395.8 146 398Z" fill="#333333"/>
<path d="M164 390C161.8 390 160 388.2 160 386C160 383.8 161.8 382 164 382C166.2 382 168 383.8 168 386C168 388.2 166.2 390 164 390Z" fill="#333333"/>
<path d="M174 386C174 388.2 175.8 390 178 390C180.2 390 182 388.2 182 386C182 383.8 180.2 382 178 382C175.8 382 174 383.8 174 386Z" fill="#333333"/>
<path fill-rule="evenodd" clip-rule="evenodd" d="M152.001 344.801C153.768 344.801 155.201 346.233 155.201 348.001V352.801H172.801V348.001C172.801 346.233 174.233 344.801 176.001 344.801C177.768 344.801 179.201 346.233 179.201 348.001V352.801H188.001C194.186 352.801 199.201 357.815 199.201 364.001V404.001C199.201 410.186 194.186 415.201 188.001 415.201H140.001C133.815 415.201 128.801 410.186 128.801 404.001V364.001C128.801 357.815 133.815 352.801 140.001 352.801H148.801V348.001C148.801 346.233 150.233 344.801 152.001 344.801ZM148.801 359.201H140.001C137.35 359.201 135.201 361.35 135.201 364.001V368.801H192.801V364.001C192.801 361.35 190.652 359.201 188.001 359.201H179.201V362.001C179.201 363.768 177.768 365.201 176.001 365.201C174.233 365.201 172.801 363.768 172.801 362.001V359.201H155.201V362.001C155.201 363.768 153.768 365.201 152.001 365.201C150.233 365.201 148.801 363.768 148.801 362.001V359.201ZM192.801 375.201H135.201V404.001C135.201 406.652 137.35 408.801 140.001 408.801H188.001C190.652 408.801 192.801 406.652 192.801 404.001V375.201Z" fill="#333333"/>
<path d="M600.001 344.801C601.768 344.801 603.201 346.233 603.201 348.001V352.801H620.801V348.001C620.801 346.233 622.233 344.801 624.001 344.801C625.768 344.801 627.201 346.233 627.201 348.001V352.801H636.001C642.186 352.801 647.201 357.815 647.201 364.001V365.199H576.801V364.001C576.801 357.815 581.815 352.801 588.001 352.801H596.801V348.001C596.801 346.233 598.233 344.801 600.001 344.801Z" fill="#333333"/>
<path fill-rule="evenodd" clip-rule="evenodd" d="M576.801 370.799V404.001C576.801 410.186 581.815 415.201 588.001 415.201H636.001C642.186 415.201 647.201 410.186 647.201 404.001V370.799H576.801ZM594 386C594 388.2 595.8 390 598 390C600.2 390 602 388.2 602 386C602 383.8 600.2 382 598 382C595.8 382 594 383.8 594 386ZM598 402C595.8 402 594 400.2 594 398C594 395.8 595.8 394 598 394C600.2 394 602 395.8 602 398C602 400.2 600.2 402 598 402ZM608 386C608 388.2 609.8 390 612 390C614.2 390 616 388.2 616 386C616 383.8 614.2 382 612 382C609.8 382 608 383.8 608 386ZM626 390C623.8 390 622 388.2 622 386C622 383.8 623.8 382 626 382C628.2 382 630 383.8 630 386C630 388.2 628.2 390 626 390Z" fill="#333333"/>
<path opacity="0.48" d="M1036 415.2C1029.82 415.2 1024.8 410.186 1024.8 404V370H1095.2V404C1095.2 410.186 1090.19 415.2 1084 415.2H1036Z" fill="#3C5AAA"/>
<path d="M1051.2 348.001C1051.2 346.233 1049.77 344.801 1048 344.801C1046.23 344.801 1044.8 346.233 1044.8 348.001V352.801H1036C1029.82 352.801 1024.8 357.815 1024.8 364.001V370H1095.2V364.001C1095.2 357.815 1090.19 352.801 1084 352.801H1075.2V348.001C1075.2 346.233 1073.77 344.801 1072 344.801C1070.23 344.801 1068.8 346.233 1068.8 348.001V352.801H1051.2V348.001Z" fill="#3C5AAA"/>
<path d="M1046 390C1043.8 390 1042 388.2 1042 386C1042 383.8 1043.8 382 1046 382C1048.2 382 1050 383.8 1050 386C1050 388.2 1048.2 390 1046 390Z" fill="#3C5AAA"/>
<path d="M1042 398C1042 400.2 1043.8 402 1046 402C1048.2 402 1050 400.2 1050 398C1050 395.8 1048.2 394 1046 394C1043.8 394 1042 395.8 1042 398Z" fill="#3C5AAA"/>
<path d="M1060 390C1057.8 390 1056 388.2 1056 386C1056 383.8 1057.8 382 1060 382C1062.2 382 1064 383.8 1064 386C1064 388.2 1062.2 390 1060 390Z" fill="#3C5AAA"/>
<path d="M1070 386C1070 388.2 1071.8 390 1074 390C1076.2 390 1078 388.2 1078 386C1078 383.8 1076.2 382 1074 382C1071.8 382 1070 383.8 1070 386Z" fill="#3C5AAA"/>
<path fill-rule="evenodd" clip-rule="evenodd" d="M288.001 180.801C281.815 180.801 276.801 185.815 276.801 192.001V248.001C276.801 254.186 281.815 259.201 288.001 259.201H328.001C334.186 259.201 339.201 254.186 339.201 248.001V206.001C339.201 205.152 338.864 204.338 338.264 203.738L316.264 181.738C315.663 181.138 314.85 180.801 314.001 180.801H288.001ZM283.201 192.001C283.201 189.35 285.35 187.201 288.001 187.201H310.801V204.001C310.801 206.873 313.129 209.201 316.001 209.201H332.801V248.001C332.801 250.652 330.652 252.801 328.001 252.801H288.001C285.35 252.801 283.201 250.652 283.201 248.001V192.001ZM328.275 202.801L317.201 191.726V202.801H328.275ZM293.738 230.264C292.488 229.014 292.488 226.988 293.738 225.738C294.988 224.488 297.014 224.488 298.264 225.738L304.801 232.275L304.801 212.001C304.801 210.233 306.233 208.801 308.001 208.801C309.768 208.801 311.201 210.233 311.201 212.001L311.201 232.275L317.738 225.738C318.988 224.488 321.014 224.488 322.264 225.738C323.513 226.988 323.513 229.014 322.264 230.264L310.264 242.264C309.014 243.513 306.988 243.513 305.738 242.264L293.738 230.264Z" fill="#333333"/>
<path fill-rule="evenodd" clip-rule="evenodd" d="M735.2 180H761.6V201.198C761.6 204.07 763.928 206.398 766.8 206.398H788V248.8C788 254.986 782.986 260 776.8 260H735.2C729.014 260 724 254.986 724 248.8V191.2C724 185.014 729.014 180 735.2 180ZM741.738 230.264C740.488 229.014 740.488 226.988 741.738 225.738C742.988 224.488 745.014 224.488 746.264 225.738L752.801 232.275L752.801 212.001C752.801 210.233 754.233 208.801 756.001 208.801C757.768 208.801 759.201 210.233 759.201 212.001L759.201 232.275L765.738 225.738C766.988 224.488 769.014 224.488 770.264 225.738C771.513 226.988 771.513 229.014 770.264 230.264L758.264 242.264C757.014 243.513 754.988 243.513 753.738 242.264L741.738 230.264Z" fill="#333333"/>
<path d="M786.69 197.161L770.839 181.31C769.533 180.005 767.301 180.929 767.301 182.776V196.699C767.301 198.908 769.092 200.699 771.301 200.699H785.224C787.071 200.699 787.995 198.467 786.69 197.161Z" fill="#333333"/>
<path opacity="0.48" d="M1184 180.801C1177.82 180.801 1172.8 185.815 1172.8 192.001V248.001C1172.8 254.186 1177.82 259.201 1184 259.201H1224C1230.19 259.201 1235.2 254.186 1235.2 248.001V204L1212 180.801H1184Z" fill="#3C5AAA"/>
<path d="M1235.2 204.001L1212 180.801V202.155C1212 203.174 1212.83 204.001 1213.85 204.001H1235.2Z" fill="#3C5AAA"/>
<path fill-rule="evenodd" clip-rule="evenodd" d="M1189.74 225.738C1188.49 226.988 1188.49 229.014 1189.74 230.264L1201.74 242.264C1202.99 243.513 1205.01 243.513 1206.26 242.264L1218.26 230.264C1219.51 229.014 1219.51 226.988 1218.26 225.738C1217.01 224.488 1214.99 224.488 1213.74 225.738L1207.2 232.275L1207.2 212.001C1207.2 210.233 1205.77 208.801 1204 208.801C1202.23 208.801 1200.8 210.233 1200.8 212.001L1200.8 232.275L1194.26 225.738C1193.01 224.488 1190.99 224.488 1189.74 225.738Z" fill="#3C5AAA"/>
<path fill-rule="evenodd" clip-rule="evenodd" d="M292.801 356.001C292.801 347.606 299.606 340.801 308.001 340.801C316.396 340.801 323.201 347.606 323.201 356.001V380.001C323.201 388.396 316.396 395.201 308.001 395.201C299.606 395.201 292.801 388.396 292.801 380.001V356.001ZM308.001 347.201C303.141 347.201 299.201 351.141 299.201 356.001V380.001C299.201 384.861 303.141 388.801 308.001 388.801C312.861 388.801 316.801 384.861 316.801 380.001V356.001C316.801 351.141 312.861 347.201 308.001 347.201Z" fill="#333333"/>
<path d="M284.001 372.801C285.768 372.801 287.201 374.233 287.201 376.001V380.001C287.201 391.488 296.513 400.801 308.001 400.801C319.488 400.801 328.801 391.488 328.801 380.001V376.001C328.801 374.233 330.233 372.801 332.001 372.801C333.768 372.801 335.201 374.233 335.201 376.001V380.001C335.201 393.94 324.715 405.431 311.201 407.015V416.001C311.201 417.768 309.768 419.201 308.001 419.201C306.233 419.201 304.801 417.768 304.801 416.001V407.015C291.287 405.431 280.801 393.94 280.801 380.001V376.001C280.801 374.233 282.233 372.801 284.001 372.801Z" fill="#333333"/>
<path fill-rule="evenodd" clip-rule="evenodd" d="M732.002 372.6C733.879 372.6 735.402 374.122 735.402 376V380C735.402 391.377 744.624 400.6 756.002 400.6C767.379 400.6 776.602 391.377 776.602 380V376C776.602 374.122 778.124 372.6 780.002 372.6C781.879 372.6 783.402 374.122 783.402 376V380C783.402 393.981 772.93 405.516 759.402 407.191V416C759.402 417.877 757.879 419.4 756.002 419.4C754.124 419.4 752.602 417.877 752.602 416V407.191C739.073 405.516 728.602 393.981 728.602 380V376C728.602 374.122 730.124 372.6 732.002 372.6Z" fill="#333333"/>
<path d="M756.002 340.6C747.496 340.6 740.602 347.494 740.602 356V380C740.602 388.505 747.496 395.4 756.002 395.4C764.507 395.4 771.402 388.505 771.402 380V356C771.402 347.494 764.507 340.6 756.002 340.6Z" fill="#333333"/>
<path opacity="0.48" fill-rule="evenodd" clip-rule="evenodd" d="M1180 372.6C1181.88 372.6 1183.4 374.122 1183.4 376V380C1183.4 391.377 1192.62 400.6 1204 400.6C1215.38 400.6 1224.6 391.377 1224.6 380V376C1224.6 374.122 1226.12 372.6 1228 372.6C1229.88 372.6 1231.4 374.122 1231.4 376V380C1231.4 393.981 1220.93 405.516 1207.4 407.191V416C1207.4 417.877 1205.88 419.4 1204 419.4C1202.12 419.4 1200.6 417.877 1200.6 416V407.191C1187.07 405.516 1176.6 393.981 1176.6 380V376C1176.6 374.122 1178.12 372.6 1180 372.6Z" fill="#3C5AAA"/>
<path d="M1204 340.6C1195.5 340.6 1188.6 347.494 1188.6 356V380C1188.6 388.505 1195.5 395.4 1204 395.4C1212.51 395.4 1219.4 388.505 1219.4 380V356C1219.4 347.494 1212.51 340.6 1204 340.6Z" fill="#3C5AAA"/>
<path fill-rule="evenodd" clip-rule="evenodd" d="M473.579 188.895C478.268 187.221 483.201 190.697 483.201 195.676V244.324C483.201 249.303 478.268 252.779 473.579 251.104L458.417 245.689L455.444 252.168C454.597 254.016 452.75 255.2 450.718 255.2H437.277C433.386 255.2 430.874 251.084 432.652 247.624L437.486 238.214L428.234 234.91C423.776 233.318 420.801 229.095 420.801 224.362V215.638C420.801 210.904 423.776 206.682 428.234 205.09L473.579 188.895ZM443.566 240.385L439.242 248.8H449.948L452.367 243.529L443.566 240.385ZM441.201 232.745L475.732 245.077C476.253 245.263 476.801 244.877 476.801 244.324V195.676C476.801 195.123 476.253 194.736 475.732 194.922L441.201 207.255V232.745ZM434.801 209.541L430.386 211.117C428.476 211.799 427.201 213.609 427.201 215.638V224.362C427.201 226.391 428.476 228.2 430.386 228.882L434.801 230.459V209.541Z" fill="#333333"/>
<path d="M921.579 188.896C926.268 187.222 931.201 190.698 931.201 195.677V244.325C931.201 249.303 926.27 252.781 921.58 251.106L906.415 245.69L906.413 245.693L885.481 238.219L885.484 238.214L876.232 234.91C871.774 233.318 868.801 229.096 868.801 224.363V215.639C868.801 210.905 871.776 206.683 876.234 205.091L921.579 188.896Z" fill="#333333"/>
<path d="M883.268 242.526L904.404 250.073L903.443 252.167C902.595 254.014 900.749 255.199 898.716 255.199H885.275C881.385 255.199 878.872 251.083 880.65 247.622L883.268 242.526Z" fill="#333333"/>
<path d="M1379.2 195.677C1379.2 190.698 1374.27 187.222 1369.58 188.896L1324.23 205.091C1319.78 206.683 1316.8 210.905 1316.8 215.639V224.363C1316.8 229.096 1319.77 233.318 1324.23 234.91L1369.58 251.106C1374.27 252.781 1379.2 249.303 1379.2 244.325V195.677Z" fill="#3C5AAA"/>
<path opacity="0.48" d="M1340.73 234.003C1338.27 233.126 1335.55 234.204 1334.35 236.524L1328.65 247.622C1326.87 251.083 1329.39 255.198 1333.28 255.198H1346.72C1348.75 255.198 1350.6 254.014 1351.44 252.167L1354.73 245.006C1356 242.234 1354.63 238.966 1351.75 237.94L1340.73 234.003Z" fill="#3C5AAA"/>
<path fill-rule="evenodd" clip-rule="evenodd" d="M444.096 411.946C445.356 411.706 446.515 411.092 447.423 410.185L484.41 373.198C490.033 367.574 490.033 358.457 484.41 352.833L478.896 347.319C473.272 341.696 464.155 341.696 458.531 347.319L421.544 384.306C420.637 385.213 420.023 386.372 419.783 387.633L415.817 408.426C415.419 410.509 416.079 412.652 417.578 414.151C419.077 415.65 421.22 416.309 423.302 415.912L444.096 411.946ZM457.188 357.713L426.07 388.832L422.103 409.626L442.897 405.659L474.016 374.541L457.188 357.713ZM461.714 353.188L478.541 370.015L479.884 368.672C483.008 365.548 483.008 360.483 479.884 357.359L474.37 351.845C471.246 348.721 466.181 348.721 463.057 351.845L461.714 353.188Z" fill="#333333"/>
<path d="M895.707 410.467C894.743 411.431 893.512 412.083 892.173 412.338L871.379 416.305C869.167 416.727 866.889 416.026 865.296 414.433C863.704 412.841 863.003 410.563 863.425 408.351L867.392 387.557C867.647 386.218 868.299 384.987 869.263 384.023L899.814 353.471L926.259 379.915L895.707 410.467Z" fill="#333333"/>
<path d="M931.915 374.259L932.694 373.48C938.474 367.7 938.474 358.33 932.694 352.55L927.18 347.036C921.4 341.256 912.03 341.256 906.25 347.036L905.471 347.814L931.915 374.259Z" fill="#333333"/>
<path d="M1343.7 410.46C1342.74 411.424 1341.51 412.076 1340.17 412.332L1319.37 416.298C1317.16 416.72 1314.89 416.019 1313.29 414.427C1311.7 412.834 1311 410.556 1311.42 408.344L1315.39 387.55C1315.64 386.211 1316.29 384.98 1317.26 384.016L1351.6 349.68L1378.05 376.124L1343.7 410.46Z" fill="#3C5AAA"/>
<path opacity="0.48" d="M1378.05 376.124L1380.7 373.48C1386.48 367.7 1386.48 358.33 1380.7 352.55L1375.19 347.036C1369.41 341.256 1360.04 341.256 1354.26 347.036L1351.61 349.68L1378.05 376.124Z" fill="#3C5AAA"/>
</svg>
