<svg width="48" height="48" viewBox="0 0 48 48" fill="none" xmlns="http://www.w3.org/2000/svg">
<path fill-rule="evenodd" clip-rule="evenodd" d="M12.6302 14.8939C12.0491 16.482 11.7317 18.2092 11.7317 19.9994V27.2665C11.7317 27.9299 11.4571 28.5637 10.9731 29.0174L8.74886 31.1026C7.02934 32.7147 8.17012 35.5994 10.5271 35.5994H18.3986V36C18.3986 39.0928 20.9058 41.6 23.9986 41.6C27.0914 41.6 29.5986 39.0928 29.5986 36V35.5994H33.3357L36.868 39.1318C37.4929 39.7566 38.5059 39.7566 39.1308 39.1318C39.7556 38.5069 39.7556 37.4939 39.1308 36.869L11.1308 8.86902C10.5059 8.24418 9.49288 8.24418 8.86804 8.86902C8.2432 9.49386 8.2432 10.5069 8.86804 11.1318L12.6302 14.8939ZM15.2 17.4638C15.0251 18.2703 14.9317 19.1188 14.9317 19.9994V27.2665C14.9317 28.8144 14.291 30.2932 13.1617 31.3519L12.0444 32.3994H30.1357L15.2 17.4638ZM21.5986 36V35.5994H26.3986V36C26.3986 37.3255 25.3241 38.4 23.9986 38.4C22.6732 38.4 21.5986 37.3255 21.5986 36Z" fill="#333333"/>
<path d="M33.065 27.0842V19.9994C33.065 14.0733 28.8338 9.59941 23.9983 9.59941C21.7888 9.59941 19.7055 10.5335 18.0943 12.1135L15.8289 9.84814C17.9736 7.71621 20.8152 6.39941 23.9983 6.39941C30.945 6.39941 36.265 12.6707 36.265 19.9994V28.9994H34.9802L33.065 27.0842Z" fill="#333333"/>
</svg>
