<svg width="48" height="48" viewBox="0 0 48 48" fill="none" xmlns="http://www.w3.org/2000/svg">
<path fill-rule="evenodd" clip-rule="evenodd" d="M38.6107 8.52223C39.2086 8.76988 39.5984 9.3533 39.5984 10.0004V40.0004C39.5984 40.8841 38.8821 41.6004 37.9984 41.6004H30.9984C30.1148 41.6004 29.3984 40.8841 29.3984 40.0004V17.0004C29.3984 16.5761 29.567 16.1691 29.8671 15.8691L36.8671 8.86907C37.3247 8.41147 38.0129 8.27458 38.6107 8.52223ZM32.5984 17.6632V38.4004H36.3984V13.8632L32.5984 17.6632Z" fill="#333333"/>
<path d="M26.5984 23.0004C26.5984 22.3533 26.2086 21.7699 25.6107 21.5222C25.0129 21.2746 24.3247 21.4115 23.8671 21.8691L18.8671 26.8691C18.567 27.1691 18.3984 27.5761 18.3984 28.0004V40.0004C18.3984 40.8841 19.1148 41.6004 19.9984 41.6004H24.9984C25.8821 41.6004 26.5984 40.8841 26.5984 40.0004V23.0004Z" fill="#333333"/>
<path d="M15.5985 34.0004C15.5985 33.3533 15.2087 32.7699 14.6108 32.5222C14.0129 32.2746 13.3247 32.4115 12.8671 32.8691L6.86711 38.8691C6.40952 39.3267 6.27263 40.0149 6.52028 40.6127C6.76793 41.2106 7.35134 41.6004 7.99848 41.6004H13.9985C14.8821 41.6004 15.5985 40.8841 15.5985 40.0004V34.0004Z" fill="#333333"/>
</svg>
