<svg width="48" height="48" viewBox="0 0 48 48" fill="none" xmlns="http://www.w3.org/2000/svg">
<path d="M17.1016 32.3945C18.4844 32.3945 19.6055 33.5156 19.6055 34.8984C19.6049 36.2809 18.4841 37.4023 17.1016 37.4023C15.719 37.4023 14.5982 36.2809 14.5977 34.8984C14.5977 33.5156 15.7187 32.3945 17.1016 32.3945Z" fill="#333333"/>
<path d="M24.5 32.4043C25.8798 32.4043 26.9997 33.5227 27 34.9023C27 36.2823 25.8799 37.4023 24.5 37.4023C23.1203 37.402 22.002 36.2821 22.002 34.9023C22.0022 33.5228 23.1205 32.4046 24.5 32.4043Z" fill="#333333"/>
<path d="M31.3965 25.3984C32.5007 25.3984 33.396 26.2924 33.3965 27.3965V35.4023C33.396 36.5065 32.5008 37.4023 31.3965 37.4023C30.2922 37.4023 29.3969 36.5065 29.3965 35.4023V27.3965C29.397 26.2924 30.2922 25.3984 31.3965 25.3984Z" fill="#333333"/>
<path d="M17.1016 25.3984C18.4844 25.3984 19.6055 26.5195 19.6055 27.9023C19.6049 29.2848 18.4841 30.4062 17.1016 30.4062C15.719 30.4062 14.5982 29.2848 14.5977 27.9023C14.5977 26.5195 15.7187 25.3984 17.1016 25.3984Z" fill="#333333"/>
<path d="M24.502 25.3984C25.8848 25.3984 27.0059 26.5195 27.0059 27.9023C27.0053 29.2848 25.8845 30.4062 24.502 30.4062C23.1194 30.4062 21.9986 29.2848 21.998 27.9023C21.998 26.5195 23.1191 25.3984 24.502 25.3984Z" fill="#333333"/>
<path fill-rule="evenodd" clip-rule="evenodd" d="M29.998 11.5918C31.8758 11.5918 33.3984 13.1144 33.3984 14.9922V18.9922C33.3984 20.87 31.8758 22.3926 29.998 22.3926H17.998C16.1203 22.3926 14.5977 20.87 14.5977 18.9922V14.9922C14.5977 13.1144 16.1203 11.5918 17.998 11.5918H29.998ZM17.998 14.3926C17.6667 14.3926 17.3984 14.6608 17.3984 14.9922V18.9922C17.3984 19.3236 17.6667 19.5918 17.998 19.5918H29.998C30.3294 19.5918 30.5977 19.3236 30.5977 18.9922V14.9922C30.5977 14.6608 30.3294 14.3926 29.998 14.3926H17.998Z" fill="#333333"/>
<path fill-rule="evenodd" clip-rule="evenodd" d="M34.998 4.40039C38.0908 4.40039 40.5977 6.90721 40.5977 10V38C40.5977 41.0928 38.0908 43.5996 34.998 43.5996H12.998C9.90525 43.5996 7.39844 41.0928 7.39844 38V10C7.39844 6.90721 9.90525 4.40039 12.998 4.40039H34.998ZM12.998 7.59961C11.6726 7.59961 10.5977 8.67452 10.5977 10V38C10.5977 39.3255 11.6726 40.4004 12.998 40.4004H34.998C36.3235 40.4004 37.3984 39.3255 37.3984 38V10C37.3984 8.67452 36.3235 7.59961 34.998 7.59961H12.998Z" fill="#333333"/>
</svg>
