<svg width="48" height="48" viewBox="0 0 48 48" fill="none" xmlns="http://www.w3.org/2000/svg">
<path fill-rule="evenodd" clip-rule="evenodd" d="M20.4457 7.6998C17.9481 7.6998 15.9234 9.72447 15.9234 12.222C15.9234 14.7196 17.9481 16.7442 20.4457 16.7442C22.9432 16.7442 24.9679 14.7196 24.9679 12.222C24.9679 9.72447 22.9432 7.6998 20.4457 7.6998ZM12.5234 12.222C12.5234 7.8467 16.0703 4.2998 20.4457 4.2998C24.821 4.2998 28.3679 7.8467 28.3679 12.222C28.3679 16.5973 24.821 20.1442 20.4457 20.1442C16.0703 20.1442 12.5234 16.5973 12.5234 12.222Z" fill="#333333"/>
<path fill-rule="evenodd" clip-rule="evenodd" d="M26.9949 23.0475C25.0216 22.4211 22.7873 22.0771 20.4457 22.0771C16.7684 22.0771 13.3555 22.9254 10.8029 24.3841C8.29845 25.8152 6.30129 28.0514 6.30129 30.8883L6.30104 31.0918C6.29775 32.8952 6.29313 35.4227 8.4732 37.2263C9.54449 38.1125 11.009 38.715 12.9089 39.1056C14.8154 39.4977 17.2752 39.6994 20.4457 39.6994C21.0935 39.6994 21.7116 39.691 22.3014 39.6742C21.789 38.6197 21.415 37.4855 21.2029 36.2952C20.9565 36.298 20.7042 36.2994 20.4457 36.2994C17.394 36.2994 15.1872 36.103 13.5937 35.7753C11.9936 35.4463 11.1248 35.0072 10.6405 34.6066C9.79278 33.9052 9.70129 33.0025 9.70129 30.8883C9.70129 29.7982 10.4901 28.4788 12.4898 27.3361C14.4413 26.221 17.2506 25.4771 20.4457 25.4771C21.6713 25.4771 22.8401 25.5866 23.9255 25.7844C24.7959 24.7183 25.8321 23.7929 26.9949 23.0475Z" fill="#333333"/>
<path fill-rule="evenodd" clip-rule="evenodd" d="M44 34C44 39.5228 39.5228 44 34 44C28.4772 44 24 39.5228 24 34C24 28.4772 28.4772 24 34 24C39.5228 24 44 28.4772 44 34ZM33.9998 27.5C34.8282 27.5 35.4998 28.1716 35.4998 29V32.4998H39C39.8284 32.4998 40.5 33.1713 40.5 33.9998C40.5 34.8282 39.8284 35.4998 39 35.4998H35.4998V39C35.4998 39.8284 34.8282 40.5 33.9998 40.5C33.1713 40.5 32.4998 39.8284 32.4998 39V35.4998H29C28.1716 35.4998 27.5 34.8282 27.5 33.9998C27.5 33.1713 28.1716 32.4998 29 32.4998H32.4998V29C32.4998 28.1716 33.1713 27.5 33.9998 27.5Z" fill="#333333"/>
</svg>
