<svg width="48" height="48" viewBox="0 0 48 48" fill="none" xmlns="http://www.w3.org/2000/svg">
<path d="M9.99844 6.40039C6.90564 6.40039 4.39844 8.9076 4.39844 12.0004V24.0004C4.39844 27.0932 6.90564 29.6004 9.99844 29.6004H15.9984C16.8821 29.6004 17.5984 28.884 17.5984 28.0004C17.5984 27.1167 16.8821 26.4004 15.9984 26.4004H9.99844C8.67295 26.4004 7.59844 25.3259 7.59844 24.0004V12.0004C7.59844 10.6749 8.67295 9.60039 9.99844 9.60039H37.9984C39.3239 9.60039 40.3984 10.6749 40.3984 12.0004V24.0004C40.3984 25.3259 39.3239 26.4004 37.9984 26.4004H31.9984C31.1148 26.4004 30.3984 27.1167 30.3984 28.0004C30.3984 28.884 31.1148 29.6004 31.9984 29.6004H37.9984C41.0912 29.6004 43.5984 27.0932 43.5984 24.0004V12.0004C43.5984 8.9076 41.0912 6.40039 37.9984 6.40039H9.99844Z" fill="#333333"/>
<path d="M32.1291 36.1317C32.7539 35.5068 32.7538 34.4938 32.129 33.869C31.5041 33.2442 30.491 33.2442 29.8662 33.8691L25.5984 38.1374V20.0004C25.5984 19.1167 24.8821 18.4004 23.9984 18.4004C23.1148 18.4004 22.3984 19.1167 22.3984 20.0004V38.1379L18.129 33.869C17.5041 33.2442 16.491 33.2442 15.8662 33.8691C15.2414 34.494 15.2415 35.507 15.8663 36.1318L22.8671 43.1318C23.1672 43.4319 23.5742 43.6004 23.9985 43.6004C24.4228 43.6004 24.8298 43.4318 25.1299 43.1317L32.1291 36.1317Z" fill="#333333"/>
</svg>
