<svg width="48" height="48" viewBox="0 0 48 48" fill="none" xmlns="http://www.w3.org/2000/svg">
<path d="M25.5978 13.7461H22.3986V9.6875C20.1165 9.94282 17.9203 10.743 15.9982 12.0273C13.6302 13.6096 11.7833 15.8591 10.6935 18.4902C9.60405 21.121 9.31975 24.0159 9.87511 26.8086C10.4307 29.6019 11.8027 32.1678 13.8165 34.1816C15.8303 36.1955 18.3963 37.5674 21.1896 38.123C23.9823 38.6784 26.8772 38.3941 29.5079 37.3047C32.1391 36.2148 34.3885 34.368 35.9708 32C37.2552 30.0778 38.0554 27.8817 38.3107 25.5996H34.2521V22.4004H41.5978V24C41.5978 27.4806 40.5665 30.8832 38.6329 33.7773C36.699 36.6716 33.9485 38.9277 30.7325 40.2598C27.5168 41.5916 23.9784 41.9408 20.5646 41.2617C17.1506 40.5826 14.0142 38.9067 11.5528 36.4453C9.09152 33.9839 7.41553 30.8476 6.73644 27.4336C6.0574 24.0198 6.40652 20.4814 7.7384 17.2656C9.07047 14.0497 11.3266 11.2991 14.2208 9.36523C17.1149 7.43175 20.5177 6.40044 23.9982 6.40039H25.5978V13.7461Z" fill="#333333"/>
<path d="M25.5978 22.4004H29.9435V25.5996H24.1974C23.2039 25.5991 22.399 24.7942 22.3986 23.8008V18.0547H25.5978V22.4004Z" fill="#333333"/>
</svg>
