<svg width="48" height="48" viewBox="0 0 48 48" fill="none" xmlns="http://www.w3.org/2000/svg">
<path d="M7.99844 11.4004C6.01021 11.4004 4.39844 13.0122 4.39844 15.0004V18.0004C4.39844 19.4363 5.5625 20.6004 6.99844 20.6004C8.32392 20.6004 9.39844 21.6749 9.39844 23.0004V25.0004C9.39844 26.3259 8.32392 27.4004 6.99844 27.4004C5.5625 27.4004 4.39844 28.5645 4.39844 30.0004V33.0004C4.39844 34.9886 6.01021 36.6004 7.99844 36.6004H21.998C21.822 35.7614 21.7295 34.8917 21.7295 34.0004C21.7295 33.7993 21.7342 33.5992 21.7435 33.4004H7.99844C7.77752 33.4004 7.59844 33.2213 7.59844 33.0004V30.5686C10.4091 30.2692 12.5984 27.8905 12.5984 25.0004V23.0004C12.5984 20.1103 10.4091 17.7315 7.59844 17.4322V15.0004C7.59844 14.7795 7.77752 14.6004 7.99844 14.6004H39.9984C40.2193 14.6004 40.3984 14.7795 40.3984 15.0004V23.1445C41.6101 23.8604 42.6914 24.7733 43.5984 25.8391V15.0004C43.5984 13.0122 41.9867 11.4004 39.9984 11.4004H7.99844Z" fill="#333333"/>
<path fill-rule="evenodd" clip-rule="evenodd" d="M43.998 34C43.998 39.5228 39.5209 44 33.998 44C28.4752 44 23.998 39.5228 23.998 34C23.998 28.4772 28.4752 24 33.998 24C39.5209 24 43.998 28.4772 43.998 34ZM30.5693 32.8682C29.9444 32.2434 28.9314 32.2434 28.3065 32.8682C27.6817 33.4931 27.6817 34.5061 28.3065 35.131L31.3065 38.131C31.6066 38.431 32.0135 38.5996 32.4379 38.5996C32.8622 38.5996 33.2692 38.431 33.5693 38.131L40.1298 31.5704C40.7546 30.9456 40.7546 29.9325 40.1298 29.3077C39.505 28.6829 38.4919 28.6829 37.8671 29.3077L32.4379 34.7369L30.5693 32.8682Z" fill="#333333"/>
</svg>
