<svg width="48" height="48" viewBox="0 0 48 48" fill="none" xmlns="http://www.w3.org/2000/svg">
<path fill-rule="evenodd" clip-rule="evenodd" d="M31.998 16.4004C28.3495 16.4004 25.303 18.9713 24.5684 22.4004H9.99805C9.11439 22.4004 8.39844 23.1163 8.39844 24C8.39844 24.8837 9.11439 25.5996 9.99805 25.5996H24.5684C25.303 29.0287 28.3495 31.5996 31.998 31.5996C36.1954 31.5996 39.5977 28.1974 39.5977 24C39.5977 19.8026 36.1954 16.4004 31.998 16.4004ZM31.998 19.5996C34.4281 19.5996 36.3984 21.5699 36.3984 24C36.3984 26.4301 34.4281 28.4004 31.998 28.4004C29.568 28.4004 27.5977 26.4301 27.5977 24C27.5977 21.5699 29.568 19.5996 31.998 19.5996Z" fill="#333333"/>
</svg>
