<svg width="48" height="48" viewBox="0 0 48 48" fill="none" xmlns="http://www.w3.org/2000/svg">
<path fill-rule="evenodd" clip-rule="evenodd" d="M29.7891 16.1426C30.3789 15.9162 31.0473 16.0572 31.4941 16.5039C31.9409 16.9507 32.0818 17.6191 31.8555 18.209L28.3203 27.4023C28.1579 27.8239 27.8238 28.1577 27.4023 28.3203L18.209 31.8574C17.6191 32.0838 16.9507 31.941 16.5039 31.4941C16.0572 31.0473 15.9143 30.3789 16.1406 29.7891L19.6777 20.5977L19.7461 20.4434C19.9246 20.0946 20.2265 19.82 20.5957 19.6777L29.7891 16.1426ZM25.4121 22.584C24.6312 21.804 23.3648 21.8038 22.584 22.584C21.8034 23.3648 21.8038 24.631 22.584 25.4121C23.365 26.1931 24.631 26.193 25.4121 25.4121C26.1926 24.631 26.193 23.3648 25.4121 22.584Z" fill="#333333"/>
<path fill-rule="evenodd" clip-rule="evenodd" d="M23.998 4.40039C34.8228 4.40039 43.5977 13.1752 43.5977 24C43.5977 29.2591 41.525 34.0377 38.1543 37.5566C38.0795 37.6348 37.9999 37.7083 37.9238 37.7852C37.902 37.8099 37.8811 37.8357 37.8574 37.8594C37.8308 37.886 37.8014 37.9092 37.7734 37.9336C34.2346 41.432 29.3697 43.5996 23.998 43.5996C13.1733 43.5996 4.39844 34.8248 4.39844 24C4.39844 13.1752 13.1733 4.40039 23.998 4.40039ZM25.5977 10C25.5977 10.8837 24.8817 11.5996 23.998 11.5996C23.1144 11.5996 22.3984 10.8837 22.3984 10V7.67773C19.0704 7.99992 16.0329 9.31549 13.5879 11.3262L15.2305 12.9688C15.8551 13.5936 15.8552 14.6076 15.2305 15.2324C14.6057 15.8572 13.5917 15.8571 12.9668 15.2324L11.3242 13.5898C9.31353 16.0349 7.99797 19.0723 7.67578 22.4004H9.99805C10.8817 22.4004 11.5977 23.1163 11.5977 24C11.5977 24.8837 10.8817 25.5996 9.99805 25.5996H7.67578C7.99796 28.9276 9.31558 31.9632 11.3262 34.4082L12.9688 32.7676C13.5936 32.1438 14.6059 32.1433 15.2305 32.7676C15.8553 33.3924 15.8553 34.4064 15.2305 35.0312L13.5879 36.6719C16.033 38.683 19.07 39.9981 22.3984 40.3203V38C22.3984 37.1163 23.1144 36.4004 23.998 36.4004C24.8817 36.4004 25.5977 37.1163 25.5977 38V40.3184C28.9259 39.9963 31.9586 38.6798 34.4043 36.668L32.7656 35.0312C32.141 34.4064 32.1409 33.3924 32.7656 32.7676C33.3904 32.1428 34.4044 32.1429 35.0293 32.7676L36.666 34.4062C38.6777 31.9605 39.9982 28.928 40.3203 25.5996H37.998C37.1144 25.5996 36.3984 24.8837 36.3984 24C36.3984 23.1163 37.1144 22.4004 37.998 22.4004H40.3203C39.998 19.0714 38.6795 16.0352 36.668 13.5898L35.0273 15.2324C34.4025 15.8564 33.3902 15.8569 32.7656 15.2324C32.1408 14.6076 32.1408 13.5936 32.7656 12.9688L34.4062 11.3262C31.9614 9.31602 28.9252 7.99987 25.5977 7.67773V10Z" fill="#333333"/>
</svg>
