<svg width="48" height="48" viewBox="0 0 48 48" fill="none" xmlns="http://www.w3.org/2000/svg">
<path d="M17.9984 22C17.1148 22 16.3984 22.7163 16.3984 23.6C16.3984 24.4837 17.1148 25.2 17.9984 25.2H29.9984C30.8821 25.2 31.5984 24.4837 31.5984 23.6C31.5984 22.7163 30.8821 22 29.9984 22H17.9984Z" fill="#333333"/>
<path d="M16.3984 30.4C16.3984 29.5163 17.1148 28.8 17.9984 28.8H22.998C23.8817 28.8 24.598 29.5163 24.598 30.4C24.598 31.2837 23.8817 32 22.998 32H17.9984C17.1148 32 16.3984 31.2837 16.3984 30.4Z" fill="#333333"/>
<path fill-rule="evenodd" clip-rule="evenodd" d="M13.9984 4.40039C10.9056 4.40039 8.39844 6.9076 8.39844 10.0004V38.0004C8.39844 41.0932 10.9056 43.6004 13.9984 43.6004H33.9984C37.0912 43.6004 39.5984 41.0932 39.5984 38.0004V17.0004C39.5984 16.576 39.4299 16.1691 39.1298 15.869L28.1298 4.86902C27.8298 4.56896 27.4228 4.40039 26.9984 4.40039H13.9984ZM11.5984 10.0004C11.5984 8.67491 12.673 7.60039 13.9984 7.60039H25.3984V16.0004C25.3984 17.4363 26.5625 18.6004 27.9984 18.6004H36.3984V38.0004C36.3984 39.3259 35.3239 40.4004 33.9984 40.4004H13.9984C12.673 40.4004 11.5984 39.3259 11.5984 38.0004V10.0004ZM34.1357 15.4004L28.5984 9.86313V15.4004H34.1357Z" fill="#333333"/>
</svg>
