<svg width="48" height="48" viewBox="0 0 48 48" fill="none" xmlns="http://www.w3.org/2000/svg">
<path fill-rule="evenodd" clip-rule="evenodd" d="M29.998 4.40039C30.4222 4.40039 30.8289 4.56933 31.1289 4.86914L41.1289 14.8691C41.4289 15.1691 41.5976 15.5758 41.5977 16V28L38.3984 26.9336V17.5996H30.998C29.5623 17.5994 28.3984 16.4358 28.3984 15V7.59961H19.998C18.6729 7.59982 17.5979 8.67483 17.5977 10V32C17.5977 33.3254 18.6727 34.4002 19.998 34.4004H24.4121L25.4785 37.5996H19.998C16.9054 37.5994 14.3984 35.0927 14.3984 32V13.5996H11.998C10.6729 13.5998 9.59787 14.6748 9.59766 16V38C9.59766 39.3254 10.6727 40.4002 11.998 40.4004H26.4121L27.2949 43.0508C27.3556 43.2328 27.4283 43.406 27.5039 43.5742C27.3373 43.5891 27.1685 43.5996 26.998 43.5996H11.998C8.90543 43.5994 6.39844 41.0927 6.39844 38V16C6.39865 12.9075 8.90556 10.4006 11.998 10.4004H14.3984V10C14.3986 6.90752 16.9056 4.4006 19.998 4.40039H29.998ZM31.5977 14.4004H36.1348L31.5977 9.86328V14.4004Z" fill="#333333"/>
<path d="M26.1876 29.6098C25.6665 28.0463 27.1539 26.5588 28.7174 27.08L41.1455 31.2226C42.8901 31.8042 42.9912 34.2339 41.3008 34.9583L36.9717 36.8136C36.4997 37.0159 36.1236 37.392 35.9213 37.8641L34.066 42.1932C33.3415 43.8835 30.9118 43.7825 30.3303 42.0378L26.1876 29.6098Z" fill="#333333"/>
</svg>
