<svg width="48" height="48" viewBox="0 0 48 48" fill="none" xmlns="http://www.w3.org/2000/svg">
<path fill-rule="evenodd" clip-rule="evenodd" d="M24.5937 11.4004H7.99844C7.11478 11.4004 6.39844 12.1167 6.39844 13.0004C6.39844 13.884 7.11478 14.6004 7.99844 14.6004H24.5937C25.3088 17.4724 27.9051 19.6004 30.9984 19.6004C34.0918 19.6004 36.688 17.4724 37.4032 14.6004H39.9984C40.8821 14.6004 41.5984 13.884 41.5984 13.0004C41.5984 12.1167 40.8821 11.4004 39.9984 11.4004H37.4032C36.688 8.52843 34.0918 6.40039 30.9984 6.40039C27.9051 6.40039 25.3088 8.52843 24.5937 11.4004ZM27.5984 13.0004C27.5984 11.1226 29.1207 9.60039 30.9984 9.60039C32.8762 9.60039 34.3984 11.1226 34.3984 13.0004C34.3984 14.8782 32.8762 16.4004 30.9984 16.4004C29.1207 16.4004 27.5984 14.8782 27.5984 13.0004Z" fill="#333333"/>
<path fill-rule="evenodd" clip-rule="evenodd" d="M10.5937 22.4004C11.3088 19.5284 13.9051 17.4004 16.9984 17.4004C20.0918 17.4004 22.688 19.5284 23.4032 22.4004H39.9984C40.8821 22.4004 41.5984 23.1167 41.5984 24.0004C41.5984 24.884 40.8821 25.6004 39.9984 25.6004H23.4032C22.688 28.4724 20.0918 30.6004 16.9984 30.6004C13.9051 30.6004 11.3088 28.4724 10.5937 25.6004H7.99844C7.11478 25.6004 6.39844 24.884 6.39844 24.0004C6.39844 23.1167 7.11478 22.4004 7.99844 22.4004H10.5937ZM16.9984 20.6004C15.1207 20.6004 13.5984 22.1226 13.5984 24.0004C13.5984 25.8782 15.1207 27.4004 16.9984 27.4004C18.8762 27.4004 20.3984 25.8782 20.3984 24.0004C20.3984 22.1226 18.8762 20.6004 16.9984 20.6004Z" fill="#333333"/>
<path fill-rule="evenodd" clip-rule="evenodd" d="M24.5937 33.4004C25.3088 30.5284 27.9051 28.4004 30.9984 28.4004C34.0918 28.4004 36.688 30.5284 37.4032 33.4004H39.9984C40.8821 33.4004 41.5984 34.1167 41.5984 35.0004C41.5984 35.884 40.8821 36.6004 39.9984 36.6004H37.4032C36.688 39.4724 34.0917 41.6004 30.9984 41.6004C27.9051 41.6004 25.3088 39.4724 24.5937 36.6004H7.99844C7.11478 36.6004 6.39844 35.884 6.39844 35.0004C6.39844 34.1167 7.11478 33.4004 7.99844 33.4004H24.5937ZM30.9984 31.6004C29.1207 31.6004 27.5984 33.1226 27.5984 35.0004C27.5984 36.8782 29.1207 38.4004 30.9984 38.4004C32.8762 38.4004 34.3984 36.8782 34.3984 35.0004C34.3984 33.1226 32.8762 31.6004 30.9984 31.6004Z" fill="#333333"/>
</svg>
