<svg width="48" height="48" viewBox="0 0 48 48" fill="none" xmlns="http://www.w3.org/2000/svg">
<path d="M17 19C18.1 19 19 19.9 19 21C19 22.1 18.1 23 17 23C15.9 23 15 22.1 15 21C15 19.9 15.9 19 17 19Z" fill="#333333"/>
<path d="M24 19C25.1 19 26 19.9 26 21C26 22.1 25.1 23 24 23C22.9 23 22 22.1 22 21C22 19.9 22.9 19 24 19Z" fill="#333333"/>
<path d="M31 19C32.1 19 33 19.9 33 21C33 22.1 32.1 23 31 23C29.9 23 29 22.1 29 21C29 19.9 29.9 19 31 19Z" fill="#333333"/>
<path fill-rule="evenodd" clip-rule="evenodd" d="M35.998 6.40039C39.0908 6.40039 41.5977 8.90721 41.5977 12V29C41.5977 32.0928 39.0908 34.5996 35.998 34.5996H24.6602L17.8359 41.4238C16.1981 43.0616 13.3986 41.9022 13.3984 39.5859V34.5996H11.998C8.90525 34.5996 6.39844 32.0928 6.39844 29V12C6.39844 8.90721 8.90525 6.40039 11.998 6.40039H35.998ZM11.998 9.59961C10.6726 9.59961 9.59766 10.6745 9.59766 12V29C9.59766 30.3255 10.6726 31.4004 11.998 31.4004H13.998C15.434 31.4004 16.5977 32.5641 16.5977 34V38.1387L22.5742 32.1621L22.7637 31.9883C23.2263 31.6091 23.8087 31.4004 24.4121 31.4004H35.998C37.3235 31.4004 38.3984 30.3255 38.3984 29V12C38.3984 10.6745 37.3235 9.59961 35.998 9.59961H11.998Z" fill="#333333"/>
</svg>
