<svg width="48" height="48" viewBox="0 0 48 48" fill="none" xmlns="http://www.w3.org/2000/svg">
<path d="M26.6497 14.5477C26.6497 13.4431 25.7543 12.5477 24.6497 12.5477H24.2283C23.845 12.5477 23.4697 12.6578 23.1473 12.865L19.8646 14.9739C19.5147 15.1987 19.3031 15.586 19.3031 16.0019C19.3031 16.967 20.3694 17.5511 21.1827 17.0316L23.366 15.6368C23.3787 15.6287 23.3935 15.6244 23.4086 15.6244C23.4523 15.6244 23.4878 15.6598 23.4878 15.7035V26.4212C23.4878 27.2944 24.1956 28.0022 25.0688 28.0022C25.9419 28.0022 26.6497 27.2944 26.6497 26.4212V14.5477Z" fill="#333333"/>
<path fill-rule="evenodd" clip-rule="evenodd" d="M25.5988 34.4998V38.4012H33.9988C34.8825 38.4012 35.5988 39.1175 35.5988 40.0012C35.5988 40.8848 34.8825 41.6012 33.9988 41.6012H13.9988C13.1152 41.6012 12.3988 40.8848 12.3988 40.0012C12.3988 39.1175 13.1152 38.4012 13.9988 38.4012H22.3988V34.4998C17.4048 33.8669 13.3225 30.3108 11.9206 25.6004H10.1984C8.58188 25.6004 7.34453 24.5718 6.5908 23.3941C5.82379 22.1957 5.39844 20.6371 5.39844 19.0004C5.39844 17.3637 5.82379 15.8051 6.5908 14.6067C7.34453 13.4289 8.58188 12.4004 10.1984 12.4004H11.3988V10.0004C11.3988 8.01216 13.0106 6.40039 14.9988 6.40039H32.9988C34.9871 6.40039 36.5988 8.01216 36.5988 10.0004V12.4004H37.7984C39.415 12.4004 40.6523 13.4289 41.4061 14.6067C42.1731 15.8051 42.5984 17.3637 42.5984 19.0004C42.5984 20.6371 42.1731 22.1957 41.4061 23.3941C40.6523 24.5718 39.415 25.6004 37.7984 25.6004H36.077C34.6751 30.3108 30.5928 33.8669 25.5988 34.4998ZM11.3988 22.0004C11.3988 22.1342 11.4009 22.2676 11.4051 22.4004H10.1984C10.055 22.4004 9.69234 22.304 9.28607 21.6692C8.89309 21.0551 8.59844 20.1137 8.59844 19.0004C8.59844 17.8871 8.89309 16.9457 9.28607 16.3316C9.69234 15.6968 10.055 15.6004 10.1984 15.6004H11.3988V22.0004ZM36.5926 22.4004H37.7984C37.9419 22.4004 38.3045 22.304 38.7108 21.6692C39.1038 21.0551 39.3984 20.1137 39.3984 19.0004C39.3984 17.8871 39.1038 16.9457 38.7108 16.3316C38.3045 15.6968 37.9419 15.6004 37.7984 15.6004H36.5988V22.0004C36.5988 22.1342 36.5967 22.2676 36.5926 22.4004ZM23.9988 31.4004C18.8074 31.4004 14.5988 27.1919 14.5988 22.0004V10.0004C14.5988 9.77947 14.7779 9.60039 14.9988 9.60039H32.9988C33.2197 9.60039 33.3988 9.77947 33.3988 10.0004V22.0004C33.3988 27.1919 29.1903 31.4004 23.9988 31.4004Z" fill="#333333"/>
</svg>
