<svg width="48" height="48" viewBox="0 0 48 48" fill="none" xmlns="http://www.w3.org/2000/svg">
<path d="M29.998 26C32.2072 26 33.998 27.7909 33.998 30C33.998 32.2091 32.2072 34 29.998 34C27.7889 34 25.998 32.2091 25.998 30C25.998 27.7909 27.7889 26 29.998 26Z" fill="#333333"/>
<path d="M17.998 14C20.2072 14 21.998 15.7909 21.998 18C21.998 20.2091 20.2072 22 17.998 22C15.7889 22 13.998 20.2091 13.998 18C13.998 15.7909 15.7889 14 17.998 14Z" fill="#333333"/>
<path fill-rule="evenodd" clip-rule="evenodd" d="M35.998 6.40039C39.0908 6.40039 41.5977 8.90721 41.5977 12V36C41.5977 39.0928 39.0908 41.5996 35.998 41.5996H11.998C8.90525 41.5996 6.39844 39.0928 6.39844 36V12C6.39844 8.90721 8.90525 6.40039 11.998 6.40039H35.998ZM11.998 9.59961C10.6726 9.59961 9.59766 10.6745 9.59766 12V36C9.59766 37.3255 10.6726 38.4004 11.998 38.4004H35.998C37.3235 38.4004 38.3984 37.3255 38.3984 36V12C38.3984 10.6745 37.3235 9.59961 35.998 9.59961H11.998Z" fill="#333333"/>
</svg>
