<svg width="48" height="48" viewBox="0 0 48 48" fill="none" xmlns="http://www.w3.org/2000/svg">
<path fill-rule="evenodd" clip-rule="evenodd" d="M23.9984 14.4004C20.9056 14.4004 18.3984 16.9076 18.3984 20.0004C18.3984 23.0932 20.9056 25.6004 23.9984 25.6004C27.0912 25.6004 29.5984 23.0932 29.5984 20.0004C29.5984 16.9076 27.0912 14.4004 23.9984 14.4004ZM21.5984 20.0004C21.5984 18.6749 22.673 17.6004 23.9984 17.6004C25.3239 17.6004 26.3984 18.6749 26.3984 20.0004C26.3984 21.3259 25.3239 22.4004 23.9984 22.4004C22.673 22.4004 21.5984 21.3259 21.5984 20.0004Z" fill="#333333"/>
<path fill-rule="evenodd" clip-rule="evenodd" d="M23.9984 6.40039C15.9351 6.40039 9.39844 12.937 9.39844 21.0004C9.39844 31.3156 17.219 38.627 21.7882 42.2991C23.0806 43.3378 24.9163 43.3378 26.2087 42.2991C30.7779 38.627 38.5984 31.3156 38.5984 21.0004C38.5984 12.937 32.0618 6.40039 23.9984 6.40039ZM12.5984 21.0004C12.5984 14.7043 17.7024 9.60039 23.9984 9.60039C30.2945 9.60039 35.3984 14.7043 35.3984 21.0004C35.3984 29.6935 28.7431 36.157 24.2041 39.8048C24.0825 39.9025 23.9144 39.9025 23.7928 39.8048C19.2538 36.157 12.5984 29.6935 12.5984 21.0004Z" fill="#333333"/>
</svg>
