<svg width="48" height="48" viewBox="0 0 48 48" fill="none" xmlns="http://www.w3.org/2000/svg">
<path d="M26.6493 22.5459C26.6493 21.4413 25.7539 20.5459 24.6493 20.5459H24.2279C23.8446 20.5459 23.4694 20.656 23.1469 20.8632L19.8642 22.9721C19.5143 23.1969 19.3027 23.5843 19.3027 24.0001C19.3027 24.9652 20.369 25.5494 21.1824 25.0298L23.3656 23.6351C23.3784 23.6269 23.3931 23.6226 23.4082 23.6226C23.452 23.6226 23.4874 23.658 23.4874 23.7017V34.4195C23.4874 35.2926 24.1952 36.0004 25.0684 36.0004C25.9415 36.0004 26.6493 35.2926 26.6493 34.4195V22.5459Z" fill="#333333"/>
<path fill-rule="evenodd" clip-rule="evenodd" d="M13.9984 4.40039C10.9056 4.40039 8.39844 6.9076 8.39844 10.0004V38.0004C8.39844 41.0932 10.9056 43.6004 13.9984 43.6004H33.9984C37.0912 43.6004 39.5984 41.0932 39.5984 38.0004V17.0004C39.5984 16.576 39.4299 16.1691 39.1298 15.869L28.1298 4.86902C27.8298 4.56896 27.4228 4.40039 26.9984 4.40039H13.9984ZM11.5984 10.0004C11.5984 8.67491 12.673 7.60039 13.9984 7.60039H25.3984V16.0004C25.3984 17.4363 26.5625 18.6004 27.9984 18.6004H36.3984V38.0004C36.3984 39.3259 35.3239 40.4004 33.9984 40.4004H13.9984C12.673 40.4004 11.5984 39.3259 11.5984 38.0004V10.0004ZM34.1357 15.4004L28.5984 9.86313V15.4004H34.1357Z" fill="#333333"/>
</svg>
