<svg width="48" height="48" viewBox="0 0 48 48" fill="none" xmlns="http://www.w3.org/2000/svg">
<path fill-rule="evenodd" clip-rule="evenodd" d="M29.9984 14.4004C26.9056 14.4004 24.3984 16.9076 24.3984 20.0004C24.3984 23.0932 26.9056 25.6004 29.9984 25.6004C33.0912 25.6004 35.5984 23.0932 35.5984 20.0004C35.5984 16.9076 33.0912 14.4004 29.9984 14.4004ZM27.5984 20.0004C27.5984 18.6749 28.673 17.6004 29.9984 17.6004C31.3239 17.6004 32.3984 18.6749 32.3984 20.0004C32.3984 21.3259 31.3239 22.4004 29.9984 22.4004C28.673 22.4004 27.5984 21.3259 27.5984 20.0004Z" fill="#333333"/>
<path fill-rule="evenodd" clip-rule="evenodd" d="M4.39844 14.0004C4.39844 10.9076 6.90564 8.40039 9.99844 8.40039H37.9984C41.0912 8.40039 43.5984 10.9076 43.5984 14.0004V34.0004C43.5984 37.0932 41.0912 39.6004 37.9984 39.6004H9.99844C6.90564 39.6004 4.39844 37.0932 4.39844 34.0004V14.0004ZM9.99844 11.6004C8.67295 11.6004 7.59844 12.6749 7.59844 14.0004V32.2795L15.0941 25.4085C17.3042 23.3825 20.7179 23.4567 22.8379 25.5767L33.6616 36.4004H37.9984C39.3239 36.4004 40.3984 35.3259 40.3984 34.0004V14.0004C40.3984 12.6749 39.3239 11.6004 37.9984 11.6004H9.99844ZM9.99844 36.4004C9.40986 36.4004 8.87078 36.1885 8.45328 35.8369L17.2564 27.7674C18.2036 26.8991 19.6666 26.9309 20.5752 27.8395L29.1361 36.4004H9.99844Z" fill="#333333"/>
</svg>
