<svg width="48" height="48" viewBox="0 0 48 48" fill="none" xmlns="http://www.w3.org/2000/svg">
<path d="M9.99844 12.4004C9.11478 12.4004 8.39844 13.1167 8.39844 14.0004C8.39844 14.884 9.11478 15.6004 9.99844 15.6004L37.9984 15.6004C38.8821 15.6004 39.5984 14.884 39.5984 14.0004C39.5984 13.1167 38.8821 12.4004 37.9984 12.4004H9.99844Z" fill="#333333"/>
<path d="M30.1317 23.6005C29.2527 22.9413 27.9984 23.5685 27.9984 24.6672V37.3338C27.9984 38.4326 29.2527 39.0598 30.1317 38.4005L38.5762 32.0672C39.2873 31.5339 39.2873 30.4672 38.5762 29.9339L30.1317 23.6005Z" fill="#333333"/>
<path d="M8.39844 24.0004C8.39844 23.1167 9.11478 22.4004 9.99844 22.4004H18.9984C19.8821 22.4004 20.5984 23.1167 20.5984 24.0004C20.5984 24.884 19.8821 25.6004 18.9984 25.6004H9.99844C9.11478 25.6004 8.39844 24.884 8.39844 24.0004Z" fill="#333333"/>
<path d="M9.99844 32.4004C9.11478 32.4004 8.39844 33.1167 8.39844 34.0004C8.39844 34.884 9.11478 35.6004 9.99844 35.6004H18.9984C19.8821 35.6004 20.5984 34.884 20.5984 34.0004C20.5984 33.1167 19.8821 32.4004 18.9984 32.4004H9.99844Z" fill="#333333"/>
</svg>
