<svg width="48" height="48" viewBox="0 0 48 48" fill="none" xmlns="http://www.w3.org/2000/svg">
<path d="M15.998 8.40039C16.8817 8.40039 17.5977 9.11634 17.5977 10C17.5977 10.8837 16.8817 11.5996 15.998 11.5996H13.9277L19.998 21.041L26.0684 11.5996H23.998C23.1144 11.5996 22.3984 10.8837 22.3984 10C22.3984 9.11634 23.1144 8.40039 23.998 8.40039H30.4883C29.9795 8.99558 29.5708 9.66281 29.2793 10.3984C28.9639 11.1946 28.7736 12.0409 28.7734 12.918C28.7734 13.0372 28.7793 13.1585 28.7891 13.2812L21.8984 24L29.8711 36.4004H31.998C32.8817 36.4004 33.5977 37.1163 33.5977 38C33.5977 38.8837 32.8817 39.5996 31.998 39.5996H23.998C23.1144 39.5996 22.3984 38.8837 22.3984 38C22.3984 37.1163 23.1144 36.4004 23.998 36.4004H26.0684L19.998 26.957L13.9277 36.4004H15.998C16.8817 36.4004 17.5977 37.1163 17.5977 38C17.5977 38.8837 16.8817 39.5996 15.998 39.5996H7.99805C7.11439 39.5996 6.39844 38.8837 6.39844 38C6.39844 37.1163 7.11439 36.4004 7.99805 36.4004H10.125L18.0957 24L10.125 11.5996H7.99805C7.11439 11.5996 6.39844 10.8837 6.39844 10C6.39844 9.11634 7.11439 8.40039 7.99805 8.40039H15.998Z" fill="#333333"/>
<path d="M36.582 8.40625C37.6423 8.40625 38.5464 8.5807 39.2949 8.92773C39.7799 9.15906 40.207 9.4761 40.5742 9.88086C40.9415 10.2858 41.2267 10.756 41.4277 11.291C41.6357 11.8189 41.7383 12.3701 41.7383 12.9414C41.7381 13.8378 41.5233 14.6552 41.0938 15.3926C40.6711 16.1227 40.2384 16.6979 39.7949 17.1172C38.1583 18.6381 36.1162 19.9301 34.9082 21.8457H40.3359C40.8762 21.8458 41.2882 21.9621 41.5723 22.1934C41.8563 22.4247 41.998 22.7392 41.998 23.1367C41.998 23.4908 41.8847 23.7913 41.6562 24.0371C41.4345 24.283 41.0942 24.4062 40.6367 24.4062H32.9844C32.465 24.4061 32.0605 24.2572 31.7695 23.9609C31.4784 23.6572 31.332 23.3034 31.332 22.8984C31.332 22.202 31.7696 21.3542 32.2266 20.8477C33.9511 18.9808 36.0543 17.4932 37.7266 15.6191C38.1073 15.1929 38.3939 14.7591 38.5879 14.3184C38.7888 13.8701 38.8906 13.4324 38.8906 13.0059C38.8906 12.5433 38.783 12.131 38.5684 11.7695C38.3604 11.4008 38.0724 11.1146 37.7051 10.9121C37.3447 10.7096 36.9492 10.6074 36.5195 10.6074C35.6119 10.6075 34.8986 11.0243 34.3789 11.8555C34.3096 11.9639 34.1917 12.2616 34.0254 12.7461C33.866 13.2303 33.6825 13.603 33.4746 13.8633C33.2737 14.1235 32.9749 14.2538 32.5801 14.2539C32.2335 14.2539 31.9455 14.1332 31.7168 13.8945C31.4882 13.6559 31.373 13.33 31.373 12.918C31.3732 12.4195 31.4808 11.8992 31.6953 11.3574C31.9102 10.815 32.2296 10.322 32.6523 9.88086C33.0819 9.44002 33.6224 9.08584 34.2734 8.81836C34.9318 8.54357 35.7019 8.40627 36.582 8.40625Z" fill="#333333"/>
</svg>
