<svg width="48" height="48" viewBox="0 0 48 48" fill="none" xmlns="http://www.w3.org/2000/svg">
<path fill-rule="evenodd" clip-rule="evenodd" d="M11.9984 7.5999C10.673 7.5999 9.59844 8.67442 9.59844 9.9999V37.9999C9.59844 39.3254 10.673 40.3999 11.9984 40.3999H35.9984C37.3239 40.3999 38.3984 39.3254 38.3984 37.9999V18.5999H29.9984C28.5625 18.5999 27.3984 17.4358 27.3984 15.9999V7.5999H11.9984ZM30.5984 9.86264L36.1357 15.3999H30.5984V9.86264ZM6.39844 9.9999C6.39844 6.90711 8.90564 4.3999 11.9984 4.3999H28.9984C29.4228 4.3999 29.8298 4.56847 30.1298 4.86853L41.1298 15.8685C41.4299 16.1686 41.5984 16.5756 41.5984 16.9999V37.9999C41.5984 41.0927 39.0912 43.5999 35.9984 43.5999H11.9984C8.90564 43.5999 6.39844 41.0927 6.39844 37.9999V9.9999Z" fill="#333333"/>
<path d="M36.7824 29.7679C36.7824 30.3759 36.681 30.8879 36.4784 31.3039C36.2864 31.7092 36.0304 32.0399 35.7104 32.2959C35.3904 32.5412 35.0277 32.7226 34.6224 32.8399C34.2277 32.9466 33.8277 32.9999 33.4224 32.9999H29.6624V21.6719H33.0544C33.4064 21.6719 33.7797 21.7092 34.1744 21.7839C34.569 21.8586 34.9264 22.0026 35.2464 22.2159C35.577 22.4186 35.849 22.7119 36.0624 23.0959C36.2864 23.4799 36.3984 23.9759 36.3984 24.5839C36.3984 25.2559 36.2597 25.7946 35.9824 26.1999C35.7157 26.5946 35.385 26.8826 34.9904 27.0639V27.0959C35.2037 27.1492 35.417 27.2452 35.6304 27.3839C35.8437 27.5226 36.0357 27.7039 36.2064 27.9279C36.377 28.1412 36.5157 28.4026 36.6224 28.7119C36.729 29.0212 36.7824 29.3732 36.7824 29.7679ZM34.1424 24.9999C34.1424 24.5626 34.0197 24.2532 33.7744 24.0719C33.529 23.8906 33.241 23.7999 32.9104 23.7999H32.0464V26.2479H32.9264C33.2357 26.2479 33.513 26.1519 33.7584 25.9599C34.0144 25.7679 34.1424 25.4479 34.1424 24.9999ZM34.3504 29.5279C34.3504 29.2719 34.3077 29.0586 34.2224 28.8879C34.1477 28.7066 34.041 28.5626 33.9024 28.4559C33.7744 28.3386 33.625 28.2532 33.4544 28.1999C33.2944 28.1466 33.1344 28.1199 32.9744 28.1199H32.0464V30.8719H33.0064C33.3797 30.8719 33.6944 30.7599 33.9504 30.5359C34.217 30.3119 34.3504 29.9759 34.3504 29.5279Z" fill="#333333"/>
<path d="M26.0651 32.9999H23.3451L21.9531 25.3999H21.9211L20.5451 32.9999H17.8251L15.6971 21.6719H18.3051L19.4731 29.5599H19.5371L20.7691 21.6719H23.2491L24.5291 29.5599H24.5771L25.7291 21.6719H28.2091L26.0651 32.9999Z" fill="#333333"/>
<path d="M11.6474 32.9999V21.6719H14.2234V32.9999H11.6474Z" fill="#333333"/>
<path fill-rule="evenodd" clip-rule="evenodd" d="M35.8321 32.4546C35.4914 32.7158 35.1061 32.9081 34.678 33.032L34.6746 33.033C34.263 33.1442 33.8455 33.1999 33.4224 33.1999H29.4624V21.4719H33.0544C33.4204 21.4719 33.8063 21.5107 34.2116 21.5874C34.6301 21.6666 35.0117 21.8197 35.3542 22.0474C35.7159 22.2699 36.0092 22.589 36.2362 22.9969C36.4827 23.4205 36.5984 23.9539 36.5984 24.5839C36.5984 25.2815 36.4546 25.8636 36.1478 26.3124C35.9457 26.6113 35.707 26.856 35.4316 27.0436C35.5351 27.0925 35.6377 27.1501 35.7394 27.2162C35.9733 27.3682 36.1813 27.5653 36.364 27.8048C36.5508 28.0388 36.699 28.3207 36.8114 28.6467C36.9267 28.9808 36.9824 29.3555 36.9824 29.7679C36.9824 30.3967 36.8778 30.9402 36.6587 31.3905C36.4549 31.8202 36.1809 32.1756 35.8353 32.4521L35.8321 32.4546ZM36.4784 31.3039C36.681 30.8879 36.7824 30.3759 36.7824 29.7679C36.7824 29.3732 36.729 29.0212 36.6224 28.7119C36.5157 28.4026 36.377 28.1412 36.2064 27.9279C36.0357 27.7039 35.8437 27.5226 35.6304 27.3839C35.4946 27.2956 35.3588 27.2247 35.223 27.171M34.9994 27.0597C35.07 27.0269 35.1384 26.9907 35.2049 26.9511C35.5063 26.7712 35.7655 26.5208 35.9824 26.1999C36.2597 25.7946 36.3984 25.2559 36.3984 24.5839C36.3984 23.9759 36.2864 23.4799 36.0624 23.0959C35.849 22.7119 35.577 22.4186 35.2464 22.2159C34.9264 22.0026 34.569 21.8586 34.1744 21.7839C33.7797 21.7092 33.4064 21.6719 33.0544 21.6719H29.6624V32.9999H33.4224C33.8277 32.9999 34.2277 32.9466 34.6224 32.8399C35.0277 32.7226 35.3904 32.5412 35.7104 32.2959C36.0304 32.0399 36.2864 31.7092 36.4784 31.3039M34.9994 27.0597C34.9964 27.0611 34.9934 27.0625 34.9904 27.0639V27.0959C34.9959 27.0973 35.0015 27.0987 35.007 27.1002M33.6384 25.7999C33.8259 25.6593 33.9424 25.4118 33.9424 24.9999C33.9424 24.5969 33.8302 24.3619 33.6555 24.2327C33.4475 24.079 33.202 23.9999 32.9104 23.9999H32.2464V26.0479H32.9264C33.1907 26.0479 33.4247 25.9671 33.6351 25.8024L33.6384 25.7999ZM32.0464 26.2479V23.7999H32.9104C33.241 23.7999 33.529 23.8906 33.7744 24.0719C34.0197 24.2532 34.1424 24.5626 34.1424 24.9999C34.1424 25.4479 34.0144 25.7679 33.7584 25.9599C33.513 26.1519 33.2357 26.2479 32.9264 26.2479H32.0464ZM34.0374 28.9641C33.9745 28.8112 33.888 28.6971 33.7804 28.6144L33.7667 28.6039C33.661 28.507 33.5382 28.4356 33.3947 28.3908L33.3911 28.3897C33.2504 28.3428 33.1117 28.3199 32.9744 28.3199H32.2464V30.6719H33.0064C33.3364 30.6719 33.6028 30.5743 33.8187 30.3854L33.8217 30.3827C34.0308 30.2071 34.1504 29.935 34.1504 29.5279C34.1504 29.2928 34.111 29.1124 34.0435 28.9773L34.0374 28.9641ZM32.0464 30.8719V28.1199H32.9744C33.1344 28.1199 33.2944 28.1466 33.4544 28.1999C33.625 28.2532 33.7744 28.3386 33.9024 28.4559C34.041 28.5626 34.1477 28.7066 34.2224 28.8879C34.3077 29.0586 34.3504 29.2719 34.3504 29.5279C34.3504 29.9759 34.217 30.3119 33.9504 30.5359C33.6944 30.7599 33.3797 30.8719 33.0064 30.8719H32.0464Z" fill="#333333"/>
<path fill-rule="evenodd" clip-rule="evenodd" d="M26.2308 33.1999H23.1784L21.9382 26.4284L20.7122 33.1999H17.6592L15.4561 21.4719H18.4777L19.5095 28.4404L20.5979 21.4719H23.4193L24.544 28.4029L25.5562 21.4719H28.4505L26.2308 33.1999ZM24.5771 29.5599H24.5291L23.2491 21.6719H20.7691L19.5371 29.5599H19.4731L18.3051 21.6719H15.6971L17.8251 32.9999H20.5451L21.9211 25.3999H21.9531L23.3451 32.9999H26.0651L28.2091 21.6719H25.7291L24.5771 29.5599Z" fill="#333333"/>
<path fill-rule="evenodd" clip-rule="evenodd" d="M11.4474 33.1999V21.4719H14.4234V33.1999H11.4474ZM11.6474 32.9999H14.2234V21.6719H11.6474V32.9999Z" fill="#333333"/>
</svg>
