<svg width="48" height="48" viewBox="0 0 48 48" fill="none" xmlns="http://www.w3.org/2000/svg">
<path d="M8.86705 26.869C9.4919 26.2442 10.5039 26.2442 11.1288 26.869L11.5057 27.246C11.747 27.4872 12.0957 27.834 12.5194 28.2577C13.3675 29.1058 14.5217 30.2619 15.7499 31.4901L22.1288 37.869L22.2381 37.9901C22.7508 38.6185 22.7144 39.5449 22.1288 40.1307C21.5432 40.7163 20.6166 40.7539 19.9881 40.2421L19.8671 40.1307L13.4881 33.7518C12.26 32.5237 11.1038 31.3695 10.2557 30.5214C9.83204 30.0977 9.48526 29.749 9.24401 29.5077C9.12353 29.3872 9.02868 29.2924 8.96471 29.2284C8.93295 29.1966 8.90693 29.1726 8.89049 29.1561C8.88266 29.1483 8.87698 29.1407 8.87291 29.1366L8.86705 29.1307C8.24224 28.5059 8.24223 27.4938 8.86705 26.869Z" fill="#333333"/>
<path d="M9.86705 11.869C10.4919 11.2442 11.5039 11.2442 12.1288 11.869L36.1288 35.869L36.2381 35.9901C36.7508 36.6185 36.7146 37.5449 36.1288 38.1307C35.5429 38.7166 34.6166 38.7528 33.9881 38.2401L33.8671 38.1307L9.86705 14.1307C9.24221 13.5059 9.24221 12.4939 9.86705 11.869Z" fill="#333333"/>
</svg>
