<svg width="48" height="48" viewBox="0 0 48 48" fill="none" xmlns="http://www.w3.org/2000/svg">
<path d="M37.3984 24C37.3984 23.0775 36.8765 22.2787 36.1133 21.877C34.8798 29.7034 28.7 35.8813 20.873 37.1133C21.2744 37.8778 22.0747 38.4004 22.998 38.4004H34.998C36.3235 38.4004 37.3984 37.3255 37.3984 36V24ZM40.5977 36C40.5977 39.0928 38.0908 41.5996 34.998 41.5996H22.998C19.9053 41.5996 17.3984 39.0928 17.3984 36V34.2012L18.9043 34.1133L19.6152 34.0547C26.9206 33.2803 32.6771 27.3073 33.1133 19.9062L33.2012 18.4004H34.998C38.0908 18.4004 40.5977 20.9072 40.5977 24V36Z" fill="#333333"/>
<path d="M27.3984 19C27.3984 13.8085 23.1895 9.59961 17.998 9.59961C12.8066 9.59961 8.59766 13.8085 8.59766 19C8.59766 24.1915 12.8066 28.4004 17.998 28.4004C23.1895 28.4004 27.3984 24.1915 27.3984 19ZM30.5977 19C30.5977 25.9588 24.9568 31.5996 17.998 31.5996C11.0393 31.5996 5.39844 25.9588 5.39844 19C5.39844 12.0412 11.0393 6.40039 17.998 6.40039C24.9568 6.40039 30.5977 12.0412 30.5977 19Z" fill="#333333"/>
</svg>
