<svg width="48" height="48" viewBox="0 0 48 48" fill="none" xmlns="http://www.w3.org/2000/svg">
<path fill-rule="evenodd" clip-rule="evenodd" d="M36.8008 11.0317C36.8008 10.0939 35.8968 9.42129 34.9985 9.69077L21.7111 13.677C20.696 13.9815 20.0008 14.9159 20.0008 15.9758V34.9996C20.0008 35.0188 20.0004 35.0379 19.9998 35.057C19.9692 38.8967 16.847 42 13 42C9.13401 42 6 38.866 6 35C6 31.134 9.13401 28 13 28C14.4012 28 15.7063 28.4117 16.8008 29.1207V15.9758C16.8008 13.5028 18.4229 11.3225 20.7916 10.6119L34.079 6.62573C37.0304 5.7403 40.0008 7.95036 40.0008 11.0317V29.9996C40.0008 30.1109 39.9894 30.2195 39.9678 30.3244C39.9891 30.5467 40 30.7721 40 31C40 34.866 36.866 38 33 38C29.134 38 26 34.866 26 31C26 27.134 29.134 24 33 24C34.4012 24 35.7063 24.4117 36.8008 25.1207V11.0317ZM13 38.8C15.0987 38.8 16.8 37.0987 16.8 35C16.8 32.9013 15.0987 31.2 13 31.2C10.9013 31.2 9.2 32.9013 9.2 35C9.2 37.0987 10.9013 38.8 13 38.8ZM36.8 31C36.8 33.0987 35.0987 34.8 33 34.8C30.9013 34.8 29.2 33.0987 29.2 31C29.2 28.9013 30.9013 27.2 33 27.2C35.0987 27.2 36.8 28.9013 36.8 31Z" fill="#333333"/>
</svg>
