<svg width="48" height="48" viewBox="0 0 48 48" fill="none" xmlns="http://www.w3.org/2000/svg">
<path fill-rule="evenodd" clip-rule="evenodd" d="M12.3984 22.5693C8.96937 23.3041 6.39844 26.3521 6.39844 30.0006C6.39844 33.6491 8.96937 36.6971 12.3984 37.4319V40.0006C12.3984 40.8842 13.1148 41.6006 13.9984 41.6006C14.8821 41.6006 15.5984 40.8842 15.5984 40.0006V37.4319C19.0275 36.6971 21.5984 33.6491 21.5984 30.0006C21.5984 26.3521 19.0275 23.3041 15.5984 22.5693L15.5984 8.00059C15.5984 7.11693 14.8821 6.40059 13.9984 6.40059C13.1148 6.40059 12.3984 7.11693 12.3984 8.00059V22.5693ZM13.9984 34.4006C11.5684 34.4006 9.59844 32.4306 9.59844 30.0006C9.59844 27.5705 11.5684 25.6006 13.9984 25.6006C16.4285 25.6006 18.3984 27.5705 18.3984 30.0006C18.3984 32.4306 16.4285 34.4006 13.9984 34.4006Z" fill="#333333"/>
<path fill-rule="evenodd" clip-rule="evenodd" d="M32.3984 10.5693C28.9694 11.3041 26.3984 14.3521 26.3984 18.0006C26.3984 21.6491 28.9694 24.6971 32.3984 25.4319V40.0006C32.3984 40.8842 33.1148 41.6006 33.9984 41.6006C34.8821 41.6006 35.5984 40.8842 35.5984 40.0006V25.4319C39.0275 24.6971 41.5984 21.6491 41.5984 18.0006C41.5984 14.3521 39.0275 11.3041 35.5984 10.5693V8.00059C35.5984 7.11693 34.8821 6.40059 33.9984 6.40059C33.1148 6.40059 32.3984 7.11693 32.3984 8.00059V10.5693ZM33.9984 22.4006C31.5684 22.4006 29.5984 20.4306 29.5984 18.0006C29.5984 15.5705 31.5684 13.6006 33.9984 13.6006C36.4285 13.6006 38.3984 15.5705 38.3984 18.0006C38.3984 20.4306 36.4285 22.4006 33.9984 22.4006Z" fill="#333333"/>
</svg>
