<svg width="48" height="48" viewBox="0 0 48 48" fill="none" xmlns="http://www.w3.org/2000/svg">
<path d="M32.4016 14.0004C32.4016 13.1167 33.1179 12.4004 34.0016 12.4004C34.8852 12.4004 35.6016 13.1167 35.6016 14.0004V34.0004C35.6016 34.884 34.8852 35.6004 34.0016 35.6004C33.1179 35.6004 32.4016 34.884 32.4016 34.0004V14.0004Z" fill="#333333"/>
<path d="M17.1337 12.869C16.5089 12.2442 15.4958 12.2442 14.871 12.869C14.2461 13.4939 14.2461 14.5069 14.871 15.1318L23.7396 24.0004L14.871 32.869C14.2461 33.4939 14.2461 34.5069 14.871 35.1318C15.4958 35.7566 16.5089 35.7566 17.1337 35.1318L27.1337 25.1318C27.7586 24.5069 27.7586 23.4939 27.1337 22.869L17.1337 12.869Z" fill="#333333"/>
</svg>
