<svg width="48" height="48" viewBox="0 0 48 48" fill="none" xmlns="http://www.w3.org/2000/svg">
<path d="M10.0004 11.6004C8.67491 11.6004 7.60039 12.6749 7.60039 14.0004V34.0004C7.60039 35.3259 8.67491 36.4004 10.0004 36.4004H21.6287C21.8461 37.5278 22.2138 38.6017 22.7101 39.6004H10.0004C6.9076 39.6004 4.40039 37.0932 4.40039 34.0004V14.0004C4.40039 10.9076 6.9076 8.40039 10.0004 8.40039H17.3435C18.8287 8.40039 20.2531 8.99039 21.3033 10.0406L25.6631 14.4004H38.0004C41.0932 14.4004 43.6004 16.9076 43.6004 20.0004V25.8391C42.6934 24.7733 41.612 23.8604 40.4004 23.1445V20.0004C40.4004 18.6749 39.3259 17.6004 38.0004 17.6004H25.4146C24.725 17.6004 24.0637 17.3265 23.5761 16.8389L19.0406 12.3033C18.5905 11.8532 17.9801 11.6004 17.3435 11.6004H10.0004Z" fill="#333333"/>
<path fill-rule="evenodd" clip-rule="evenodd" d="M34 44C39.5228 44 44 39.5228 44 34C44 28.4772 39.5228 24 34 24C28.4772 24 24 28.4772 24 34C24 39.5228 28.4772 44 34 44ZM35.4998 29C35.4998 28.1716 34.8282 27.5 33.9998 27.5C33.1713 27.5 32.4998 28.1716 32.4998 29V32.4998H29C28.1716 32.4998 27.5 33.1713 27.5 33.9998C27.5 34.8282 28.1716 35.4998 29 35.4998H32.4998V39C32.4998 39.8284 33.1713 40.5 33.9998 40.5C34.8282 40.5 35.4998 39.8284 35.4998 39V35.4998H39C39.8284 35.4998 40.5 34.8282 40.5 33.9998C40.5 33.1713 39.8284 32.4998 39 32.4998H35.4998V29Z" fill="#333333"/>
</svg>
