<svg width="48" height="48" viewBox="0 0 48 48" fill="none" xmlns="http://www.w3.org/2000/svg">
<path d="M9.59844 24.0004C9.59844 16.0579 16.0849 9.60039 24.1098 9.60039C29.3151 9.60039 33.8777 12.3195 36.4382 16.4004H31.9984C31.1148 16.4004 30.3984 17.1167 30.3984 18.0004C30.3984 18.884 31.1148 19.6004 31.9984 19.6004H39.9984C40.8821 19.6004 41.5984 18.884 41.5984 18.0004V8.00039C41.5984 7.11674 40.8821 6.40039 39.9984 6.40039C39.1148 6.40039 38.3984 7.11674 38.3984 8.00039V13.5991C35.1745 9.23278 29.9738 6.40039 24.1098 6.40039C14.3386 6.40039 6.39844 14.2697 6.39844 24.0004C6.39844 33.731 14.3386 41.6004 24.1098 41.6004C32.8787 41.6004 40.1685 35.2658 41.5761 26.9336C41.7233 26.0623 41.1363 25.2366 40.265 25.0894C39.3936 24.9422 38.568 25.5292 38.4208 26.4005C37.2717 33.2028 31.3073 38.4004 24.1098 38.4004C16.0849 38.4004 9.59844 31.9428 9.59844 24.0004Z" fill="#333333"/>
</svg>
