<svg width="48" height="48" viewBox="0 0 48 48" fill="none" xmlns="http://www.w3.org/2000/svg">
<path fill-rule="evenodd" clip-rule="evenodd" d="M11.9984 7.5999C10.673 7.5999 9.59844 8.67442 9.59844 9.9999V37.9999C9.59844 39.3254 10.673 40.3999 11.9984 40.3999H35.9984C37.3239 40.3999 38.3984 39.3254 38.3984 37.9999V18.5999H29.9984C28.5625 18.5999 27.3984 17.4358 27.3984 15.9999V7.5999H11.9984ZM30.5984 9.86264L36.1357 15.3999H30.5984V9.86264ZM6.39844 9.9999C6.39844 6.90711 8.90564 4.3999 11.9984 4.3999H28.9984C29.4228 4.3999 29.8298 4.56847 30.1298 4.86853L41.1298 15.8685C41.4299 16.1686 41.5984 16.5756 41.5984 16.9999V37.9999C41.5984 41.0927 39.0912 43.5999 35.9984 43.5999H11.9984C8.90564 43.5999 6.39844 41.0927 6.39844 37.9999V9.9999Z" fill="#333333"/>
<path d="M36.9626 28.8949C36.9626 29.4349 36.8726 29.9099 36.6926 30.3199C36.5226 30.7299 36.2876 31.0799 35.9876 31.3699C35.6876 31.6499 35.3326 31.8599 34.9226 31.9999C34.5226 32.1499 34.0876 32.2249 33.6176 32.2249C32.7476 32.2249 32.0026 32.0049 31.3826 31.5649C30.7626 31.1149 30.3526 30.4349 30.1526 29.5249L32.2676 28.9849C32.3476 29.3349 32.4876 29.6199 32.6876 29.8399C32.8876 30.0599 33.1626 30.1699 33.5126 30.1699C33.7026 30.1699 33.8676 30.1299 34.0076 30.0499C34.1476 29.9699 34.2626 29.8649 34.3526 29.7349C34.4526 29.6049 34.5226 29.4599 34.5626 29.2999C34.6126 29.1299 34.6376 28.9599 34.6376 28.7899C34.6376 28.3299 34.5026 27.9899 34.2326 27.7699C33.9726 27.5499 33.6226 27.4399 33.1826 27.4399H32.6426V25.6699H33.2426C33.6426 25.6699 33.9476 25.5549 34.1576 25.3249C34.3776 25.0849 34.4876 24.7549 34.4876 24.3349C34.4876 24.0649 34.4076 23.8099 34.2476 23.5699C34.0976 23.3299 33.8526 23.2099 33.5126 23.2099C33.2226 23.2099 32.9976 23.3049 32.8376 23.4949C32.6776 23.6849 32.5576 23.9249 32.4776 24.2149L30.4226 23.7049C30.5426 23.2449 30.7126 22.8549 30.9326 22.5349C31.1626 22.2149 31.4176 21.9549 31.6976 21.7549C31.9876 21.5449 32.3026 21.3949 32.6426 21.3049C32.9826 21.2049 33.3276 21.1549 33.6776 21.1549C34.0676 21.1549 34.4426 21.2149 34.8026 21.3349C35.1726 21.4549 35.5026 21.6349 35.7926 21.8749C36.0826 22.1149 36.3126 22.4149 36.4826 22.7749C36.6626 23.1349 36.7526 23.5549 36.7526 24.0349C36.7526 24.6549 36.6176 25.1799 36.3476 25.6099C36.0876 26.0299 35.7376 26.3099 35.2976 26.4499V26.4949C35.8076 26.6349 36.2126 26.9249 36.5126 27.3649C36.8126 27.8049 36.9626 28.3149 36.9626 28.8949Z" fill="#333333"/>
<path d="M29.4257 24.7099C29.4257 25.2999 29.3357 25.8099 29.1557 26.2399C28.9757 26.6699 28.7357 27.0249 28.4357 27.3049C28.1357 27.5849 27.7957 27.7949 27.4157 27.9349C27.0357 28.0649 26.6507 28.1299 26.2607 28.1299H25.2257V31.9999H22.8707V21.3799H26.1707C26.5507 21.3799 26.9307 21.4349 27.3107 21.5449C27.7007 21.6549 28.0507 21.8399 28.3607 22.0999C28.6807 22.3499 28.9357 22.6899 29.1257 23.1199C29.3257 23.5499 29.4257 24.0799 29.4257 24.7099ZM27.1757 24.7549C27.1757 24.2749 27.0607 23.9299 26.8307 23.7199C26.6007 23.5099 26.3207 23.4049 25.9907 23.4049H25.2257V26.1799H25.9907C26.3207 26.1799 26.6007 26.0599 26.8307 25.8199C27.0607 25.5699 27.1757 25.2149 27.1757 24.7549Z" fill="#333333"/>
<path d="M18.6184 31.9999L18.7084 24.7099H18.6484L16.8634 31.9999H15.1684L13.4434 24.7099H13.3984L13.4734 31.9999H11.2984V21.3799H14.3284L16.0384 28.2199H16.0984L17.7634 21.3799H20.9734V31.9999H18.6184Z" fill="#333333"/>
<path fill-rule="evenodd" clip-rule="evenodd" d="M34.9897 32.1883C34.5659 32.3468 34.1078 32.425 33.6173 32.425C32.712 32.425 31.9251 32.1954 31.2665 31.7281L31.2648 31.7269C30.597 31.2422 30.1651 30.5149 29.9569 29.5679L29.9154 29.379L32.4165 28.7405L32.4623 28.9404C32.5362 29.2638 32.6628 29.5157 32.8353 29.7054C32.9906 29.8763 33.2077 29.97 33.5123 29.97C33.6737 29.97 33.8033 29.9362 33.9081 29.8763C34.0227 29.8108 34.1152 29.7261 34.1878 29.6211L34.1936 29.6129C34.2767 29.5048 34.3349 29.385 34.3683 29.2515L34.3702 29.2435C34.4151 29.091 34.4373 28.9401 34.4373 28.79C34.4373 28.3694 34.3154 28.0957 34.1059 27.925L34.1031 27.9227C33.8886 27.7412 33.5891 27.64 33.1823 27.64H32.4423V25.47H33.2423C33.6031 25.47 33.8476 25.3676 34.0096 25.1901C34.1869 24.9967 34.2873 24.7199 34.2873 24.335C34.2873 24.1072 34.2205 23.8904 34.0809 23.6809L34.0776 23.676C33.972 23.507 33.7995 23.41 33.5123 23.41C33.2703 23.41 33.1057 23.4867 32.9903 23.6238C32.8523 23.7876 32.744 24.0002 32.6701 24.2682L32.6183 24.456L30.1777 23.8503L30.2288 23.6545C30.3533 23.1769 30.5318 22.7645 30.7675 22.4217L30.7698 22.4182C31.0106 22.0832 31.2805 21.807 31.5805 21.5926C31.8892 21.3692 32.2255 21.2088 32.5885 21.1123C32.9457 21.0075 33.3088 20.955 33.6773 20.955C34.0879 20.955 34.484 21.0182 34.8647 21.145C35.2576 21.2725 35.6099 21.4644 35.9198 21.7209C36.2331 21.9802 36.4805 22.3035 36.6622 22.6876C36.8578 23.0797 36.9523 23.5307 36.9523 24.035C36.9523 24.684 36.8108 25.2476 36.517 25.7158C36.3187 26.036 36.0693 26.285 35.7699 26.4589C36.1343 26.6355 36.4378 26.9007 36.6775 27.2523C37.0022 27.7285 37.1623 28.2785 37.1623 28.895C37.1623 29.4563 37.0688 29.959 36.8762 30.3985C36.6965 30.8313 36.4467 31.204 36.1263 31.5138L36.1237 31.5162C35.8027 31.8159 35.4237 32.0397 34.9897 32.1883ZM30.4767 23.5124C30.5918 23.1351 30.744 22.8093 30.9326 22.5349C31.1626 22.2149 31.4176 21.9549 31.6976 21.7549C31.9876 21.5449 32.3026 21.3949 32.6426 21.3049C32.9826 21.2049 33.3276 21.1549 33.6776 21.1549C34.0676 21.1549 34.4426 21.2149 34.8026 21.3349C34.8244 21.342 34.8457 21.3493 34.8671 21.3568C35.211 21.4764 35.5197 21.649 35.7926 21.8749C36.0826 22.1149 36.3126 22.4149 36.4826 22.7749C36.6626 23.1349 36.7526 23.5549 36.7526 24.0349C36.7526 24.6549 36.6176 25.1799 36.3476 25.6099C36.1353 25.9528 35.8627 26.2025 35.5304 26.3588C35.4599 26.3919 35.3867 26.4209 35.3108 26.4456L35.2976 26.4499V26.4949L35.313 26.4993C35.39 26.521 35.4646 26.5462 35.5368 26.5748C35.9357 26.7328 36.2612 26.9962 36.5126 27.3649C36.8126 27.8049 36.9626 28.3149 36.9626 28.8949C36.9626 29.4349 36.8726 29.9099 36.6926 30.3199C36.5226 30.7299 36.2876 31.0799 35.9876 31.3699C35.7036 31.635 35.3699 31.8374 34.9873 31.977C34.9658 31.9849 34.9444 31.9924 34.9226 31.9999C34.5226 32.1499 34.0876 32.2249 33.6176 32.2249C32.7476 32.2249 32.0026 32.0049 31.3826 31.5649C30.7626 31.1149 30.3526 30.4349 30.1526 29.5249L32.2676 28.9849C32.2774 29.0277 32.2877 29.0696 32.2993 29.1104C32.3824 29.4037 32.512 29.6468 32.6876 29.8399C32.8876 30.0599 33.1626 30.1699 33.5126 30.1699C33.7026 30.1699 33.8676 30.1299 34.0076 30.0499C34.1476 29.9699 34.2626 29.8649 34.3526 29.7349C34.4526 29.6049 34.5226 29.4599 34.5626 29.2999C34.6126 29.1299 34.6376 28.9599 34.6376 28.7899C34.6376 28.3299 34.5026 27.9899 34.2326 27.7699C33.9726 27.5499 33.6226 27.4399 33.1826 27.4399H32.6426V25.6699H33.2426C33.6426 25.6699 33.9476 25.5549 34.1576 25.3249C34.3776 25.0849 34.4876 24.7549 34.4876 24.3349C34.4876 24.0649 34.4076 23.8099 34.2476 23.5699C34.0976 23.3299 33.8526 23.2099 33.5126 23.2099C33.2226 23.2099 32.9976 23.3049 32.8376 23.4949C32.6776 23.6849 32.5576 23.9249 32.4776 24.2149L30.4226 23.7049C30.4397 23.6393 30.4575 23.5752 30.4767 23.5124Z" fill="#333333"/>
<path fill-rule="evenodd" clip-rule="evenodd" d="M26.8307 23.7199C27.0607 23.9299 27.1757 24.2749 27.1757 24.7549C27.1757 25.2149 27.0607 25.5699 26.8307 25.8199C26.6007 26.0599 26.3207 26.1799 25.9907 26.1799H25.2257V23.4049H25.9907C26.3207 23.4049 26.6007 23.5099 26.8307 23.7199ZM25.4253 23.6046H25.9903C26.2737 23.6046 26.5046 23.6931 26.6955 23.8673C26.866 24.023 26.9753 24.3006 26.9753 24.7546C26.9753 25.1814 26.8692 25.481 26.6845 25.6827C26.4922 25.8827 26.2647 25.9796 25.9903 25.9796H25.4253V23.6046Z" fill="#333333"/>
<path fill-rule="evenodd" clip-rule="evenodd" d="M25.4253 28.3296V32.1996H22.6703V21.1796H26.1703C26.5697 21.1796 26.9682 21.2374 27.3653 21.3523C27.7811 21.4697 28.1553 21.6672 28.4862 21.9441C28.8342 22.2168 29.1069 22.5837 29.3075 23.037C29.5225 23.5003 29.6253 24.0604 29.6253 24.7096C29.6253 25.3193 29.5324 25.8568 29.3398 26.3168C29.1503 26.7694 28.8951 27.149 28.5718 27.4508C28.2526 27.7487 27.8898 27.9729 27.4845 28.1223L27.4801 28.1238C27.0798 28.2607 26.673 28.3296 26.2603 28.3296H25.4253ZM29.1557 26.2399C29.3357 25.8099 29.4257 25.2999 29.4257 24.7099C29.4257 24.1296 29.3405 23.6339 29.1708 23.2233C29.1563 23.1881 29.1415 23.1538 29.1257 23.1199C28.9357 22.6899 28.6807 22.3499 28.3607 22.0999C28.0507 21.8399 27.7007 21.6549 27.3107 21.5449C26.9307 21.4349 26.5507 21.3799 26.1707 21.3799H22.8707V31.9999H25.2257V28.1299L25.572 28.1296L26.2607 28.1299C26.6507 28.1299 27.0357 28.0649 27.4157 27.9349C27.7957 27.7949 28.1357 27.5849 28.4357 27.3049C28.7357 27.0249 28.9757 26.6699 29.1557 26.2399Z" fill="#333333"/>
<path fill-rule="evenodd" clip-rule="evenodd" d="M18.4156 32.1996L18.4897 26.1974L17.02 32.1996H15.0098L13.6144 26.3025L13.6751 32.1996H11.098V21.1796H14.4842L16.0659 27.5062L17.6059 21.1796H21.173V32.1996H18.4156ZM20.9734 31.9999H18.6184L18.7084 24.7099H18.6484L16.8634 31.9999H15.1684L13.4434 24.7099H13.3984L13.4734 31.9999H11.2984V21.3799H14.3284L16.0384 28.2199H16.0984L17.7634 21.3799H20.9734V31.9999Z" fill="#333333"/>
</svg>
