<svg width="48" height="48" viewBox="0 0 48 48" fill="none" xmlns="http://www.w3.org/2000/svg">
<path d="M8.99844 23.3996C8.11478 23.3996 7.39844 24.116 7.39844 24.9996C7.39844 25.8833 8.11478 26.5996 8.99844 26.5996L13.998 26.5996L13.998 38C13.998 38.5523 14.4458 39 14.998 39L18.998 39C19.5503 39 19.998 38.5523 19.998 38L19.998 26.5996L26.998 26.5996L26.998 32C26.998 32.5523 27.4458 33 27.998 33L31.998 33C32.5503 33 32.998 32.5523 32.998 32L32.998 26.5996L38.9984 26.5996C39.8821 26.5996 40.5984 25.8833 40.5984 24.9996C40.5984 24.116 39.8821 23.3996 38.9984 23.3996L32.998 23.3996L32.998 18C32.998 17.4477 32.5503 17 31.998 17L27.998 17C27.4458 17 26.998 17.4477 26.998 18L26.998 23.3996L19.998 23.3996L19.998 12C19.998 11.4477 19.5503 11 18.998 11L14.998 11C14.4458 11 13.998 11.4477 13.998 12L13.998 23.3996L8.99844 23.3996Z" fill="#333333"/>
</svg>
