<svg width="48" height="48" viewBox="0 0 48 48" fill="none" xmlns="http://www.w3.org/2000/svg">
<path fill-rule="evenodd" clip-rule="evenodd" d="M9.99844 10.4004C6.90564 10.4004 4.39844 12.9076 4.39844 16.0004V32.0004C4.39844 35.0932 6.90564 37.6004 9.99844 37.6004H37.9984C41.0912 37.6004 43.5984 35.0932 43.5984 32.0004V16.0004C43.5984 12.9076 41.0912 10.4004 37.9984 10.4004H9.99844ZM7.59844 16.0004C7.59844 14.6749 8.67295 13.6004 9.99844 13.6004H37.9984C39.3239 13.6004 40.3984 14.6749 40.3984 16.0004V17L7.59844 17V16.0004ZM7.59844 23V32.0004C7.59844 33.3259 8.67295 34.4004 9.99844 34.4004H37.9984C39.3239 34.4004 40.3984 33.3259 40.3984 32.0004V23L7.59844 23Z" fill="#333333"/>
</svg>
