<svg width="48" height="48" viewBox="0 0 48 48" fill="none" xmlns="http://www.w3.org/2000/svg">
<path d="M6 13C6 14.65 7.35 16 9 16C10.65 16 12 14.65 12 13C12 11.35 10.65 10 9 10C7.35 10 6 11.35 6 13Z" fill="#333333"/>
<path d="M6 24C6 25.65 7.35 27 9 27C10.65 27 12 25.65 12 24C12 22.35 10.65 21 9 21C7.35 21 6 22.35 6 24Z" fill="#333333"/>
<path d="M9 38C7.35 38 6 36.65 6 35C6 33.35 7.35 32 9 32C10.65 32 12 33.35 12 35C12 36.65 10.65 38 9 38Z" fill="#333333"/>
<path d="M17 11.2208C16.2279 11.2208 15.602 12.0174 15.602 13C15.602 13.9826 16.2279 14.7792 17 14.7792L38.0005 14.7792C38.7725 14.7792 39.3984 13.9826 39.3984 13C39.3984 12.0174 38.7725 11.2208 38.0005 11.2208L17 11.2208Z" fill="#333333"/>
<path d="M15.602 24C15.602 23.0174 16.2279 22.2208 17 22.2208H38.0005C38.7725 22.2208 39.3984 23.0174 39.3984 24C39.3984 24.9826 38.7725 25.7792 38.0005 25.7792H17C16.2279 25.7792 15.602 24.9826 15.602 24Z" fill="#333333"/>
<path d="M17 33.2208C16.2279 33.2208 15.602 34.0174 15.602 35C15.602 35.9826 16.2279 36.7792 17 36.7792L38.0005 36.7792C38.7725 36.7792 39.3984 35.9826 39.3984 35C39.3984 34.0174 38.7725 33.2208 38.0005 33.2208L17 33.2208Z" fill="#333333"/>
</svg>
