<svg width="48" height="48" viewBox="0 0 48 48" fill="none" xmlns="http://www.w3.org/2000/svg">
<path fill-rule="evenodd" clip-rule="evenodd" d="M13.9984 7.60039C12.673 7.60039 11.5984 8.67491 11.5984 10.0004V34.0004C11.5984 35.3259 12.673 36.4004 13.9984 36.4004H22.1193C21.8959 36.8849 21.7309 37.3974 21.6298 37.9271L21.3106 39.6004H13.9984C10.9056 39.6004 8.39844 37.0932 8.39844 34.0004V10.0004C8.39844 6.9076 10.9056 4.40039 13.9984 4.40039H25.9984C26.4228 4.40039 26.8298 4.56896 27.1298 4.86902L36.0187 13.7579C36.3188 14.058 36.4873 14.4649 36.4873 14.8893V21.9143C35.8729 22.2308 35.2963 22.6465 34.7814 23.1614L33.2873 24.6555V16.4893H26.8873C25.5128 16.4893 24.3984 15.375 24.3984 14.0004V7.60039H13.9984ZM27.5984 9.86313L31.0246 13.2893H27.5984V9.86313Z" fill="#333333"/>
<path d="M42.6193 31.0004L31.2839 42.3357C30.7169 42.9027 29.9926 43.2862 29.2049 43.4365L24.4446 44.3445C23.7511 44.4767 23.1426 43.8682 23.2749 43.1748L24.1829 38.4145C24.3332 37.6268 24.7167 36.9025 25.2837 36.3355L36.619 25.0001C38.2759 23.3432 40.9623 23.3432 42.6193 25.0001C44.2762 26.657 44.2762 29.3434 42.6193 31.0004Z" fill="#333333"/>
</svg>
