<svg width="48" height="48" viewBox="0 0 48 48" fill="none" xmlns="http://www.w3.org/2000/svg">
<path fill-rule="evenodd" clip-rule="evenodd" d="M8.12981 5.86902C7.50497 5.24418 6.49191 5.24418 5.86707 5.86902C5.24223 6.49386 5.24223 7.50692 5.86707 8.13176L7.90943 10.1741C6.97223 11.1753 6.39844 12.5208 6.39844 14.0004V28.0004C6.39844 31.0932 8.90564 33.6004 11.9984 33.6004H19.1846L18.5846 38.4H14.9971C14.1134 38.4 13.3971 39.1163 13.3971 40C13.3971 40.8836 14.1134 41.6 14.9971 41.6H32.9971C33.8807 41.6 34.5971 40.8836 34.5971 40C34.5971 39.1163 33.8807 38.4 32.9971 38.4H29.4095L28.8096 33.6004H31.3357L38.8671 41.1318C39.4919 41.7566 40.505 41.7566 41.1298 41.1318C41.7546 40.5069 41.7546 39.4939 41.1298 38.869L8.12981 5.86902ZM28.1357 30.4004L10.1751 12.4398C9.81559 12.8594 9.59844 13.4045 9.59844 14.0004V28.0004C9.59844 29.3259 10.673 30.4004 11.9984 30.4004H28.1357ZM21.8095 38.4L22.4095 33.6004H25.5847L26.1846 38.4H21.8095Z" fill="#333333"/>
<path d="M36.5882 30.3274C37.6285 30.0646 38.3984 29.1224 38.3984 28.0004V14.0004C38.3984 12.6749 37.3239 11.6004 35.9984 11.6004H17.8612L14.6612 8.40039H35.9984C39.0912 8.40039 41.5984 10.9076 41.5984 14.0004V28.0004C41.5984 29.9915 40.5593 31.7399 38.9937 32.7329L36.5882 30.3274Z" fill="#333333"/>
</svg>
