<svg width="48" height="48" viewBox="0 0 48 48" fill="none" xmlns="http://www.w3.org/2000/svg">
<path fill-rule="evenodd" clip-rule="evenodd" d="M27.998 8.40039C19.3824 8.40039 12.3984 15.3844 12.3984 24C12.3984 28.1859 14.0497 31.9905 16.7324 34.791C19.57 37.7527 23.5696 39.5996 27.998 39.5996C36.6137 39.5996 43.5977 32.6156 43.5977 24C43.5977 15.3844 36.6137 8.40039 27.998 8.40039ZM27.998 11.5996C34.8464 11.5996 40.3984 17.1517 40.3984 24C40.3984 30.8483 34.8464 36.4004 27.998 36.4004C24.4774 36.4004 21.3021 34.9344 19.043 32.5762C16.908 30.3475 15.5977 27.3285 15.5977 24C15.5977 17.1517 21.1497 11.5996 27.998 11.5996Z" fill="#333333"/>
<path d="M11.1895 13.9883C10.6001 13.3299 9.59007 13.274 8.93164 13.8633C6.15199 16.3512 4.39844 19.9721 4.39844 24C4.39876 27.6487 5.83745 30.9653 8.17578 33.4062C8.41789 33.659 8.67078 33.9032 8.93164 34.1367C9.59004 34.725 10.6004 34.6677 11.1895 34.0098C11.7787 33.3514 11.7227 32.3413 11.0645 31.752C10.8647 31.5731 10.6718 31.385 10.4863 31.1914C8.6961 29.3223 7.59798 26.7909 7.59766 24C7.59766 20.9201 8.93433 18.1527 11.0645 16.2461C11.7228 15.6568 11.7786 14.6467 11.1895 13.9883Z" fill="#333333"/>
</svg>
