<svg width="48" height="48" viewBox="0 0 48 48" fill="none" xmlns="http://www.w3.org/2000/svg">
<path d="M21.8612 7.60039C20.8198 7.60039 19.9631 8.42039 19.9175 9.46077L19.6254 16.1281L16.5568 13.0595L16.7206 9.32071C16.8411 6.56913 19.107 4.40039 21.8612 4.40039C24.5089 4.40039 26.7244 6.40964 26.9823 9.04473L27.7115 16.4961C27.8525 17.9364 29.0142 19.0635 30.458 19.1609L31.8152 19.2525C37.6776 19.6479 41.8118 25.1703 40.54 30.9067L40.0877 32.9464C39.876 33.9013 39.5668 34.8139 39.1721 35.6748L36.7045 33.2072C36.805 32.8961 36.8916 32.5781 36.9636 32.2537L37.4158 30.214C38.2637 26.3901 35.5077 22.7088 31.5999 22.4452L30.2427 22.3536C27.2378 22.151 24.8201 19.8052 24.5267 16.8078L23.7975 9.35642C23.7 8.36009 22.8623 7.60039 21.8612 7.60039Z" fill="#333333"/>
<path fill-rule="evenodd" clip-rule="evenodd" d="M16.2384 20.3264L5.46863 9.55657C4.84379 8.93173 4.84379 7.91866 5.46863 7.29382C6.09347 6.66899 7.10653 6.66899 7.73137 7.29382L41.9314 41.4938C42.5562 42.1187 42.5562 43.1317 41.9314 43.7566C41.3065 44.3814 40.2935 44.3814 39.6686 43.7566L35.9683 40.0562C33.5306 42.2753 30.2997 43.6004 26.8127 43.6004H23.2766C19.0336 43.6004 15.0338 41.6198 12.4619 38.2452L6.52918 30.4607C5.0152 28.4742 5.16085 25.684 6.87343 23.8659C8.77239 21.8499 11.9324 21.7158 13.9954 23.5635L16.0173 25.3744L16.2384 20.3264ZM33.7023 37.7902C31.8518 39.4268 29.4263 40.4004 26.8127 40.4004H23.2766C20.0321 40.4004 16.9737 38.8859 15.007 36.3055L9.07428 28.521C8.50931 27.7797 8.56366 26.7385 9.20275 26.06C9.91138 25.3077 11.0906 25.2577 11.8604 25.9472L15.2803 29.0101C16.7337 30.3119 19.0467 29.3386 19.1321 27.3893L19.3071 23.395L33.7023 37.7902Z" fill="#333333"/>
</svg>
