<svg width="48" height="48" viewBox="0 0 48 48" fill="none" xmlns="http://www.w3.org/2000/svg">
<path fill-rule="evenodd" clip-rule="evenodd" d="M4.39844 14.0004C4.39844 10.9076 6.90564 8.40039 9.99844 8.40039H17.3416C18.8268 8.40039 20.2512 8.99039 21.3014 10.0406L25.6612 14.4004H37.9984C41.0912 14.4004 43.5984 16.9076 43.5984 20.0004V34.0004C43.5984 37.0932 41.0912 39.6004 37.9984 39.6004H9.99844C6.90564 39.6004 4.39844 37.0932 4.39844 34.0004V14.0004ZM9.99844 11.6004C8.67295 11.6004 7.59844 12.6749 7.59844 14.0004V34.0004C7.59844 35.3259 8.67295 36.4004 9.99844 36.4004H37.9984C39.3239 36.4004 40.3984 35.3259 40.3984 34.0004V20.0004C40.3984 18.6749 39.3239 17.6004 37.9984 17.6004H25.4127C24.7231 17.6004 24.0618 17.3265 23.5742 16.8389L19.0386 12.3033C18.5886 11.8532 17.9781 11.6004 17.3416 11.6004H9.99844Z" fill="#333333"/>
</svg>
