<svg width="48" height="48" viewBox="0 0 48 48" fill="none" xmlns="http://www.w3.org/2000/svg">
<path d="M16.998 29C15.898 29 14.998 28.1 14.998 27C14.998 25.9 15.898 25 16.998 25C18.098 25 18.998 25.9 18.998 27C18.998 28.1 18.098 29 16.998 29Z" fill="#333333"/>
<path d="M14.998 33C14.998 34.1 15.898 35 16.998 35C18.098 35 18.998 34.1 18.998 33C18.998 31.9 18.098 31 16.998 31C15.898 31 14.998 31.9 14.998 33Z" fill="#333333"/>
<path d="M23.998 29C22.898 29 21.998 28.1 21.998 27C21.998 25.9 22.898 25 23.998 25C25.098 25 25.998 25.9 25.998 27C25.998 28.1 25.098 29 23.998 29Z" fill="#333333"/>
<path d="M28.998 27C28.998 28.1 29.898 29 30.998 29C32.098 29 32.998 28.1 32.998 27C32.998 25.9 32.098 25 30.998 25C29.898 25 28.998 25.9 28.998 27Z" fill="#333333"/>
<path fill-rule="evenodd" clip-rule="evenodd" d="M17.9984 6.40039C18.8821 6.40039 19.5984 7.11673 19.5984 8.00039V10.4004H28.3984V8.00039C28.3984 7.11673 29.1148 6.40039 29.9984 6.40039C30.8821 6.40039 31.5984 7.11673 31.5984 8.00039V10.4004H35.9984C39.0912 10.4004 41.5984 12.9076 41.5984 16.0004V36.0004C41.5984 39.0932 39.0912 41.6004 35.9984 41.6004H11.9984C8.90564 41.6004 6.39844 39.0932 6.39844 36.0004V16.0004C6.39844 12.9076 8.90564 10.4004 11.9984 10.4004H16.3984V8.00039C16.3984 7.11673 17.1148 6.40039 17.9984 6.40039ZM16.3984 13.6004H11.9984C10.673 13.6004 9.59844 14.6749 9.59844 16.0004V18.4004H38.3984V16.0004C38.3984 14.6749 37.3239 13.6004 35.9984 13.6004H31.5984V15.0004C31.5984 15.884 30.8821 16.6004 29.9984 16.6004C29.1148 16.6004 28.3984 15.884 28.3984 15.0004V13.6004H19.5984V15.0004C19.5984 15.884 18.8821 16.6004 17.9984 16.6004C17.1148 16.6004 16.3984 15.884 16.3984 15.0004V13.6004ZM38.3984 21.6004H9.59844V36.0004C9.59844 37.3259 10.673 38.4004 11.9984 38.4004H35.9984C37.3239 38.4004 38.3984 37.3259 38.3984 36.0004V21.6004Z" fill="#333333"/>
</svg>
