<svg width="48" height="48" viewBox="0 0 48 48" fill="none" xmlns="http://www.w3.org/2000/svg">
<path d="M13.9984 23.3996C13.1148 23.3996 12.3984 24.116 12.3984 24.9996C12.3984 25.8833 13.1148 26.5996 13.9984 26.5996L33.9984 26.5996C34.8821 26.5996 35.5984 25.8833 35.5984 24.9996C35.5984 24.116 34.8821 23.3996 33.9984 23.3996L13.9984 23.3996Z" fill="#333333"/>
<path fill-rule="evenodd" clip-rule="evenodd" d="M7.99844 16.4004C6.01021 16.4004 4.39844 18.0122 4.39844 20.0004V27.0004C4.39844 27.4739 4.60813 27.923 4.9711 28.227L11.4138 33.623C12.0618 34.1657 12.8801 34.4631 13.7253 34.4631H34.2715C35.1168 34.4631 35.9351 34.1657 36.583 33.623L43.0258 28.227C43.3887 27.923 43.5984 27.4739 43.5984 27.0004V20.0004C43.5984 18.0122 41.9867 16.4004 39.9984 16.4004H7.99844ZM7.59844 20.0004C7.59844 19.7795 7.77752 19.6004 7.99844 19.6004H39.9984C40.2193 19.6004 40.3984 19.7795 40.3984 20.0004V26.2534L34.5284 31.1698C34.4564 31.2301 34.3655 31.2631 34.2715 31.2631H13.7253C13.6314 31.2631 13.5405 31.2301 13.4685 31.1698L7.59844 26.2534V20.0004Z" fill="#333333"/>
</svg>
