<svg width="48" height="48" viewBox="0 0 48 48" fill="none" xmlns="http://www.w3.org/2000/svg">
<path d="M17.6476 16.1765C17.6476 14.4222 19.0698 13 20.8241 13C22.3084 13 23.5549 14.018 23.9035 15.394C23.9148 15.4386 23.9545 15.4706 24.0006 15.4706C24.0466 15.4706 24.0864 15.4386 24.0977 15.394C24.4463 14.018 25.6928 13 27.177 13C28.9314 13 30.3535 14.4222 30.3535 16.1765C30.3535 18.4939 29.7324 20.8114 24.9946 24.2941L24.4093 24.7098C24.1645 24.8836 23.8366 24.8836 23.5919 24.7098L23.0066 24.2941C18.2687 20.8114 17.6476 18.4939 17.6476 16.1765Z" fill="#333333"/>
<path fill-rule="evenodd" clip-rule="evenodd" d="M18.3996 36L18.3044 36V32.3397C18.3044 30.3963 16.7534 28.6891 15.1579 27.4609C12.0101 25.0377 10 21.3478 10 17.2148C10 9.91646 16.268 4 24 4C31.732 4 38 9.91646 38 17.2148C38 21.3478 35.9899 25.0377 32.8421 27.4609C31.2466 28.6891 29.7609 30.3963 29.7609 32.3397V36H29.5996V38C29.5996 41.0928 27.0924 43.6 23.9996 43.6C20.9068 43.6 18.3996 41.0928 18.3996 38V36ZM30.8901 24.9252C33.3188 23.0555 34.8 20.2721 34.8 17.2148C34.8 11.8553 30.1412 7.2 24 7.2C17.8588 7.2 13.2 11.8553 13.2 17.2148C13.2 20.2721 14.6812 23.0555 17.1099 24.9252C18.0557 25.6533 19.1022 26.6068 19.9347 27.7739C20.7679 28.9421 21.5044 30.4946 21.5044 32.3397V32.8H26.5609V32.3397C26.5609 28.8046 29.1515 26.2636 30.8901 24.9252ZM21.5996 36V38C21.5996 39.3255 22.6741 40.4 23.9996 40.4C25.3251 40.4 26.3996 39.3255 26.3996 38V36H21.5996Z" fill="#333333"/>
</svg>
