<svg width="48" height="48" viewBox="0 0 48 48" fill="none" xmlns="http://www.w3.org/2000/svg">
<path fill-rule="evenodd" clip-rule="evenodd" d="M11.7391 18.965C12.5198 18.5471 13.3912 18.3398 14.349 18.3398C15.3003 18.3398 16.1683 18.5472 16.9487 18.9649C17.7332 19.3815 18.355 19.9977 18.8134 20.8077C19.2753 21.6204 19.5007 22.6111 19.5007 23.77C19.5007 24.929 19.2751 25.9215 18.8133 26.7374C18.3548 27.5441 17.7325 28.1604 16.9484 28.5801C16.1681 28.9945 15.3002 29.2001 14.349 29.2001C13.3911 29.2001 12.5187 28.9923 11.738 28.5743C10.9577 28.1512 10.3374 27.5329 9.87914 26.7266C9.421 25.9109 9.19727 24.9223 9.19727 23.77C9.19727 22.6112 9.42103 21.6205 9.87946 20.8078C10.3378 19.998 10.9579 19.3817 11.7391 18.965ZM14.349 21.1461C13.9243 21.1461 13.58 21.2472 13.3047 21.4385C13.0321 21.6269 12.8172 21.9098 12.6664 22.3004C12.5186 22.6885 12.441 23.1764 12.441 23.77C12.441 24.3632 12.5185 24.8528 12.6664 25.2445C12.8169 25.6311 13.0313 25.9142 13.3045 26.1063C13.5798 26.2943 13.9242 26.3938 14.349 26.3938C14.7743 26.3938 15.1169 26.2941 15.3886 26.1062C15.665 25.9141 15.8796 25.6304 16.0267 25.2441C16.1778 24.8527 16.2569 24.3633 16.2569 23.77C16.2569 23.1765 16.177 22.6873 16.0262 22.2995C15.879 21.9098 15.6648 21.6277 15.3894 21.4393L15.3875 21.4379C15.1159 21.2472 14.7737 21.1461 14.349 21.1461Z" fill="#333333"/>
<path fill-rule="evenodd" clip-rule="evenodd" d="M30.3984 27.3993V19.5996C30.3984 19.0473 30.8462 18.5996 31.3984 18.5996H34.7933C35.549 18.5996 36.2102 18.7488 36.777 19.0471C37.3438 19.3453 37.7846 19.7646 38.0994 20.3049C38.4143 20.8451 38.5717 21.4765 38.5717 22.199C38.5717 22.9282 38.4093 23.5596 38.0845 24.0932C37.763 24.6268 37.3106 25.0378 36.7273 25.3262C36.1473 25.6145 35.4695 25.7587 34.6939 25.7587H33.1626V27.3993C33.1626 28.1626 32.5439 28.7814 31.7805 28.7814C31.0172 28.7814 30.3984 28.1626 30.3984 27.3993ZM34.1365 23.6106C34.4614 23.6106 34.7381 23.5543 34.9668 23.4416C35.1988 23.3256 35.3761 23.1615 35.4988 22.9494C35.6247 22.7373 35.6877 22.487 35.6877 22.1987C35.6877 21.907 35.6247 21.6584 35.4988 21.4529C35.3761 21.2441 35.1988 21.0851 34.9668 20.9757C34.7381 20.863 34.4614 20.8066 34.1365 20.8066H33.1621V23.6106H34.1365Z" fill="#333333"/>
<path d="M27.7338 20.8269H26.3975C26.0592 20.8269 25.785 21.1011 25.785 21.4394V27.4192C25.785 28.1715 25.1751 28.7814 24.4228 28.7814C23.6704 28.7814 23.0605 28.1715 23.0605 27.4192V21.4394C23.0605 21.1011 22.7863 20.8269 22.448 20.8269H21.1117C20.4966 20.8269 19.998 20.3283 19.998 19.7132C19.998 19.0982 20.4966 18.5996 21.1117 18.5996H27.7338C28.3489 18.5996 28.8475 19.0982 28.8475 19.7132C28.8475 20.3283 28.3489 20.8269 27.7338 20.8269Z" fill="#333333"/>
<path fill-rule="evenodd" clip-rule="evenodd" d="M9.99844 8.40039C6.90564 8.40039 4.39844 10.9076 4.39844 14.0004V32.0004C4.39844 35.0932 6.90564 37.6004 9.99844 37.6004H37.9984C41.0912 37.6004 43.5984 35.0932 43.5984 32.0004V14.0004C43.5984 10.9076 41.0912 8.40039 37.9984 8.40039H9.99844ZM7.59844 14.0004C7.59844 12.6749 8.67295 11.6004 9.99844 11.6004H37.9984C39.3239 11.6004 40.3984 12.6749 40.3984 14.0004V32.0004C40.3984 33.3259 39.3239 34.4004 37.9984 34.4004H9.99844C8.67295 34.4004 7.59844 33.3259 7.59844 32.0004V14.0004Z" fill="#333333"/>
</svg>
