<svg width="48" height="48" viewBox="0 0 48 48" fill="none" xmlns="http://www.w3.org/2000/svg">
<path d="M18.4688 26.8691C19.0936 26.2443 20.1056 26.2443 20.7305 26.8691C21.3553 27.494 21.3553 28.506 20.7305 29.1309L11.4609 38.4004H19.5996C20.4833 38.4004 21.1992 39.1163 21.1992 40C21.1992 40.8837 20.4833 41.5996 19.5996 41.5996H7.59961C6.71595 41.5996 6 40.8837 6 40V28C6 27.1163 6.71595 26.4004 7.59961 26.4004C8.48326 26.4004 9.19922 27.1163 9.19922 28V36.1387L18.4688 26.8691Z" fill="#333333"/>
<path d="M39.5996 6.40039C40.4833 6.40039 41.1992 7.11634 41.1992 8V20C41.1992 20.8837 40.4833 21.5996 39.5996 21.5996C38.716 21.5996 38 20.8837 38 20V11.8613L28.7305 21.1309C28.1056 21.7557 27.0936 21.7557 26.4688 21.1309C25.8439 20.506 25.8439 19.494 26.4688 18.8691L35.7383 9.59961H27.5996C26.716 9.59961 26 8.88365 26 8C26 7.11635 26.716 6.40039 27.5996 6.40039H39.5996Z" fill="#333333"/>
</svg>
