<svg width="48" height="48" viewBox="0 0 48 48" fill="none" xmlns="http://www.w3.org/2000/svg">
<path d="M19.9984 17.6004C20.8821 17.6004 21.5984 16.884 21.5984 16.0004C21.5984 15.1167 20.8821 14.4004 19.9984 14.4004H14.9984C9.69651 14.4004 5.39844 18.6985 5.39844 24.0004C5.39844 29.3023 9.6965 33.6004 14.9984 33.6004H19.9984C20.8821 33.6004 21.5984 32.884 21.5984 32.0004C21.5984 31.1167 20.8821 30.4004 19.9984 30.4004H14.9984C11.4638 30.4004 8.59844 27.535 8.59844 24.0004C8.59844 20.4658 11.4638 17.6004 14.9984 17.6004L19.9984 17.6004Z" fill="#333333"/>
<path d="M26.3982 16.0004C26.3982 16.884 27.1146 17.6004 27.9982 17.6004L32.9982 17.6004C36.5329 17.6004 39.3982 20.4658 39.3982 24.0004C39.3982 27.535 36.5329 30.4004 32.9982 30.4004H27.9982C27.1146 30.4004 26.3982 31.1167 26.3982 32.0004C26.3982 32.884 27.1146 33.6004 27.9982 33.6004H32.9982C38.3002 33.6004 42.5982 29.3023 42.5982 24.0004C42.5982 18.6985 38.3002 14.4004 32.9982 14.4004H27.9982C27.1146 14.4004 26.3982 15.1167 26.3982 16.0004Z" fill="#333333"/>
<path d="M32.5984 24.0011C32.5984 24.8847 31.8821 25.6011 30.9984 25.6011L17.2705 25.6011C16.3869 25.6011 15.6705 24.8847 15.6705 24.0011C15.6705 23.1174 16.3869 22.4011 17.2705 22.4011L30.9984 22.4011C31.8821 22.4011 32.5984 23.1174 32.5984 24.0011Z" fill="#333333"/>
</svg>
