<svg width="48" height="48" viewBox="0 0 48 48" fill="none" xmlns="http://www.w3.org/2000/svg">
<path d="M10.1298 7.86902C9.50497 7.24418 8.49191 7.24418 7.86707 7.86902C7.24223 8.49386 7.24223 9.50692 7.86707 10.1318L9.22084 11.4855C6.2264 14.7744 4.39844 19.1496 4.39844 23.9496C4.39844 29.207 6.5914 33.9549 10.1081 37.3237C10.7463 37.935 11.7591 37.9133 12.3704 37.2751C12.9816 36.637 12.9599 35.6242 12.3218 35.0129C9.40895 32.2226 7.59844 28.2989 7.59844 23.9496C7.59844 20.0326 9.06691 16.4608 11.4865 13.7512L14.2725 16.5372C12.4887 18.4913 11.3984 21.095 11.3984 23.9509C11.3984 27.0275 12.6637 29.8114 14.6981 31.8057C15.3291 32.4243 16.3421 32.4143 16.9607 31.7832C17.5793 31.1522 17.5692 30.1392 16.9382 29.5206C15.4924 28.1033 14.5984 26.133 14.5984 23.9509C14.5984 21.9778 15.3295 20.1777 16.5385 18.8032L18.7773 21.042C18.2815 21.915 17.9984 22.9246 17.9984 24.0004C17.9984 27.3141 20.6847 30.0004 23.9984 30.0004C25.0742 30.0004 26.0838 29.7173 26.9568 29.2215L37.8671 40.1318C38.4919 40.7566 39.505 40.7566 40.1298 40.1318C40.7546 39.5069 40.7546 38.4939 40.1298 37.869L10.1298 7.86902Z" fill="#333333"/>
<path d="M32.7847 26.5239L35.2164 28.9556C35.9847 27.4543 36.4188 25.7528 36.4188 23.9509C36.4188 20.8744 35.1535 18.0905 33.1191 16.0961C32.4881 15.4775 31.4751 15.4876 30.8565 16.1186C30.2379 16.7496 30.248 17.7626 30.879 18.3812C32.3248 19.7986 33.2188 21.7689 33.2188 23.9509C33.2188 24.8528 33.066 25.7185 32.7847 26.5239Z" fill="#333333"/>
<path d="M38.1707 31.9098L40.4872 34.2264C42.4518 31.2864 43.5984 27.7512 43.5984 23.9496C43.5984 18.6922 41.4055 13.9443 37.8887 10.5755C37.2506 9.96418 36.2378 9.98593 35.6265 10.624C35.0152 11.2622 35.037 12.275 35.6751 12.8863C38.5879 15.6766 40.3984 19.6003 40.3984 23.9496C40.3984 26.8654 39.5847 29.5899 38.1707 31.9098Z" fill="#333333"/>
<path d="M24.2671 18.0063L29.9925 23.7317C29.8559 20.6317 27.3671 18.1429 24.2671 18.0063Z" fill="#333333"/>
</svg>
