<svg width="48" height="48" viewBox="0 0 48 48" fill="none" xmlns="http://www.w3.org/2000/svg">
<path fill-rule="evenodd" clip-rule="evenodd" d="M29.7956 8.86853C30.4205 8.24369 31.4335 8.24369 32.0584 8.86853L39.1298 15.94C39.7546 16.5648 39.7546 17.5779 39.1298 18.2027L32.0584 25.2741C31.4335 25.899 30.4205 25.899 29.7956 25.2741C29.1708 24.6493 29.1708 23.6362 29.7956 23.0114L34.1357 18.6713H19.9984C16.4638 18.6713 13.5984 21.5367 13.5984 25.0713V25.9999C13.5984 29.5345 16.4638 32.3999 19.9984 32.3999H32.9984C33.8821 32.3999 34.5984 33.1162 34.5984 33.9999C34.5984 34.8836 33.8821 35.5999 32.9984 35.5999H19.9984C14.6965 35.5999 10.3984 31.3018 10.3984 25.9999V25.0713C10.3984 19.7694 14.6965 15.4713 19.9984 15.4713H34.1357L29.7956 11.1313C29.1708 10.5064 29.1708 9.49337 29.7956 8.86853Z" fill="#333333"/>
</svg>
