<svg width="48" height="48" viewBox="0 0 48 48" fill="none" xmlns="http://www.w3.org/2000/svg">
<path fill-rule="evenodd" clip-rule="evenodd" d="M18.3984 24.0184C18.3984 22.0856 20.4324 20.8285 22.1612 21.6929L28.9251 25.0748C30.8414 26.033 30.8415 28.7677 28.9251 29.7259L22.1612 33.1078C20.4325 33.9722 18.3984 32.7151 18.3984 30.7823V24.0184ZM21.5984 29.8115L26.4207 27.4004L21.5984 24.9892V29.8115Z" fill="#333333"/>
<path fill-rule="evenodd" clip-rule="evenodd" d="M4.39844 34.0004C4.39844 37.0932 6.90564 39.6004 9.99844 39.6004H37.9984C41.0912 39.6004 43.5984 37.0932 43.5984 34.0004V14.0004C43.5984 10.9076 41.0912 8.40039 37.9984 8.40039H9.99844C6.90564 8.40039 4.39844 10.9076 4.39844 14.0004V34.0004ZM9.99844 11.6004C8.67295 11.6004 7.59844 12.6749 7.59844 14.0004V16.4004H13.3765L18.6129 11.6004H9.99844ZM14.0351 19.6004C14.0109 19.6009 13.9868 19.6009 13.9627 19.6004H7.59844V34.0004C7.59844 35.3259 8.67295 36.4004 9.99844 36.4004H37.9984C39.3239 36.4004 40.3984 35.3259 40.3984 34.0004V19.6004H26.0351C26.0109 19.6009 25.9868 19.6009 25.9627 19.6004H14.0351ZM30.1122 16.4004H40.3984V14.0004C40.3984 12.6749 39.3239 11.6004 37.9984 11.6004H35.3485L30.1122 16.4004ZM30.6129 11.6004L25.3765 16.4004H18.1122L23.3485 11.6004H30.6129Z" fill="#333333"/>
</svg>
