<svg width="48" height="48" viewBox="0 0 48 48" fill="none" xmlns="http://www.w3.org/2000/svg">
<path fill-rule="evenodd" clip-rule="evenodd" d="M26.4966 14.1345C28.6836 11.9476 32.2293 11.9476 34.4162 14.1345C36.6032 16.3214 36.6032 19.8672 34.4162 22.0541C32.2293 24.241 28.6836 24.241 26.4966 22.0541C24.3097 19.8672 24.3097 16.3214 26.4966 14.1345ZM32.1535 16.3973C31.2162 15.46 29.6966 15.46 28.7594 16.3973C27.8221 17.3345 27.8221 18.8541 28.7594 19.7914C29.6966 20.7286 31.2162 20.7286 32.1535 19.7914C33.0907 18.8541 33.0907 17.3345 32.1535 16.3973Z" fill="#333333"/>
<path fill-rule="evenodd" clip-rule="evenodd" d="M10.7683 27.3591L5.10638 25.5227C4.59764 25.3576 4.20499 24.9494 4.05997 24.4346C3.91494 23.9198 4.03672 23.3666 4.38452 22.9603L9.44204 17.0518C9.79802 16.636 10.3419 16.4309 10.8838 16.5084L15.4498 17.1606L18.0058 13.4686C21.2931 8.72018 26.701 5.88672 32.4764 5.88672H39.0637C41.0519 5.88672 42.6637 7.4985 42.6637 9.48672V16.074C42.6637 21.8494 39.8302 27.2572 35.0818 30.5446L31.3885 33.1015L32.0408 37.6673C32.1273 38.2727 31.8611 38.8744 31.355 39.2177L25.2978 43.3264C24.8882 43.6042 24.3731 43.6768 23.9027 43.5231C23.4323 43.3694 23.0594 43.0067 22.8929 42.5407L21.1864 37.7651C20.0909 35.2438 19.1601 33.5605 18.0331 32.231L14.1308 36.1333C13.5059 36.7581 12.4929 36.7581 11.868 36.1333C11.2432 35.5084 11.2432 34.4954 11.868 33.8705L15.6593 30.0793C14.4305 29.206 12.8759 28.3566 10.7683 27.3591ZM20.3018 29.9622L22.1308 28.1333C22.7556 27.5084 22.7556 26.4954 22.1308 25.8705C21.5059 25.2457 20.4929 25.2457 19.868 25.8705L17.9484 27.7901C16.7608 26.8936 15.3848 26.0844 13.7411 25.2506L20.6368 15.2901C23.3265 11.405 27.7511 9.08672 32.4764 9.08672L39.0637 9.08672C39.2846 9.08672 39.4637 9.26581 39.4637 9.48672V16.074C39.4637 20.7993 37.1454 25.2239 33.2603 27.9136L23.343 34.7794C22.4223 32.8613 21.4831 31.3081 20.3018 29.9622ZM10.7275 23.9817L13.4133 20.1022L11.3014 19.8005L8.37541 23.2188L10.7275 23.9817ZM25.2111 39.5184L24.598 37.8026L28.447 35.1379L28.7316 37.1304L25.2111 39.5184Z" fill="#333333"/>
</svg>
