<svg width="48" height="48" viewBox="0 0 48 48" fill="none" xmlns="http://www.w3.org/2000/svg">
<path fill-rule="evenodd" clip-rule="evenodd" d="M30.999 12.4002C28.4585 12.4002 26.399 14.4597 26.399 17.0002C26.399 19.5407 28.4585 21.6002 30.999 21.6002C33.5395 21.6002 35.599 19.5407 35.599 17.0002C35.599 14.4597 33.5395 12.4002 30.999 12.4002ZM29.599 17.0002C29.599 16.227 30.2258 15.6002 30.999 15.6002C31.7722 15.6002 32.399 16.227 32.399 17.0002C32.399 17.7734 31.7722 18.4002 30.999 18.4002C30.2258 18.4002 29.599 17.7734 29.599 17.0002Z" fill="#333333"/>
<path fill-rule="evenodd" clip-rule="evenodd" d="M41.9773 9.46145C41.9773 7.56107 40.4367 6.02051 38.5364 6.02051L26.2546 6.02052C24.8538 6.02052 23.5103 6.577 22.5198 7.56754L7.33218 22.7551C5.26949 24.8178 5.26948 28.1621 7.33218 30.2248L17.7727 40.6654C19.8354 42.7281 23.1798 42.7281 25.2425 40.6653L40.4303 25.4771C41.4208 24.4866 41.9773 23.1431 41.9773 21.7423L41.9773 9.46145ZM38.5364 9.22051C38.6694 9.22051 38.7773 9.32838 38.7773 9.46145L38.7773 21.7423C38.7773 22.2945 38.558 22.824 38.1675 23.2144L22.9797 38.4026C22.1667 39.2157 20.8485 39.2157 20.0355 38.4026L9.59492 27.9621C8.7819 27.1491 8.7819 25.8309 9.59492 25.0179L24.7825 9.83029C25.1729 9.43986 25.7025 9.22052 26.2546 9.22052L38.5364 9.22051Z" fill="#333333"/>
</svg>
