<svg width="48" height="48" viewBox="0 0 48 48" fill="none" xmlns="http://www.w3.org/2000/svg">
<path fill-rule="evenodd" clip-rule="evenodd" d="M25.5436 4.49625C26.2136 4.73908 26.6423 5.39582 26.5949 6.10694L25.7087 19.4005H38.9984C39.6067 19.4005 40.1623 19.7454 40.4322 20.2904C40.7022 20.8354 40.6397 21.4864 40.2711 21.9702L24.2711 42.9702C23.8424 43.533 23.0949 43.7473 22.433 43.4973C21.7712 43.2472 21.3521 42.5922 21.4025 41.8865L22.2801 29.6005H8.99844C8.39664 29.6005 7.84574 29.2628 7.57266 28.7266C7.29958 28.1903 7.35051 27.5461 7.70447 27.0594L23.7045 5.05944C24.1237 4.48305 24.8735 4.25342 25.5436 4.49625ZM12.1405 26.4005H23.9984C24.4426 26.4005 24.8668 26.5851 25.1694 26.9102C25.4721 27.2352 25.626 27.6715 25.5944 28.1145L24.9765 36.7642L35.7679 22.6005H23.9984C23.5556 22.6005 23.1326 22.417 22.8301 22.0936C22.5275 21.7702 22.3725 21.3359 22.402 20.8941L23.0334 11.4227L12.1405 26.4005Z" fill="#333333"/>
</svg>
