<svg width="48" height="48" viewBox="0 0 48 48" fill="none" xmlns="http://www.w3.org/2000/svg">
<path d="M33.0512 26.2045C33.7163 25.6226 33.7836 24.6118 33.2018 23.9468C32.6199 23.2818 31.609 23.2144 30.944 23.7963L25.5976 28.4744V8.00039C25.5976 7.11674 24.8813 6.40039 23.9976 6.40039C23.114 6.40039 22.3976 7.11674 22.3976 8.00039L22.3976 28.4744L17.0512 23.7963C16.3862 23.2144 15.3754 23.2818 14.7935 23.9468C14.2116 24.6118 14.279 25.6226 14.944 26.2045L22.944 33.2045C23.5473 33.7323 24.448 33.7323 25.0512 33.2045L33.0512 26.2045Z" fill="#333333"/>
<path d="M9.59844 30.0004C9.59844 29.1167 8.88209 28.4004 7.99844 28.4004C7.11478 28.4004 6.39844 29.1167 6.39844 30.0004V38.0004C6.39844 41.0932 8.90564 43.6004 11.9984 43.6004H35.9984C39.0912 43.6004 41.5984 41.0932 41.5984 38.0004V30.0004C41.5984 29.1167 40.8821 28.4004 39.9984 28.4004C39.1148 28.4004 38.3984 29.1167 38.3984 30.0004V38.0004C38.3984 39.3259 37.3239 40.4004 35.9984 40.4004H11.9984C10.673 40.4004 9.59844 39.3259 9.59844 38.0004V30.0004Z" fill="#333333"/>
</svg>
