<svg width="48" height="48" viewBox="0 0 48 48" fill="none" xmlns="http://www.w3.org/2000/svg">
<path fill-rule="evenodd" clip-rule="evenodd" d="M6.40234 23.8148L6.40234 35.9998C6.40234 39.0926 8.90955 41.5998 12.0023 41.5998H36.0023C39.0951 41.5998 41.6023 39.0926 41.6023 35.9998V23.8148C41.6023 22.2 40.9053 20.6638 39.69 19.6004L27.69 9.10042C25.5786 7.25299 22.4261 7.25298 20.3147 9.10041L8.31472 19.6004C7.09943 20.6638 6.40234 22.2 6.40234 23.8148ZM9.60234 35.9998L9.60234 23.8148C9.60234 23.1228 9.9011 22.4644 10.4219 22.0087L22.4219 11.5087C23.3268 10.7169 24.6779 10.7169 25.5828 11.5087L37.5828 22.0087C38.1036 22.4644 38.4023 23.1228 38.4023 23.8148V35.9998C38.4023 37.3253 37.3278 38.3998 36.0023 38.3998H31.6023V31.9998C31.6023 27.8024 28.1997 24.3998 24.0023 24.3998C19.805 24.3998 16.4023 27.8024 16.4023 31.9998V38.3998H12.0023C10.6769 38.3998 9.60234 37.3253 9.60234 35.9998ZM19.6023 38.3998V31.9998C19.6023 29.5697 21.5723 27.5998 24.0023 27.5998C26.4324 27.5998 28.4023 29.5697 28.4023 31.9998V38.3998H19.6023Z" fill="#333333"/>
</svg>
