<svg width="48" height="48" viewBox="0 0 48 48" fill="none" xmlns="http://www.w3.org/2000/svg">
<path d="M11.4062 41.5936C11.6721 42.2579 11.3463 43.0117 10.6803 43.2732C10.0206 43.5322 9.2756 43.2103 9.01205 42.5524L8.48346 41.233C8.21708 40.5681 8.54355 39.8135 9.21056 39.5524C9.87024 39.2942 10.6147 39.6164 10.878 40.2741L11.4062 41.5936ZM15.3457 39.2598L15.6307 39.973C15.8833 40.6051 15.5761 41.3224 14.9443 41.5758C14.3117 41.8295 13.5933 41.5222 13.3399 40.8896L12.7697 39.4665C12.5162 38.8336 12.824 38.115 13.4571 37.8619C14.0893 37.6091 14.8069 37.9163 15.0604 38.5483L15.3457 39.2598ZM19.8306 38.2904C20.0838 38.9229 19.7765 39.6409 19.144 39.8943C18.5112 40.1479 17.7927 39.8403 17.5394 39.2073L16.9701 37.7844C16.717 37.1517 17.0248 36.4335 17.6576 36.1805C18.2901 35.9276 19.0079 36.2352 19.2611 36.8676L19.8306 38.2904ZM23.7461 35.8965L24.0307 36.6088C24.2835 37.2414 23.976 37.9592 23.3436 38.2126C22.7106 38.4662 21.9918 38.1584 21.7385 37.5253L21.1695 36.1032C20.9163 35.4702 21.2242 34.7518 21.8572 34.4987C22.4896 34.2459 23.2073 34.5531 23.4609 35.1853L23.7461 35.8965ZM28.2304 34.927C28.4839 35.5595 28.1767 36.2777 27.5442 36.5312C26.9115 36.7847 26.1931 36.4771 25.9399 35.8443L25.3702 34.4202C25.1172 33.7879 25.4247 33.0703 26.0569 32.8173C26.689 32.5643 27.4064 32.8714 27.6597 33.5033L28.2304 34.927ZM32.353 33.1899C32.665 33.8057 32.4201 34.5612 31.7852 34.832L31.7637 34.8418C31.1198 35.0996 30.389 34.7863 30.1316 34.1423L29.8555 33.4512L29.554 32.6995C29.3095 32.0898 29.6053 31.3972 30.2148 31.1523C30.7161 30.9386 31.3091 31.1304 31.5555 31.6165L32.353 33.1899ZM14.3938 30.6103C14.7728 30.0769 15.5133 29.9469 16.0556 30.313C16.5978 30.679 16.7755 31.4203 16.4407 31.9823L15.6888 33.2444C15.3084 33.8827 14.4888 34.0782 13.8723 33.6634C13.2559 33.2486 13.1126 32.4133 13.5429 31.8077L14.3938 30.6103ZM35.889 30.7778C36.3515 31.2985 36.3104 32.0966 35.7575 32.5203C35.2048 32.944 34.4156 32.7827 34.0319 32.2015L33.0607 30.7301C32.764 30.2805 32.8962 29.6743 33.3237 29.3465C33.7512 29.0189 34.3603 29.0569 34.718 29.4595L35.889 30.7778ZM11.2718 27.4645C11.7646 27.1001 12.4508 27.2012 12.858 27.6592C13.2652 28.1172 13.2958 28.8222 12.8753 29.2678L11.8962 30.3055C11.3408 30.894 10.4053 30.9224 9.86781 30.3177C9.33037 29.713 9.47452 28.7937 10.125 28.3126L11.2718 27.4645ZM38.6568 27.4941C39.2552 27.8684 39.4417 28.6591 39.0205 29.2255C38.5992 29.7918 37.7862 29.844 37.255 29.3793L35.9286 28.2191C35.5301 27.8705 35.4968 27.2625 35.8125 26.8375C36.1282 26.4125 36.7135 26.2784 37.1623 26.5592L38.6568 27.4941ZM9.35224 23.539C9.92894 23.3751 10.5237 23.7105 10.7454 24.2675C10.9671 24.8244 10.7661 25.4795 10.234 25.7555L8.96802 26.4122C8.23821 26.7907 7.33333 26.5112 7.02921 25.7474C6.72518 24.9838 7.18968 24.1538 7.98027 23.929L9.35224 23.539ZM40.3272 23.5213C41.0224 23.6918 41.4521 24.3995 41.2201 25.0766C40.9881 25.7537 40.2177 26.0439 39.5636 25.7535L37.9525 25.0383C37.4771 24.8273 37.2674 24.2717 37.436 23.7797C37.6047 23.2878 38.1106 22.9774 38.6156 23.1013L40.3272 23.5213ZM6 20.4004C6 19.5748 6.74384 18.9775 7.56499 19.0629L8.98235 19.2105C9.57568 19.2722 10 19.8039 10 20.4004C10 20.9969 9.57568 21.5286 8.98235 21.5903L7.56499 21.7378C6.74384 21.8233 6 21.226 6 20.4004ZM38 20.4004C38 19.8039 38.4243 19.2722 39.0177 19.2105L40.435 19.0629C41.2562 18.9775 42 19.5748 42 20.4004C42 21.1176 41.3623 21.645 40.648 21.5806L38.892 21.4222C38.3757 21.3756 38 20.9189 38 20.4004ZM10.2334 15.0457C10.7657 15.3214 10.967 15.9767 10.7453 16.5336C10.5237 17.0905 9.92911 17.4258 9.35258 17.262L7.97794 16.8714C7.18758 16.6469 6.72323 15.8172 7.0275 15.054C7.33171 14.2909 8.2358 14.0113 8.96529 14.3891L10.2334 15.0457ZM39.0347 14.3891C39.7642 14.0113 40.6683 14.2909 40.9725 15.054C41.2768 15.8172 40.8124 16.6469 40.0221 16.8714L38.6474 17.262C38.0709 17.4258 37.4763 17.0905 37.2547 16.5336C37.033 15.9767 37.2343 15.3214 37.7666 15.0457L39.0347 14.3891ZM12.8731 11.5332C13.2937 11.9787 13.2633 12.6838 12.8566 13.1421C12.4502 13.6001 11.7649 13.7015 11.2722 13.338L10.5547 12.8086L10.1241 12.4899C9.47403 12.0089 9.32996 11.09 9.86674 10.4852C10.4037 9.88024 11.3389 9.90841 11.8942 10.4966L12.8731 11.5332ZM36.1058 10.4966C36.6611 9.90841 37.5963 9.88024 38.1333 10.4852C38.67 11.09 38.526 12.0089 37.8759 12.4899L37.4453 12.8086L36.7278 13.338C36.2351 13.7015 35.5498 13.6001 35.1434 13.1421C34.7367 12.6838 34.7063 11.9787 35.1269 11.5332L36.1058 10.4966ZM16.127 8.20898L16.5137 8.9909C16.7899 9.54943 16.5504 10.2267 16.0156 10.5464C15.4804 10.8664 14.7853 10.7462 14.4242 10.2379L13.5984 9.0759C13.1363 8.42559 13.2802 7.52241 13.9649 7.11288C14.6493 6.70347 15.5256 6.99694 15.88 7.71136L16.127 8.20898ZM32.12 7.71136C32.4744 6.99694 33.3507 6.70347 34.0351 7.11288C34.7198 7.52241 34.8637 8.42559 34.4016 9.0759L33.5758 10.2379C33.2147 10.7462 32.5196 10.8664 31.9844 10.5464C31.4496 10.2267 31.2101 9.54943 31.4863 8.9909L31.873 8.20898L32.12 7.71136ZM20.7483 7.56342C20.8657 8.18211 20.4485 8.77692 19.8402 8.93981C19.2319 9.1027 18.5923 8.7893 18.3857 8.19442L17.9175 6.84629C17.6578 6.09848 18.0436 5.27921 18.8084 5.0749C19.5732 4.87058 20.3346 5.38447 20.4822 6.16222L20.7483 7.56342ZM27.5178 6.16222C27.6654 5.38447 28.4268 4.87058 29.1916 5.0749C29.9564 5.27921 30.3422 6.09848 30.0825 6.84629L29.6143 8.19442C29.4077 8.7893 28.7681 9.1027 28.1598 8.93981C27.5515 8.77692 27.1343 8.18211 27.2517 7.56342L27.5178 6.16222ZM24 4.40039C24.7881 4.40039 25.3815 5.0865 25.3268 5.87269L25.2281 7.29289C25.1841 7.92609 24.6347 8.40039 24 8.40039C23.3653 8.40039 22.8159 7.92609 22.7719 7.29289L22.6732 5.87269C22.6185 5.0865 23.2119 4.40039 24 4.40039Z" fill="#333333"/>
</svg>
