<svg width="48" height="48" viewBox="0 0 48 48" fill="none" xmlns="http://www.w3.org/2000/svg">
<path d="M27.5996 14.5996C27.5996 16.2565 26.2565 17.5996 24.5996 17.5996C22.9428 17.5996 21.5996 16.2565 21.5996 14.5996C21.5996 12.9428 22.9428 11.5996 24.5996 11.5996C26.2565 11.5996 27.5996 12.9428 27.5996 14.5996Z" fill="#333333"/>
<path d="M29.9087 17.271C30.171 16.739 30.5852 16.2967 31.0989 15.9999C31.4403 15.8027 31.8172 15.6747 32.208 15.6233C32.5989 15.5719 32.9961 15.598 33.3769 15.7001C33.7576 15.8023 34.1146 15.9785 34.4272 16.2187C34.7398 16.4589 35.002 16.7583 35.1989 17.0999C35.495 17.6139 35.6321 18.2042 35.5929 18.7961C35.5537 19.388 35.3398 19.955 34.9784 20.4254C34.617 20.8958 34.1243 21.2485 33.5625 21.4389C33.0007 21.6293 32.395 21.6489 31.8221 21.4952C31.2492 21.3415 30.7346 21.0213 30.3436 20.5753C29.9526 20.1292 29.7025 19.5772 29.6251 18.9891C29.5477 18.401 29.6464 17.8031 29.9087 17.271Z" fill="#333333"/>
<path d="M16.4027 15.6059C16.9946 15.5667 17.5849 15.7038 18.0989 15.9999C18.4405 16.1968 18.7399 16.459 18.9801 16.7716C19.2203 17.0842 19.3965 17.4412 19.4987 17.8219C19.6008 18.2027 19.6269 18.5999 19.5755 18.9908C19.5241 19.3816 19.3961 19.7586 19.1989 20.0999C18.9021 20.6136 18.4598 21.0278 17.9278 21.2901C17.3957 21.5524 16.7978 21.6511 16.2097 21.5737C15.6216 21.4963 15.0696 21.2462 14.6235 20.8552C14.1775 20.4642 13.8573 19.9496 13.7036 19.3767C13.5499 18.8038 13.5695 18.1981 13.7599 17.6363C13.9503 17.0745 14.303 16.5818 14.7734 16.2204C15.2438 15.859 15.8108 15.6451 16.4027 15.6059Z" fill="#333333"/>
<path d="M11.8201 25.4727C12.0444 24.923 12.4268 24.4522 12.9189 24.1199C13.2439 23.8973 13.6098 23.7413 13.9955 23.661C14.3811 23.5807 14.7789 23.5776 15.1658 23.652C15.5526 23.7264 15.9209 23.8768 16.2493 24.0944C16.5777 24.312 16.8596 24.5926 17.0789 24.9199C17.4126 25.411 17.5931 25.99 17.5976 26.5837C17.602 27.1775 17.4302 27.7591 17.1039 28.2551C16.7775 28.7512 16.3114 29.1392 15.7644 29.3701C15.2174 29.601 14.6142 29.6644 14.0311 29.5522C13.4481 29.4401 12.9114 29.1575 12.4891 28.7402C12.0667 28.3229 11.7777 27.7896 11.6586 27.208C11.5395 26.6263 11.5957 26.0224 11.8201 25.4727Z" fill="#333333"/>
<path fill-rule="evenodd" clip-rule="evenodd" d="M38.4465 30.0753C36.39 31.9682 33.6934 33.0131 30.8984 33H27.9286C27.7564 33.002 27.5884 33.0532 27.4445 33.1478C27.3006 33.2424 27.1868 33.3762 27.1167 33.5335C27.0466 33.6908 27.0231 33.8648 27.049 34.0351C27.0748 34.2053 27.149 34.3646 27.2626 34.4939C27.5271 34.7893 27.7506 35.117 27.9286 35.4681L27.9569 35.5249C28.0606 35.7367 28.1478 35.9567 28.2175 36.183L28.2227 36.2C28.2447 36.2723 28.2649 36.3453 28.2833 36.4188C28.462 37.1339 28.4638 37.8817 28.2886 38.5976C28.0136 39.5889 27.4172 40.4609 26.593 41.0766C25.7688 41.6922 24.7635 42.0168 23.7349 41.9993C18.9614 41.9874 14.3881 40.0797 11.0212 36.6958C7.6542 33.312 5.76937 28.7293 5.78131 23.9557C5.79324 19.1822 7.70096 14.6089 11.0848 11.242C14.4686 7.87502 19.0514 5.99019 23.8249 6.00213C26.3679 5.96416 28.8928 6.43503 31.2512 7.38703C33.6096 8.33904 35.7538 9.75298 37.5578 11.5457C39.023 13.0204 40.1715 14.7788 40.9329 16.7132C41.6943 18.6476 42.0524 20.7171 41.9855 22.7948C41.7674 25.5814 40.5031 28.1823 38.4465 30.0753ZM25.1788 37.1949C25.2276 37.3899 25.2316 37.5932 25.191 37.7896C25.1002 38.0782 24.9209 38.3314 24.6779 38.5129C24.4216 38.7043 24.1091 38.8052 23.7893 38.7998L23.7661 38.7994L23.7429 38.7993C19.8181 38.7895 16.0579 37.221 13.2895 34.4388C10.5212 31.6565 8.97148 27.8886 8.9813 23.9637C8.99111 20.0389 10.5597 16.2787 13.3419 13.5104C16.1241 10.742 19.8921 9.1923 23.8169 9.20212L23.8448 9.20219L23.8727 9.20177C25.9891 9.17017 28.0906 9.56206 30.0534 10.3544C32.013 11.1454 33.795 12.3197 35.2949 13.8083C36.4495 14.9723 37.3547 16.3595 37.9552 17.8852C38.5478 19.3906 38.8313 20.9996 38.7893 22.6164C38.6185 24.5704 37.7239 26.3913 36.2794 27.7208C34.8174 29.0666 32.9004 29.8094 30.9133 29.8001L30.8984 29.8H27.9106L27.8927 29.8002C27.1083 29.809 26.3428 30.0427 25.6872 30.4735C25.0316 30.9042 24.5134 31.5141 24.194 32.2306C23.8746 32.9471 23.7674 33.7402 23.8853 34.5157C24.0031 35.2913 24.341 36.0168 24.8588 36.6061L24.8685 36.6171L24.8783 36.6281C25.023 36.7898 25.1262 36.9844 25.1788 37.1949Z" fill="#333333"/>
</svg>
