<svg width="48" height="48" viewBox="0 0 48 48" fill="none" xmlns="http://www.w3.org/2000/svg">
<path fill-rule="evenodd" clip-rule="evenodd" d="M35.1437 13.6485C33.5479 12.0526 30.9604 12.0526 29.3645 13.6485C27.7686 15.2444 27.7686 17.8318 29.3645 19.4277C30.9604 21.0236 33.5479 21.0236 35.1437 19.4277C36.7396 17.8318 36.7396 15.2444 35.1437 13.6485ZM31.6272 15.9112C31.9735 15.565 32.5348 15.565 32.881 15.9112C33.2272 16.2574 33.2272 16.8187 32.881 17.165C32.5348 17.5112 31.9735 17.5112 31.6272 17.165C31.281 16.8187 31.281 16.2574 31.6272 15.9112Z" fill="#333333"/>
<path fill-rule="evenodd" clip-rule="evenodd" d="M39.7915 9.00133C34.6752 3.88497 26.3799 3.88497 21.2636 9.00133C20.8154 9.44949 20.406 9.92276 20.0355 10.4169C18.7822 12.0884 17.9806 13.9912 17.6303 15.9566C17.2922 17.8541 17.3743 19.8121 17.8776 21.6817L4.96549 34.5938C4.3573 35.202 4.01563 36.0269 4.01562 36.887V41.4631C4.01562 43.308 5.55267 44.7813 7.39597 44.7032L16.242 44.3284C17.9782 44.2548 19.3478 42.8259 19.3478 41.0882L19.3478 37.2923H23.0755C24.8666 37.2923 26.3186 35.8404 26.3186 34.0493V30.6746C30.8899 32.2213 36.1462 31.1746 39.7915 27.5293C44.9079 22.4129 44.9079 14.1177 39.7915 9.00133ZM23.5263 11.2641C27.393 7.39739 33.6621 7.39739 37.5288 11.2641C41.3955 15.1307 41.3955 21.3999 37.5288 25.2665C34.3589 28.4364 29.5707 29.0095 25.817 26.9776C25.1945 26.6407 24.4245 26.7528 23.924 27.2534L23.5872 27.5901C23.2871 27.8902 23.1186 28.2972 23.1186 28.7215L23.1186 34.0493C23.1186 34.0582 23.1171 34.0626 23.1158 34.0655C23.1141 34.0695 23.111 34.0746 23.106 34.0797C23.1009 34.0848 23.0958 34.0879 23.0918 34.0896C23.0889 34.0908 23.0844 34.0923 23.0755 34.0923L17.7478 34.0923C17.3234 34.0923 16.9164 34.2609 16.6164 34.5609C16.3163 34.861 16.1478 35.268 16.1478 35.6923L16.1478 41.0882C16.1478 41.0966 16.1464 41.101 16.1451 41.1041C16.1435 41.1081 16.1405 41.1131 16.1358 41.118C16.1311 41.1229 16.1262 41.1261 16.1223 41.1279L16.1175 41.1297C16.1149 41.1304 16.1114 41.131 16.1066 41.1312L7.26048 41.5061C7.25101 41.5065 7.24652 41.5051 7.24374 41.504C7.23973 41.5024 7.23432 41.4994 7.22889 41.4942C7.22345 41.4889 7.22015 41.4837 7.21843 41.4797C7.21724 41.477 7.21563 41.4726 7.21563 41.4631V36.887C7.21563 36.8756 7.22016 36.8646 7.22823 36.8566L20.8236 23.2612C21.2603 22.8245 21.4067 22.1753 21.1996 21.5934C20.6194 19.9632 20.4793 18.2092 20.7807 16.5181C21.0455 15.0322 21.6506 13.5972 22.5958 12.3365C22.8756 11.9633 23.1857 11.6047 23.5263 11.2641Z" fill="#333333"/>
</svg>
