<svg width="48" height="48" viewBox="0 0 48 48" fill="none" xmlns="http://www.w3.org/2000/svg">
<path d="M33.998 36.0002C32.898 36.0002 31.998 35.1002 31.998 34.0002C31.998 32.9002 32.898 32.0002 33.998 32.0002C35.098 32.0002 35.998 32.9002 35.998 34.0002C35.998 35.1002 35.098 36.0002 33.998 36.0002Z" fill="#333333"/>
<path d="M11.9984 32.4006C11.1148 32.4006 10.3984 33.117 10.3984 34.0006C10.3984 34.8843 11.1148 35.6006 11.9984 35.6006H18.9984C19.8821 35.6006 20.5984 34.8843 20.5984 34.0006C20.5984 33.117 19.8821 32.4006 18.9984 32.4006H11.9984Z" fill="#333333"/>
<path fill-rule="evenodd" clip-rule="evenodd" d="M42.5847 28.7855C42.5714 28.6883 42.5489 28.5909 42.5168 28.4944L36.4285 10.2295C35.6662 7.9428 33.5262 6.40039 31.1158 6.40039H16.8819C14.4715 6.40039 12.3315 7.9428 11.5693 10.2295L5.48098 28.4944C5.44898 28.5904 5.42659 28.6873 5.41328 28.784C4.77383 29.6941 4.39844 30.8031 4.39844 31.9998V35.9998C4.39844 39.0926 6.90564 41.5998 9.99844 41.5998H37.9984C41.0912 41.5998 43.5984 39.0926 43.5984 35.9998V31.9998C43.5984 30.8038 43.2235 29.6953 42.5847 28.7855ZM9.54627 26.4178C9.69542 26.4059 9.84622 26.3998 9.99844 26.3998H37.9984C38.151 26.3998 38.3021 26.4059 38.4515 26.4179L33.3927 11.2414C33.066 10.2614 32.1489 9.60039 31.1158 9.60039H16.8819C15.8489 9.60039 14.9317 10.2614 14.6051 11.2414L9.54627 26.4178ZM7.59844 35.9998C7.59844 37.3253 8.67295 38.3998 9.99844 38.3998H37.9984C39.3239 38.3998 40.3984 37.3253 40.3984 35.9998V31.9998C40.3984 30.6744 39.3239 29.5998 37.9984 29.5998H9.99844C8.67295 29.5998 7.59844 30.6744 7.59844 31.9998V35.9998Z" fill="#333333"/>
</svg>
