<svg width="48" height="48" viewBox="0 0 48 48" fill="none" xmlns="http://www.w3.org/2000/svg">
<path fill-rule="evenodd" clip-rule="evenodd" d="M10.4984 4.40039C7.1295 4.40039 4.39844 7.13145 4.39844 10.5004C4.39844 13.3157 6.3056 15.6855 8.89844 16.3884V31.6124C6.3056 32.3153 4.39844 34.6851 4.39844 37.5004C4.39844 40.8693 7.1295 43.6004 10.4984 43.6004C13.3137 43.6004 15.6836 41.6932 16.3864 39.1004H31.6104C32.3133 41.6932 34.6832 43.6004 37.4984 43.6004C40.8674 43.6004 43.5984 40.8693 43.5984 37.5004C43.5984 34.6851 41.6913 32.3153 39.0984 31.6124V16.3884C41.6913 15.6855 43.5984 13.3157 43.5984 10.5004C43.5984 7.13145 40.8674 4.40039 37.4984 4.40039C34.6832 4.40039 32.3133 6.30756 31.6104 8.90039H16.3864C15.6836 6.30756 13.3137 4.40039 10.4984 4.40039ZM7.59844 10.5004C7.59844 8.89876 8.89681 7.60039 10.4984 7.60039C12.1001 7.60039 13.3984 8.89876 13.3984 10.5004C13.3984 12.102 12.1001 13.4004 10.4984 13.4004C8.89681 13.4004 7.59844 12.102 7.59844 10.5004ZM16.3864 35.9004H31.6104C32.1751 33.8175 33.8155 32.177 35.8984 31.6124V16.3884C33.8155 15.8237 32.1751 14.1833 31.6104 12.1004H16.3864C15.8218 14.1833 14.1814 15.8237 12.0984 16.3884V31.6124C14.1814 32.177 15.8218 33.8175 16.3864 35.9004ZM37.4984 7.60039C35.8968 7.60039 34.5984 8.89876 34.5984 10.5004C34.5984 12.102 35.8968 13.4004 37.4984 13.4004C39.1001 13.4004 40.3984 12.102 40.3984 10.5004C40.3984 8.89876 39.1001 7.60039 37.4984 7.60039ZM37.4984 34.6004C35.8968 34.6004 34.5984 35.8988 34.5984 37.5004C34.5984 39.102 35.8968 40.4004 37.4984 40.4004C39.1001 40.4004 40.3984 39.102 40.3984 37.5004C40.3984 35.8988 39.1001 34.6004 37.4984 34.6004ZM7.59844 37.5004C7.59844 35.8988 8.89681 34.6004 10.4984 34.6004C12.1001 34.6004 13.3984 35.8988 13.3984 37.5004C13.3984 39.102 12.1001 40.4004 10.4984 40.4004C8.89681 40.4004 7.59844 39.102 7.59844 37.5004Z" fill="#333333"/>
</svg>
