<svg width="48" height="48" viewBox="0 0 48 48" fill="none" xmlns="http://www.w3.org/2000/svg">
<path d="M20 26C20 24.8954 19.1046 24 18 24C16.8954 24 16 24.8954 16 26V30C16 31.1046 16.8954 32 18 32C19.1046 32 20 31.1046 20 30V26Z" fill="#333333"/>
<path d="M30 24C31.1046 24 32 24.8954 32 26V30C32 31.1046 31.1046 32 30 32C28.8954 32 28 31.1046 28 30V26C28 24.8954 28.8954 24 30 24Z" fill="#333333"/>
<path fill-rule="evenodd" clip-rule="evenodd" d="M24.0004 4.40039C21.4599 4.40039 19.4004 6.45988 19.4004 9.00039C19.4004 10.9783 20.6487 12.6646 22.4004 13.3145V14.4H18.0004C12.8998 14.4 8.72834 18.3778 8.41881 23.4004H8.40078C5.86027 23.4004 3.80078 25.4599 3.80078 28.0004V32.0004C3.80078 34.5408 5.86006 36.6002 8.40039 36.6004V37C8.40039 38.9882 10.0122 40.6 12.0004 40.6H36.0004C37.9886 40.6 39.6004 38.9882 39.6004 37V36.5961C42.0479 36.4912 44 34.4738 44 32.0004V28.0004C44 25.5209 42.0382 23.4996 39.5822 23.4039C39.2744 18.3796 35.1021 14.4 30.0004 14.4H25.6004V13.3145C27.3521 12.6646 28.6004 10.9783 28.6004 9.00039C28.6004 6.45988 26.5409 4.40039 24.0004 4.40039ZM22.6004 9.00039C22.6004 8.22719 23.2272 7.60039 24.0004 7.60039C24.7736 7.60039 25.4004 8.22719 25.4004 9.00039C25.4004 9.77359 24.7736 10.4004 24.0004 10.4004C23.2272 10.4004 22.6004 9.77359 22.6004 9.00039ZM39.6004 33.3862V26.6146C40.2787 26.7118 40.8 27.2952 40.8 28.0004V32.0004C40.8 32.7056 40.2787 33.2889 39.6004 33.3862ZM8.40039 26.6004C7.62737 26.6006 7.00078 27.2273 7.00078 28.0004V32.0004C7.00078 32.7735 7.62737 33.4002 8.40039 33.4004V26.6004ZM11.6004 24C11.6004 20.4654 14.4658 17.6 18.0004 17.6H30.0004C33.535 17.6 36.4004 20.4654 36.4004 24V37C36.4004 37.2209 36.2213 37.4 36.0004 37.4H12.0004C11.7795 37.4 11.6004 37.2209 11.6004 37V24Z" fill="#333333"/>
</svg>
