<svg width="48" height="48" viewBox="0 0 48 48" fill="none" xmlns="http://www.w3.org/2000/svg">
<path fill-rule="evenodd" clip-rule="evenodd" d="M17.9984 6.40039C16.0102 6.40039 14.3984 8.01217 14.3984 10.0004V16.0004C14.3984 17.9886 16.0102 19.6004 17.9984 19.6004H22.3984V22.4H13.591C12.3801 22.4 11.3984 23.3817 11.3984 24.5926V30.4004H7.99844C6.01021 30.4004 4.39844 32.0122 4.39844 34.0004V38.0004C4.39844 39.9886 6.01021 41.6004 7.99844 41.6004H17.9984C19.9867 41.6004 21.5984 39.9886 21.5984 38.0004V34.0004C21.5984 32.0122 19.9867 30.4004 17.9984 30.4004H14.5984V25.6H33.3984V30.4004H29.9984C28.0102 30.4004 26.3984 32.0122 26.3984 34.0004V38.0004C26.3984 39.9886 28.0102 41.6004 29.9984 41.6004H39.9984C41.9867 41.6004 43.5984 39.9886 43.5984 38.0004V34.0004C43.5984 32.0122 41.9867 30.4004 39.9984 30.4004H36.5984V24.5926C36.5984 23.3817 35.6168 22.4 34.4058 22.4H25.5984V19.6004H29.9984C31.9867 19.6004 33.5984 17.9886 33.5984 16.0004V10.0004C33.5984 8.01217 31.9867 6.40039 29.9984 6.40039H17.9984ZM17.5984 10.0004C17.5984 9.77948 17.7775 9.60039 17.9984 9.60039H29.9984C30.2194 9.60039 30.3984 9.77948 30.3984 10.0004V16.0004C30.3984 16.2213 30.2194 16.4004 29.9984 16.4004H17.9984C17.7775 16.4004 17.5984 16.2213 17.5984 16.0004V10.0004ZM7.59844 34.0004C7.59844 33.7795 7.77752 33.6004 7.99844 33.6004H17.9984C18.2194 33.6004 18.3984 33.7795 18.3984 34.0004V38.0004C18.3984 38.2213 18.2194 38.4004 17.9984 38.4004H7.99844C7.77752 38.4004 7.59844 38.2213 7.59844 38.0004V34.0004ZM29.9984 33.6004C29.7775 33.6004 29.5984 33.7795 29.5984 34.0004V38.0004C29.5984 38.2213 29.7775 38.4004 29.9984 38.4004H39.9984C40.2194 38.4004 40.3984 38.2213 40.3984 38.0004V34.0004C40.3984 33.7795 40.2194 33.6004 39.9984 33.6004H29.9984Z" fill="#333333"/>
</svg>
