<svg width="48" height="48" viewBox="0 0 48 48" fill="none" xmlns="http://www.w3.org/2000/svg">
<path d="M16.3984 22.0004C16.3984 21.1167 17.1148 20.4004 17.9984 20.4004H29.9984C30.8821 20.4004 31.5984 21.1167 31.5984 22.0004C31.5984 22.884 30.8821 23.6004 29.9984 23.6004H17.9984C17.1148 23.6004 16.3984 22.884 16.3984 22.0004Z" fill="#333333"/>
<path d="M17.9984 28.4004C17.1148 28.4004 16.3984 29.1167 16.3984 30.0004C16.3984 30.884 17.1148 31.6004 17.9984 31.6004H23.9984C24.8821 31.6004 25.5984 30.884 25.5984 30.0004C25.5984 29.1167 24.8821 28.4004 23.9984 28.4004H17.9984Z" fill="#333333"/>
<path fill-rule="evenodd" clip-rule="evenodd" d="M17.9984 5.40039C16.5625 5.40039 15.3984 6.56445 15.3984 8.00039V8.40039H13.9984C10.9056 8.40039 8.39844 10.9076 8.39844 14.0004V38.0004C8.39844 41.0932 10.9056 43.6004 13.9984 43.6004H33.9984C37.0912 43.6004 39.5984 41.0932 39.5984 38.0004V14.0004C39.5984 10.9076 37.0912 8.40039 33.9984 8.40039H32.5984V8.00039C32.5984 6.56445 31.4344 5.40039 29.9984 5.40039H17.9984ZM32.5984 11.6004V12.0004C32.5984 13.4363 31.4344 14.6004 29.9984 14.6004H17.9984C16.5625 14.6004 15.3984 13.4363 15.3984 12.0004V11.6004H13.9984C12.673 11.6004 11.5984 12.6749 11.5984 14.0004V38.0004C11.5984 39.3259 12.673 40.4004 13.9984 40.4004H33.9984C35.3239 40.4004 36.3984 39.3259 36.3984 38.0004V14.0004C36.3984 12.6749 35.3239 11.6004 33.9984 11.6004H32.5984ZM18.5984 11.4004V8.60039H29.3984V11.4004H18.5984Z" fill="#333333"/>
</svg>
