<svg width="48" height="48" viewBox="0 0 48 48" fill="none" xmlns="http://www.w3.org/2000/svg">
<path fill-rule="evenodd" clip-rule="evenodd" d="M10.1439 10.1419C12.7214 7.56473 16.8986 7.56466 19.476 10.1419C21.6629 12.3291 21.9931 15.6682 20.4682 18.2044L24.0014 21.7376L35.599 10.1419C36.2239 9.51711 37.2379 9.51705 37.8627 10.1419C38.4672 10.7473 38.4847 11.7152 37.9174 12.343L21.6244 28.636L20.4701 29.7942C21.9957 32.3304 21.6649 35.6711 19.4779 37.8586C16.9006 40.436 12.7214 40.4357 10.1439 37.8586C7.56717 35.2813 7.56709 31.1039 10.1439 28.5266C12.3309 26.3398 15.6703 26.0084 18.2064 27.5325L21.7397 23.9993L18.2064 20.4661C15.6702 21.9914 12.3314 21.661 10.1439 19.4739C7.56666 16.8964 7.56654 12.7193 10.1439 10.1419ZM17.2045 30.7786C15.8759 29.4611 13.73 29.4641 12.4057 30.7883C11.0785 32.116 11.0786 34.2692 12.4057 35.5969C13.7335 36.9243 15.8886 36.9246 17.2162 35.5969C18.5405 34.272 18.543 32.1244 17.224 30.7961L17.2143 30.7883C17.2111 30.7852 17.2076 30.7817 17.2045 30.7786ZM17.2143 12.4036C15.8866 11.0761 13.7334 11.0761 12.4057 12.4036C11.0779 13.7313 11.0781 15.8844 12.4057 17.2122C13.7335 18.5396 15.8866 18.5398 17.2143 17.2122C18.5416 15.8845 18.5416 13.7313 17.2143 12.4036Z" fill="#333333"/>
<path d="M37.8607 35.5969C38.4852 36.2218 38.4854 37.2339 37.8607 37.8586C37.236 38.4833 36.2239 38.4831 35.599 37.8586L25.9799 28.2395L28.2416 25.9778L37.8607 35.5969Z" fill="#333333"/>
</svg>
