<svg width="48" height="48" viewBox="0 0 48 48" fill="none" xmlns="http://www.w3.org/2000/svg">
<path fill-rule="evenodd" clip-rule="evenodd" d="M23.598 4.40039C24.4817 4.40039 25.198 5.11674 25.198 6.00039V9.40039H37.6112C41.7033 9.40039 44.998 12.7414 44.998 16.835V31.1657C44.998 35.2593 41.7033 38.6004 37.6112 38.6004H25.198V42.0004C25.198 42.8841 24.4817 43.6004 23.598 43.6004C22.7144 43.6004 21.998 42.8841 21.998 42.0004V6.00039C21.998 5.11674 22.7144 4.40039 23.598 4.40039ZM37.6112 35.4004C39.9112 35.4004 41.798 33.5169 41.798 31.1657L41.798 16.835C41.798 14.4839 39.9112 12.6004 37.6112 12.6004H25.198V35.4004H37.6112Z" fill="#333333"/>
<path d="M9.78524 9.40039H19.398V12.6004H9.78524C7.48533 12.6004 5.59844 14.4839 5.59844 16.835V31.1657C5.59844 33.5169 7.48533 35.4004 9.78524 35.4004H19.398V38.6004H9.78524C5.69323 38.6004 2.39844 35.2593 2.39844 31.1657V16.835C2.39844 12.7414 5.69323 9.40039 9.78524 9.40039Z" fill="#333333"/>
</svg>
