<svg width="48" height="48" viewBox="0 0 48 48" fill="none" xmlns="http://www.w3.org/2000/svg">
<path fill-rule="evenodd" clip-rule="evenodd" d="M23.998 18.3945C26.5441 18.3945 28.9868 19.4047 30.7871 21.2051C32.2058 22.6238 33.1312 24.4418 33.4609 26.3945H39.998C40.8817 26.3945 41.5977 27.1105 41.5977 27.9941C41.5977 28.8778 40.8817 29.5938 39.998 29.5938H7.99805C7.11439 29.5938 6.39844 28.8778 6.39844 27.9941C6.39844 27.1105 7.11439 26.3945 7.99805 26.3945H14.5352C14.8649 24.4418 15.7903 22.6238 17.209 21.2051C19.0093 19.4047 21.452 18.3945 23.998 18.3945ZM23.998 21.5938C22.3007 21.5938 20.6729 22.2685 19.4727 23.4688C18.6574 24.284 18.0863 25.2969 17.8027 26.3945H30.1934C29.9098 25.2969 29.3387 24.284 28.5234 23.4688C27.3232 22.2685 25.6954 21.5938 23.998 21.5938Z" fill="#333333"/>
</svg>
