<svg width="48" height="48" viewBox="0 0 48 48" fill="none" xmlns="http://www.w3.org/2000/svg">
<path d="M32.8986 24.0001C32.8986 23.1164 33.6142 22.4008 34.4979 22.4008H37.9975C38.8811 22.4008 39.5968 23.1164 39.5968 24.0001C39.5968 24.8837 38.8811 25.5993 37.9975 25.5993H34.4979C33.6142 25.5993 32.8986 24.8837 32.8986 24.0001ZM18.8973 24.0001C18.8973 23.1164 19.6143 22.3994 20.498 22.3994L27.4972 22.3994C28.3809 22.3994 29.0979 23.1164 29.0979 24.0001C29.0979 24.8837 28.3809 25.6007 27.4972 25.6007L20.498 25.6007C19.6143 25.6007 18.8973 24.8837 18.8973 24.0001ZM8.39844 24.0001C8.39844 23.1164 9.11406 22.4008 9.99771 22.4008L13.4973 22.4008C14.381 22.4008 15.0966 23.1164 15.0966 24.0001C15.0966 24.8837 14.381 25.5993 13.4973 25.5993L9.99771 25.5993C9.11406 25.5993 8.39844 24.8837 8.39844 24.0001Z" fill="#333333"/>
</svg>
