<svg width="48" height="48" viewBox="0 0 48 48" fill="none" xmlns="http://www.w3.org/2000/svg">
<path fill-rule="evenodd" clip-rule="evenodd" d="M13.9984 4.40039C10.9056 4.40039 8.39844 6.9076 8.39844 10.0004V38.0004C8.39844 41.0932 10.9056 43.6004 13.9984 43.6004H33.9984C37.0912 43.6004 39.5984 41.0932 39.5984 38.0004V17.0004C39.5984 16.576 39.4299 16.1691 39.1298 15.869L28.1298 4.86902C27.8298 4.56896 27.4228 4.40039 26.9984 4.40039H13.9984ZM11.5984 10.0004C11.5984 8.67491 12.673 7.60039 13.9984 7.60039H25.3984V16.0004C25.3984 17.4363 26.5625 18.6004 27.9984 18.6004H36.3984V38.0004C36.3984 39.3259 35.3239 40.4004 33.9984 40.4004H13.9984C12.673 40.4004 11.5984 39.3259 11.5984 38.0004V10.0004ZM34.1357 15.4004L28.5984 9.86313V15.4004H34.1357ZM16.8671 29.1318C16.2422 28.5069 16.2422 27.4939 16.8671 26.869C17.4919 26.2442 18.505 26.2442 19.1298 26.869L22.3984 30.1377L22.3984 20.0004C22.3984 19.1167 23.1148 18.4004 23.9984 18.4004C24.8821 18.4004 25.5984 19.1167 25.5984 20.0004L25.5984 30.1377L28.8671 26.869C29.4919 26.2442 30.505 26.2442 31.1298 26.869C31.7547 27.4939 31.7547 28.5069 31.1298 29.1318L25.1298 35.1318C24.505 35.7566 23.4919 35.7566 22.8671 35.1318L16.8671 29.1318Z" fill="#333333"/>
</svg>
