<svg width="48" height="48" viewBox="0 0 48 48" fill="none" xmlns="http://www.w3.org/2000/svg">
<path fill-rule="evenodd" clip-rule="evenodd" d="M33.3984 10.0004C33.3984 9.11674 34.1148 8.40039 34.9984 8.40039H37.9984C41.0912 8.40039 43.5984 10.9076 43.5984 14.0004V18.0004C43.5984 18.884 42.8821 19.6004 41.9984 19.6004C41.1148 19.6004 40.3984 18.884 40.3984 18.0004V14.0004C40.3984 12.6749 39.3239 11.6004 37.9984 11.6004H34.9984C34.1148 11.6004 33.3984 10.884 33.3984 10.0004Z" fill="#333333"/>
<path fill-rule="evenodd" clip-rule="evenodd" d="M33.3984 38.0004C33.3984 38.884 34.1148 39.6004 34.9984 39.6004H37.9984C41.0912 39.6004 43.5984 37.0932 43.5984 34.0004V30.0004C43.5984 29.1167 42.8821 28.4004 41.9984 28.4004C41.1148 28.4004 40.3984 29.1167 40.3984 30.0004V34.0004C40.3984 35.3259 39.3239 36.4004 37.9984 36.4004H34.9984C34.1148 36.4004 33.3984 37.1167 33.3984 38.0004Z" fill="#333333"/>
<path fill-rule="evenodd" clip-rule="evenodd" d="M14.5984 10.0004C14.5984 9.11674 13.8821 8.40039 12.9984 8.40039H9.99844C6.90564 8.40039 4.39844 10.9076 4.39844 14.0004V18.0004C4.39844 18.884 5.11478 19.6004 5.99844 19.6004C6.88209 19.6004 7.59844 18.884 7.59844 18.0004V14.0004C7.59844 12.6749 8.67296 11.6004 9.99844 11.6004H12.9984C13.8821 11.6004 14.5984 10.884 14.5984 10.0004Z" fill="#333333"/>
<path fill-rule="evenodd" clip-rule="evenodd" d="M14.5984 38.0004C14.5984 38.884 13.8821 39.6004 12.9984 39.6004H9.99844C6.90564 39.6004 4.39844 37.0932 4.39844 34.0004V30.0004C4.39844 29.1167 5.11478 28.4004 5.99844 28.4004C6.88209 28.4004 7.59844 29.1167 7.59844 30.0004V34.0004C7.59844 35.3259 8.67296 36.4004 9.99844 36.4004H12.9984C13.8821 36.4004 14.5984 37.1167 14.5984 38.0004Z" fill="#333333"/>
<path d="M15.2995 22.3983L10.722 31.5532C10.3896 32.2181 10.8731 33.0004 11.6165 33.0004H37.0685C37.8793 33.0004 38.3531 32.0861 37.8855 31.4237L27.8188 17.1626C27.4195 16.5968 26.5798 16.5985 26.1826 17.1658L20.7643 24.9063C20.3816 25.453 19.581 25.4786 19.1642 24.9576L16.9748 22.2208C16.5189 21.6509 15.6259 21.7456 15.2995 22.3983Z" fill="#333333"/>
</svg>
