<svg width="48" height="48" viewBox="0 0 48 48" fill="none" xmlns="http://www.w3.org/2000/svg">
<path fill-rule="evenodd" clip-rule="evenodd" d="M23.9886 24.6735L21.525 20.5098H17.4432L21.7083 27.4532L17.3594 34.4007H21.4784L23.9879 30.2242L26.4974 34.4007H30.6281L26.2925 27.4529L30.5302 20.5098H26.4642L23.9886 24.6735Z" fill="#333333"/>
<path fill-rule="evenodd" clip-rule="evenodd" d="M6.39844 10.0004C6.39844 6.9076 8.90564 4.40039 11.9984 4.40039H28.9984C29.4228 4.40039 29.8298 4.56896 30.1298 4.86902L41.1298 15.869C41.4299 16.1691 41.5984 16.576 41.5984 17.0004V38.0004C41.5984 41.0932 39.0912 43.6004 35.9984 43.6004H11.9984C8.90564 43.6004 6.39844 41.0932 6.39844 38.0004V10.0004ZM11.9984 7.60039C10.673 7.60039 9.59844 8.67491 9.59844 10.0004V38.0004C9.59844 39.3259 10.673 40.4004 11.9984 40.4004H35.9984C37.3239 40.4004 38.3984 39.3259 38.3984 38.0004V18.6004H29.9984C28.5625 18.6004 27.3984 17.4363 27.3984 16.0004V7.60039H11.9984ZM30.5984 9.86313L36.1357 15.4004H30.5984V9.86313Z" fill="#333333"/>
</svg>
