<svg width="48" height="48" viewBox="0 0 48 48" fill="none" xmlns="http://www.w3.org/2000/svg">
<path fill-rule="evenodd" clip-rule="evenodd" d="M17.9984 8.40039C18.6889 8.40039 19.3014 8.84329 19.5178 9.49894L25.5794 27.8655L28.128 36.4004H29.9984C30.8821 36.4004 31.5984 37.1167 31.5984 38.0004C31.5984 38.884 30.8821 39.6004 29.9984 39.6004H24.0529C23.1692 39.6004 22.4529 38.884 22.4529 38.0004C22.4529 37.1167 23.1692 36.4004 24.0529 36.4004H24.7884L22.8608 29.9452H13.136L11.2085 36.4004H11.944C12.8277 36.4004 13.544 37.1167 13.544 38.0004C13.544 38.884 12.8277 39.6004 11.944 39.6004H5.99844C5.11478 39.6004 4.39844 38.884 4.39844 38.0004C4.39844 37.1167 5.11478 36.4004 5.99844 36.4004H7.86889L10.4174 27.8655L16.479 9.49894C16.6954 8.84329 17.308 8.40039 17.9984 8.40039ZM14.1569 26.7452H21.8399L17.9984 15.1056L14.1569 26.7452Z" fill="#333333"/>
<path d="M26.3984 24.0004C26.3984 23.1167 27.1148 22.4004 27.9984 22.4004H33.3984L33.3984 17.0004C33.3984 16.1167 34.1148 15.4004 34.9984 15.4004C35.8821 15.4004 36.5984 16.1167 36.5984 17.0004L36.5984 22.4004H41.9984C42.8821 22.4004 43.5984 23.1167 43.5984 24.0004C43.5984 24.884 42.8821 25.6004 41.9984 25.6004H36.5984L36.5984 31.0004C36.5984 31.884 35.8821 32.6004 34.9984 32.6004C34.1148 32.6004 33.3984 31.884 33.3984 31.0004L33.3984 25.6004H27.9984C27.1148 25.6004 26.3984 24.884 26.3984 24.0004Z" fill="#333333"/>
</svg>
