<svg width="48" height="48" viewBox="0 0 48 48" fill="none" xmlns="http://www.w3.org/2000/svg">
<path fill-rule="evenodd" clip-rule="evenodd" d="M40.3984 23.9491C40.3984 19.5998 38.5879 15.6761 35.6751 12.8858C35.037 12.2745 35.0152 11.2617 35.6265 10.6236C36.2378 9.98545 37.2506 9.96369 37.8887 10.575C41.4055 13.9438 43.5984 18.6917 43.5984 23.9491C43.5984 29.2065 41.4055 33.9544 37.8887 37.3232C37.2506 37.9345 36.2378 37.9128 35.6265 37.2747C35.0152 36.6365 35.037 35.6237 35.6751 35.0124C38.5879 32.2221 40.3984 28.2984 40.3984 23.9491Z" fill="#333333"/>
<path fill-rule="evenodd" clip-rule="evenodd" d="M33.2187 23.9504C33.2187 21.7684 32.3247 19.7981 30.879 18.3807C30.248 17.7621 30.2379 16.7491 30.8565 16.1181C31.4751 15.4871 32.4881 15.477 33.1191 16.0956C35.1535 18.09 36.4187 20.8739 36.4187 23.9504C36.4187 27.027 35.1535 29.8109 33.1191 31.8052C32.4881 32.4238 31.4751 32.4138 30.8565 31.7828C30.2379 31.1517 30.248 30.1387 30.879 29.5201C32.3247 28.1028 33.2187 26.1325 33.2187 23.9504Z" fill="#333333"/>
<path fill-rule="evenodd" clip-rule="evenodd" d="M7.59844 23.9491C7.59844 19.5998 9.40895 15.6761 12.3218 12.8858C12.9599 12.2745 12.9816 11.2617 12.3704 10.6236C11.7591 9.98545 10.7463 9.96369 10.1081 10.575C6.5914 13.9438 4.39844 18.6917 4.39844 23.9491C4.39844 29.2065 6.5914 33.9544 10.1081 37.3232C10.7463 37.9345 11.7591 37.9128 12.3704 37.2747C12.9816 36.6365 12.9599 35.6237 12.3218 35.0124C9.40895 32.2221 7.59844 28.2984 7.59844 23.9491Z" fill="#333333"/>
<path fill-rule="evenodd" clip-rule="evenodd" d="M14.5984 23.9504C14.5984 21.7684 15.4924 19.7981 16.9382 18.3807C17.5692 17.7621 17.5793 16.7491 16.9607 16.1181C16.3421 15.4871 15.3291 15.477 14.6981 16.0956C12.6637 18.09 11.3984 20.8739 11.3984 23.9504C11.3984 27.027 12.6637 29.8109 14.6981 31.8052C15.3291 32.4238 16.3421 32.4138 16.9607 31.7828C17.5793 31.1517 17.5692 30.1387 16.9382 29.5201C15.4924 28.1028 14.5984 26.1325 14.5984 23.9504Z" fill="#333333"/>
<path fill-rule="evenodd" clip-rule="evenodd" d="M23.9984 21.5999C22.673 21.5999 21.5984 22.6744 21.5984 23.9999C21.5984 25.3254 22.673 26.3999 23.9984 26.3999C25.3239 26.3999 26.3984 25.3254 26.3984 23.9999C26.3984 22.6744 25.3239 21.5999 23.9984 21.5999ZM18.3984 23.9999C18.3984 20.9071 20.9056 18.3999 23.9984 18.3999C27.0912 18.3999 29.5984 20.9071 29.5984 23.9999C29.5984 27.0927 27.0912 29.5999 23.9984 29.5999C20.9056 29.5999 18.3984 27.0927 18.3984 23.9999Z" fill="#333333"/>
</svg>
