<svg width="48" height="48" viewBox="0 0 48 48" fill="none" xmlns="http://www.w3.org/2000/svg">
<path fill-rule="evenodd" clip-rule="evenodd" d="M9.99844 10.4004C6.90564 10.4004 4.39844 12.9076 4.39844 16.0004V32.0004C4.39844 35.0932 6.90564 37.6004 9.99844 37.6004H21.9202C21.6171 36.5817 21.4392 35.5091 21.4047 34.4004H9.99844C8.67295 34.4004 7.59844 33.3259 7.59844 32.0004V23L27.8496 23C29.6683 21.9812 31.7656 21.4004 33.9984 21.4004C36.2313 21.4004 38.3286 21.9812 40.1473 23H40.3984V23.1445C41.6101 23.8604 42.6914 24.7733 43.5984 25.8391V16.0004C43.5984 12.9076 41.0912 10.4004 37.9984 10.4004H9.99844ZM7.59844 16.0004C7.59844 14.6749 8.67295 13.6004 9.99844 13.6004H37.9984C39.3239 13.6004 40.3984 14.6749 40.3984 16.0004V17L7.59844 17V16.0004Z" fill="#333333"/>
<path fill-rule="evenodd" clip-rule="evenodd" d="M33.998 44C39.5209 44 43.998 39.5228 43.998 34C43.998 28.4772 39.5209 24 33.998 24C28.4752 24 23.998 28.4772 23.998 34C23.998 39.5228 28.4752 44 33.998 44ZM28.9372 33.5007C29.523 32.9148 30.4727 32.9147 31.0586 33.5004L32.4374 34.8788L37.3768 29.9393C37.9626 29.3536 38.9124 29.3536 39.4982 29.9393C40.0839 30.5251 40.0839 31.4749 39.4982 32.0607L33.4982 38.0607C32.9124 38.6464 31.9628 38.6465 31.377 38.0608L28.9375 35.622C28.3517 35.0363 28.3515 34.0865 28.9372 33.5007Z" fill="#333333"/>
</svg>
