<svg width="48" height="48" viewBox="0 0 48 48" fill="none" xmlns="http://www.w3.org/2000/svg">
<path fill-rule="evenodd" clip-rule="evenodd" d="M20.4457 4.2998C16.0703 4.2998 12.5234 7.8467 12.5234 12.222C12.5234 16.5973 16.0703 20.1442 20.4457 20.1442C24.821 20.1442 28.3679 16.5973 28.3679 12.222C28.3679 7.8467 24.821 4.2998 20.4457 4.2998ZM15.9234 12.222C15.9234 9.72447 17.9481 7.6998 20.4457 7.6998C22.9432 7.6998 24.9679 9.72447 24.9679 12.222C24.9679 14.7196 22.9432 16.7442 20.4457 16.7442C17.9481 16.7442 15.9234 14.7196 15.9234 12.222Z" fill="#333333"/>
<path d="M12.4898 27.3361C14.1509 26.3869 16.4334 25.7068 19.0464 25.5253C20.533 24.2113 22.2397 23.1371 24.1042 22.3656C22.935 22.1769 21.708 22.0771 20.4457 22.0771C16.7684 22.0771 13.3555 22.9254 10.8029 24.3841C8.29845 25.8152 6.30129 28.0514 6.30129 30.8883L6.30104 31.0918C6.29775 32.8952 6.29313 35.4227 8.4732 37.2263C9.54449 38.1125 11.009 38.715 12.9089 39.1056C14.8154 39.4977 17.2752 39.6994 20.4457 39.6994C21.7877 39.6994 23.0028 39.6633 24.103 39.5918C23.5106 39.4623 22.9333 39.2163 22.4049 38.8477C21.4852 38.2062 20.8628 37.2974 20.5693 36.2993L20.4457 36.2994C17.394 36.2994 15.1872 36.103 13.5937 35.7753C11.9936 35.4463 11.1248 35.0072 10.6405 34.6066C9.79278 33.9052 9.70129 33.0025 9.70129 30.8883C9.70129 29.7982 10.4901 28.4788 12.4898 27.3361Z" fill="#333333"/>
<path d="M22.2751 31.4536C24.3993 29.0174 27.5203 27.4822 31.0019 27.4822C34.4834 27.4822 37.6044 29.0174 39.7286 31.4536C40.3605 32.1784 41.4604 32.2536 42.1851 31.6217C42.9099 30.9897 42.9851 29.8899 42.3532 29.1651C39.5958 26.0027 35.5317 24 31.0019 24C26.472 24 22.4079 26.0027 19.6505 29.1651C19.0186 29.8899 19.0938 30.9897 19.8186 31.6217C20.5433 32.2536 21.6432 32.1784 22.2751 31.4536Z" fill="#333333"/>
<path d="M31.0014 33.6277C29.1583 33.6277 27.5291 34.5447 26.5453 35.9552C25.9951 36.7439 24.9098 36.9373 24.1211 36.3872C23.3325 35.837 23.1391 34.7517 23.6892 33.9631C25.2964 31.6589 27.972 30.1455 31.0014 30.1455C34.0308 30.1455 36.7065 31.6589 38.3137 33.9631C38.8638 34.7517 38.6704 35.837 37.8817 36.3872C37.0931 36.9373 36.0078 36.7439 35.4576 35.9552C34.4738 34.5447 32.8446 33.6277 31.0014 33.6277Z" fill="#333333"/>
<path d="M34.2002 39C34.2002 40.6569 32.857 42 31.2002 42C29.5433 42 28.2002 40.6569 28.2002 39C28.2002 37.3431 29.5433 36 31.2002 36C32.857 36 34.2002 37.3431 34.2002 39Z" fill="#333333"/>
</svg>
