<svg width="48" height="48" viewBox="0 0 48 48" fill="none" xmlns="http://www.w3.org/2000/svg">
<path fill-rule="evenodd" clip-rule="evenodd" d="M33.5859 9.4253C34.2108 8.80119 35.2231 8.8007 35.8477 9.4253L40.332 13.9116C40.9563 14.5364 40.9563 15.5486 40.332 16.1733L35.8477 20.6577C35.223 21.2824 34.2108 21.2821 33.5859 20.6577C32.9612 20.033 32.9595 19.0209 33.584 18.396L35.3379 16.6421H29.1992C27.8737 16.6421 26.7988 17.717 26.7988 19.0425V29.0425C26.7985 32.1348 24.2915 34.6418 21.1992 34.6421H18.9766C18.2757 37.178 15.9581 39.0425 13.1992 39.0425C9.88573 39.0425 7.19957 36.3559 7.19922 33.0425C7.19922 29.7288 9.88551 27.0425 13.1992 27.0425C15.9585 27.0425 18.2761 28.9063 18.9766 31.4429H21.1992C22.5242 31.4426 23.5973 30.3675 23.5977 29.0425V19.0425C23.5977 15.9497 26.1064 13.4429 29.1992 13.4429H35.3379L33.584 11.689C32.9591 11.0641 32.9611 10.0501 33.5859 9.4253ZM13.1992 30.2417C11.6528 30.2417 10.3984 31.4961 10.3984 33.0425C10.3988 34.5886 11.653 35.8433 13.1992 35.8433C14.7454 35.8433 15.9996 34.5886 16 33.0425C16 31.4961 14.7456 30.2417 13.1992 30.2417Z" fill="#333333"/>
</svg>
