<svg width="48" height="48" viewBox="0 0 48 48" fill="none" xmlns="http://www.w3.org/2000/svg">
<path d="M23.9959 30.9999C25.1501 31 26.2233 31.2127 27.2127 31.6385C27.8243 31.902 28.3908 32.227 28.908 32.6112C29.4372 33.0056 29.4337 33.7714 28.9685 34.2401L24.8474 38.3924C24.3785 38.864 23.6135 38.8635 23.1443 38.3924L19.0213 34.2401C18.5562 33.7711 18.5538 33.0054 19.0838 32.6112C19.6008 32.2271 20.1656 31.9019 20.7771 31.6385C21.7668 31.2125 22.8414 30.9999 23.9959 30.9999Z" fill="#333333"/>
<path d="M7.86892 7.869C8.49377 7.2442 9.50582 7.24417 10.1306 7.869L14.0486 11.787C14.0668 11.78 14.0851 11.7724 14.1033 11.7655L18.0447 15.7069C18.0247 15.7122 18.0041 15.7172 17.9842 15.7225L22.8943 20.6327C22.9182 20.6313 22.9427 20.63 22.9666 20.6288L28.7869 26.4491C28.7463 26.4329 28.7046 26.4179 28.6638 26.4022L38.1306 35.869L38.24 35.9901C38.7527 36.6185 38.7164 37.5449 38.1306 38.1307C37.5448 38.7165 36.6185 38.7527 35.99 38.2401L35.8689 38.1307L23.3045 25.5663C21.7486 25.6436 20.2753 25.9836 18.8865 26.5819C17.6712 27.1057 16.5658 27.782 15.574 28.6092C15.0612 29.037 14.2969 29.0376 13.8299 28.5604L12.0428 26.7303C11.5835 26.2602 11.5854 25.5032 12.0799 25.0702C13.5021 23.8249 15.1179 22.8098 16.9256 22.0252C17.6055 21.7302 18.302 21.4805 19.0154 21.2772L14.6502 16.912C12.3846 17.9279 10.3449 19.2523 8.53299 20.8885C8.04159 21.3323 7.28296 21.3344 6.81424 20.867L5.03689 19.0897C4.57183 18.6246 4.567 17.8698 5.04666 17.4198C6.81791 15.7582 8.78343 14.3531 10.9431 13.2049L7.86892 10.1307C7.24409 9.50588 7.24409 8.49383 7.86892 7.869Z" fill="#333333"/>
<path d="M27.8709 21.0096C28.9768 21.2493 30.0466 21.5916 31.076 22.0448C32.8856 22.8417 34.5042 23.8763 35.9275 25.1444C36.4171 25.5825 36.4112 26.3392 35.9471 26.8045L34.8064 27.9452L27.8709 21.0096Z" fill="#333333"/>
<path d="M23.9978 9.99986C27.9021 10.0001 31.5475 10.7281 34.9295 12.1854C37.9401 13.4829 40.6138 15.229 42.949 17.4198C43.4274 17.8696 43.4227 18.6249 42.9588 19.0897L41.1814 20.867C40.7131 21.3352 39.9545 21.3317 39.4627 20.8885C37.5512 19.1621 35.3851 17.7798 32.9685 16.744C30.178 15.5482 27.1869 14.9493 23.9978 14.9491C23.2897 14.9491 22.5907 14.9819 21.9021 15.0409L17.572 10.7108C19.6289 10.2372 21.7715 9.99986 23.9978 9.99986Z" fill="#333333"/>
</svg>
