<svg width="48" height="48" viewBox="0 0 48 48" fill="none" xmlns="http://www.w3.org/2000/svg">
<path d="M31.5992 8C30.2737 8 29.1992 9.07452 29.1992 10.4V22.6942C30.6845 22.1037 32.3043 21.7791 34 21.7791C34.8197 21.7791 35.6216 21.8549 36.3992 22V10.4C36.3992 9.07452 35.3247 8 33.9992 8H31.5992Z" fill="#333333"/>
<path d="M25.5984 25.7735C22.7855 28.1581 21.8471 30.8705 21.8471 34.8471C21.8471 35.5272 21.8993 36.1952 22 36.8471H21.6455C20.3201 36.8471 18.3984 34.9255 18.3984 33.6V20.4C18.3984 19.0745 19.473 18 20.7984 18H23.1984C24.5239 18 25.5984 19.0745 25.5984 20.4V25.7735Z" fill="#333333"/>
<path d="M10.0016 28C8.67608 28 7.60156 29.0745 7.60156 30.4V33.6C7.60156 34.9255 8.67608 36 10.0016 36H12.4016C13.727 36 14.8016 34.9255 14.8016 33.6V30.4C14.8016 29.0745 13.727 28 12.4016 28H10.0016Z" fill="#333333"/>
<path fill-rule="evenodd" clip-rule="evenodd" d="M44 34C44 39.5228 39.5228 44 34 44C28.4772 44 24 39.5228 24 34C24 28.4772 28.4772 24 34 24C39.5228 24 44 28.4772 44 34ZM35.7 27.7C35.7 26.7611 34.9389 26 34 26C33.0611 26 32.3 26.7611 32.3 27.7L32.3 33.7C32.3 34.6389 33.0611 35.4 34 35.4C34.9389 35.4 35.7 34.6389 35.7 33.7V27.7ZM34 41.7C32.9 41.7 32 40.8 32 39.7C32 38.6 32.9 37.7 34 37.7C35.1 37.7 36 38.6 36 39.7C36 40.8 35.1 41.7 34 41.7Z" fill="#333333"/>
</svg>
