<svg width="48" height="48" viewBox="0 0 48 48" fill="none" xmlns="http://www.w3.org/2000/svg">
<path d="M9.99844 12.4004C9.11478 12.4004 8.39844 13.1167 8.39844 14.0004C8.39844 14.884 9.11478 15.6004 9.99844 15.6004L37.9984 15.6004C38.8821 15.6004 39.5984 14.884 39.5984 14.0004C39.5984 13.1167 38.8821 12.4004 37.9984 12.4004H9.99844Z" fill="#333333"/>
<path fill-rule="evenodd" clip-rule="evenodd" d="M33.9994 44.0004C39.5222 44.0004 43.9994 39.5232 43.9994 34.0004C43.9994 28.4775 39.5222 24.0004 33.9994 24.0004C28.4765 24.0004 23.9994 28.4775 23.9994 34.0004C23.9994 39.5232 28.4765 44.0004 33.9994 44.0004ZM35.4991 29.0004C35.4991 28.172 34.8276 27.5004 33.9991 27.5004C33.1707 27.5004 32.4991 28.172 32.4991 29.0004V32.5002H28.9994C28.1709 32.5002 27.4994 33.1717 27.4994 34.0002C27.4994 34.8286 28.1709 35.5002 28.9994 35.5002H32.4991V39.0004C32.4991 39.8288 33.1707 40.5004 33.9991 40.5004C34.8276 40.5004 35.4991 39.8288 35.4991 39.0004V35.5002H38.9994C39.8278 35.5002 40.4994 34.8286 40.4994 34.0002C40.4994 33.1717 39.8278 32.5002 38.9994 32.5002H35.4991V29.0004Z" fill="#333333"/>
<path d="M8.39844 24.0004C8.39844 23.1167 9.11478 22.4004 9.99844 22.4004H18.9984C19.8821 22.4004 20.5984 23.1167 20.5984 24.0004C20.5984 24.884 19.8821 25.6004 18.9984 25.6004H9.99844C9.11478 25.6004 8.39844 24.884 8.39844 24.0004Z" fill="#333333"/>
<path d="M9.99844 32.4004C9.11478 32.4004 8.39844 33.1167 8.39844 34.0004C8.39844 34.884 9.11478 35.6004 9.99844 35.6004H18.9984C19.8821 35.6004 20.5984 34.884 20.5984 34.0004C20.5984 33.1167 19.8821 32.4004 18.9984 32.4004H9.99844Z" fill="#333333"/>
</svg>
