<svg width="1512" height="1000" viewBox="0 0 1512 1000" fill="none" xmlns="http://www.w3.org/2000/svg">
<rect width="756" height="500" transform="scale(2)" fill="#F6F6F6"/>
<path d="M77 500C77 472.386 99.3858 450 127 450H1387C1414.61 450 1437 472.386 1437 500C1437 527.614 1414.61 550 1387 550H127C99.3857 550 77 527.614 77 500Z" fill="#E5E5E5"/>
<path d="M93 500C93 481.222 108.222 466 127 466H217C235.778 466 251 481.222 251 500C251 518.778 235.778 534 217 534H127C108.222 534 93 518.778 93 500Z" fill="black"/>
<path d="M155.791 495.818L150.833 510H146.401L141.443 495.818H145.598L148.543 505.965H148.691L151.627 495.818H155.791ZM169.604 499.862L166.003 500.084C165.941 499.776 165.809 499.499 165.606 499.253C165.403 499 165.135 498.8 164.803 498.653C164.476 498.499 164.085 498.422 163.63 498.422C163.021 498.422 162.507 498.551 162.088 498.81C161.67 499.062 161.46 499.401 161.46 499.825C161.46 500.164 161.596 500.45 161.866 500.684C162.137 500.918 162.602 501.106 163.261 501.247L165.827 501.764C167.206 502.047 168.234 502.503 168.911 503.131C169.588 503.759 169.927 504.583 169.927 505.605C169.927 506.535 169.653 507.35 169.105 508.052C168.563 508.754 167.819 509.301 166.871 509.695C165.929 510.083 164.843 510.277 163.612 510.277C161.734 510.277 160.238 509.886 159.124 509.104C158.016 508.317 157.367 507.246 157.176 505.891L161.045 505.688C161.162 506.261 161.445 506.698 161.894 506.999C162.344 507.295 162.919 507.442 163.621 507.442C164.31 507.442 164.864 507.31 165.283 507.045C165.707 506.775 165.923 506.427 165.929 506.002C165.923 505.645 165.772 505.353 165.477 505.125C165.181 504.891 164.726 504.713 164.11 504.589L161.654 504.1C160.269 503.823 159.238 503.343 158.561 502.66C157.89 501.977 157.555 501.106 157.555 500.047C157.555 499.136 157.801 498.351 158.293 497.692C158.792 497.034 159.491 496.526 160.389 496.169C161.294 495.812 162.353 495.634 163.565 495.634C165.357 495.634 166.766 496.012 167.794 496.769C168.828 497.526 169.431 498.557 169.604 499.862ZM177.629 510.231C176.552 510.231 175.577 509.954 174.703 509.4C173.835 508.84 173.145 508.018 172.634 506.935C172.13 505.845 171.877 504.509 171.877 502.928C171.877 501.303 172.139 499.951 172.662 498.874C173.185 497.791 173.881 496.982 174.749 496.446C175.623 495.904 176.58 495.634 177.62 495.634C178.414 495.634 179.076 495.769 179.605 496.04C180.141 496.304 180.572 496.637 180.898 497.037C181.23 497.431 181.483 497.819 181.655 498.2H181.775V491.091H185.699V510H181.821V507.729H181.655C181.47 508.123 181.209 508.513 180.87 508.901C180.538 509.283 180.104 509.6 179.568 509.852C179.039 510.105 178.393 510.231 177.629 510.231ZM178.876 507.101C179.51 507.101 180.045 506.929 180.482 506.584C180.926 506.233 181.264 505.744 181.498 505.116C181.738 504.488 181.858 503.752 181.858 502.909C181.858 502.066 181.741 501.333 181.507 500.712C181.273 500.09 180.935 499.61 180.492 499.271C180.048 498.933 179.51 498.763 178.876 498.763C178.23 498.763 177.685 498.939 177.242 499.29C176.798 499.641 176.463 500.127 176.235 500.749C176.008 501.37 175.894 502.09 175.894 502.909C175.894 503.734 176.008 504.463 176.235 505.097C176.469 505.725 176.805 506.218 177.242 506.575C177.685 506.925 178.23 507.101 178.876 507.101ZM200.733 499.862L197.132 500.084C197.07 499.776 196.938 499.499 196.735 499.253C196.532 499 196.264 498.8 195.931 498.653C195.605 498.499 195.214 498.422 194.759 498.422C194.15 498.422 193.636 498.551 193.217 498.81C192.798 499.062 192.589 499.401 192.589 499.825C192.589 500.164 192.725 500.45 192.995 500.684C193.266 500.918 193.731 501.106 194.39 501.247L196.956 501.764C198.335 502.047 199.363 502.503 200.04 503.131C200.717 503.759 201.056 504.583 201.056 505.605C201.056 506.535 200.782 507.35 200.234 508.052C199.692 508.754 198.948 509.301 198 509.695C197.058 510.083 195.971 510.277 194.74 510.277C192.863 510.277 191.367 509.886 190.253 509.104C189.145 508.317 188.496 507.246 188.305 505.891L192.174 505.688C192.291 506.261 192.574 506.698 193.023 506.999C193.472 507.295 194.048 507.442 194.75 507.442C195.439 507.442 195.993 507.31 196.412 507.045C196.836 506.775 197.052 506.427 197.058 506.002C197.052 505.645 196.901 505.353 196.605 505.125C196.31 504.891 195.855 504.713 195.239 504.589L192.783 504.1C191.398 503.823 190.367 503.343 189.69 502.66C189.019 501.977 188.684 501.106 188.684 500.047C188.684 499.136 188.93 498.351 189.422 497.692C189.921 497.034 190.619 496.526 191.518 496.169C192.423 495.812 193.482 495.634 194.694 495.634C196.485 495.634 197.895 496.012 198.923 496.769C199.957 497.526 200.56 498.557 200.733 499.862Z" fill="white"/>
<path d="M274.534 508.707V496.52H276.602V508.707H274.534ZM269.474 503.648V501.58H281.662V503.648H269.474Z" fill="#4D4D4D"/>
<path d="M301 500C301 481.222 316.222 466 335 466H409C427.778 466 443 481.222 443 500C443 518.778 427.778 534 409 534H335C316.222 534 301 518.778 301 500Z" fill="black"/>
<path d="M362.369 499.862L358.768 500.084C358.707 499.776 358.575 499.499 358.371 499.253C358.168 499 357.901 498.8 357.568 498.653C357.242 498.499 356.851 498.422 356.396 498.422C355.786 498.422 355.272 498.551 354.854 498.81C354.435 499.062 354.226 499.401 354.226 499.825C354.226 500.164 354.361 500.45 354.632 500.684C354.903 500.918 355.368 501.106 356.026 501.247L358.593 501.764C359.972 502.047 361 502.503 361.677 503.131C362.354 503.759 362.692 504.583 362.692 505.605C362.692 506.535 362.419 507.35 361.871 508.052C361.329 508.754 360.584 509.301 359.636 509.695C358.695 510.083 357.608 510.277 356.377 510.277C354.5 510.277 353.004 509.886 351.89 509.104C350.782 508.317 350.133 507.246 349.942 505.891L353.81 505.688C353.927 506.261 354.21 506.698 354.66 506.999C355.109 507.295 355.685 507.442 356.386 507.442C357.076 507.442 357.63 507.31 358.048 507.045C358.473 506.775 358.688 506.427 358.695 506.002C358.688 505.645 358.538 505.353 358.242 505.125C357.947 504.891 357.491 504.713 356.876 504.589L354.42 504.1C353.035 503.823 352.004 503.343 351.327 502.66C350.656 501.977 350.32 501.106 350.32 500.047C350.32 499.136 350.567 498.351 351.059 497.692C351.558 497.034 352.256 496.526 353.155 496.169C354.06 495.812 355.118 495.634 356.331 495.634C358.122 495.634 359.532 496.012 360.56 496.769C361.594 497.526 362.197 498.557 362.369 499.862ZM367.597 515.318C367.099 515.318 366.631 515.278 366.194 515.198C365.763 515.124 365.406 515.029 365.123 514.912L366.009 511.976C366.471 512.117 366.887 512.194 367.256 512.207C367.631 512.219 367.954 512.133 368.225 511.948C368.502 511.763 368.727 511.45 368.899 511.006L369.13 510.406L364.043 495.818H368.179L371.115 506.233H371.263L374.227 495.818H378.391L372.879 511.533C372.614 512.296 372.254 512.961 371.798 513.527C371.349 514.099 370.78 514.54 370.09 514.847C369.401 515.161 368.57 515.318 367.597 515.318ZM392.203 499.862L388.602 500.084C388.541 499.776 388.409 499.499 388.205 499.253C388.002 499 387.735 498.8 387.402 498.653C387.076 498.499 386.685 498.422 386.23 498.422C385.62 498.422 385.106 498.551 384.688 498.81C384.269 499.062 384.06 499.401 384.06 499.825C384.06 500.164 384.195 500.45 384.466 500.684C384.737 500.918 385.202 501.106 385.86 501.247L388.427 501.764C389.806 502.047 390.834 502.503 391.511 503.131C392.188 503.759 392.526 504.583 392.526 505.605C392.526 506.535 392.253 507.35 391.705 508.052C391.163 508.754 390.418 509.301 389.47 509.695C388.529 510.083 387.442 510.277 386.211 510.277C384.334 510.277 382.838 509.886 381.724 509.104C380.616 508.317 379.967 507.246 379.776 505.891L383.644 505.688C383.761 506.261 384.044 506.698 384.494 506.999C384.943 507.295 385.519 507.442 386.22 507.442C386.91 507.442 387.464 507.31 387.882 507.045C388.307 506.775 388.522 506.427 388.529 506.002C388.522 505.645 388.372 505.353 388.076 505.125C387.781 504.891 387.325 504.713 386.71 504.589L384.254 504.1C382.869 503.823 381.838 503.343 381.161 502.66C380.49 501.977 380.154 501.106 380.154 500.047C380.154 499.136 380.401 498.351 380.893 497.692C381.392 497.034 382.09 496.526 382.989 496.169C383.894 495.812 384.952 495.634 386.165 495.634C387.956 495.634 389.366 496.012 390.394 496.769C391.428 497.526 392.031 498.557 392.203 499.862Z" fill="white"/>
<path d="M466.534 508.707V496.52H468.602V508.707H466.534ZM461.474 503.648V501.58H473.662V503.648H461.474Z" fill="#4D4D4D"/>
<path d="M493 500C493 481.222 508.222 466 527 466H745C763.778 466 779 481.222 779 500C779 518.778 763.778 534 745 534H527C508.222 534 493 518.778 493 500Z" fill="#3C5AAA"/>
<path d="M546.06 491.091L550.63 505.457H550.805L555.385 491.091H559.817L553.298 510H548.146L541.619 491.091H546.06ZM562.019 510V495.818H565.952V510H562.019ZM563.995 493.99C563.41 493.99 562.908 493.796 562.49 493.408C562.077 493.014 561.871 492.544 561.871 491.996C561.871 491.454 562.077 490.989 562.49 490.602C562.908 490.208 563.41 490.011 563.995 490.011C564.579 490.011 565.078 490.208 565.49 490.602C565.909 490.989 566.118 491.454 566.118 491.996C566.118 492.544 565.909 493.014 565.49 493.408C565.078 493.796 564.579 493.99 563.995 493.99ZM580.903 499.862L577.302 500.084C577.24 499.776 577.108 499.499 576.905 499.253C576.702 499 576.434 498.8 576.101 498.653C575.775 498.499 575.384 498.422 574.929 498.422C574.319 498.422 573.805 498.551 573.387 498.81C572.968 499.062 572.759 499.401 572.759 499.825C572.759 500.164 572.894 500.45 573.165 500.684C573.436 500.918 573.901 501.106 574.559 501.247L577.126 501.764C578.505 502.047 579.533 502.503 580.21 503.131C580.887 503.759 581.226 504.583 581.226 505.605C581.226 506.535 580.952 507.35 580.404 508.052C579.862 508.754 579.117 509.301 578.17 509.695C577.228 510.083 576.141 510.277 574.91 510.277C573.033 510.277 571.537 509.886 570.423 509.104C569.315 508.317 568.666 507.246 568.475 505.891L572.344 505.688C572.461 506.261 572.744 506.698 573.193 506.999C573.642 507.295 574.218 507.442 574.92 507.442C575.609 507.442 576.163 507.31 576.581 507.045C577.006 506.775 577.222 506.427 577.228 506.002C577.222 505.645 577.071 505.353 576.775 505.125C576.48 504.891 576.024 504.713 575.409 504.589L572.953 504.1C571.568 503.823 570.537 503.343 569.86 502.66C569.189 501.977 568.854 501.106 568.854 500.047C568.854 499.136 569.1 498.351 569.592 497.692C570.091 497.034 570.789 496.526 571.688 496.169C572.593 495.812 573.652 495.634 574.864 495.634C576.655 495.634 578.065 496.012 579.093 496.769C580.127 497.526 580.73 498.557 580.903 499.862ZM592.797 503.962V495.818H596.73V510H592.954V507.424H592.806C592.486 508.255 591.954 508.923 591.209 509.428C590.47 509.932 589.568 510.185 588.504 510.185C587.556 510.185 586.722 509.969 586.001 509.538C585.281 509.107 584.718 508.495 584.312 507.701C583.912 506.907 583.709 505.956 583.702 504.848V495.818H587.636V504.146C587.642 504.983 587.866 505.645 588.31 506.131C588.753 506.618 589.347 506.861 590.092 506.861C590.566 506.861 591.009 506.753 591.421 506.538C591.834 506.316 592.166 505.99 592.418 505.559C592.677 505.128 592.803 504.596 592.797 503.962ZM603.92 510.268C603.015 510.268 602.209 510.111 601.501 509.797C600.793 509.477 600.233 509.006 599.821 508.384C599.415 507.756 599.211 506.975 599.211 506.039C599.211 505.251 599.356 504.589 599.645 504.054C599.935 503.518 600.329 503.088 600.827 502.761C601.326 502.435 601.892 502.189 602.526 502.023C603.166 501.857 603.837 501.74 604.539 501.672C605.364 501.586 606.028 501.506 606.533 501.432C607.038 501.352 607.404 501.235 607.632 501.081C607.86 500.927 607.974 500.699 607.974 500.398V500.342C607.974 499.758 607.789 499.305 607.42 498.985C607.056 498.665 606.539 498.505 605.868 498.505C605.161 498.505 604.597 498.662 604.179 498.976C603.76 499.284 603.483 499.671 603.348 500.139L599.71 499.844C599.895 498.982 600.258 498.237 600.8 497.609C601.341 496.975 602.04 496.489 602.895 496.151C603.757 495.806 604.754 495.634 605.887 495.634C606.675 495.634 607.429 495.726 608.149 495.911C608.875 496.095 609.519 496.381 610.079 496.769C610.645 497.157 611.091 497.656 611.417 498.265C611.744 498.868 611.907 499.591 611.907 500.435V510H608.177V508.033H608.066C607.838 508.477 607.533 508.867 607.152 509.206C606.77 509.538 606.312 509.8 605.776 509.991C605.241 510.175 604.622 510.268 603.92 510.268ZM605.047 507.553C605.625 507.553 606.136 507.439 606.579 507.212C607.023 506.978 607.37 506.664 607.623 506.27C607.875 505.876 608.001 505.43 608.001 504.931V503.426C607.878 503.506 607.709 503.58 607.493 503.648C607.284 503.709 607.047 503.768 606.782 503.823C606.518 503.872 606.253 503.919 605.988 503.962C605.724 503.999 605.484 504.032 605.268 504.063C604.807 504.131 604.403 504.239 604.059 504.386C603.714 504.534 603.446 504.734 603.256 504.987C603.065 505.233 602.969 505.54 602.969 505.91C602.969 506.445 603.163 506.855 603.551 507.138C603.945 507.415 604.443 507.553 605.047 507.553ZM618.892 491.091V510H614.958V491.091H618.892ZM634.523 510.277C633.064 510.277 631.808 509.982 630.756 509.391C629.709 508.794 628.903 507.95 628.337 506.861C627.771 505.765 627.487 504.469 627.487 502.974C627.487 501.515 627.771 500.235 628.337 499.133C628.903 498.031 629.7 497.172 630.728 496.557C631.762 495.941 632.975 495.634 634.366 495.634C635.302 495.634 636.173 495.784 636.979 496.086C637.791 496.381 638.499 496.828 639.102 497.425C639.712 498.022 640.186 498.773 640.524 499.678C640.863 500.576 641.032 501.629 641.032 502.835V503.915H629.057V501.478H637.33C637.33 500.912 637.207 500.41 636.96 499.973C636.714 499.536 636.373 499.194 635.936 498.948C635.505 498.696 635.003 498.57 634.431 498.57C633.834 498.57 633.304 498.708 632.843 498.985C632.387 499.256 632.03 499.622 631.771 500.084C631.513 500.539 631.381 501.047 631.374 501.607V503.925C631.374 504.626 631.504 505.233 631.762 505.744C632.027 506.254 632.399 506.648 632.879 506.925C633.36 507.202 633.929 507.341 634.588 507.341C635.025 507.341 635.425 507.279 635.788 507.156C636.151 507.033 636.462 506.848 636.72 506.602C636.979 506.356 637.176 506.054 637.311 505.697L640.949 505.938C640.764 506.812 640.386 507.575 639.813 508.227C639.247 508.874 638.515 509.378 637.616 509.741C636.723 510.098 635.692 510.277 634.523 510.277ZM647.532 491.091V510H643.599V491.091H647.532ZM657.146 510.277C655.687 510.277 654.431 509.982 653.379 509.391C652.333 508.794 651.526 507.95 650.96 506.861C650.394 505.765 650.11 504.469 650.11 502.974C650.11 501.515 650.394 500.235 650.96 499.133C651.526 498.031 652.323 497.172 653.351 496.557C654.385 495.941 655.598 495.634 656.989 495.634C657.925 495.634 658.796 495.784 659.602 496.086C660.414 496.381 661.122 496.828 661.725 497.425C662.335 498.022 662.809 498.773 663.147 499.678C663.486 500.576 663.655 501.629 663.655 502.835V503.915H651.68V501.478H659.953C659.953 500.912 659.83 500.41 659.583 499.973C659.337 499.536 658.996 499.194 658.559 498.948C658.128 498.696 657.626 498.57 657.054 498.57C656.457 498.57 655.927 498.708 655.466 498.985C655.01 499.256 654.653 499.622 654.395 500.084C654.136 500.539 654.004 501.047 653.998 501.607V503.925C653.998 504.626 654.127 505.233 654.385 505.744C654.65 506.254 655.022 506.648 655.502 506.925C655.983 507.202 656.552 507.341 657.211 507.341C657.648 507.341 658.048 507.279 658.411 507.156C658.774 507.033 659.085 506.848 659.343 506.602C659.602 506.356 659.799 506.054 659.934 505.697L663.572 505.938C663.387 506.812 663.009 507.575 662.436 508.227C661.87 508.874 661.138 509.378 660.239 509.741C659.346 510.098 658.315 510.277 657.146 510.277ZM666.222 510V495.818H669.971V498.32H670.137C670.432 497.489 670.925 496.834 671.614 496.354C672.303 495.874 673.128 495.634 674.088 495.634C675.061 495.634 675.889 495.877 676.572 496.363C677.255 496.843 677.711 497.496 677.939 498.32H678.086C678.376 497.508 678.899 496.858 679.656 496.372C680.419 495.88 681.321 495.634 682.361 495.634C683.685 495.634 684.759 496.055 685.583 496.898C686.414 497.736 686.83 498.924 686.83 500.462V510H682.906V501.238C682.906 500.45 682.697 499.859 682.278 499.465C681.859 499.071 681.336 498.874 680.708 498.874C679.994 498.874 679.437 499.102 679.037 499.558C678.637 500.007 678.437 500.601 678.437 501.339V510H674.624V501.155C674.624 500.459 674.424 499.905 674.024 499.493C673.63 499.08 673.11 498.874 672.463 498.874C672.026 498.874 671.632 498.985 671.282 499.207C670.937 499.422 670.663 499.727 670.46 500.121C670.257 500.509 670.155 500.964 670.155 501.487V510H666.222ZM696.4 510.277C694.941 510.277 693.685 509.982 692.633 509.391C691.586 508.794 690.78 507.95 690.214 506.861C689.647 505.765 689.364 504.469 689.364 502.974C689.364 501.515 689.647 500.235 690.214 499.133C690.78 498.031 691.577 497.172 692.605 496.557C693.639 495.941 694.852 495.634 696.243 495.634C697.179 495.634 698.049 495.784 698.856 496.086C699.668 496.381 700.376 496.828 700.979 497.425C701.589 498.022 702.063 498.773 702.401 499.678C702.74 500.576 702.909 501.629 702.909 502.835V503.915H690.934V501.478H699.207C699.207 500.912 699.084 500.41 698.837 499.973C698.591 499.536 698.25 499.194 697.812 498.948C697.382 498.696 696.88 498.57 696.308 498.57C695.71 498.57 695.181 498.708 694.719 498.985C694.264 499.256 693.907 499.622 693.648 500.084C693.39 500.539 693.258 501.047 693.251 501.607V503.925C693.251 504.626 693.381 505.233 693.639 505.744C693.904 506.254 694.276 506.648 694.756 506.925C695.237 507.202 695.806 507.341 696.464 507.341C696.902 507.341 697.302 507.279 697.665 507.156C698.028 507.033 698.339 506.848 698.597 506.602C698.856 506.356 699.053 506.054 699.188 505.697L702.826 505.938C702.641 506.812 702.263 507.575 701.69 508.227C701.124 508.874 700.392 509.378 699.493 509.741C698.6 510.098 697.569 510.277 696.4 510.277ZM709.409 501.801V510H705.476V495.818H709.224V498.32H709.391C709.705 497.496 710.231 496.843 710.969 496.363C711.708 495.877 712.604 495.634 713.656 495.634C714.641 495.634 715.5 495.849 716.232 496.28C716.965 496.711 717.534 497.326 717.94 498.126C718.347 498.92 718.55 499.868 718.55 500.97V510H714.616V501.672C714.623 500.804 714.401 500.127 713.952 499.641C713.502 499.148 712.884 498.902 712.096 498.902C711.567 498.902 711.099 499.016 710.692 499.244C710.292 499.471 709.978 499.804 709.751 500.241C709.529 500.672 709.415 501.192 709.409 501.801ZM729.193 495.818V498.773H720.653V495.818H729.193ZM722.591 492.42H726.525V505.642C726.525 506.005 726.58 506.288 726.691 506.491C726.802 506.688 726.956 506.827 727.153 506.907C727.356 506.987 727.59 507.027 727.854 507.027C728.039 507.027 728.224 507.012 728.408 506.981C728.593 506.944 728.734 506.916 728.833 506.898L729.452 509.825C729.255 509.886 728.978 509.957 728.621 510.037C728.264 510.123 727.83 510.175 727.319 510.194C726.371 510.231 725.54 510.105 724.826 509.815C724.118 509.526 723.567 509.077 723.173 508.467C722.779 507.858 722.585 507.089 722.591 506.159V492.42Z" fill="white"/>
<path d="M802.534 508.707V496.52H804.602V508.707H802.534ZM797.474 503.648V501.58H809.662V503.648H797.474Z" fill="#4D4D4D"/>
<path d="M829 500C829 481.222 844.222 466 863 466H947C965.778 466 981 481.222 981 500C981 518.778 965.778 534 947 534H863C844.222 534 829 518.778 829 500Z" fill="#3C5AAA"/>
<path d="M878.643 510V491.091H886.104C887.532 491.091 888.75 491.346 889.76 491.857C890.776 492.362 891.548 493.079 892.077 494.009C892.613 494.932 892.881 496.018 892.881 497.268C892.881 498.523 892.61 499.604 892.068 500.509C891.527 501.407 890.742 502.097 889.714 502.577C888.692 503.057 887.455 503.297 886.002 503.297H881.007V500.084H885.356C886.119 500.084 886.753 499.979 887.258 499.77C887.763 499.561 888.138 499.247 888.384 498.828C888.637 498.41 888.763 497.889 888.763 497.268C888.763 496.64 888.637 496.111 888.384 495.68C888.138 495.249 887.759 494.923 887.249 494.701C886.744 494.473 886.107 494.359 885.337 494.359H882.641V510H878.643ZM888.855 501.395L893.555 510H889.141L884.543 501.395H888.855ZM901.811 510.277C900.377 510.277 899.137 509.972 898.09 509.363C897.05 508.747 896.247 507.892 895.681 506.796C895.114 505.694 894.831 504.417 894.831 502.964C894.831 501.5 895.114 500.219 895.681 499.124C896.247 498.022 897.05 497.166 898.09 496.557C899.137 495.941 900.377 495.634 901.811 495.634C903.245 495.634 904.483 495.941 905.523 496.557C906.569 497.166 907.376 498.022 907.942 499.124C908.508 500.219 908.791 501.5 908.791 502.964C908.791 504.417 908.508 505.694 907.942 506.796C907.376 507.892 906.569 508.747 905.523 509.363C904.483 509.972 903.245 510.277 901.811 510.277ZM901.83 507.23C902.482 507.23 903.027 507.045 903.464 506.676C903.901 506.301 904.23 505.79 904.452 505.143C904.68 504.497 904.794 503.762 904.794 502.937C904.794 502.112 904.68 501.376 904.452 500.73C904.23 500.084 903.901 499.573 903.464 499.197C903.027 498.822 902.482 498.634 901.83 498.634C901.171 498.634 900.617 498.822 900.168 499.197C899.725 499.573 899.389 500.084 899.161 500.73C898.94 501.376 898.829 502.112 898.829 502.937C898.829 503.762 898.94 504.497 899.161 505.143C899.389 505.79 899.725 506.301 900.168 506.676C900.617 507.045 901.171 507.23 901.83 507.23ZM915.282 491.091V510H911.349V491.091H915.282ZM924.896 510.277C923.437 510.277 922.181 509.982 921.129 509.391C920.083 508.794 919.276 507.95 918.71 506.861C918.144 505.765 917.86 504.469 917.86 502.974C917.86 501.515 918.144 500.235 918.71 499.133C919.276 498.031 920.073 497.172 921.101 496.557C922.135 495.941 923.348 495.634 924.739 495.634C925.675 495.634 926.546 495.784 927.352 496.086C928.164 496.381 928.872 496.828 929.475 497.425C930.085 498.022 930.559 498.773 930.897 499.678C931.236 500.576 931.405 501.629 931.405 502.835V503.915H919.43V501.478H927.703C927.703 500.912 927.58 500.41 927.333 499.973C927.087 499.536 926.746 499.194 926.309 498.948C925.878 498.696 925.376 498.57 924.804 498.57C924.207 498.57 923.677 498.708 923.216 498.985C922.76 499.256 922.403 499.622 922.145 500.084C921.886 500.539 921.754 501.047 921.748 501.607V503.925C921.748 504.626 921.877 505.233 922.135 505.744C922.4 506.254 922.772 506.648 923.252 506.925C923.733 507.202 924.302 507.341 924.961 507.341C925.398 507.341 925.798 507.279 926.161 507.156C926.524 507.033 926.835 506.848 927.093 506.602C927.352 506.356 927.549 506.054 927.684 505.697L931.322 505.938C931.137 506.812 930.759 507.575 930.186 508.227C929.62 508.874 928.888 509.378 927.989 509.741C927.096 510.098 926.065 510.277 924.896 510.277Z" fill="white"/>
<path d="M1004.53 508.707V496.52H1006.6V508.707H1004.53ZM999.474 503.648V501.58H1011.66V503.648H999.474Z" fill="#4D4D4D"/>
<path d="M1031 500C1031 481.222 1046.22 466 1065 466H1149C1167.78 466 1183 481.222 1183 500C1183 518.778 1167.78 534 1149 534H1065C1046.22 534 1031 518.778 1031 500Z" fill="#3C5AAA"/>
<path d="M1090.9 496.529C1090.83 495.784 1090.51 495.206 1089.95 494.793C1089.39 494.381 1088.63 494.175 1087.67 494.175C1087.02 494.175 1086.47 494.267 1086.02 494.452C1085.57 494.63 1085.22 494.879 1084.98 495.2C1084.75 495.52 1084.63 495.883 1084.63 496.289C1084.62 496.628 1084.69 496.923 1084.84 497.175C1085 497.428 1085.22 497.646 1085.5 497.831C1085.78 498.009 1086.1 498.166 1086.46 498.302C1086.82 498.431 1087.21 498.542 1087.62 498.634L1089.32 499.04C1090.15 499.225 1090.9 499.471 1091.59 499.779C1092.28 500.087 1092.88 500.465 1093.38 500.915C1093.89 501.364 1094.28 501.893 1094.56 502.503C1094.84 503.112 1094.99 503.811 1094.99 504.599C1094.99 505.756 1094.69 506.759 1094.11 507.609C1093.53 508.452 1092.69 509.107 1091.59 509.575C1090.5 510.037 1089.19 510.268 1087.65 510.268C1086.12 510.268 1084.8 510.034 1083.66 509.566C1082.54 509.098 1081.66 508.406 1081.02 507.489C1080.39 506.565 1080.06 505.424 1080.03 504.063H1083.9C1083.95 504.697 1084.13 505.227 1084.45 505.651C1084.77 506.07 1085.21 506.387 1085.75 506.602C1086.3 506.812 1086.92 506.916 1087.61 506.916C1088.28 506.916 1088.87 506.818 1089.37 506.621C1089.87 506.424 1090.26 506.15 1090.54 505.799C1090.82 505.448 1090.96 505.045 1090.96 504.589C1090.96 504.165 1090.83 503.808 1090.58 503.518C1090.33 503.229 1089.97 502.983 1089.49 502.78C1089.01 502.577 1088.43 502.392 1087.74 502.226L1085.68 501.709C1084.09 501.321 1082.83 500.715 1081.91 499.89C1080.99 499.065 1080.53 497.954 1080.53 496.557C1080.53 495.412 1080.83 494.412 1081.45 493.556C1082.07 492.701 1082.92 492.033 1084 491.553C1085.09 491.072 1086.32 490.832 1087.7 490.832C1089.1 490.832 1090.33 491.072 1091.37 491.553C1092.42 492.033 1093.24 492.701 1093.83 493.556C1094.41 494.412 1094.71 495.403 1094.73 496.529H1090.9ZM1097.61 510V495.818H1101.54V510H1097.61ZM1099.58 493.99C1099 493.99 1098.5 493.796 1098.08 493.408C1097.67 493.014 1097.46 492.544 1097.46 491.996C1097.46 491.454 1097.67 490.989 1098.08 490.602C1098.5 490.208 1099 490.011 1099.58 490.011C1100.17 490.011 1100.67 490.208 1101.08 490.602C1101.5 490.989 1101.71 491.454 1101.71 491.996C1101.71 492.544 1101.5 493.014 1101.08 493.408C1100.67 493.796 1100.17 493.99 1099.58 493.99ZM1104.62 510V507.655L1111.56 499.059V498.957H1104.86V495.818H1116.3V498.376L1109.78 506.759V506.861H1116.54V510H1104.62ZM1125.6 510.277C1124.14 510.277 1122.89 509.982 1121.83 509.391C1120.79 508.794 1119.98 507.95 1119.41 506.861C1118.85 505.765 1118.57 504.469 1118.57 502.974C1118.57 501.515 1118.85 500.235 1119.41 499.133C1119.98 498.031 1120.78 497.172 1121.81 496.557C1122.84 495.941 1124.05 495.634 1125.44 495.634C1126.38 495.634 1127.25 495.784 1128.06 496.086C1128.87 496.381 1129.58 496.828 1130.18 497.425C1130.79 498.022 1131.26 498.773 1131.6 499.678C1131.94 500.576 1132.11 501.629 1132.11 502.835V503.915H1120.14V501.478H1128.41C1128.41 500.912 1128.28 500.41 1128.04 499.973C1127.79 499.536 1127.45 499.194 1127.01 498.948C1126.58 498.696 1126.08 498.57 1125.51 498.57C1124.91 498.57 1124.38 498.708 1123.92 498.985C1123.47 499.256 1123.11 499.622 1122.85 500.084C1122.59 500.539 1122.46 501.047 1122.45 501.607V503.925C1122.45 504.626 1122.58 505.233 1122.84 505.744C1123.11 506.254 1123.48 506.648 1123.96 506.925C1124.44 507.202 1125.01 507.341 1125.67 507.341C1126.1 507.341 1126.5 507.279 1126.87 507.156C1127.23 507.033 1127.54 506.848 1127.8 506.602C1128.06 506.356 1128.25 506.054 1128.39 505.697L1132.03 505.938C1131.84 506.812 1131.46 507.575 1130.89 508.227C1130.33 508.874 1129.59 509.378 1128.69 509.741C1127.8 510.098 1126.77 510.277 1125.6 510.277Z" fill="white"/>
<path d="M1206.53 508.707V496.52H1208.6V508.707H1206.53ZM1201.47 503.648V501.58H1213.66V503.648H1201.47Z" fill="#4D4D4D"/>
<path d="M1233 500C1233 481.222 1248.22 466 1267 466H1387C1405.78 466 1421 481.222 1421 500C1421 518.778 1405.78 534 1387 534H1267C1248.22 534 1233 518.778 1233 500Z" fill="#3C5AAA"/>
<path d="M1286.9 510L1281.49 491.091H1285.86L1288.99 504.229H1289.14L1292.6 491.091H1296.34L1299.78 504.257H1299.95L1303.08 491.091H1307.44L1302.03 510H1298.14L1294.54 497.637H1294.39L1290.8 510H1286.9ZM1314.45 510.277C1312.99 510.277 1311.73 509.982 1310.68 509.391C1309.64 508.794 1308.83 507.95 1308.26 506.861C1307.7 505.765 1307.41 504.469 1307.41 502.974C1307.41 501.515 1307.7 500.235 1308.26 499.133C1308.83 498.031 1309.63 497.172 1310.65 496.557C1311.69 495.941 1312.9 495.634 1314.29 495.634C1315.23 495.634 1316.1 495.784 1316.9 496.086C1317.72 496.381 1318.43 496.828 1319.03 497.425C1319.64 498.022 1320.11 498.773 1320.45 499.678C1320.79 500.576 1320.96 501.629 1320.96 502.835V503.915H1308.98V501.478H1317.26C1317.26 500.912 1317.13 500.41 1316.89 499.973C1316.64 499.536 1316.3 499.194 1315.86 498.948C1315.43 498.696 1314.93 498.57 1314.36 498.57C1313.76 498.57 1313.23 498.708 1312.77 498.985C1312.31 499.256 1311.96 499.622 1311.7 500.084C1311.44 500.539 1311.31 501.047 1311.3 501.607V503.925C1311.3 504.626 1311.43 505.233 1311.69 505.744C1311.95 506.254 1312.33 506.648 1312.81 506.925C1313.29 507.202 1313.85 507.341 1314.51 507.341C1314.95 507.341 1315.35 507.279 1315.71 507.156C1316.08 507.033 1316.39 506.848 1316.65 506.602C1316.9 506.356 1317.1 506.054 1317.24 505.697L1320.87 505.938C1320.69 506.812 1320.31 507.575 1319.74 508.227C1319.17 508.874 1318.44 509.378 1317.54 509.741C1316.65 510.098 1315.62 510.277 1314.45 510.277ZM1323.52 510V495.818H1327.46V510H1323.52ZM1325.5 493.99C1324.92 493.99 1324.41 493.796 1324 493.408C1323.58 493.014 1323.38 492.544 1323.38 491.996C1323.38 491.454 1323.58 490.989 1324 490.602C1324.41 490.208 1324.92 490.011 1325.5 490.011C1326.09 490.011 1326.58 490.208 1327 490.602C1327.41 490.989 1327.62 491.454 1327.62 491.996C1327.62 492.544 1327.41 493.014 1327 493.408C1326.58 493.796 1326.09 493.99 1325.5 493.99ZM1337 515.614C1335.72 515.614 1334.63 515.438 1333.72 515.087C1332.82 514.743 1332.1 514.272 1331.56 513.675C1331.02 513.078 1330.68 512.407 1330.52 511.662L1334.15 511.173C1334.26 511.456 1334.44 511.72 1334.68 511.967C1334.92 512.213 1335.24 512.41 1335.63 512.558C1336.03 512.711 1336.52 512.788 1337.09 512.788C1337.95 512.788 1338.65 512.579 1339.2 512.161C1339.76 511.748 1340.04 511.056 1340.04 510.083V507.489H1339.88C1339.71 507.883 1339.45 508.255 1339.1 508.606C1338.76 508.957 1338.32 509.243 1337.77 509.464C1337.23 509.686 1336.59 509.797 1335.83 509.797C1334.77 509.797 1333.8 509.551 1332.93 509.058C1332.06 508.56 1331.37 507.799 1330.85 506.778C1330.34 505.75 1330.08 504.451 1330.08 502.881C1330.08 501.275 1330.34 499.933 1330.87 498.856C1331.39 497.779 1332.09 496.972 1332.95 496.437C1333.83 495.901 1334.79 495.634 1335.83 495.634C1336.62 495.634 1337.28 495.769 1337.82 496.04C1338.36 496.304 1338.79 496.637 1339.11 497.037C1339.44 497.431 1339.7 497.819 1339.88 498.2H1340.03V495.818H1343.93V510.138C1343.93 511.345 1343.64 512.354 1343.05 513.167C1342.45 513.979 1341.64 514.589 1340.59 514.995C1339.55 515.407 1338.35 515.614 1337 515.614ZM1337.08 506.842C1337.71 506.842 1338.25 506.685 1338.69 506.371C1339.13 506.051 1339.47 505.596 1339.7 505.005C1339.94 504.408 1340.06 503.694 1340.06 502.863C1340.06 502.032 1339.95 501.312 1339.71 500.702C1339.48 500.087 1339.14 499.61 1338.7 499.271C1338.25 498.933 1337.71 498.763 1337.08 498.763C1336.43 498.763 1335.89 498.939 1335.45 499.29C1335 499.634 1334.67 500.115 1334.44 500.73C1334.21 501.346 1334.1 502.057 1334.1 502.863C1334.1 503.682 1334.21 504.389 1334.44 504.987C1334.67 505.577 1335.01 506.036 1335.45 506.362C1335.89 506.682 1336.43 506.842 1337.08 506.842ZM1351 501.801V510H1347.06V491.091H1350.88V498.32H1351.05C1351.37 497.483 1351.89 496.828 1352.6 496.354C1353.32 495.874 1354.21 495.634 1355.29 495.634C1356.27 495.634 1357.13 495.849 1357.86 496.28C1358.6 496.705 1359.18 497.317 1359.58 498.117C1359.99 498.911 1360.2 499.862 1360.19 500.97V510H1356.26V501.672C1356.26 500.798 1356.04 500.118 1355.59 499.631C1355.15 499.145 1354.53 498.902 1353.73 498.902C1353.19 498.902 1352.72 499.016 1352.31 499.244C1351.9 499.471 1351.58 499.804 1351.35 500.241C1351.12 500.672 1351 501.192 1351 501.801ZM1370.83 495.818V498.773H1362.29V495.818H1370.83ZM1364.23 492.42H1368.16V505.642C1368.16 506.005 1368.22 506.288 1368.33 506.491C1368.44 506.688 1368.59 506.827 1368.79 506.907C1368.99 506.987 1369.23 507.027 1369.49 507.027C1369.68 507.027 1369.86 507.012 1370.04 506.981C1370.23 506.944 1370.37 506.916 1370.47 506.898L1371.09 509.825C1370.89 509.886 1370.61 509.957 1370.26 510.037C1369.9 510.123 1369.47 510.175 1368.96 510.194C1368.01 510.231 1367.18 510.105 1366.46 509.815C1365.75 509.526 1365.2 509.077 1364.81 508.467C1364.42 507.858 1364.22 507.089 1364.23 506.159V492.42Z" fill="white"/>
<path d="M251.8 610V592.545H258.022C259.38 592.545 260.505 592.793 261.397 593.287C262.289 593.781 262.957 594.457 263.4 595.315C263.843 596.168 264.065 597.128 264.065 598.196C264.065 599.27 263.84 600.236 263.391 601.094C262.948 601.946 262.278 602.622 261.38 603.122C260.488 603.616 259.366 603.864 258.013 603.864H253.735V601.631H257.775C258.633 601.631 259.329 601.483 259.863 601.188C260.397 600.886 260.789 600.477 261.039 599.96C261.289 599.443 261.414 598.855 261.414 598.196C261.414 597.537 261.289 596.952 261.039 596.44C260.789 595.929 260.394 595.528 259.854 595.239C259.32 594.949 258.616 594.804 257.741 594.804H254.434V610H251.8ZM266.947 610V596.909H269.411V598.989H269.547C269.786 598.284 270.206 597.73 270.808 597.327C271.416 596.918 272.104 596.713 272.871 596.713C273.03 596.713 273.217 596.719 273.433 596.73C273.655 596.741 273.828 596.756 273.953 596.773V599.21C273.851 599.182 273.669 599.151 273.408 599.116C273.146 599.077 272.885 599.057 272.624 599.057C272.021 599.057 271.484 599.185 271.013 599.44C270.547 599.69 270.178 600.04 269.905 600.489C269.632 600.932 269.496 601.437 269.496 602.006V610H266.947ZM281.332 610.264C280.042 610.264 278.931 609.989 277.999 609.438C277.073 608.881 276.357 608.099 275.852 607.094C275.352 606.082 275.102 604.898 275.102 603.54C275.102 602.199 275.352 601.017 275.852 599.994C276.357 598.972 277.062 598.173 277.965 597.599C278.874 597.026 279.937 596.739 281.153 596.739C281.891 596.739 282.607 596.861 283.3 597.105C283.994 597.349 284.616 597.733 285.167 598.256C285.718 598.778 286.153 599.457 286.471 600.293C286.789 601.122 286.948 602.131 286.948 603.318V604.222H276.542V602.312H284.451C284.451 601.642 284.315 601.048 284.042 600.531C283.769 600.009 283.386 599.597 282.891 599.295C282.403 598.994 281.829 598.844 281.17 598.844C280.454 598.844 279.829 599.02 279.295 599.372C278.766 599.719 278.357 600.173 278.067 600.736C277.783 601.293 277.641 601.898 277.641 602.551V604.043C277.641 604.918 277.795 605.662 278.102 606.276C278.414 606.889 278.849 607.358 279.406 607.682C279.962 608 280.613 608.159 281.357 608.159C281.84 608.159 282.281 608.091 282.678 607.955C283.076 607.812 283.42 607.602 283.71 607.324C283.999 607.045 284.221 606.702 284.374 606.293L286.786 606.727C286.593 607.437 286.246 608.06 285.746 608.594C285.252 609.122 284.63 609.534 283.88 609.83C283.136 610.119 282.286 610.264 281.332 610.264ZM296.006 596.909V598.955H288.608V596.909H296.006ZM290.636 610V595.392C290.636 594.574 290.815 593.895 291.173 593.355C291.531 592.81 292.006 592.403 292.597 592.136C293.188 591.864 293.83 591.727 294.523 591.727C295.034 591.727 295.472 591.77 295.835 591.855C296.199 591.935 296.469 592.009 296.645 592.077L296.048 594.139C295.929 594.105 295.776 594.065 295.588 594.02C295.401 593.969 295.173 593.943 294.906 593.943C294.287 593.943 293.844 594.097 293.577 594.403C293.315 594.71 293.185 595.153 293.185 595.733V610H290.636ZM298.635 610V596.909H301.183V610H298.635ZM299.922 594.889C299.479 594.889 299.098 594.741 298.78 594.446C298.467 594.145 298.311 593.787 298.311 593.372C298.311 592.952 298.467 592.594 298.78 592.298C299.098 591.997 299.479 591.847 299.922 591.847C300.365 591.847 300.743 591.997 301.055 592.298C301.374 592.594 301.533 592.952 301.533 593.372C301.533 593.787 301.374 594.145 301.055 594.446C300.743 594.741 300.365 594.889 299.922 594.889ZM306.623 596.909L309.512 602.006L312.427 596.909H315.214L311.131 603.455L315.248 610H312.461L309.512 605.108L306.572 610H303.776L307.85 603.455L303.827 596.909H306.623Z" fill="#333333"/>
<path d="M614.364 610.264C613.097 610.264 612.006 609.977 611.091 609.403C610.182 608.824 609.483 608.026 608.995 607.009C608.506 605.991 608.262 604.827 608.262 603.514C608.262 602.185 608.512 601.011 609.012 599.994C609.512 598.972 610.216 598.173 611.125 597.599C612.034 597.026 613.105 596.739 614.338 596.739C615.333 596.739 616.219 596.923 616.998 597.293C617.776 597.656 618.404 598.168 618.881 598.827C619.364 599.486 619.651 600.256 619.742 601.136H617.262C617.125 600.523 616.813 599.994 616.324 599.551C615.841 599.108 615.194 598.886 614.381 598.886C613.671 598.886 613.049 599.074 612.515 599.449C611.986 599.818 611.574 600.347 611.279 601.034C610.983 601.716 610.836 602.523 610.836 603.455C610.836 604.409 610.98 605.233 611.27 605.926C611.56 606.619 611.969 607.156 612.498 607.537C613.032 607.918 613.659 608.108 614.381 608.108C614.864 608.108 615.301 608.02 615.694 607.844C616.091 607.662 616.424 607.403 616.691 607.068C616.963 606.733 617.154 606.33 617.262 605.858H619.742C619.651 606.705 619.375 607.46 618.915 608.125C618.455 608.79 617.838 609.312 617.066 609.693C616.299 610.074 615.398 610.264 614.364 610.264ZM627.981 610.264C626.754 610.264 625.683 609.983 624.768 609.42C623.853 608.858 623.143 608.071 622.637 607.06C622.132 606.048 621.879 604.866 621.879 603.514C621.879 602.156 622.132 600.969 622.637 599.952C623.143 598.935 623.853 598.145 624.768 597.582C625.683 597.02 626.754 596.739 627.981 596.739C629.208 596.739 630.279 597.02 631.194 597.582C632.109 598.145 632.819 598.935 633.325 599.952C633.831 600.969 634.083 602.156 634.083 603.514C634.083 604.866 633.831 606.048 633.325 607.06C632.819 608.071 632.109 608.858 631.194 609.42C630.279 609.983 629.208 610.264 627.981 610.264ZM627.99 608.125C628.785 608.125 629.444 607.915 629.967 607.494C630.49 607.074 630.876 606.514 631.126 605.815C631.382 605.116 631.51 604.347 631.51 603.506C631.51 602.67 631.382 601.903 631.126 601.205C630.876 600.5 630.49 599.935 629.967 599.509C629.444 599.082 628.785 598.869 627.99 598.869C627.189 598.869 626.524 599.082 625.995 599.509C625.473 599.935 625.083 600.5 624.828 601.205C624.578 601.903 624.453 602.67 624.453 603.506C624.453 604.347 624.578 605.116 624.828 605.815C625.083 606.514 625.473 607.074 625.995 607.494C626.524 607.915 627.189 608.125 627.99 608.125ZM639.476 592.545V610H636.928V592.545H639.476ZM648.419 610.264C647.191 610.264 646.12 609.983 645.206 609.42C644.291 608.858 643.581 608.071 643.075 607.06C642.569 606.048 642.316 604.866 642.316 603.514C642.316 602.156 642.569 600.969 643.075 599.952C643.581 598.935 644.291 598.145 645.206 597.582C646.12 597.02 647.191 596.739 648.419 596.739C649.646 596.739 650.717 597.02 651.632 597.582C652.547 598.145 653.257 598.935 653.762 599.952C654.268 600.969 654.521 602.156 654.521 603.514C654.521 604.866 654.268 606.048 653.762 607.06C653.257 608.071 652.547 608.858 651.632 609.42C650.717 609.983 649.646 610.264 648.419 610.264ZM648.427 608.125C649.223 608.125 649.882 607.915 650.404 607.494C650.927 607.074 651.314 606.514 651.564 605.815C651.819 605.116 651.947 604.347 651.947 603.506C651.947 602.67 651.819 601.903 651.564 601.205C651.314 600.5 650.927 599.935 650.404 599.509C649.882 599.082 649.223 598.869 648.427 598.869C647.626 598.869 646.961 599.082 646.433 599.509C645.91 599.935 645.521 600.5 645.265 601.205C645.015 601.903 644.89 602.67 644.89 603.506C644.89 604.347 645.015 605.116 645.265 605.815C645.521 606.514 645.91 607.074 646.433 607.494C646.961 607.915 647.626 608.125 648.427 608.125ZM657.365 610V596.909H659.828V598.989H659.965C660.203 598.284 660.624 597.73 661.226 597.327C661.834 596.918 662.522 596.713 663.289 596.713C663.448 596.713 663.635 596.719 663.851 596.73C664.073 596.741 664.246 596.756 664.371 596.773V599.21C664.269 599.182 664.087 599.151 663.826 599.116C663.564 599.077 663.303 599.057 663.042 599.057C662.439 599.057 661.902 599.185 661.431 599.44C660.965 599.69 660.596 600.04 660.323 600.489C660.05 600.932 659.914 601.437 659.914 602.006V610H657.365ZM620.904 634.909V636.955H613.506V634.909H620.904ZM615.535 648V633.392C615.535 632.574 615.714 631.895 616.072 631.355C616.43 630.81 616.904 630.403 617.495 630.136C618.086 629.864 618.728 629.727 619.421 629.727C619.933 629.727 620.37 629.77 620.734 629.855C621.097 629.935 621.367 630.009 621.543 630.077L620.947 632.139C620.827 632.105 620.674 632.065 620.487 632.02C620.299 631.969 620.072 631.943 619.805 631.943C619.185 631.943 618.742 632.097 618.475 632.403C618.214 632.71 618.083 633.153 618.083 633.733V648H615.535ZM628.532 648.264C627.305 648.264 626.234 647.983 625.319 647.42C624.404 646.858 623.694 646.071 623.188 645.06C622.683 644.048 622.43 642.866 622.43 641.514C622.43 640.156 622.683 638.969 623.188 637.952C623.694 636.935 624.404 636.145 625.319 635.582C626.234 635.02 627.305 634.739 628.532 634.739C629.759 634.739 630.83 635.02 631.745 635.582C632.66 636.145 633.37 636.935 633.876 637.952C634.381 638.969 634.634 640.156 634.634 641.514C634.634 642.866 634.381 644.048 633.876 645.06C633.37 646.071 632.66 646.858 631.745 647.42C630.83 647.983 629.759 648.264 628.532 648.264ZM628.54 646.125C629.336 646.125 629.995 645.915 630.518 645.494C631.04 645.074 631.427 644.514 631.677 643.815C631.933 643.116 632.06 642.347 632.06 641.506C632.06 640.67 631.933 639.903 631.677 639.205C631.427 638.5 631.04 637.935 630.518 637.509C629.995 637.082 629.336 636.869 628.54 636.869C627.739 636.869 627.075 637.082 626.546 637.509C626.023 637.935 625.634 638.5 625.379 639.205C625.129 639.903 625.004 640.67 625.004 641.506C625.004 642.347 625.129 643.116 625.379 643.815C625.634 644.514 626.023 645.074 626.546 645.494C627.075 645.915 627.739 646.125 628.54 646.125ZM640.027 640.227V648H637.479V634.909H639.925V637.04H640.087C640.388 636.347 640.859 635.79 641.501 635.369C642.149 634.949 642.964 634.739 643.947 634.739C644.839 634.739 645.621 634.926 646.291 635.301C646.962 635.67 647.482 636.222 647.851 636.955C648.22 637.687 648.405 638.594 648.405 639.673V648H645.857V639.98C645.857 639.031 645.609 638.29 645.115 637.756C644.621 637.216 643.942 636.946 643.078 636.946C642.487 636.946 641.962 637.074 641.501 637.33C641.047 637.585 640.686 637.96 640.419 638.455C640.158 638.943 640.027 639.534 640.027 640.227ZM657.933 634.909V636.955H650.783V634.909H657.933ZM652.7 631.773H655.249V644.156C655.249 644.651 655.322 645.023 655.47 645.273C655.618 645.517 655.808 645.685 656.041 645.776C656.28 645.861 656.538 645.903 656.817 645.903C657.021 645.903 657.2 645.889 657.354 645.861C657.507 645.832 657.626 645.81 657.712 645.793L658.172 647.898C658.024 647.955 657.814 648.011 657.541 648.068C657.268 648.131 656.928 648.165 656.518 648.17C655.848 648.182 655.223 648.062 654.643 647.812C654.064 647.562 653.595 647.176 653.237 646.653C652.879 646.131 652.7 645.474 652.7 644.685V631.773ZM602.476 676.105L600.166 676.514C600.07 676.219 599.916 675.937 599.706 675.67C599.501 675.403 599.223 675.185 598.871 675.014C598.518 674.844 598.078 674.759 597.55 674.759C596.828 674.759 596.226 674.92 595.743 675.244C595.26 675.562 595.018 675.974 595.018 676.48C595.018 676.918 595.18 677.27 595.504 677.537C595.828 677.804 596.351 678.023 597.072 678.193L599.152 678.67C600.357 678.949 601.254 679.378 601.845 679.957C602.436 680.537 602.732 681.29 602.732 682.216C602.732 683 602.504 683.699 602.05 684.312C601.601 684.92 600.973 685.398 600.166 685.744C599.365 686.091 598.436 686.264 597.379 686.264C595.913 686.264 594.717 685.952 593.791 685.327C592.865 684.696 592.297 683.801 592.087 682.642L594.55 682.267C594.703 682.909 595.018 683.395 595.496 683.724C595.973 684.048 596.595 684.21 597.362 684.21C598.197 684.21 598.865 684.037 599.365 683.69C599.865 683.338 600.115 682.909 600.115 682.403C600.115 681.994 599.962 681.651 599.655 681.372C599.354 681.094 598.891 680.884 598.266 680.741L596.05 680.256C594.828 679.977 593.925 679.534 593.339 678.926C592.76 678.318 592.47 677.548 592.47 676.616C592.47 675.844 592.686 675.168 593.118 674.588C593.55 674.009 594.146 673.557 594.908 673.233C595.669 672.903 596.541 672.739 597.524 672.739C598.939 672.739 600.053 673.045 600.865 673.659C601.678 674.267 602.214 675.082 602.476 676.105ZM605.533 690.909V672.909H608.022V675.031H608.235C608.383 674.759 608.596 674.443 608.874 674.085C609.153 673.727 609.539 673.415 610.033 673.148C610.528 672.875 611.181 672.739 611.994 672.739C613.05 672.739 613.994 673.006 614.823 673.54C615.653 674.074 616.303 674.844 616.775 675.849C617.252 676.855 617.491 678.065 617.491 679.48C617.491 680.895 617.255 682.108 616.783 683.119C616.312 684.125 615.664 684.901 614.84 685.446C614.016 685.986 613.076 686.256 612.019 686.256C611.224 686.256 610.573 686.122 610.067 685.855C609.567 685.588 609.175 685.276 608.891 684.918C608.607 684.56 608.388 684.241 608.235 683.963H608.082V690.909H605.533ZM608.031 679.455C608.031 680.375 608.164 681.182 608.431 681.875C608.698 682.568 609.085 683.111 609.59 683.503C610.096 683.889 610.715 684.082 611.448 684.082C612.21 684.082 612.846 683.881 613.357 683.477C613.869 683.068 614.255 682.514 614.516 681.815C614.783 681.116 614.917 680.33 614.917 679.455C614.917 678.591 614.786 677.815 614.525 677.128C614.269 676.44 613.883 675.898 613.366 675.5C612.854 675.102 612.215 674.903 611.448 674.903C610.71 674.903 610.085 675.094 609.573 675.474C609.067 675.855 608.684 676.386 608.423 677.068C608.161 677.75 608.031 678.545 608.031 679.455ZM624.156 686.29C623.326 686.29 622.576 686.136 621.906 685.83C621.235 685.517 620.704 685.065 620.312 684.474C619.925 683.884 619.732 683.159 619.732 682.301C619.732 681.562 619.874 680.955 620.158 680.477C620.442 680 620.826 679.622 621.309 679.344C621.792 679.065 622.332 678.855 622.928 678.713C623.525 678.571 624.133 678.463 624.752 678.389C625.536 678.298 626.173 678.224 626.661 678.168C627.15 678.105 627.505 678.006 627.727 677.869C627.948 677.733 628.059 677.511 628.059 677.205V677.145C628.059 676.401 627.849 675.824 627.428 675.415C627.013 675.006 626.394 674.801 625.57 674.801C624.712 674.801 624.036 674.991 623.542 675.372C623.053 675.747 622.715 676.165 622.528 676.625L620.133 676.08C620.417 675.284 620.832 674.642 621.377 674.153C621.928 673.659 622.562 673.301 623.278 673.08C623.994 672.852 624.746 672.739 625.536 672.739C626.059 672.739 626.613 672.801 627.198 672.926C627.789 673.045 628.34 673.267 628.852 673.591C629.369 673.915 629.792 674.378 630.121 674.98C630.451 675.577 630.616 676.352 630.616 677.307V686H628.127V684.21H628.025C627.86 684.54 627.613 684.864 627.283 685.182C626.954 685.5 626.531 685.764 626.013 685.974C625.496 686.185 624.877 686.29 624.156 686.29ZM624.71 684.244C625.414 684.244 626.016 684.105 626.516 683.827C627.022 683.548 627.406 683.185 627.667 682.736C627.934 682.281 628.067 681.795 628.067 681.278V679.591C627.977 679.682 627.8 679.767 627.539 679.847C627.283 679.92 626.991 679.986 626.661 680.043C626.332 680.094 626.011 680.142 625.698 680.188C625.386 680.227 625.124 680.261 624.914 680.29C624.42 680.352 623.968 680.457 623.559 680.605C623.156 680.753 622.832 680.966 622.587 681.244C622.349 681.517 622.229 681.881 622.229 682.335C622.229 682.966 622.462 683.443 622.928 683.767C623.394 684.085 623.988 684.244 624.71 684.244ZM639.524 686.264C638.257 686.264 637.166 685.977 636.251 685.403C635.342 684.824 634.643 684.026 634.155 683.009C633.666 681.991 633.422 680.827 633.422 679.514C633.422 678.185 633.672 677.011 634.172 675.994C634.672 674.972 635.376 674.173 636.286 673.599C637.195 673.026 638.266 672.739 639.499 672.739C640.493 672.739 641.379 672.923 642.158 673.293C642.936 673.656 643.564 674.168 644.041 674.827C644.524 675.486 644.811 676.256 644.902 677.136H642.422C642.286 676.523 641.973 675.994 641.484 675.551C641.001 675.108 640.354 674.886 639.541 674.886C638.831 674.886 638.209 675.074 637.675 675.449C637.146 675.818 636.734 676.347 636.439 677.034C636.143 677.716 635.996 678.523 635.996 679.455C635.996 680.409 636.141 681.233 636.43 681.926C636.72 682.619 637.129 683.156 637.658 683.537C638.192 683.918 638.82 684.108 639.541 684.108C640.024 684.108 640.462 684.02 640.854 683.844C641.251 683.662 641.584 683.403 641.851 683.068C642.124 682.733 642.314 682.33 642.422 681.858H644.902C644.811 682.705 644.536 683.46 644.075 684.125C643.615 684.79 642.999 685.312 642.226 685.693C641.459 686.074 640.558 686.264 639.524 686.264ZM647.627 686V672.909H650.175V686H647.627ZM648.914 670.889C648.471 670.889 648.09 670.741 647.772 670.446C647.46 670.145 647.303 669.787 647.303 669.372C647.303 668.952 647.46 668.594 647.772 668.298C648.09 667.997 648.471 667.847 648.914 667.847C649.357 667.847 649.735 667.997 650.048 668.298C650.366 668.594 650.525 668.952 650.525 669.372C650.525 669.787 650.366 670.145 650.048 670.446C649.735 670.741 649.357 670.889 648.914 670.889ZM656.152 678.227V686H653.604V672.909H656.05V675.04H656.212C656.513 674.347 656.984 673.79 657.626 673.369C658.274 672.949 659.089 672.739 660.072 672.739C660.964 672.739 661.746 672.926 662.416 673.301C663.087 673.67 663.607 674.222 663.976 674.955C664.345 675.687 664.53 676.594 664.53 677.673V686H661.982V677.98C661.982 677.031 661.734 676.29 661.24 675.756C660.746 675.216 660.067 674.946 659.203 674.946C658.612 674.946 658.087 675.074 657.626 675.33C657.172 675.585 656.811 675.96 656.544 676.455C656.283 676.943 656.152 677.534 656.152 678.227ZM673.436 691.182C672.396 691.182 671.501 691.045 670.751 690.773C670.007 690.5 669.399 690.139 668.928 689.69C668.456 689.241 668.104 688.75 667.871 688.216L670.061 687.312C670.214 687.562 670.419 687.827 670.675 688.105C670.936 688.389 671.288 688.631 671.732 688.83C672.18 689.028 672.757 689.128 673.462 689.128C674.428 689.128 675.226 688.892 675.857 688.42C676.487 687.955 676.803 687.21 676.803 686.188V683.614H676.641C676.487 683.892 676.266 684.202 675.976 684.543C675.692 684.884 675.3 685.179 674.8 685.429C674.3 685.679 673.649 685.804 672.848 685.804C671.814 685.804 670.882 685.562 670.053 685.08C669.229 684.591 668.575 683.872 668.092 682.923C667.615 681.969 667.376 680.795 667.376 679.403C667.376 678.011 667.612 676.818 668.084 675.824C668.561 674.83 669.214 674.068 670.044 673.54C670.874 673.006 671.814 672.739 672.865 672.739C673.678 672.739 674.334 672.875 674.834 673.148C675.334 673.415 675.723 673.727 676.001 674.085C676.286 674.443 676.504 674.759 676.658 675.031H676.845V672.909H679.342V686.29C679.342 687.415 679.081 688.338 678.558 689.06C678.036 689.781 677.328 690.315 676.436 690.662C675.55 691.009 674.55 691.182 673.436 691.182ZM673.411 683.69C674.143 683.69 674.763 683.52 675.268 683.179C675.78 682.832 676.166 682.338 676.428 681.696C676.695 681.048 676.828 680.273 676.828 679.369C676.828 678.489 676.697 677.713 676.436 677.043C676.175 676.372 675.791 675.849 675.286 675.474C674.78 675.094 674.155 674.903 673.411 674.903C672.643 674.903 672.004 675.102 671.493 675.5C670.982 675.892 670.595 676.426 670.334 677.102C670.078 677.778 669.95 678.534 669.95 679.369C669.95 680.227 670.081 680.98 670.342 681.628C670.604 682.276 670.99 682.781 671.501 683.145C672.018 683.509 672.655 683.69 673.411 683.69ZM636.191 711.037C635.753 711.037 635.375 710.889 635.057 710.594C634.739 710.298 634.58 709.94 634.58 709.52C634.58 709.099 634.739 708.741 635.057 708.446C635.375 708.151 635.753 708.003 636.191 708.003C636.634 708.003 637.012 708.151 637.324 708.446C637.642 708.741 637.801 709.099 637.801 709.52C637.801 709.94 637.642 710.298 637.324 710.594C637.012 710.889 636.634 711.037 636.191 711.037ZM636.02 717.795C635.583 717.795 635.205 717.648 634.887 717.352C634.569 717.057 634.409 716.699 634.409 716.278C634.409 715.858 634.569 715.5 634.887 715.205C635.205 714.909 635.583 714.761 636.02 714.761C636.463 714.761 636.841 714.909 637.154 715.205C637.472 715.5 637.631 715.858 637.631 716.278C637.631 716.699 637.472 717.057 637.154 717.352C636.841 717.648 636.463 717.795 636.02 717.795ZM636.191 724.588C635.753 724.588 635.375 724.44 635.057 724.145C634.739 723.849 634.58 723.491 634.58 723.071C634.58 722.651 634.739 722.293 635.057 721.997C635.375 721.702 635.753 721.554 636.191 721.554C636.634 721.554 637.012 721.702 637.324 721.997C637.642 722.293 637.801 722.651 637.801 723.071C637.801 723.491 637.642 723.849 637.324 724.145C637.012 724.44 636.634 724.588 636.191 724.588Z" fill="#333333"/>
<path d="M862.674 614.909V596.909H865.163V599.031H865.376C865.523 598.759 865.737 598.443 866.015 598.085C866.293 597.727 866.68 597.415 867.174 597.148C867.668 596.875 868.322 596.739 869.134 596.739C870.191 596.739 871.134 597.006 871.964 597.54C872.793 598.074 873.444 598.844 873.915 599.849C874.393 600.855 874.631 602.065 874.631 603.48C874.631 604.895 874.396 606.108 873.924 607.119C873.452 608.125 872.805 608.901 871.981 609.446C871.157 609.986 870.217 610.256 869.16 610.256C868.364 610.256 867.714 610.122 867.208 609.855C866.708 609.588 866.316 609.276 866.032 608.918C865.748 608.56 865.529 608.241 865.376 607.963H865.222V614.909H862.674ZM865.171 603.455C865.171 604.375 865.305 605.182 865.572 605.875C865.839 606.568 866.225 607.111 866.731 607.503C867.237 607.889 867.856 608.082 868.589 608.082C869.35 608.082 869.987 607.881 870.498 607.477C871.009 607.068 871.396 606.514 871.657 605.815C871.924 605.116 872.058 604.33 872.058 603.455C872.058 602.591 871.927 601.815 871.665 601.128C871.41 600.44 871.023 599.898 870.506 599.5C869.995 599.102 869.356 598.903 868.589 598.903C867.85 598.903 867.225 599.094 866.714 599.474C866.208 599.855 865.825 600.386 865.563 601.068C865.302 601.75 865.171 602.545 865.171 603.455ZM877.487 610V596.909H879.95V598.989H880.086C880.325 598.284 880.745 597.73 881.347 597.327C881.955 596.918 882.643 596.713 883.41 596.713C883.569 596.713 883.756 596.719 883.972 596.73C884.194 596.741 884.367 596.756 884.492 596.773V599.21C884.39 599.182 884.208 599.151 883.947 599.116C883.685 599.077 883.424 599.057 883.163 599.057C882.56 599.057 882.023 599.185 881.552 599.44C881.086 599.69 880.717 600.04 880.444 600.489C880.171 600.932 880.035 601.437 880.035 602.006V610H877.487ZM886.697 610V596.909H889.246V610H886.697ZM887.984 594.889C887.541 594.889 887.161 594.741 886.842 594.446C886.53 594.145 886.374 593.787 886.374 593.372C886.374 592.952 886.53 592.594 886.842 592.298C887.161 591.997 887.541 591.847 887.984 591.847C888.428 591.847 888.805 591.997 889.118 592.298C889.436 592.594 889.595 592.952 889.595 593.372C889.595 593.787 889.436 594.145 889.118 594.446C888.805 594.741 888.428 594.889 887.984 594.889ZM892.674 610V596.909H895.12V599.04H895.282C895.555 598.318 896.001 597.756 896.62 597.352C897.239 596.943 897.981 596.739 898.844 596.739C899.719 596.739 900.452 596.943 901.043 597.352C901.64 597.761 902.08 598.324 902.364 599.04H902.501C902.813 598.341 903.31 597.784 903.992 597.369C904.674 596.949 905.487 596.739 906.43 596.739C907.617 596.739 908.586 597.111 909.336 597.855C910.092 598.599 910.469 599.722 910.469 601.222V610H907.921V601.46C907.921 600.574 907.68 599.932 907.197 599.534C906.714 599.136 906.137 598.938 905.467 598.938C904.637 598.938 903.992 599.193 903.532 599.705C903.072 600.21 902.842 600.861 902.842 601.656V610H900.302V601.298C900.302 600.588 900.08 600.017 899.637 599.585C899.194 599.153 898.617 598.938 897.907 598.938C897.424 598.938 896.978 599.065 896.569 599.321C896.165 599.571 895.839 599.92 895.589 600.369C895.344 600.818 895.222 601.338 895.222 601.929V610H892.674ZM917.695 610.29C916.865 610.29 916.115 610.136 915.445 609.83C914.774 609.517 914.243 609.065 913.851 608.474C913.464 607.884 913.271 607.159 913.271 606.301C913.271 605.562 913.413 604.955 913.697 604.477C913.982 604 914.365 603.622 914.848 603.344C915.331 603.065 915.871 602.855 916.467 602.713C917.064 602.571 917.672 602.463 918.291 602.389C919.075 602.298 919.712 602.224 920.2 602.168C920.689 602.105 921.044 602.006 921.266 601.869C921.487 601.733 921.598 601.511 921.598 601.205V601.145C921.598 600.401 921.388 599.824 920.967 599.415C920.553 599.006 919.933 598.801 919.109 598.801C918.251 598.801 917.575 598.991 917.081 599.372C916.592 599.747 916.254 600.165 916.067 600.625L913.672 600.08C913.956 599.284 914.371 598.642 914.916 598.153C915.467 597.659 916.101 597.301 916.817 597.08C917.533 596.852 918.286 596.739 919.075 596.739C919.598 596.739 920.152 596.801 920.737 596.926C921.328 597.045 921.879 597.267 922.391 597.591C922.908 597.915 923.331 598.378 923.661 598.98C923.99 599.577 924.155 600.352 924.155 601.307V610H921.666V608.21H921.564C921.399 608.54 921.152 608.864 920.822 609.182C920.493 609.5 920.07 609.764 919.553 609.974C919.036 610.185 918.416 610.29 917.695 610.29ZM918.249 608.244C918.953 608.244 919.555 608.105 920.055 607.827C920.561 607.548 920.945 607.185 921.206 606.736C921.473 606.281 921.607 605.795 921.607 605.278V603.591C921.516 603.682 921.339 603.767 921.078 603.847C920.822 603.92 920.53 603.986 920.2 604.043C919.871 604.094 919.55 604.142 919.237 604.188C918.925 604.227 918.663 604.261 918.453 604.29C917.959 604.352 917.507 604.457 917.098 604.605C916.695 604.753 916.371 604.966 916.126 605.244C915.888 605.517 915.768 605.881 915.768 606.335C915.768 606.966 916.001 607.443 916.467 607.767C916.933 608.085 917.527 608.244 918.249 608.244ZM927.549 610V596.909H930.012V598.989H930.148C930.387 598.284 930.808 597.73 931.41 597.327C932.018 596.918 932.705 596.713 933.472 596.713C933.631 596.713 933.819 596.719 934.035 596.73C934.256 596.741 934.43 596.756 934.555 596.773V599.21C934.452 599.182 934.271 599.151 934.009 599.116C933.748 599.077 933.487 599.057 933.225 599.057C932.623 599.057 932.086 599.185 931.614 599.44C931.148 599.69 930.779 600.04 930.506 600.489C930.234 600.932 930.097 601.437 930.097 602.006V610H927.549ZM938.769 614.909C938.388 614.909 938.042 614.878 937.729 614.815C937.417 614.759 937.184 614.696 937.031 614.628L937.644 612.54C938.11 612.665 938.525 612.719 938.888 612.702C939.252 612.685 939.573 612.548 939.852 612.293C940.136 612.037 940.386 611.619 940.602 611.04L940.917 610.17L936.127 596.909H938.854L942.17 607.068H942.306L945.621 596.909H948.357L942.962 611.747C942.712 612.429 942.394 613.006 942.008 613.477C941.621 613.955 941.161 614.313 940.627 614.551C940.093 614.79 939.474 614.909 938.769 614.909ZM860.464 640.227V648H857.916V630.545H860.43V637.04H860.592C860.899 636.335 861.368 635.776 861.999 635.361C862.629 634.946 863.453 634.739 864.47 634.739C865.368 634.739 866.152 634.923 866.822 635.293C867.499 635.662 868.021 636.213 868.391 636.946C868.766 637.673 868.953 638.582 868.953 639.673V648H866.405V639.98C866.405 639.02 866.158 638.276 865.663 637.747C865.169 637.213 864.482 636.946 863.601 636.946C862.999 636.946 862.459 637.074 861.982 637.33C861.51 637.585 861.138 637.96 860.865 638.455C860.598 638.943 860.464 639.534 860.464 640.227ZM877.996 648.264C876.706 648.264 875.595 647.989 874.663 647.438C873.737 646.881 873.021 646.099 872.516 645.094C872.016 644.082 871.766 642.898 871.766 641.54C871.766 640.199 872.016 639.017 872.516 637.994C873.021 636.972 873.726 636.173 874.629 635.599C875.538 635.026 876.601 634.739 877.817 634.739C878.555 634.739 879.271 634.861 879.964 635.105C880.658 635.349 881.28 635.733 881.831 636.256C882.382 636.778 882.817 637.457 883.135 638.293C883.453 639.122 883.612 640.131 883.612 641.318V642.222H873.206V640.312H881.115C881.115 639.642 880.979 639.048 880.706 638.531C880.433 638.009 880.05 637.597 879.555 637.295C879.067 636.994 878.493 636.844 877.834 636.844C877.118 636.844 876.493 637.02 875.959 637.372C875.43 637.719 875.021 638.173 874.732 638.736C874.447 639.293 874.305 639.898 874.305 640.551V642.043C874.305 642.918 874.459 643.662 874.766 644.276C875.078 644.889 875.513 645.358 876.07 645.682C876.626 646 877.277 646.159 878.021 646.159C878.504 646.159 878.945 646.091 879.342 645.955C879.74 645.812 880.084 645.602 880.374 645.324C880.663 645.045 880.885 644.702 881.038 644.293L883.45 644.727C883.257 645.437 882.911 646.06 882.411 646.594C881.916 647.122 881.294 647.534 880.544 647.83C879.8 648.119 878.95 648.264 877.996 648.264ZM890.249 648.29C889.42 648.29 888.67 648.136 887.999 647.83C887.329 647.517 886.798 647.065 886.406 646.474C886.019 645.884 885.826 645.159 885.826 644.301C885.826 643.562 885.968 642.955 886.252 642.477C886.536 642 886.92 641.622 887.403 641.344C887.886 641.065 888.425 640.855 889.022 640.713C889.619 640.571 890.227 640.463 890.846 640.389C891.63 640.298 892.266 640.224 892.755 640.168C893.244 640.105 893.599 640.006 893.82 639.869C894.042 639.733 894.153 639.511 894.153 639.205V639.145C894.153 638.401 893.942 637.824 893.522 637.415C893.107 637.006 892.488 636.801 891.664 636.801C890.806 636.801 890.13 636.991 889.636 637.372C889.147 637.747 888.809 638.165 888.621 638.625L886.227 638.08C886.511 637.284 886.925 636.642 887.471 636.153C888.022 635.659 888.656 635.301 889.371 635.08C890.087 634.852 890.84 634.739 891.63 634.739C892.153 634.739 892.707 634.801 893.292 634.926C893.883 635.045 894.434 635.267 894.945 635.591C895.462 635.915 895.886 636.378 896.215 636.98C896.545 637.577 896.71 638.352 896.71 639.307V648H894.221V646.21H894.119C893.954 646.54 893.707 646.864 893.377 647.182C893.048 647.5 892.624 647.764 892.107 647.974C891.59 648.185 890.971 648.29 890.249 648.29ZM890.803 646.244C891.508 646.244 892.11 646.105 892.61 645.827C893.116 645.548 893.499 645.185 893.761 644.736C894.028 644.281 894.161 643.795 894.161 643.278V641.591C894.07 641.682 893.894 641.767 893.633 641.847C893.377 641.92 893.085 641.986 892.755 642.043C892.425 642.094 892.104 642.142 891.792 642.188C891.479 642.227 891.218 642.261 891.008 642.29C890.513 642.352 890.062 642.457 889.653 642.605C889.249 642.753 888.925 642.966 888.681 643.244C888.442 643.517 888.323 643.881 888.323 644.335C888.323 644.966 888.556 645.443 889.022 645.767C889.488 646.085 890.082 646.244 890.803 646.244ZM905.004 648.256C903.947 648.256 903.004 647.986 902.175 647.446C901.351 646.901 900.703 646.125 900.232 645.119C899.766 644.108 899.533 642.895 899.533 641.48C899.533 640.065 899.768 638.855 900.24 637.849C900.717 636.844 901.371 636.074 902.2 635.54C903.03 635.006 903.97 634.739 905.021 634.739C905.834 634.739 906.487 634.875 906.982 635.148C907.482 635.415 907.868 635.727 908.141 636.085C908.419 636.443 908.635 636.759 908.788 637.031H908.942V630.545H911.49V648H909.001V645.963H908.788C908.635 646.241 908.413 646.56 908.124 646.918C907.839 647.276 907.447 647.588 906.947 647.855C906.447 648.122 905.8 648.256 905.004 648.256ZM905.567 646.082C906.3 646.082 906.919 645.889 907.425 645.503C907.936 645.111 908.322 644.568 908.584 643.875C908.851 643.182 908.984 642.375 908.984 641.455C908.984 640.545 908.854 639.75 908.592 639.068C908.331 638.386 907.947 637.855 907.442 637.474C906.936 637.094 906.311 636.903 905.567 636.903C904.8 636.903 904.161 637.102 903.649 637.5C903.138 637.898 902.751 638.44 902.49 639.128C902.234 639.815 902.107 640.591 902.107 641.455C902.107 642.33 902.237 643.116 902.499 643.815C902.76 644.514 903.146 645.068 903.658 645.477C904.175 645.881 904.811 646.082 905.567 646.082ZM917.675 630.545V648H915.127V630.545H917.675ZM921.104 648V634.909H923.652V648H921.104ZM922.391 632.889C921.947 632.889 921.567 632.741 921.249 632.446C920.936 632.145 920.78 631.787 920.78 631.372C920.78 630.952 920.936 630.594 921.249 630.298C921.567 629.997 921.947 629.847 922.391 629.847C922.834 629.847 923.212 629.997 923.524 630.298C923.842 630.594 924.001 630.952 924.001 631.372C924.001 631.787 923.842 632.145 923.524 632.446C923.212 632.741 922.834 632.889 922.391 632.889ZM929.629 640.227V648H927.08V634.909H929.526V637.04H929.688C929.989 636.347 930.461 635.79 931.103 635.369C931.751 634.949 932.566 634.739 933.549 634.739C934.441 634.739 935.222 634.926 935.893 635.301C936.563 635.67 937.083 636.222 937.452 636.955C937.822 637.687 938.006 638.594 938.006 639.673V648H935.458V639.98C935.458 639.031 935.211 638.29 934.717 637.756C934.222 637.216 933.543 636.946 932.68 636.946C932.089 636.946 931.563 637.074 931.103 637.33C930.648 637.585 930.288 637.96 930.021 638.455C929.759 638.943 929.629 639.534 929.629 640.227ZM947.066 648.264C945.776 648.264 944.665 647.989 943.734 647.438C942.808 646.881 942.092 646.099 941.586 645.094C941.086 644.082 940.836 642.898 940.836 641.54C940.836 640.199 941.086 639.017 941.586 637.994C942.092 636.972 942.796 636.173 943.7 635.599C944.609 635.026 945.671 634.739 946.887 634.739C947.626 634.739 948.342 634.861 949.035 635.105C949.728 635.349 950.35 635.733 950.901 636.256C951.452 636.778 951.887 637.457 952.205 638.293C952.523 639.122 952.683 640.131 952.683 641.318V642.222H942.276V640.312H950.185C950.185 639.642 950.049 639.048 949.776 638.531C949.504 638.009 949.12 637.597 948.626 637.295C948.137 636.994 947.563 636.844 946.904 636.844C946.188 636.844 945.563 637.02 945.029 637.372C944.501 637.719 944.092 638.173 943.802 638.736C943.518 639.293 943.376 639.898 943.376 640.551V642.043C943.376 642.918 943.529 643.662 943.836 644.276C944.148 644.889 944.583 645.358 945.14 645.682C945.697 646 946.347 646.159 947.092 646.159C947.575 646.159 948.015 646.091 948.413 645.955C948.81 645.812 949.154 645.602 949.444 645.324C949.734 645.045 949.955 644.702 950.109 644.293L952.521 644.727C952.327 645.437 951.981 646.06 951.481 646.594C950.987 647.122 950.364 647.534 949.614 647.83C948.87 648.119 948.021 648.264 947.066 648.264ZM905.191 711.037C904.753 711.037 904.375 710.889 904.057 710.594C903.739 710.298 903.58 709.94 903.58 709.52C903.58 709.099 903.739 708.741 904.057 708.446C904.375 708.151 904.753 708.003 905.191 708.003C905.634 708.003 906.012 708.151 906.324 708.446C906.642 708.741 906.801 709.099 906.801 709.52C906.801 709.94 906.642 710.298 906.324 710.594C906.012 710.889 905.634 711.037 905.191 711.037ZM905.02 717.795C904.583 717.795 904.205 717.648 903.887 717.352C903.569 717.057 903.409 716.699 903.409 716.278C903.409 715.858 903.569 715.5 903.887 715.205C904.205 714.909 904.583 714.761 905.02 714.761C905.463 714.761 905.841 714.909 906.154 715.205C906.472 715.5 906.631 715.858 906.631 716.278C906.631 716.699 906.472 717.057 906.154 717.352C905.841 717.648 905.463 717.795 905.02 717.795ZM905.191 724.588C904.753 724.588 904.375 724.44 904.057 724.145C903.739 723.849 903.58 723.491 903.58 723.071C903.58 722.651 903.739 722.293 904.057 721.997C904.375 721.702 904.753 721.554 905.191 721.554C905.634 721.554 906.012 721.702 906.324 721.997C906.642 722.293 906.801 722.651 906.801 723.071C906.801 723.491 906.642 723.849 906.324 724.145C906.012 724.44 905.634 724.588 905.191 724.588Z" fill="#333333"/>
<path d="M1087.68 600.105L1085.37 600.514C1085.27 600.219 1085.12 599.937 1084.91 599.67C1084.7 599.403 1084.42 599.185 1084.07 599.014C1083.72 598.844 1083.28 598.759 1082.75 598.759C1082.03 598.759 1081.43 598.92 1080.94 599.244C1080.46 599.562 1080.22 599.974 1080.22 600.48C1080.22 600.918 1080.38 601.27 1080.7 601.537C1081.03 601.804 1081.55 602.023 1082.27 602.193L1084.35 602.67C1085.56 602.949 1086.45 603.378 1087.04 603.957C1087.64 604.537 1087.93 605.29 1087.93 606.216C1087.93 607 1087.7 607.699 1087.25 608.312C1086.8 608.92 1086.17 609.398 1085.37 609.744C1084.56 610.091 1083.64 610.264 1082.58 610.264C1081.11 610.264 1079.92 609.952 1078.99 609.327C1078.06 608.696 1077.5 607.801 1077.29 606.642L1079.75 606.267C1079.9 606.909 1080.22 607.395 1080.69 607.724C1081.17 608.048 1081.79 608.21 1082.56 608.21C1083.4 608.21 1084.06 608.037 1084.56 607.69C1085.06 607.338 1085.31 606.909 1085.31 606.403C1085.31 605.994 1085.16 605.651 1084.85 605.372C1084.55 605.094 1084.09 604.884 1083.46 604.741L1081.25 604.256C1080.03 603.977 1079.12 603.534 1078.54 602.926C1077.96 602.318 1077.67 601.548 1077.67 600.616C1077.67 599.844 1077.89 599.168 1078.32 598.588C1078.75 598.009 1079.35 597.557 1080.11 597.233C1080.87 596.903 1081.74 596.739 1082.72 596.739C1084.14 596.739 1085.25 597.045 1086.06 597.659C1086.88 598.267 1087.41 599.082 1087.68 600.105ZM1090.73 610V596.909H1093.18V599.04H1093.34C1093.61 598.318 1094.06 597.756 1094.68 597.352C1095.3 596.943 1096.04 596.739 1096.9 596.739C1097.78 596.739 1098.51 596.943 1099.1 597.352C1099.7 597.761 1100.14 598.324 1100.42 599.04H1100.56C1100.87 598.341 1101.37 597.784 1102.05 597.369C1102.73 596.949 1103.55 596.739 1104.49 596.739C1105.68 596.739 1106.64 597.111 1107.39 597.855C1108.15 598.599 1108.53 599.722 1108.53 601.222V610H1105.98V601.46C1105.98 600.574 1105.74 599.932 1105.26 599.534C1104.77 599.136 1104.2 598.938 1103.53 598.938C1102.7 598.938 1102.05 599.193 1101.59 599.705C1101.13 600.21 1100.9 600.861 1100.9 601.656V610H1098.36V601.298C1098.36 600.588 1098.14 600.017 1097.7 599.585C1097.25 599.153 1096.68 598.938 1095.97 598.938C1095.48 598.938 1095.04 599.065 1094.63 599.321C1094.22 599.571 1093.9 599.92 1093.65 600.369C1093.4 600.818 1093.28 601.338 1093.28 601.929V610H1090.73ZM1115.75 610.29C1114.92 610.29 1114.17 610.136 1113.5 609.83C1112.83 609.517 1112.3 609.065 1111.91 608.474C1111.52 607.884 1111.33 607.159 1111.33 606.301C1111.33 605.562 1111.47 604.955 1111.76 604.477C1112.04 604 1112.42 603.622 1112.91 603.344C1113.39 603.065 1113.93 602.855 1114.53 602.713C1115.12 602.571 1115.73 602.463 1116.35 602.389C1117.13 602.298 1117.77 602.224 1118.26 602.168C1118.75 602.105 1119.1 602.006 1119.32 601.869C1119.55 601.733 1119.66 601.511 1119.66 601.205V601.145C1119.66 600.401 1119.45 599.824 1119.03 599.415C1118.61 599.006 1117.99 598.801 1117.17 598.801C1116.31 598.801 1115.63 598.991 1115.14 599.372C1114.65 599.747 1114.31 600.165 1114.13 600.625L1111.73 600.08C1112.01 599.284 1112.43 598.642 1112.97 598.153C1113.53 597.659 1114.16 597.301 1114.88 597.08C1115.59 596.852 1116.34 596.739 1117.13 596.739C1117.66 596.739 1118.21 596.801 1118.8 596.926C1119.39 597.045 1119.94 597.267 1120.45 597.591C1120.97 597.915 1121.39 598.378 1121.72 598.98C1122.05 599.577 1122.21 600.352 1122.21 601.307V610H1119.72V608.21H1119.62C1119.46 608.54 1119.21 608.864 1118.88 609.182C1118.55 609.5 1118.13 609.764 1117.61 609.974C1117.09 610.185 1116.47 610.29 1115.75 610.29ZM1116.31 608.244C1117.01 608.244 1117.61 608.105 1118.11 607.827C1118.62 607.548 1119 607.185 1119.26 606.736C1119.53 606.281 1119.67 605.795 1119.67 605.278V603.591C1119.57 603.682 1119.4 603.767 1119.14 603.847C1118.88 603.92 1118.59 603.986 1118.26 604.043C1117.93 604.094 1117.61 604.142 1117.3 604.188C1116.98 604.227 1116.72 604.261 1116.51 604.29C1116.02 604.352 1115.57 604.457 1115.16 604.605C1114.75 604.753 1114.43 604.966 1114.19 605.244C1113.95 605.517 1113.83 605.881 1113.83 606.335C1113.83 606.966 1114.06 607.443 1114.53 607.767C1114.99 608.085 1115.59 608.244 1116.31 608.244ZM1128.16 592.545V610H1125.61V592.545H1128.16ZM1134.13 592.545V610H1131.58V592.545H1134.13ZM1061.82 648V634.909H1064.27V637.04H1064.43C1064.7 636.318 1065.15 635.756 1065.77 635.352C1066.39 634.943 1067.13 634.739 1067.99 634.739C1068.87 634.739 1069.6 634.943 1070.19 635.352C1070.79 635.761 1071.23 636.324 1071.51 637.04H1071.65C1071.96 636.341 1072.46 635.784 1073.14 635.369C1073.82 634.949 1074.63 634.739 1075.58 634.739C1076.77 634.739 1077.73 635.111 1078.48 635.855C1079.24 636.599 1079.62 637.722 1079.62 639.222V648H1077.07V639.46C1077.07 638.574 1076.83 637.932 1076.35 637.534C1075.86 637.136 1075.29 636.938 1074.62 636.938C1073.79 636.938 1073.14 637.193 1072.68 637.705C1072.22 638.21 1071.99 638.861 1071.99 639.656V648H1069.45V639.298C1069.45 638.588 1069.23 638.017 1068.79 637.585C1068.34 637.153 1067.77 636.938 1067.06 636.938C1066.57 636.938 1066.13 637.065 1065.72 637.321C1065.31 637.571 1064.99 637.92 1064.74 638.369C1064.49 638.818 1064.37 639.338 1064.37 639.929V648H1061.82ZM1088.68 648.264C1087.39 648.264 1086.27 647.989 1085.34 647.438C1084.42 646.881 1083.7 646.099 1083.2 645.094C1082.7 644.082 1082.45 642.898 1082.45 641.54C1082.45 640.199 1082.7 639.017 1083.2 637.994C1083.7 636.972 1084.41 636.173 1085.31 635.599C1086.22 635.026 1087.28 634.739 1088.5 634.739C1089.24 634.739 1089.95 634.861 1090.64 635.105C1091.34 635.349 1091.96 635.733 1092.51 636.256C1093.06 636.778 1093.5 637.457 1093.81 638.293C1094.13 639.122 1094.29 640.131 1094.29 641.318V642.222H1083.89V640.312H1091.79C1091.79 639.642 1091.66 639.048 1091.39 638.531C1091.11 638.009 1090.73 637.597 1090.24 637.295C1089.75 636.994 1089.17 636.844 1088.51 636.844C1087.8 636.844 1087.17 637.02 1086.64 637.372C1086.11 637.719 1085.7 638.173 1085.41 638.736C1085.13 639.293 1084.99 639.898 1084.99 640.551V642.043C1084.99 642.918 1085.14 643.662 1085.45 644.276C1085.76 644.889 1086.19 645.358 1086.75 645.682C1087.31 646 1087.96 646.159 1088.7 646.159C1089.18 646.159 1089.62 646.091 1090.02 645.955C1090.42 645.812 1090.76 645.602 1091.05 645.324C1091.34 645.045 1091.56 644.702 1091.72 644.293L1094.13 644.727C1093.94 645.437 1093.59 646.06 1093.09 646.594C1092.6 647.122 1091.97 647.534 1091.22 647.83C1090.48 648.119 1089.63 648.264 1088.68 648.264ZM1102.02 648.256C1100.96 648.256 1100.02 647.986 1099.19 647.446C1098.37 646.901 1097.72 646.125 1097.25 645.119C1096.78 644.108 1096.55 642.895 1096.55 641.48C1096.55 640.065 1096.78 638.855 1097.26 637.849C1097.73 636.844 1098.39 636.074 1099.22 635.54C1100.05 635.006 1100.99 634.739 1102.04 634.739C1102.85 634.739 1103.5 634.875 1104 635.148C1104.5 635.415 1104.88 635.727 1105.16 636.085C1105.43 636.443 1105.65 636.759 1105.8 637.031H1105.96V630.545H1108.51V648H1106.02V645.963H1105.8C1105.65 646.241 1105.43 646.56 1105.14 646.918C1104.86 647.276 1104.46 647.588 1103.96 647.855C1103.46 648.122 1102.82 648.256 1102.02 648.256ZM1102.58 646.082C1103.32 646.082 1103.93 645.889 1104.44 645.503C1104.95 645.111 1105.34 644.568 1105.6 643.875C1105.87 643.182 1106 642.375 1106 641.455C1106 640.545 1105.87 639.75 1105.61 639.068C1105.35 638.386 1104.96 637.855 1104.46 637.474C1103.95 637.094 1103.33 636.903 1102.58 636.903C1101.82 636.903 1101.18 637.102 1100.66 637.5C1100.15 637.898 1099.77 638.44 1099.51 639.128C1099.25 639.815 1099.12 640.591 1099.12 641.455C1099.12 642.33 1099.25 643.116 1099.51 643.815C1099.78 644.514 1100.16 645.068 1100.67 645.477C1101.19 645.881 1101.83 646.082 1102.58 646.082ZM1112.14 648V634.909H1114.69V648H1112.14ZM1113.43 632.889C1112.99 632.889 1112.61 632.741 1112.29 632.446C1111.98 632.145 1111.82 631.787 1111.82 631.372C1111.82 630.952 1111.98 630.594 1112.29 630.298C1112.61 629.997 1112.99 629.847 1113.43 629.847C1113.87 629.847 1114.25 629.997 1114.56 630.298C1114.88 630.594 1115.04 630.952 1115.04 631.372C1115.04 631.787 1114.88 632.145 1114.56 632.446C1114.25 632.741 1113.87 632.889 1113.43 632.889ZM1126.41 642.571V634.909H1128.97V648H1126.46V645.733H1126.33C1126.03 646.432 1125.54 647.014 1124.88 647.48C1124.22 647.94 1123.4 648.17 1122.41 648.17C1121.57 648.17 1120.83 647.986 1120.18 647.616C1119.54 647.241 1119.03 646.688 1118.66 645.955C1118.3 645.222 1118.12 644.315 1118.12 643.236V634.909H1120.67V642.929C1120.67 643.821 1120.91 644.531 1121.41 645.06C1121.9 645.588 1122.55 645.852 1123.34 645.852C1123.81 645.852 1124.29 645.733 1124.76 645.494C1125.24 645.256 1125.63 644.895 1125.94 644.412C1126.26 643.929 1126.42 643.315 1126.41 642.571ZM1132.39 648V634.909H1134.84V637.04H1135C1135.27 636.318 1135.72 635.756 1136.34 635.352C1136.96 634.943 1137.7 634.739 1138.56 634.739C1139.44 634.739 1140.17 634.943 1140.76 635.352C1141.36 635.761 1141.8 636.324 1142.08 637.04H1142.22C1142.53 636.341 1143.03 635.784 1143.71 635.369C1144.39 634.949 1145.21 634.739 1146.15 634.739C1147.34 634.739 1148.3 635.111 1149.05 635.855C1149.81 636.599 1150.19 637.722 1150.19 639.222V648H1147.64V639.46C1147.64 638.574 1147.4 637.932 1146.92 637.534C1146.43 637.136 1145.86 636.938 1145.19 636.938C1144.36 636.938 1143.71 637.193 1143.25 637.705C1142.79 638.21 1142.56 638.861 1142.56 639.656V648H1140.02V639.298C1140.02 638.588 1139.8 638.017 1139.36 637.585C1138.91 637.153 1138.34 636.938 1137.63 636.938C1137.14 636.938 1136.7 637.065 1136.29 637.321C1135.88 637.571 1135.56 637.92 1135.31 638.369C1135.06 638.818 1134.94 639.338 1134.94 639.929V648H1132.39ZM1081.62 668.545V686H1079.07V668.545H1081.62ZM1088.86 686.29C1088.03 686.29 1087.28 686.136 1086.61 685.83C1085.94 685.517 1085.41 685.065 1085.01 684.474C1084.63 683.884 1084.44 683.159 1084.44 682.301C1084.44 681.562 1084.58 680.955 1084.86 680.477C1085.15 680 1085.53 679.622 1086.01 679.344C1086.5 679.065 1087.03 678.855 1087.63 678.713C1088.23 678.571 1088.84 678.463 1089.46 678.389C1090.24 678.298 1090.88 678.224 1091.36 678.168C1091.85 678.105 1092.21 678.006 1092.43 677.869C1092.65 677.733 1092.76 677.511 1092.76 677.205V677.145C1092.76 676.401 1092.55 675.824 1092.13 675.415C1091.72 675.006 1091.1 674.801 1090.27 674.801C1089.42 674.801 1088.74 674.991 1088.25 675.372C1087.76 675.747 1087.42 676.165 1087.23 676.625L1084.84 676.08C1085.12 675.284 1085.53 674.642 1086.08 674.153C1086.63 673.659 1087.26 673.301 1087.98 673.08C1088.7 672.852 1089.45 672.739 1090.24 672.739C1090.76 672.739 1091.32 672.801 1091.9 672.926C1092.49 673.045 1093.04 673.267 1093.55 673.591C1094.07 673.915 1094.5 674.378 1094.82 674.98C1095.15 675.577 1095.32 676.352 1095.32 677.307V686H1092.83V684.21H1092.73C1092.56 684.54 1092.32 684.864 1091.99 685.182C1091.66 685.5 1091.23 685.764 1090.72 685.974C1090.2 686.185 1089.58 686.29 1088.86 686.29ZM1089.41 684.244C1090.12 684.244 1090.72 684.105 1091.22 683.827C1091.73 683.548 1092.11 683.185 1092.37 682.736C1092.64 682.281 1092.77 681.795 1092.77 681.278V679.591C1092.68 679.682 1092.5 679.767 1092.24 679.847C1091.99 679.92 1091.69 679.986 1091.36 680.043C1091.03 680.094 1090.71 680.142 1090.4 680.188C1090.09 680.227 1089.83 680.261 1089.62 680.29C1089.12 680.352 1088.67 680.457 1088.26 680.605C1087.86 680.753 1087.53 680.966 1087.29 681.244C1087.05 681.517 1086.93 681.881 1086.93 682.335C1086.93 682.966 1087.17 683.443 1087.63 683.767C1088.1 684.085 1088.69 684.244 1089.41 684.244ZM1098.71 686V672.909H1101.18V674.989H1101.31C1101.55 674.284 1101.97 673.73 1102.57 673.327C1103.18 672.918 1103.87 672.713 1104.64 672.713C1104.8 672.713 1104.98 672.719 1105.2 672.73C1105.42 672.741 1105.59 672.756 1105.72 672.773V675.21C1105.62 675.182 1105.43 675.151 1105.17 675.116C1104.91 675.077 1104.65 675.057 1104.39 675.057C1103.79 675.057 1103.25 675.185 1102.78 675.44C1102.31 675.69 1101.94 676.04 1101.67 676.489C1101.4 676.932 1101.26 677.437 1101.26 678.006V686H1098.71ZM1112.94 691.182C1111.9 691.182 1111.01 691.045 1110.26 690.773C1109.51 690.5 1108.91 690.139 1108.44 689.69C1107.96 689.241 1107.61 688.75 1107.38 688.216L1109.57 687.312C1109.72 687.562 1109.93 687.827 1110.18 688.105C1110.44 688.389 1110.8 688.631 1111.24 688.83C1111.69 689.028 1112.26 689.128 1112.97 689.128C1113.94 689.128 1114.73 688.892 1115.36 688.42C1116 687.955 1116.31 687.21 1116.31 686.188V683.614H1116.15C1116 683.892 1115.77 684.202 1115.48 684.543C1115.2 684.884 1114.81 685.179 1114.31 685.429C1113.81 685.679 1113.16 685.804 1112.36 685.804C1111.32 685.804 1110.39 685.562 1109.56 685.08C1108.74 684.591 1108.08 683.872 1107.6 682.923C1107.12 681.969 1106.88 680.795 1106.88 679.403C1106.88 678.011 1107.12 676.818 1107.59 675.824C1108.07 674.83 1108.72 674.068 1109.55 673.54C1110.38 673.006 1111.32 672.739 1112.37 672.739C1113.19 672.739 1113.84 672.875 1114.34 673.148C1114.84 673.415 1115.23 673.727 1115.51 674.085C1115.79 674.443 1116.01 674.759 1116.17 675.031H1116.35V672.909H1118.85V686.29C1118.85 687.415 1118.59 688.338 1118.07 689.06C1117.54 689.781 1116.84 690.315 1115.94 690.662C1115.06 691.009 1114.06 691.182 1112.94 691.182ZM1112.92 683.69C1113.65 683.69 1114.27 683.52 1114.78 683.179C1115.29 682.832 1115.67 682.338 1115.94 681.696C1116.2 681.048 1116.34 680.273 1116.34 679.369C1116.34 678.489 1116.21 677.713 1115.94 677.043C1115.68 676.372 1115.3 675.849 1114.79 675.474C1114.29 675.094 1113.66 674.903 1112.92 674.903C1112.15 674.903 1111.51 675.102 1111 675.5C1110.49 675.892 1110.1 676.426 1109.84 677.102C1109.59 677.778 1109.46 678.534 1109.46 679.369C1109.46 680.227 1109.59 680.98 1109.85 681.628C1110.11 682.276 1110.5 682.781 1111.01 683.145C1111.53 683.509 1112.16 683.69 1112.92 683.69ZM1127.91 686.264C1126.62 686.264 1125.51 685.989 1124.58 685.438C1123.65 684.881 1122.94 684.099 1122.43 683.094C1121.93 682.082 1121.68 680.898 1121.68 679.54C1121.68 678.199 1121.93 677.017 1122.43 675.994C1122.94 674.972 1123.64 674.173 1124.54 673.599C1125.45 673.026 1126.51 672.739 1127.73 672.739C1128.47 672.739 1129.19 672.861 1129.88 673.105C1130.57 673.349 1131.19 673.733 1131.75 674.256C1132.3 674.778 1132.73 675.457 1133.05 676.293C1133.37 677.122 1133.53 678.131 1133.53 679.318V680.222H1123.12V678.312H1131.03C1131.03 677.642 1130.89 677.048 1130.62 676.531C1130.35 676.009 1129.96 675.597 1129.47 675.295C1128.98 674.994 1128.41 674.844 1127.75 674.844C1127.03 674.844 1126.41 675.02 1125.87 675.372C1125.34 675.719 1124.94 676.173 1124.65 676.736C1124.36 677.293 1124.22 677.898 1124.22 678.551V680.043C1124.22 680.918 1124.37 681.662 1124.68 682.276C1124.99 682.889 1125.43 683.358 1125.98 683.682C1126.54 684 1127.19 684.159 1127.94 684.159C1128.42 684.159 1128.86 684.091 1129.26 683.955C1129.65 683.812 1130 683.602 1130.29 683.324C1130.58 683.045 1130.8 682.702 1130.95 682.293L1133.36 682.727C1133.17 683.437 1132.82 684.06 1132.32 684.594C1131.83 685.122 1131.21 685.534 1130.46 685.83C1129.71 686.119 1128.86 686.264 1127.91 686.264ZM1106.19 711.037C1105.75 711.037 1105.38 710.889 1105.06 710.594C1104.74 710.298 1104.58 709.94 1104.58 709.52C1104.58 709.099 1104.74 708.741 1105.06 708.446C1105.38 708.151 1105.75 708.003 1106.19 708.003C1106.63 708.003 1107.01 708.151 1107.32 708.446C1107.64 708.741 1107.8 709.099 1107.8 709.52C1107.8 709.94 1107.64 710.298 1107.32 710.594C1107.01 710.889 1106.63 711.037 1106.19 711.037ZM1106.02 717.795C1105.58 717.795 1105.2 717.648 1104.89 717.352C1104.57 717.057 1104.41 716.699 1104.41 716.278C1104.41 715.858 1104.57 715.5 1104.89 715.205C1105.2 714.909 1105.58 714.761 1106.02 714.761C1106.46 714.761 1106.84 714.909 1107.15 715.205C1107.47 715.5 1107.63 715.858 1107.63 716.278C1107.63 716.699 1107.47 717.057 1107.15 717.352C1106.84 717.648 1106.46 717.795 1106.02 717.795ZM1106.19 724.588C1105.75 724.588 1105.38 724.44 1105.06 724.145C1104.74 723.849 1104.58 723.491 1104.58 723.071C1104.58 722.651 1104.74 722.293 1105.06 721.997C1105.38 721.702 1105.75 721.554 1106.19 721.554C1106.63 721.554 1107.01 721.702 1107.32 721.997C1107.64 722.293 1107.8 722.651 1107.8 723.071C1107.8 723.491 1107.64 723.849 1107.32 724.145C1107.01 724.44 1106.63 724.588 1106.19 724.588Z" fill="#333333"/>
<path d="M1305.19 630.545V648H1302.65V630.545H1305.19ZM1308.62 648V634.909H1311.17V648H1308.62ZM1309.91 632.889C1309.47 632.889 1309.09 632.741 1308.77 632.446C1308.46 632.145 1308.3 631.787 1308.3 631.372C1308.3 630.952 1308.46 630.594 1308.77 630.298C1309.09 629.997 1309.47 629.847 1309.91 629.847C1310.35 629.847 1310.73 629.997 1311.04 630.298C1311.36 630.594 1311.52 630.952 1311.52 631.372C1311.52 631.787 1311.36 632.145 1311.04 632.446C1310.73 632.741 1310.35 632.889 1309.91 632.889ZM1320.09 653.182C1319.05 653.182 1318.15 653.045 1317.4 652.773C1316.66 652.5 1316.05 652.139 1315.58 651.69C1315.11 651.241 1314.76 650.75 1314.52 650.216L1316.71 649.312C1316.87 649.562 1317.07 649.827 1317.33 650.105C1317.59 650.389 1317.94 650.631 1318.38 650.83C1318.83 651.028 1319.41 651.128 1320.11 651.128C1321.08 651.128 1321.88 650.892 1322.51 650.42C1323.14 649.955 1323.45 649.21 1323.45 648.188V645.614H1323.29C1323.14 645.892 1322.92 646.202 1322.63 646.543C1322.34 646.884 1321.95 647.179 1321.45 647.429C1320.95 647.679 1320.3 647.804 1319.5 647.804C1318.47 647.804 1317.53 647.562 1316.7 647.08C1315.88 646.591 1315.23 645.872 1314.74 644.923C1314.27 643.969 1314.03 642.795 1314.03 641.403C1314.03 640.011 1314.26 638.818 1314.74 637.824C1315.21 636.83 1315.87 636.068 1316.7 635.54C1317.53 635.006 1318.47 634.739 1319.52 634.739C1320.33 634.739 1320.99 634.875 1321.49 635.148C1321.99 635.415 1322.38 635.727 1322.65 636.085C1322.94 636.443 1323.16 636.759 1323.31 637.031H1323.5V634.909H1325.99V648.29C1325.99 649.415 1325.73 650.338 1325.21 651.06C1324.69 651.781 1323.98 652.315 1323.09 652.662C1322.2 653.009 1321.2 653.182 1320.09 653.182ZM1320.06 645.69C1320.8 645.69 1321.42 645.52 1321.92 645.179C1322.43 644.832 1322.82 644.338 1323.08 643.696C1323.35 643.048 1323.48 642.273 1323.48 641.369C1323.48 640.489 1323.35 639.713 1323.09 639.043C1322.83 638.372 1322.44 637.849 1321.94 637.474C1321.43 637.094 1320.81 636.903 1320.06 636.903C1319.3 636.903 1318.66 637.102 1318.15 637.5C1317.63 637.892 1317.25 638.426 1316.99 639.102C1316.73 639.778 1316.6 640.534 1316.6 641.369C1316.6 642.227 1316.73 642.98 1316.99 643.628C1317.26 644.276 1317.64 644.781 1318.15 645.145C1318.67 645.509 1319.31 645.69 1320.06 645.69ZM1331.96 640.227V648H1329.41V630.545H1331.93V637.04H1332.09C1332.4 636.335 1332.86 635.776 1333.49 635.361C1334.13 634.946 1334.95 634.739 1335.97 634.739C1336.86 634.739 1337.65 634.923 1338.32 635.293C1338.99 635.662 1339.52 636.213 1339.89 636.946C1340.26 637.673 1340.45 638.582 1340.45 639.673V648H1337.9V639.98C1337.9 639.02 1337.65 638.276 1337.16 637.747C1336.67 637.213 1335.98 636.946 1335.1 636.946C1334.49 636.946 1333.95 637.074 1333.48 637.33C1333.01 637.585 1332.63 637.96 1332.36 638.455C1332.09 638.943 1331.96 639.534 1331.96 640.227ZM1349.96 634.909V636.955H1342.81V634.909H1349.96ZM1344.73 631.773H1347.28V644.156C1347.28 644.651 1347.35 645.023 1347.5 645.273C1347.65 645.517 1347.84 645.685 1348.07 645.776C1348.31 645.861 1348.57 645.903 1348.84 645.903C1349.05 645.903 1349.23 645.889 1349.38 645.861C1349.53 645.832 1349.65 645.81 1349.74 645.793L1350.2 647.898C1350.05 647.955 1349.84 648.011 1349.57 648.068C1349.3 648.131 1348.95 648.165 1348.55 648.17C1347.88 648.182 1347.25 648.062 1346.67 647.812C1346.09 647.562 1345.62 647.176 1345.26 646.653C1344.91 646.131 1344.73 645.474 1344.73 644.685V631.773ZM1326.19 711.037C1325.75 711.037 1325.38 710.889 1325.06 710.594C1324.74 710.298 1324.58 709.94 1324.58 709.52C1324.58 709.099 1324.74 708.741 1325.06 708.446C1325.38 708.151 1325.75 708.003 1326.19 708.003C1326.63 708.003 1327.01 708.151 1327.32 708.446C1327.64 708.741 1327.8 709.099 1327.8 709.52C1327.8 709.94 1327.64 710.298 1327.32 710.594C1327.01 710.889 1326.63 711.037 1326.19 711.037ZM1326.02 717.795C1325.58 717.795 1325.2 717.648 1324.89 717.352C1324.57 717.057 1324.41 716.699 1324.41 716.278C1324.41 715.858 1324.57 715.5 1324.89 715.205C1325.2 714.909 1325.58 714.761 1326.02 714.761C1326.46 714.761 1326.84 714.909 1327.15 715.205C1327.47 715.5 1327.63 715.858 1327.63 716.278C1327.63 716.699 1327.47 717.057 1327.15 717.352C1326.84 717.648 1326.46 717.795 1326.02 717.795ZM1326.19 724.588C1325.75 724.588 1325.38 724.44 1325.06 724.145C1324.74 723.849 1324.58 723.491 1324.58 723.071C1324.58 722.651 1324.74 722.293 1325.06 721.997C1325.38 721.702 1325.75 721.554 1326.19 721.554C1326.63 721.554 1327.01 721.702 1327.32 721.997C1327.64 722.293 1327.8 722.651 1327.8 723.071C1327.8 723.491 1327.64 723.849 1327.32 724.145C1327.01 724.44 1326.63 724.588 1326.19 724.588Z" fill="#333333"/>
</svg>
