<svg width="48" height="48" viewBox="0 0 48 48" fill="none" xmlns="http://www.w3.org/2000/svg">
<path d="M40.5977 24C40.5977 24.8837 39.8817 25.5996 38.998 25.5996L8.99805 25.5996C8.11439 25.5996 7.39844 24.8837 7.39844 24C7.39844 23.1163 8.11439 22.4004 8.99805 22.4004L38.998 22.4004C39.8817 22.4004 40.5977 23.1163 40.5977 24Z" fill="#333333"/>
<path fill-rule="evenodd" clip-rule="evenodd" d="M33.2227 4.40039C35.6799 4.40039 37.4157 6.80756 36.6387 9.13867L33.9727 17.1387C33.4827 18.6087 32.1061 19.5996 30.5566 19.5996L17.4395 19.5996C15.89 19.5995 14.5134 18.6087 14.0234 17.1387L11.3574 9.13867C10.5804 6.80758 12.3163 4.40043 14.7734 4.40039L33.2227 4.40039ZM33.6035 8.12695C33.6899 7.86794 33.4957 7.59961 33.2227 7.59961L14.7734 7.59961C14.5005 7.59965 14.3063 7.86796 14.3926 8.12695L17.0605 16.127C17.1151 16.2899 17.2675 16.4003 17.4395 16.4004L30.5566 16.4004C30.7286 16.4003 30.8809 16.2899 30.9355 16.127L33.6035 8.12695Z" fill="#333333"/>
<path fill-rule="evenodd" clip-rule="evenodd" d="M36.6387 38.8613C37.4157 41.1924 35.6799 43.5996 33.2227 43.5996H14.7734C12.3163 43.5996 10.5804 41.1924 11.3574 38.8613L14.0234 30.8613C14.5134 29.3913 15.89 28.4005 17.4395 28.4004H30.5566C32.1061 28.4004 33.4827 29.3913 33.9727 30.8613L36.6387 38.8613ZM33.6035 39.873L30.9355 31.873C30.8809 31.7101 30.7286 31.5997 30.5566 31.5996H17.4395C17.2675 31.5997 17.1151 31.7101 17.0605 31.873L14.3926 39.873C14.3063 40.132 14.5004 40.4004 14.7734 40.4004H33.2227C33.4957 40.4004 33.6899 40.1321 33.6035 39.873Z" fill="#333333"/>
</svg>
