<svg width="48" height="48" viewBox="0 0 48 48" fill="none" xmlns="http://www.w3.org/2000/svg">
<path d="M35.9328 4.80781C36.5914 4.21872 37.6029 4.27512 38.192 4.93377C40.4336 7.44006 41.7994 10.5722 41.7994 14.0004C41.7994 17.4286 40.4336 20.5608 38.192 23.067C37.6029 23.7257 36.5914 23.7821 35.9328 23.193C35.2741 22.6039 35.2177 21.5924 35.8068 20.9338C37.593 18.9367 38.5994 16.5434 38.5994 14.0004C38.5994 11.4575 37.593 9.06415 35.8068 7.06705C35.2177 6.40839 35.2741 5.3969 35.9328 4.80781Z" fill="#333333"/>
<path fill-rule="evenodd" clip-rule="evenodd" d="M21.9994 6.40039C17.802 6.40039 14.3994 9.80303 14.3994 14.0004C14.3994 18.1978 17.802 21.6004 21.9994 21.6004C26.1968 21.6004 29.5994 18.1978 29.5994 14.0004C29.5994 9.80303 26.1968 6.40039 21.9994 6.40039ZM17.5994 14.0004C17.5994 11.5703 19.5694 9.60039 21.9994 9.60039C24.4295 9.60039 26.3994 11.5703 26.3994 14.0004C26.3994 16.4304 24.4295 18.4004 21.9994 18.4004C19.5694 18.4004 17.5994 16.4304 17.5994 14.0004Z" fill="#333333"/>
<path d="M33.192 7.93377C32.6029 7.27512 31.5914 7.21872 30.9328 7.80781C30.2741 8.3969 30.2177 9.40839 30.8068 10.067C31.8378 11.2198 32.3994 12.577 32.3994 14.0004C32.3994 15.4238 31.8378 16.781 30.8068 17.9338C30.2177 18.5924 30.2741 19.6039 30.9328 20.193C31.5914 20.7821 32.6029 20.7257 33.192 20.067C34.6784 18.4051 35.5994 16.309 35.5994 14.0004C35.5994 11.6918 34.6784 9.59567 33.192 7.93377Z" fill="#333333"/>
<path fill-rule="evenodd" clip-rule="evenodd" d="M21.9988 24.4004C17.9062 24.4004 14.1221 25.3451 11.3057 26.9545C8.53457 28.5381 6.39882 30.9695 6.39882 34.0004L6.39863 34.2068C6.39586 36.2523 6.3922 38.9567 8.72892 40.8899C9.88016 41.8423 11.473 42.505 13.5828 42.9388C15.6988 43.374 18.4429 43.6004 21.9988 43.6004C25.5547 43.6004 28.2988 43.374 30.4149 42.9388C32.5246 42.505 34.1175 41.8423 35.2687 40.8899C37.6054 38.9567 37.6018 36.2523 37.599 34.2068L37.5988 34.0004C37.5988 30.9695 35.4631 28.5381 32.692 26.9545C29.8755 25.3451 26.0915 24.4004 21.9988 24.4004ZM9.59882 34.0004C9.59882 32.6135 10.5973 31.0449 12.8933 29.7329C15.144 28.4468 18.36 27.6004 21.9988 27.6004C25.6377 27.6004 28.8536 28.4468 31.1043 29.7329C33.4003 31.0449 34.3988 32.6135 34.3988 34.0004C34.3988 36.3512 34.3127 37.5276 33.2289 38.4243C32.6302 38.9196 31.598 39.4286 29.7703 39.8044C27.9488 40.179 25.4429 40.4004 21.9988 40.4004C18.5547 40.4004 16.0488 40.179 14.2274 39.8044C12.3996 39.4286 11.3675 38.9196 10.7687 38.4243C9.68493 37.5276 9.59882 36.3512 9.59882 34.0004Z" fill="#333333"/>
</svg>
