<svg width="48" height="48" viewBox="0 0 48 48" fill="none" xmlns="http://www.w3.org/2000/svg">
<path d="M11.8678 33.868C11.243 34.4929 11.243 35.5059 11.8678 36.1308C12.4927 36.7556 13.5057 36.7556 14.1306 36.1308L23.9988 26.2625L33.8671 36.1308C34.4919 36.7556 35.505 36.7556 36.1298 36.1308C36.7546 35.5059 36.7546 34.4929 36.1298 33.868L26.2616 23.9998L36.1306 14.1308C36.7554 13.5059 36.7554 12.4929 36.1306 11.868C35.5057 11.2432 34.4927 11.2432 33.8678 11.868L23.9988 21.7371L14.1298 11.868C13.505 11.2432 12.4919 11.2432 11.8671 11.868C11.2422 12.4929 11.2422 13.5059 11.8671 14.1308L21.7361 23.9998L11.8678 33.868Z" fill="#333333"/>
</svg>
