<svg width="48" height="48" viewBox="0 0 48 48" fill="none" xmlns="http://www.w3.org/2000/svg">
<path fill-rule="evenodd" clip-rule="evenodd" d="M8.12981 5.86902C7.50497 5.24418 6.49191 5.24418 5.86707 5.86902C5.24223 6.49386 5.24223 7.50692 5.86707 8.13176L7.65029 9.91499C5.73042 10.803 4.39844 12.7461 4.39844 15.0004V33.0004C4.39844 36.0932 6.90564 38.6004 9.99844 38.6004H36.3357L39.8671 42.1318C40.4919 42.7566 41.505 42.7566 42.1298 42.1318C42.7546 41.5069 42.7546 40.4939 42.1298 39.869L8.12981 5.86902ZM33.1357 35.4004L29.4102 31.6749C29.1651 31.5751 28.9268 31.461 28.6953 31.3326C27.6584 30.7502 26.8393 29.9026 26.2379 28.79C26.1416 28.6118 26.0531 28.4274 25.9722 28.2369L20.4599 22.7246H20.1783C19.5868 22.7246 19.1175 22.2664 18.853 21.7374C18.7062 21.4438 18.5121 21.1929 18.2706 20.9846C18.0291 20.7762 17.7427 20.6176 17.4112 20.5087C17.0845 20.3951 16.7223 20.3382 16.3246 20.3382C15.6191 20.3382 15.0107 20.5111 14.4993 20.8567C13.9927 21.2024 13.602 21.7019 13.3274 22.3553C13.0575 23.0087 12.9226 23.7994 12.9226 24.7275C12.9226 25.6934 13.0599 26.503 13.3345 27.1564C13.6139 27.8051 14.0045 28.2952 14.5064 28.6266C15.013 28.9533 15.612 29.1167 16.3033 29.1167C16.6915 29.1167 17.0443 29.0669 17.3615 28.9675C17.6835 28.8681 17.9652 28.7237 18.2067 28.5343C18.4529 28.3401 18.6541 28.1058 18.8104 27.8311C19.1007 27.3273 19.5697 26.8891 20.1511 26.8926L20.6996 26.8959C21.7718 26.9023 22.6137 27.8523 22.1342 28.8113C21.8265 29.4363 21.4027 30.0068 20.8629 30.5229C20.3232 31.0343 19.665 31.4415 18.8885 31.7445C18.1167 32.0475 17.2313 32.199 16.2322 32.199C14.916 32.199 13.737 31.9102 12.6953 31.3326C11.6584 30.7502 10.8393 29.9026 10.2379 28.79C9.6366 27.6773 9.33594 26.3231 9.33594 24.7275C9.33594 23.1271 9.64134 21.7705 10.2521 20.6578C10.8629 19.5452 11.6892 18.7 12.7308 18.1223C13.4516 17.7226 14.2325 17.4612 15.0734 17.3381L10.3357 12.6004H9.99844C8.67296 12.6004 7.59844 13.6749 7.59844 15.0004L7.59844 33.0004C7.59844 34.3259 8.67295 35.4004 9.99844 35.4004H33.1357Z" fill="#333333"/>
<path d="M40.3984 33.0004C40.3984 33.4105 40.2956 33.7966 40.1142 34.1343L42.4188 36.4389C43.1581 35.4899 43.5984 34.2966 43.5984 33.0004V15.0004C43.5984 11.9076 41.0912 9.40039 37.9984 9.40039H15.3803L18.5803 12.6004H37.9984C39.3239 12.6004 40.3984 13.6749 40.3984 15.0004V33.0004Z" fill="#333333"/>
<path d="M36.6737 30.6938L34.3717 28.3918C34.5444 28.2286 34.6906 28.0417 34.8104 27.8311C35.1007 27.3273 35.5697 26.8891 36.1511 26.8926L36.6996 26.8959C37.7718 26.9023 38.6137 27.8523 38.1342 28.8113C37.8265 29.4363 37.4027 30.0068 36.8629 30.5229C36.8014 30.5812 36.7383 30.6382 36.6737 30.6938Z" fill="#333333"/>
<path d="M29.0895 23.1096L26.3927 20.4128C26.9876 19.4203 27.767 18.6568 28.7308 18.1223C29.7725 17.5447 30.9396 17.2559 32.2322 17.2559C33.1129 17.2559 33.9273 17.379 34.6754 17.6252C35.4235 17.8667 36.0817 18.2218 36.6499 18.6905C37.218 19.1545 37.6797 19.7251 38.0348 20.4022C38.1045 20.535 38.169 20.6716 38.2282 20.8119C38.6404 21.7874 37.7779 22.7246 36.7189 22.7246H36.1783C35.5868 22.7246 35.1175 22.2664 34.853 21.7374C34.7062 21.4438 34.5121 21.1929 34.2706 20.9846C34.0291 20.7762 33.7427 20.6176 33.4112 20.5087C33.0845 20.3951 32.7223 20.3382 32.3246 20.3382C31.6191 20.3382 31.0107 20.5111 30.4993 20.8567C29.9927 21.2024 29.602 21.7019 29.3274 22.3553C29.2308 22.5891 29.1515 22.8406 29.0895 23.1096Z" fill="#333333"/>
</svg>
