<svg width="48" height="48" viewBox="0 0 48 48" fill="none" xmlns="http://www.w3.org/2000/svg">
<path d="M29.998 32.4004C30.8817 32.4004 31.5977 33.1163 31.5977 34C31.5977 34.8837 30.8817 35.5996 29.998 35.5996H17.998C17.1144 35.5996 16.3984 34.8837 16.3984 34C16.3984 33.1163 17.1144 32.4004 17.998 32.4004H29.998Z" fill="#333333"/>
<path d="M33.998 22.4004C34.8817 22.4004 35.5977 23.1163 35.5977 24C35.5977 24.8837 34.8817 25.5996 33.998 25.5996H13.998C13.1144 25.5996 12.3984 24.8837 12.3984 24C12.3984 23.1163 13.1144 22.4004 13.998 22.4004H33.998Z" fill="#333333"/>
<path d="M37.998 12.4004C38.8817 12.4004 39.5977 13.1163 39.5977 14C39.5977 14.8837 38.8817 15.5996 37.998 15.5996H9.99805C9.11439 15.5996 8.39844 14.8837 8.39844 14C8.39844 13.1163 9.11439 12.4004 9.99805 12.4004H37.998Z" fill="#333333"/>
</svg>
