<svg width="48" height="48" viewBox="0 0 48 48" fill="none" xmlns="http://www.w3.org/2000/svg">
<path fill-rule="evenodd" clip-rule="evenodd" d="M6.55375 11.3128C6.81902 10.7554 7.38122 10.4004 7.99845 10.4004H39.9985C40.6157 10.4004 41.1779 10.7554 41.4432 11.3128C41.7084 11.8701 41.6295 12.5303 41.2402 13.0093L28.5985 28.5685V38.0004C28.5985 38.6891 28.1578 39.3005 27.5044 39.5183L21.5044 41.5183C21.0165 41.6809 20.4801 41.5991 20.0629 41.2984C19.6457 40.9977 19.3985 40.5147 19.3985 40.0004V28.5685L6.75667 13.0093C6.36745 12.5303 6.28848 11.8701 6.55375 11.3128ZM11.36 13.6004L22.2402 26.9914C22.472 27.2766 22.5985 27.6329 22.5985 28.0004V37.7805L25.3985 36.8472V28.0004C25.3985 27.6329 25.5249 27.2766 25.7567 26.9914L36.6369 13.6004H11.36Z" fill="#333333"/>
</svg>
