<svg width="48" height="48" viewBox="0 0 48 48" fill="none" xmlns="http://www.w3.org/2000/svg">
<path fill-rule="evenodd" clip-rule="evenodd" d="M24.2207 4.40039C19.9006 4.40039 16.3984 7.90252 16.3984 12.2226C16.3984 16.5427 19.9006 20.0448 24.2207 20.0448C28.5408 20.0448 32.0429 16.5427 32.0429 12.2226C32.0429 7.90252 28.5408 4.40039 24.2207 4.40039ZM19.5984 12.2226C19.5984 9.66983 21.6679 7.60039 24.2207 7.60039C26.7734 7.60039 28.8429 9.66983 28.8429 12.2226C28.8429 14.7754 26.7734 16.8448 24.2207 16.8448C21.6679 16.8448 19.5984 14.7754 19.5984 12.2226Z" fill="#333333"/>
<path fill-rule="evenodd" clip-rule="evenodd" d="M32.9981 22C34.0853 22 34.6295 22 35.058 22.1672C35.3404 22.2773 35.5972 22.4392 35.8137 22.6436C36.0303 22.848 36.2023 23.0909 36.32 23.3585C36.4289 23.6038 36.4705 23.8898 36.4879 24.3078C36.4955 24.6098 36.584 24.9049 36.7451 25.1653C36.9062 25.4257 37.1345 25.6428 37.4084 25.7961C37.6879 25.9438 38.0021 26.0221 38.3219 26.0236C38.6418 26.0251 38.9568 25.9499 39.2378 25.8049C39.6292 25.6091 39.9129 25.5013 40.1931 25.4661C40.8061 25.3896 41.4261 25.5462 41.9183 25.9017C42.285 26.1679 42.5553 26.6088 43.0951 27.4894L43.1016 27.5C43.6458 28.3877 43.9168 28.8321 43.9781 29.2655C44.0181 29.5522 43.9978 29.8436 43.9185 30.1229C43.8392 30.4021 43.7025 30.6637 43.5161 30.8924C43.3436 31.1036 43.1016 31.2807 42.7265 31.504C42.1753 31.8296 41.821 32.3862 41.821 33C41.821 33.6138 42.1753 34.1704 42.7276 34.4971C43.1016 34.7193 43.3436 34.8964 43.515 35.1076C43.7015 35.3363 43.8385 35.5978 43.918 35.877C43.9975 36.1563 44.0179 36.4477 43.9781 36.7345C43.9168 37.169 43.6458 37.6123 43.1016 38.5C42.5586 39.3877 42.2865 39.8321 41.9183 40.0983C41.4274 40.4536 40.8067 40.6109 40.1931 40.5339C39.9129 40.4987 39.6292 40.3909 39.2378 40.1951C38.9569 40.0503 38.6421 39.9752 38.3225 39.9767C38.0029 39.9782 37.6889 40.0564 37.4096 40.2039C36.8457 40.5108 36.5111 41.0784 36.4879 41.6922C36.4705 42.1102 36.4289 42.3962 36.32 42.6415C36.0822 43.1819 35.6283 43.6104 35.058 43.8328C34.6295 44 34.0853 44 32.9981 44C31.9109 44 31.3667 44 30.9383 43.8328C30.3663 43.6095 29.9124 43.1805 29.6762 42.6415C29.5674 42.3962 29.5257 42.1102 29.5083 41.6922C29.484 41.0784 29.1505 40.5119 28.5878 40.2039C28.3083 40.0562 27.9941 39.9779 27.6743 39.9764C27.3545 39.9749 27.0394 40.0501 26.7584 40.1951C26.367 40.3909 26.0834 40.4987 25.8032 40.5339C25.1895 40.6098 24.5689 40.4536 24.0779 40.0983C23.7112 39.8321 23.441 39.3912 22.9011 38.5106L22.8946 38.5C22.3504 37.6123 22.0795 37.1679 22.0181 36.7345C21.9782 36.4478 21.9984 36.1564 22.0777 35.8771C22.157 35.5979 22.2938 35.3363 22.4801 35.1076C22.6526 34.8964 22.8946 34.7193 23.2697 34.496C23.8209 34.1704 24.1752 33.6138 24.1752 33C24.1752 32.3862 23.8209 31.8296 23.2686 31.5029C22.8946 31.2807 22.6526 31.1036 22.4812 30.8924C22.1038 30.4293 21.937 29.8441 22.0181 29.2655C22.0795 28.831 22.3504 28.3877 22.8946 27.5C23.4376 26.6123 23.7097 26.1679 24.0779 25.9017C24.5701 25.5462 25.1901 25.3896 25.8032 25.4661C26.0834 25.5013 26.367 25.6091 26.7584 25.8049C27.0393 25.9497 27.3541 26.0248 27.6737 26.0233C27.9933 26.0218 28.3073 25.9436 28.5867 25.7961C28.8608 25.643 29.0894 25.4259 29.2506 25.1655C29.4119 24.9051 29.5006 24.6099 29.5083 24.3078C29.5257 23.8909 29.5674 23.6038 29.6762 23.3585C29.914 22.8181 30.368 22.3896 30.9383 22.1672C31.3678 22 31.9109 22 32.9981 22ZM36.4983 33C36.4983 34.8227 34.9317 36.3 32.9981 36.3C31.0656 36.3 29.4979 34.8227 29.4979 33C29.4979 31.1773 31.0645 29.7 32.9981 29.7C34.9306 29.7 36.4983 31.1773 36.4983 33Z" fill="#333333"/>
<path d="M20.4433 22.1777C22.418 22.1777 24.3148 22.4234 26.041 22.8767C24.8152 22.7446 23.5679 23.0633 22.5558 23.7945C22.0494 24.1605 21.6974 24.5907 21.4346 24.9595C21.3394 25.0931 21.2426 25.2382 21.1451 25.3897C20.9134 25.3818 20.6794 25.3777 20.4433 25.3777C17.234 25.3777 14.4069 26.1246 12.4378 27.2499C10.4233 28.4011 9.59888 29.7474 9.59888 30.8888C9.59888 32.9942 9.68499 33.9484 10.5743 34.6842C11.0759 35.0991 11.9622 35.543 13.5712 35.8739C14.9852 36.1646 16.8752 36.3518 19.3988 36.3919C19.396 36.6259 19.4107 36.8604 19.4432 37.0937L19.444 37.0994C19.5334 37.7309 19.7623 38.2491 19.9681 38.6454C20.123 38.9438 20.3187 39.2711 20.5194 39.5999L20.4433 39.6C17.2763 39.6 14.8239 39.3984 12.9266 39.0083C11.0356 38.6194 9.58856 38.0218 8.53454 37.1498C6.39158 35.3769 6.39568 32.894 6.39866 31.0855L6.39888 30.8888C6.39888 28.1033 8.3605 25.8942 10.8501 24.4715C13.385 23.0229 16.7802 22.1777 20.4433 22.1777Z" fill="#333333"/>
</svg>
