<svg width="48" height="48" viewBox="0 0 48 48" fill="none" xmlns="http://www.w3.org/2000/svg">
<path d="M21.1289 21.1309C21.7537 20.506 21.7537 19.494 21.1289 18.8691L11.8594 9.59961L17.998 9.59961C18.8817 9.59961 19.5977 8.88365 19.5977 8C19.5977 7.11635 18.8817 6.40039 17.998 6.40039L7.99805 6.40039C7.11439 6.40039 6.39844 7.11634 6.39844 8L6.39844 18C6.39844 18.8837 7.11439 19.5996 7.99805 19.5996C8.8817 19.5996 9.59766 18.8837 9.59766 18L9.59766 11.8613L18.8672 21.1309C19.492 21.7557 20.5041 21.7557 21.1289 21.1309Z" fill="#333333"/>
<path d="M26.8672 26.8691C26.2424 27.494 26.2424 28.506 26.8672 29.1309L36.1367 38.4004H29.998C29.1144 38.4004 28.3984 39.1163 28.3984 40C28.3984 40.8837 29.1144 41.5996 29.998 41.5996H39.998C40.8817 41.5996 41.5977 40.8837 41.5977 40V30C41.5977 29.1163 40.8817 28.4004 39.998 28.4004C39.1144 28.4004 38.3984 29.1163 38.3984 30V36.1387L29.1289 26.8691C28.5041 26.2443 27.492 26.2443 26.8672 26.8691Z" fill="#333333"/>
<path d="M26.8672 21.1309C26.2424 20.506 26.2424 19.494 26.8672 18.8691L36.1367 9.59961L29.998 9.59961C29.1144 9.59961 28.3984 8.88365 28.3984 8C28.3984 7.11635 29.1144 6.40039 29.998 6.40039L39.998 6.40039C40.8817 6.40039 41.5977 7.11634 41.5977 8V18C41.5977 18.8837 40.8817 19.5996 39.998 19.5996C39.1144 19.5996 38.3984 18.8837 38.3984 18V11.8613L29.1289 21.1309C28.5041 21.7557 27.492 21.7557 26.8672 21.1309Z" fill="#333333"/>
<path d="M21.1289 26.8691C21.7537 27.494 21.7537 28.506 21.1289 29.1309L11.8594 38.4004H17.998C18.8817 38.4004 19.5977 39.1163 19.5977 40C19.5977 40.8837 18.8817 41.5996 17.998 41.5996H7.99805C7.11439 41.5996 6.39844 40.8837 6.39844 40L6.39844 30C6.39844 29.1163 7.11439 28.4004 7.99805 28.4004C8.8817 28.4004 9.59766 29.1163 9.59766 30L9.59766 36.1387L18.8672 26.8691C19.492 26.2443 20.5041 26.2443 21.1289 26.8691Z" fill="#333333"/>
</svg>
