<svg width="48" height="48" viewBox="0 0 48 48" fill="none" xmlns="http://www.w3.org/2000/svg">
<path fill-rule="evenodd" clip-rule="evenodd" d="M28.665 29.3348H28.3312V26.4181C28.3312 23.2241 30.9205 20.6348 34.1146 20.6348C37.3086 20.6348 39.8979 23.2241 39.8979 26.4181V29.3348H39.3317C41.5408 29.3348 43.3317 31.1256 43.3317 33.3348V39.3348C43.3317 41.5439 41.5408 43.3348 39.3317 43.3348H28.665C26.4559 43.3348 24.665 41.5439 24.665 39.3348V33.3348C24.665 31.1256 26.4559 29.3348 28.665 29.3348ZM31.7313 26.4181C31.7313 25.1018 32.7983 24.0348 34.1146 24.0348C35.4309 24.0348 36.4979 25.1018 36.4979 26.4181V29.3348H31.7313V26.4181Z" fill="#333333"/>
<path fill-rule="evenodd" clip-rule="evenodd" d="M12.6221 12.2226C12.6221 7.90252 16.1242 4.40039 20.4443 4.40039C24.7644 4.40039 28.2665 7.90252 28.2665 12.2226C28.2665 16.5427 24.7644 20.0448 20.4443 20.0448C16.1242 20.0448 12.6221 16.5427 12.6221 12.2226ZM20.4443 7.60039C17.8915 7.60039 15.8221 9.66983 15.8221 12.2226C15.8221 14.7754 17.8915 16.8448 20.4443 16.8448C22.9971 16.8448 25.0665 14.7754 25.0665 12.2226C25.0665 9.66983 22.9971 7.60039 20.4443 7.60039Z" fill="#333333"/>
<path d="M12.4378 27.2499C10.4233 28.4011 9.59888 29.7474 9.59888 30.8888C9.59888 32.9942 9.68499 33.9484 10.5743 34.6842C11.0759 35.0991 11.9622 35.543 13.5712 35.8739C15.1739 36.2034 17.3881 36.4 20.4433 36.4C21.0127 36.4 21.5529 36.3931 22.0654 36.3799V39.3352C22.0654 39.4174 22.0669 39.4993 22.0699 39.5808C21.5498 39.5936 21.0079 39.6 20.4433 39.6C17.2763 39.6 14.8239 39.3984 12.9266 39.0083C11.0356 38.6194 9.58856 38.0218 8.53454 37.1498C6.39158 35.3769 6.39568 32.894 6.39866 31.0855L6.39888 30.8888C6.39888 28.1033 8.3605 25.8942 10.8501 24.4715C13.385 23.0229 16.7802 22.1777 20.4433 22.1777C22.5797 22.1777 24.6249 22.4652 26.4615 22.9922C26.0316 23.951 25.7766 25.0053 25.7371 26.1144C24.182 25.6504 22.3824 25.3777 20.4433 25.3777C17.234 25.3777 14.4069 26.1246 12.4378 27.2499Z" fill="#333333"/>
</svg>
