<svg width="48" height="48" viewBox="0 0 48 48" fill="none" xmlns="http://www.w3.org/2000/svg">
<path d="M22.3994 36.0004C22.3994 36.884 23.1157 37.6004 23.9994 37.6004C24.883 37.6004 25.5994 36.884 25.5994 36.0004L25.5994 25.6004H35.9984C36.8821 25.6004 37.5984 24.8841 37.5984 24.0004C37.5984 23.1168 36.8821 22.4004 35.9984 22.4004H25.5994L25.5994 12.0004C25.5994 11.1167 24.883 10.4004 23.9994 10.4004C23.1157 10.4004 22.3994 11.1167 22.3994 12.0004L22.3994 22.4004H11.9984C11.1148 22.4004 10.3984 23.1168 10.3984 24.0004C10.3984 24.8841 11.1148 25.6004 11.9984 25.6004H22.3994L22.3994 36.0004Z" fill="#333333"/>
</svg>
