<svg width="48" height="48" viewBox="0 0 48 48" fill="none" xmlns="http://www.w3.org/2000/svg">
<path fill-rule="evenodd" clip-rule="evenodd" d="M19.998 8.40039C28.6137 8.40039 35.5977 15.3844 35.5977 24C35.5977 28.1859 33.9464 31.9905 31.2637 34.791C28.4261 37.7527 24.4264 39.5996 19.998 39.5996C11.3824 39.5996 4.39844 32.6156 4.39844 24C4.39844 15.3844 11.3824 8.40039 19.998 8.40039ZM19.998 11.5996C13.1497 11.5996 7.59766 17.1517 7.59766 24C7.59766 30.8483 13.1497 36.4004 19.998 36.4004C23.5187 36.4004 26.694 34.9344 28.9531 32.5762C31.0881 30.3475 32.3984 27.3285 32.3984 24C32.3984 17.1517 26.8464 11.5996 19.998 11.5996Z" fill="#333333"/>
<path d="M36.8066 13.9883C37.396 13.3299 38.406 13.274 39.0645 13.8633C41.8441 16.3512 43.5977 19.9721 43.5977 24C43.5973 27.6487 42.1586 30.9653 39.8203 33.4062C39.5782 33.659 39.3253 33.9032 39.0645 34.1367C38.4061 34.725 37.3957 34.6677 36.8066 34.0098C36.2174 33.3514 36.2734 32.3413 36.9316 31.752C37.1314 31.5731 37.3243 31.385 37.5098 31.1914C39.3 29.3223 40.3981 26.7909 40.3984 24C40.3984 20.9201 39.0618 18.1527 36.9316 16.2461C36.2733 15.6568 36.2175 14.6467 36.8066 13.9883Z" fill="#333333"/>
</svg>
