<svg width="48" height="48" viewBox="0 0 48 48" fill="none" xmlns="http://www.w3.org/2000/svg">
<path d="M9.99844 8.40039C6.90564 8.40039 4.39844 10.9076 4.39844 14.0004V28.0004C4.39844 31.0932 6.90564 33.6004 9.99844 33.6004H15.9984C16.8821 33.6004 17.5984 32.884 17.5984 32.0004C17.5984 31.1167 16.8821 30.4004 15.9984 30.4004H9.99844C8.67295 30.4004 7.59844 29.3259 7.59844 28.0004V14.0004C7.59844 12.6749 8.67295 11.6004 9.99844 11.6004H37.9984C39.3239 11.6004 40.3984 12.6749 40.3984 14.0004V28.0004C40.3984 29.3259 39.3239 30.4004 37.9984 30.4004H31.9984C31.1148 30.4004 30.3984 31.1167 30.3984 32.0004C30.3984 32.884 31.1148 33.6004 31.9984 33.6004H37.9984C41.0912 33.6004 43.5984 31.0932 43.5984 28.0004V14.0004C43.5984 10.9076 41.0912 8.40039 37.9984 8.40039H9.99844Z" fill="#333333"/>
<path d="M32.1291 23.8683C32.7539 24.4932 32.7538 25.5062 32.129 26.131C31.5041 26.7558 30.491 26.7558 29.8662 26.1309L25.5984 21.8626V41.9996C25.5984 42.8833 24.8821 43.5996 23.9984 43.5996C23.1148 43.5996 22.3984 42.8833 22.3984 41.9996V21.8621L18.129 26.131C17.5041 26.7558 16.491 26.7558 15.8662 26.1309C15.2414 25.506 15.2415 24.493 15.8663 23.8682L22.8671 16.8682C23.1672 16.5681 23.5742 16.3996 23.9985 16.3996C24.4228 16.3996 24.8298 16.5682 25.1299 16.8683L32.1291 23.8683Z" fill="#333333"/>
</svg>
