<svg width="48" height="48" viewBox="0 0 48 48" fill="none" xmlns="http://www.w3.org/2000/svg">
<path d="M36.9984 15.0004H14.9984C14.4462 15.0004 13.9984 15.4481 13.9984 16.0004V20.0004C13.9984 20.5527 14.4462 21.0004 14.9984 21.0004H36.9984C37.5507 21.0004 37.9984 20.5527 37.9984 20.0004V16.0004C37.9984 15.4481 37.5507 15.0004 36.9984 15.0004Z" fill="#333333"/>
<path d="M26.9984 28.0004H14.9984C14.4462 28.0004 13.9984 28.4481 13.9984 29.0004V33.0004C13.9984 33.5527 14.4462 34.0004 14.9984 34.0004H26.9984C27.5507 34.0004 27.9984 33.5527 27.9984 33.0004V29.0004C27.9984 28.4481 27.5507 28.0004 26.9984 28.0004Z" fill="#333333"/>
<path fill-rule="evenodd" clip-rule="evenodd" d="M9.99844 8.40039C10.8821 8.40039 11.5984 9.11674 11.5984 10.0004V40.0004C11.5984 40.884 10.8821 41.6004 9.99844 41.6004C9.11478 41.6004 8.39844 40.884 8.39844 40.0004V10.0004C8.39844 9.11674 9.11478 8.40039 9.99844 8.40039Z" fill="#333333"/>
</svg>
