<svg width="48" height="48" viewBox="0 0 48 48" fill="none" xmlns="http://www.w3.org/2000/svg">
<path fill-rule="evenodd" clip-rule="evenodd" d="M42.6016 24.0674C42.6006 24.6872 42.2418 25.2506 41.6806 25.5137L9.90741 40.4054C7.79524 41.3953 5.54879 39.318 6.37076 37.135L11.2928 24.0626L6.36372 10.8655C5.54735 8.67968 7.80048 6.60817 9.91011 7.60495L41.6851 22.6183C42.2455 22.883 42.6025 23.4476 42.6016 24.0674ZM14.1088 25.6649L9.88546 36.8816L37.2439 24.0591L9.87807 11.129L14.1119 22.4649L28.0016 22.4649C28.8852 22.4649 29.6016 23.1813 29.6016 24.0649C29.6016 24.9486 28.8852 25.6649 28.0016 25.6649L14.1088 25.6649Z" fill="#333333"/>
</svg>
