<svg width="48" height="48" viewBox="0 0 48 48" fill="none" xmlns="http://www.w3.org/2000/svg">
<path fill-rule="evenodd" clip-rule="evenodd" d="M13.9984 8.39941C13.1148 8.39941 12.3984 9.11576 12.3984 9.99941C12.3984 10.8831 13.1148 11.5994 13.9984 11.5994L16.3984 11.5994L16.3984 36.3994H13.9984C13.1148 36.3994 12.3984 37.1158 12.3984 37.9994C12.3984 38.8831 13.1148 39.5994 13.9984 39.5994H28.9984C33.7321 39.5994 37.5984 35.7331 37.5984 30.9994C37.5984 27.6418 35.6533 24.7206 32.8331 23.3059C34.5318 21.7327 35.5984 19.4857 35.5984 16.9994C35.5984 12.2658 31.7321 8.39941 26.9984 8.39941H13.9984ZM26.9984 22.3994C29.9648 22.3994 32.3984 19.9658 32.3984 16.9994C32.3984 14.0331 29.9648 11.5994 26.9984 11.5994L19.5984 11.5994V22.3994H26.9984ZM19.5984 25.5994V36.3994H28.9984C31.9648 36.3994 34.3984 33.9658 34.3984 30.9994C34.3984 28.0331 31.9648 25.5994 28.9984 25.5994H19.5984Z" fill="#333333"/>
</svg>
