<svg width="48" height="48" viewBox="0 0 48 48" fill="none" xmlns="http://www.w3.org/2000/svg">
<path d="M23.7775 6.40249C24.7916 6.38981 25.5974 7.21042 25.5978 8.19936V22.4005H39.799C40.7879 22.401 41.6085 23.2067 41.5958 24.2208C41.5532 27.6244 40.5256 30.9446 38.6329 33.7775C36.699 36.6718 33.9485 38.9278 30.7326 40.2599C27.5167 41.5918 23.9785 41.9409 20.5646 41.2619C17.1505 40.5828 14.0143 38.9069 11.5529 36.4455C9.09147 33.9841 7.41556 30.8478 6.73646 27.4337C6.0574 24.0199 6.4065 20.4816 7.73841 17.2658C9.07051 14.0498 11.3265 11.2993 14.2208 9.36538C17.0537 7.47274 20.3739 6.44516 23.7775 6.40249ZM22.3986 9.6896C20.1165 9.94468 17.9204 10.7431 15.9982 12.0275C13.6302 13.6098 11.7834 15.8592 10.6935 18.4904C9.60403 21.1212 9.31975 24.016 9.87513 26.8087C10.4308 29.6021 11.8027 32.1679 13.8165 34.1818C15.8304 36.1957 18.3963 37.5676 21.1896 38.1232C23.9823 38.6786 26.8772 38.3943 29.5079 37.3048C32.1392 36.2149 34.3885 34.3682 35.9708 32.0001C37.2552 30.078 38.0517 27.8818 38.3068 25.5998H24.3986C23.294 25.5998 22.3986 24.7043 22.3986 23.5998V9.6896Z" fill="#333333"/>
</svg>
