<svg width="48" height="48" viewBox="0 0 48 48" fill="none" xmlns="http://www.w3.org/2000/svg">
<path fill-rule="evenodd" clip-rule="evenodd" d="M8.16406 22.0903C8.16406 32.2237 14.9196 41.6997 23.9974 44.0003C33.0752 41.6997 39.8307 32.2237 39.8307 22.0903V15.8635C39.8307 14.303 38.9232 12.8849 37.5061 12.2313L25.6728 6.77305C24.6097 6.28268 23.3851 6.28268 22.322 6.77305L10.4887 12.2313C9.07161 12.8849 8.16406 14.303 8.16406 15.8635V22.0903ZM23.9974 40.6748C16.9034 38.4365 11.3641 30.6527 11.3641 22.0903V15.8635C11.3641 15.5514 11.5456 15.2678 11.829 15.1371L23.6623 9.67883C23.8749 9.58075 24.1199 9.58075 24.3325 9.67883L36.1658 15.1371C36.4492 15.2678 36.6307 15.5514 36.6307 15.8635V22.0903C36.6307 30.6527 31.0913 38.4365 23.9974 40.6748Z" fill="#333333"/>
</svg>
