<svg width="48" height="48" viewBox="0 0 48 48" fill="none" xmlns="http://www.w3.org/2000/svg">
<path d="M23.9982 16.7002C24.7162 16.7002 25.2982 17.2822 25.2982 18.0002V28.1725C27.4232 28.7485 28.998 30.6993 28.998 33C28.998 35.75 26.748 38 23.998 38C21.248 38 18.998 35.75 18.998 33C18.998 30.6991 20.5731 28.7483 22.6982 28.1724V18.0002C22.6982 17.2822 23.2803 16.7002 23.9982 16.7002Z" fill="#333333"/>
<path fill-rule="evenodd" clip-rule="evenodd" d="M18.3984 10.0004C18.3984 6.9076 20.9056 4.40039 23.9984 4.40039C27.0912 4.40039 29.5984 6.9076 29.5984 10.0004V23.999C32.598 25.8688 34.5984 29.1998 34.5984 33.0004C34.5984 38.8546 29.8527 43.6004 23.9984 43.6004C18.1442 43.6004 13.3984 38.8546 13.3984 33.0004C13.3984 29.1998 15.3989 25.8688 18.3984 23.999V10.0004ZM20.3467 26.5624C18.1052 27.8369 16.5984 30.2439 16.5984 33.0004C16.5984 37.0873 19.9115 40.4004 23.9984 40.4004C28.0853 40.4004 31.3984 37.0873 31.3984 33.0004C31.3984 30.2439 29.8917 27.8369 27.6502 26.5624C26.934 26.4034 26.3984 25.7645 26.3984 25.0004V10.0004C26.3984 8.67491 25.3239 7.60039 23.9984 7.60039C22.673 7.60039 21.5984 8.67491 21.5984 10.0004V25.0004C21.5984 25.7645 21.0629 26.4034 20.3467 26.5624Z" fill="#333333"/>
</svg>
