<svg width="48" height="48" viewBox="0 0 48 48" fill="none" xmlns="http://www.w3.org/2000/svg">
<path d="M29.998 30C28.898 30 27.998 29.1 27.998 28C27.998 26.9 28.898 26 29.998 26C31.098 26 31.998 26.9 31.998 28C31.998 29.1 31.098 30 29.998 30Z" fill="#333333"/>
<path d="M11.998 14C11.998 15.1 12.898 16 13.998 16C15.098 16 15.998 15.1 15.998 14C15.998 12.9 15.098 12 13.998 12C12.898 12 11.998 12.9 11.998 14Z" fill="#333333"/>
<path d="M20.998 16C19.898 16 18.998 15.1 18.998 14C18.998 12.9 19.898 12 20.998 12C22.098 12 22.998 12.9 22.998 14C22.998 15.1 22.098 16 20.998 16Z" fill="#333333"/>
<path d="M11.998 22C11.998 23.1 12.898 24 13.998 24C15.098 24 15.998 23.1 15.998 22C15.998 20.9 15.098 20 13.998 20C12.898 20 11.998 20.9 11.998 22Z" fill="#333333"/>
<path d="M20.998 24C19.898 24 18.998 23.1 18.998 22C18.998 20.9 19.898 20 20.998 20C22.098 20 22.998 20.9 22.998 22C22.998 23.1 22.098 24 20.998 24Z" fill="#333333"/>
<path fill-rule="evenodd" clip-rule="evenodd" d="M4.39844 10.0004C4.39844 6.9076 6.90564 4.40039 9.99844 4.40039H23.9984C27.0912 4.40039 29.5984 6.9076 29.5984 10.0004V19.0004C29.5984 19.2213 29.7775 19.4004 29.9984 19.4004H33.9984C37.0912 19.4004 39.5984 21.9076 39.5984 25.0004V38.0004C39.5984 39.9886 37.9867 41.6004 35.9984 41.6004H7.99844C6.01021 41.6004 4.39844 39.9886 4.39844 38.0004V10.0004ZM13.5984 38.4004H22.3984V32.0004C22.3984 31.7795 22.2194 31.6004 21.9984 31.6004H13.9984C13.7775 31.6004 13.5984 31.7795 13.5984 32.0004V38.4004ZM25.5984 38.4004V32.0004C25.5984 30.0122 23.9867 28.4004 21.9984 28.4004H13.9984C12.0102 28.4004 10.3984 30.0122 10.3984 32.0004V38.4004H7.99844C7.77752 38.4004 7.59844 38.2213 7.59844 38.0004V10.0004C7.59844 8.67491 8.67295 7.60039 9.99844 7.60039H23.9984C25.3239 7.60039 26.3984 8.67491 26.3984 10.0004V19.0004C26.3984 20.9886 28.0102 22.6004 29.9984 22.6004H33.9984C35.3239 22.6004 36.3984 23.6749 36.3984 25.0004V38.0004C36.3984 38.2213 36.2194 38.4004 35.9984 38.4004H25.5984Z" fill="#333333"/>
</svg>
