<svg width="48" height="48" viewBox="0 0 48 48" fill="none" xmlns="http://www.w3.org/2000/svg">
<path d="M26.9038 18.7677C25.8643 20.2964 27.7028 22.1349 29.2315 21.0953L38.6409 14.6969C39.2883 14.2567 39.7858 13.6293 40.0668 12.8986C41.2621 9.79072 38.2084 6.73701 35.1005 7.93236C34.3698 8.21338 33.7424 8.71086 33.3022 9.35821L26.9038 18.7677Z" fill="#333333"/>
<path d="M23.998 4.40039C27.0817 4.40039 29.9983 5.11409 32.5938 6.38281C32.0371 6.80335 31.5472 7.313 31.1504 7.89648L30.4531 8.91992C28.4719 8.07071 26.2901 7.59961 23.998 7.59961C14.9406 7.59961 7.59766 14.9425 7.59766 24C7.59766 33.0575 14.9406 40.4004 23.998 40.4004C28.6541 40.4004 32.8546 38.4617 35.8418 35.3438C38.665 32.3966 40.3984 28.4019 40.3984 24C40.3984 21.7077 39.9256 19.5263 39.0762 17.5449L40.1035 16.8477C40.6871 16.4508 41.1927 15.9592 41.6133 15.4023C42.8827 17.9984 43.5977 20.9154 43.5977 24C43.5977 29.2591 41.525 34.0377 38.1543 37.5566C34.5885 41.2789 29.5626 43.5996 23.998 43.5996C13.1733 43.5996 4.39844 34.8248 4.39844 24C4.39844 13.1752 13.1733 4.40039 23.998 4.40039Z" fill="#333333"/>
<path d="M23.998 11.4004C25.4953 11.4004 26.9315 11.6614 28.2637 12.1406L26.3848 14.9062C25.6225 14.7067 24.8228 14.5996 23.998 14.5996C18.8066 14.5996 14.5977 18.8085 14.5977 24C14.5977 29.1915 18.8066 33.4004 23.998 33.4004C26.6669 33.4004 29.0741 32.2901 30.7871 30.502C32.4059 28.8121 33.3984 26.5233 33.3984 24C33.3984 23.1751 33.2894 22.3757 33.0898 21.6133L35.8555 19.7344C36.3348 21.0667 36.5977 22.5025 36.5977 24C36.5977 27.3808 35.2642 30.4532 33.0977 32.7148C30.8061 35.107 27.5752 36.5996 23.998 36.5996C17.0393 36.5996 11.3984 30.9588 11.3984 24C11.3984 17.0412 17.0393 11.4004 23.998 11.4004Z" fill="#333333"/>
<path d="M24.1973 18.4102C23.8091 19.5496 23.9633 20.691 24.4648 21.6445C24.3139 21.6148 24.1577 21.5996 23.998 21.5996C22.6726 21.5996 21.5977 22.6745 21.5977 24C21.5977 25.3255 22.6726 26.4004 23.998 26.4004C24.6797 26.4004 25.2936 26.1183 25.7324 25.6602C26.1466 25.2276 26.3984 24.6446 26.3984 24C26.3984 23.8402 26.3814 23.6843 26.3516 23.5332C27.305 24.0356 28.4461 24.1883 29.5859 23.8008C29.5883 23.867 29.5977 23.9332 29.5977 24C29.5977 25.5019 29.0048 26.8688 28.043 27.873C27.0256 28.9351 25.5878 29.5996 23.998 29.5996C20.9053 29.5996 18.3984 27.0928 18.3984 24C18.3984 20.9072 20.9053 18.4004 23.998 18.4004C24.0648 18.4004 24.1311 18.4078 24.1973 18.4102Z" fill="#333333"/>
</svg>
