<svg width="48" height="48" viewBox="0 0 48 48" fill="none" xmlns="http://www.w3.org/2000/svg">
<path d="M19.9984 22.5994C19.1148 22.5994 18.3984 21.8831 18.3984 20.9994V19.9994C18.3984 19.1158 19.1148 18.3994 19.9984 18.3994C20.8821 18.3994 21.5984 19.1158 21.5984 19.9994V20.9994C21.5984 21.8831 20.8821 22.5994 19.9984 22.5994Z" fill="#333333"/>
<path d="M18.3984 27.9994C18.3984 28.8831 19.1148 29.5994 19.9984 29.5994C20.8821 29.5994 21.5984 28.8831 21.5984 27.9994V26.9994C21.5984 26.1158 20.8821 25.3994 19.9984 25.3994C19.1148 25.3994 18.3984 26.1158 18.3984 26.9994V27.9994Z" fill="#333333"/>
<path fill-rule="evenodd" clip-rule="evenodd" d="M20.0489 11.4002C20.0322 11.3997 20.0153 11.3994 19.9984 11.3994C19.9815 11.3994 19.9647 11.3997 19.9479 11.4002H7.99844C6.01021 11.4002 4.39844 13.012 4.39844 15.0002V18.0002C4.39844 19.4361 5.5625 20.6002 6.99844 20.6002C8.32392 20.6002 9.39844 21.6747 9.39844 23.0002V25.0002C9.39844 26.3257 8.32392 27.4002 6.99844 27.4002C5.5625 27.4002 4.39844 28.5643 4.39844 30.0002V33.0002C4.39844 34.9884 6.01021 36.6002 7.99844 36.6002H39.9977C41.9859 36.6002 43.5977 34.9884 43.5977 33.0002V15.0002C43.5977 13.012 41.9859 11.4002 39.9977 11.4002H20.0489ZM19.9984 16.5994C19.1148 16.5994 18.3984 15.8831 18.3984 14.9994V14.6002H7.99844C7.77752 14.6002 7.59844 14.7793 7.59844 15.0002V17.432C10.4091 17.7313 12.5984 20.1101 12.5984 23.0002V25.0002C12.5984 27.8903 10.4091 30.269 7.59844 30.5684V33.0002C7.59844 33.2211 7.77752 33.4002 7.99844 33.4002H18.3984V32.9994C18.3984 32.1158 19.1148 31.3994 19.9984 31.3994C20.8821 31.3994 21.5984 32.1158 21.5984 32.9994V33.4002H39.9977C40.2186 33.4002 40.3977 33.2211 40.3977 33.0002V15.0002C40.3977 14.7793 40.2186 14.6002 39.9977 14.6002H21.5984V14.9994C21.5984 15.8831 20.8821 16.5994 19.9984 16.5994Z" fill="#333333"/>
</svg>
