<svg width="48" height="48" viewBox="0 0 48 48" fill="none" xmlns="http://www.w3.org/2000/svg">
<path fill-rule="evenodd" clip-rule="evenodd" d="M23.9984 16.4004C19.2488 16.4004 15.3984 20.2507 15.3984 25.0004C15.3984 29.75 19.2488 33.6004 23.9984 33.6004C28.7481 33.6004 32.5984 29.75 32.5984 25.0004C32.5984 20.2507 28.7481 16.4004 23.9984 16.4004ZM18.5984 25.0004C18.5984 22.0181 21.0161 19.6004 23.9984 19.6004C26.9808 19.6004 29.3984 22.0181 29.3984 25.0004C29.3984 27.9827 26.9808 30.4004 23.9984 30.4004C21.0161 30.4004 18.5984 27.9827 18.5984 25.0004Z" fill="#333333"/>
<path fill-rule="evenodd" clip-rule="evenodd" d="M19.8719 8.40039C18.21 8.40039 16.6339 9.1386 15.5699 10.4154L12.249 14.4004H9.99844C6.90564 14.4004 4.39844 16.9076 4.39844 20.0004V34.0004C4.39844 37.0932 6.90564 39.6004 9.99844 39.6004H37.9984C41.0912 39.6004 43.5984 37.0932 43.5984 34.0004V20.0004C43.5984 16.9076 41.0912 14.4004 37.9984 14.4004H35.7478L32.427 10.4154C31.363 9.1386 29.7869 8.40039 28.1249 8.40039H19.8719ZM18.0282 12.4639C18.4842 11.9168 19.1597 11.6004 19.8719 11.6004H28.1249C28.8372 11.6004 29.5127 11.9168 29.9687 12.4639L33.4694 16.6649C33.9634 17.2577 34.6952 17.6004 35.4668 17.6004H37.9984C39.3239 17.6004 40.3984 18.6749 40.3984 20.0004V34.0004C40.3984 35.3259 39.3239 36.4004 37.9984 36.4004H9.99844C8.67295 36.4004 7.59844 35.3259 7.59844 34.0004V20.0004C7.59844 18.6749 8.67295 17.6004 9.99844 17.6004H12.5301C13.3017 17.6004 14.0335 17.2577 14.5274 16.6649L18.0282 12.4639Z" fill="#333333"/>
</svg>
