<svg width="48" height="48" viewBox="0 0 48 48" fill="none" xmlns="http://www.w3.org/2000/svg">
<path fill-rule="evenodd" clip-rule="evenodd" d="M6.39844 14.0004C6.39844 10.9076 8.90564 8.40039 11.9984 8.40039H35.9984C39.0912 8.40039 41.5984 10.9076 41.5984 14.0004V34.0004C41.5984 37.0932 39.0912 39.6004 35.9984 39.6004H11.9984C8.90564 39.6004 6.39844 37.0932 6.39844 34.0004V14.0004ZM11.9984 11.6004C10.673 11.6004 9.59844 12.6749 9.59844 14.0004V34.0004C9.59844 35.3259 10.673 36.4004 11.9984 36.4004H35.9984C37.3239 36.4004 38.3984 35.3259 38.3984 34.0004V14.0004C38.3984 12.6749 37.3239 11.6004 35.9984 11.6004H11.9984Z" fill="#333333"/>
</svg>
