<svg width="48" height="48" viewBox="0 0 48 48" fill="none" xmlns="http://www.w3.org/2000/svg">
<path d="M37.998 32.4004C38.8817 32.4004 39.5977 33.1163 39.5977 34C39.5977 34.8837 38.8817 35.5996 37.998 35.5996H9.99805C9.11439 35.5996 8.39844 34.8837 8.39844 34C8.39844 33.1163 9.11439 32.4004 9.99805 32.4004H37.998Z" fill="#333333"/>
<path d="M37.3984 21.8008C38.6131 21.8012 39.5977 22.7852 39.5977 24C39.5977 25.2148 38.6131 26.1988 37.3984 26.1992H10.5977C9.38285 26.199 8.39844 25.2149 8.39844 24C8.39844 22.7851 9.38285 21.801 10.5977 21.8008H37.3984Z" fill="#333333"/>
<path d="M36.7988 11.1992C38.345 11.1995 39.5996 12.4538 39.5996 14C39.5996 15.5462 38.345 16.8005 36.7988 16.8008H11.1992C9.65282 16.8008 8.39844 15.5464 8.39844 14C8.39844 12.4536 9.65282 11.1992 11.1992 11.1992H36.7988Z" fill="#333333"/>
</svg>
