<svg width="48" height="48" viewBox="0 0 48 48" fill="none" xmlns="http://www.w3.org/2000/svg">
<path d="M33.6142 27.7718L38.1715 23.2144C38.5619 22.824 38.7812 22.2945 38.7812 21.7423L38.7812 9.46145C38.7812 9.32838 38.6733 9.22051 38.5403 9.22051L26.2585 9.22052C25.7064 9.22052 25.1769 9.43986 24.7864 9.83029L20.2295 14.3872L17.9668 12.1244L22.5237 7.56754C23.5142 6.577 24.8577 6.02052 26.2585 6.02052L38.5403 6.02051C40.4407 6.02051 41.9812 7.56107 41.9812 9.46145L41.9812 21.7423C41.9812 23.1431 41.4247 24.4866 40.4342 25.4771L35.8769 30.0345L33.6142 27.7718Z" fill="#333333"/>
<path fill-rule="evenodd" clip-rule="evenodd" d="M13.9152 16.176L7.33609 22.7551C5.27339 24.8178 5.27338 28.1621 7.33609 30.2248L17.7766 40.6654C19.8393 42.7281 23.1837 42.7281 25.2464 40.6653L31.8254 34.0862L36.871 39.1318C37.4958 39.7566 38.5089 39.7566 39.1337 39.1318C39.7586 38.5069 39.7586 37.4939 39.1337 36.869L11.1337 8.86902C10.5089 8.24418 9.49581 8.24418 8.87097 8.86902C8.24613 9.49386 8.24613 10.5069 8.87097 11.1318L13.9152 16.176ZM16.178 18.4388L29.5626 31.8234L22.9836 38.4026C22.1706 39.2157 20.8524 39.2157 20.0394 38.4026L9.59883 27.9621C8.78581 27.1491 8.78581 25.8309 9.59883 25.0179L16.178 18.4388Z" fill="#333333"/>
<path fill-rule="evenodd" clip-rule="evenodd" d="M26.4023 17.0004C26.4023 14.4599 28.4618 12.4004 31.0023 12.4004C33.5429 12.4004 35.6023 14.4599 35.6023 17.0004C35.6023 19.5409 33.5429 21.6004 31.0023 21.6004C28.4618 21.6004 26.4023 19.5409 26.4023 17.0004ZM31.0023 15.6004C30.2291 15.6004 29.6023 16.2272 29.6023 17.0004C29.6023 17.7736 30.2291 18.4004 31.0023 18.4004C31.7755 18.4004 32.4023 17.7736 32.4023 17.0004C32.4023 16.2272 31.7755 15.6004 31.0023 15.6004Z" fill="#333333"/>
</svg>
