<svg width="48" height="48" viewBox="0 0 48 48" fill="none" xmlns="http://www.w3.org/2000/svg">
<path fill-rule="evenodd" clip-rule="evenodd" d="M16.9984 12.4004C16.1148 12.4004 15.3984 13.1167 15.3984 14.0004V19.0004C15.3984 19.884 16.1148 20.6004 16.9984 20.6004H30.9984C31.8821 20.6004 32.5984 19.884 32.5984 19.0004V14.0004C32.5984 13.1167 31.8821 12.4004 30.9984 12.4004H16.9984ZM18.5984 17.4004V15.6004H29.3984V17.4004H18.5984Z" fill="#333333"/>
<path fill-rule="evenodd" clip-rule="evenodd" d="M8.39844 10.0004C8.39844 6.9076 10.9056 4.40039 13.9984 4.40039H36.9984C38.4344 4.40039 39.5984 5.56445 39.5984 7.00039V35.0004C39.5984 35.884 38.8821 36.6004 37.9984 36.6004H36.5984V40.4004H37.9984C38.8821 40.4004 39.5984 41.1167 39.5984 42.0004C39.5984 42.884 38.8821 43.6004 37.9984 43.6004H13.4984C10.6818 43.6004 8.39844 41.317 8.39844 38.5004V10.0004ZM13.4984 36.6004H33.3984V40.4004H13.4984C12.4491 40.4004 11.5984 39.5497 11.5984 38.5004C11.5984 37.451 12.4491 36.6004 13.4984 36.6004ZM11.5984 33.7661C12.1856 33.5302 12.8269 33.4004 13.4984 33.4004H36.3984V7.60039H13.9984C12.673 7.60039 11.5984 8.67491 11.5984 10.0004V33.7661Z" fill="#333333"/>
</svg>
