<svg width="48" height="48" viewBox="0 0 48 48" fill="none" xmlns="http://www.w3.org/2000/svg">
<path fill-rule="evenodd" clip-rule="evenodd" d="M39.5984 10.0004C39.5984 9.3533 39.2086 8.76988 38.6107 8.52223C38.0129 8.27458 37.3247 8.41147 36.8671 8.86907L29.8671 15.8691C29.567 16.1691 29.3984 16.5761 29.3984 17.0004V40.0004C29.3984 40.8841 30.1148 41.6004 30.9984 41.6004H37.9984C38.8821 41.6004 39.5984 40.8841 39.5984 40.0004V10.0004ZM32.5984 38.4004V17.6632L36.3984 13.8632V38.4004H32.5984Z" fill="#333333"/>
<path fill-rule="evenodd" clip-rule="evenodd" d="M27.5984 22.0004C27.5984 21.3533 27.2086 20.7699 26.6107 20.5222C26.0129 20.2746 25.3247 20.4115 24.8671 20.8691L18.8671 26.8691C18.567 27.1691 18.3984 27.5761 18.3984 28.0004V40.0004C18.3984 40.8841 19.1148 41.6004 19.9984 41.6004H25.9984C26.8821 41.6004 27.5984 40.8841 27.5984 40.0004V22.0004ZM21.5984 38.4004V28.6632L24.3984 25.8632V38.4004H21.5984Z" fill="#333333"/>
<path d="M15.5985 34.0004C15.5985 33.3533 15.2087 32.7699 14.6108 32.5222C14.0129 32.2746 13.3247 32.4115 12.8671 32.8691L6.86711 38.8691C6.40952 39.3267 6.27263 40.0149 6.52028 40.6127C6.76793 41.2106 7.35134 41.6004 7.99848 41.6004H13.9985C14.8821 41.6004 15.5985 40.8841 15.5985 40.0004V34.0004Z" fill="#333333"/>
</svg>
