<svg width="48" height="48" viewBox="0 0 48 48" fill="none" xmlns="http://www.w3.org/2000/svg">
<path d="M19.3984 11V14H22.5984V11H19.3984Z" fill="#333333"/>
<path d="M25.3984 14V11H28.5984V14H25.3984Z" fill="#333333"/>
<path fill-rule="evenodd" clip-rule="evenodd" d="M15.9984 4.40039C15.1148 4.40039 14.3984 5.11674 14.3984 6.00039V20.4004H11.9984C11.1148 20.4004 10.3984 21.1167 10.3984 22.0004V34.0004C10.3984 39.3023 14.6965 43.6004 19.9984 43.6004H27.9984C33.3004 43.6004 37.5984 39.3023 37.5984 34.0004V22.0004C37.5984 21.576 37.4299 21.1691 37.1298 20.869C36.8298 20.569 36.4228 20.4004 35.9984 20.4004H33.5984V6.00039C33.5984 5.11674 32.8821 4.40039 31.9984 4.40039H15.9984ZM30.3984 20.4004V7.60039H17.5984V20.4004H30.3984ZM13.5984 23.6004V34.0004C13.5984 37.535 16.4638 40.4004 19.9984 40.4004H27.9984C31.5331 40.4004 34.3984 37.535 34.3984 34.0004V23.6004H13.5984Z" fill="#333333"/>
</svg>
