<svg width="48" height="48" viewBox="0 0 48 48" fill="none" xmlns="http://www.w3.org/2000/svg">
<path fill-rule="evenodd" clip-rule="evenodd" d="M15.4651 7.60039C13.9498 7.60039 12.7134 8.75538 12.7491 10.1914C12.809 12.5935 13.3114 14.3342 14.0195 15.669C14.7281 17.0048 15.6523 17.9526 16.5851 18.7588C16.9112 19.0406 17.25 19.3145 17.58 19.5812L17.5822 19.5829C17.7129 19.6885 17.8434 19.794 17.9666 19.8949C18.4098 20.2579 18.8345 20.622 19.2013 21.0137C19.9453 21.8082 20.4564 22.7228 20.4566 24.0003C20.4568 25.2778 19.9463 26.1924 19.2027 26.9868C18.836 27.3785 18.4116 27.7426 17.9684 28.1055C17.845 28.2066 17.7142 28.3124 17.5831 28.4182L17.5802 28.4206C17.2507 28.6869 16.9125 28.9604 16.587 29.2416C15.6541 30.0476 14.7293 30.9953 14.0196 32.3308C13.3105 33.6653 12.8064 35.4055 12.7439 37.8069C12.7066 39.2438 13.9434 40.4004 15.4599 40.4004H32.5306C34.0471 40.4004 35.2839 39.2438 35.2467 37.8068C35.1846 35.4054 34.6812 33.6652 33.9729 32.3307C33.264 30.9951 32.3403 30.0474 31.4083 29.2415C31.0831 28.9602 30.7451 28.6866 30.4159 28.4203L30.4132 28.4181C30.2823 28.3123 30.1516 28.2065 30.0283 28.1054C29.5857 27.7425 29.1616 27.3784 28.7953 26.9867C28.0523 26.1922 27.5423 25.2777 27.5423 24.0004C27.5423 22.7228 28.0532 21.8082 28.7972 21.0137C29.164 20.622 29.5887 20.2579 30.0319 19.8949C30.155 19.7941 30.2854 19.6887 30.4159 19.5832L30.4186 19.5811C30.7486 19.3144 31.0874 19.0405 31.4135 18.7587C32.3463 17.9526 33.2706 17.0047 33.9793 15.6689C34.6873 14.3341 35.1898 12.5934 35.2495 10.1913C35.2853 8.7553 34.0488 7.60039 32.5335 7.60039H15.4651ZM9.55012 10.2711C9.46235 6.7479 12.4546 4.40039 15.4651 4.40039H32.5335C35.544 4.40039 38.5362 6.74774 38.4486 10.2708C38.3782 13.0985 37.7775 15.3375 36.8062 17.1685C35.8395 18.9907 34.594 20.2396 33.5057 21.18C33.1365 21.4991 32.7603 21.803 32.438 22.0634L32.4298 22.0701C32.2966 22.1778 32.1737 22.2771 32.0594 22.3706C31.6355 22.7178 31.3478 22.9715 31.1329 23.201C30.785 23.5726 30.7423 23.7415 30.7423 24.0004C30.7423 24.2606 30.7855 24.43 31.1325 24.801C31.3469 25.0302 31.634 25.2839 32.0572 25.6308C32.1717 25.7247 32.2948 25.8243 32.4284 25.9323L32.4365 25.9389C32.7581 26.199 33.1333 26.5026 33.5016 26.8211C34.5886 27.7612 35.8329 29.0095 36.7994 30.8304C37.7705 32.6601 38.3726 34.8977 38.4457 37.724C38.5369 41.2496 35.5432 43.6004 32.5306 43.6004H15.4599C12.4474 43.6004 9.45338 41.2497 9.54502 37.7237C9.61849 34.8969 10.2215 32.659 11.1938 30.8292C12.1615 29.0082 13.4071 27.76 14.495 26.8201C14.8635 26.5017 15.239 26.1983 15.5608 25.9383L15.5689 25.9317C15.7027 25.8235 15.8261 25.7239 15.9407 25.63C16.3644 25.283 16.6518 25.0293 16.8664 24.8001C17.2138 24.4289 17.2566 24.2601 17.2566 24.0008C17.2565 23.7418 17.2137 23.5727 16.8656 23.201C16.6507 22.9716 16.363 22.7178 15.9391 22.3706C15.8249 22.2771 15.702 22.1778 15.5688 22.0701L15.5606 22.0635C15.2383 21.8031 14.8621 21.4991 14.4928 21.18C13.4046 20.2396 12.1592 18.9907 11.1926 17.1685C10.2213 15.3376 9.62055 13.0987 9.55012 10.2711Z" fill="#333333"/>
</svg>
