<svg width="48" height="48" viewBox="0 0 48 48" fill="none" xmlns="http://www.w3.org/2000/svg">
<path d="M23.9959 28.5781C25.1505 28.5782 26.223 28.7908 27.2127 29.2168C27.8247 29.4803 28.3905 29.8051 28.908 30.1895C29.4382 30.5838 29.4342 31.3494 28.9685 31.8184L24.8474 35.9707C24.3783 36.4426 23.6135 36.4426 23.1443 35.9707L19.0213 31.8184C18.5562 31.3493 18.5538 30.5836 19.0838 30.1895C19.601 29.8052 20.1654 29.4803 20.7771 29.2168C21.767 28.7906 22.8411 28.5782 23.9959 28.5781Z" fill="#333333"/>
<path d="M24.0017 18.1797C26.5312 18.1799 28.8901 18.6607 31.076 19.623C32.8861 20.42 34.5039 21.4543 35.9275 22.7227C36.418 23.1608 36.4118 23.9173 35.9471 24.3828L34.1717 26.1582C33.7033 26.6266 32.9477 26.6217 32.4392 26.1973C31.4445 25.3657 30.335 24.6861 29.115 24.1602C27.5207 23.4731 25.8159 23.1291 24.0017 23.1289C22.1872 23.1289 20.4811 23.473 18.8865 24.1602C17.671 24.6841 16.5659 25.3602 15.574 26.1875C15.0609 26.6155 14.2968 26.6165 13.8299 26.1387L12.0428 24.3086C11.5835 23.8384 11.5854 23.0814 12.0799 22.6484C13.5022 21.403 15.1177 20.3882 16.9256 19.6035C19.1117 18.6549 21.4719 18.1797 24.0017 18.1797Z" fill="#333333"/>
<path d="M23.9978 7.57812C27.9025 7.57822 31.5472 8.30626 34.9295 9.76367C37.9405 11.0612 40.6135 12.807 42.949 14.998C43.4282 15.448 43.4234 16.203 42.9588 16.668L41.1814 18.4453C40.7129 18.9137 39.9545 18.9107 39.4627 18.4668C37.5509 16.7402 35.3855 15.3581 32.9685 14.3223C30.1777 13.1263 27.1872 12.5274 23.9978 12.5273C20.808 12.5273 17.8163 13.1261 15.0252 14.3223C12.6084 15.3581 10.4447 16.7404 8.53299 18.4668C8.04139 18.9108 7.28292 18.9132 6.81424 18.4453L5.0369 16.668C4.57183 16.2029 4.567 15.448 5.04666 14.998C7.38222 12.807 10.055 11.0612 13.0662 9.76367C16.4485 8.30633 20.093 7.57812 23.9978 7.57812Z" fill="#333333"/>
</svg>
