<svg width="48" height="48" viewBox="0 0 48 48" fill="none" xmlns="http://www.w3.org/2000/svg">
<path d="M22.8671 22.869C22.2422 23.4939 22.2422 24.5069 22.8671 25.1318C23.4919 25.7566 24.505 25.7566 25.1298 25.1318L38.3984 11.8631V20.0004C38.3984 20.884 39.1148 21.6004 39.9984 21.6004C40.8821 21.6004 41.5984 20.884 41.5984 20.0004V8.00039C41.5984 7.11674 40.8821 6.40039 39.9984 6.40039H27.9984C27.1148 6.40039 26.3984 7.11674 26.3984 8.00039C26.3984 8.88405 27.1148 9.60039 27.9984 9.60039L36.1357 9.60039L22.8671 22.869Z" fill="#333333"/>
<path d="M11.5984 35.0004L11.5984 14.0004C11.5984 12.6749 12.673 11.6004 13.9984 11.6004L17.9984 11.6004C18.8821 11.6004 19.5984 10.8841 19.5984 10.0004C19.5984 9.11674 18.8821 8.4004 17.9984 8.4004L13.9984 8.4004C10.9056 8.4004 8.39844 10.9076 8.39844 14.0004V35.0004C8.39844 38.0932 10.9056 40.6004 13.9984 40.6004L33.9984 40.6004C37.0912 40.6004 39.5984 38.0932 39.5984 35.0004V29.0004C39.5984 28.1167 38.8821 27.4004 37.9984 27.4004C37.1148 27.4004 36.3984 28.1167 36.3984 29.0004L36.3984 35.0004C36.3984 36.3259 35.3239 37.4004 33.9984 37.4004L13.9984 37.4004C12.673 37.4004 11.5984 36.3259 11.5984 35.0004Z" fill="#333333"/>
</svg>
