<svg width="48" height="48" viewBox="0 0 48 48" fill="none" xmlns="http://www.w3.org/2000/svg">
<path d="M16.8678 28.868C16.243 29.4929 16.243 30.5059 16.8678 31.1308C17.4927 31.7556 18.5057 31.7556 19.1306 31.1308L23.9988 26.2625L28.8671 31.1308C29.4919 31.7556 30.505 31.7556 31.1298 31.1308C31.7546 30.5059 31.7546 29.4929 31.1298 28.868L26.2616 23.9998L31.1306 19.1308C31.7554 18.5059 31.7554 17.4929 31.1306 16.868C30.5057 16.2432 29.4927 16.2432 28.8678 16.868L23.9988 21.7371L19.1298 16.868C18.505 16.2432 17.4919 16.2432 16.8671 16.868C16.2422 17.4929 16.2422 18.5059 16.8671 19.1308L21.7361 23.9998L16.8678 28.868Z" fill="#333333"/>
</svg>
