<svg width="48" height="48" viewBox="0 0 48 48" fill="none" xmlns="http://www.w3.org/2000/svg">
<path d="M20.7236 9.96259C19.9567 9.62172 19.0482 9.60047 17.9984 9.60047H9.99844C8.67295 9.60047 7.59844 10.675 7.59844 12.0005V31.0005C7.59844 32.326 8.67295 33.4005 9.99844 33.4005H13.3984V35.525C13.3984 35.8915 13.4293 36.2508 13.4884 36.6005H9.99844C6.90564 36.6005 4.39844 34.0933 4.39844 31.0005V12.0005C4.39844 8.90767 6.90564 6.40047 9.99844 6.40047L18.0848 6.40043C19.0432 6.39981 20.5843 6.3988 22.0233 7.03843C22.7589 7.36541 23.4289 7.8381 23.9981 8.48449C24.5672 7.8381 25.2372 7.36541 25.9728 7.03843C27.4118 6.3988 28.9529 6.39981 29.9113 6.40043L37.9977 6.40047C41.0905 6.40047 43.5977 8.90767 43.5977 12.0005V24.4714C43.2666 23.9501 42.9066 23.4493 42.5198 22.9712C41.9538 22.2718 41.205 21.8073 40.3977 21.5908V12.0005C40.3977 10.675 39.3231 9.60047 37.9977 9.60047H29.9977C28.9479 9.60047 28.0394 9.62172 27.2725 9.96259C26.6667 10.2319 25.9984 10.7724 25.5984 12.2051V22.0883L23.1517 24.2632H22.3984V12.2079C21.9986 10.7731 21.3298 10.232 20.7236 9.96259Z" fill="#333333"/>
<path d="M31.498 23.3677C31.498 22.8291 31.182 22.3407 30.6907 22.12C30.1994 21.8994 29.6243 21.9877 29.2218 22.3455L24.4421 26.5941C24.2474 26.7672 23.9959 26.8628 23.7354 26.8628H19.7971C17.6989 26.8628 15.998 28.5636 15.998 30.6618V35.5245C15.998 37.6227 17.6989 39.3236 19.7971 39.3236H23.7354C23.9959 39.3236 24.2474 39.4192 24.4421 39.5922L29.2218 43.8408C29.6243 44.1987 30.1994 44.2869 30.6907 44.0663C31.182 43.8456 31.498 43.3572 31.498 42.8187V23.3677Z" fill="#333333"/>
<path d="M38.3885 24.3838C39.0325 23.8627 39.977 23.9623 40.4981 24.6063C42.3741 26.9245 43.4987 29.8794 43.4987 33.093C43.4987 36.3065 42.3741 39.2614 40.4981 41.5796C39.977 42.2236 39.0325 42.3232 38.3885 41.8021C37.7445 41.281 37.6449 40.3365 38.166 39.6925C39.6256 37.8888 40.4987 35.5949 40.4987 33.093C40.4987 30.591 39.6256 28.2971 38.166 26.4934C37.6449 25.8494 37.7445 24.9049 38.3885 24.3838Z" fill="#333333"/>
<path d="M35.7139 27.5509C35.2301 26.8784 34.2927 26.7254 33.6203 27.2092C32.9478 27.693 32.7948 28.6303 33.2785 29.3028C34.046 30.3696 34.4976 31.6766 34.4976 33.0935C34.4976 34.5105 34.046 35.8175 33.2785 36.8843C32.7948 37.5567 32.9478 38.4941 33.6203 38.9779C34.2927 39.4616 35.2301 39.3087 35.7139 38.6362C36.8362 37.076 37.4976 35.1598 37.4976 33.0935C37.4976 31.0273 36.8362 29.1111 35.7139 27.5509Z" fill="#333333"/>
</svg>
