<svg width="48" height="48" viewBox="0 0 48 48" fill="none" xmlns="http://www.w3.org/2000/svg">
<path d="M20.999 18.7373C21.6239 19.3621 21.6239 20.3752 20.999 21C20.3742 21.6248 19.3611 21.6248 18.7363 21L9.59844 11.8622L9.59844 18.9994C9.59844 19.8831 8.88209 20.5994 7.99844 20.5994C7.11478 20.5994 6.39844 19.8831 6.39844 18.9994V7.99941C6.39844 7.57507 6.56701 7.1681 6.86707 6.86804C7.16713 6.56799 7.57409 6.39941 7.99844 6.39941H18.9984C19.8821 6.39941 20.5984 7.11576 20.5984 7.99941C20.5984 8.88307 19.8821 9.59941 18.9984 9.59941L11.8612 9.59942L20.999 18.7373Z" fill="#333333"/>
<path fill-rule="evenodd" clip-rule="evenodd" d="M23.3992 26.9994V37.9994C23.3992 39.9876 25.011 41.5994 26.9992 41.5994L37.9992 41.5994C39.9874 41.5994 41.5992 39.9876 41.5992 37.9994V26.9994C41.5992 25.0112 39.9874 23.3994 37.9992 23.3994H26.9992C25.011 23.3994 23.3992 25.0112 23.3992 26.9994ZM26.5992 37.9994L26.5992 26.9994C26.5992 26.7785 26.7783 26.5994 26.9992 26.5994H37.9992C38.2201 26.5994 38.3992 26.7785 38.3992 26.9994V37.9994C38.3992 38.2203 38.2201 38.3994 37.9992 38.3994L26.9992 38.3994C26.7783 38.3994 26.5992 38.2203 26.5992 37.9994Z" fill="#333333"/>
</svg>
