<svg width="48" height="48" viewBox="0 0 48 48" fill="none" xmlns="http://www.w3.org/2000/svg">
<path fill-rule="evenodd" clip-rule="evenodd" d="M20.8047 7.33396C21.195 7.82023 21.2672 8.48891 20.9898 9.0473C20.0997 10.8389 19.5984 12.8589 19.5984 15.0005C19.5984 22.4011 25.5978 28.4005 32.9984 28.4005C35.1306 28.4005 37.1422 27.9037 38.9279 27.021C39.4758 26.7501 40.1301 26.8151 40.6141 27.1883C41.098 27.5615 41.3271 28.1779 41.2044 28.7766L41.0926 29.3218C41.0889 29.3398 41.0849 29.3578 41.0806 29.3756C39.1125 37.5363 31.7656 43.6005 22.9984 43.6005C12.7259 43.6005 4.39844 35.273 4.39844 25.0005C4.39844 16.2351 10.4602 8.88944 18.6184 6.91957L19.1721 6.78238C19.7773 6.63242 20.4144 6.8477 20.8047 7.33396ZM16.9233 10.8446C11.4386 13.2015 7.59844 18.6541 7.59844 25.0005C7.59844 33.5057 14.4933 40.4005 22.9984 40.4005C29.3449 40.4005 34.7974 36.5604 37.1543 31.0756C35.8253 31.4183 34.4324 31.6005 32.9984 31.6005C23.8305 31.6005 16.3984 24.1684 16.3984 15.0005C16.3984 13.5665 16.5806 12.1737 16.9233 10.8446Z" fill="#333333"/>
</svg>
