<svg width="48" height="48" viewBox="0 0 48 48" fill="none" xmlns="http://www.w3.org/2000/svg">
<path fill-rule="evenodd" clip-rule="evenodd" d="M35.7367 21.0048L24.5096 9.846L20.3695 13.9637L24.155 17.8911C24.7682 18.5273 24.7496 19.5402 24.1133 20.1535C23.4771 20.7667 22.4642 20.7481 21.851 20.1119L10.8501 8.69865C10.2369 8.06243 10.2555 7.04953 10.8918 6.43629C11.528 5.82305 12.5409 5.84169 13.1541 6.47791L18.1484 11.6595L22.676 7.15645C23.6899 6.14797 25.328 6.14769 26.3423 7.15583L38.4194 19.1595C39.44 20.1739 39.4425 21.8245 38.425 22.842L22.8156 38.4513C21.8268 39.4402 20.2328 39.4697 19.208 38.5181L6.67458 26.88C5.59467 25.8772 5.56323 24.1782 6.60531 23.1362L14.003 15.7387L16.2657 18.0015L10.8673 23.3997L33.3418 23.3997L35.7367 21.0048ZM20.9617 35.7798L11.0756 26.5997L30.1418 26.5997L20.9617 35.7798Z" fill="#333333"/>
<path fill-rule="evenodd" clip-rule="evenodd" d="M36.9265 26.0772C36.8289 26.1276 36.7448 26.2005 36.6811 26.2899L32.2715 33.3148C31.659 34.3027 31.3177 35.4347 31.2821 36.5965C31.2821 38.1772 31.91 39.6932 33.0277 40.8109C34.1455 41.9287 35.6614 42.5566 37.2421 42.5566C38.8228 42.5566 40.3388 41.9287 41.4565 40.8109C42.5742 39.6932 43.2022 38.1772 43.2022 36.5965C43.1641 35.4216 42.8159 34.2778 42.193 33.2809L37.8032 26.2899C37.7395 26.2005 37.6553 26.1276 37.5577 26.0772C37.4601 26.0269 37.3519 26.0007 37.2421 26.0007C37.1323 26.0007 37.0241 26.0269 36.9265 26.0772ZM34.9873 35.0073L37.2425 31.4145L39.4793 34.9767L39.4809 34.9792C39.7943 35.4817 39.9735 36.0559 40.0017 36.6469C39.9887 37.3607 39.6995 38.0425 39.1938 38.5482C38.6762 39.0658 37.9741 39.3566 37.2421 39.3566C36.5101 39.3566 35.8081 39.0658 35.2905 38.5482C34.7841 38.0418 34.4948 37.359 34.4825 36.6443C34.5088 36.0648 34.6825 35.5014 34.9873 35.0073Z" fill="#333333"/>
</svg>
