<svg width="48" height="48" viewBox="0 0 48 48" fill="none" xmlns="http://www.w3.org/2000/svg">
<path fill-rule="evenodd" clip-rule="evenodd" d="M21.9984 6.40039C13.3828 6.40039 6.39844 13.3847 6.39844 22.0004C6.39844 30.616 13.3828 37.6004 21.9984 37.6004C25.73 37.6004 29.1555 36.2902 31.8401 34.1048L38.8671 41.1318C39.4919 41.7566 40.505 41.7566 41.1298 41.1318C41.7546 40.5069 41.7546 39.4939 41.1298 38.869L34.1029 31.8421C36.2883 29.1575 37.5984 25.7319 37.5984 22.0004C37.5984 13.3847 30.6141 6.40039 21.9984 6.40039ZM9.59844 22.0004C9.59844 15.1521 15.1501 9.60039 21.9984 9.60039C28.8468 9.60039 34.3984 15.1521 34.3984 22.0004C34.3984 28.8487 28.8468 34.4004 21.9984 34.4004C15.1501 34.4004 9.59844 28.8487 9.59844 22.0004Z" fill="#333333"/>
</svg>
