<svg width="48" height="48" viewBox="0 0 48 48" fill="none" xmlns="http://www.w3.org/2000/svg">
<path d="M8.39844 10.0004C8.39844 9.11674 9.11478 8.40039 9.99844 8.40039H37.9984C38.8821 8.40039 39.5984 9.11674 39.5984 10.0004C39.5984 10.884 38.8821 11.6004 37.9984 11.6004H9.99844C9.11478 11.6004 8.39844 10.884 8.39844 10.0004Z" fill="#333333"/>
<path d="M15.998 14H19.998C20.5503 14 20.998 14.4477 20.998 15V37C20.998 37.5523 20.5503 38 19.998 38H15.998C15.4458 38 14.998 37.5523 14.998 37V15C14.998 14.4477 15.4458 14 15.998 14Z" fill="#333333"/>
<path d="M27.998 28H31.998C32.5503 28 32.998 27.5523 32.998 27V15C32.998 14.4477 32.5503 14 31.998 14H27.998C27.4458 14 26.998 14.4477 26.998 15V27C26.998 27.5523 27.4458 28 27.998 28Z" fill="#333333"/>
</svg>
