<svg width="48" height="48" viewBox="0 0 48 48" fill="none" xmlns="http://www.w3.org/2000/svg">
<path fill-rule="evenodd" clip-rule="evenodd" d="M27.2656 7.65901C30.0772 4.84794 34.6356 4.84814 37.4472 7.65901L40.2051 10.4168C43.0165 13.2285 43.0163 17.7867 40.2051 20.5985L21.7109 39.0926C21.2575 39.546 20.6786 39.8532 20.0488 39.9735L9.65037 41.9559C8.60954 42.1542 7.53828 41.8243 6.78904 41.075C6.0399 40.3257 5.70974 39.2545 5.90818 38.2137L7.8906 27.8172C8.01078 27.1872 8.31797 26.6067 8.77146 26.1532L27.2656 7.65901ZM11.0351 28.4168L9.05076 38.8133L19.4492 36.8289L35.0078 21.2703L26.5937 12.8563L11.0351 28.4168ZM35.1855 9.92268C33.6234 8.36059 31.0894 8.36059 29.5273 9.92268L28.8574 10.5946L37.2715 19.0086L37.9414 18.3367C39.5035 16.7746 39.5035 14.2406 37.9414 12.6785L35.1855 9.92268Z" fill="#333333"/>
<path d="M40.7715 38.8035C41.6551 38.8035 42.3711 39.5195 42.3711 40.4032C42.3708 41.2866 41.6549 42.0028 40.7715 42.0028H26.7715C25.888 42.0027 25.1722 41.2865 25.1719 40.4032C25.1719 39.5195 25.8878 38.8036 26.7715 38.8035H40.7715Z" fill="#333333"/>
</svg>
