<svg width="48" height="48" viewBox="0 0 48 48" fill="none" xmlns="http://www.w3.org/2000/svg">
<path fill-rule="evenodd" clip-rule="evenodd" d="M20.2012 8.86853C19.5764 8.24369 18.5633 8.24369 17.9385 8.86853L10.8671 15.94C10.2422 16.5648 10.2422 17.5779 10.8671 18.2027L17.9385 25.2741C18.5633 25.899 19.5764 25.899 20.2012 25.2741C20.8261 24.6493 20.8261 23.6362 20.2012 23.0114L15.8612 18.6713H29.9984C33.5331 18.6713 36.3984 21.5367 36.3984 25.0713V25.9999C36.3984 29.5345 33.5331 32.3999 29.9984 32.3999H16.9984C16.1148 32.3999 15.3984 33.1162 15.3984 33.9999C15.3984 34.8836 16.1148 35.5999 16.9984 35.5999H29.9984C35.3004 35.5999 39.5984 31.3018 39.5984 25.9999V25.0713C39.5984 19.7694 35.3004 15.4713 29.9984 15.4713H15.8612L20.2012 11.1313C20.8261 10.5064 20.8261 9.49337 20.2012 8.86853Z" fill="#333333"/>
</svg>
