<svg width="48" height="48" viewBox="0 0 48 48" fill="none" xmlns="http://www.w3.org/2000/svg">
<path d="M11.2614 18.863C13.3148 13.8252 18.2919 10.2674 24.1099 10.2674C29.0368 10.2674 33.3603 12.8189 35.8162 16.659H29.7588C28.8752 16.659 28.1588 17.3754 28.1588 18.259C28.1588 19.1427 28.8752 19.859 29.7588 19.859H39.3505C40.2341 19.859 40.9505 19.1427 40.9505 18.259V8.66738C40.9505 7.78373 40.2341 7.06738 39.3505 7.06738C38.4668 7.06738 37.7505 7.78373 37.7505 8.66738V13.8419C34.6383 9.72683 29.6855 7.06738 24.1099 7.06738C16.9571 7.06738 10.8296 11.4445 8.29812 17.6551C7.96457 18.4734 8.35754 19.4071 9.17583 19.7407C9.99412 20.0742 10.9279 19.6812 11.2614 18.863Z" fill="#333333"/>
<path d="M23.8952 38.3996C29.7132 38.3996 34.6903 34.8418 36.7438 29.804C37.0773 28.9857 38.011 28.5928 38.8293 28.9263C39.6476 29.2599 40.0406 30.1936 39.707 31.0119C37.1755 37.2225 31.0481 41.5996 23.8952 41.5996C18.3197 41.5996 13.3669 38.9402 10.2547 34.8251V39.9996C10.2547 40.8833 9.53834 41.5996 8.65469 41.5996C7.77103 41.5996 7.05469 40.8833 7.05469 39.9996V30.408C7.05469 29.5243 7.77103 28.808 8.65469 28.808H18.2463C19.13 28.808 19.8463 29.5243 19.8463 30.408C19.8463 31.2916 19.13 32.008 18.2463 32.008H12.189C14.6448 35.8481 18.9684 38.3996 23.8952 38.3996Z" fill="#333333"/>
</svg>
