<svg width="48" height="48" viewBox="0 0 48 48" fill="none" xmlns="http://www.w3.org/2000/svg">
<path fill-rule="evenodd" clip-rule="evenodd" d="M10.7008 11.9997C10.7008 10.7295 11.7305 9.69971 13.0008 9.69971L36.0008 9.6997C37.271 9.6997 38.3008 10.7295 38.3008 11.9997V18.9997C38.3008 19.9386 39.0619 20.6997 40.0008 20.6997C40.9397 20.6997 41.7008 19.9386 41.7008 18.9997V11.9997C41.7008 8.85168 39.1488 6.29971 36.0008 6.29971H13.0008C9.85276 6.29971 7.30078 8.85168 7.30078 11.9997L7.30078 35.9997C7.30078 39.1477 9.85276 41.6997 13.0008 41.6997L18.0008 41.6997C18.9397 41.6997 19.7008 40.9386 19.7008 39.9997C19.7008 39.0608 18.9397 38.2997 18.0008 38.2997L13.0008 38.2997C11.7305 38.2997 10.7008 37.27 10.7008 35.9997L10.7008 11.9997Z" fill="#333333"/>
<path fill-rule="evenodd" clip-rule="evenodd" d="M22.7987 22.7976C22.1348 23.4615 22.1348 24.5379 22.7987 25.2018L35.8966 38.2997L28.0008 38.2997C27.0619 38.2997 26.3008 39.0608 26.3008 39.9997C26.3008 40.9386 27.0619 41.6997 28.0008 41.6997L40.0008 41.6997C40.9397 41.6997 41.7008 40.9386 41.7008 39.9997V27.9997C41.7008 27.0608 40.9397 26.2997 40.0008 26.2997C39.0619 26.2997 38.3008 27.0608 38.3008 27.9997V35.8955L25.2029 22.7976C24.539 22.1337 23.4626 22.1337 22.7987 22.7976Z" fill="#333333"/>
</svg>
