<svg width="48" height="48" viewBox="0 0 48 48" fill="none" xmlns="http://www.w3.org/2000/svg">
<path fill-rule="evenodd" clip-rule="evenodd" d="M18.3984 16.9413C18.3984 14.8598 20.5889 13.5061 22.4506 14.4369L30.5674 18.4953C32.6311 19.5271 32.6311 22.4722 30.5674 23.5041L22.4506 27.5624C20.5889 28.4933 18.3984 27.1395 18.3984 25.058V16.9413ZM21.5984 24.4108L28.4207 20.9997L21.5984 17.5885V24.4108Z" fill="#333333"/>
<path fill-rule="evenodd" clip-rule="evenodd" d="M8.39844 10.0004C8.39844 6.9076 10.9056 4.40039 13.9984 4.40039H36.9984C38.4344 4.40039 39.5984 5.56445 39.5984 7.00039V35.0004C39.5984 35.884 38.8821 36.6004 37.9984 36.6004H37.5984V40.4004H37.9984C38.8821 40.4004 39.5984 41.1167 39.5984 42.0004C39.5984 42.884 38.8821 43.6004 37.9984 43.6004H13.4984C10.6818 43.6004 8.39844 41.317 8.39844 38.5004V10.0004ZM34.3984 40.4004V36.6004H13.4984C12.4491 36.6004 11.5984 37.451 11.5984 38.5004C11.5984 39.5497 12.4491 40.4004 13.4984 40.4004H34.3984ZM11.5984 33.7661C12.1856 33.5302 12.8269 33.4004 13.4984 33.4004H36.3984V7.60039H13.9984C12.673 7.60039 11.5984 8.67491 11.5984 10.0004V33.7661Z" fill="#333333"/>
</svg>
