<svg width="48" height="48" viewBox="0 0 48 48" fill="none" xmlns="http://www.w3.org/2000/svg">
<path d="M23.6353 20.6218C24.2601 21.2466 25.2732 21.2466 25.898 20.6218C26.5228 19.9969 26.5228 18.9839 25.898 18.359L24.1302 16.5913C21.3575 13.8185 16.862 13.8185 14.0893 16.5913C11.3166 19.364 11.3166 23.8595 14.0893 26.6322L15.8571 28.3999C16.4819 29.0248 17.495 29.0248 18.1198 28.3999C18.7447 27.7751 18.7447 26.762 18.1198 26.1372L16.352 24.3694C14.829 22.8464 14.829 20.377 16.352 18.854C17.8751 17.331 20.3444 17.331 21.8675 18.854L23.6353 20.6218Z" fill="#333333"/>
<path d="M27.1832 29.8248C26.5584 30.4497 25.5453 30.4498 24.9205 29.825L18.6871 23.5923C18.0622 22.9675 18.0622 21.9544 18.687 21.3295C19.3118 20.7047 20.3249 20.7046 20.9497 21.3294L27.1831 27.5621C27.808 28.1869 27.808 29.2 27.1832 29.8248Z" fill="#333333"/>
<path d="M27.8765 24.863C27.2517 24.2382 27.2517 23.2251 27.8765 22.6003C28.5013 21.9754 29.5144 21.9754 30.1392 22.6003L31.907 24.3681C34.6797 27.1408 34.6797 31.6362 31.907 34.409C29.1343 37.1817 24.6388 37.1817 21.8661 34.409L20.0983 32.6412C19.4735 32.0164 19.4735 31.0033 20.0983 30.3785C20.7232 29.7536 21.7362 29.7536 22.3611 30.3785L24.1288 32.1462C25.6519 33.6693 28.1212 33.6693 29.6443 32.1462C31.1673 30.6232 31.1673 28.1538 29.6443 26.6308L27.8765 24.863Z" fill="#333333"/>
<path fill-rule="evenodd" clip-rule="evenodd" d="M11.9984 4.40039C8.90564 4.40039 6.39844 6.9076 6.39844 10.0004V38.0004C6.39844 41.0932 8.90564 43.6004 11.9984 43.6004H35.9984C39.0912 43.6004 41.5984 41.0932 41.5984 38.0004V17.0004C41.5984 16.576 41.4299 16.1691 41.1298 15.869L30.1298 4.86902C29.8298 4.56896 29.4228 4.40039 28.9984 4.40039H11.9984ZM9.59844 10.0004C9.59844 8.67491 10.673 7.60039 11.9984 7.60039H27.3984V16.0004C27.3984 17.4363 28.5625 18.6004 29.9984 18.6004H38.3984V38.0004C38.3984 39.3259 37.3239 40.4004 35.9984 40.4004H11.9984C10.673 40.4004 9.59844 39.3259 9.59844 38.0004V10.0004ZM36.1357 15.4004L30.5984 9.86313V15.4004H36.1357Z" fill="#333333"/>
</svg>
