<svg width="48" height="48" viewBox="0 0 48 48" fill="none" xmlns="http://www.w3.org/2000/svg">
<path d="M36.8702 12.869C37.495 12.2442 38.5081 12.2442 39.1329 12.869C39.7578 13.4939 39.7578 14.5069 39.1329 15.1318L30.2643 24.0004L39.1329 32.869C39.7578 33.4939 39.7578 34.5069 39.1329 35.1318C38.5081 35.7566 37.495 35.7566 36.8702 35.1318L26.8702 25.1318C26.2454 24.5069 26.2454 23.4939 26.8702 22.869L36.8702 12.869Z" fill="#333333"/>
<path d="M20.8702 12.869C21.495 12.2442 22.5081 12.2442 23.1329 12.869C23.7578 13.4939 23.7578 14.5069 23.1329 15.1318L14.2643 24.0004L23.1329 32.869C23.7578 33.4939 23.7578 34.5069 23.1329 35.1318C22.5081 35.7566 21.495 35.7566 20.8702 35.1318L10.8702 25.1318C10.2454 24.5069 10.2454 23.4939 10.8702 22.869L20.8702 12.869Z" fill="#333333"/>
</svg>
