<svg width="48" height="48" viewBox="0 0 48 48" fill="none" xmlns="http://www.w3.org/2000/svg">
<path d="M24.0977 4.30078C30.9846 4.30078 37.0749 7.69661 40.6992 12.8867V10.0996C40.6992 9.21595 41.4171 8.5 42.3008 8.5C43.184 8.50053 43.9004 9.21628 43.9004 10.0996V18.0996C43.9004 18.9829 43.184 19.6987 42.3008 19.6992H37C36.1163 19.6992 35.4004 18.9833 35.4004 18.0996C35.4004 17.216 36.1163 16.5 37 16.5H39.1562C36.366 11.1699 30.6817 7.5 24.0977 7.5C15.2797 7.5001 8.09263 14.0682 7.2793 22.4004H16V22C16 19.7909 17.7909 18 20 18H28V19.5996H31.9004L32.0527 19.6074C32.8094 19.684 33.4004 20.3227 33.4004 21.0996V26.9004L33.3926 27.0527C33.321 27.7591 32.7591 28.3212 32.0527 28.3926L31.9004 28.4004H28V30H20L19.5918 29.9785C17.7087 29.7876 16.2124 28.2913 16.0215 26.4082L16 26V25.5996H7.2832C8.0468 33.199 14.1119 39.3193 21.877 40.3125C22.7534 40.4247 23.3738 41.2271 23.2617 42.1035C23.1496 42.98 22.3472 43.6003 21.4707 43.4883C11.6401 42.2308 4 34.0009 4 23.9766C4.00041 13.0752 13.033 4.30089 24.0977 4.30078ZM33.0879 37.9316C33.8408 37.4694 34.8266 37.7044 35.2891 38.457C35.7513 39.2099 35.5163 40.1957 34.7637 40.6582C33.1384 41.6561 31.3563 42.433 29.4629 42.9453C28.6099 43.1761 27.7308 42.6714 27.5 41.8184C27.2693 40.9654 27.774 40.0862 28.627 39.8555C30.2212 39.4241 31.7206 38.7711 33.0879 37.9316ZM40.0898 29.3164C40.3825 28.4828 41.2953 28.0436 42.1289 28.3359C42.9625 28.6286 43.4017 29.5414 43.1094 30.375C42.4178 32.3452 41.4162 34.1723 40.1641 35.8008C39.6254 36.5013 38.6204 36.6324 37.9199 36.0938C37.2203 35.5552 37.0893 34.5518 37.627 33.8516C38.6765 32.4866 39.5133 30.9586 40.0898 29.3164ZM20 21.1992C19.5582 21.1992 19.1992 21.5582 19.1992 22V26C19.1992 26.4418 19.5582 26.8008 20 26.8008H24.8008V21.1992H20ZM28 25.4004H30.4004V22.5996H28V25.4004Z" fill="#333333"/>
</svg>
