<svg width="48" height="48" viewBox="0 0 48 48" fill="none" xmlns="http://www.w3.org/2000/svg">
<path d="M23.5263 11.2641C27.393 7.39739 33.6621 7.39739 37.5288 11.2641C41.3955 15.1307 41.3955 21.3999 37.5288 25.2665C36.4556 26.3397 35.1969 27.1153 33.8557 27.5928L36.2955 30.0326C37.5579 29.4137 38.7415 28.5793 39.7915 27.5293C44.9079 22.4129 44.9079 14.1177 39.7915 9.00133C34.6752 3.88497 26.3799 3.88497 21.2636 9.00133C20.8154 9.44949 20.406 9.92276 20.0355 10.4169C19.5399 11.0778 19.115 11.7749 18.7606 12.4978L21.1997 14.9368C21.5259 14.0203 21.9913 13.1427 22.5958 12.3365C22.8756 11.9633 23.1857 11.6047 23.5263 11.2641Z" fill="#333333"/>
<path fill-rule="evenodd" clip-rule="evenodd" d="M17.5133 19.776L8.86902 11.1318C8.24418 10.5069 8.24418 9.49386 8.86902 8.86902C9.49386 8.24418 10.5069 8.24418 11.1318 8.86902L39.1318 36.869C39.7566 37.4939 39.7566 38.5069 39.1318 39.1318C38.5069 39.7566 37.4939 39.7566 36.869 39.1318L29.0165 31.2793C28.1028 31.1737 27.198 30.9722 26.3186 30.6746V34.0493C26.3186 35.8404 24.8666 37.2923 23.0755 37.2923H19.3478L19.3478 41.0882C19.3478 42.8259 17.9782 44.2548 16.242 44.3284L7.39597 44.7032C5.55267 44.7813 4.01562 43.308 4.01562 41.4631V36.887C4.01563 36.0269 4.3573 35.202 4.96549 34.5938L17.8776 21.6817C17.7088 21.0545 17.5873 20.4174 17.5133 19.776ZM20.9077 23.1704C20.8809 23.2016 20.8529 23.2319 20.8236 23.2612L7.22823 36.8566C7.22016 36.8646 7.21563 36.8756 7.21563 36.887V41.4631C7.21563 41.4726 7.21843 41.4797 7.21843 41.4797C7.22015 41.4837 7.22345 41.489 7.22889 41.4942C7.23432 41.4994 7.23973 41.5024 7.24374 41.504C7.24374 41.504 7.25101 41.5065 7.26048 41.5061L16.1066 41.1312C16.1114 41.131 16.1175 41.1297 16.1175 41.1297L16.1223 41.1279C16.1262 41.1261 16.1311 41.1229 16.1358 41.118C16.1405 41.1131 16.1435 41.1081 16.1451 41.1041C16.1451 41.1041 16.1478 41.0966 16.1478 41.0882L16.1478 35.6923C16.1478 35.268 16.3163 34.861 16.6164 34.5609C16.9164 34.2609 17.3234 34.0923 17.7478 34.0923L23.0755 34.0923C23.0844 34.0923 23.0918 34.0896 23.0918 34.0896C23.0958 34.0879 23.1009 34.0848 23.106 34.0797C23.111 34.0746 23.1142 34.0695 23.1158 34.0655C23.1158 34.0655 23.1186 34.0582 23.1186 34.0493L23.1186 28.7215C23.1186 28.2972 23.2871 27.8902 23.5872 27.5901L23.924 27.2534C24.1148 27.0625 24.3448 26.9281 24.5908 26.8536L20.9077 23.1704Z" fill="#333333"/>
<path fill-rule="evenodd" clip-rule="evenodd" d="M29.3643 13.6484C30.9602 12.0525 33.5476 12.0525 35.1435 13.6484C36.7394 15.2443 36.7394 17.8318 35.1435 19.4277C33.5476 21.0236 30.9602 21.0236 29.3643 19.4277C27.7684 17.8318 27.7684 15.2443 29.3643 13.6484ZM32.8808 15.9112C32.5346 15.5649 31.9732 15.5649 31.627 15.9112C31.2808 16.2574 31.2808 16.8187 31.627 17.1649C31.9732 17.5111 32.5346 17.5111 32.8808 17.1649C33.227 16.8187 33.227 16.2574 32.8808 15.9112Z" fill="#333333"/>
</svg>
