<svg width="48" height="48" viewBox="0 0 48 48" fill="none" xmlns="http://www.w3.org/2000/svg">
<path fill-rule="evenodd" clip-rule="evenodd" d="M11.9984 8.40039C10.0102 8.40039 8.39844 10.0122 8.39844 12.0004C8.39844 13.9886 10.0102 15.6004 11.9984 15.6004C13.9867 15.6004 15.5984 13.9886 15.5984 12.0004C15.5984 10.0122 13.9867 8.40039 11.9984 8.40039ZM23.9984 8.40039C22.0102 8.40039 20.3984 10.0122 20.3984 12.0004C20.3984 13.9886 22.0102 15.6004 23.9984 15.6004C25.9867 15.6004 27.5984 13.9886 27.5984 12.0004C27.5984 10.0122 25.9867 8.40039 23.9984 8.40039ZM35.9984 8.40039C34.0102 8.40039 32.3984 10.0122 32.3984 12.0004C32.3984 13.9886 34.0102 15.6004 35.9984 15.6004C37.9867 15.6004 39.5984 13.9886 39.5984 12.0004C39.5984 10.0122 37.9867 8.40039 35.9984 8.40039ZM11.9984 20.4004C10.0102 20.4004 8.39844 22.0122 8.39844 24.0004C8.39844 25.9886 10.0102 27.6004 11.9984 27.6004C13.9867 27.6004 15.5984 25.9886 15.5984 24.0004C15.5984 22.0122 13.9867 20.4004 11.9984 20.4004ZM23.9984 20.4004C22.0102 20.4004 20.3984 22.0122 20.3984 24.0004C20.3984 25.9886 22.0102 27.6004 23.9984 27.6004C25.9867 27.6004 27.5984 25.9886 27.5984 24.0004C27.5984 22.0122 25.9867 20.4004 23.9984 20.4004ZM35.9984 20.4004C34.0102 20.4004 32.3984 22.0122 32.3984 24.0004C32.3984 25.9886 34.0102 27.6004 35.9984 27.6004C37.9867 27.6004 39.5984 25.9886 39.5984 24.0004C39.5984 22.0122 37.9867 20.4004 35.9984 20.4004ZM11.9984 32.4004C10.0102 32.4004 8.39844 34.0122 8.39844 36.0004C8.39844 37.9886 10.0102 39.6004 11.9984 39.6004C13.9867 39.6004 15.5984 37.9886 15.5984 36.0004C15.5984 34.0122 13.9867 32.4004 11.9984 32.4004ZM23.9984 32.4004C22.0102 32.4004 20.3984 34.0122 20.3984 36.0004C20.3984 37.9886 22.0102 39.6004 23.9984 39.6004C25.9867 39.6004 27.5984 37.9886 27.5984 36.0004C27.5984 34.0122 25.9867 32.4004 23.9984 32.4004ZM35.9984 32.4004C34.0102 32.4004 32.3984 34.0122 32.3984 36.0004C32.3984 37.9886 34.0102 39.6004 35.9984 39.6004C37.9867 39.6004 39.5984 37.9886 39.5984 36.0004C39.5984 34.0122 37.9867 32.4004 35.9984 32.4004Z" fill="#333333"/>
</svg>
