<svg width="48" height="48" viewBox="0 0 48 48" fill="none" xmlns="http://www.w3.org/2000/svg">
<path fill-rule="evenodd" clip-rule="evenodd" d="M33.8279 27.4275H35.7839V24.9821H33.8279V24.5237C33.8279 24.2212 33.8996 24.016 34.016 23.8807L34.0175 23.879C34.1186 23.7588 34.3235 23.669 34.7018 23.669C34.8514 23.669 34.9972 23.683 35.1376 23.7103C35.2904 23.7392 35.4139 23.7693 35.5101 23.8001L35.7158 23.8659L36.2951 21.4268L36.1144 21.3726C35.933 21.3182 35.6642 21.2591 35.3133 21.1949C34.9541 21.1284 34.5604 21.0957 34.1329 21.0957C33.4893 21.0957 32.907 21.2179 32.3904 21.4671C31.869 21.7187 31.4556 22.0985 31.1546 22.6002C30.8546 23.1079 30.7113 23.7358 30.7113 24.4725V24.9821H29.3242V27.4275H30.7113V35.2002H33.8279V27.4275ZM35.5713 23.6088C35.4648 23.5748 35.3327 23.5428 35.175 23.513C35.2483 23.5268 35.3159 23.5419 35.3781 23.5567C35.4498 23.5737 35.5143 23.5906 35.5713 23.6088Z" fill="#333333"/>
<path d="M24.4805 35.1999H27.6035V21.709H24.4805V35.1999Z" fill="#333333"/>
<path fill-rule="evenodd" clip-rule="evenodd" d="M21.7796 32.8753C21.3705 33.6667 20.7861 34.2872 20.0286 34.7328C19.2724 35.1758 18.3792 35.3933 17.3576 35.3933C16.3359 35.3933 15.4411 35.176 14.6809 34.7333C13.9278 34.2876 13.3445 33.6664 12.9356 32.8753C12.5267 32.0797 12.3252 31.1628 12.3252 30.1308C12.3252 29.0906 12.5264 28.1716 12.9356 27.3798C13.3445 26.5843 13.9265 25.9638 14.6803 25.5222C15.4406 25.075 16.3356 24.8555 17.3576 24.8555C18.3793 24.8555 19.2722 25.0749 20.0284 25.5222C20.7863 25.9637 21.3708 26.5845 21.7798 27.3802C22.189 28.172 22.39 29.0906 22.39 30.1308C22.39 31.1628 22.1885 32.0797 21.7796 32.8753ZM19.2892 31.2921L19.2776 31.3377C19.2508 31.4409 19.2202 31.5411 19.1859 31.6385C19.0325 32.0859 18.8045 32.4396 18.502 32.6996C18.4668 32.7293 18.4307 32.7572 18.3936 32.7835L17.998 33C17.8208 33.0664 17.5812 33.0667 17.3578 33.0667C17.1714 33.0667 17.171 33.0666 17.0743 33.029C17.054 33.0211 17.0295 33.0115 16.998 33L16.3313 32.7835C16.2932 32.7572 16.2561 32.7293 16.22 32.6996C15.9132 32.4396 15.6809 32.0859 15.5233 31.6385C15.3699 31.1911 15.2931 30.6818 15.2931 30.1108C15.2931 29.6671 15.3395 29.2607 15.4321 28.8916C15.4586 28.7859 15.4889 28.6834 15.5231 28.5839C15.6807 28.1364 15.913 27.7827 16.2198 27.5228C16.5309 27.2629 16.9144 27.1329 17.3704 27.1329C17.8221 27.1329 18.1992 27.2629 18.5018 27.5228C18.8043 27.7827 19.0323 28.1364 19.1857 28.5839C19.3434 29.0313 19.4222 29.5406 19.4222 30.1116C19.4222 30.5398 19.3779 30.9334 19.2892 31.2921Z" fill="#333333"/>
<path fill-rule="evenodd" clip-rule="evenodd" d="M11.9984 4.40039C8.90564 4.40039 6.39844 6.9076 6.39844 10.0004V38.0004C6.39844 41.0932 8.90564 43.6004 11.9984 43.6004H35.9984C39.0912 43.6004 41.5984 41.0932 41.5984 38.0004V17.0004C41.5984 16.576 41.4299 16.1691 41.1298 15.869L30.1298 4.86902C29.8298 4.56896 29.4228 4.40039 28.9984 4.40039H11.9984ZM9.59844 10.0004C9.59844 8.67491 10.673 7.60039 11.9984 7.60039H27.3984V16.0004C27.3984 17.4363 28.5625 18.6004 29.9984 18.6004H38.3984V38.0004C38.3984 39.3259 37.3239 40.4004 35.9984 40.4004H11.9984C10.673 40.4004 9.59844 39.3259 9.59844 38.0004V10.0004ZM36.1357 15.4004L30.5984 9.86313V15.4004H36.1357Z" fill="#333333"/>
</svg>
