<svg width="48" height="48" viewBox="0 0 48 48" fill="none" xmlns="http://www.w3.org/2000/svg">
<path fill-rule="evenodd" clip-rule="evenodd" d="M19.7357 24.0004L8.86707 13.1318C8.24223 12.5069 8.24223 11.4939 8.86707 10.869C9.49191 10.2442 10.505 10.2442 11.1298 10.869L39.1298 38.869C39.7546 39.4939 39.7546 40.5069 39.1298 41.1318C38.505 41.7566 37.4919 41.7566 36.8671 41.1318L35.3357 39.6004H7.99848C7.35134 39.6004 6.76793 39.2106 6.52028 38.6127C6.27263 38.0149 6.40952 37.3267 6.86711 36.8691L19.7357 24.0004ZM32.1357 36.4004L30.5985 34.8632V36.4004H32.1357ZM27.3985 31.6632V36.4004H22.5985V26.8632L27.3985 31.6632ZM19.3985 36.4004V28.8632L11.8612 36.4004H19.3985Z" fill="#333333"/>
<path d="M26.2622 21.9995L27.3985 20.8632V23.1357L30.5985 26.3357V17.6632L36.3985 11.8632V32.1357L39.5985 35.3357V8.00044C39.5985 7.3533 39.2087 6.76988 38.6108 6.52223C38.0129 6.27458 37.3247 6.41147 36.8671 6.86907L23.9995 19.7367L26.2622 21.9995Z" fill="#333333"/>
</svg>
