<svg width="48" height="48" viewBox="0 0 48 48" fill="none" xmlns="http://www.w3.org/2000/svg">
<path fill-rule="evenodd" clip-rule="evenodd" d="M25.5988 38.4012V32.4998C30.5928 31.8669 34.6751 28.3108 36.077 23.6004H37.7984C39.415 23.6004 40.6523 22.5718 41.4061 21.3941C42.1731 20.1957 42.5984 18.6371 42.5984 17.0004C42.5984 15.3637 42.1731 13.8051 41.4061 12.6067C40.6523 11.4289 39.415 10.4004 37.7984 10.4004H36.5988V10.0004C36.5988 8.01216 34.9871 6.40039 32.9988 6.40039H14.9988C13.0106 6.40039 11.3988 8.01216 11.3988 10.0004V10.4004H10.1984C8.58188 10.4004 7.34453 11.4289 6.5908 12.6067C5.82379 13.8051 5.39844 15.3637 5.39844 17.0004C5.39844 18.6371 5.82379 20.1957 6.5908 21.3941C7.34453 22.5718 8.58188 23.6004 10.1984 23.6004H11.9206C13.3225 28.3108 17.4048 31.8669 22.3988 32.4998V38.4012H13.9988C13.1152 38.4012 12.3988 39.1175 12.3988 40.0012C12.3988 40.8848 13.1152 41.6012 13.9988 41.6012H33.9988C34.8825 41.6012 35.5988 40.8848 35.5988 40.0012C35.5988 39.1175 34.8825 38.4012 33.9988 38.4012H25.5988ZM11.4051 20.4004C11.4009 20.2676 11.3988 20.1342 11.3988 20.0004V13.6004H10.1984C10.055 13.6004 9.69234 13.6968 9.28607 14.3316C8.89309 14.9457 8.59844 15.8871 8.59844 17.0004C8.59844 18.1137 8.89309 19.0551 9.28607 19.6692C9.69234 20.304 10.055 20.4004 10.1984 20.4004H11.4051ZM37.7984 20.4004H36.5926C36.5967 20.2676 36.5988 20.1342 36.5988 20.0004V13.6004H37.7984C37.9419 13.6004 38.3045 13.6968 38.7108 14.3316C39.1038 14.9457 39.3984 15.8871 39.3984 17.0004C39.3984 18.1137 39.1038 19.0551 38.7108 19.6692C38.3045 20.304 37.9419 20.4004 37.7984 20.4004ZM14.5988 20.0004C14.5988 25.1919 18.8074 29.4004 23.9988 29.4004C29.1903 29.4004 33.3988 25.1919 33.3988 20.0004V10.0004C33.3988 9.77947 33.2197 9.60039 32.9988 9.60039H14.9988C14.7779 9.60039 14.5988 9.77947 14.5988 10.0004V20.0004Z" fill="#333333"/>
</svg>
