<svg width="48" height="48" viewBox="0 0 48 48" fill="none" xmlns="http://www.w3.org/2000/svg">
<path fill-rule="evenodd" clip-rule="evenodd" d="M25.4297 12.4062C24.695 8.97718 21.6469 6.40625 17.9984 6.40625C14.3499 6.40625 11.3019 8.97718 10.5672 12.4062H7.99844C7.11478 12.4062 6.39844 13.1226 6.39844 14.0062C6.39844 14.8899 7.11478 15.6062 7.99844 15.6062H10.5672C11.3019 19.0353 14.3499 21.6063 17.9984 21.6063C21.6469 21.6063 24.695 19.0353 25.4297 15.6062H39.9984C40.8821 15.6062 41.5984 14.8899 41.5984 14.0062C41.5984 13.1226 40.8821 12.4062 39.9984 12.4062H25.4297ZM13.5984 14.0062C13.5984 11.5762 15.5684 9.60625 17.9984 9.60625C20.4285 9.60625 22.3984 11.5762 22.3984 14.0062C22.3984 16.4363 20.4285 18.4062 17.9984 18.4062C15.5684 18.4062 13.5984 16.4363 13.5984 14.0062Z" fill="#333333"/>
<path fill-rule="evenodd" clip-rule="evenodd" d="M28.3287 26.5903C28.3282 26.5904 28.3292 26.5901 28.3287 26.5903L28.3303 26.424C28.3303 25.9416 28.3893 25.473 28.5006 25.0251C29.1283 22.5101 31.4026 20.6469 34.112 20.6469C37.3061 20.6469 39.8954 23.2362 39.8954 26.4302V29.3406H39.3307C39.4064 29.3406 39.4816 29.3427 39.5562 29.3469H39.3292C39.5214 29.3469 39.7104 29.3604 39.8954 29.3866C40.7926 29.5138 41.5941 29.9386 42.1966 30.558C42.8975 31.2786 43.3292 32.2623 43.3292 33.3469V39.3469C43.3292 39.6801 43.2884 40.0039 43.2116 40.3134C42.7771 42.0524 41.2044 43.3406 39.3307 43.3406H28.6641C26.4816 43.3406 24.7073 41.5927 24.6648 39.4204C24.6643 39.4198 24.6637 39.4193 24.6631 39.4187C24.6627 39.3948 24.6625 39.3709 24.6625 39.3469V33.3469C24.6625 32.1831 25.1595 31.1354 25.9528 30.4045C26.5888 29.8185 27.4152 29.4361 28.3287 29.3606C28.4388 29.3515 28.5501 29.3469 28.6625 29.3469H28.3287V26.5903ZM31.8007 25.8466C32.0588 24.8093 32.9964 24.0406 34.1136 24.0406C35.4299 24.0406 36.4969 25.1077 36.4969 26.424V29.3406L36.4954 29.3469H31.7287V26.4302C31.7287 26.2289 31.7537 26.0334 31.8007 25.8466Z" fill="#333333"/>
<path d="M22.0625 35.6063V33.3469C22.0625 33.0275 22.0852 32.7135 22.129 32.4062H7.99844C7.11478 32.4062 6.39844 33.1226 6.39844 34.0063C6.39844 34.8899 7.11478 35.6063 7.99844 35.6063H22.0625Z" fill="#333333"/>
</svg>
