<svg width="48" height="48" viewBox="0 0 48 48" fill="none" xmlns="http://www.w3.org/2000/svg">
<path fill-rule="evenodd" clip-rule="evenodd" d="M13.5977 34.3997H17.3984V22.3997H20.5977V34.3997H27.3984V22.3997H30.5977V34.3997H34.3984V22.3997H37.5977V34.3997H40.998C41.8814 34.3997 42.5972 35.116 42.5977 35.9993V41.9993C42.5977 42.8829 41.8817 43.5989 40.998 43.5989H6.99805C6.11439 43.5989 5.39844 42.8829 5.39844 41.9993V35.9993C5.39892 35.116 6.11469 34.3997 6.99805 34.3997H10.3984V22.3997H13.5977V34.3997ZM8.59766 37.5989V40.3997H39.3984V37.5989H8.59766Z" fill="#333333"/>
<path fill-rule="evenodd" clip-rule="evenodd" d="M23.4336 4.50124C23.8727 4.33581 24.3682 4.37146 24.7832 4.60476L40.7832 13.6048C41.2864 13.8881 41.5974 14.4218 41.5977 14.9993V17.9993C41.5977 18.8829 40.8817 19.5989 39.998 19.5989H6.99805C6.11439 19.5989 5.39844 18.8829 5.39844 17.9993V14.9993C5.39873 14.4069 5.72645 13.8624 6.25 13.5852L23.25 4.58523L23.4336 4.50124ZM8.59766 15.9622V16.3997H38.3984V15.9348L23.9727 7.82156L8.59766 15.9622Z" fill="#333333"/>
</svg>
