<svg width="48" height="48" viewBox="0 0 48 48" fill="none" xmlns="http://www.w3.org/2000/svg">
<path d="M5.99805 28.4004C6.8817 28.4004 7.59766 29.1163 7.59766 30V34C7.59766 35.3255 8.67256 36.4004 9.99805 36.4004H12.998C13.8817 36.4004 14.5977 37.1163 14.5977 38C14.5977 38.8837 13.8817 39.5996 12.998 39.5996H9.99805C6.90525 39.5996 4.39844 37.0928 4.39844 34V30C4.39844 29.1163 5.11439 28.4004 5.99805 28.4004Z" fill="#333333"/>
<path d="M41.998 28.4004C42.8817 28.4004 43.5977 29.1163 43.5977 30V34C43.5977 37.0928 41.0908 39.5996 37.998 39.5996H34.998C34.1144 39.5996 33.3984 38.8837 33.3984 38C33.3984 37.1163 34.1144 36.4004 34.998 36.4004H37.998C39.3235 36.4004 40.3984 35.3255 40.3984 34V30C40.3984 29.1163 41.1144 28.4004 41.998 28.4004Z" fill="#333333"/>
<path fill-rule="evenodd" clip-rule="evenodd" d="M31.998 16.4004C33.9863 16.4004 35.5977 18.0118 35.5977 20V28C35.5977 29.9882 33.9863 31.5996 31.998 31.5996H15.998C14.0098 31.5996 12.3984 29.9882 12.3984 28V20C12.3984 18.0118 14.0098 16.4004 15.998 16.4004H31.998ZM15.998 19.5996C15.7771 19.5996 15.5977 19.7791 15.5977 20V28C15.5977 28.2209 15.7771 28.4004 15.998 28.4004H31.998C32.219 28.4004 32.3984 28.2209 32.3984 28V20C32.3984 19.7791 32.219 19.5996 31.998 19.5996H15.998Z" fill="#333333"/>
<path d="M12.998 8.40039C13.8817 8.40039 14.5977 9.11634 14.5977 10C14.5977 10.8837 13.8817 11.5996 12.998 11.5996H9.99805C8.67256 11.5996 7.59766 12.6745 7.59766 14V18C7.59766 18.8837 6.8817 19.5996 5.99805 19.5996C5.11439 19.5996 4.39844 18.8837 4.39844 18V14C4.39844 10.9072 6.90525 8.40039 9.99805 8.40039H12.998Z" fill="#333333"/>
<path d="M37.998 8.40039C41.0908 8.40039 43.5977 10.9072 43.5977 14V18C43.5977 18.8837 42.8817 19.5996 41.998 19.5996C41.1144 19.5996 40.3984 18.8837 40.3984 18V14C40.3984 12.6745 39.3235 11.5996 37.998 11.5996H34.998C34.1144 11.5996 33.3984 10.8837 33.3984 10C33.3984 9.11634 34.1144 8.40039 34.998 8.40039H37.998Z" fill="#333333"/>
</svg>
