<svg width="48" height="48" viewBox="0 0 48 48" fill="none" xmlns="http://www.w3.org/2000/svg">
<path fill-rule="evenodd" clip-rule="evenodd" d="M6.86707 6.86853C6.24223 7.49337 6.24223 8.50643 6.86707 9.13127L16.1357 18.3999H9.99844C9.11479 18.3999 8.39844 19.1162 8.39844 19.9999C8.39844 20.8836 9.11479 21.5999 9.99844 21.5999L19.9984 21.5999C20.8821 21.5999 21.5984 20.8836 21.5984 19.9999L21.5984 9.9999C21.5984 9.11625 20.8821 8.3999 19.9984 8.3999C19.1148 8.3999 18.3984 9.11625 18.3984 9.9999V16.1372L9.12981 6.86853C8.50497 6.24369 7.49191 6.24369 6.86707 6.86853Z" fill="#333333"/>
<path fill-rule="evenodd" clip-rule="evenodd" d="M41.1298 41.1313C41.7547 40.5064 41.7547 39.4934 41.1298 38.8685L31.8612 29.5999H37.9984C38.8821 29.5999 39.5984 28.8836 39.5984 27.9999C39.5984 27.1162 38.8821 26.3999 37.9984 26.3999H27.9984C27.1148 26.3999 26.3984 27.1162 26.3984 27.9999V37.9999C26.3984 38.8836 27.1148 39.5999 27.9984 39.5999C28.8821 39.5999 29.5984 38.8836 29.5984 37.9999V31.8626L38.8671 41.1313C39.4919 41.7561 40.505 41.7561 41.1298 41.1313Z" fill="#333333"/>
</svg>
