<svg width="48" height="48" viewBox="0 0 48 48" fill="none" xmlns="http://www.w3.org/2000/svg">
<path d="M15.576 7.90039C16.4596 7.90039 17.1756 8.61634 17.1756 9.5V34.6387L21.4451 30.3691L21.5662 30.2598C22.1946 29.7469 23.1209 29.7833 23.7068 30.3691C24.2928 30.9551 24.3291 31.8813 23.8162 32.5098L23.7068 32.6309L16.7068 39.6309C16.505 39.8327 16.2488 39.9777 15.9627 40.0488C15.9477 40.0526 15.9329 40.0572 15.9178 40.0605C15.8371 40.0781 15.7545 40.0889 15.6697 40.0938C15.6574 40.0945 15.645 40.0953 15.6326 40.0957C15.6138 40.0964 15.5949 40.0996 15.576 40.0996C15.5091 40.0996 15.4434 40.0939 15.3787 40.0859C15.3657 40.0843 15.3527 40.082 15.3397 40.0801C15.0733 40.0406 14.8314 39.9331 14.6248 39.7793C14.6061 39.7654 14.5844 39.7551 14.5662 39.7402L14.4451 39.6309L7.44513 32.6309C6.82037 32.006 6.82037 30.994 7.44513 30.3691C8.06995 29.7443 9.082 29.7444 9.70685 30.3691L13.9764 34.6387V9.5C13.9764 8.61639 14.6924 7.90046 15.576 7.90039Z" fill="#333333"/>
<path fill-rule="evenodd" clip-rule="evenodd" d="M32.4197 24.2988C33.0367 24.299 33.5998 24.6539 33.8651 25.2109L39.8651 37.8105L39.9276 37.9609C40.2008 38.7246 39.8552 39.587 39.1072 39.9434C38.3096 40.3229 37.3543 39.9831 36.9744 39.1855C36.6191 38.4394 36.2633 37.6934 35.908 36.9473H28.9315L27.8651 39.1855C27.4853 39.9831 26.5299 40.3227 25.7322 39.9434C24.9345 39.5635 24.5947 38.6083 24.9744 37.8105L30.9744 25.2109C31.2398 24.6538 31.8027 24.2988 32.4197 24.2988ZM30.4529 33.748H34.3865C33.7312 32.3716 33.0752 30.9955 32.4197 29.6191L30.4529 33.748Z" fill="#333333"/>
<path d="M37.4197 7.90039C38.0667 7.90054 38.6507 8.29091 38.8983 8.88867C39.1453 9.48622 39.0078 10.1735 38.5506 10.6309L31.2811 17.9004H37.4197L37.5838 17.9082C38.3902 17.9905 39.0193 18.6719 39.0193 19.5C39.0193 20.3835 38.3032 21.0994 37.4197 21.0996H27.4197C26.7726 21.0996 26.1889 20.7091 25.9412 20.1113C25.6941 19.5137 25.8315 18.8265 26.2889 18.3691L33.5584 11.0996H27.4197C26.5361 11.0996 25.8201 10.3837 25.8201 9.5C25.8201 8.61634 26.5361 7.90039 27.4197 7.90039H37.4197Z" fill="#333333"/>
</svg>
