<svg width="48" height="48" viewBox="0 0 48 48" fill="none" xmlns="http://www.w3.org/2000/svg">
<path d="M15.0023 11.6113L8.77375 22.4004L21.2308 22.4004L15.0023 11.6113ZM8.77375 25.5996L15.0023 36.3887L21.2308 25.5996L8.77375 25.5996ZM17.7737 10.0117L24.0023 20.7988L30.2308 10.0117L17.7737 10.0117ZM24.0023 27.1992L17.7737 37.9883L30.2308 37.9883L24.0023 27.1992ZM33.0023 11.6113L26.7737 22.4004L39.2327 22.4004L33.0023 11.6113ZM26.7737 25.5996L33.0023 36.3887L39.2327 25.5996L26.7737 25.5996ZM15.0023 41.1895C14.4306 41.1895 13.9014 40.8837 13.6155 40.3887L4.61554 24.8008C4.32983 24.3059 4.33006 23.6961 4.61554 23.2012L13.6155 7.61133C13.9014 7.11651 14.4308 6.8125 15.0023 6.8125L33.0023 6.8125C33.5735 6.81257 34.1011 7.11686 34.387 7.61133L43.387 23.2012L43.4808 23.3906C43.6687 23.846 43.6373 24.3674 43.387 24.8008L34.387 40.3887C34.1012 40.8836 33.5738 41.1894 33.0023 41.1895L15.0023 41.1895Z" fill="#333333"/>
</svg>
