<svg width="48" height="48" viewBox="0 0 48 48" fill="none" xmlns="http://www.w3.org/2000/svg">
<path d="M6.55375 11.3128C6.81902 10.7554 7.38122 10.4004 7.99845 10.4004H39.9985C40.6157 10.4004 41.1779 10.7554 41.4432 11.3128C41.7084 11.8701 41.6295 12.5303 41.2402 13.0093L34.417 21.4072C34.278 21.4027 34.1385 21.4004 33.9984 21.4004C32.4826 21.4004 31.0294 21.6681 29.6833 22.1587L36.6369 13.6004H11.36L22.2402 26.9914C22.472 27.2766 22.5985 27.6329 22.5985 28.0004V28.6268C21.8288 30.2568 21.3984 32.0783 21.3984 34.0004C21.3984 36.5364 22.1476 38.8974 23.4368 40.8742L21.5044 41.5183C21.0165 41.6809 20.4801 41.5991 20.0629 41.2984C19.6457 40.9977 19.3985 40.5147 19.3985 40.0004V28.5685L6.75667 13.0093C6.36745 12.5303 6.28848 11.8701 6.55375 11.3128Z" fill="#333333"/>
<path fill-rule="evenodd" clip-rule="evenodd" d="M33.998 44C39.5209 44 43.998 39.5228 43.998 34C43.998 28.4772 39.5209 24 33.998 24C28.4752 24 23.998 28.4772 23.998 34C23.998 39.5228 28.4752 44 33.998 44ZM33.998 26.6C34.9369 26.6 35.698 27.3611 35.698 28.3V34.3C35.698 35.2389 34.9369 36 33.998 36C33.0592 36 32.298 35.2389 32.298 34.3L32.298 28.3C32.298 27.3611 33.0592 26.6 33.998 26.6ZM31.998 39.6998C31.998 40.7998 32.898 41.6998 33.998 41.6998C35.098 41.6998 35.998 40.7998 35.998 39.6998C35.998 38.5998 35.098 37.6998 33.998 37.6998C32.898 37.6998 31.998 38.5998 31.998 39.6998Z" fill="#333333"/>
</svg>
