<svg width="48" height="48" viewBox="0 0 48 48" fill="none" xmlns="http://www.w3.org/2000/svg">
<path d="M34.998 18.4004C38.0908 18.4004 40.5977 20.9072 40.5977 24V36C40.5977 39.0928 38.0908 41.5996 34.998 41.5996H22.998C19.9053 41.5996 17.3984 39.0928 17.3984 36V31.7051L19.1426 31.5488C25.1892 31.0035 30.0015 26.1911 30.5469 20.1445L30.7031 18.4004H34.998Z" fill="#333333"/>
<path d="M17.998 6.40039C24.7558 6.40039 30.271 11.72 30.584 18.4004H22.998C19.9053 18.4004 17.3984 20.9072 17.3984 24V31.584C10.7181 31.271 5.39844 25.7578 5.39844 19C5.39844 12.0412 11.0393 6.40039 17.998 6.40039Z" fill="#333333"/>
</svg>
