<svg width="48" height="48" viewBox="0 0 48 48" fill="none" xmlns="http://www.w3.org/2000/svg">
<path d="M39.798 29.2857C39.798 30.4969 39.4442 31.6254 38.8343 32.5736L41.1314 34.8706C42.3033 33.3164 42.998 31.3822 42.998 29.2857C42.998 24.9462 40.0213 21.302 35.9984 20.2835V20.2222C35.9984 13.4721 30.6259 8 23.9984 8C21.2731 8 18.7599 8.92538 16.7453 10.4845L19.0335 12.7727C20.4529 11.7777 22.1664 11.2 23.9984 11.2C28.8034 11.2 32.7984 15.1838 32.7984 20.2222V22.7743L35.2131 23.3857C37.8501 24.0533 39.798 26.446 39.798 29.2857Z" fill="#333333"/>
<path fill-rule="evenodd" clip-rule="evenodd" d="M13.0186 15.2833C12.7269 15.955 12.4928 16.6585 12.3229 17.3874C7.75411 18.6462 4.39844 22.8313 4.39844 27.8002C4.39844 33.7648 9.23367 38.6 15.1982 38.6H24.998V38.5714H33.7123C34.5083 38.5714 35.2809 38.4713 36.0182 38.2829L36.8671 39.1318C37.4919 39.7566 38.505 39.7566 39.1298 39.1318C39.7546 38.5069 39.7546 37.4939 39.1298 36.869L11.1298 8.86902C10.505 8.24418 9.49191 8.24418 8.86707 8.86902C8.24223 9.49386 8.24223 10.5069 8.86707 11.1318L13.0186 15.2833ZM15.522 17.7867L33.1067 35.3714H21.798V35.4H15.1982C11.001 35.4 7.59844 31.9974 7.59844 27.8002C7.59844 24.3081 9.95644 21.3586 13.1729 20.4724L15.0072 19.967L15.4393 18.1141C15.4649 18.0041 15.4925 17.895 15.522 17.7867Z" fill="#333333"/>
</svg>
