<svg width="48" height="48" viewBox="0 0 48 48" fill="none" xmlns="http://www.w3.org/2000/svg">
<path fill-rule="evenodd" clip-rule="evenodd" d="M18.3984 11.0004C18.3984 9.56445 19.5625 8.40039 20.9984 8.40039H25.9984C27.4344 8.40039 28.5984 9.56445 28.5984 11.0004V39.0004C28.5984 40.4363 27.4344 41.6004 25.9984 41.6004H20.9984C19.5625 41.6004 18.3984 40.4363 18.3984 39.0004V11.0004ZM21.5984 11.6004V38.4004H25.3984V11.6004H21.5984Z" fill="#333333"/>
<path fill-rule="evenodd" clip-rule="evenodd" d="M31.3984 25.0004C31.3984 23.5645 32.5625 22.4004 33.9984 22.4004H38.9984C40.4344 22.4004 41.5984 23.5645 41.5984 25.0004V39.0004C41.5984 40.4363 40.4344 41.6004 38.9984 41.6004H33.9984C32.5625 41.6004 31.3984 40.4363 31.3984 39.0004V25.0004ZM34.5984 25.6004V38.4004H38.3984V25.6004H34.5984Z" fill="#333333"/>
<path fill-rule="evenodd" clip-rule="evenodd" d="M7.99844 28.4004C6.5625 28.4004 5.39844 29.5645 5.39844 31.0004V39.0004C5.39844 40.4363 6.5625 41.6004 7.99844 41.6004H12.9984C14.4344 41.6004 15.5984 40.4363 15.5984 39.0004V31.0004C15.5984 29.5645 14.4344 28.4004 12.9984 28.4004H7.99844ZM8.59844 38.4004V31.6004H12.3984V38.4004H8.59844Z" fill="#333333"/>
</svg>
