<svg width="48" height="48" viewBox="0 0 48 48" fill="none" xmlns="http://www.w3.org/2000/svg">
<path d="M21.999 23C21.999 24.1 22.899 25 23.999 25C25.099 25 25.999 24.1 25.999 23C25.999 21.9 25.099 21 23.999 21C22.899 21 21.999 21.9 21.999 23Z" fill="#333333"/>
<path d="M23.999 31C22.899 31 21.999 30.1 21.999 29C21.999 27.9 22.899 27 23.999 27C25.099 27 25.999 27.9 25.999 29C25.999 30.1 25.099 31 23.999 31Z" fill="#333333"/>
<path d="M11.9994 24.3996C11.1158 24.3996 10.3994 25.116 10.3994 25.9996C10.3994 26.8833 11.1158 27.5996 11.9994 27.5996H15.9994C16.8831 27.5996 17.5994 26.8833 17.5994 25.9996C17.5994 25.116 16.8831 24.3996 15.9994 24.3996H11.9994Z" fill="#333333"/>
<path d="M29.999 25C28.899 25 27.999 24.1 27.999 23C27.999 21.9 28.899 21 29.999 21C31.099 21 31.999 21.9 31.999 23C31.999 24.1 31.099 25 29.999 25Z" fill="#333333"/>
<path d="M27.999 29C27.999 30.1 28.899 31 29.999 31C31.099 31 31.999 30.1 31.999 29C31.999 27.9 31.099 27 29.999 27C28.899 27 27.999 27.9 27.999 29Z" fill="#333333"/>
<path d="M35.999 25C34.899 25 33.999 24.1 33.999 23C33.999 21.9 34.899 21 35.999 21C37.099 21 37.999 21.9 37.999 23C37.999 24.1 37.099 25 35.999 25Z" fill="#333333"/>
<path d="M33.999 29C33.999 30.1 34.899 31 35.999 31C37.099 31 37.999 30.1 37.999 29C37.999 27.9 37.099 27 35.999 27C34.899 27 33.999 27.9 33.999 29Z" fill="#333333"/>
<path fill-rule="evenodd" clip-rule="evenodd" d="M9.24831 15.4004C6.02802 15.4004 3.52352 18.201 3.88184 21.4012L5.03091 31.664C5.33688 34.3967 7.64755 36.4631 10.3974 36.4631H37.6008C40.3506 36.4631 42.6613 34.3967 42.9673 31.664L44.1164 21.4012C44.4747 18.201 41.9702 15.4004 38.7499 15.4004H9.24831ZM7.06197 21.0452C6.91599 19.7414 7.93634 18.6004 9.24831 18.6004H38.7499C40.0619 18.6004 41.0822 19.7414 40.9362 21.0452L39.7872 31.3079C39.6625 32.4213 38.7211 33.2631 37.6008 33.2631H10.3974C9.27707 33.2631 8.33569 32.4213 8.21103 31.3079L7.06197 21.0452Z" fill="#333333"/>
</svg>
