<svg width="48" height="48" viewBox="0 0 48 48" fill="none" xmlns="http://www.w3.org/2000/svg">
<path fill-rule="evenodd" clip-rule="evenodd" d="M9.99844 8.40039C6.90564 8.40039 4.39844 10.9076 4.39844 14.0004V34.0004C4.39844 37.0932 6.90564 39.6004 9.99844 39.6004H37.9984C41.0912 39.6004 43.5984 37.0932 43.5984 34.0004V14.0004C43.5984 10.9076 41.0912 8.40039 37.9984 8.40039H9.99844ZM7.59844 14.0004C7.59844 12.6749 8.67295 11.6004 9.99844 11.6004H37.9984C39.3239 11.6004 40.3984 12.6749 40.3984 14.0004V29.4004H7.59844V14.0004ZM7.59844 32.6004V34.0004C7.59844 35.3259 8.67295 36.4004 9.99844 36.4004H37.9984C39.3239 36.4004 40.3984 35.3259 40.3984 34.0004V32.6004H7.59844Z" fill="#333333"/>
</svg>
