<svg width="48" height="48" viewBox="0 0 48 48" fill="none" xmlns="http://www.w3.org/2000/svg">
<path fill-rule="evenodd" clip-rule="evenodd" d="M15.9908 19.1339V14.4113C15.9908 9.87641 19.667 6.2002 24.2019 6.2002C28.7367 6.2002 32.4129 9.87642 32.4129 14.4113V19.1339H32.6451C36.2218 19.1339 39.1213 22.0333 39.1213 25.61V35.3242C39.1213 38.9009 36.2218 41.8004 32.6451 41.8004L15.3472 41.7929C11.7706 41.7929 8.87109 38.8934 8.87109 35.3167V25.6025C8.87109 22.0258 11.7706 19.1263 15.3472 19.1263L15.9908 19.1339ZM19.1908 14.4113C19.1908 11.6437 21.4343 9.4002 24.2019 9.4002C26.9694 9.4002 29.2129 11.6437 29.2129 14.4113V19.1339H19.1908V14.4113ZM15.3472 22.3263L32.6451 22.3339C34.4545 22.3339 35.9213 23.8006 35.9213 25.61V35.3242C35.9213 37.1336 34.4545 38.6004 32.6451 38.6004L15.3472 38.5929C13.5379 38.5929 12.0711 37.1261 12.0711 35.3167V25.6025C12.0711 23.7931 13.5379 22.3263 15.3472 22.3263Z" fill="#333333"/>
</svg>
