<svg width="48" height="48" viewBox="0 0 48 48" fill="none" xmlns="http://www.w3.org/2000/svg">
<path fill-rule="evenodd" clip-rule="evenodd" d="M23.9982 10.0117C27.5568 10.0117 30.891 10.9653 33.7677 12.623C33.7775 12.6284 33.7892 12.633 33.7989 12.6387C33.8055 12.6425 33.812 12.6465 33.8185 12.6504C36.7701 14.3628 39.2313 16.8223 40.9474 19.7715C40.9555 19.7847 40.965 19.7971 40.9728 19.8105C40.9788 19.8209 40.9827 19.8333 40.9884 19.8438C42.6117 22.6609 43.5597 25.9166 43.5978 29.3926C43.6087 30.3951 42.7977 31.2105 41.7989 31.2109H6.19738C5.19872 31.2105 4.38758 30.3951 4.39855 29.3926L4.43566 28.3945C5.06413 18.1364 13.5821 10.0118 23.9982 10.0117ZM25.5978 15.6133C25.5972 16.4965 24.8815 17.2129 23.9982 17.2129C23.1149 17.2128 22.3991 16.4964 22.3985 15.6133V13.2871C20.5675 13.4644 18.8252 13.9444 17.2208 14.6738L18.3829 16.6855C18.8247 17.4508 18.5623 18.4293 17.797 18.8711C17.0318 19.3125 16.0551 19.0503 15.6134 18.2852L14.4532 16.2793C12.9937 17.3267 11.7127 18.6061 10.6661 20.0664L12.6739 21.2266C13.4392 21.6684 13.7017 22.6468 13.2599 23.4121C12.8179 24.1769 11.8394 24.4378 11.0743 23.9961L9.06261 22.834C8.33397 24.4383 7.85701 26.1813 7.6798 28.0117H15.5489C15.8677 26.3256 16.6856 24.7599 17.9161 23.5293C19.5289 21.9165 21.7173 21.0118 23.9982 21.0117C26.279 21.0117 28.4674 21.9165 30.0802 23.5293C31.3108 24.7599 32.1286 26.3256 32.4474 28.0117H40.3165C40.1393 26.1816 39.6602 24.4401 38.9318 22.8359L36.9239 23.9961C36.1587 24.4379 35.1802 24.1754 34.7384 23.4102C34.297 22.645 34.5592 21.6663 35.3243 21.2246L37.3282 20.0664C36.2815 18.6061 35.0009 17.3267 33.5411 16.2793L32.3829 18.2871C31.9412 19.0517 30.9643 19.314 30.1993 18.873C29.4341 18.4312 29.1716 17.4528 29.6134 16.6875L30.7735 14.6738C29.1696 13.9448 27.4282 13.4643 25.5978 13.2871V15.6133ZM23.9982 24.2109C22.566 24.211 21.1925 24.7803 20.1798 25.793C19.5543 26.4185 19.0994 27.1821 18.8419 28.0117H29.1544C28.8969 27.1821 28.442 26.4185 27.8165 25.793C26.8038 24.7803 25.4303 24.2109 23.9982 24.2109Z" fill="#333333"/>
</svg>
