<svg width="48" height="48" viewBox="0 0 48 48" fill="none" xmlns="http://www.w3.org/2000/svg">
<path d="M13.1298 12.869C12.505 12.2442 11.4919 12.2442 10.8671 12.869C10.2422 13.4939 10.2422 14.5069 10.8671 15.1318L19.7357 24.0004L10.8671 32.869C10.2422 33.4939 10.2422 34.5069 10.8671 35.1318C11.4919 35.7566 12.505 35.7566 13.1298 35.1318L23.1298 25.1318C23.7546 24.5069 23.7546 23.4939 23.1298 22.869L13.1298 12.869Z" fill="#333333"/>
<path d="M29.1298 12.869C28.505 12.2442 27.4919 12.2442 26.8671 12.869C26.2422 13.4939 26.2422 14.5069 26.8671 15.1318L35.7357 24.0004L26.8671 32.869C26.2422 33.4939 26.2422 34.5069 26.8671 35.1318C27.4919 35.7566 28.505 35.7566 29.1298 35.1318L39.1298 25.1318C39.7546 24.5069 39.7546 23.4939 39.1298 22.869L29.1298 12.869Z" fill="#333333"/>
</svg>
