<svg width="48" height="48" viewBox="0 0 48 48" fill="none" xmlns="http://www.w3.org/2000/svg">
<path d="M23.9977 13.4004C24.8813 13.4004 25.5977 14.1167 25.5977 15.0004V26.0004C25.5977 26.884 24.8813 27.6004 23.9977 27.6004C23.114 27.6004 22.3977 26.884 22.3977 26.0004V15.0004C22.3977 14.1167 23.114 13.4004 23.9977 13.4004Z" fill="#333333"/>
<path d="M21.998 32C21.998 33.1 22.898 34 23.998 34C25.098 34 25.998 33.1 25.998 32C25.998 30.9 25.098 30 23.998 30C22.898 30 21.998 30.9 21.998 32Z" fill="#333333"/>
<path fill-rule="evenodd" clip-rule="evenodd" d="M4.39844 24.0004C4.39844 13.1756 13.1737 4.40039 23.9984 4.40039C34.8232 4.40039 43.5984 13.1756 43.5984 24.0004C43.5984 34.8252 34.8232 43.6004 23.9984 43.6004C13.1737 43.6004 4.39844 34.8252 4.39844 24.0004ZM23.9984 7.60039C14.941 7.60039 7.59844 14.9429 7.59844 24.0004C7.59844 33.0579 14.941 40.4004 23.9984 40.4004C33.0559 40.4004 40.3984 33.0579 40.3984 24.0004C40.3984 14.9429 33.0559 7.60039 23.9984 7.60039Z" fill="#333333"/>
</svg>
