<svg width="48" height="48" viewBox="0 0 48 48" fill="none" xmlns="http://www.w3.org/2000/svg">
<path d="M12.8008 11.9994C12.8008 7.80205 16.2034 4.39941 20.4008 4.39941C24.5981 4.39941 28.0008 7.80205 28.0008 11.9994V22.9183C26.6243 23.6652 25.4025 24.6611 24.3959 25.8455C24.6558 25.2841 24.8008 24.6587 24.8008 23.9994V11.9994C24.8008 9.56936 22.8308 7.59941 20.4008 7.59941C17.9707 7.59941 16.0008 9.56936 16.0008 11.9994V23.9994C16.0008 26.4295 17.9707 28.3994 20.4008 28.3994C21.5364 28.3994 22.5716 27.9692 23.3522 27.2628C22.544 28.5375 21.9584 29.9672 21.65 31.4972C21.2436 31.5645 20.8263 31.5994 20.4008 31.5994C16.2034 31.5994 12.8008 28.1968 12.8008 23.9994V11.9994Z" fill="#333333"/>
<path d="M22.0008 37.8515C21.6502 36.7583 21.4449 35.6 21.4076 34.3994H20.4008C14.657 34.3994 10.0008 29.7432 10.0008 23.9994V20.9994C10.0008 20.1158 9.28444 19.3994 8.40078 19.3994C7.51713 19.3994 6.80078 20.1158 6.80078 20.9994V23.9994C6.80078 30.9692 12.0437 36.7144 18.8008 37.5063V41.9994C18.8008 42.8831 19.5171 43.5994 20.4008 43.5994C21.2844 43.5994 22.0008 42.8831 22.0008 41.9994V37.8515Z" fill="#333333"/>
<path fill-rule="evenodd" clip-rule="evenodd" d="M34.001 44C39.5238 44 44.001 39.5229 44.001 34C44.001 28.4772 39.5238 24 34.001 24C28.4781 24 24.001 28.4772 24.001 34C24.001 39.5229 28.4781 44 34.001 44ZM34.001 26.6C34.9399 26.6 35.701 27.3611 35.701 28.3V34.3C35.701 35.2389 34.9399 36 34.001 36C33.0621 36 32.301 35.2389 32.301 34.3L32.301 28.3C32.301 27.3611 33.0621 26.6 34.001 26.6ZM32.001 39.6998C32.001 40.7998 32.901 41.6998 34.001 41.6998C35.101 41.6998 36.001 40.7998 36.001 39.6998C36.001 38.5998 35.101 37.6998 34.001 37.6998C32.901 37.6998 32.001 38.5998 32.001 39.6998Z" fill="#333333"/>
</svg>
