<svg width="48" height="48" viewBox="0 0 48 48" fill="none" xmlns="http://www.w3.org/2000/svg">
<path fill-rule="evenodd" clip-rule="evenodd" d="M34.7876 8.44813C37.1321 7.61081 39.5984 9.34889 39.5984 11.8384V36.1624C39.5984 38.6519 37.1321 40.39 34.7876 39.5526L27.2066 36.8451L25.7201 40.0847C25.2963 41.0083 24.3733 41.6004 23.357 41.6004H16.6365C14.6912 41.6004 13.4349 39.5425 14.3238 37.8122L16.741 33.1074L12.115 31.4553C9.8862 30.6593 8.39844 28.5481 8.39844 26.1815V21.8193C8.39844 19.4526 9.88619 17.3415 12.115 16.5455L34.7876 8.44813ZM19.7808 34.1931L17.6193 38.4004H22.9722L24.1815 35.7648L19.7808 34.1931ZM18.5984 30.3728L35.8639 36.5391C36.1244 36.6321 36.3984 36.439 36.3984 36.1624V11.8384C36.3984 11.5618 36.1244 11.3687 35.8639 11.4617L18.5984 17.6279V30.3728ZM15.3984 18.7708L13.1912 19.5591C12.236 19.9002 11.5984 20.805 11.5984 21.8193V26.1815C11.5984 27.1958 12.236 28.1006 13.1912 28.4417L15.3984 29.23V18.7708Z" fill="#333333"/>
</svg>
