<svg width="48" height="48" viewBox="0 0 48 48" fill="none" xmlns="http://www.w3.org/2000/svg">
<path fill-rule="evenodd" clip-rule="evenodd" d="M8.39844 13.9999C8.39844 13.1162 9.11478 12.3999 9.99844 12.3999L37.9984 12.3999C38.8821 12.3999 39.5984 13.1162 39.5984 13.9999C39.5984 14.8836 38.8821 15.5999 37.9984 15.5999L9.99844 15.5999C9.11478 15.5999 8.39844 14.8836 8.39844 13.9999Z" fill="#333333"/>
<path fill-rule="evenodd" clip-rule="evenodd" d="M8.39844 23.9999C8.39844 23.1162 9.11478 22.3999 9.99844 22.3999L30.9984 22.3999C31.8821 22.3999 32.5984 23.1162 32.5984 23.9999C32.5984 24.8836 31.8821 25.5999 30.9984 25.5999L9.99844 25.5999C9.11478 25.5999 8.39844 24.8836 8.39844 23.9999Z" fill="#333333"/>
<path fill-rule="evenodd" clip-rule="evenodd" d="M8.39844 33.9999C8.39844 33.1162 9.11478 32.3999 9.99844 32.3999H21.9984C22.8821 32.3999 23.5984 33.1162 23.5984 33.9999C23.5984 34.8836 22.8821 35.5999 21.9984 35.5999H9.99844C9.11478 35.5999 8.39844 34.8836 8.39844 33.9999Z" fill="#333333"/>
</svg>
