<svg width="48" height="48" viewBox="0 0 48 48" fill="none" xmlns="http://www.w3.org/2000/svg">
<path d="M26.002 5.7434C28.3941 4.14897 31.5971 5.86279 31.5977 8.73753V19.7785C32.7823 20.3677 33.5977 21.5882 33.5977 23.0012V25.634C35.9107 26.3223 37.5977 28.4643 37.5977 31.0011V41.0011C37.5972 41.8844 36.8814 42.6007 35.998 42.6007C35.1147 42.6007 34.3989 41.8844 34.3984 41.0011V31.0011C34.3984 29.6757 33.3235 28.6008 31.998 28.6008H15.998C14.6726 28.6008 13.5977 29.6757 13.5977 31.0011V41.0011C13.5972 41.8844 12.8814 42.6007 11.998 42.6007C11.1147 42.6007 10.3989 41.8844 10.3984 41.0011V31.0011C10.3984 28.4643 12.0854 26.3223 14.3984 25.634V23.0012C14.3984 21.5882 15.2138 20.3677 16.3984 19.7785V14.0715C16.3985 12.868 17.0006 11.7431 18.002 11.0754L26.002 5.7434ZM23.998 32.0011C26.2072 32.0011 27.998 33.792 27.998 36.0011V40.6007C27.9978 41.7051 27.1025 42.6007 25.998 42.6007H21.998C20.8936 42.6007 19.9983 41.7051 19.998 40.6007V36.0011C19.998 33.792 21.7889 32.0011 23.998 32.0011ZM17.998 22.6008C17.7771 22.6008 17.5977 22.7802 17.5977 23.0012V25.4015H30.3984V23.0012C30.3984 22.7802 30.219 22.6008 29.998 22.6008H17.998ZM28.3984 8.73753C28.3979 8.41847 28.041 8.22842 27.7754 8.4055L19.7754 13.7395C19.6648 13.8137 19.5977 13.9382 19.5977 14.0715V19.4016H28.3984V8.73753Z" fill="#333333"/>
</svg>
