<svg width="48" height="48" viewBox="0 0 48 48" fill="none" xmlns="http://www.w3.org/2000/svg">
<path fill-rule="evenodd" clip-rule="evenodd" d="M17.998 6.40039C24.7558 6.40039 30.271 11.72 30.584 18.4004H34.998C38.0908 18.4004 40.5977 20.9072 40.5977 24V36C40.5977 39.0928 38.0908 41.5996 34.998 41.5996H22.998C19.9053 41.5996 17.3984 39.0928 17.3984 36V31.584C10.7181 31.271 5.39844 25.7578 5.39844 19C5.39844 12.0412 11.0393 6.40039 17.998 6.40039ZM30.3281 21.5996C29.3061 26.4719 25.4699 30.306 20.5977 31.3281V36C20.5977 37.3255 21.6726 38.4004 22.998 38.4004H34.998C36.3235 38.4004 37.3984 37.3255 37.3984 36V24C37.3984 22.6745 36.3235 21.5996 34.998 21.5996H30.3281ZM17.998 9.59961C12.8066 9.59961 8.59766 13.8085 8.59766 19C8.59766 23.99 12.4864 28.0696 17.3984 28.3789V24C17.3984 20.9072 19.9053 18.4004 22.998 18.4004H27.377C27.0676 13.4884 22.9881 9.59961 17.998 9.59961Z" fill="#333333"/>
</svg>
