<svg width="48" height="48" viewBox="0 0 48 48" fill="none" xmlns="http://www.w3.org/2000/svg">
<path d="M38 24C38 16.268 31.732 10 24 10C16.268 10 10 16.268 10 24C10 31.732 16.268 38 24 38C25.6569 38 27 39.3431 27 41C27 42.6569 25.6569 44 24 44C12.9543 44 4 35.0457 4 24C4 12.9543 12.9543 4 24 4C35.0457 4 44 12.9543 44 24C44 25.6569 42.6569 27 41 27C39.3431 27 38 25.6569 38 24Z" fill="#333333"/>
<path d="M38 24C38 16.268 31.732 10 24 10C22.3431 10 21 8.65685 21 7C21 5.34315 22.3431 4 24 4C35.0457 4 44 12.9543 44 24C44 25.6569 42.6569 27 41 27C39.3431 27 38 25.6569 38 24Z" fill="#333333"/>
<path d="M37.9983 24.0003C37.9983 22.5622 37.7821 21.1797 37.3831 19.8811C36.8965 18.2974 37.7857 16.6197 39.3694 16.1331C40.9532 15.6465 42.6308 16.5357 43.1175 18.1194C43.6899 19.9825 43.9983 21.9582 43.9983 24.0003C43.9983 25.6569 42.6548 26.9998 40.9983 27.0003C39.3415 27.0003 37.9983 25.6571 37.9983 24.0003Z" fill="#333333"/>
</svg>
