<svg width="48" height="48" viewBox="0 0 48 48" fill="none" xmlns="http://www.w3.org/2000/svg">
<path d="M29.9984 20.4004C29.1148 20.4004 28.3984 21.1167 28.3984 22.0004C28.3984 22.884 29.1148 23.6004 29.9984 23.6004H35.9984C36.8821 23.6004 37.5984 22.884 37.5984 22.0004C37.5984 21.1167 36.8821 20.4004 35.9984 20.4004H29.9984Z" fill="#333333"/>
<path d="M28.3984 16.0004C28.3984 15.1167 29.1148 14.4004 29.9984 14.4004H35.9984C36.8821 14.4004 37.5984 15.1167 37.5984 16.0004C37.5984 16.884 36.8821 17.6004 35.9984 17.6004H29.9984C29.1148 17.6004 28.3984 16.884 28.3984 16.0004Z" fill="#333333"/>
<path d="M29.9984 26.4004C29.1148 26.4004 28.3984 27.1167 28.3984 28.0004C28.3984 28.884 29.1148 29.6004 29.9984 29.6004H30.9984C31.8821 29.6004 32.5984 28.884 32.5984 28.0004C32.5984 27.1167 31.8821 26.4004 30.9984 26.4004H29.9984Z" fill="#333333"/>
<path fill-rule="evenodd" clip-rule="evenodd" d="M26.9972 37.9999C25.9521 38.8359 25.6165 39.6519 25.5984 39.9737V40.0004C25.5984 40.2091 25.5585 40.4086 25.4858 40.5914C25.2507 41.1826 24.6734 41.6005 23.9984 41.6005C23.1148 41.6005 22.3977 40.8841 22.3977 40.0005L22.3977 39.9753C22.3807 39.6545 22.0457 38.8373 20.9989 37.9999C20.0013 37.2017 18.5969 36.6005 16.9984 36.6005H9.99844C6.90564 36.6005 4.39844 34.0933 4.39844 31.0005V12.0005C4.39844 8.90767 6.90564 6.40047 9.99844 6.40047L18.0848 6.40043C19.0432 6.39981 20.5843 6.3988 22.0233 7.03843C22.7589 7.36541 23.4289 7.8381 23.9981 8.48449C24.5672 7.8381 25.2372 7.36541 25.9728 7.03843C27.4118 6.3988 28.9529 6.39981 29.9113 6.40043L37.9977 6.40047C41.0905 6.40047 43.5977 8.90767 43.5977 12.0005V31.0005C43.5977 34.0933 41.0905 36.6005 37.9977 36.6005H30.9977C29.3992 36.6005 27.9948 37.2017 26.9972 37.9999ZM17.9984 9.60047C19.0482 9.60047 19.9567 9.62172 20.7236 9.96259C21.3298 10.232 21.9986 10.7731 22.3984 12.2079V35.0597C20.9592 34.0857 19.0955 33.4005 16.9984 33.4005H9.99844C8.67295 33.4005 7.59844 32.326 7.59844 31.0005V12.0005C7.59844 10.675 8.67295 9.60047 9.99844 9.60047H17.9984ZM25.5984 35.0592V12.2051C25.9984 10.7724 26.6667 10.2319 27.2725 9.96259C28.0394 9.62172 28.9479 9.60047 29.9977 9.60047H37.9977C39.3231 9.60047 40.3977 10.675 40.3977 12.0005V31.0005C40.3977 32.326 39.3231 33.4005 37.9977 33.4005H30.9977C28.901 33.4005 27.0375 34.0855 25.5984 35.0592Z" fill="#333333"/>
</svg>
