<svg width="48" height="48" viewBox="0 0 48 48" fill="none" xmlns="http://www.w3.org/2000/svg">
<path d="M39 26C43.9706 26 48 30.0294 48 35C48 39.9706 43.9706 44 39 44C34.0294 44 30 39.9706 30 35C30 30.0294 34.0294 26 39 26ZM23.5977 4.40039C24.4812 4.40039 25.1971 5.11652 25.1973 6V9.40039H38.2109C42.303 9.40039 45.5977 12.7423 45.5977 16.8359V26.1992C44.6403 25.4802 43.562 24.913 42.3984 24.5352V16.8359C42.3984 14.4848 40.5109 12.5996 38.2109 12.5996H25.1973V35.4004H28.0059C28.0458 36.5174 28.2526 37.5916 28.6016 38.5996H25.1973V42C25.1973 42.8837 24.4813 43.5996 23.5977 43.5996C22.7142 43.5994 21.998 42.8835 21.998 42V6C21.9983 5.11665 22.7143 4.4006 23.5977 4.40039ZM39 28.6992C38.1305 28.6992 37.4243 29.404 37.4238 30.2734V33.4238H34.5C33.6302 33.4238 32.9238 34.1302 32.9238 35C32.9243 35.8694 33.6304 36.5742 34.5 36.5742H37.4238V39.8203C37.4238 40.6901 38.1302 41.3945 39 41.3945C39.8694 41.394 40.5742 40.6898 40.5742 39.8203V36.5742H44.0449C44.9145 36.5742 45.6206 35.8694 45.6211 35C45.6211 34.1302 44.9148 33.4238 44.0449 33.4238H40.5742V30.2734C40.5737 29.4043 39.8691 28.6997 39 28.6992ZM19.3984 12.5996H9.78516C7.48528 12.5997 5.59766 14.4848 5.59766 16.8359V31.166C5.5978 33.517 7.48537 35.4003 9.78516 35.4004H19.3984V38.5996H9.78516C5.69327 38.5996 2.39858 35.2595 2.39844 31.166V16.8359C2.39844 12.7424 5.69318 9.40044 9.78516 9.40039H19.3984V12.5996Z" fill="#333333"/>
</svg>
