<svg width="48" height="48" viewBox="0 0 48 48" fill="none" xmlns="http://www.w3.org/2000/svg">
<path fill-rule="evenodd" clip-rule="evenodd" d="M41.6016 33.9996C41.6016 37.0924 39.0944 39.5996 36.0016 39.5996H12.0016C8.90877 39.5996 6.40157 37.0924 6.40157 33.9996V13.9996C6.40157 10.9068 8.90877 8.39961 12.0016 8.39961H36.0016C39.0944 8.39961 41.6016 10.9068 41.6016 13.9996V33.9996ZM36.0016 36.3996C37.327 36.3996 38.4016 35.3251 38.4016 33.9996V31.5996H9.60156V33.9996C9.60156 35.3251 10.6761 36.3996 12.0016 36.3996H36.0016ZM9.60156 28.3996H29.4016V11.5996H12.0016C10.6761 11.5996 9.60156 12.6741 9.60156 13.9996V28.3996ZM32.6016 11.5996V28.3996H38.4016V13.9996C38.4016 12.6741 37.327 11.5996 36.0016 11.5996H32.6016Z" fill="#333333"/>
</svg>
