<svg width="48" height="48" viewBox="0 0 48 48" fill="none" xmlns="http://www.w3.org/2000/svg">
<path fill-rule="evenodd" clip-rule="evenodd" d="M11.3984 8.00039C11.3984 6.01217 13.0102 4.40039 14.9984 4.40039H32.9984C34.9867 4.40039 36.5984 6.01217 36.5984 8.00039V12.0004C36.5984 13.9886 34.9867 15.6004 32.9984 15.6004H14.9984C13.0102 15.6004 11.3984 13.9886 11.3984 12.0004V8.00039ZM14.9984 7.60039C14.7775 7.60039 14.5984 7.77948 14.5984 8.00039V12.0004C14.5984 12.2213 14.7775 12.4004 14.9984 12.4004H32.9984C33.2194 12.4004 33.3984 12.2213 33.3984 12.0004V8.00039C33.3984 7.77948 33.2194 7.60039 32.9984 7.60039H14.9984Z" fill="#333333"/>
<path fill-rule="evenodd" clip-rule="evenodd" d="M11.3984 22.0004C11.3984 20.0122 13.0102 18.4004 14.9984 18.4004H32.9984C34.9867 18.4004 36.5984 20.0122 36.5984 22.0004V26.0004C36.5984 27.9886 34.9867 29.6004 32.9984 29.6004H14.9984C13.0102 29.6004 11.3984 27.9886 11.3984 26.0004V22.0004ZM14.9984 21.6004C14.7775 21.6004 14.5984 21.7795 14.5984 22.0004V26.0004C14.5984 26.2213 14.7775 26.4004 14.9984 26.4004H32.9984C33.2194 26.4004 33.3984 26.2213 33.3984 26.0004V22.0004C33.3984 21.7795 33.2194 21.6004 32.9984 21.6004H14.9984Z" fill="#333333"/>
<path fill-rule="evenodd" clip-rule="evenodd" d="M14.9984 32.4004C13.0102 32.4004 11.3984 34.0122 11.3984 36.0004V40.0004C11.3984 41.9886 13.0102 43.6004 14.9984 43.6004H32.9984C34.9867 43.6004 36.5984 41.9886 36.5984 40.0004V36.0004C36.5984 34.0122 34.9867 32.4004 32.9984 32.4004H14.9984ZM14.5984 36.0004C14.5984 35.7795 14.7775 35.6004 14.9984 35.6004H32.9984C33.2194 35.6004 33.3984 35.7795 33.3984 36.0004V40.0004C33.3984 40.2213 33.2194 40.4004 32.9984 40.4004H14.9984C14.7775 40.4004 14.5984 40.2213 14.5984 40.0004V36.0004Z" fill="#333333"/>
</svg>
