<svg width="48" height="48" viewBox="0 0 48 48" fill="none" xmlns="http://www.w3.org/2000/svg">
<path fill-rule="evenodd" clip-rule="evenodd" d="M8.39844 10.0004C8.39844 6.9076 10.9056 4.40039 13.9984 4.40039H26.9984C27.4228 4.40039 27.8298 4.56896 28.1298 4.86902L39.1298 15.869C39.4299 16.1691 39.5984 16.576 39.5984 17.0004V38.0004C39.5984 41.0932 37.0912 43.6004 33.9984 43.6004H13.9984C10.9056 43.6004 8.39844 41.0932 8.39844 38.0004V10.0004ZM13.9984 7.60039C12.673 7.60039 11.5984 8.67491 11.5984 10.0004V38.0004C11.5984 39.3259 12.673 40.4004 13.9984 40.4004H33.9984C35.3239 40.4004 36.3984 39.3259 36.3984 38.0004V18.6004H27.9984C26.5625 18.6004 25.3984 17.4363 25.3984 16.0004V7.60039H13.9984ZM28.5984 9.86313L34.1357 15.4004H28.5984V9.86313Z" fill="#333333"/>
</svg>
