<svg width="48" height="48" viewBox="0 0 48 48" fill="none" xmlns="http://www.w3.org/2000/svg">
<path fill-rule="evenodd" clip-rule="evenodd" d="M32.5293 8.53383C32.3241 7.86048 31.7028 7.40039 30.9989 7.40039C30.2949 7.40039 29.6737 7.86048 29.4684 8.53383L23.3754 28.5207L21.8557 33.2323L21.2313 31.6325L16.4904 19.4213C16.2515 18.8059 15.6591 18.4004 14.9989 18.4004C14.3387 18.4004 13.7463 18.8059 13.5073 19.4213L6.50835 37.4187C6.1871 38.2419 6.594 39.1697 7.41719 39.4909C8.24038 39.8122 9.16814 39.4053 9.48939 38.5821L11.3501 33.8142H18.6477L20.5035 38.5696C20.5121 38.5922 20.5212 38.6146 20.5309 38.6368C20.6205 38.844 20.7494 39.0231 20.9053 39.1688C21.0586 39.3126 21.2427 39.4281 21.4517 39.5039C21.5715 39.5476 21.6967 39.5771 21.8246 39.5912C22.0025 39.6109 22.1792 39.6 22.3484 39.562C22.6591 39.4921 22.9442 39.3305 23.1639 39.0976C23.3092 38.9435 23.4259 38.7582 23.5024 38.5475C23.5107 38.5248 23.5185 38.5018 23.5258 38.4787L26.0672 30.5996H35.9306L38.4761 38.4916C38.7474 39.3325 39.649 39.7944 40.49 39.5231C41.331 39.2519 41.7929 38.3502 41.5216 37.5092L38.6223 28.5207L32.5293 8.53383ZM30.9989 14.4873L34.9352 27.3996H27.0626L30.9989 14.4873ZM14.9989 24.4212L17.4033 30.6142H12.5945L14.9989 24.4212Z" fill="#333333"/>
</svg>
