<svg width="48" height="48" viewBox="0 0 48 48" fill="none" xmlns="http://www.w3.org/2000/svg">
<path fill-rule="evenodd" clip-rule="evenodd" d="M11.3422 9.5999C11.1179 9.5999 10.9375 9.78426 10.9423 10.0085L11.165 20.3999H36.7451L37.0419 10.0113C37.0484 9.78603 36.8675 9.5999 36.6421 9.5999H23.6001V15.9999C23.6001 16.8836 22.8837 17.5999 22.0001 17.5999C21.1164 17.5999 20.4001 16.8836 20.4001 15.9999V9.5999H17.5997V12.9999C17.5997 13.8836 16.8833 14.5999 15.9997 14.5999C15.116 14.5999 14.3997 13.8836 14.3997 12.9999V9.5999H11.3422ZM36.6389 23.5999H11.1989V24.9999C11.1989 26.8777 12.7211 28.3999 14.5989 28.3999H18.9997C20.9879 28.3999 22.5997 30.0117 22.5997 31.9999V40.3999H25.3997V31.9999C25.3997 30.0117 27.0114 28.3999 28.9997 28.3999H33.184C35.0122 28.3999 36.5131 26.9542 36.5817 25.1273L36.6389 23.5999ZM7.99889 22.017L7.74303 10.077C7.69979 8.05908 9.32379 6.3999 11.3422 6.3999H36.6421C38.6706 6.3999 40.2986 8.07504 40.2406 10.1027L39.899 22.0599L39.7794 25.2472C39.6464 28.7936 36.7329 31.5999 33.184 31.5999H28.9997C28.7788 31.5999 28.5997 31.779 28.5997 31.9999V40.9999C28.5997 42.4358 27.4356 43.5999 25.9997 43.5999H21.9997C20.5637 43.5999 19.3997 42.4358 19.3997 40.9999V31.9999C19.3997 31.779 19.2206 31.5999 18.9997 31.5999H14.5989C10.9538 31.5999 7.99889 28.645 7.99889 24.9999V22.017Z" fill="#333333"/>
</svg>
