<svg width="48" height="48" viewBox="0 0 48 48" fill="none" xmlns="http://www.w3.org/2000/svg">
<path d="M19.4577 4.40625C18.6764 4.40625 18.0094 4.97046 17.8799 5.74089L16.9686 11.1593C16.4744 11.4194 15.9964 11.7056 15.5366 12.0162L10.5112 10.4486C9.79899 10.2265 9.02779 10.526 8.65225 11.1706L4.61603 18.0989C4.21977 18.779 4.37714 19.6464 4.98708 20.144L8.91531 23.3488C8.88606 23.7311 8.87119 24.1171 8.87119 24.5063C8.87119 24.8819 8.88504 25.2545 8.91231 25.6237L5.42682 28.7921C4.86818 29.2999 4.74052 30.1292 5.12056 30.7815L9.15678 37.7097C9.54841 38.3819 10.3668 38.675 11.0962 38.4042L15.3095 36.8399C15.8946 37.2507 16.5104 37.6216 17.1528 37.9485L17.8799 42.2716C18.0094 43.042 18.6764 43.6062 19.4577 43.6062H23.6207C22.8645 42.7121 22.3419 41.614 22.1471 40.4062H20.8111L20.1701 36.5948C20.0806 36.0625 19.7286 35.6111 19.2342 35.3946C18.272 34.9732 17.3758 34.4302 16.5654 33.7851C16.1269 33.436 15.5376 33.3418 15.0121 33.5369L11.2442 34.9358L8.53722 30.2892L11.6619 27.4488C12.0497 27.0963 12.2403 26.5762 12.1721 26.0566C12.1056 25.5498 12.0712 25.0324 12.0712 24.5063C12.0712 23.9523 12.1093 23.4081 12.1829 22.8758C12.2594 22.3228 12.042 21.7699 11.6094 21.4169L8.0691 18.5286L10.7755 13.8831L15.3434 15.308C15.8372 15.462 16.375 15.3678 16.787 15.0552C17.4921 14.5202 18.2584 14.061 19.0737 13.6896C19.5574 13.4693 19.9001 13.0231 19.9883 12.4989L20.8111 7.60625H26.2492L27.2789 12.1985C27.3978 12.7285 27.7774 13.162 28.287 13.3498C29.3942 13.7577 30.4247 14.3229 31.3509 15.0182C31.7622 15.327 32.2969 15.4193 32.7879 15.2661L37.2216 13.8831L39.928 18.5286L38.7797 19.4654C39.6776 20.0684 40.4525 20.8404 41.0588 21.7359L43.01 20.144C43.6199 19.6464 43.7773 18.779 43.381 18.0989L39.3448 11.1706C38.9693 10.526 38.1981 10.2265 37.4859 10.4486L32.5901 11.9757C31.8438 11.4769 31.0503 11.0418 30.2175 10.6784L29.0914 5.65617C28.9275 4.92554 28.2789 4.40625 27.5301 4.40625H19.4577Z" fill="#333333"/>
<path fill-rule="evenodd" clip-rule="evenodd" d="M39.5562 29.3469C41.6605 29.4638 43.3307 31.2072 43.3307 33.3406V39.3406C43.3307 41.5498 41.5399 43.3406 39.3307 43.3406H28.6641C28.5834 43.3406 28.5032 43.3382 28.4237 43.3335C28.4208 43.3355 28.4179 43.3374 28.415 43.3393C26.6823 43.2336 25.2477 42.0248 24.8043 40.4062H24.8076C24.714 40.067 24.6641 39.7096 24.6641 39.3406V33.3406C24.6641 31.2072 26.3343 29.4638 28.4385 29.3469H28.3287V26.4302C28.3287 25.9451 28.3884 25.474 28.5009 25.0237C29.1269 22.5062 31.4024 20.6406 34.1136 20.6406C37.3077 20.6406 39.8969 23.2299 39.8969 26.424V29.3406L39.8954 29.3469H39.5562ZM36.1007 25.1075C35.6738 24.4645 34.9432 24.0406 34.1136 24.0406C32.7973 24.0406 31.7303 25.1077 31.7303 26.424V29.3406H36.4969V27.5958L36.4954 27.5944V26.4302C36.4954 25.9443 36.35 25.4923 36.1003 25.1155C36.1004 25.1128 36.1005 25.1101 36.1007 25.1075Z" fill="#333333"/>
<path d="M23.9984 16.4062C26.3689 16.4062 28.4858 17.4915 29.8796 19.1922C28.9482 19.738 28.1316 20.4584 27.4746 21.3085C26.6696 20.2727 25.4119 19.6062 23.9984 19.6062C21.5684 19.6062 19.5984 21.5762 19.5984 24.0063C19.5984 26.4363 21.5684 28.4062 23.9984 28.4062C24.099 28.4062 24.1987 28.4029 24.2976 28.3962C23.3914 29.1958 22.7065 30.2403 22.3463 31.4262C18.9434 30.6718 16.3984 27.6362 16.3984 24.0063C16.3984 19.8089 19.8011 16.4062 23.9984 16.4062Z" fill="#333333"/>
</svg>
