<svg width="48" height="48" viewBox="0 0 48 48" fill="none" xmlns="http://www.w3.org/2000/svg">
<path fill-rule="evenodd" clip-rule="evenodd" d="M15.5022 8.24023C11.4926 8.24023 8.24219 11.4906 8.24219 15.5002C8.24219 19.5098 11.4926 22.7602 15.5022 22.7602C19.5118 22.7602 22.7622 19.5098 22.7622 15.5002C22.7622 11.4906 19.5118 8.24023 15.5022 8.24023ZM11.7622 15.5002C11.7622 13.4347 13.4366 11.7602 15.5022 11.7602C17.5677 11.7602 19.2422 13.4347 19.2422 15.5002C19.2422 17.5658 17.5677 19.2402 15.5022 19.2402C13.4366 19.2402 11.7622 17.5658 11.7622 15.5002Z" fill="#333333"/>
<path fill-rule="evenodd" clip-rule="evenodd" d="M15.5022 25.2402C11.4926 25.2402 8.24219 28.4906 8.24219 32.5002C8.24219 36.5098 11.4926 39.7602 15.5022 39.7602C19.5118 39.7602 22.7622 36.5098 22.7622 32.5002C22.7622 28.4906 19.5118 25.2402 15.5022 25.2402ZM11.7622 32.5002C11.7622 30.4347 13.4366 28.7602 15.5022 28.7602C17.5677 28.7602 19.2422 30.4347 19.2422 32.5002C19.2422 34.5658 17.5677 36.2402 15.5022 36.2402C13.4366 36.2402 11.7622 34.5658 11.7622 32.5002Z" fill="#333333"/>
<path fill-rule="evenodd" clip-rule="evenodd" d="M25.2422 15.5002C25.2422 11.4906 28.4926 8.24023 32.5022 8.24023C36.5118 8.24023 39.7622 11.4906 39.7622 15.5002C39.7622 19.5098 36.5118 22.7602 32.5022 22.7602C28.4926 22.7602 25.2422 19.5098 25.2422 15.5002ZM32.5022 11.7602C30.4366 11.7602 28.7622 13.4347 28.7622 15.5002C28.7622 17.5658 30.4366 19.2402 32.5022 19.2402C34.5677 19.2402 36.2422 17.5658 36.2422 15.5002C36.2422 13.4347 34.5677 11.7602 32.5022 11.7602Z" fill="#333333"/>
<path fill-rule="evenodd" clip-rule="evenodd" d="M32.5022 25.2402C28.4926 25.2402 25.2422 28.4906 25.2422 32.5002C25.2422 36.5098 28.4926 39.7602 32.5022 39.7602C36.5118 39.7602 39.7622 36.5098 39.7622 32.5002C39.7622 28.4906 36.5118 25.2402 32.5022 25.2402ZM28.7622 32.5002C28.7622 30.4347 30.4366 28.7602 32.5022 28.7602C34.5677 28.7602 36.2422 30.4347 36.2422 32.5002C36.2422 34.5658 34.5677 36.2402 32.5022 36.2402C30.4366 36.2402 28.7622 34.5658 28.7622 32.5002Z" fill="#333333"/>
</svg>
