<svg width="48" height="48" viewBox="0 0 48 48" fill="none" xmlns="http://www.w3.org/2000/svg">
<path fill-rule="evenodd" clip-rule="evenodd" d="M42.7373 6.58123C43.2665 6.85675 43.5984 7.40379 43.5984 8.0004V34.0004C43.5984 34.5624 43.3036 35.0832 42.8216 35.3724L36.2243 39.3308C33.6517 40.8743 30.5054 41.1264 27.7198 40.0122L19.9004 36.8844C18.129 36.1759 16.1338 36.2946 14.4589 37.2082L6.7646 41.405C6.26885 41.6754 5.66728 41.6645 5.18169 41.3762C4.69611 41.088 4.39844 40.5651 4.39844 40.0004V15.0004C4.39844 14.4534 4.67792 13.9442 5.13944 13.6505L12.4376 9.00628C15.2046 7.24542 18.6791 7.01908 21.6513 8.40607L28.4888 11.5969C30.5611 12.564 32.992 12.3519 34.8654 11.0404L41.0809 6.68962C41.5697 6.3475 42.2082 6.30571 42.7373 6.58123ZM40.3984 11.0734L36.7005 13.662C35.7451 14.3308 34.6931 14.8089 33.5984 15.0918V37.0662C33.9353 36.9356 34.2631 36.7757 34.578 36.5868L40.3984 33.0945V11.0734ZM27.1356 14.4967C28.1799 14.984 29.2849 15.2717 30.3984 15.3644V37.4372C29.8927 37.3664 29.3923 37.2347 28.9083 37.0411L21.0889 33.9133C20.2821 33.5906 19.4443 33.3823 18.5984 33.287V10.785C19.1792 10.8775 19.7514 11.0507 20.298 11.3059L27.1356 14.4967ZM15.3984 11.0928C14.9678 11.2499 14.5508 11.4545 14.1556 11.706L7.59844 15.8787V37.3051L12.9265 34.3989C13.7119 33.9705 14.5441 33.6587 15.3984 33.4648V11.0928Z" fill="#333333"/>
</svg>
