<svg width="48" height="48" viewBox="0 0 48 48" fill="none" xmlns="http://www.w3.org/2000/svg">
<path fill-rule="evenodd" clip-rule="evenodd" d="M11.5984 7.60039V36.4004H22.3332C22.7683 37.5223 23.3142 38.5965 23.9585 39.6004H10.8873C9.51275 39.6004 8.39844 38.4861 8.39844 37.1115V6.88928C8.39844 5.5147 9.51275 4.40039 10.8873 4.40039H25.9984C26.4228 4.40039 26.8298 4.56896 27.1298 4.86902L36.0187 13.7579C36.3188 14.058 36.4873 14.4649 36.4873 14.8893V18.3096L35.2841 17.7546C34.6536 17.4638 33.9619 17.3592 33.2873 17.4409V16.4893H26.8873C25.5128 16.4893 24.3984 15.375 24.3984 14.0004V7.60039H11.5984ZM27.5984 9.86313L31.0246 13.2893H27.5984V9.86313Z" fill="#333333"/>
<path fill-rule="evenodd" clip-rule="evenodd" d="M33.7324 43.9019C27.9991 42.449 23.7324 36.4641 23.7324 30.0641V25.2208C23.7324 24.7903 23.9828 24.399 24.3738 24.2187L33.2702 20.1151C33.5635 19.9798 33.9014 19.9798 34.1947 20.1151L43.0911 24.2187C43.482 24.399 43.7324 24.7903 43.7324 25.2208V30.0641C43.7324 36.4641 39.4658 42.449 33.7324 43.9019ZM28.0618 31.6712C28.6475 31.0854 29.5973 31.0853 30.1831 31.671L31.6896 33.1772L38.0714 26.7959C38.6572 26.2101 39.607 26.2102 40.1927 26.796C40.7785 27.3818 40.7785 28.3315 40.1926 28.9173L32.7503 36.3591C32.1646 36.9448 31.2149 36.9448 30.6292 36.3592L28.062 33.7925C27.4761 33.2068 27.476 32.257 28.0618 31.6712Z" fill="#333333"/>
</svg>
