<svg width="48" height="48" viewBox="0 0 48 48" fill="none" xmlns="http://www.w3.org/2000/svg">
<g clip-path="url(#clip0_6072_57)">
<path fill-rule="evenodd" clip-rule="evenodd" d="M8.36333 9.49903L16.4426 25.7035L17.9814 28.7791C18.3009 29.4177 18.1586 30.1907 17.6327 30.6736C17.1067 31.1565 16.3245 31.2325 15.7154 30.8598L13.7259 29.6425C13.0671 29.2393 12.4885 28.9174 11.9498 28.7417C11.4323 28.5729 11.0875 28.5841 10.8198 28.6884C10.2093 28.9263 9.70195 29.4832 9.56556 30.3947L9.54968 30.5009C9.46939 31.0375 9.57338 31.5855 9.84469 32.0555L10.8836 33.8549C14.815 40.6644 23.9743 42.9246 31.4204 38.6256C38.8664 34.3267 41.4886 25.2644 37.5572 18.4549L37.5553 18.4517L35.3943 14.6887C34.9765 14.006 34.0899 13.7796 33.3954 14.1805C33.1793 14.3053 33.1053 14.5815 33.2301 14.7976L34.0178 16.1619C34.4596 16.9272 34.1974 17.9057 33.4321 18.3476C32.6668 18.7894 31.6883 18.5272 31.2465 17.7619L29.3012 14.3926C28.9974 13.8664 28.3244 13.686 27.7982 13.9899C27.2719 14.2937 27.0916 14.9667 27.3954 15.4929L28.8925 18.086C29.3344 18.8512 29.0722 19.8298 28.3069 20.2716C27.5416 20.7134 26.5631 20.4512 26.1212 19.686L23.793 15.6534C23.3958 14.9654 22.5161 14.7297 21.8282 15.1269C21.1402 15.5241 20.9045 16.4038 21.3017 17.0918L23.2904 20.5363C23.7167 21.2747 23.489 22.2178 22.7726 22.6804C22.0563 23.143 21.103 22.9624 20.6054 22.27L10.5332 8.25369L10.5181 8.23103C10.1968 7.7501 9.55738 7.60102 9.05647 7.89023C8.8065 8.03455 8.54872 8.32918 8.40668 8.70237C8.26836 9.0658 8.29605 9.34397 8.36333 9.49903ZM24.8986 12.3734C25.2382 11.9171 25.6743 11.5211 26.1982 11.2186C27.869 10.2539 29.9181 10.538 31.2649 11.7812C31.4277 11.6441 31.6047 11.5194 31.7954 11.4093C34.0056 10.1332 36.8306 10.8643 38.1444 13.0523L38.1524 13.0656L40.3285 16.8549C40.3288 16.8555 40.3292 16.8561 40.3295 16.8567C45.2331 25.3523 41.8357 36.3074 33.0204 41.3969C24.2045 46.4868 13.0174 43.9508 8.11231 35.4549L7.07341 33.6555C6.44023 32.5588 6.19752 31.2798 6.38491 30.0274L6.40079 29.9212C6.69683 27.9426 7.91629 26.3855 9.65787 25.7068C10.8038 25.2602 11.9198 25.3814 12.8503 25.6702L5.47799 10.8836L5.4693 10.865C4.94846 9.74952 5.04423 8.54085 5.41596 7.56413C5.78767 6.58746 6.4946 5.67428 7.45647 5.11895C9.40881 3.99176 11.8984 4.5652 13.1619 6.42809L18.58 13.9679C18.9714 13.3208 19.527 12.7605 20.2282 12.3556C21.7262 11.4907 23.5062 11.5565 24.8986 12.3734Z" fill="#333333"/>
</g>
<defs>
<clipPath id="clip0_6072_57">
<rect width="24" height="24" fill="white" transform="scale(2)"/>
</clipPath>
</defs>
</svg>
