<svg width="48" height="48" viewBox="0 0 48 48" fill="none" xmlns="http://www.w3.org/2000/svg">
<path fill-rule="evenodd" clip-rule="evenodd" d="M39.6016 13.9999C39.6016 13.1162 38.8852 12.3999 38.0016 12.3999L10.0016 12.3999C9.11791 12.3999 8.40156 13.1162 8.40156 13.9999C8.40156 14.8836 9.11791 15.5999 10.0016 15.5999L38.0016 15.5999C38.8852 15.5999 39.6016 14.8836 39.6016 13.9999Z" fill="#333333"/>
<path fill-rule="evenodd" clip-rule="evenodd" d="M39.6016 23.9999C39.6016 23.1162 38.8852 22.3999 38.0016 22.3999L17.0016 22.3999C16.1179 22.3999 15.4016 23.1162 15.4016 23.9999C15.4016 24.8836 16.1179 25.5999 17.0016 25.5999L38.0016 25.5999C38.8852 25.5999 39.6016 24.8836 39.6016 23.9999Z" fill="#333333"/>
<path fill-rule="evenodd" clip-rule="evenodd" d="M39.6016 33.9999C39.6016 33.1162 38.8852 32.3999 38.0016 32.3999H26.0016C25.1179 32.3999 24.4016 33.1162 24.4016 33.9999C24.4016 34.8836 25.1179 35.5999 26.0016 35.5999H38.0016C38.8852 35.5999 39.6016 34.8836 39.6016 33.9999Z" fill="#333333"/>
</svg>
