<svg width="48" height="48" viewBox="0 0 48 48" fill="none" xmlns="http://www.w3.org/2000/svg">
<path fill-rule="evenodd" clip-rule="evenodd" d="M15.4973 11.6004C13.3433 11.6004 11.5973 13.3465 11.5973 15.5004C11.5973 17.6543 13.3433 19.4004 15.4973 19.4004C17.6512 19.4004 19.3973 17.6543 19.3973 15.5004C19.3973 13.3465 17.6512 11.6004 15.4973 11.6004ZM8.39726 15.5004C8.39726 11.5792 11.576 8.40039 15.4973 8.40039C19.4185 8.40039 22.5973 11.5792 22.5973 15.5004C22.5973 19.4216 19.4185 22.6004 15.4973 22.6004C11.576 22.6004 8.39726 19.4216 8.39726 15.5004Z" fill="#333333"/>
<path fill-rule="evenodd" clip-rule="evenodd" d="M25.3973 12.0004C25.3973 10.0122 27.009 8.40039 28.9973 8.40039H35.9973C37.9855 8.40039 39.5973 10.0122 39.5973 12.0004V19.0004C39.5973 20.9886 37.9855 22.6004 35.9973 22.6004H28.9973C27.009 22.6004 25.3973 20.9886 25.3973 19.0004V12.0004ZM28.9973 11.6004C28.7763 11.6004 28.5973 11.7795 28.5973 12.0004V19.0004C28.5973 19.2213 28.7763 19.4004 28.9973 19.4004H35.9973C36.2182 19.4004 36.3973 19.2213 36.3973 19.0004V12.0004C36.3973 11.7795 36.2182 11.6004 35.9973 11.6004H28.9973Z" fill="#333333"/>
<path fill-rule="evenodd" clip-rule="evenodd" d="M25.3973 29.0004C25.3973 29.884 26.1136 30.6004 26.9973 30.6004H37.9973C38.8809 30.6004 39.5973 29.884 39.5973 29.0004C39.5973 28.1167 38.8809 27.4004 37.9973 27.4004H26.9973C26.1136 27.4004 25.3973 28.1167 25.3973 29.0004Z" fill="#333333"/>
<path fill-rule="evenodd" clip-rule="evenodd" d="M25.3973 36.0004C25.3973 36.884 26.1136 37.6004 26.9973 37.6004H32.9973C33.8809 37.6004 34.5973 36.884 34.5973 36.0004C34.5973 35.1167 33.8809 34.4004 32.9973 34.4004H26.9973C26.1136 34.4004 25.3973 35.1167 25.3973 36.0004Z" fill="#333333"/>
<path fill-rule="evenodd" clip-rule="evenodd" d="M13.254 26.855C14.2428 25.0423 16.8482 25.0499 17.8263 26.8684L22.6137 35.7688C23.5454 37.5009 22.2907 39.6004 20.3239 39.6004H10.6818C8.70825 39.6004 7.45423 37.4879 8.39927 35.7554L13.254 26.855ZM15.5329 29.3598L11.6925 36.4004H19.3199L15.5329 29.3598Z" fill="#333333"/>
</svg>
