<svg width="48" height="48" viewBox="0 0 48 48" fill="none" xmlns="http://www.w3.org/2000/svg">
<path d="M12.8441 5.86902C12.2193 5.24418 11.2062 5.24418 10.5814 5.86902L4.86707 11.5833C4.24223 12.2081 4.24223 13.2212 4.86707 13.846L10.5814 19.5603C11.2062 20.1852 12.2193 20.1852 12.8441 19.5603C13.4689 18.9355 13.4689 17.9224 12.8441 17.2976L9.86118 14.3147H16.9979C17.8815 14.3147 18.5979 13.5983 18.5979 12.7147C18.5979 11.831 17.8815 11.1147 16.9979 11.1147H9.86118L12.8441 8.13176C13.4689 7.50692 13.4689 6.49386 12.8441 5.86902Z" fill="#333333"/>
<path d="M23.6423 15.6004C22.9 15.6004 22.2895 16.1852 22.2575 16.9268L21.6422 31.2154C21.5682 32.9333 19.5952 33.861 18.225 32.8221L14.7937 30.2205C14.302 29.8477 13.6082 29.9055 13.1851 30.3548C12.7974 30.7663 12.7472 31.3917 13.0642 31.8598L19.3228 41.1033C19.8183 41.835 19.6267 42.8298 18.895 43.3253C18.1633 43.8207 17.1685 43.6292 16.6731 42.8974L10.4144 33.654C9.2575 31.9453 9.4409 29.6627 10.8558 28.1606C12.4002 26.5211 14.9323 26.3097 16.7271 27.6706L18.5329 29.0398L19.0605 16.7891C19.1662 14.3353 21.1862 12.4004 23.6423 12.4004H24.2569C26.6379 12.4004 28.6229 14.2225 28.8262 16.5948L29.3651 22.8817C29.4415 23.7729 30.1591 24.4736 31.0519 24.5288L31.8372 24.5773C36.9358 24.8921 40.2662 30.0618 38.445 34.8345L35.4928 42.5708C35.1778 43.3964 34.2531 43.8103 33.4275 43.4953C32.6019 43.1802 32.1881 42.2556 32.5031 41.43L35.4552 33.6936C36.5068 30.9379 34.5839 27.953 31.6399 27.7712L30.8547 27.7227C28.3789 27.5698 26.3886 25.6264 26.1768 23.155L25.6379 16.868C25.5764 16.1511 24.9765 15.6004 24.2569 15.6004H23.6423Z" fill="#333333"/>
<path d="M37.13 5.86902C36.5052 5.24418 35.4921 5.24418 34.8673 5.86902C34.2425 6.49386 34.2425 7.50692 34.8673 8.13176L37.8502 11.1147H30.9987C30.115 11.1147 29.3987 11.831 29.3987 12.7147C29.3987 13.5983 30.115 14.3147 30.9987 14.3147H37.8502L34.8673 17.2976C34.2425 17.9224 34.2425 18.9355 34.8673 19.5603C35.4921 20.1852 36.5052 20.1852 37.13 19.5603L42.8443 13.846C43.4692 13.2212 43.4692 12.2081 42.8443 11.5833L37.13 5.86902Z" fill="#333333"/>
</svg>
