<svg width="48" height="48" viewBox="0 0 48 48" fill="none" xmlns="http://www.w3.org/2000/svg">
<path fill-rule="evenodd" clip-rule="evenodd" d="M41.6016 18.0004C41.6016 12.6985 37.3035 8.40039 32.0016 8.40039C28.661 8.40039 25.7209 10.1059 24.0016 12.6926C22.2822 10.1059 19.3422 8.40039 16.0016 8.40039C10.6996 8.40039 6.40157 12.6985 6.40157 18.0004C6.40157 21.0968 6.82284 24.3157 8.88703 27.9177C10.9232 31.4708 14.49 35.279 20.5506 39.734L20.5717 39.7495L22.0458 40.7961C23.217 41.6279 24.7861 41.6279 25.9573 40.7961L27.4527 39.7342C33.5132 35.2792 37.0799 31.4708 39.1161 27.9177C41.1803 24.3157 41.6016 21.0968 41.6016 18.0004ZM32.0016 11.6004C35.5362 11.6004 38.4016 14.4658 38.4016 18.0004C38.4016 20.7406 38.0407 23.3583 36.3397 26.3266C34.6117 29.342 31.4329 32.8352 25.5678 37.1479L24.1045 38.1871C24.0429 38.2309 23.9603 38.2309 23.8986 38.1871L22.4353 37.1479C16.5702 32.8352 13.3915 29.342 11.6634 26.3266C9.96241 23.3583 9.60156 20.7406 9.60156 18.0004C9.60156 14.4658 12.4669 11.6004 16.0016 11.6004C18.9899 11.6004 21.5036 13.6501 22.206 16.4225C22.4079 17.2197 23.1277 17.8226 24.0016 17.8226C24.8755 17.8226 25.5952 17.2197 25.7971 16.4225C26.4995 13.6501 29.0132 11.6004 32.0016 11.6004Z" fill="#333333"/>
</svg>
