<svg width="48" height="48" viewBox="0 0 48 48" fill="none" xmlns="http://www.w3.org/2000/svg">
<path d="M9.39844 8.00039C9.39844 7.11674 10.1148 6.40039 10.9984 6.40039H13.9984C14.8821 6.40039 15.5984 7.11674 15.5984 8.00039C15.5984 8.88405 14.8821 9.60039 13.9984 9.60039H12.5984V38.4004H13.9984C14.8821 38.4004 15.5984 39.1167 15.5984 40.0004C15.5984 40.884 14.8821 41.6004 13.9984 41.6004H10.9984C10.1148 41.6004 9.39844 40.884 9.39844 40.0004V8.00039Z" fill="#333333"/>
<path d="M18.3984 8.00039C18.3984 7.11674 19.1148 6.40039 19.9984 6.40039H22.9984C23.8821 6.40039 24.5984 7.11674 24.5984 8.00039C24.5984 8.88405 23.8821 9.60039 22.9984 9.60039H21.5984V38.4004H22.9984C23.8821 38.4004 24.5984 39.1167 24.5984 40.0004C24.5984 40.884 23.8821 41.6004 22.9984 41.6004H19.9984C19.1148 41.6004 18.3984 40.884 18.3984 40.0004V8.00039Z" fill="#333333"/>
<path fill-rule="evenodd" clip-rule="evenodd" d="M33.0629 12.8924C30.6769 11.2222 27.3984 12.9291 27.3984 15.8416V38.0003C27.3984 39.9885 29.0102 41.6003 30.9984 41.6003L36.9984 41.6003C38.9867 41.6003 40.5984 39.9885 40.5984 38.0003V20.0416C40.5984 18.8669 40.0253 17.766 39.0629 17.0924L33.0629 12.8924ZM30.5984 15.8416C30.5984 15.518 30.9627 15.3283 31.2278 15.5139L37.2278 19.7139C37.3348 19.7888 37.3984 19.9111 37.3984 20.0416V38.0003C37.3984 38.2212 37.2194 38.4003 36.9984 38.4003L30.9984 38.4003C30.7775 38.4003 30.5984 38.2212 30.5984 38.0003V15.8416Z" fill="#333333"/>
</svg>
