<svg width="48" height="48" viewBox="0 0 48 48" fill="none" xmlns="http://www.w3.org/2000/svg">
<path d="M39.7639 14C39.7639 12.6745 38.689 11.5996 37.3635 11.5996H19.2033C18.5029 11.5996 17.837 11.9058 17.3811 12.4375L8.80879 22.4375C8.03846 23.3363 8.03846 24.6637 8.80879 25.5625L17.3811 35.5625C17.837 36.0942 18.5029 36.4004 19.2033 36.4004H37.3635C38.689 36.4004 39.7639 35.3255 39.7639 34V14ZM42.9631 34C42.9631 37.0928 40.4563 39.5996 37.3635 39.5996H19.2033C17.5686 39.5996 16.0153 38.8857 14.9514 37.6445L6.3791 27.6445C4.58197 25.5475 4.58197 22.4525 6.3791 20.3555L14.9514 10.3555C16.0153 9.11428 17.5686 8.40039 19.2033 8.40039H37.3635C40.4563 8.40039 42.9631 10.9072 42.9631 14V34Z" fill="#333333"/>
<path d="M32.2336 16.8694C32.8585 16.2449 33.8706 16.2446 34.4953 16.8694C35.1196 17.4942 35.1197 18.5064 34.4953 19.1311L29.6262 24.0002L34.4953 28.8694C35.1198 29.4942 35.1199 30.5064 34.4953 31.1311C33.8706 31.7558 32.8585 31.7556 32.2336 31.1311L27.3645 26.262L22.4953 31.1311C21.8706 31.7558 20.8585 31.7555 20.2336 31.1311C19.6088 30.5063 19.6088 29.4942 20.2336 28.8694L25.1028 24.0002L20.2336 19.1311C19.6088 18.5063 19.6088 17.4942 20.2336 16.8694C20.8585 16.2447 21.8706 16.2446 22.4953 16.8694L27.3645 21.7385L32.2336 16.8694Z" fill="#333333"/>
</svg>
