<svg width="48" height="48" viewBox="0 0 48 48" fill="none" xmlns="http://www.w3.org/2000/svg">
<path d="M23.9977 15.4004C24.8813 15.4004 25.5977 16.1167 25.5977 17.0004V26.0004C25.5977 26.884 24.8813 27.6004 23.9977 27.6004C23.114 27.6004 22.3977 26.884 22.3977 26.0004V17.0004C22.3977 16.1167 23.114 15.4004 23.9977 15.4004Z" fill="#333333"/>
<path d="M21.998 32C21.998 33.1 22.898 34 23.998 34C25.098 34 25.998 33.1 25.998 32C25.998 30.9 25.098 30 23.998 30C22.898 30 21.998 30.9 21.998 32Z" fill="#333333"/>
<path fill-rule="evenodd" clip-rule="evenodd" d="M20.8604 8.31455C22.2367 5.8678 25.7594 5.86781 27.1357 8.31455L41.716 34.2351C43.0659 36.6349 41.3317 39.6 38.5784 39.6H9.41774C6.66436 39.6 4.9302 36.6349 6.28007 34.2351L20.8604 8.31455ZM24.3467 9.88339C24.1938 9.61152 23.8023 9.61153 23.6494 9.88339L9.06911 35.8039C8.91912 36.0706 9.11181 36.4 9.41774 36.4H38.5784C38.8843 36.4 39.077 36.0706 38.927 35.8039L24.3467 9.88339Z" fill="#333333"/>
</svg>
