<svg width="48" height="48" viewBox="0 0 48 48" fill="none" xmlns="http://www.w3.org/2000/svg">
<path fill-rule="evenodd" clip-rule="evenodd" d="M34.2812 24.0039C34.5203 24.0105 34.7576 24.0257 34.9922 24.0488C35.5366 24.1025 36.0688 24.2004 36.584 24.3379C40.8535 25.4775 44 29.3713 44 34C44 34.9746 43.8596 35.918 43.5996 36.8086C43.1223 38.4423 42.2387 39.9031 41.0664 41.0742L40.5469 41.5586L40.2109 41.8359C38.505 43.19 36.3471 43.9998 34 44C28.4772 44 24 39.5229 24 34C24 28.4772 28.4772 24 34 24C34.0941 24 34.1878 24.0013 34.2812 24.0039ZM34 37.6992C32.9003 37.6992 32.0004 38.5996 32 39.6992C32 40.7992 32.9 41.6992 34 41.6992C35.0996 41.6987 36 40.7989 36 39.6992C35.9996 38.5999 35.0993 37.6998 34 37.6992ZM34 26C33.0614 26 32.2992 26.7607 32.2988 27.6992V33.6992C32.2988 34.6381 33.0611 35.4004 34 35.4004C34.9384 35.3999 35.6992 34.6378 35.6992 33.6992V27.6992C35.6988 26.761 34.9382 26.0005 34 26Z" fill="#333333"/>
<path fill-rule="evenodd" clip-rule="evenodd" d="M30 6.40039C31.9879 6.40071 33.5996 8.01198 33.5996 10V16C33.5996 17.988 31.988 19.5993 30 19.5996H25.5996V22.4004H29.0723C27.3557 23.1305 25.8335 24.2298 24.6074 25.5996H14.5996V30.4004H18L18.3008 30.4121C18.3119 30.413 18.3229 30.415 18.334 30.416L18.3672 30.418C18.402 30.4215 18.4362 30.4291 18.4707 30.4336C18.531 30.4415 18.5911 30.4482 18.6504 30.459C18.6898 30.4662 18.7286 30.4759 18.7676 30.4844C18.8387 30.4999 18.909 30.5175 18.9785 30.5371C19.0079 30.5454 19.0373 30.5535 19.0664 30.5625C19.1284 30.5817 19.1895 30.6026 19.25 30.625C19.2978 30.6427 19.3457 30.66 19.3926 30.6797C19.4416 30.7003 19.4893 30.7234 19.5371 30.7461C19.5777 30.7653 19.6185 30.784 19.6582 30.8047C19.7794 30.8678 19.8951 30.9397 20.0078 31.0156C20.1003 31.078 20.1893 31.1444 20.2754 31.2148C20.3194 31.2509 20.364 31.2862 20.4062 31.3242C20.4384 31.3532 20.4689 31.3839 20.5 31.4141C20.5391 31.4519 20.5779 31.4898 20.6152 31.5293C20.6513 31.5675 20.6863 31.6067 20.7207 31.6465C20.7561 31.6874 20.7906 31.729 20.8242 31.7715C20.8481 31.8017 20.8716 31.8322 20.8945 31.8633C20.9421 31.9276 20.988 31.9931 21.0312 32.0605C21.0417 32.0768 21.0523 32.0929 21.0625 32.1094C21.2228 32.3686 21.3525 32.6498 21.4434 32.9473L21.4414 32.9512C21.5424 33.2833 21.5996 33.6349 21.5996 34V38C21.5996 38.6986 21.3971 39.3484 21.0527 39.9004C21.0099 39.9691 20.9652 40.0361 20.918 40.1016C20.5343 40.6333 20.0121 41.0579 19.4004 41.3164C19.0773 41.4531 18.7304 41.5452 18.3672 41.582L18 41.5996H8L7.63086 41.582C5.81573 41.3975 4.39844 39.8638 4.39844 38V34C4.39845 32.0118 6.01178 30.4004 8 30.4004H11.4004V24.5918C11.4008 23.3813 12.3812 22.4005 13.5918 22.4004H22.4004V19.5996H18C16.0118 19.5996 14.4004 17.9882 14.4004 16V10C14.4004 8.01179 16.0118 6.40039 18 6.40039H30ZM8 33.5996C7.77909 33.5996 7.59961 33.7791 7.59961 34V38C7.59961 38.2209 7.77909 38.4004 8 38.4004H18C18.2206 38.4001 18.4004 38.2207 18.4004 38V34C18.4004 33.9623 18.3906 33.9272 18.3809 33.8926C18.3496 33.7815 18.274 33.6919 18.1719 33.6426C18.1425 33.6284 18.1129 33.6141 18.0801 33.6074L18 33.5996H8ZM18 9.59961C17.7791 9.59961 17.5996 9.7791 17.5996 10V16C17.5996 16.2209 17.7791 16.4004 18 16.4004H30C30.2206 16.4001 30.4004 16.2207 30.4004 16V10C30.4004 9.77929 30.2206 9.59993 30 9.59961H18Z" fill="#333333"/>
</svg>
