<svg width="48" height="48" viewBox="0 0 48 48" fill="none" xmlns="http://www.w3.org/2000/svg">
<path d="M29.9998 21.43C30.8833 21.4301 31.5993 22.1461 31.5994 23.0297V36.139L35.3533 32.3832C35.9781 31.7585 36.9922 31.7584 37.617 32.3832C38.2417 33.0079 38.2416 34.022 37.617 34.6468L31.1306 41.1312C30.5058 41.756 29.4938 41.756 28.8689 41.1312L22.3826 34.6468C21.758 34.022 21.7578 33.0079 22.3826 32.3832C23.0071 31.7587 24.0194 31.7594 24.6443 32.3832L28.4002 36.139V23.0297C28.4003 22.1461 29.1162 21.43 29.9998 21.43Z" fill="#333333"/>
<path d="M16.8689 6.86949C17.4938 6.24468 18.5058 6.24467 19.1306 6.86949L25.617 13.3539C26.2414 13.9787 26.2416 14.9928 25.617 15.6175C24.9922 16.2423 23.9782 16.242 23.3533 15.6175L19.5994 11.8617V24.9711C19.5992 25.8544 18.8831 26.5705 17.9998 26.5707C17.1163 26.5707 16.4004 25.8545 16.4002 24.9711V11.8617L12.6443 15.6175C12.0195 16.2413 11.0071 16.2417 10.3826 15.6175C9.75782 14.9928 9.75796 13.9787 10.3826 13.3539L16.8689 6.86949Z" fill="#333333"/>
</svg>
