<svg width="48" height="48" viewBox="0 0 48 48" fill="none" xmlns="http://www.w3.org/2000/svg">
<path d="M21.827 20.3158C21.827 18.8161 23.0427 17.6004 24.5423 17.6004C26.042 17.6004 27.2577 18.8161 27.2577 20.3158C27.2577 21.1003 26.9271 21.8051 26.3929 22.3029C26.3162 22.3744 26.2355 22.449 26.1516 22.5265L26.1494 22.5285C25.5732 23.0608 24.8496 23.7293 24.2679 24.4644C23.5876 25.3244 22.9423 26.4639 22.9423 27.8677V28.7111C22.9423 29.5947 23.6587 30.3111 24.5423 30.3111C25.426 30.3111 26.1423 29.5947 26.1423 28.7111V27.8677C26.1423 27.484 26.314 27.0357 26.7774 26.45C27.1924 25.9255 27.7138 25.4422 28.3062 24.8931C28.3941 24.8116 28.4837 24.7287 28.5746 24.6439C29.7311 23.5661 30.4577 22.0246 30.4577 20.3158C30.4577 17.0488 27.8093 14.4004 24.5423 14.4004C21.2754 14.4004 18.627 17.0488 18.627 20.3158C18.627 21.1994 19.3433 21.9158 20.227 21.9158C21.1106 21.9158 21.827 21.1994 21.827 20.3158Z" fill="#333333"/>
<path d="M22.5977 34C22.5977 35.1 23.4977 36 24.5977 36C25.6977 36 26.5977 35.1 26.5977 34C26.5977 32.9 25.6977 32 24.5977 32C23.4977 32 22.5977 32.9 22.5977 34Z" fill="#333333"/>
<path fill-rule="evenodd" clip-rule="evenodd" d="M13.9984 4.40039C10.9056 4.40039 8.39844 6.9076 8.39844 10.0004V38.0004C8.39844 41.0932 10.9056 43.6004 13.9984 43.6004H33.9984C37.0912 43.6004 39.5984 41.0932 39.5984 38.0004V17.4146C39.5984 16.725 39.3245 16.0637 38.8369 15.5761L28.4227 5.16191C27.9351 4.67432 27.2738 4.40039 26.5842 4.40039H13.9984ZM11.5984 10.0004C11.5984 8.67491 12.673 7.60039 13.9984 7.60039H26.3357L36.3984 17.6631V38.0004C36.3984 39.3259 35.3239 40.4004 33.9984 40.4004H13.9984C12.673 40.4004 11.5984 39.3259 11.5984 38.0004V10.0004Z" fill="#333333"/>
</svg>
