<svg width="48" height="48" viewBox="0 0 48 48" fill="none" xmlns="http://www.w3.org/2000/svg">
<path fill-rule="evenodd" clip-rule="evenodd" d="M13.998 6.40039C14.8817 6.40039 15.5977 7.11634 15.5977 8V12.4004H29.998C33.0908 12.4004 35.5977 14.9072 35.5977 18V32.4004H39.998C40.8817 32.4004 41.5977 33.1163 41.5977 34C41.5977 34.8837 40.8817 35.5996 39.998 35.5996H35.5977V40C35.5977 40.8837 34.8817 41.5996 33.998 41.5996C33.1144 41.5996 32.3984 40.8837 32.3984 40V35.5996H17.998C14.9053 35.5996 12.3984 33.0928 12.3984 30V15.5996H7.99805C7.11439 15.5996 6.39844 14.8837 6.39844 14C6.39844 13.1163 7.11439 12.4004 7.99805 12.4004H12.3984V8C12.3984 7.11634 13.1144 6.40039 13.998 6.40039ZM15.5977 30C15.5977 31.3255 16.6726 32.4004 17.998 32.4004H32.3984V18C32.3984 16.6745 31.3235 15.5996 29.998 15.5996H15.5977V30Z" fill="#333333"/>
</svg>
