<svg width="48" height="48" viewBox="0 0 48 48" fill="none" xmlns="http://www.w3.org/2000/svg">
<path d="M26.1895 29.6094C25.6683 28.0459 27.1572 26.557 28.7207 27.0781L41.1484 31.2207C42.8929 31.8024 42.993 34.2326 41.3027 34.957L36.9746 36.8125C36.5026 37.0148 36.1261 37.3913 35.9238 37.8633L34.0684 42.1914C33.3439 43.8817 30.9136 43.7817 30.332 42.0371L26.1895 29.6094Z" fill="#333333"/>
<path d="M22.3008 6.40039C25.982 6.40058 29.0781 9.15959 29.502 12.8164C29.6033 13.6939 28.9752 14.4881 28.0977 14.5898C27.2199 14.6915 26.426 14.0613 26.3242 13.1836C26.0872 11.141 24.3571 9.59979 22.3008 9.59961H21.377C18.5684 9.60003 16.2914 11.877 16.291 14.6855V19.334H29.7461C33.3224 19.3341 36.2222 22.2324 36.2227 25.8086V26.207L32.9453 25.1133C32.6259 23.6387 31.3163 22.5333 29.7461 22.5332H12.4766C10.6675 22.5332 9.19972 23.9997 9.19922 25.8086V35.5234C9.19922 37.3328 10.6672 38.8008 12.4766 38.8008H25.8809L26.9473 42H12.4766C8.89988 42 6 39.1001 6 35.5234V25.8086C6.0005 22.2323 8.90019 19.334 12.4766 19.334H13.0918V14.6855C13.0922 10.1097 16.8011 6.40081 21.377 6.40039H22.3008Z" fill="#333333"/>
</svg>
