<svg width="48" height="48" viewBox="0 0 48 48" fill="none" xmlns="http://www.w3.org/2000/svg">
<path fill-rule="evenodd" clip-rule="evenodd" d="M11.5984 7.60039V36.4004H22.0645V39.3352C22.0645 39.424 22.0662 39.5124 22.0697 39.6004H10.8873C9.51275 39.6004 8.39844 38.4861 8.39844 37.1115V6.88928C8.39844 5.5147 9.51275 4.40039 10.8873 4.40039H25.9984C26.4228 4.40039 26.8298 4.56896 27.1298 4.86902L36.0187 13.7579C36.3188 14.058 36.4873 14.4649 36.4873 14.8893V18.3758C35.7348 18.1541 34.9383 18.0352 34.114 18.0352C33.835 18.0352 33.5593 18.0488 33.2873 18.0754V16.4893H26.8873C25.5128 16.4893 24.3984 15.375 24.3984 14.0004V7.60039H11.5984ZM27.5984 9.86313L31.0246 13.2893H27.5984V9.86313Z" fill="#333333"/>
<path fill-rule="evenodd" clip-rule="evenodd" d="M28.3303 29.3348H28.6641C26.4549 29.3348 24.6641 31.1256 24.6641 33.3348V39.3348C24.6641 41.5439 26.4549 43.3348 28.6641 43.3348H39.3307C41.5399 43.3348 43.3307 41.5439 43.3307 39.3348V33.3348C43.3307 31.1256 41.5399 29.3348 39.3307 29.3348H39.8969V26.4181C39.8969 23.2241 37.3077 20.6348 34.1136 20.6348C30.9196 20.6348 28.3303 23.2241 28.3303 26.4181V29.3348ZM34.1136 24.0348C32.7973 24.0348 31.7303 25.1018 31.7303 26.4181V29.3348H36.4969V26.4181C36.4969 25.1018 35.4299 24.0348 34.1136 24.0348Z" fill="#333333"/>
</svg>
