<svg width="48" height="48" viewBox="0 0 48 48" fill="none" xmlns="http://www.w3.org/2000/svg">
<path d="M10.4606 6.96193C11.0335 6.21875 12.1003 6.08038 12.8439 6.65279C13.5875 7.2252 13.7266 8.29186 13.1548 9.03588C10.8255 12.0664 9.52058 15.8412 9.5667 19.7915C9.57764 20.7285 8.82834 21.4976 7.8914 21.5112C6.95446 21.5247 6.18323 20.7776 6.16707 19.8407C6.08478 15.0704 7.69614 10.5477 10.4606 6.96193Z" fill="#333333"/>
<path fill-rule="evenodd" clip-rule="evenodd" d="M24.0003 6.29998C16.9877 6.29998 11.6336 12.6274 11.6336 20V27.267C11.6336 27.9028 11.3705 28.5102 10.9067 28.945L8.68242 31.0302C6.89676 32.7043 8.08142 35.7 10.5291 35.7H18.2986V36.0002C18.2986 39.1482 20.8506 41.7002 23.9986 41.7002C27.1466 41.7002 29.6986 39.1482 29.6986 36.0002V35.7H37.4715C39.9191 35.7 41.1038 32.7043 39.3181 31.0302L37.0939 28.945C36.6301 28.5102 36.3669 27.9028 36.3669 27.267V20C36.3669 12.6274 31.0129 6.29998 24.0003 6.29998ZM15.0336 20C15.0336 14.1177 19.2308 9.69998 24.0003 9.69998C28.7697 9.69998 32.9669 14.1177 32.9669 20V27.267C32.9669 28.8426 33.6191 30.3478 34.7685 31.4254L35.7013 32.3H12.2992L13.2321 31.4254C14.3815 30.3478 15.0336 28.8426 15.0336 27.267V20ZM26.2986 35.7H21.6986V36.0002C21.6986 37.2704 22.7284 38.3002 23.9986 38.3002C25.2689 38.3002 26.2986 37.2704 26.2986 36.0002V35.7Z" fill="#333333"/>
<path d="M34.8287 6.65279C35.5723 6.08038 36.6391 6.21875 37.2121 6.96193C39.9765 10.5477 41.5879 15.0704 41.5056 19.8407C41.4894 20.7776 40.7182 21.5247 39.7812 21.5112C38.8443 21.4976 38.095 20.7285 38.1059 19.7915C38.1521 15.8412 36.8472 12.0664 34.5179 9.03588C33.946 8.29186 34.0851 7.2252 34.8287 6.65279Z" fill="#333333"/>
</svg>
