<svg width="48" height="48" viewBox="0 0 48 48" fill="none" xmlns="http://www.w3.org/2000/svg">
<path fill-rule="evenodd" clip-rule="evenodd" d="M5.39844 33.9995C5.39844 35.9878 7.01021 37.5995 8.99844 37.5995H11.9984C13.9867 37.5995 15.5984 35.9878 15.5984 33.9995V19.9995C15.5984 18.0113 13.9867 16.3995 11.9984 16.3995H8.99844C7.01021 16.3995 5.39844 18.0113 5.39844 19.9995V33.9995ZM8.99844 34.3995C8.77752 34.3995 8.59844 34.2205 8.59844 33.9995V19.9995C8.59844 19.7786 8.77752 19.5995 8.99844 19.5995H11.9984C12.2194 19.5995 12.3984 19.7786 12.3984 19.9995V33.9995C12.3984 34.2205 12.2194 34.3995 11.9984 34.3995H8.99844Z" fill="#333333"/>
<path fill-rule="evenodd" clip-rule="evenodd" d="M26.3495 7.85382C25.76 7.68539 25.1295 7.92013 24.7937 8.43306L15.337 22.876L12.6598 21.1231L22.1165 6.68015C23.22 4.99481 25.2917 4.22353 27.2286 4.77695L28.5192 5.14569C31.6637 6.0441 33.3725 9.43445 32.2242 12.4965L31.3072 14.9419H34.4021C39.3113 14.9419 42.9325 19.5265 41.7955 24.3022L39.7021 33.0943C38.638 37.5635 34.0739 40.2541 29.6483 39.021L13.569 34.5408L14.4279 31.4583L30.5072 35.9384C33.1844 36.6843 35.9454 35.0567 36.5891 32.3531L38.6825 23.561C39.3408 20.7961 37.2443 18.1419 34.4021 18.1419H28.9984C28.4737 18.1419 27.9823 17.8845 27.6834 17.4532C27.3845 17.0219 27.3161 16.4714 27.5003 15.9801L29.228 11.3729C29.7201 10.0606 28.9878 8.6076 27.6401 8.22257L26.3495 7.85382Z" fill="#333333"/>
</svg>
