<svg width="48" height="48" viewBox="0 0 48 48" fill="none" xmlns="http://www.w3.org/2000/svg">
<path fill-rule="evenodd" clip-rule="evenodd" d="M19.5984 8.00039C19.5984 7.11673 18.8821 6.40039 17.9984 6.40039C17.1148 6.40039 16.3984 7.11673 16.3984 8.00039V10.4004H11.9984C8.90564 10.4004 6.39844 12.9076 6.39844 16.0004V36.0004C6.39844 39.0932 8.90564 41.6004 11.9984 41.6004H18.443C18.4721 40.8334 18.6801 40.052 19.098 39.3091L19.6092 38.4004H11.9984C10.673 38.4004 9.59844 37.3259 9.59844 36.0004V21.6004H38.3984V28.1991L41.5984 33.888V16.0004C41.5984 12.9076 39.0912 10.4004 35.9984 10.4004H31.5984V8.00039C31.5984 7.11673 30.8821 6.40039 29.9984 6.40039C29.1148 6.40039 28.3984 7.11673 28.3984 8.00039V10.4004H19.5984V8.00039ZM11.9984 13.6004H16.3984V15.0004C16.3984 15.884 17.1148 16.6004 17.9984 16.6004C18.8821 16.6004 19.5984 15.884 19.5984 15.0004V13.6004H28.3984V15.0004C28.3984 15.884 29.1148 16.6004 29.9984 16.6004C30.8821 16.6004 31.5984 15.884 31.5984 15.0004V13.6004H35.9984C37.3239 13.6004 38.3984 14.6749 38.3984 16.0004V18.4004H9.59844V16.0004C9.59844 14.6749 10.673 13.6004 11.9984 13.6004Z" fill="#333333"/>
<path d="M15.998 27C15.998 28.1 16.898 29 17.998 29C19.098 29 19.998 28.1 19.998 27C19.998 25.9 19.098 25 17.998 25C16.898 25 15.998 25.9 15.998 27Z" fill="#333333"/>
<path d="M15.998 33C15.998 34.1 16.898 35 17.998 35C19.098 35 19.998 34.1 19.998 33C19.998 31.9 19.098 31 17.998 31C16.898 31 15.998 31.9 15.998 33Z" fill="#333333"/>
<path fill-rule="evenodd" clip-rule="evenodd" d="M21.5969 40.7145L29.9525 25.8601C30.7953 24.3617 32.9525 24.3617 33.7954 25.8601L42.151 40.7145C42.9776 42.184 41.9156 43.9998 40.2295 43.9998H23.5183C21.8322 43.9998 20.7702 42.184 21.5969 40.7145ZM33.2988 30.0002C33.2988 29.2822 32.7168 28.7002 31.9988 28.7002C31.2809 28.7002 30.6988 29.2822 30.6988 30.0002V35.5002C30.6988 36.2182 31.2809 36.8002 31.9988 36.8002C32.7168 36.8002 33.2988 36.2182 33.2988 35.5002V30.0002ZM30.5977 39.3886C30.5977 40.183 31.2476 40.833 32.042 40.833C32.8365 40.833 33.4864 40.183 33.4864 39.3886C33.4864 38.5942 32.8365 37.9442 32.042 37.9442C31.2476 37.9442 30.5977 38.5942 30.5977 39.3886Z" fill="#333333"/>
</svg>
