<svg width="48" height="48" viewBox="0 0 48 48" fill="none" xmlns="http://www.w3.org/2000/svg">
<path fill-rule="evenodd" clip-rule="evenodd" d="M20.4459 7.6998C17.9483 7.6998 15.9236 9.72447 15.9236 12.222C15.9236 14.7196 17.9483 16.7442 20.4459 16.7442C22.9434 16.7442 24.9681 14.7196 24.9681 12.222C24.9681 9.72447 22.9434 7.6998 20.4459 7.6998ZM12.5236 12.222C12.5236 7.8467 16.0705 4.2998 20.4459 4.2998C24.8212 4.2998 28.3681 7.8467 28.3681 12.222C28.3681 16.5973 24.8212 20.1442 20.4459 20.1442C16.0705 20.1442 12.5236 16.5973 12.5236 12.222Z" fill="#333333"/>
<path fill-rule="evenodd" clip-rule="evenodd" d="M26.9949 23.0473C25.0216 22.4209 22.7873 22.077 20.4457 22.077C16.7684 22.077 13.3555 22.9252 10.8029 24.3839C8.29845 25.815 6.30129 28.0512 6.30129 30.8881L6.30104 31.0916C6.29775 32.895 6.29313 35.4225 8.4732 37.2261C9.54449 38.1123 11.009 38.7148 12.9089 39.1054C14.8154 39.4975 17.2752 39.6992 20.4457 39.6992C21.0935 39.6992 21.7116 39.6908 22.3014 39.674C21.789 38.6195 21.415 37.4853 21.2029 36.295C20.9565 36.2978 20.7042 36.2992 20.4457 36.2992C17.394 36.2992 15.1872 36.1028 13.5937 35.7751C11.9936 35.4461 11.1248 35.007 10.6405 34.6064C9.79278 33.905 9.70129 33.0023 9.70129 30.8881C9.70129 29.798 10.4901 28.4786 12.4898 27.3359C14.4413 26.2208 17.2506 25.477 20.4457 25.477C21.6713 25.477 22.8401 25.5864 23.9255 25.7842C24.7959 24.7181 25.8321 23.7927 26.9949 23.0473Z" fill="#333333"/>
<path fill-rule="evenodd" clip-rule="evenodd" d="M44.001 33.9998C44.001 39.5227 39.5238 43.9998 34.001 43.9998C28.4781 43.9998 24.001 39.5227 24.001 33.9998C24.001 28.477 28.4781 23.9998 34.001 23.9998C39.5238 23.9998 44.001 28.477 44.001 33.9998ZM35.701 27.6998C35.701 26.7609 34.9399 25.9998 34.001 25.9998C33.0621 25.9998 32.301 26.7609 32.301 27.6998L32.301 33.6998C32.301 34.6387 33.0621 35.3998 34.001 35.3998C34.9399 35.3998 35.701 34.6387 35.701 33.6998V27.6998ZM34.001 41.6998C32.901 41.6998 32.001 40.7998 32.001 39.6998C32.001 38.5998 32.901 37.6998 34.001 37.6998C35.101 37.6998 36.001 38.5998 36.001 39.6998C36.001 40.7998 35.101 41.6998 34.001 41.6998Z" fill="#333333"/>
</svg>
