<svg width="48" height="48" viewBox="0 0 48 48" fill="none" xmlns="http://www.w3.org/2000/svg">
<path d="M15.1113 19.0791L13.4811 19.5649C9.84543 20.6484 7.2 24.0194 7.2 28C7.2 32.8601 11.1399 36.8 16 36.8C17.0343 36.8 18.0202 36.6229 18.9336 36.3001L19.115 36.236V39.5917C18.3695 39.7916 17.5953 39.9214 16.8 39.9738C16.5356 39.9912 16.2688 40 16 40C9.37258 40 4 34.6274 4 28C4 22.5655 7.61254 17.9748 12.5672 16.4982C14.1136 11.5692 18.6476 8 24 8C30.6202 8 35.9882 13.4601 36 20.2C40.5645 21.1266 44 25.1621 44 30C44 35.5228 39.5228 40 34 40H31.3333C31.5261 38.9029 31.1966 37.7348 30.3532 36.8914L30.2618 36.8H34C37.7555 36.8 40.8 33.7555 40.8 30C40.8 26.7139 38.4659 23.9658 35.3634 23.3361L33.4701 22.9518C33.3387 22.1853 33.1114 21.4515 32.801 20.7633L32.8 20.2056C32.7912 15.175 28.7998 11.2 24 11.2C20.1182 11.2 16.7704 13.7909 15.6205 17.4561L15.1113 19.0791Z" fill="#333333"/>
<path fill-rule="evenodd" clip-rule="evenodd" d="M19.1651 28.215C19.8096 29.1391 20.6881 29.8878 21.7146 30.3755V41.2425C21.7146 41.4888 21.8124 41.725 21.9866 41.8991L23.8155 43.728C24.189 44.1016 24.7986 44.0887 25.156 43.6996L28.5416 40.0144C28.8782 39.648 28.8662 39.0813 28.5144 38.7295L26.3578 36.5729L28.4871 34.4437C28.8498 34.081 28.8498 33.493 28.4871 33.1304L26.3578 31.0011V30.7319C29.043 29.9327 31.0011 27.4453 31.0011 24.5005C31.0011 20.9104 28.0907 18 24.5005 18C20.9104 18 18 20.9104 18 24.5005C18 24.8158 18.0224 25.1258 18.0658 25.4291C18.2124 26.4543 18.5983 27.4024 19.1651 28.215ZM24.5005 21.7146C25.5263 21.7146 26.3578 22.5461 26.3578 23.5719C26.3578 24.5976 25.5263 25.4292 24.5005 25.4292C23.4748 25.4292 22.6432 24.5976 22.6432 23.5719C22.6432 22.5461 23.4748 21.7146 24.5005 21.7146Z" fill="#333333"/>
</svg>
