<svg width="48" height="48" viewBox="0 0 48 48" fill="none" xmlns="http://www.w3.org/2000/svg">
<path fill-rule="evenodd" clip-rule="evenodd" d="M24.0008 16.4C19.8034 16.4 16.4008 19.8027 16.4008 24C16.4008 28.1974 19.8034 31.6 24.0008 31.6C28.1981 31.6 31.6008 28.1974 31.6008 24C31.6008 19.8027 28.1981 16.4 24.0008 16.4ZM19.6008 24C19.6008 21.57 21.5707 19.6 24.0008 19.6C26.4308 19.6 28.4008 21.57 28.4008 24C28.4008 26.4301 26.4308 28.4 24.0008 28.4C21.5707 28.4 19.6008 26.4301 19.6008 24Z" fill="#333333"/>
<path fill-rule="evenodd" clip-rule="evenodd" d="M42.6974 21.9877C43.541 23.1991 43.541 24.8009 42.6974 26.0123C35.7951 35.9233 20.759 47.0385 5.5156 26.1789C4.56772 24.8818 4.56772 23.1182 5.5156 21.8211C20.759 0.961481 35.7951 12.0767 42.6974 21.9877ZM40.0715 24.1835C36.8183 28.8547 31.9361 33.3449 26.5586 34.5068C21.6378 35.5699 15.2276 34.0455 8.09926 24.2909C7.97316 24.1183 7.97316 23.8817 8.09926 23.7091C15.2276 13.9545 21.6378 12.4301 26.5586 13.4932C31.9361 14.6551 36.8183 19.1453 40.0715 23.8165C40.1497 23.9288 40.1497 24.0712 40.0715 24.1835Z" fill="#333333"/>
</svg>
