<svg width="48" height="48" viewBox="0 0 48 48" fill="none" xmlns="http://www.w3.org/2000/svg">
<path d="M19.1298 25.4288C18.505 24.8039 17.4919 24.8039 16.8671 25.4288C16.2422 26.0536 16.2422 27.0667 16.8671 27.6915L21.3065 32.131C21.6066 32.431 22.0135 32.5996 22.4379 32.5996C22.8622 32.5996 23.2692 32.431 23.5693 32.131L33.1298 22.5704C33.7546 21.9456 33.7546 20.9325 33.1298 20.3077C32.505 19.6829 31.4919 19.6829 30.8671 20.3077L22.4379 28.7369L19.1298 25.4288Z" fill="#333333"/>
<path fill-rule="evenodd" clip-rule="evenodd" d="M23.9974 44.0003C14.9196 41.6997 8.16406 32.2237 8.16406 22.0903V15.8635C8.16406 14.303 9.07161 12.8849 10.4887 12.2313L22.322 6.77305C23.3851 6.28268 24.6097 6.28268 25.6728 6.77305L37.5061 12.2313C38.9232 12.8849 39.8307 14.303 39.8307 15.8635V22.0903C39.8307 32.2237 33.0752 41.6997 23.9974 44.0003ZM11.3641 22.0903C11.3641 30.6527 16.9034 38.4365 23.9974 40.6748C31.0913 38.4365 36.6307 30.6527 36.6307 22.0903V15.8635C36.6307 15.5514 36.4492 15.2678 36.1658 15.1371L24.3325 9.67883C24.1199 9.58075 23.8749 9.58075 23.6623 9.67883L11.829 15.1371C11.5456 15.2678 11.3641 15.5514 11.3641 15.8635V22.0903Z" fill="#333333"/>
</svg>
