<svg width="48" height="48" viewBox="0 0 48 48" fill="none" xmlns="http://www.w3.org/2000/svg">
<path d="M9.99844 8.40039C6.90564 8.40039 4.39844 10.9076 4.39844 14.0004V34.0004C4.39844 37.0932 6.90564 39.6004 9.99844 39.6004H22.7082C22.2119 38.6017 21.8442 37.5278 21.6267 36.4004H9.99844C8.67295 36.4004 7.59844 35.3259 7.59844 34.0004V32.6004H21.4753C21.5988 31.4832 21.8684 30.41 22.2645 29.4004H7.59844V14.0004C7.59844 12.6749 8.67295 11.6004 9.99844 11.6004H37.9984C39.3239 11.6004 40.3984 12.6749 40.3984 14.0004V23.1445C41.6101 23.8604 42.6914 24.7733 43.5984 25.8391V14.0004C43.5984 10.9076 41.0912 8.40039 37.9984 8.40039H9.99844Z" fill="#333333"/>
<path fill-rule="evenodd" clip-rule="evenodd" d="M43.5984 31.192C43.8586 32.0829 43.998 33.0251 43.998 34C43.998 39.5228 39.5209 44 33.998 44C28.4752 44 23.998 39.5228 23.998 34C23.998 28.4772 28.4752 24 33.998 24C36.7542 24 39.2499 25.115 41.0587 26.9185C41.1689 27.0285 41.2766 27.1409 41.3817 27.2559M31.998 28.6C31.998 27.5 32.898 26.6 33.998 26.6C35.098 26.6 35.998 27.5 35.998 28.6C35.998 29.7 35.098 30.6 33.998 30.6C32.898 30.6 31.998 29.7 31.998 28.6ZM33.998 41.6998C34.9369 41.6998 35.698 40.9387 35.698 39.9998V33.9998C35.698 33.0609 34.9369 32.2998 33.998 32.2998C33.0592 32.2998 32.298 33.0609 32.298 33.9998L32.298 39.9998C32.298 40.9387 33.0592 41.6998 33.998 41.6998Z" fill="#333333"/>
</svg>
