<svg width="48" height="48" viewBox="0 0 48 48" fill="none" xmlns="http://www.w3.org/2000/svg">
<path fill-rule="evenodd" clip-rule="evenodd" d="M36.6004 7.00039C36.6004 6.45134 36.3189 5.94063 35.8546 5.6475C35.3903 5.35437 34.8082 5.31976 34.3125 5.55582L23.9931 10.47C22.043 11.3986 20.8008 13.366 20.8008 15.526V29.1207C19.7063 28.4117 18.4012 28 17 28C13.134 28 10 31.134 10 35C10 38.866 13.134 42 17 42C20.8467 42 23.9686 38.8973 23.9998 35.0579C24.0004 35.0388 24.0008 35.0197 24.0008 35.0004V21.0106L33.4081 16.5308C35.3582 15.6022 36.6004 13.6348 36.6004 11.4748V7.00039ZM32.0323 13.6417L24.0008 17.4663V15.526C24.0008 14.6003 24.5332 13.7571 25.3689 13.3591L33.4004 9.53448V11.4748C33.4004 12.4005 32.868 13.2437 32.0323 13.6417ZM20.8 35C20.8 37.0987 19.0987 38.8 17 38.8C14.9013 38.8 13.2 37.0987 13.2 35C13.2 32.9013 14.9013 31.2 17 31.2C19.0987 31.2 20.8 32.9013 20.8 35Z" fill="#333333"/>
</svg>
