<svg width="48" height="48" viewBox="0 0 48 48" fill="none" xmlns="http://www.w3.org/2000/svg">
<path d="M27.9961 18.502C28.8244 18.502 29.4959 19.1737 29.4961 20.002V23.502H32.9941C33.8225 23.502 34.494 24.1737 34.4941 25.002C34.4941 25.8304 33.8226 26.502 32.9941 26.502H29.4961V30.002C29.4957 30.83 28.8243 31.502 27.9961 31.502C27.1679 31.502 26.4965 30.83 26.4961 30.002V26.502H22.9961C22.1677 26.5019 21.4961 25.8304 21.4961 25.002C21.4963 24.1737 22.1678 23.502 22.9961 23.502H26.4961V20.002C26.4963 19.1737 27.1678 18.502 27.9961 18.502Z" fill="#333333"/>
<path fill-rule="evenodd" clip-rule="evenodd" d="M29.998 4.40039C30.4222 4.40039 30.8289 4.56933 31.1289 4.86914L41.1289 14.8691C41.4289 15.1691 41.5976 15.5758 41.5977 16V32C41.5977 35.0928 39.0908 37.5996 35.998 37.5996H32.5977V38C32.5977 41.0928 30.0908 43.5996 26.998 43.5996H11.998C8.90543 43.5994 6.39844 41.0927 6.39844 38V16C6.39865 12.9075 8.90556 10.4006 11.998 10.4004H14.3984V10C14.3986 6.90752 16.9056 4.4006 19.998 4.40039H29.998ZM11.998 13.5996C10.6729 13.5998 9.59787 14.6748 9.59766 16V38C9.59766 39.3254 10.6727 40.4002 11.998 40.4004H26.998C28.3235 40.4004 29.3984 39.3255 29.3984 38V37.5996H19.998C16.9054 37.5994 14.3984 35.0927 14.3984 32V13.5996H11.998ZM19.998 7.59961C18.6729 7.59982 17.5979 8.67483 17.5977 10V32C17.5977 33.3254 18.6727 34.4002 19.998 34.4004H35.998C37.3235 34.4004 38.3984 33.3255 38.3984 32V17.5996H30.998C29.5623 17.5994 28.3984 16.4358 28.3984 15V7.59961H19.998ZM31.5977 14.4004H36.1348L31.5977 9.86328V14.4004Z" fill="#333333"/>
</svg>
