<svg width="48" height="48" viewBox="0 0 48 48" fill="none" xmlns="http://www.w3.org/2000/svg">
<path fill-rule="evenodd" clip-rule="evenodd" d="M25.5988 34.4998V38.4012H33.9988C34.8825 38.4012 35.5988 39.1175 35.5988 40.0012C35.5988 40.8848 34.8825 41.6012 33.9988 41.6012H13.9988C13.1152 41.6012 12.3988 40.8848 12.3988 40.0012C12.3988 39.1175 13.1152 38.4012 13.9988 38.4012H22.3988V34.4998C17.4048 33.8669 13.3225 30.3108 11.9206 25.6004H10.1984C8.58188 25.6004 7.34453 24.5718 6.5908 23.3941C5.82379 22.1957 5.39844 20.6371 5.39844 19.0004C5.39844 17.3637 5.82379 15.8051 6.5908 14.6067C7.34453 13.4289 8.58188 12.4004 10.1984 12.4004H11.3988V10.0004C11.3988 8.01216 13.0106 6.40039 14.9988 6.40039H32.9988C34.9871 6.40039 36.5988 8.01216 36.5988 10.0004V12.4004H37.7984C39.415 12.4004 40.6523 13.4289 41.4061 14.6067C42.1731 15.8051 42.5984 17.3637 42.5984 19.0004C42.5984 20.6371 42.1731 22.1957 41.4061 23.3941C40.6523 24.5718 39.415 25.6004 37.7984 25.6004H36.077C34.6751 30.3108 30.5928 33.8669 25.5988 34.4998ZM11.3988 22.0004C11.3988 22.1342 11.4009 22.2676 11.4051 22.4004H10.1984C10.055 22.4004 9.69234 22.304 9.28607 21.6692C8.89309 21.0551 8.59844 20.1137 8.59844 19.0004C8.59844 17.8871 8.89309 16.9457 9.28607 16.3316C9.69234 15.6968 10.055 15.6004 10.1984 15.6004H11.3988V22.0004ZM36.5926 22.4004H37.7984C37.9419 22.4004 38.3045 22.304 38.7108 21.6692C39.1038 21.0551 39.3984 20.1137 39.3984 19.0004C39.3984 17.8871 39.1038 16.9457 38.7108 16.3316C38.3045 15.6968 37.9419 15.6004 37.7984 15.6004H36.5988V22.0004C36.5988 22.1342 36.5967 22.2676 36.5926 22.4004ZM23.9988 31.4004C18.8074 31.4004 14.5988 27.1919 14.5988 22.0004V10.0004C14.5988 9.77947 14.7779 9.60039 14.9988 9.60039H32.9988C33.2197 9.60039 33.3988 9.77947 33.3988 10.0004V22.0004C33.3988 27.1919 29.1903 31.4004 23.9988 31.4004Z" fill="#333333"/>
<path d="M28.5686 23.187C28.5686 23.9675 28.4478 24.654 28.2061 25.2466C27.9779 25.8392 27.6624 26.3451 27.2596 26.7642C26.8569 27.1689 26.3803 27.4724 25.8298 27.6748C25.2928 27.8916 24.7088 28 24.0778 28C22.9097 28 21.9095 27.682 21.0771 27.0461C20.5505 26.6346 20.1367 26.09 19.8358 25.4123C19.5206 24.7027 20.0075 23.9377 20.7562 23.7319L20.9421 23.6808C21.6599 23.4835 22.3489 23.9841 22.8292 24.5528C23.0977 24.8708 23.4669 25.0298 23.9368 25.0298C24.1919 25.0298 24.4134 24.972 24.6014 24.8564C24.7893 24.7407 24.9437 24.589 25.0645 24.4011C25.1988 24.2132 25.2928 24.0036 25.3465 23.7724C25.4136 23.5266 25.4472 23.2809 25.4472 23.0352C25.4472 22.3704 25.2659 21.879 24.9034 21.561C24.5544 21.243 24.0845 21.084 23.4937 21.084H23.3526C22.8003 21.084 22.3526 20.6363 22.3526 20.084V19.5257C22.3526 18.9735 22.8003 18.5257 23.3526 18.5257H23.5743C24.1113 18.5257 24.5208 18.3595 24.8027 18.0271C25.0981 17.6802 25.2458 17.2033 25.2458 16.5962C25.2458 16.206 25.1384 15.8374 24.9236 15.4905C24.7222 15.1436 24.3933 14.9702 23.9368 14.9702C23.5475 14.9702 23.2454 15.1075 23.0306 15.3821C22.6385 15.8833 22.0455 16.2887 21.4308 16.1245L21.1446 16.048C20.3905 15.8465 19.907 15.0628 20.2607 14.3669C20.3271 14.2363 20.3979 14.1122 20.473 13.9946C20.7818 13.5321 21.1241 13.1563 21.5 12.8672C21.8894 12.5637 22.3123 12.3469 22.7688 12.2168C23.2252 12.0723 23.6884 12 24.1583 12C24.6819 12 25.1854 12.0867 25.6687 12.2602C26.1654 12.4336 26.6085 12.6938 26.9978 13.0407C27.3872 13.3875 27.696 13.8211 27.9242 14.3415C28.1659 14.8618 28.2867 15.4688 28.2867 16.1626C28.2867 17.0587 28.1055 17.8175 27.743 18.439C27.3939 19.0461 26.924 19.4508 26.3333 19.6531V19.7182C27.018 19.9205 27.5617 20.3397 27.9645 20.9756C28.3673 21.6116 28.5686 22.3487 28.5686 23.187Z" fill="#333333"/>
</svg>
