<svg width="48" height="48" viewBox="0 0 48 48" fill="none" xmlns="http://www.w3.org/2000/svg">
<path fill-rule="evenodd" clip-rule="evenodd" d="M23.2498 4.58633C23.7309 4.33165 24.3084 4.33901 24.7829 4.60587L40.7829 13.6059C41.2867 13.8893 41.5984 14.4224 41.5984 15.0004V18.0004C41.5984 18.884 40.8821 19.6004 39.9984 19.6004H35.3462C34.6834 19.4604 33.9746 19.4604 33.0223 19.4604L33.0023 19.4004C31.9298 19.4004 31.1663 19.4004 30.4292 19.6004H6.99844C6.11478 19.6004 5.39844 18.884 5.39844 18.0004V15.0004C5.39844 14.4077 5.72604 13.8636 6.24982 13.5863L23.2498 4.58633ZM20.5984 33.3063V32.7034C20.5526 32.6523 20.5075 32.5984 20.4623 32.5404C19.6423 31.5204 19.2623 30.2004 19.4423 28.9004C19.5763 27.9817 19.9851 27.2827 20.5984 26.2427V24.0004V22.4004H17.3984V24.0004V34.4004H13.5984V24.0004V22.4004H10.3984V24.0004V34.4004H6.99844C6.11478 34.4004 5.39844 35.1167 5.39844 36.0004V42.0004C5.39844 42.884 6.11478 43.6004 6.99844 43.6004H27.2608C27.1634 43.358 27.0951 43.1292 27.0423 42.9004C26.7623 43.0004 26.4623 43.0804 26.1223 43.1204C25.9223 43.1604 25.7023 43.1604 25.5023 43.1604C24.4623 43.1604 23.4023 42.8204 22.5623 42.2004C21.9042 41.7397 21.5032 41.1842 21.0142 40.4004H8.59844V37.6004H11.9984H17.3984H19.5451C19.5016 37.4401 19.4672 37.2747 19.4423 37.1004C19.3623 36.4404 19.4023 35.8004 19.5823 35.1604C19.7423 34.5404 20.0423 33.9604 20.4623 33.4604C20.5075 33.4088 20.5526 33.3572 20.5984 33.3063ZM38.9623 42.9204C38.91 43.1299 38.8424 43.3699 38.7462 43.6004H40.9984C41.5774 43.6004 42.0846 43.2928 42.3655 42.8322C41.784 43.0586 41.1568 43.1804 40.5223 43.1804C40.3194 43.1804 40.1334 43.1634 39.9331 43.145H39.9331L39.8823 43.1404C39.5423 43.1004 39.2423 43.0204 38.9623 42.9204ZM8.59844 15.9637V16.4004H38.3984V15.9361L23.9752 7.82308L8.59844 15.9637ZM32.9981 22.0004C34.0853 22.0004 34.6295 22.0004 35.0579 22.1676C35.3404 22.2777 35.5972 22.4395 35.8137 22.6439C36.0303 22.8483 36.2023 23.0913 36.32 23.3589C36.4289 23.6042 36.4705 23.8902 36.4879 24.3082C36.4955 24.6101 36.584 24.9053 36.7451 25.1657C36.9062 25.4261 37.1345 25.6432 37.4084 25.7965C37.6879 25.9442 38.0021 26.0224 38.3219 26.024C38.6418 26.0255 38.9568 25.9503 39.2378 25.8053C39.6292 25.6095 39.9129 25.5017 40.1931 25.4665C40.8061 25.39 41.4261 25.5465 41.9183 25.9021C42.285 26.1683 42.5553 26.6091 43.0951 27.4897L43.1016 27.5004C43.6458 28.3881 43.9168 28.8325 43.9781 29.2659C44.0181 29.5526 43.9978 29.844 43.9185 30.1232C43.8392 30.4025 43.7025 30.664 43.5161 30.8928C43.3436 31.104 43.1016 31.2811 42.7265 31.5044C42.1753 31.83 41.821 32.3866 41.821 33.0004C41.821 33.6142 42.1753 34.1708 42.7276 34.4975C43.1016 34.7197 43.3436 34.8968 43.515 35.108C43.7015 35.3366 43.8385 35.5981 43.918 35.8774C43.9975 36.1566 44.0179 36.4481 43.9781 36.7349C43.9168 37.1694 43.6458 37.6127 43.1016 38.5004C42.5586 39.3881 42.2865 39.8325 41.9183 40.0987C41.4274 40.454 40.8067 40.6113 40.1931 40.5343C39.9129 40.4991 39.6292 40.3913 39.2378 40.1955C38.9569 40.0507 38.6421 39.9755 38.3225 39.9771C38.0029 39.9786 37.6889 40.0568 37.4096 40.2043C36.8457 40.5112 36.5111 41.0788 36.4879 41.6926C36.4705 42.1106 36.4289 42.3966 36.32 42.6419C36.0822 43.1822 35.6283 43.6107 35.0579 43.8332C34.6295 44.0004 34.0853 44.0004 32.9981 44.0004C31.9109 44.0004 31.3667 44.0004 30.9383 43.8332C30.3663 43.6099 29.9124 43.1809 29.6762 42.6419C29.5674 42.3966 29.5257 42.1106 29.5083 41.6926C29.484 41.0788 29.1505 40.5123 28.5878 40.2043C28.3083 40.0566 27.9941 39.9783 27.6743 39.9768C27.3545 39.9752 27.0394 40.0505 26.7584 40.1955C26.367 40.3913 26.0834 40.4991 25.8032 40.5343C25.1895 40.6102 24.5689 40.454 24.0779 40.0987C23.7112 39.8324 23.441 39.3916 22.9011 38.511L22.8946 38.5004C22.3504 37.6127 22.0795 37.1683 22.0181 36.7349C21.9782 36.4481 21.9984 36.1567 22.0777 35.8775C22.157 35.5982 22.2938 35.3367 22.4801 35.108C22.6526 34.8968 22.8946 34.7197 23.2697 34.4964C23.8209 34.1708 24.1752 33.6142 24.1752 33.0004C24.1752 32.3866 23.8209 31.83 23.2686 31.5033C22.8946 31.2811 22.6526 31.104 22.4812 30.8928C22.1038 30.4297 21.937 29.8445 22.0181 29.2659C22.0795 28.8314 22.3504 28.3881 22.8946 27.5004C23.4376 26.6127 23.7097 26.1683 24.0779 25.9021C24.5701 25.5465 25.1901 25.39 25.8032 25.4665C26.0834 25.5017 26.367 25.6095 26.7584 25.8053C27.0393 25.9501 27.3541 26.0252 27.6737 26.0237C27.9933 26.0221 28.3073 25.944 28.5867 25.7965C28.8608 25.6433 29.0894 25.4263 29.2506 25.1659C29.4119 24.9054 29.5006 24.6102 29.5083 24.3082C29.5257 23.8913 29.5674 23.6042 29.6762 23.3589C29.914 22.8185 30.368 22.39 30.9383 22.1676C31.3678 22.0004 31.9109 22.0004 32.9981 22.0004ZM36.4983 33.0004C36.4983 34.8231 34.9317 36.3004 32.9981 36.3004C31.0656 36.3004 29.4979 34.8231 29.4979 33.0004C29.4979 31.1777 31.0645 29.7004 32.9981 29.7004C34.9306 29.7004 36.4983 31.1777 36.4983 33.0004Z" fill="#333333"/>
</svg>
