<svg width="48" height="48" viewBox="0 0 48 48" fill="none" xmlns="http://www.w3.org/2000/svg">
<path fill-rule="evenodd" clip-rule="evenodd" d="M11.3984 10.0004C11.3984 6.9076 13.9056 4.40039 16.9984 4.40039H30.9984C34.0912 4.40039 36.5984 6.9076 36.5984 10.0004V38.0004C36.5984 41.0932 34.0912 43.6004 30.9984 43.6004H16.9984C13.9056 43.6004 11.3984 41.0932 11.3984 38.0004V10.0004ZM16.9984 7.60039C15.673 7.60039 14.5984 8.67491 14.5984 10.0004V38.0004C14.5984 39.3259 15.673 40.4004 16.9984 40.4004H30.9984C32.3239 40.4004 33.3984 39.3259 33.3984 38.0004V10.0004C33.3984 8.67491 32.3239 7.60039 30.9984 7.60039H16.9984Z" fill="#333333"/>
</svg>
