<svg width="48" height="48" viewBox="0 0 48 48" fill="none" xmlns="http://www.w3.org/2000/svg">
<path fill-rule="evenodd" clip-rule="evenodd" d="M20.4443 4.40039C16.1242 4.40039 12.6221 7.90252 12.6221 12.2226C12.6221 16.5427 16.1242 20.0448 20.4443 20.0448C24.7644 20.0448 28.2665 16.5427 28.2665 12.2226C28.2665 7.90252 24.7644 4.40039 20.4443 4.40039ZM15.8221 12.2226C15.8221 9.66983 17.8915 7.60039 20.4443 7.60039C22.9971 7.60039 25.0665 9.66983 25.0665 12.2226C25.0665 14.7754 22.9971 16.8448 20.4443 16.8448C17.8915 16.8448 15.8221 14.7754 15.8221 12.2226Z" fill="#333333"/>
<path d="M20.4433 22.1777C16.7802 22.1777 13.385 23.0229 10.8501 24.4715C8.3605 25.8942 6.39888 28.1033 6.39888 30.8888L6.39866 31.0855C6.39568 32.894 6.39158 35.3769 8.53454 37.1498C9.58856 38.0218 11.0356 38.6194 12.9266 39.0083C14.8239 39.3984 17.2763 39.6 20.4433 39.6C21.7051 39.6 22.8535 39.568 23.8985 39.5048C23.2755 38.5201 22.7466 37.469 22.3235 36.3726C21.7351 36.3906 21.1092 36.4 20.4433 36.4C17.3881 36.4 15.1739 36.2034 13.5712 35.8739C11.9622 35.543 11.0759 35.0991 10.5743 34.6842C9.68499 33.9484 9.59888 32.9942 9.59888 30.8888C9.59888 29.7474 10.4233 28.4011 12.4378 27.2499C14.4069 26.1246 17.234 25.3777 20.4433 25.3777C20.6755 25.3777 20.9058 25.3816 21.1338 25.3893V25.2212C21.1338 24.051 21.685 22.9673 22.5916 22.276C21.8892 22.2111 21.1716 22.1777 20.4433 22.1777Z" fill="#333333"/>
<path fill-rule="evenodd" clip-rule="evenodd" d="M33.7334 43.9019C28.0001 42.449 23.7334 36.4641 23.7334 30.0641V25.2208C23.7334 24.7903 23.9838 24.399 24.3748 24.2187L33.2711 20.1151C33.5645 19.9798 33.9023 19.9798 34.1957 20.1151L43.092 24.2187C43.483 24.399 43.7334 24.7903 43.7334 25.2208V30.0641C43.7334 36.4641 39.4667 42.449 33.7334 43.9019ZM28.0628 31.6712C28.6485 31.0854 29.5982 31.0853 30.1841 31.671L31.6906 33.1772L38.0724 26.7959C38.6582 26.2101 39.6079 26.2102 40.1937 26.796C40.7795 27.3818 40.7794 28.3315 40.1936 28.9173L32.7513 36.3591C32.1656 36.9448 31.2159 36.9448 30.6301 36.3592L28.063 33.7925C27.4771 33.2068 27.477 32.257 28.0628 31.6712Z" fill="#333333"/>
</svg>
