<svg width="48" height="48" viewBox="0 0 48 48" fill="none" xmlns="http://www.w3.org/2000/svg">
<path d="M41.808 19.5669C42.2086 19.8664 42.4487 20.3401 42.4488 20.8486L42.4502 27.2471C42.4501 28.9071 41.5552 30.4381 40.1092 31.2535L24.7863 39.8921C24.2985 40.1671 23.7024 40.1671 23.2146 39.8921L7.89169 31.2535C6.44578 30.4381 5.55079 28.9071 5.55078 27.2471L5.55216 20.8486C5.55224 20.2676 5.86602 19.7317 6.3739 19.4496L21.7687 10.9077C23.1567 10.1376 24.8442 10.1376 26.2323 10.9076L41.627 19.4496L41.808 19.5669ZM8.7521 23.5651V27.2471C8.75211 27.7522 9.02334 28.2184 9.46335 28.4665L22.4012 35.7586V31.1375L8.7521 23.5651ZM24.68 13.7057C24.2575 13.4713 23.7434 13.4713 23.321 13.7057L10.4494 20.8486L24.0005 28.3671L37.5515 20.8486L24.68 13.7057ZM25.5997 31.1375V35.7586L38.5376 28.4665C38.9776 28.2184 39.2488 27.7522 39.2488 27.2471V23.5651L25.5997 31.1375Z" fill="#333333"/>
</svg>
