<svg width="48" height="48" viewBox="0 0 48 48" fill="none" xmlns="http://www.w3.org/2000/svg">
<path fill-rule="evenodd" clip-rule="evenodd" d="M24.3175 7.60039C23.5155 7.60039 22.8589 8.23818 22.8356 9.03984L22.3993 24.0469C22.3737 24.9302 21.6368 25.6254 20.7535 25.5997C19.8702 25.574 19.175 24.8372 19.2007 23.9539L19.5486 11.9867C19.5706 11.2276 18.9613 10.6004 18.202 10.6004C17.4844 10.6004 16.8928 11.1629 16.8566 11.8796L16.0987 26.9061C15.9891 29.0776 13.2149 29.9107 11.9272 28.1588L9.96405 25.4881C9.52891 24.8961 8.63744 24.9177 8.23148 25.5301C8.01223 25.8608 7.99668 26.2864 8.19121 26.6323L12.9545 35.1004C14.7961 38.3743 18.2604 40.4004 22.0167 40.4004H27.4355C31.0266 40.4004 34.1807 38.5853 35.3552 35.5248C36.0193 33.7941 36.6649 31.7511 37.1156 29.5058C37.3283 28.4466 37.3941 27.3331 37.3839 26.1682L37.301 16.7408C37.2954 16.1093 36.782 15.6004 36.1505 15.6004C35.5151 15.6004 35 16.1155 35 16.7509V24.0004C35 24.884 34.2837 25.6004 33.4 25.6004C32.5164 25.6004 31.8 24.884 31.8 24.0004V13.0004C31.8 12.2272 31.1732 11.6004 30.4 11.6004C29.6268 11.6004 29 12.2272 29 13.0004V24.0004C29 24.884 28.2837 25.6004 27.4 25.6004C26.5164 25.6004 25.8 24.884 25.8 24.0004V9.08293C25.8 8.26414 25.1363 7.60039 24.3175 7.60039ZM28.9779 8.62445C28.7475 6.25353 26.7489 4.40039 24.3175 4.40039C22.2161 4.40039 20.4308 5.78665 19.8413 7.70468C19.3331 7.50823 18.7804 7.40039 18.202 7.40039C15.7797 7.40039 13.7827 9.29924 13.6607 11.7184L13.0284 24.2539L12.5424 23.5928C10.7898 21.2086 7.19939 21.2956 5.56434 23.7619C4.68131 25.0939 4.61868 26.8082 5.40217 28.2011L10.1655 36.6693C12.5739 40.9508 17.1043 43.6004 22.0167 43.6004H27.4355C32.0249 43.6004 36.5864 41.2481 38.3427 36.6712C39.0588 34.8053 39.7607 32.5881 40.253 30.1357C40.5242 28.7848 40.5951 27.4332 40.5837 26.14L40.5008 16.7126C40.4799 14.3249 38.5383 12.4004 36.1505 12.4004C35.7447 12.4004 35.3519 12.456 34.9792 12.5599C34.7575 10.226 32.7919 8.40039 30.4 8.40039C29.9037 8.40039 29.4257 8.479 28.9779 8.62445Z" fill="#333333"/>
</svg>
