<svg width="48" height="48" viewBox="0 0 48 48" fill="none" xmlns="http://www.w3.org/2000/svg">
<path d="M19.9984 18.6004C20.8821 18.6004 21.5984 17.884 21.5984 17.0004C21.5984 16.1167 20.8821 15.4004 19.9984 15.4004H14.9984C10.2488 15.4004 6.39844 19.2507 6.39844 24.0004C6.39844 28.75 10.2488 32.6004 14.9984 32.6004H19.9984C20.8821 32.6004 21.5984 31.884 21.5984 31.0004C21.5984 30.1167 20.8821 29.4004 19.9984 29.4004H14.9984C12.0161 29.4004 9.59844 26.9827 9.59844 24.0004C9.59844 21.0181 12.0161 18.6004 14.9984 18.6004L19.9984 18.6004Z" fill="#333333"/>
<path d="M26.3992 17.0004C26.3992 17.884 27.1156 18.6004 27.9992 18.6004L32.9992 18.6004C35.2986 18.6004 37.2623 20.0375 38.0411 22.0626C39.334 22.5002 40.5328 23.1419 41.5991 23.9494C41.5716 19.2232 37.7319 15.4004 32.9992 15.4004H27.9992C27.1156 15.4004 26.3992 16.1167 26.3992 17.0004Z" fill="#333333"/>
<path d="M17.2704 22.4011L29.0716 22.4004C27.355 23.1306 25.8336 24.2307 24.6075 25.6007L17.2706 25.6011C16.3869 25.6011 15.6706 24.8848 15.6705 24.0012C15.6705 23.1175 16.3868 22.4011 17.2704 22.4011Z" fill="#333333"/>
<path fill-rule="evenodd" clip-rule="evenodd" d="M33.999 44C39.5219 44 43.999 39.5228 43.999 34C43.999 28.4772 39.5219 24 33.999 24C28.4762 24 23.999 28.4772 23.999 34C23.999 39.5228 28.4762 44 33.999 44ZM35.4988 29C35.4988 28.1716 34.8272 27.5 33.9988 27.5C33.1704 27.5 32.4988 28.1716 32.4988 29V32.4998H28.999C28.1706 32.4998 27.499 33.1713 27.499 33.9998C27.499 34.8282 28.1706 35.4998 28.999 35.4998H32.4988V39C32.4988 39.8284 33.1704 40.5 33.9988 40.5C34.8272 40.5 35.4988 39.8284 35.4988 39V35.4998H38.999C39.8274 35.4998 40.499 34.8282 40.499 33.9998C40.499 33.1713 39.8274 32.4998 38.999 32.4998H35.4988V29Z" fill="#333333"/>
</svg>
