<svg width="48" height="48" viewBox="0 0 48 48" fill="none" xmlns="http://www.w3.org/2000/svg">
<path fill-rule="evenodd" clip-rule="evenodd" d="M23.9984 7.40039C24.6566 7.40039 25.2477 7.80346 25.488 8.41621L32.9492 27.4406L36.1284 36.4004H39.9984C40.8821 36.4004 41.5984 37.1167 41.5984 38.0004C41.5984 38.884 40.8821 39.6004 39.9984 39.6004H29.9984C29.1148 39.6004 28.3984 38.884 28.3984 38.0004C28.3984 37.1167 29.1148 36.4004 29.9984 36.4004H32.733L30.32 29.6004H17.6768L15.2639 36.4004H17.9984C18.8821 36.4004 19.5984 37.1167 19.5984 38.0004C19.5984 38.884 18.8821 39.6004 17.9984 39.6004H7.99844C7.11478 39.6004 6.39844 38.884 6.39844 38.0004C6.39844 37.1167 7.11478 36.4004 7.99844 36.4004H11.8684L15.0477 27.4406L22.5089 8.41621C22.7492 7.80346 23.3402 7.40039 23.9984 7.40039ZM18.893 26.4004H29.1039L23.9984 13.3826L18.893 26.4004Z" fill="#333333"/>
</svg>
