<svg width="48" height="48" viewBox="0 0 48 48" fill="none" xmlns="http://www.w3.org/2000/svg">
<path fill-rule="evenodd" clip-rule="evenodd" d="M35.6837 8.55269C36.4486 8.11105 37.4272 8.37216 37.8692 9.13667C38.3111 9.90194 38.0486 10.8804 37.2833 11.3222L26.9122 17.3085C28.0226 19.3681 28.6044 21.6738 28.6017 24.0175C28.5987 26.3491 28.0164 28.6407 26.9122 30.6894L37.2833 36.6777C38.0486 37.1195 38.3111 38.098 37.8692 38.8632C37.4272 39.6278 36.4487 39.8889 35.6837 39.4472L11.7482 25.6289C10.4954 24.9046 10.4954 23.0953 11.7482 22.371L35.6837 8.55269ZM15.3282 24L24.1368 29.0859C24.9616 27.5235 25.4001 25.7843 25.4025 24.0136C25.4045 22.233 24.9647 20.4831 24.1349 18.9121L15.3282 24Z" fill="#333333"/>
</svg>
