<svg width="48" height="48" viewBox="0 0 48 48" fill="none" xmlns="http://www.w3.org/2000/svg">
<path d="M32.002 6.40039C33.1351 6.40039 34.2029 6.93334 34.8828 7.83984L43.2812 19.0391C43.723 19.628 43.7064 20.4439 43.2402 21.0137L25.2402 43.0137C24.9363 43.3849 24.4817 43.5996 24.002 43.5996C23.5222 43.5996 23.0676 43.3849 22.7637 43.0137L4.76367 21.0137C4.29747 20.4439 4.28092 19.628 4.72266 19.0391L13.1211 7.83984C13.801 6.93334 14.8688 6.40039 16.002 6.40039H32.002ZM22.4023 37.5176V21.5996H9.37891L22.4023 37.5176ZM25.6016 37.5176L38.625 21.5996H25.6016V37.5176ZM18.5898 18.4004H29.4141L25.0117 9.59961H22.9922L18.5898 18.4004ZM32.9922 18.4004H38.8027L32.3223 9.75977C32.2467 9.65904 32.1279 9.59961 32.002 9.59961H28.5898L32.9922 18.4004ZM16.002 9.59961C15.876 9.59961 15.7572 9.65904 15.6816 9.75977L9.20117 18.4004H15.0117L19.4141 9.59961H16.002Z" fill="#333333"/>
</svg>
