<svg width="48" height="48" viewBox="0 0 48 48" fill="none" xmlns="http://www.w3.org/2000/svg">
<path d="M19.9979 26.4003C20.8815 26.4004 21.5975 27.1163 21.5975 27.9999V37.9999C21.5975 38.8835 20.8815 39.5994 19.9979 39.5995C19.1143 39.5995 18.3983 38.8835 18.3983 37.9999V31.8612L9.12879 41.1307C8.50399 41.7555 7.49191 41.7555 6.86707 41.1307C6.24223 40.5059 6.24223 39.4939 6.86707 38.869L16.1366 29.5995H9.99793C9.11427 29.5995 8.39832 28.8835 8.39832 27.9999C8.39832 27.1162 9.11427 26.4003 9.99793 26.4003H19.9979Z" fill="#333333"/>
<path d="M38.8671 6.86902C39.4919 6.24418 40.5039 6.24418 41.1288 6.86902C41.7535 7.49387 41.7536 8.50594 41.1288 9.13074L31.8593 18.4003H37.9979C38.8816 18.4003 39.5975 19.1162 39.5975 19.9999C39.5974 20.8834 38.8815 21.5995 37.9979 21.5995H27.9979C27.1143 21.5995 26.3984 20.8834 26.3983 19.9999V9.99988C26.3983 9.11622 27.1143 8.40027 27.9979 8.40027C28.8816 8.40027 29.5975 9.11622 29.5975 9.99988V16.1385L38.8671 6.86902Z" fill="#333333"/>
</svg>
