<svg width="48" height="48" viewBox="0 0 48 48" fill="none" xmlns="http://www.w3.org/2000/svg">
<path d="M17.6484 15L23.9993 4L30.3501 15H25.6004V30.4H33.0004C33.2213 30.4 33.4004 30.2209 33.4004 30V26.0004H31.7692C31.3444 26.0004 31 25.656 31 25.2312V18.7696C31 18.3448 31.3444 18.0004 31.7692 18.0004H38.2308C38.6556 18.0004 39 18.3448 39 18.7696V25.2312C39 25.656 38.6556 26.0004 38.2308 26.0004H36.6004V30C36.6004 31.9882 34.9886 33.6 33.0004 33.6H25.6004V36.3365C27.0097 36.9568 28 38.3686 28 40.0004C28 42.2004 26.2 44.0004 24 44.0004C21.8 44.0004 20 42.2004 20 40.0004C20 38.3683 20.9907 36.9563 22.4004 36.3361V33.6H15.0004C13.0122 33.6 11.4004 31.9882 11.4004 30V25.6647C9.99067 25.0445 9 23.6325 9 22.0004C9 19.8004 10.8 18.0004 13 18.0004C15.2 18.0004 17 19.8004 17 22.0004C17 23.6322 16.0097 25.044 14.6004 25.6643V30C14.6004 30.2209 14.7795 30.4 15.0004 30.4H22.4004V15H17.6484Z" fill="#333333"/>
</svg>
