<svg width="48" height="48" viewBox="0 0 48 48" fill="none" xmlns="http://www.w3.org/2000/svg">
<path d="M25.4686 39.631C24.8438 39.0061 24.8438 37.9941 25.4686 37.3693L25.8456 36.9923C26.0868 36.7511 26.4336 36.4024 26.8573 35.9786C27.7054 35.1306 28.8615 33.9763 30.0897 32.7482L36.4686 26.3693L36.5897 26.2599C37.2181 25.7473 38.1445 25.7836 38.7303 26.3693C39.3159 26.9548 39.3535 27.8815 38.8417 28.5099L38.7303 28.631L32.3514 35.0099C31.1233 36.238 29.9691 37.3943 29.121 38.2423C28.6973 38.666 28.3486 39.0128 28.1073 39.254C27.9868 39.3745 27.892 39.4694 27.828 39.5333C27.7962 39.5651 27.7722 39.5911 27.7557 39.6076C27.7479 39.6154 27.7403 39.6211 27.7362 39.6251L27.7303 39.631C27.1055 40.2558 26.0935 40.2558 25.4686 39.631Z" fill="#333333"/>
<path d="M10.4686 38.631C9.84379 38.0062 9.84379 36.9941 10.4686 36.3693L34.4686 12.3693L34.5897 12.2599C35.2182 11.7472 36.1445 11.7834 36.7303 12.3693C37.3162 12.9551 37.3524 13.8815 36.8397 14.5099L36.7303 14.631L12.7303 38.631C12.1055 39.2558 11.0935 39.2558 10.4686 38.631Z" fill="#333333"/>
</svg>
