<svg width="48" height="48" viewBox="0 0 48 48" fill="none" xmlns="http://www.w3.org/2000/svg">
<path fill-rule="evenodd" clip-rule="evenodd" d="M22.3984 10.0004C22.3984 9.11674 23.1148 8.40039 23.9984 8.40039H32.9984C33.8821 8.40039 34.5984 9.11674 34.5984 10.0004C34.5984 10.884 33.8821 11.6004 32.9984 11.6004H30.0889L20.346 36.4004H22.9984C23.8821 36.4004 24.5984 37.1167 24.5984 38.0004C24.5984 38.884 23.8821 39.6004 22.9984 39.6004H13.9984C13.1148 39.6004 12.3984 38.884 12.3984 38.0004C12.3984 37.1167 13.1148 36.4004 13.9984 36.4004H16.908L26.6508 11.6004H23.9984C23.1148 11.6004 22.3984 10.884 22.3984 10.0004Z" fill="#333333"/>
</svg>
