<svg width="48" height="48" viewBox="0 0 48 48" fill="none" xmlns="http://www.w3.org/2000/svg">
<path d="M22.8687 26.3828C23.4936 25.7587 24.5058 25.7584 25.1305 26.3828L31.6148 32.8691C32.2395 33.4939 32.2394 34.506 31.6148 35.1309C30.99 35.7552 29.9778 35.7554 29.3531 35.1309L25.5973 31.375V40.4844C25.5973 41.3678 24.8829 42.0836 23.9996 42.084C23.1159 42.084 22.4 41.368 22.4 40.4844V31.375L18.6441 35.1309C18.0193 35.7553 17.0071 35.7553 16.3824 35.1309C15.7579 34.5061 15.758 33.4939 16.3824 32.8691L22.8687 26.3828Z" fill="#333333"/>
<path d="M23.9996 5.91602C24.8829 5.91641 25.5973 6.63221 25.5973 7.51562V16.625L29.3531 12.8691C29.9778 12.2446 30.99 12.2448 31.6148 12.8691C32.2394 13.494 32.2395 14.5061 31.6148 15.1309L25.1305 21.6172C24.5058 22.2416 23.4936 22.2413 22.8687 21.6172L16.3824 15.1309C15.758 14.5061 15.7579 13.4939 16.3824 12.8691C17.0071 12.2447 18.0193 12.2447 18.6441 12.8691L22.4 16.625V7.51562C22.4 6.63197 23.1159 5.91602 23.9996 5.91602Z" fill="#333333"/>
</svg>
