<svg width="48" height="48" viewBox="0 0 48 48" fill="none" xmlns="http://www.w3.org/2000/svg">
<path fill-rule="evenodd" clip-rule="evenodd" d="M6.86719 6.86914C7.45311 6.28322 8.37937 6.24684 9.00781 6.75977L9.12891 6.86914L41.1289 38.8691L41.2383 38.9902C41.751 39.6187 41.7148 40.545 41.1289 41.1309C40.543 41.7167 39.6167 41.753 38.9883 41.2402L38.8672 41.1309L38.3359 40.5996H28.998C27.0098 40.5996 25.3984 38.9882 25.3984 37V33C25.3984 31.5561 26.2497 30.3138 27.4766 29.7402L23.3359 25.5996H15.5977V29.4004H18.998C20.9861 29.4006 22.5977 31.0119 22.5977 33V37C22.5977 38.9881 20.9861 40.5994 18.998 40.5996H8.99805C7.00982 40.5996 5.39844 38.9882 5.39844 37V33C5.39844 31.0118 7.00982 29.4004 8.99805 29.4004H12.3984V24.5918C12.3989 23.3812 13.3811 22.4004 14.5918 22.4004H20.1367L6.86719 9.13086L6.75781 9.00977C6.24489 8.38132 6.28127 7.45506 6.86719 6.86914ZM8.99805 32.5996C8.77713 32.5996 8.59766 32.7791 8.59766 33V37C8.59766 37.2209 8.77713 37.4004 8.99805 37.4004H18.998C19.2188 37.4002 19.3984 37.2208 19.3984 37V33C19.3984 32.7792 19.2188 32.5998 18.998 32.5996H8.99805ZM28.998 32.5996C28.7771 32.5996 28.5977 32.7791 28.5977 33V37C28.5977 37.2209 28.7771 37.4004 28.998 37.4004H35.1367L30.3359 32.5996H28.998Z" fill="#333333"/>
<path d="M38.998 29.4004C40.9861 29.4006 42.5977 31.0119 42.5977 33V36.3379L39.3984 33.1387V33C39.3984 32.7792 39.2188 32.5998 38.998 32.5996H38.8594L35.6602 29.4004H38.998Z" fill="#333333"/>
<path d="M33.4062 22.4004C34.6166 22.4008 35.5972 23.3815 35.5977 24.5918V29.3379L32.3984 26.1387V25.5996H31.8594L28.6602 22.4004H33.4062Z" fill="#333333"/>
<path d="M29.3672 6.41797C31.182 6.60278 32.5977 8.13638 32.5977 10V16C32.5977 17.9881 30.9861 19.5994 28.998 19.5996H25.8594L22.6602 16.4004H28.998C29.2188 16.4002 29.3984 16.2208 29.3984 16V10C29.3984 9.80647 29.2607 9.64447 29.0781 9.60742L28.998 9.59961H18.998C18.7773 9.59981 18.5977 9.77921 18.5977 10V12.3379L15.4824 9.22266C15.8378 7.60832 17.2769 6.40056 18.998 6.40039H28.998L29.3672 6.41797Z" fill="#333333"/>
</svg>
