<svg width="48" height="48" viewBox="0 0 48 48" fill="none" xmlns="http://www.w3.org/2000/svg">
<path fill-rule="evenodd" clip-rule="evenodd" d="M6.39844 33.9996C6.39844 37.0924 8.90564 39.5996 11.9984 39.5996H35.9984C39.0912 39.5996 41.5984 37.0924 41.5984 33.9996V13.9996C41.5984 10.9068 39.0912 8.39961 35.9984 8.39961H11.9984C8.90564 8.39961 6.39844 10.9068 6.39844 13.9996V33.9996ZM11.9984 36.3996C10.673 36.3996 9.59844 35.3251 9.59844 33.9996V31.5996H38.3984V33.9996C38.3984 35.3251 37.3239 36.3996 35.9984 36.3996H11.9984ZM38.3984 28.3996H18.5984V11.5996H35.9984C37.3239 11.5996 38.3984 12.6741 38.3984 13.9996V28.3996ZM15.3984 11.5996V28.3996H9.59844V13.9996C9.59844 12.6741 10.673 11.5996 11.9984 11.5996H15.3984Z" fill="#333333"/>
</svg>
