<svg width="48" height="48" viewBox="0 0 48 48" fill="none" xmlns="http://www.w3.org/2000/svg">
<path fill-rule="evenodd" clip-rule="evenodd" d="M17.8075 9.16H25.7875V12.32H22.7321C21.7048 15.0623 20.3544 17.3632 18.6631 19.2802C20.6206 20.7078 22.9993 21.7725 25.8352 22.4097L26.5591 22.5724C26.2463 23.2461 25.9817 23.8505 25.7522 24.3746C25.4507 25.0634 25.2098 25.6135 25 26C21.8405 25.1743 18.1651 23.474 16.0434 21.7408C13.8851 23.4194 11.3268 24.6895 8.34694 25.6218L8.013 25.7262L7.86504 25.4092C7.60231 24.8462 6.8625 23.7147 6.39935 23.155L6 22.6725L6.60577 22.5132C9.38143 21.7831 11.7131 20.7512 13.6386 19.3623C11.9789 17.3838 10.6952 15.0273 9.67516 12.32H6.66751V9.16H14.5275V6H17.8075V9.16ZM19.0547 12.32H13.2138C13.9671 14.0808 14.9534 15.6668 16.1903 17.0466C17.359 15.7119 18.3105 14.1469 19.0547 12.32Z" fill="#333333"/>
<path fill-rule="evenodd" clip-rule="evenodd" d="M25.9213 42.1996H22L29.9955 19.9814H34.0799L42.0755 42.1996H38.1541L36.1593 36.4255H27.9195L25.9213 42.1996ZM35.0642 33.2556L32.043 24.5101L29.0165 33.2556H35.0642Z" fill="#333333"/>
</svg>
