<svg width="48" height="48" viewBox="0 0 48 48" fill="none" xmlns="http://www.w3.org/2000/svg">
<path d="M12.998 33C14.1026 33 14.998 32.1046 14.998 31C14.998 29.8954 14.1026 29 12.998 29C11.8935 29 10.998 29.8954 10.998 31C10.998 32.1046 11.8935 33 12.998 33Z" fill="#333333"/>
<path d="M22.0317 21.9556C19.4685 19.3925 16.0897 18.1471 12.7282 18.2193C11.8448 18.2383 11.1132 17.5375 11.0942 16.654C11.0752 15.7706 11.776 15.039 12.6595 15.02C16.8571 14.9299 21.0891 16.4876 24.2944 19.6929C27.4997 22.8982 29.0574 27.1302 28.9673 31.3278C28.9483 32.2113 28.2167 32.9121 27.3333 32.8931C26.4498 32.8741 25.749 32.1426 25.768 31.2591C25.8402 27.8976 24.5949 24.5188 22.0317 21.9556Z" fill="#333333"/>
<path d="M12.3856 25.2284C13.9635 25.2127 15.5409 25.8056 16.743 27.0078C17.9452 28.21 18.5381 29.7874 18.5225 31.3653C18.5137 32.2489 19.2229 32.9723 20.1065 32.9811C20.9901 32.9899 21.7135 32.2807 21.7223 31.3971C21.7462 28.9949 20.8405 26.5797 19.0058 24.745C17.1711 22.9104 14.7559 22.0046 12.3537 22.0285C11.4701 22.0373 10.7609 22.7607 10.7697 23.6443C10.7785 24.528 11.5019 25.2371 12.3856 25.2284Z" fill="#333333"/>
<path fill-rule="evenodd" clip-rule="evenodd" d="M9.99844 8.40039C6.90564 8.40039 4.39844 10.9076 4.39844 14.0004V34.0004C4.39844 37.0932 6.90564 39.6004 9.99844 39.6004H37.9984C41.0912 39.6004 43.5984 37.0932 43.5984 34.0004V14.0004C43.5984 10.9076 41.0912 8.40039 37.9984 8.40039H9.99844ZM7.59844 14.0004C7.59844 12.6749 8.67295 11.6004 9.99844 11.6004H37.9984C39.3239 11.6004 40.3984 12.6749 40.3984 14.0004V34.0004C40.3984 35.3259 39.3239 36.4004 37.9984 36.4004H9.99844C8.67295 36.4004 7.59844 35.3259 7.59844 34.0004V14.0004Z" fill="#333333"/>
</svg>
