<svg width="48" height="48" viewBox="0 0 48 48" fill="none" xmlns="http://www.w3.org/2000/svg">
<path d="M11.4992 6.7002C8.84825 6.7002 6.69922 8.84923 6.69922 11.5002C6.69922 14.1512 8.84825 16.3002 11.4992 16.3002C14.1502 16.3002 16.2992 14.1512 16.2992 11.5002C16.2992 8.84923 14.1502 6.7002 11.4992 6.7002Z" fill="#333333"/>
<path d="M24.0988 6.7002C21.4479 6.7002 19.2988 8.84923 19.2988 11.5002C19.2988 14.1512 21.4479 16.3002 24.0988 16.3002C26.7498 16.3002 28.8988 14.1512 28.8988 11.5002C28.8988 8.84923 26.7498 6.7002 24.0988 6.7002Z" fill="#333333"/>
<path d="M36.4992 6.7002C33.8483 6.7002 31.6992 8.84923 31.6992 11.5002C31.6992 14.1512 33.8483 16.3002 36.4992 16.3002C39.1502 16.3002 41.2992 14.1512 41.2992 11.5002C41.2992 8.84923 39.1502 6.7002 36.4992 6.7002Z" fill="#333333"/>
<path d="M11.4992 19.7002C8.84825 19.7002 6.69922 21.8492 6.69922 24.5002C6.69922 27.1512 8.84825 29.3002 11.4992 29.3002C14.1502 29.3002 16.2992 27.1512 16.2992 24.5002C16.2992 21.8492 14.1502 19.7002 11.4992 19.7002Z" fill="#333333"/>
<path d="M24.0988 19.7002C21.4479 19.7002 19.2988 21.8492 19.2988 24.5002C19.2988 27.1512 21.4479 29.3002 24.0988 29.3002C26.7498 29.3002 28.8988 27.1512 28.8988 24.5002C28.8988 21.8492 26.7498 19.7002 24.0988 19.7002Z" fill="#333333"/>
<path d="M36.4992 19.7002C33.8483 19.7002 31.6992 21.8492 31.6992 24.5002C31.6992 27.1512 33.8483 29.3002 36.4992 29.3002C39.1502 29.3002 41.2992 27.1512 41.2992 24.5002C41.2992 21.8492 39.1502 19.7002 36.4992 19.7002Z" fill="#333333"/>
<path d="M11.4992 32.7002C8.84825 32.7002 6.69922 34.8492 6.69922 37.5002C6.69922 40.1512 8.84825 42.3002 11.4992 42.3002C14.1502 42.3002 16.2992 40.1512 16.2992 37.5002C16.2992 34.8492 14.1502 32.7002 11.4992 32.7002Z" fill="#333333"/>
<path d="M24.0988 32.7002C21.4479 32.7002 19.2988 34.8492 19.2988 37.5002C19.2988 40.1512 21.4479 42.3002 24.0988 42.3002C26.7498 42.3002 28.8988 40.1512 28.8988 37.5002C28.8988 34.8492 26.7498 32.7002 24.0988 32.7002Z" fill="#333333"/>
<path d="M36.4992 32.7002C33.8483 32.7002 31.6992 34.8492 31.6992 37.5002C31.6992 40.1512 33.8483 42.3002 36.4992 42.3002C39.1502 42.3002 41.2992 40.1512 41.2992 37.5002C41.2992 34.8492 39.1502 32.7002 36.4992 32.7002Z" fill="#333333"/>
</svg>
