<svg width="48" height="48" viewBox="0 0 48 48" fill="none" xmlns="http://www.w3.org/2000/svg">
<path fill-rule="evenodd" clip-rule="evenodd" d="M24.0021 12.181C31.2369 12.181 37.1014 18.046 37.1017 25.2807C37.1017 28.7955 35.7154 31.9898 33.463 34.3412C31.0805 36.8284 27.7212 38.3803 24.0021 38.3803C16.7673 38.3801 10.9025 32.5155 10.9025 25.2807C10.9028 18.0461 16.7675 12.1812 24.0021 12.181ZM24.0021 15.3803C18.5348 15.3804 14.102 19.8134 14.1017 25.2807C14.1017 30.7482 18.5346 35.1809 24.0021 35.181C26.813 35.181 29.3484 34.0115 31.1525 32.1283C32.8573 30.3486 33.9025 27.9381 33.9025 25.2807C33.9022 19.8133 29.4695 15.3803 24.0021 15.3803Z" fill="#333333"/>
<path fill-rule="evenodd" clip-rule="evenodd" d="M22.6486 5.29628C23.5379 4.7537 24.6754 4.79367 25.5294 5.41347L42.424 17.6889C43.3351 18.3508 43.7171 19.524 43.3693 20.5951L36.9162 40.4564C36.568 41.5275 35.5698 42.2533 34.4435 42.2533H13.5607C12.4346 42.2531 11.4361 41.5274 11.088 40.4564L4.63491 20.5951C4.28726 19.5241 4.66921 18.3508 5.58022 17.6889L22.4748 5.41347L22.6486 5.29628ZM7.81069 20.0209L13.9962 39.0521H34.008L40.1916 20.0209L24.0021 8.25722L7.81069 20.0209Z" fill="#333333"/>
</svg>
