<svg width="48" height="48" viewBox="0 0 48 48" fill="none" xmlns="http://www.w3.org/2000/svg">
<path d="M23.9998 25.9166C24.8831 25.9169 25.5994 26.6327 25.5994 27.5162V36.6255L29.3533 32.8697C29.978 32.2449 30.9901 32.2452 31.615 32.8697C32.2396 33.4945 32.2398 34.5066 31.615 35.1314L25.1306 41.6177C24.5061 42.2421 23.4937 42.2416 22.8689 41.6177L16.3826 35.1314C15.758 34.5066 15.758 33.4945 16.3826 32.8697C17.0074 32.2449 18.0195 32.245 18.6443 32.8697L22.4002 36.6255V27.5162C22.4002 26.6325 23.1161 25.9166 23.9998 25.9166Z" fill="#333333"/>
<path d="M22.8689 6.38335C23.4937 5.75901 24.5059 5.75886 25.1306 6.38335L31.615 12.8677C32.2398 13.4925 32.2396 14.5065 31.615 15.1314C30.9902 15.7554 29.9779 15.7557 29.3533 15.1314L25.5994 11.3755V20.4849C25.5994 21.3684 24.8831 22.0842 23.9998 22.0845C23.1161 22.0845 22.4002 21.3686 22.4002 20.4849V11.3755L18.6443 15.1314C18.0196 15.7555 17.0073 15.7556 16.3826 15.1314C15.758 14.5065 15.7578 13.4925 16.3826 12.8677L22.8689 6.38335Z" fill="#333333"/>
</svg>
