<svg width="48" height="48" viewBox="0 0 48 48" fill="none" xmlns="http://www.w3.org/2000/svg">
<path d="M4.39844 14.0004C4.39844 10.9076 6.90564 8.40039 9.99844 8.40039H37.9984C41.0912 8.40039 43.5984 10.9076 43.5984 14.0004V25.8391C42.6914 24.7733 41.6101 23.8604 40.3984 23.1445V14.0004C40.3984 12.6749 39.3239 11.6004 37.9984 11.6004H9.99844C8.67295 11.6004 7.59844 12.6749 7.59844 14.0004V29.4004H22.2645C21.8684 30.41 21.5988 31.4832 21.4753 32.6004H7.59844V34.0004C7.59844 35.3259 8.67295 36.4004 9.99844 36.4004H21.6267C21.8442 37.5278 22.2119 38.6017 22.7082 39.6004H9.99844C6.90564 39.6004 4.39844 37.0932 4.39844 34.0004V14.0004Z" fill="#333333"/>
<path fill-rule="evenodd" clip-rule="evenodd" d="M43.998 34C43.998 39.5228 39.5209 44 33.998 44C28.4752 44 23.998 39.5228 23.998 34C23.998 28.4772 28.4752 24 33.998 24C39.5209 24 43.998 28.4772 43.998 34ZM33.9978 27.5C34.8262 27.5 35.4978 28.1716 35.4978 29V32.4998H38.998C39.8265 32.4998 40.498 33.1713 40.498 33.9998C40.498 34.8282 39.8265 35.4998 38.998 35.4998H35.4978V39C35.4978 39.8284 34.8262 40.5 33.9978 40.5C33.1694 40.5 32.4978 39.8284 32.4978 39V35.4998H28.998C28.1696 35.4998 27.498 34.8282 27.498 33.9998C27.498 33.1713 28.1696 32.4998 28.998 32.4998H32.4978V29C32.4978 28.1716 33.1694 27.5 33.9978 27.5Z" fill="#333333"/>
</svg>
