<svg width="48" height="48" viewBox="0 0 48 48" fill="none" xmlns="http://www.w3.org/2000/svg">
<path d="M22.0833 24.0012C22.083 24.8846 21.3672 25.6008 20.4837 25.6008H11.3743L15.1302 29.3548C15.7549 29.9795 15.7547 30.9916 15.1302 31.6165C14.5053 32.2411 13.4932 32.2412 12.8685 31.6165L6.38215 25.1321C5.75782 24.5075 5.75825 23.4952 6.38215 22.8704L12.8685 16.3841C13.4933 15.7595 14.5054 15.7595 15.1302 16.3841C15.755 17.0088 15.7549 18.0209 15.1302 18.6458L11.3743 22.4016L20.4837 22.4016C21.3674 22.4016 22.0833 23.1176 22.0833 24.0012Z" fill="#333333"/>
<path d="M41.6165 22.8704C42.2409 23.4952 42.241 24.5074 41.6165 25.1321L35.1321 31.6165C34.5074 32.2412 33.4933 32.2411 32.8685 31.6165C32.2445 30.9917 32.2442 29.9794 32.8685 29.3548L36.6243 25.6008H27.515C26.6315 25.6008 25.9157 24.8846 25.9153 24.0012C25.9153 23.1176 26.6313 22.4016 27.515 22.4016L36.6243 22.4016L32.8685 18.6458C32.2444 18.021 32.2443 17.0087 32.8685 16.3841C33.4933 15.7594 34.5074 15.7593 35.1321 16.3841L41.6165 22.8704Z" fill="#333333"/>
</svg>
