<svg width="48" height="48" viewBox="0 0 48 48" fill="none" xmlns="http://www.w3.org/2000/svg">
<path fill-rule="evenodd" clip-rule="evenodd" d="M12.3984 29.5994H9.99844C6.90565 29.5994 4.39844 27.0922 4.39844 23.9994V11.9994C4.39844 8.90662 6.90564 6.39941 9.99844 6.39941H29.9984C33.0912 6.39941 35.5984 8.90662 35.5984 11.9994L35.5984 18.3994H37.9984C41.0912 18.3994 43.5984 20.9066 43.5984 23.9994V35.9994C43.5984 39.0922 41.0912 41.5994 37.9984 41.5994L17.9984 41.5994C14.9056 41.5994 12.3984 39.0922 12.3984 35.9994V29.5994ZM29.9984 29.5994C33.0912 29.5994 35.5984 27.0922 35.5984 23.9994V21.5994H37.9984C39.3239 21.5994 40.3984 22.6739 40.3984 23.9994V35.9994C40.3984 37.3249 39.3239 38.3994 37.9984 38.3994L17.9984 38.3994C16.673 38.3994 15.5984 37.3249 15.5984 35.9994V29.5994L29.9984 29.5994ZM32.3984 23.9994C32.3984 25.3249 31.3239 26.3994 29.9984 26.3994L9.99844 26.3994C8.67296 26.3994 7.59844 25.3249 7.59844 23.9994L7.59844 11.9994C7.59844 10.6739 8.67295 9.59942 9.99844 9.59942L29.9984 9.59942C31.3239 9.59942 32.3984 10.6739 32.3984 11.9994V23.9994Z" fill="#333333"/>
</svg>
