<svg width="48" height="48" viewBox="0 0 48 48" fill="none" xmlns="http://www.w3.org/2000/svg">
<path d="M31.4902 17.2441C31.7509 17.0393 32.1086 17.3266 31.9648 17.625L28.0449 25.7207C27.0133 27.8513 25.5901 30.5689 23.293 29.998C22.8671 29.8922 22.4565 29.6943 22.0938 29.4023C21.7314 29.1106 21.4521 28.7524 21.2578 28.3594C20.2088 26.237 22.5588 24.264 24.4199 22.8008L31.4902 17.2441Z" fill="#333333"/>
<path fill-rule="evenodd" clip-rule="evenodd" d="M29.998 5.40039C30.8817 5.40039 31.5977 6.11634 31.5977 7C31.5977 7.88366 30.8817 8.59961 29.998 8.59961H25.5977V10.4766C28.227 10.7286 30.6792 11.5936 32.8066 12.9277L35.5215 10.2129L35.6426 10.1035C36.2708 9.59065 37.1991 9.62739 37.7852 10.2129C38.4094 10.8374 38.409 11.8497 37.7852 12.4746L35.3594 14.8984C38.5811 17.9246 40.5975 22.2276 40.5977 27C40.5973 36.1677 33.1658 43.5996 23.998 43.5996C14.8303 43.5996 7.39876 36.1677 7.39844 27C7.3986 22.2291 9.41207 17.9283 12.6348 14.9004L10.1992 12.4629L10.0898 12.3418C9.57746 11.7134 9.61372 10.7869 10.1992 10.2012C10.785 9.61588 11.7116 9.57951 12.3398 10.0918L12.4629 10.2012L15.1895 12.9297C17.3169 11.595 19.7679 10.7289 22.3984 10.4766V8.59961H17.998C17.1144 8.59961 16.3984 7.88366 16.3984 7C16.3984 6.11634 17.1144 5.40039 17.998 5.40039H29.998ZM23.998 13.5996C16.5976 13.5996 10.598 19.5996 10.5977 27C10.598 34.4003 16.5976 40.3984 23.998 40.3984C31.3985 40.3984 37.3981 34.4003 37.3984 27C37.3983 22.8803 35.5401 19.1948 32.6113 16.7344C32.4249 16.5777 32.2339 16.4257 32.0391 16.2793C29.7995 14.5967 27.017 13.5996 23.998 13.5996Z" fill="#333333"/>
</svg>
