<svg width="48" height="48" viewBox="0 0 48 48" fill="none" xmlns="http://www.w3.org/2000/svg">
<path fill-rule="evenodd" clip-rule="evenodd" d="M30.7721 24.1846C32.2209 22.7359 34.6994 23.7629 34.6999 25.8116V32.3975C34.6999 33.6678 33.6693 34.6983 32.3991 34.6983H25.8132C23.765 34.6974 22.7381 32.2193 24.1862 30.7705L30.7721 24.1846ZM26.5397 32.0967H32.0983V26.5381L26.5397 32.0967Z" fill="#333333"/>
<path fill-rule="evenodd" clip-rule="evenodd" d="M34.4987 7.32524C36.7665 5.0577 40.6428 6.66329 40.6432 9.87016V35.042C40.6432 38.1348 38.1364 40.6416 35.0436 40.6416H9.87175C6.6654 40.6408 5.05986 36.7648 7.32683 34.4971L34.4987 7.32524ZM37.444 9.87016C37.4436 9.51418 37.0123 9.3353 36.7604 9.58696L31.237 15.1104L32.9069 16.7803C33.5314 17.405 33.5311 18.4172 32.9069 19.042C32.2821 19.6669 31.2681 19.6669 30.6432 19.042L28.9733 17.3721L24.278 22.0694L25.946 23.7373C26.5704 24.362 26.5702 25.3742 25.946 25.9991C25.3211 26.6239 24.3071 26.6239 23.6823 25.9991L22.0143 24.3311L17.319 29.0245L18.9889 30.6963C19.6131 31.3212 19.6135 32.3334 18.9889 32.958C18.3641 33.5829 17.3501 33.5829 16.7253 32.958L15.0553 31.2881L9.58854 36.7588C9.33746 37.0106 9.5163 37.4416 9.87175 37.4424H35.0436C36.3691 37.4424 37.444 36.3675 37.444 35.042V9.87016Z" fill="#333333"/>
</svg>
