<svg width="48" height="48" viewBox="0 0 48 48" fill="none" xmlns="http://www.w3.org/2000/svg">
<path d="M9.4 34.8C12.3823 34.8 14.8 32.3823 14.8 29.4C14.8 26.4177 12.3823 24 9.4 24C6.41766 24 4 26.4177 4 29.4C4 32.3823 6.41766 34.8 9.4 34.8Z" fill="#333333"/>
<path d="M24.0016 29.3996C26.9839 29.3996 29.4016 26.9819 29.4016 23.9996C29.4016 21.0173 26.9839 18.5996 24.0016 18.5996C21.0192 18.5996 18.6016 21.0173 18.6016 23.9996C18.6016 26.9819 21.0192 29.3996 24.0016 29.3996Z" fill="#333333"/>
<path d="M38.5992 24.0002C41.5816 24.0002 43.9992 21.5825 43.9992 18.6002C43.9992 15.6179 41.5816 13.2002 38.5992 13.2002C35.6169 13.2002 33.1992 15.6179 33.1992 18.6002C33.1992 21.5825 35.6169 24.0002 38.5992 24.0002Z" fill="#333333"/>
</svg>
