<svg width="48" height="48" viewBox="0 0 48 48" fill="none" xmlns="http://www.w3.org/2000/svg">
<path d="M23.9985 11.6004C23.1148 11.6004 22.3985 10.884 22.3985 10.0004L22.3985 6.00039C22.3985 5.11673 23.1148 4.40039 23.9985 4.40039C24.8821 4.40039 25.5985 5.11674 25.5985 6.00039L25.5985 10.0004C25.5985 10.884 24.8821 11.6004 23.9985 11.6004Z" fill="#333333"/>
<path fill-rule="evenodd" clip-rule="evenodd" d="M13.8989 24.0008C13.8989 18.4228 18.4208 13.9008 23.9989 13.9008C29.577 13.9008 34.0989 18.4228 34.0989 24.0008C34.0989 29.5789 29.577 34.1008 23.9989 34.1008C18.4208 34.1008 13.8989 29.5789 13.8989 24.0008ZM23.9989 17.1008C20.1881 17.1008 17.0989 20.1901 17.0989 24.0008C17.0989 27.8116 20.1881 30.9008 23.9989 30.9008C27.8096 30.9008 30.8989 27.8116 30.8989 24.0008C30.8989 20.1901 27.8096 17.1008 23.9989 17.1008Z" fill="#333333"/>
<path d="M22.3985 42.0004C22.3985 42.884 23.1148 43.6004 23.9985 43.6004C24.8821 43.6004 25.5985 42.884 25.5985 42.0004L25.5985 38.0004C25.5985 37.1167 24.8821 36.4004 23.9985 36.4004C23.1148 36.4004 22.3985 37.1167 22.3985 38.0004L22.3985 42.0004Z" fill="#333333"/>
<path d="M11.5984 24.0004C11.5984 24.8841 10.8821 25.6004 9.99844 25.6004L5.99844 25.6004C5.11478 25.6004 4.39844 24.8841 4.39844 24.0004C4.39844 23.1168 5.11478 22.4004 5.99844 22.4004L9.99844 22.4004C10.8821 22.4004 11.5984 23.1168 11.5984 24.0004Z" fill="#333333"/>
<path d="M41.9984 25.6004C42.8821 25.6004 43.5984 24.8841 43.5984 24.0004C43.5984 23.1168 42.8821 22.4004 41.9984 22.4004L37.9984 22.4004C37.1148 22.4004 36.3984 23.1168 36.3984 24.0004C36.3984 24.8841 37.1148 25.6004 37.9984 25.6004L41.9984 25.6004Z" fill="#333333"/>
<path d="M15.2291 15.232C14.6042 15.8568 13.5912 15.8568 12.9663 15.232L10.1379 12.4036C9.51307 11.7787 9.51307 10.7657 10.1379 10.1408C10.7627 9.51599 11.7758 9.51599 12.4006 10.1408L15.2291 12.9693C15.8539 13.5941 15.8539 14.6072 15.2291 15.232Z" fill="#333333"/>
<path d="M35.5952 37.859C36.2201 38.4838 37.2331 38.4838 37.858 37.859C38.4828 37.2341 38.4828 36.2211 37.858 35.5962L35.0296 32.7678C34.4047 32.1429 33.3917 32.1429 32.7668 32.7678C32.142 33.3926 32.142 34.4057 32.7668 35.0305L35.5952 37.859Z" fill="#333333"/>
<path d="M15.2291 32.7689C15.8539 33.3937 15.8539 34.4068 15.2291 35.0316L12.4006 37.86C11.7758 38.4849 10.7627 38.4849 10.1379 37.86C9.51306 37.2352 9.51306 36.2221 10.1379 35.5973L12.9663 32.7689C13.5912 32.144 14.6042 32.144 15.2291 32.7689Z" fill="#333333"/>
<path d="M37.858 12.4047C38.4828 11.7798 38.4828 10.7668 37.858 10.1419C37.2331 9.51708 36.2201 9.51708 35.5952 10.1419L32.7668 12.9703C32.142 13.5952 32.142 14.6082 32.7668 15.2331C33.3916 15.8579 34.4047 15.8579 35.0296 15.2331L37.858 12.4047Z" fill="#333333"/>
</svg>
