<svg width="48" height="48" viewBox="0 0 48 48" fill="none" xmlns="http://www.w3.org/2000/svg">
<path fill-rule="evenodd" clip-rule="evenodd" d="M15.8671 34.1313C15.2422 33.5064 15.2422 32.4934 15.8671 31.8685L22.8671 24.8685C23.1671 24.5685 23.5741 24.3999 23.9984 24.3999C24.4228 24.3999 24.8298 24.5685 25.1298 24.8685L32.1298 31.8685C32.7547 32.4934 32.7547 33.5064 32.1298 34.1313C31.505 34.7561 30.4919 34.7561 29.8671 34.1313L23.9984 28.2626L18.1298 34.1313C17.505 34.7561 16.4919 34.7561 15.8671 34.1313Z" fill="#333333"/>
<path fill-rule="evenodd" clip-rule="evenodd" d="M12.3984 15.9999C12.3984 16.8836 13.1148 17.5999 13.9984 17.5999L33.9984 17.5999C34.8821 17.5999 35.5984 16.8836 35.5984 15.9999C35.5984 15.1162 34.8821 14.3999 33.9984 14.3999L13.9984 14.3999C13.1148 14.3999 12.3984 15.1162 12.3984 15.9999Z" fill="#333333"/>
</svg>
