<svg width="48" height="48" viewBox="0 0 48 48" fill="none" xmlns="http://www.w3.org/2000/svg">
<path d="M23.998 30C25.6549 30 26.998 31.3431 26.998 33C26.998 34.6569 25.6549 36 23.998 36C22.3412 36 20.998 34.6569 20.998 33C20.998 31.3431 22.3412 30 23.998 30Z" fill="#333333"/>
<path d="M35.998 22.4004C36.8817 22.4004 37.5977 23.1163 37.5977 24C37.5977 24.8837 36.8817 25.5996 35.998 25.5996H11.998C11.1144 25.5996 10.3984 24.8837 10.3984 24C10.3984 23.1163 11.1144 22.4004 11.998 22.4004H35.998Z" fill="#333333"/>
<path d="M23.998 12C25.6549 12 26.998 13.3431 26.998 15C26.998 16.6569 25.6549 18 23.998 18C22.3412 18 20.998 16.6569 20.998 15C20.998 13.3431 22.3412 12 23.998 12Z" fill="#333333"/>
</svg>
