<svg width="48" height="48" viewBox="0 0 48 48" fill="none" xmlns="http://www.w3.org/2000/svg">
<path fill-rule="evenodd" clip-rule="evenodd" d="M33.998 20C34.9864 20 35.4816 20.0003 35.8711 20.1523C36.1277 20.2524 36.3618 20.4002 36.5586 20.5859C36.7549 20.7714 36.9108 20.9917 37.0176 21.2344C37.1165 21.4573 37.1541 21.7179 37.1699 22.0977C37.1768 22.372 37.2581 22.6403 37.4043 22.877C37.5507 23.1137 37.7588 23.3118 38.0078 23.4512C38.2618 23.5853 38.5473 23.6568 38.8379 23.6582C39.1284 23.6596 39.4146 23.5906 39.6699 23.459C40.0257 23.281 40.2843 23.1824 40.5391 23.1504C41.0963 23.0809 41.66 23.2237 42.1074 23.5469C42.4408 23.7889 42.687 24.1897 43.1777 24.9902L43.1836 25C43.6782 25.8069 43.9247 26.2115 43.9805 26.6055C44.0167 26.866 43.9978 27.1311 43.9258 27.3848C43.8537 27.6384 43.7297 27.8762 43.5605 28.084C43.4037 28.276 43.1828 28.4376 42.8418 28.6406C42.341 28.9367 42.0195 29.4422 42.0195 30C42.0195 30.558 42.3417 31.0643 42.8438 31.3613C43.1833 31.5631 43.4029 31.7242 43.5586 31.916C43.7281 32.1239 43.8535 32.3614 43.9258 32.6152C43.998 32.8689 44.0165 33.134 43.9805 33.3945C43.9247 33.7895 43.6782 34.1931 43.1836 35C42.6899 35.807 42.4422 36.2111 42.1074 36.4531C41.6612 36.7761 41.0969 36.9196 40.5391 36.8496C40.2843 36.8176 40.0257 36.719 39.6699 36.541C39.4147 36.4095 39.1282 36.3404 38.8379 36.3418C38.5476 36.3433 38.2616 36.4148 38.0078 36.5488C37.4955 36.8279 37.191 37.3445 37.1699 37.9023C37.1541 38.2821 37.1165 38.5427 37.0176 38.7656C36.8014 39.2564 36.3891 39.6455 35.8711 39.8477C35.4816 39.9997 34.9864 40 33.998 40C33.0097 40 32.5145 39.9997 32.125 39.8477C31.6055 39.6447 31.1932 39.2551 30.9785 38.7656C30.8796 38.5427 30.842 38.2821 30.8262 37.9023C30.8041 37.3443 30.4998 36.8288 29.9883 36.5488C29.7343 36.4147 29.4488 36.3432 29.1582 36.3418C28.8676 36.3404 28.5815 36.4093 28.3262 36.541C27.9704 36.719 27.7118 36.8176 27.457 36.8496C26.8992 36.9185 26.3349 36.7761 25.8887 36.4531C25.5553 36.2111 25.3091 35.8103 24.8184 35.0098L24.8125 35C24.3179 34.1932 24.0714 33.7885 24.0156 33.3945C23.9794 33.134 23.9983 32.8689 24.0703 32.6152C24.1424 32.3616 24.2664 32.1238 24.4355 31.916C24.5924 31.724 24.8133 31.5624 25.1543 31.3594C25.6551 31.0633 25.9766 30.5579 25.9766 30C25.9766 29.442 25.6544 28.9357 25.1523 28.6387C24.8128 28.4369 24.5932 28.2758 24.4375 28.084C24.0945 27.6631 23.9421 27.1313 24.0156 26.6055C24.0714 26.2105 24.3179 25.8068 24.8125 25C25.3061 24.193 25.554 23.7889 25.8887 23.5469C26.336 23.2237 26.8998 23.081 27.457 23.1504C27.7118 23.1824 27.9704 23.281 28.3262 23.459C28.5814 23.5905 28.8678 23.6596 29.1582 23.6582C29.4486 23.6567 29.7345 23.5852 29.9883 23.4512C30.2374 23.312 30.4453 23.1136 30.5918 22.877C30.7381 22.6404 30.8192 22.372 30.8262 22.0977C30.842 21.7189 30.8796 21.4573 30.9785 21.2344C31.1947 20.7436 31.607 20.3545 32.125 20.1523C32.5155 20.0003 33.0097 20 33.998 20ZM33.998 27C32.2402 27 30.8164 28.343 30.8164 30C30.8164 31.657 32.2413 33 33.998 33C35.7559 33 37.1797 31.657 37.1797 30C37.1797 28.343 35.7548 27 33.998 27Z" fill="#333333"/>
<path fill-rule="evenodd" clip-rule="evenodd" d="M35.998 8.40039C39.0908 8.40039 41.5977 10.9072 41.5977 14V19.9922C41.1167 19.9227 40.6263 19.916 40.1406 19.9766C40.0827 19.9838 40.025 19.9928 39.9688 20.002L39.9434 19.9375C39.7319 19.4592 39.451 19.0194 39.1133 18.6309L38.7539 18.2578L38.3984 17.9531V14C38.3984 12.6745 37.3235 11.5996 35.998 11.5996H17.5977V32.4004H20.8574C20.7884 32.875 20.7811 33.3576 20.8477 33.8359V33.8438C20.9478 34.5511 21.203 35.1187 21.4102 35.5176C21.4245 35.5452 21.442 35.5716 21.457 35.5996H9.99805C6.90525 35.5996 4.39844 33.0928 4.39844 30V14C4.39844 10.9072 6.90525 8.40039 9.99805 8.40039H35.998ZM7.59766 30C7.59766 31.3255 8.67256 32.4004 9.99805 32.4004H14.3984V23.5996H7.59766V30ZM9.99805 11.5996C8.67256 11.5996 7.59766 12.6745 7.59766 14V20.4004H14.3984V11.5996H9.99805Z" fill="#333333"/>
</svg>
