<svg width="48" height="48" viewBox="0 0 48 48" fill="none" xmlns="http://www.w3.org/2000/svg">
<path fill-rule="evenodd" clip-rule="evenodd" d="M13.4537 31.0136L21.7735 33.0935C25.8781 34.1197 30.0809 31.814 31.421 27.8009L32.8773 23.4398C34.5209 18.5179 30.8578 13.4326 25.6686 13.4326H25.1867L25.5482 12.495C26.7436 9.39412 24.9634 5.95792 21.7931 5.07687C19.8035 4.52392 17.6599 5.36013 16.5934 7.15182L11.9409 14.9681C11.3805 14.6083 10.7138 14.3996 9.99844 14.3996H7.99844C6.01021 14.3996 4.39844 16.0114 4.39844 17.9996V29.9996C4.39844 31.9878 6.01021 33.5996 7.99844 33.5996H9.99844C11.6346 33.5996 13.0158 32.5081 13.4537 31.0136ZM20.9363 8.16001C20.3181 7.98822 19.661 8.25447 19.3431 8.78857L13.5984 18.4396V27.7513L22.5496 29.9891C25.0326 30.6098 27.5751 29.215 28.3858 26.7874L29.8421 22.4263C30.7937 19.5767 28.6729 16.6326 25.6686 16.6326H22.8551C22.3277 16.6326 21.8342 16.3728 21.5358 15.9379C21.2374 15.5031 21.1725 14.9491 21.3622 14.4571L22.5624 11.3439C23.0663 10.0368 22.3177 8.54392 20.9363 8.16001ZM7.59844 29.9996C7.59844 30.2205 7.77752 30.3996 7.99844 30.3996H9.99844C10.2194 30.3996 10.3984 30.2205 10.3984 29.9996V17.9996C10.3984 17.7787 10.2194 17.5996 9.99844 17.5996H7.99844C7.77752 17.5996 7.59844 17.7787 7.59844 17.9996V29.9996Z" fill="#333333"/>
<path d="M23.0986 35.3165L26.3457 40.8235C27.4006 42.6126 29.5308 43.4634 31.5281 42.8934C34.6447 42.0039 36.3393 38.6443 35.2021 35.6092L34.8082 34.558H35.6738C40.0284 34.558 43.4926 30.9063 43.2633 26.5577L43.021 21.9644C42.7489 16.8066 37.784 13.2175 32.801 14.5765L32.7801 14.5822C33.553 15.4366 34.1714 16.4261 34.5994 17.5006C37.2631 17.3134 39.6783 19.3441 39.8254 22.133L40.0677 26.7262C40.2005 29.2438 38.1949 31.358 35.6738 31.358L32.5001 31.358C32.1232 31.358 31.7636 31.4907 31.48 31.7253C31.3729 31.8531 31.2628 31.9779 31.1498 32.0997C30.8811 32.5224 30.8252 33.048 31.0018 33.5194L32.2055 36.732C32.687 38.0171 31.9695 39.4397 30.6498 39.8163C30.0534 39.9865 29.4172 39.7324 29.1022 39.1981L26.584 34.9274C25.4712 35.255 24.2935 35.3934 23.0986 35.3165Z" fill="#333333"/>
</svg>
