<svg width="48" height="48" viewBox="0 0 48 48" fill="none" xmlns="http://www.w3.org/2000/svg">
<path fill-rule="evenodd" clip-rule="evenodd" d="M37.998 35.5996C41.0908 35.5996 43.5977 33.0928 43.5977 30V18C43.5977 14.9072 41.0908 12.4004 37.998 12.4004H9.99805C6.90525 12.4004 4.39844 14.9072 4.39844 18V30C4.39844 33.0928 6.90525 35.5996 9.99805 35.5996H37.998ZM9.99805 32.4004C8.67256 32.4004 7.59766 31.3255 7.59766 30V18C7.59766 16.6745 8.67256 15.5996 9.99805 15.5996H37.998C39.3235 15.5996 40.3984 16.6745 40.3984 18V30C40.3984 31.3255 39.3235 32.4004 37.998 32.4004H34.5977V28C34.5977 27.1163 33.8817 26.4004 32.998 26.4004C32.1144 26.4004 31.3984 27.1163 31.3984 28V32.4004H25.5977V26C25.5977 25.1163 24.8817 24.4004 23.998 24.4004C23.1144 24.4004 22.3984 25.1163 22.3984 26V32.4004H16.5977V28C16.5977 27.1163 15.8817 26.4004 14.998 26.4004C14.1144 26.4004 13.3984 27.1163 13.3984 28V32.4004H9.99805Z" fill="#333333"/>
</svg>
