<svg width="48" height="48" viewBox="0 0 48 48" fill="none" xmlns="http://www.w3.org/2000/svg">
<path fill-rule="evenodd" clip-rule="evenodd" d="M23.998 12C25.1026 12 25.998 12.8954 25.998 14V19.1602H29.998C31.9863 19.1602 33.5977 20.7715 33.5977 22.7598V25.3945C35.9106 26.083 37.5977 28.2231 37.5977 30.7598V40.7598C37.5977 41.6434 36.8817 42.3594 35.998 42.3594C35.1144 42.3594 34.3984 41.6434 34.3984 40.7598V30.7598C34.3984 29.4343 33.3235 28.3594 31.998 28.3594H15.998C14.6726 28.3594 13.5977 29.4343 13.5977 30.7598V40.7598C13.5977 41.6434 12.8817 42.3594 11.998 42.3594C11.1144 42.3594 10.3984 41.6434 10.3984 40.7598V30.7598C10.3984 28.2231 12.0855 26.083 14.3984 25.3945V22.7598C14.3984 20.7715 16.0098 19.1602 17.998 19.1602H21.998V14C21.998 12.8954 22.8935 12 23.998 12ZM17.998 22.3594C17.7771 22.3594 17.5977 22.5389 17.5977 22.7598V25.1602H30.3984V22.7598C30.3984 22.5389 30.219 22.3594 29.998 22.3594H17.998Z" fill="#333333"/>
<path d="M23.998 31.7598C26.2072 31.7598 27.998 33.5506 27.998 35.7598V40.3594C27.998 41.4639 27.1026 42.3594 25.998 42.3594H21.998C20.8935 42.3594 19.998 41.4639 19.998 40.3594V35.7598C19.998 33.5506 21.7889 31.7598 23.998 31.7598Z" fill="#333333"/>
<path d="M23.998 6C25.1026 6 25.998 6.89543 25.998 8C25.998 9.10457 25.1026 10 23.998 10C22.8935 10 21.998 9.10457 21.998 8C21.998 6.89543 22.8935 6 23.998 6Z" fill="#333333"/>
</svg>
