<svg width="48" height="48" viewBox="0 0 48 48" fill="none" xmlns="http://www.w3.org/2000/svg">
<path d="M23.8359 5.40039C24.531 5.40067 25.147 5.84985 25.3594 6.51172L31.3301 25.1172L31.3418 25.1602L33.8516 33.8008H35.668C36.5516 33.8008 37.2695 34.5167 37.2695 35.4004C37.2693 36.2839 36.5515 37 35.668 37H29.8047C28.9216 36.9995 28.2053 36.2836 28.2051 35.4004C28.2051 34.517 28.9215 33.8013 29.8047 33.8008H30.5176L28.6055 27.207H19.0664L17.1523 33.8008H17.8652C18.7488 33.8009 19.4648 34.5168 19.4648 35.4004C19.4646 36.2838 18.7486 36.9998 17.8652 37H12.002C11.1184 37 10.4026 36.2839 10.4023 35.4004C10.4023 34.5167 11.1183 33.8008 12.002 33.8008H13.8203L16.3281 25.1602L16.334 25.1387L16.3418 25.1172L22.3125 6.51172L22.4102 6.27344C22.6798 5.74399 23.2276 5.40039 23.8359 5.40039ZM20.0586 24.0078H27.6113L23.834 12.2363L20.0586 24.0078Z" fill="#333333"/>
<path d="M10 43C10 41.3431 11.3431 40 13 40H35C36.6569 40 38 41.3431 38 43C38 44.6569 36.6569 46 35 46H13C11.3431 46 10 44.6569 10 43Z" fill="#3C5AAA"/>
<path fill-rule="evenodd" clip-rule="evenodd" d="M35 46H13C11.3431 46 10 44.6569 10 43C10 41.3431 11.3431 40 13 40H35L35.3066 40.0156C36.8194 40.1692 38 41.4467 38 43C38 44.5533 36.8194 45.8308 35.3066 45.9844L35 46ZM35 44H13C12.4477 44 12 43.5523 12 43C12 42.4477 12.4477 42 13 42H35C35.5523 42 36 42.4477 36 43C36 43.5523 35.5523 44 35 44Z" fill="black" fill-opacity="0.16"/>
</svg>
