<svg width="48" height="48" viewBox="0 0 48 48" fill="none" xmlns="http://www.w3.org/2000/svg">
<path fill-rule="evenodd" clip-rule="evenodd" d="M21.4498 5.87654C22.4134 3.6388 25.5862 3.63881 26.5499 5.87654L30.5012 15.0519L40.4485 15.9745C42.8745 16.1995 43.855 19.217 42.0245 20.825L34.5193 27.4183L36.7157 37.1638C37.2514 39.5406 34.6846 41.4055 32.5897 40.1616L23.9998 35.0611L15.41 40.1616C13.3151 41.4055 10.7482 39.5406 11.2839 37.1638L13.4804 27.4183L5.97512 20.825C4.1447 19.217 5.12515 16.1995 7.55115 15.9745L17.4985 15.0519L21.4498 5.87654ZM23.9998 8.04551L20.338 16.5486C19.9361 17.4819 19.0563 18.1211 18.0444 18.215L8.82594 19.07L15.7813 25.1801C16.5448 25.8509 16.8808 26.8851 16.6574 27.8765L14.6219 36.908L22.5823 32.1812C23.4561 31.6623 24.5436 31.6623 25.4174 32.1812L33.3778 36.908L31.3423 27.8765C31.1189 26.8851 31.4549 25.8509 32.2184 25.1801L39.1737 19.07L29.9553 18.215C28.9434 18.1211 28.0636 17.4819 27.6616 16.5486L23.9998 8.04551Z" fill="#333333"/>
</svg>
