<svg width="48" height="48" viewBox="0 0 48 48" fill="none" xmlns="http://www.w3.org/2000/svg">
<path fill-rule="evenodd" clip-rule="evenodd" d="M8.12981 5.86902C7.50497 5.24418 6.49191 5.24418 5.86707 5.86902C5.24223 6.49386 5.24223 7.50692 5.86707 8.13176L12.966 15.2307C12.4689 16.6313 12.1982 18.1394 12.1982 19.7111V24.0006C12.1982 24.9947 13.0041 25.8006 13.9982 25.8006C14.9924 25.8006 15.7982 24.9947 15.7982 24.0006V19.7111C15.7982 19.1907 15.8388 18.6799 15.9169 18.1816L18.1982 20.4629V26.0012C18.1982 26.9953 19.0041 27.8012 19.9982 27.8012C20.9924 27.8012 21.7982 26.9953 21.7982 26.0012V24.0629L24.2968 26.5615C23.9816 27.7993 23.215 28.8803 22.1933 29.3912C21.3041 29.8358 20.9437 30.917 21.3883 31.8062C21.8329 32.6953 22.9141 33.0557 23.8033 32.6111C25.2728 31.8764 26.3588 30.6849 27.0651 29.3298L30.4011 32.6658L27.0552 36.2386C25.883 37.4903 24.2447 38.2006 22.5298 38.2006H20.9982C18.1264 38.2006 15.7982 35.8725 15.7982 33.0006C15.7982 32.0065 14.9924 31.2006 13.9982 31.2006C13.0041 31.2006 12.1982 32.0065 12.1982 33.0006C12.1982 37.8607 16.1381 41.8006 20.9982 41.8006H22.5298C25.2405 41.8006 27.83 40.6779 29.6829 38.6994L32.9481 35.2128L39.8671 42.1318C40.4919 42.7566 41.505 42.7566 42.1298 42.1318C42.7546 41.5069 42.7546 40.4939 42.1298 39.869L35.0479 32.7871L35.0652 32.7642L32.4868 30.1857L32.47 30.2092L28.0418 25.781L28.0441 25.7431L18.5799 16.2789L18.572 16.3112L17.0957 14.8349L17.1101 14.8091L14.4994 12.1984L14.4835 12.2227L8.12981 5.86902Z" fill="#333333"/>
<path fill-rule="evenodd" clip-rule="evenodd" d="M19.7812 14.086L19.9201 13.9446C21.0719 12.7718 22.7795 12.2012 24.9982 12.2012C27.9849 12.2012 30.0253 13.4859 31.259 15.1994C32.4267 16.8212 32.7982 18.7132 32.7982 20.0012C32.7982 20.9953 31.9924 21.8012 30.9982 21.8012C30.0041 21.8012 29.1982 20.9953 29.1982 20.0012C29.1982 19.2893 28.9699 18.1813 28.3375 17.3029C27.7712 16.5164 26.8116 15.8012 24.9982 15.8012C23.4395 15.8012 22.7866 16.1605 22.4717 16.4881L22.3303 16.6351L19.7812 14.086ZM22.3275 16.3495C22.3419 16.3345 22.3569 16.3195 22.3724 16.3046C22.753 15.9386 23.4743 15.6012 24.9982 15.6012C23.4121 15.6012 22.6954 15.9667 22.3275 16.3495Z" fill="#333333"/>
<path fill-rule="evenodd" clip-rule="evenodd" d="M33.7441 28.049L33.8057 27.9211C35.3991 24.6119 35.8688 20.8193 35.0515 17.1412C34.1218 12.9577 30.4316 9.9668 26.1463 9.92349L25.6899 9.91887C22.9732 9.89141 20.5059 10.9721 18.7147 12.7387L18.5733 12.8782L16.0279 10.3328L16.1708 10.1913C18.6213 7.76648 22.0028 6.28142 25.7263 6.31906L26.1827 6.32367C32.1416 6.3839 37.273 10.543 38.5658 16.3603C39.6438 21.2114 38.8825 26.2261 36.5352 30.4788L36.4067 30.7116L33.7441 28.049ZM36.3603 30.3813C36.9711 29.2746 37.4736 28.1158 37.8629 26.9215C37.4949 28.0504 37.026 29.1476 36.4599 30.1991C36.4269 30.2602 36.3939 30.3205 36.3603 30.3813Z" fill="#333333"/>
</svg>
