<svg width="48" height="48" viewBox="0 0 48 48" fill="none" xmlns="http://www.w3.org/2000/svg">
<path d="M5.99805 32.4004C6.8817 32.4004 7.59766 33.1163 7.59766 34V38C7.59766 39.3255 8.67256 40.4004 9.99805 40.4004H13.998C14.8817 40.4004 15.5977 41.1163 15.5977 42C15.5977 42.8837 14.8817 43.5996 13.998 43.5996H9.99805C6.90525 43.5996 4.39844 41.0928 4.39844 38V34C4.39844 33.1163 5.11439 32.4004 5.99805 32.4004Z" fill="#333333"/>
<path d="M41.998 32.4004C42.8817 32.4004 43.5977 33.1163 43.5977 34V38C43.5977 41.0928 41.0908 43.5996 37.998 43.5996H33.998C33.1144 43.5996 32.3984 42.8837 32.3984 42C32.3984 41.1163 33.1144 40.4004 33.998 40.4004H37.998C39.3235 40.4004 40.3984 39.3255 40.3984 38V34C40.3984 33.1163 41.1144 32.4004 41.998 32.4004Z" fill="#333333"/>
<path fill-rule="evenodd" clip-rule="evenodd" d="M23.998 18.8008C26.8147 18.8008 29.0977 21.0837 29.0977 23.9004C29.0977 26.717 26.8147 29 23.998 29C21.1814 29 18.8984 26.717 18.8984 23.9004C18.8984 21.0837 21.1814 18.8008 23.998 18.8008ZM23.998 22C22.9487 22 22.0977 22.851 22.0977 23.9004C22.0977 24.9497 22.9487 25.8008 23.998 25.8008C25.0474 25.8008 25.8984 24.9497 25.8984 23.9004C25.8984 22.851 25.0474 22 23.998 22Z" fill="#333333"/>
<path fill-rule="evenodd" clip-rule="evenodd" d="M26.4414 11.9258C27.7553 11.9258 28.9654 12.6412 29.5977 13.793L30.7969 15.9746H34.5977C36.5859 15.9746 38.1992 17.588 38.1992 19.5762V29.9746C38.1992 31.9628 36.5859 33.5762 34.5977 33.5762H13.3984C11.4103 33.5761 9.79884 31.9628 9.79883 29.9746V19.5762C9.79881 17.5879 11.4102 15.9746 13.3984 15.9746H17.2012L18.4004 13.793C19.0326 12.6416 20.2412 11.9261 21.5547 11.9258H26.4414ZM21.5547 15.125C21.4093 15.1253 21.2753 15.2047 21.2051 15.332L19.5508 18.3457C19.2697 18.8574 18.7323 19.1758 18.1484 19.1758H13.3984C13.1775 19.1758 12.998 19.3553 12.998 19.5762V29.9746C12.998 30.1955 13.1776 30.375 13.3984 30.375H34.5977C34.8186 30.375 34.998 30.1955 34.998 29.9746V19.5762C34.998 19.3553 34.8186 19.1758 34.5977 19.1758H29.8477C29.264 19.1755 28.7262 18.8574 28.4453 18.3457L26.793 15.332C26.7227 15.2043 26.5873 15.125 26.4414 15.125H21.5547Z" fill="#333333"/>
<path d="M13.998 4.40039C14.8817 4.40039 15.5977 5.11634 15.5977 6C15.5977 6.88366 14.8817 7.59961 13.998 7.59961H9.99805C8.67256 7.59961 7.59766 8.67452 7.59766 10V14C7.59766 14.8837 6.8817 15.5996 5.99805 15.5996C5.11439 15.5996 4.39844 14.8837 4.39844 14V10C4.39844 6.90721 6.90525 4.40039 9.99805 4.40039H13.998Z" fill="#333333"/>
<path d="M37.998 4.40039C41.0908 4.40039 43.5977 6.90721 43.5977 10V14C43.5977 14.8837 42.8817 15.5996 41.998 15.5996C41.1144 15.5996 40.3984 14.8837 40.3984 14V10C40.3984 8.67452 39.3235 7.59961 37.998 7.59961H33.998C33.1144 7.59961 32.3984 6.88366 32.3984 6C32.3984 5.11634 33.1144 4.40039 33.998 4.40039H37.998Z" fill="#333333"/>
</svg>
