<svg width="48" height="48" viewBox="0 0 48 48" fill="none" xmlns="http://www.w3.org/2000/svg">
<path fill-rule="evenodd" clip-rule="evenodd" d="M23.6 4C18.8504 4 15 7.85035 15 12.6C15 17.3496 18.8504 21.2 23.6 21.2C28.3496 21.2 32.2 17.3496 32.2 12.6C32.2 7.85035 28.3496 4 23.6 4ZM18.2 12.6C18.2 9.61766 20.6177 7.2 23.6 7.2C26.5823 7.2 29 9.61766 29 12.6C29 15.5823 26.5823 18 23.6 18C20.6177 18 18.2 15.5823 18.2 12.6Z" fill="#333333"/>
<path fill-rule="evenodd" clip-rule="evenodd" d="M23.6004 24C19.5077 24 15.7237 24.9447 12.9072 26.5542C10.1361 28.1377 8.00038 30.5691 8.00038 33.6L8.00019 33.8064C7.99742 35.8519 7.99376 38.5563 10.3305 40.4895C11.4817 41.4419 13.0746 42.1046 15.1843 42.5385C17.3004 42.9736 20.0445 43.2 23.6004 43.2C27.1563 43.2 29.9004 42.9736 32.0164 42.5385C34.1262 42.1046 35.719 41.4419 36.8703 40.4895C39.207 38.5563 39.2033 35.8519 39.2006 33.8064L39.2004 33.6C39.2004 30.5691 37.0646 28.1377 34.2935 26.5542C31.4771 24.9447 27.693 24 23.6004 24ZM11.2004 33.6C11.2004 32.2132 12.1989 30.6446 14.4949 29.3325C16.7456 28.0464 19.9615 27.2 23.6004 27.2C27.2392 27.2 30.4552 28.0464 32.7059 29.3325C35.0019 30.6446 36.0004 32.2132 36.0004 33.6C36.0004 35.9508 35.9143 37.1272 34.8305 38.0239C34.2317 38.5192 33.1996 39.0282 31.3718 39.404C29.5504 39.7786 27.0445 40 23.6004 40C20.1563 40 17.6504 39.7786 15.8289 39.404C14.0012 39.0282 12.969 38.5192 12.3703 38.0239C11.2865 37.1272 11.2004 35.9508 11.2004 33.6Z" fill="#333333"/>
</svg>
