<svg width="48" height="48" viewBox="0 0 48 48" fill="none" xmlns="http://www.w3.org/2000/svg">
<path fill-rule="evenodd" clip-rule="evenodd" d="M38.161 14.4004C41.8534 14.4004 44.5352 17.9115 43.5636 21.4738L39.7454 35.4739C39.081 37.9102 36.8681 39.6004 34.3428 39.6004H9.99844C6.90564 39.6004 4.39844 37.0932 4.39844 34.0004V14.0004C4.39844 10.9076 6.90564 8.40039 9.99844 8.40039H17.3416C18.8268 8.40039 20.2512 8.99039 21.3014 10.0406L25.6612 14.4004H38.161ZM7.59844 14.0004C7.59844 12.6749 8.67295 11.6004 9.99844 11.6004H17.3416C17.9781 11.6004 18.5886 11.8532 19.0386 12.3033L21.1357 14.4004H16.2727C13.8679 14.4004 11.7316 15.9357 10.9649 18.215L7.59844 28.2229V14.0004ZM11.5633 36.4004H34.3428C35.4251 36.4004 36.3734 35.676 36.6582 34.6319L40.4764 20.6319C40.8928 19.1051 39.7435 17.6004 38.161 17.6004H16.2727C15.2421 17.6004 14.3265 18.2584 13.9979 19.2352L9.28858 33.2352C8.76542 34.7905 9.92243 36.4004 11.5633 36.4004Z" fill="#333333"/>
</svg>
