<svg width="48" height="48" viewBox="0 0 48 48" fill="none" xmlns="http://www.w3.org/2000/svg">
<path fill-rule="evenodd" clip-rule="evenodd" d="M10 14C10 11.7909 11.7909 10 14 10H18C20.2091 10 22 11.7909 22 14V34C22 36.2091 20.2091 38 18 38H14C11.7909 38 10 36.2091 10 34V14ZM14 13.2H18C18.4418 13.2 18.8 13.5582 18.8 14V34C18.8 34.4418 18.4418 34.8 18 34.8H14C13.5582 34.8 13.2 34.4418 13.2 34V14C13.2 13.5582 13.5582 13.2 14 13.2Z" fill="#333333"/>
<path fill-rule="evenodd" clip-rule="evenodd" d="M26 14C26 11.7909 27.7909 10 30 10H34C36.2091 10 38 11.7909 38 14V34C38 36.2091 36.2091 38 34 38H30C27.7909 38 26 36.2091 26 34V14ZM30 13.2H34C34.4418 13.2 34.8 13.5582 34.8 14V34C34.8 34.4418 34.4418 34.8 34 34.8H30C29.5582 34.8 29.2 34.4418 29.2 34V14C29.2 13.5582 29.5582 13.2 30 13.2Z" fill="#333333"/>
</svg>
