<svg width="48" height="48" viewBox="0 0 48 48" fill="none" xmlns="http://www.w3.org/2000/svg">
<path d="M25.9984 38.3994C25.1148 38.3994 24.3984 39.1158 24.3984 39.9994C24.3984 40.8831 25.1148 41.5994 25.9984 41.5994H35.9984C39.0912 41.5994 41.5984 39.0922 41.5984 35.9994V11.9994C41.5984 8.90662 39.0912 6.39941 35.9984 6.39941H25.9984C25.1148 6.39941 24.3984 7.11576 24.3984 7.99941C24.3984 8.88307 25.1148 9.59941 25.9984 9.59941L35.9984 9.59941C37.3239 9.59941 38.3984 10.6739 38.3984 11.9994L38.3984 35.9994C38.3984 37.3249 37.3239 38.3994 35.9984 38.3994H25.9984Z" fill="#333333"/>
<path d="M22.2026 14.9466C21.6207 14.2816 20.6098 14.2142 19.9448 14.7961C19.2798 15.378 19.2124 16.3888 19.7943 17.0538L24.4724 22.4002H7.99844C7.11478 22.4002 6.39844 23.1166 6.39844 24.0002C6.39844 24.8839 7.11478 25.6002 7.99844 25.6002L24.4724 25.6002L19.7943 30.9466C19.2124 31.6116 19.2798 32.6224 19.9448 33.2043C20.6098 33.7862 21.6207 33.7188 22.2026 33.0538L29.2026 25.0538C29.7304 24.4506 29.7304 23.5498 29.2026 22.9466L22.2026 14.9466Z" fill="#333333"/>
</svg>
