<svg width="48" height="48" viewBox="0 0 48 48" fill="none" xmlns="http://www.w3.org/2000/svg">
<path fill-rule="evenodd" clip-rule="evenodd" d="M20.4443 4.40039C16.1242 4.40039 12.6221 7.90252 12.6221 12.2226C12.6221 16.5427 16.1242 20.0448 20.4443 20.0448C24.7644 20.0448 28.2665 16.5427 28.2665 12.2226C28.2665 7.90252 24.7644 4.40039 20.4443 4.40039ZM15.8221 12.2226C15.8221 9.66983 17.8915 7.60039 20.4443 7.60039C22.9971 7.60039 25.0665 9.66983 25.0665 12.2226C25.0665 14.7754 22.9971 16.8448 20.4443 16.8448C17.8915 16.8448 15.8221 14.7754 15.8221 12.2226Z" fill="#333333"/>
<path d="M9.59888 30.8888C9.59888 29.7474 10.4233 28.4011 12.4378 27.2499C14.4069 26.1246 17.234 25.3777 20.4433 25.3777C21.695 25.3777 22.8886 25.4914 23.9958 25.6967C24.8234 24.7009 25.7968 23.8306 26.8833 23.1186C24.9403 22.5113 22.7447 22.1777 20.4433 22.1777C16.7802 22.1777 13.385 23.0229 10.8501 24.4715C8.3605 25.8942 6.39888 28.1033 6.39888 30.8888L6.39866 31.0855C6.39568 32.894 6.39158 35.3769 8.53454 37.1498C9.58856 38.0218 11.0356 38.6194 12.9266 39.0083C14.8239 39.3984 17.2763 39.6 20.4433 39.6C21.0742 39.6 21.6768 39.592 22.2523 39.5761C21.7782 38.5792 21.4274 37.5125 21.2193 36.3956C20.9669 36.3985 20.7083 36.4 20.4433 36.4C17.3881 36.4 15.1739 36.2034 13.5712 35.8739C11.9622 35.543 11.0759 35.0991 10.5743 34.6842C9.68499 33.9484 9.59888 32.9942 9.59888 30.8888Z" fill="#333333"/>
<path fill-rule="evenodd" clip-rule="evenodd" d="M33.999 44C39.5219 44 43.999 39.5229 43.999 34C43.999 28.4772 39.5219 24 33.999 24C28.4762 24 23.999 28.4772 23.999 34C23.999 39.5229 28.4762 44 33.999 44ZM28.9382 33.5007C29.5239 32.9148 30.4737 32.9147 31.0595 33.5004L32.4383 34.8788L37.3778 29.9393C37.9636 29.3536 38.9133 29.3536 39.4991 29.9393C40.0849 30.5251 40.0849 31.4749 39.4991 32.0607L33.4991 38.0607C32.9134 38.6464 31.9638 38.6465 31.378 38.0608L28.9385 35.622C28.3526 35.0363 28.3525 34.0865 28.9382 33.5007Z" fill="#333333"/>
</svg>
