<svg width="48" height="48" viewBox="0 0 48 48" fill="none" xmlns="http://www.w3.org/2000/svg">
<path fill-rule="evenodd" clip-rule="evenodd" d="M9.99844 10.4004C6.90564 10.4004 4.39844 12.9076 4.39844 16.0004V32.0004C4.39844 35.0932 6.90564 37.6004 9.99844 37.6004H37.9984C41.0912 37.6004 43.5984 35.0932 43.5984 32.0004V16.0004C43.5984 12.9076 41.0912 10.4004 37.9984 10.4004H9.99844ZM9.86484 13.604C9.90906 13.6016 9.95361 13.6004 9.99844 13.6004H37.9984C38.0433 13.6004 38.0878 13.6016 38.132 13.604L28.5239 23.2122C26.0246 25.7115 21.9723 25.7115 19.473 23.2122L9.86484 13.604ZM7.60209 15.8668C7.59967 15.911 7.59844 15.9556 7.59844 16.0004V32.0004C7.59844 33.3259 8.67295 34.4004 9.99844 34.4004H37.9984C39.3239 34.4004 40.3984 33.3259 40.3984 32.0004V16.0004C40.3984 15.9556 40.3972 15.911 40.3948 15.8668L30.7867 25.4749C27.0376 29.2239 20.9593 29.2239 17.2102 25.4749L7.60209 15.8668Z" fill="#333333"/>
</svg>
