<svg width="48" height="48" viewBox="0 0 48 48" fill="none" xmlns="http://www.w3.org/2000/svg">
<path fill-rule="evenodd" clip-rule="evenodd" d="M28 7.69922C30.3748 7.69922 32.3008 9.62518 32.3008 12C32.3008 13.9211 31.0396 15.546 29.3008 16.0977V18.6992H31.9004C32.4519 16.9601 34.0786 15.6992 36 15.6992C38.3748 15.6992 40.3008 17.6252 40.3008 20C40.3008 21.9211 39.0396 23.546 37.3008 24.0977V31.9004C39.0399 32.4519 40.3008 34.0786 40.3008 36C40.3008 38.3748 38.3748 40.3008 36 40.3008C34.0786 40.3008 32.4519 39.0399 31.9004 37.3008H24.0996C23.5481 39.0399 21.9214 40.3008 20 40.3008C17.6252 40.3008 15.6992 38.3748 15.6992 36C15.6992 34.0786 16.9601 32.4519 18.6992 31.9004V29.3008H16.0996C15.5481 31.0399 13.9214 32.3008 12 32.3008C9.62518 32.3008 7.69922 30.3748 7.69922 28C7.69922 26.0786 8.96013 24.4519 10.6992 23.9004V16.0977C8.96042 15.546 7.69922 13.9211 7.69922 12C7.69922 9.62518 9.62518 7.69922 12 7.69922C13.9214 7.69922 15.5481 8.96013 16.0996 10.6992H23.9004C24.4519 8.96013 26.0786 7.69922 28 7.69922ZM20 34.3008C19.0611 34.3008 18.3008 35.0611 18.3008 36C18.3008 36.9389 19.0611 37.6992 20 37.6992C20.9389 37.6992 21.6992 36.9389 21.6992 36C21.6992 35.0611 20.9389 34.3008 20 34.3008ZM36 34.3008C35.0611 34.3008 34.3008 35.0611 34.3008 36C34.3008 36.9389 35.0611 37.6992 36 37.6992C36.9389 37.6992 37.6992 36.9389 37.6992 36C37.6992 35.0611 36.9389 34.3008 36 34.3008ZM29.3008 23.9004C31.0399 24.4519 32.3008 26.0786 32.3008 28C32.3008 30.3748 30.3748 32.3008 28 32.3008C26.0786 32.3008 24.4519 31.0399 23.9004 29.3008H21.3008V31.9004C22.6294 32.3217 23.6783 33.3706 24.0996 34.6992H31.9004C32.3217 33.3706 33.3706 32.3217 34.6992 31.9004V24.0977C33.3708 23.6762 32.3217 22.6292 31.9004 21.3008H29.3008V23.9004ZM12 26.3008C11.0611 26.3008 10.3008 27.0611 10.3008 28C10.3008 28.9389 11.0611 29.6992 12 29.6992C12.9389 29.6992 13.6992 28.9389 13.6992 28C13.6992 27.0611 12.9389 26.3008 12 26.3008ZM28 26.3008C27.0611 26.3008 26.3008 27.0611 26.3008 28C26.3008 28.9389 27.0611 29.6992 28 29.6992C28.9389 29.6992 29.6992 28.9389 29.6992 28C29.6992 27.0611 28.9389 26.3008 28 26.3008ZM16.0996 13.3008C15.6783 14.6292 14.6292 15.6762 13.3008 16.0977V23.9004C14.6294 24.3217 15.6783 25.3706 16.0996 26.6992H23.9004C24.3217 25.3706 25.3706 24.3217 26.6992 23.9004V16.0977C25.3708 15.6762 24.3217 14.6292 23.9004 13.3008H16.0996ZM36 18.3008C35.0611 18.3008 34.3008 19.0611 34.3008 20C34.3008 20.9389 35.0611 21.6992 36 21.6992C36.9389 21.6992 37.6992 20.9389 37.6992 20C37.6992 19.0611 36.9389 18.3008 36 18.3008ZM12 10.3008C11.0611 10.3008 10.3008 11.0611 10.3008 12C10.3008 12.9389 11.0611 13.6992 12 13.6992C12.9389 13.6992 13.6992 12.9389 13.6992 12C13.6992 11.0611 12.9389 10.3008 12 10.3008ZM28 10.3008C27.0611 10.3008 26.3008 11.0611 26.3008 12C26.3008 12.9389 27.0611 13.6992 28 13.6992C28.9389 13.6992 29.6992 12.9389 29.6992 12C29.6992 11.0611 28.9389 10.3008 28 10.3008Z" fill="#333333"/>
</svg>
