<svg width="48" height="48" viewBox="0 0 48 48" fill="none" xmlns="http://www.w3.org/2000/svg">
<path d="M24.106 10.2674C18.288 10.2674 13.3109 13.8252 11.2575 18.863C10.924 19.6812 9.99021 20.0742 9.17192 19.7407C8.35363 19.4071 7.96067 18.4734 8.29421 17.6551C10.8257 11.4445 16.9532 7.06738 24.106 7.06738C29.6816 7.06738 34.6344 9.72683 37.7466 13.8419V10.0004C37.7466 9.11673 38.4629 8.40039 39.3466 8.40039C40.2302 8.40039 40.9466 9.11673 40.9466 10.0004V18.259C40.9466 19.1427 40.2302 19.859 39.3466 19.859H31.9991C31.1154 19.859 30.3991 19.1427 30.3991 18.259C30.3991 17.3754 31.1154 16.659 31.9991 16.659H35.8122C33.3564 12.8189 29.0329 10.2674 24.106 10.2674Z" fill="#333333"/>
<path d="M36.7398 29.804C34.6864 34.8418 29.7093 38.3996 23.8913 38.3996C18.9645 38.3996 14.6409 35.8481 12.1851 32.008H15.9983C16.8819 32.008 17.5983 31.2916 17.5983 30.408C17.5983 29.5243 16.8819 28.808 15.9983 28.808H8.65078C7.76713 28.808 7.05078 29.5243 7.05078 30.408V37.9996C7.05078 38.8833 7.76713 39.5996 8.65078 39.5996C9.53444 39.5996 10.2508 38.8833 10.2508 37.9996V34.8251C13.363 38.9402 18.3158 41.5996 23.8913 41.5996C31.0442 41.5996 37.1716 37.2225 39.7031 31.0119C40.0367 30.1936 39.6437 29.2599 38.8254 28.9263C38.0071 28.5928 37.0734 28.9857 36.7398 29.804Z" fill="#333333"/>
<path d="M26.6503 18.5459C26.6503 17.4413 25.7549 16.5459 24.6503 16.5459H24.2289C23.8456 16.5459 23.4703 16.656 23.1478 16.8632L19.8651 18.9721C19.5152 19.1969 19.3037 19.5843 19.3037 20.0001C19.3037 20.9652 20.37 21.5494 21.1833 21.0298L23.3666 19.6351C23.3793 19.6269 23.3941 19.6226 23.4092 19.6226C23.4529 19.6226 23.4884 19.658 23.4884 19.7018V30.4195C23.4884 31.2926 24.1962 32.0004 25.0693 32.0004C25.9425 32.0004 26.6503 31.2926 26.6503 30.4195V18.5459Z" fill="#333333"/>
</svg>
