<svg width="48" height="48" viewBox="0 0 48 48" fill="none" xmlns="http://www.w3.org/2000/svg">
<path d="M29.2852 18.9004C29.8927 18.9004 30.3848 19.3925 30.3848 20C30.3848 20.6075 29.8927 21.0996 29.2852 21.0996H26.8848V28C26.8848 28.6075 26.3927 29.0996 25.7852 29.0996C25.1776 29.0996 24.6855 28.6075 24.6855 28V21.0996H22.2852C21.6776 21.0996 21.1855 20.6075 21.1855 20C21.1855 19.3925 21.6776 18.9004 22.2852 18.9004H29.2852Z" fill="#333333"/>
<path d="M37.4043 19.3398C37.7687 18.8539 38.4593 18.7549 38.9453 19.1191C39.4312 19.4836 39.5302 20.1742 39.166 20.6602L36.6602 24L39.166 27.3398C39.5302 27.8258 39.4312 28.5164 38.9453 28.8809C38.4593 29.2451 37.7687 29.1461 37.4043 28.6602L35.2852 25.834L33.166 28.6602C32.8016 29.1461 32.111 29.2451 31.625 28.8809C31.1391 28.5164 31.0401 27.8258 31.4043 27.3398L33.9082 24L31.4043 20.6602C31.0401 20.1742 31.1391 19.4836 31.625 19.1191C32.111 18.7549 32.8016 18.8539 33.166 19.3398L35.2852 22.1641L37.4043 19.3398Z" fill="#333333"/>
<path fill-rule="evenodd" clip-rule="evenodd" d="M38.2852 11.4004C41.3779 11.4004 43.8848 13.9072 43.8848 17V31C43.8848 34.0928 41.378 36.5996 38.2852 36.5996H22.2852C19.1924 36.5996 16.6855 34.0928 16.6855 31V25.5996H12.1934C11.9386 26.4112 11.1808 27 10.2852 27H6.28516C5.18059 27 4.28516 26.1046 4.28516 25V23C4.28516 21.8954 5.18059 21 6.28516 21H10.2852C11.1808 21 11.9386 21.5888 12.1934 22.4004H16.6855V17C16.6855 13.9072 19.1924 11.4004 22.2852 11.4004H38.2852ZM22.2852 14.5996C20.9597 14.5996 19.8848 15.6745 19.8848 17V31C19.8848 32.3255 20.9597 33.4004 22.2852 33.4004H38.2852C39.6106 33.4004 40.6855 32.3255 40.6855 31V17C40.6855 15.6745 39.6106 14.5996 38.2852 14.5996H22.2852Z" fill="#333333"/>
</svg>
