<svg width="48" height="48" viewBox="0 0 48 48" fill="none" xmlns="http://www.w3.org/2000/svg">
<path d="M5.99805 30.4004C6.88159 30.4004 7.59747 31.1165 7.59766 32V38C7.59766 39.3254 8.67274 40.4002 9.99805 40.4004H15.998C16.8816 40.4004 17.5975 41.1165 17.5977 42C17.5977 42.8837 16.8817 43.5996 15.998 43.5996H9.99805C6.90543 43.5994 4.39844 41.0927 4.39844 38V32C4.39862 31.1166 5.11468 30.4006 5.99805 30.4004Z" fill="#333333"/>
<path d="M41.998 30.4004C42.8816 30.4004 43.5994 31.1165 43.5996 32V38C43.5996 41.0928 41.0908 43.5996 37.998 43.5996H31.998C31.1147 43.5993 30.3984 42.8835 30.3984 42C30.3986 41.1167 31.1148 40.4007 31.998 40.4004H37.998C39.3235 40.4004 40.3984 39.3255 40.3984 38V32C40.3986 31.1167 41.1148 30.4007 41.998 30.4004Z" fill="#333333"/>
<path fill-rule="evenodd" clip-rule="evenodd" d="M27.998 17.0684C30.3538 17.0689 32.2653 18.9782 32.2656 21.334C32.2651 23.6896 30.3537 25.601 27.998 25.6016C25.6423 25.6012 23.733 23.6897 23.7324 21.334C23.7328 18.9781 25.6421 17.0687 27.998 17.0684ZM27.998 20.2676C27.4095 20.2679 26.932 20.7454 26.9316 21.334C26.9322 21.9224 27.4096 22.4 27.998 22.4004C28.5864 22.3999 29.0639 21.9223 29.0645 21.334C29.0641 20.7455 28.5865 20.2681 27.998 20.2676Z" fill="#333333"/>
<path fill-rule="evenodd" clip-rule="evenodd" d="M33.332 13.0684C35.6879 13.0687 37.5973 14.9781 37.5977 17.334V30.668C37.5971 33.0237 35.6878 34.9352 33.332 34.9355H14.6641C12.3083 34.9352 10.399 33.0237 10.3984 30.668V17.334C10.3988 14.9781 12.3082 13.0687 14.6641 13.0684H33.332ZM14.6641 16.2676C14.0755 16.2679 13.598 16.7454 13.5977 17.334V28.3066L17.7031 24.5449C19.3871 23.0021 21.9885 23.0588 23.6035 24.6738L30.6641 31.7344H33.332C33.9205 31.734 34.3979 31.2564 34.3984 30.668V17.334C34.3981 16.7454 33.9206 16.2679 33.332 16.2676H14.6641ZM21.3398 26.9375C20.9362 26.5338 20.2862 26.5189 19.8652 26.9043L14.6035 31.7266C14.6237 31.7277 14.6436 31.7344 14.6641 31.7344H26.1367L21.3398 26.9375Z" fill="#333333"/>
<path d="M15.998 4.40039C16.8816 4.40039 17.5974 5.11652 17.5977 6C17.5977 6.88366 16.8817 7.59961 15.998 7.59961H9.99805C8.67287 7.59982 7.59787 8.67483 7.59766 10V16C7.59766 16.8837 6.8817 17.5996 5.99805 17.5996C5.11457 17.5994 4.39844 16.8835 4.39844 16V10C4.39865 6.90751 6.90556 4.4006 9.99805 4.40039H15.998Z" fill="#333333"/>
<path d="M37.998 4.40039C41.0907 4.40039 43.5994 6.90738 43.5996 10V16C43.5996 16.8837 42.8817 17.5996 41.998 17.5996C41.1147 17.5993 40.3984 16.8835 40.3984 16V10C40.3982 8.6747 39.3234 7.59961 37.998 7.59961H31.998C31.1147 7.59929 30.3984 6.88346 30.3984 6C30.3986 5.11672 31.1148 4.40071 31.998 4.40039H37.998Z" fill="#333333"/>
</svg>
