<svg width="48" height="48" viewBox="0 0 48 48" fill="none" xmlns="http://www.w3.org/2000/svg">
<path d="M23.998 7.40039C24.8817 7.40039 25.5977 8.11634 25.5977 9V39C25.5977 39.8837 24.8817 40.5996 23.998 40.5996C23.1144 40.5996 22.3984 39.8837 22.3984 39V9C22.3984 8.11634 23.1144 7.40039 23.998 7.40039Z" fill="#333333"/>
<path fill-rule="evenodd" clip-rule="evenodd" d="M4.39844 14.7754C4.39844 12.3182 6.80561 10.5823 9.13672 11.3594L17.1367 14.0254C18.6067 14.5154 19.5976 15.8919 19.5977 17.4414V30.5586C19.5976 32.1081 18.6067 33.4846 17.1367 33.9746L9.13672 36.6406C6.80563 37.4176 4.39847 35.6818 4.39844 33.2246V14.7754ZM8.125 14.3945C7.86599 14.3082 7.59766 14.5024 7.59766 14.7754V33.2246C7.59769 33.4976 7.86601 33.6918 8.125 33.6055L16.125 30.9375C16.288 30.8829 16.3984 30.7305 16.3984 30.5586V17.4414C16.3984 17.2695 16.288 17.1171 16.125 17.0625L8.125 14.3945Z" fill="#333333"/>
<path fill-rule="evenodd" clip-rule="evenodd" d="M38.8594 11.3594C41.1905 10.5823 43.5977 12.3182 43.5977 14.7754V33.2246C43.5976 35.6818 41.1905 37.4176 38.8594 36.6406L30.8594 33.9746C29.3894 33.4846 28.3985 32.1081 28.3984 30.5586V17.4414C28.3985 15.8919 29.3894 14.5154 30.8594 14.0254L38.8594 11.3594ZM39.8711 14.3945L31.8711 17.0625C31.7081 17.1171 31.5977 17.2695 31.5977 17.4414V30.5586C31.5977 30.7305 31.7081 30.8829 31.8711 30.9375L39.8711 33.6055C40.1301 33.6918 40.3984 33.4976 40.3984 33.2246V14.7754C40.3984 14.5024 40.1301 14.3082 39.8711 14.3945Z" fill="#333333"/>
</svg>
