<svg width="48" height="48" viewBox="0 0 48 48" fill="none" xmlns="http://www.w3.org/2000/svg">
<path d="M36.3984 40.8008C37.2819 40.801 37.998 41.5169 37.998 42.4004C37.9979 43.2838 37.2818 43.9998 36.3984 44H11.5977C10.7143 43.9998 9.99823 43.2838 9.99805 42.4004C9.99805 41.5169 10.7142 40.801 11.5977 40.8008H36.3984ZM35.998 28.4004C39.0908 28.4004 41.5977 30.9072 41.5977 34C41.5977 37.0928 39.0908 39.5996 35.998 39.5996H11.998C8.90525 39.5996 6.39844 37.0928 6.39844 34C6.39844 30.9072 8.90525 28.4004 11.998 28.4004H35.998ZM11.998 31.5996C10.6726 31.5996 9.59766 32.6745 9.59766 34C9.59766 35.3255 10.6726 36.4004 11.998 36.4004H35.998C37.3235 36.4004 38.3984 35.3255 38.3984 34C38.3984 32.6745 37.3235 31.5996 35.998 31.5996H11.998ZM23.998 4.40039C31.1894 4.40039 35.4048 12.4952 31.2812 18.3867L25.3301 26.8887C24.6829 27.8126 23.3131 27.8125 22.666 26.8887L16.7148 18.3867C12.5914 12.4952 16.8068 4.40045 23.998 4.40039ZM23.998 7.59961C19.3956 7.59967 16.6989 12.7802 19.3379 16.5508L23.998 23.209L28.6582 16.5508C31.2973 12.7802 28.6006 7.59961 23.998 7.59961Z" fill="#333333"/>
</svg>
