<svg width="48" height="48" viewBox="0 0 48 48" fill="none" xmlns="http://www.w3.org/2000/svg">
<path fill-rule="evenodd" clip-rule="evenodd" d="M15.9984 8.40039C9.59194 8.40039 4.39844 13.5939 4.39844 20.0004V36.0004C4.39844 37.9886 6.01021 39.6004 7.99844 39.6004H39.9984C41.9867 39.6004 43.5984 37.9886 43.5984 36.0004V20.0004C43.5984 13.5939 38.4049 8.40039 31.9984 8.40039H15.9984ZM19.3984 19.4004H7.61954C7.92718 15.0412 11.561 11.6004 15.9984 11.6004H31.9984C36.4359 11.6004 40.0697 15.0412 40.3773 19.4004H28.5984V18.0004C28.5984 16.0122 26.9867 14.4004 24.9984 14.4004H22.9984C21.0102 14.4004 19.3984 16.0122 19.3984 18.0004V19.4004ZM19.3984 22.6004H15.5984V36.4004H32.3984V22.6004H28.5984V26.0004C28.5984 27.9886 26.9867 29.6004 24.9984 29.6004H22.9984C21.0102 29.6004 19.3984 27.9886 19.3984 26.0004V22.6004ZM25.3984 22.6004V26.0004C25.3984 26.2213 25.2194 26.4004 24.9984 26.4004H22.9984C22.7775 26.4004 22.5984 26.2213 22.5984 26.0004V22.6004H25.3984ZM25.3984 19.4004H22.5984V18.0004C22.5984 17.7795 22.7775 17.6004 22.9984 17.6004H24.9984C25.2194 17.6004 25.3984 17.7795 25.3984 18.0004V19.4004ZM35.5984 22.6004H40.3984V36.0004C40.3984 36.2213 40.2193 36.4004 39.9984 36.4004H35.5984V22.6004ZM12.3984 22.6004V36.4004H7.99844C7.77752 36.4004 7.59844 36.2213 7.59844 36.0004V22.6004H12.3984Z" fill="#333333"/>
</svg>
