<svg width="48" height="48" viewBox="0 0 48 48" fill="none" xmlns="http://www.w3.org/2000/svg">
<path fill-rule="evenodd" clip-rule="evenodd" d="M20.4459 7.70078C17.9483 7.70078 15.9236 9.72545 15.9236 12.223C15.9236 14.7206 17.9483 16.7452 20.4459 16.7452C22.9434 16.7452 24.9681 14.7206 24.9681 12.223C24.9681 9.72545 22.9434 7.70078 20.4459 7.70078ZM12.5236 12.223C12.5236 7.84768 16.0705 4.30078 20.4459 4.30078C24.8212 4.30078 28.3681 7.84768 28.3681 12.223C28.3681 16.5983 24.8212 20.1452 20.4459 20.1452C16.0705 20.1452 12.5236 16.5983 12.5236 12.223Z" fill="#333333"/>
<path fill-rule="evenodd" clip-rule="evenodd" d="M26.9949 23.0483C25.0216 22.4219 22.7873 22.0779 20.4457 22.0779C16.7684 22.0779 13.3555 22.9262 10.8029 24.3849C8.29845 25.816 6.30129 28.0522 6.30129 30.889L6.30104 31.0926C6.29775 32.896 6.29313 35.4235 8.4732 37.227C9.54449 38.1133 11.009 38.7157 12.9089 39.1064C14.8154 39.4985 17.2752 39.7002 20.4457 39.7002C21.0935 39.7002 21.7116 39.6917 22.3014 39.675C21.789 38.6205 21.415 37.4862 21.2029 36.296C20.9565 36.2987 20.7042 36.3002 20.4457 36.3002C17.394 36.3002 15.1872 36.1038 13.5937 35.7761C11.9936 35.447 11.1248 35.008 10.6405 34.6073C9.79278 33.906 9.70129 33.0033 9.70129 30.889C9.70129 29.799 10.4901 28.4796 12.4898 27.3369C14.4413 26.2217 17.2506 25.4779 20.4457 25.4779C21.6713 25.4779 22.8401 25.5874 23.9255 25.7852C24.7959 24.7191 25.8321 23.7937 26.9949 23.0483Z" fill="#333333"/>
<path fill-rule="evenodd" clip-rule="evenodd" d="M44.001 34.0008C44.001 39.5236 39.5238 44.0008 34.001 44.0008C28.4781 44.0008 24.001 39.5236 24.001 34.0008C24.001 28.4779 28.4781 24.0008 34.001 24.0008C39.5238 24.0008 44.001 28.4779 44.001 34.0008ZM35.701 27.7008C35.701 26.7619 34.9399 26.0008 34.001 26.0008C33.0621 26.0008 32.301 26.7619 32.301 27.7008L32.301 33.7008C32.301 34.6397 33.0621 35.4008 34.001 35.4008C34.9399 35.4008 35.701 34.6397 35.701 33.7008V27.7008ZM34.001 41.7008C32.901 41.7008 32.001 40.8008 32.001 39.7008C32.001 38.6008 32.901 37.7008 34.001 37.7008C35.101 37.7008 36.001 38.6008 36.001 39.7008C36.001 40.8008 35.101 41.7008 34.001 41.7008Z" fill="#333333"/>
</svg>
