<svg width="48" height="48" viewBox="0 0 48 48" fill="none" xmlns="http://www.w3.org/2000/svg">
<path d="M22.0008 38.2998C22.9397 38.2998 23.7008 39.0609 23.7008 39.9998C23.7008 40.9387 22.9397 41.6998 22.0008 41.6998H12.0008C8.85276 41.6998 6.30078 39.1478 6.30078 35.9998V11.9998C6.30078 8.85178 8.85276 6.2998 12.0008 6.2998H22.0008C22.9397 6.2998 23.7008 7.06092 23.7008 7.99981C23.7008 8.93869 22.9397 9.69981 22.0008 9.69981L12.0008 9.69981C10.7305 9.69981 9.70078 10.7296 9.70078 11.9998L9.70078 35.9998C9.70078 37.2701 10.7305 38.2998 12.0008 38.2998H22.0008Z" fill="#333333"/>
<path d="M34.2798 14.8803C33.6615 14.1738 32.5875 14.1022 31.8809 14.7204C31.1744 15.3387 31.1027 16.4127 31.721 17.1193L36.254 22.2998L20.0004 22.2998C19.0615 22.2998 18.3004 23.0609 18.3004 23.9998C18.3004 24.9387 19.0615 25.6998 20.0004 25.6998H36.254L31.721 30.8803C31.1027 31.5869 31.1744 32.6609 31.8809 33.2792C32.5875 33.8974 33.6615 33.8258 34.2798 33.1193L41.2798 25.1193C41.8406 24.4783 41.8406 23.5213 41.2798 22.8803L34.2798 14.8803Z" fill="#333333"/>
</svg>
