<svg width="48" height="48" viewBox="0 0 48 48" fill="none" xmlns="http://www.w3.org/2000/svg">
<path fill-rule="evenodd" clip-rule="evenodd" d="M42.2795 8.42423C38.1036 7.68203 31.1374 7.211 24.5457 8.65124C17.9731 10.0873 11.4311 13.5174 8.7805 20.8445C8.56951 21.3469 8.1734 22.4924 8.10546 23.611C7.772 27.0803 8.6901 30.6842 10.96 33.6829C11.1053 33.8749 11.2545 34.0622 11.4074 34.2448C10.3931 36.7535 9.72048 39.3266 9.41115 41.8013C9.30154 42.6781 9.92351 43.4778 10.8003 43.5874C11.6772 43.697 12.4768 43.075 12.5864 42.1982C12.8162 40.3599 13.2692 38.4712 13.9288 36.6114C18.9329 40.282 25.9438 40.4125 31.1453 36.4751C34.2966 34.0898 36.192 30.6566 36.7118 27.0327L36.7129 27.0248C36.944 25.3547 37.3766 23.8608 37.5513 23.3549C39.5672 17.9233 41.1991 14.2142 43.3467 10.8628C43.6352 10.4125 43.6797 9.84795 43.4653 9.35808C43.2509 8.8682 42.806 8.5178 42.2795 8.42423ZM15.2165 33.5532C19.1325 36.8655 24.9534 37.1488 29.214 33.9237C31.665 32.0684 33.1379 29.4042 33.5437 26.5823C33.8092 24.665 34.3021 22.9546 34.5343 22.288L34.5452 22.2578C36.2031 17.7896 37.6538 14.3319 39.3921 11.2367C35.5001 10.7841 30.2103 10.6891 25.2287 11.7775C19.1559 13.1043 13.8842 16.0959 11.7765 21.9697C11.765 22.0016 11.7526 22.0331 11.7391 22.0642C11.6851 22.1891 11.5789 22.47 11.4823 22.8181C11.3845 23.1702 11.3146 23.5266 11.2986 23.8213C11.2974 23.8447 11.2956 23.8681 11.2933 23.8914C11.0562 26.2999 11.5928 28.7868 12.9595 30.9541C15.5227 26.2339 19.3505 22.035 24.2833 19.5686C25.0736 19.1735 26.0347 19.4938 26.4299 20.2842C26.8251 21.0745 26.5047 22.0356 25.7143 22.4308C21.089 24.7435 17.496 28.9052 15.2165 33.5532Z" fill="#333333"/>
</svg>
