<svg width="48" height="48" viewBox="0 0 48 48" fill="none" xmlns="http://www.w3.org/2000/svg">
<path d="M21.998 6.40039C22.8817 6.40039 23.5977 7.11634 23.5977 8C23.5977 8.88366 22.8817 9.59961 21.998 9.59961C15.1497 9.59961 9.59766 15.1517 9.59766 22C9.59766 28.8483 15.1497 34.4004 21.998 34.4004C26.9422 34.4004 31.2132 31.5056 33.2051 27.3125C33.5844 26.5147 34.5399 26.1756 35.3379 26.5547C36.1358 26.934 36.4748 27.8895 36.0957 28.6875C35.5573 29.8207 34.8836 30.8769 34.0996 31.8398L41.1289 38.8691C41.7536 39.494 41.7537 40.5061 41.1289 41.1309C40.5041 41.7557 39.492 41.7556 38.8672 41.1309L31.8379 34.1016C29.1539 36.2864 25.7306 37.5996 21.998 37.5996C13.3824 37.5996 6.39844 30.6156 6.39844 22C6.39844 13.3844 13.3824 6.40039 21.998 6.40039Z" fill="#333333"/>
<path d="M30.8691 5C31.362 5.00038 31.609 5.28817 31.7324 5.74023C31.7815 5.97165 31.8294 6.19577 31.875 6.41211C33.1679 12.5432 33.2097 12.7438 40.0859 14.1348C40.5797 14.2171 40.8672 14.5063 40.8672 15C40.8672 15.4939 40.5797 15.7811 40.0859 15.8633C33.0406 17.1996 33.0074 17.3813 31.793 23.9336C31.7732 24.0404 31.7529 24.1495 31.7324 24.2598C31.609 24.7118 31.362 24.9996 30.8691 25C30.3754 25 30.1274 24.7121 30.0039 24.2598C29.9861 24.1638 29.9685 24.0679 29.9512 23.9746C28.7291 17.3843 28.7105 17.2836 21.6504 15.8633C21.1978 15.7811 20.8692 15.4939 20.8691 15C20.8691 14.5063 21.1977 14.2171 21.6504 14.1348C28.528 12.7515 28.5725 12.5457 29.8418 6.51367C29.8939 6.26608 29.9471 6.00794 30.0039 5.74023C30.1274 5.28787 30.3754 5 30.8691 5Z" fill="#333333"/>
</svg>
