<svg width="48" height="48" viewBox="0 0 48 48" fill="none" xmlns="http://www.w3.org/2000/svg">
<path d="M17.998 30C17.9978 30.8833 17.2818 31.5994 16.3984 31.5996H11.5977C10.7145 31.5991 9.99826 30.8832 9.99805 30C9.99824 29.1168 10.7145 28.4009 11.5977 28.4004H16.3984C17.2818 28.4006 17.9978 29.1166 17.998 30Z" fill="#333333"/>
<path d="M31.998 23C31.998 24.1046 31.1026 25 29.998 25C28.8937 24.9997 27.998 24.1044 27.998 23C27.998 21.8956 28.8937 21.0003 29.998 21C31.1026 21 31.998 21.8954 31.998 23Z" fill="#333333"/>
<path fill-rule="evenodd" clip-rule="evenodd" d="M43.5977 34C43.5977 37.0928 41.0908 39.5996 37.998 39.5996H35.998V41.5996C35.998 42.483 35.2818 43.1988 34.3984 43.1992C33.5152 43.1987 32.7988 42.483 32.7988 41.5996V39.5996H15.1973V41.5996C15.1973 42.4833 14.4813 43.1992 13.5977 43.1992C12.7144 43.1987 11.998 42.483 11.998 41.5996V39.5996H9.99805C6.90548 39.5993 4.39844 37.0926 4.39844 34V26C4.39844 22.9074 6.90548 20.4007 9.99805 20.4004H22.4336C23.5129 17.259 26.4904 15.0002 29.998 15C33.5058 15 36.4831 17.2589 37.5625 20.4004H37.998C41.0908 20.4004 43.5977 22.9072 43.5977 26V34ZM40.3984 26C40.3984 24.6745 39.3235 23.5996 37.998 23.5996H37.9746C37.6679 27.7378 34.2146 31 29.998 31C25.7817 30.9997 22.3282 27.7376 22.0215 23.5996H9.99805C8.67279 23.5999 7.59766 24.6747 7.59766 26V34C7.59766 35.3253 8.67279 36.4001 9.99805 36.4004H37.998C39.3235 36.4004 40.3984 35.3255 40.3984 34V26ZM34.998 23C34.998 20.2386 32.7595 18 29.998 18C27.2368 18.0003 24.998 20.2387 24.998 23C24.998 25.7613 27.2368 27.9997 29.998 28C32.7595 28 34.998 25.7614 34.998 23Z" fill="#333333"/>
<path d="M41.0645 8.14258C41.6749 8.78034 41.6525 9.79307 41.0156 10.4043C40.3776 11.0155 39.3633 10.9952 38.752 10.3574C36.5325 8.0405 33.412 6.59979 29.9531 6.59961C26.4944 6.59978 23.3738 8.04067 21.1543 10.3574C20.5431 10.9948 19.5305 11.015 18.8926 10.4043C18.2549 9.79298 18.2326 8.78055 18.8438 8.14258C21.6418 5.222 25.5863 3.40056 29.9531 3.40039C34.3201 3.40057 38.2664 5.22172 41.0645 8.14258Z" fill="#333333"/>
<path d="M36.5625 11.8809C37.1808 12.5119 37.17 13.5241 36.5391 14.1426C35.9081 14.7603 34.8957 14.7515 34.2773 14.1211C33.1761 12.9978 31.6459 12.3027 29.9512 12.3027C28.2567 12.303 26.726 12.998 25.625 14.1211C25.0063 14.751 23.9939 14.7608 23.3633 14.1426C22.7327 13.5243 22.7223 12.5119 23.3398 11.8809C25.0179 10.1691 27.3622 9.10374 29.9512 9.10352C32.5404 9.10352 34.8842 10.1689 36.5625 11.8809Z" fill="#333333"/>
</svg>
