<svg width="48" height="48" viewBox="0 0 48 48" fill="none" xmlns="http://www.w3.org/2000/svg">
<path d="M32.3285 18.3305C32.9534 17.7057 33.9664 17.7057 34.5913 18.3305C35.2161 18.9554 35.2161 19.9684 34.5913 20.5933L24.0065 31.1781C22.6006 32.584 20.3212 32.584 18.9153 31.1781L14.868 27.1308C14.2431 26.5059 14.2431 25.4929 14.868 24.868C15.4928 24.2432 16.5059 24.2432 17.1307 24.868L21.178 28.9154C21.3343 29.0716 21.5875 29.0716 21.7437 28.9154L32.3285 18.3305Z" fill="#333333"/>
<path fill-rule="evenodd" clip-rule="evenodd" d="M23.9984 4.40039C13.1737 4.40039 4.39844 13.1756 4.39844 24.0004C4.39844 34.8252 13.1737 43.6004 23.9984 43.6004C34.8232 43.6004 43.5984 34.8252 43.5984 24.0004C43.5984 13.1756 34.8232 4.40039 23.9984 4.40039ZM7.59844 24.0004C7.59844 14.9429 14.941 7.60039 23.9984 7.60039C33.0559 7.60039 40.3984 14.9429 40.3984 24.0004C40.3984 33.0579 33.0559 40.4004 23.9984 40.4004C14.941 40.4004 7.59844 33.0579 7.59844 24.0004Z" fill="#333333"/>
</svg>
