<svg width="48" height="48" viewBox="0 0 48 48" fill="none" xmlns="http://www.w3.org/2000/svg">
<path fill-rule="evenodd" clip-rule="evenodd" d="M11.9984 7.5999C10.673 7.5999 9.59844 8.67442 9.59844 9.9999V37.9999C9.59844 39.3254 10.673 40.3999 11.9984 40.3999H35.9984C37.3239 40.3999 38.3984 39.3254 38.3984 37.9999V18.5999H29.9984C28.5625 18.5999 27.3984 17.4358 27.3984 15.9999V7.5999H11.9984ZM30.5984 9.86264L36.1357 15.3999H30.5984V9.86264ZM6.39844 9.9999C6.39844 6.90711 8.90564 4.3999 11.9984 4.3999H28.9984C29.4228 4.3999 29.8298 4.56847 30.1298 4.86853L41.1298 15.8685C41.4299 16.1686 41.5984 16.5756 41.5984 16.9999V37.9999C41.5984 41.0927 39.0912 43.5999 35.9984 43.5999H11.9984C8.90564 43.5999 6.39844 41.0927 6.39844 37.9999V9.9999Z" fill="#333333"/>
<path fill-rule="evenodd" clip-rule="evenodd" d="M19.9086 34.4006V20.5097H25.4734C26.5162 20.5097 27.4309 20.7088 28.201 21.1265C28.9644 21.5364 29.554 22.1122 29.9591 22.8511C30.367 23.5831 30.5651 24.4186 30.5651 25.3457C30.5651 26.2742 30.3643 27.1107 29.951 27.8434C29.536 28.5792 28.9341 29.1503 28.1575 29.5549C27.3798 29.9624 26.457 30.1563 25.4031 30.1563H23.4763V34.4006H19.9086ZM26.0872 23.8013C25.812 23.657 25.4379 23.5722 24.9434 23.5722H23.477V27.1379H24.9562C25.4456 27.1379 25.8144 27.0534 26.0846 26.9102C26.3681 26.7579 26.5673 26.5565 26.6978 26.3052C26.8382 26.0382 26.9149 25.7206 26.9149 25.3455C26.9149 24.9651 26.8388 24.6534 26.7008 24.3976L26.6978 24.3921C26.5681 24.1424 26.3709 23.9466 26.0906 23.803L26.0872 23.8013Z" fill="#333333"/>
</svg>
