<svg width="48" height="48" viewBox="0 0 48 48" fill="none" xmlns="http://www.w3.org/2000/svg">
<path fill-rule="evenodd" clip-rule="evenodd" d="M22.9395 8.36133C23.4916 7.96019 24.2157 7.90997 24.8105 8.21094L25.0566 8.36133L38.5449 18.1621C39.1753 18.6205 39.44 19.4325 39.1992 20.1738L34.0469 36.0312C33.8057 36.7725 33.1135 37.2754 32.334 37.2754H15.6621C14.8826 37.2754 14.1904 36.7725 13.9492 36.0312L8.79688 20.1738C8.55629 19.4327 8.82116 18.6205 9.45117 18.1621L22.9395 8.36133ZM12.1543 20.1504L16.6797 34.0742H31.3184L35.8418 20.1523L23.998 11.5449L12.1543 20.1504Z" fill="#333333"/>
<path fill-rule="evenodd" clip-rule="evenodd" d="M23.998 4.40039C34.8228 4.40039 43.5977 13.1752 43.5977 24C43.5977 29.2591 41.525 34.0377 38.1543 37.5566C34.5885 41.2789 29.5626 43.5996 23.998 43.5996C13.1733 43.5996 4.39844 34.8248 4.39844 24C4.39844 13.1752 13.1733 4.40039 23.998 4.40039ZM23.998 7.59961C14.9406 7.59961 7.59766 14.9425 7.59766 24C7.59766 33.0575 14.9406 40.4004 23.998 40.4004C28.6541 40.4004 32.8546 38.4617 35.8418 35.3438C38.665 32.3966 40.3984 28.4019 40.3984 24C40.3984 14.9425 33.0555 7.59961 23.998 7.59961Z" fill="#333333"/>
</svg>
