<svg width="48" height="48" viewBox="0 0 48 48" fill="none" xmlns="http://www.w3.org/2000/svg">
<path fill-rule="evenodd" clip-rule="evenodd" d="M36.0016 11.6004C37.327 11.6004 38.4016 12.6749 38.4016 14.0004V34.0004C38.4016 35.3259 37.327 36.4004 36.0016 36.4004H32.6016V11.6004H36.0016ZM29.4016 11.6004V36.4004H12.0016C10.6761 36.4004 9.60156 35.3259 9.60156 34.0004V14.0004C9.60156 12.6749 10.6761 11.6004 12.0016 11.6004H29.4016ZM41.6016 14.0004C41.6016 10.9076 39.0944 8.40039 36.0016 8.40039H12.0016C8.90877 8.40039 6.40157 10.9076 6.40157 14.0004V34.0004C6.40157 37.0932 8.90877 39.6004 12.0016 39.6004H36.0016C39.0944 39.6004 41.6016 37.0932 41.6016 34.0004V14.0004Z" fill="#333333"/>
</svg>
