<svg width="48" height="48" viewBox="0 0 48 48" fill="none" xmlns="http://www.w3.org/2000/svg">
<path fill-rule="evenodd" clip-rule="evenodd" d="M25.4297 12.4004C24.695 8.97132 21.6469 6.40039 17.9984 6.40039C14.3499 6.40039 11.3019 8.97132 10.5672 12.4004H7.99844C7.11478 12.4004 6.39844 13.1167 6.39844 14.0004C6.39844 14.884 7.11478 15.6004 7.99844 15.6004H10.5672C11.3019 19.0295 14.3499 21.6004 17.9984 21.6004C21.6469 21.6004 24.695 19.0295 25.4297 15.6004H39.9984C40.8821 15.6004 41.5984 14.884 41.5984 14.0004C41.5984 13.1167 40.8821 12.4004 39.9984 12.4004H25.4297ZM13.5984 14.0004C13.5984 11.5703 15.5684 9.60039 17.9984 9.60039C20.4285 9.60039 22.3984 11.5703 22.3984 14.0004C22.3984 16.4304 20.4285 18.4004 17.9984 18.4004C15.5684 18.4004 13.5984 16.4304 13.5984 14.0004Z" fill="#333333"/>
<path fill-rule="evenodd" clip-rule="evenodd" d="M37.4297 32.4004C36.695 28.9713 33.6469 26.4004 29.9984 26.4004C26.3499 26.4004 23.3019 28.9713 22.5672 32.4004H7.99844C7.11478 32.4004 6.39844 33.1167 6.39844 34.0004C6.39844 34.884 7.11478 35.6004 7.99844 35.6004H22.5672C23.3019 39.0295 26.3499 41.6004 29.9984 41.6004C33.6469 41.6004 36.695 39.0295 37.4297 35.6004H39.9984C40.8821 35.6004 41.5984 34.884 41.5984 34.0004C41.5984 33.1167 40.8821 32.4004 39.9984 32.4004H37.4297ZM25.5984 34.0004C25.5984 31.5703 27.5684 29.6004 29.9984 29.6004C32.4285 29.6004 34.3984 31.5703 34.3984 34.0004C34.3984 36.4304 32.4285 38.4004 29.9984 38.4004C27.5684 38.4004 25.5984 36.4304 25.5984 34.0004Z" fill="#333333"/>
</svg>
