<svg width="48" height="48" viewBox="0 0 48 48" fill="none" xmlns="http://www.w3.org/2000/svg">
<path fill-rule="evenodd" clip-rule="evenodd" d="M17.1465 16C12.7282 16 9.14648 19.5817 9.14648 24C9.14648 28.4183 12.7282 32 17.1465 32C21.5648 32 25.1465 28.4183 25.1465 24C25.1465 19.5817 21.5648 16 17.1465 16ZM17.1465 19.1992C19.7975 19.1992 21.9473 21.349 21.9473 24C21.9473 26.651 19.7975 28.8008 17.1465 28.8008C14.4955 28.8008 12.3457 26.651 12.3457 24C12.3457 21.349 14.4955 19.1992 17.1465 19.1992Z" fill="#333333"/>
<path fill-rule="evenodd" clip-rule="evenodd" d="M17.1465 10.4004C9.63541 10.4004 3.54688 16.4889 3.54688 24C3.54688 31.5111 9.63541 37.5996 17.1465 37.5996H29.1465C36.6576 37.5996 42.7461 31.5111 42.7461 24C42.7461 16.4889 36.6576 10.4004 29.1465 10.4004H17.1465ZM29.1465 13.5996C34.8902 13.5996 39.5469 18.2562 39.5469 24C39.5469 29.7438 34.8902 34.4004 29.1465 34.4004H17.1465C11.4027 34.4004 6.74609 29.7438 6.74609 24C6.74609 18.2562 11.4027 13.5996 17.1465 13.5996H29.1465Z" fill="#333333"/>
</svg>
