<svg width="48" height="48" viewBox="0 0 48 48" fill="none" xmlns="http://www.w3.org/2000/svg">
<path d="M13.871 12.1318C13.2461 11.5069 13.2461 10.4939 13.871 9.86902C14.4958 9.24418 15.5089 9.24418 16.1337 9.86902L25.0023 18.7377L33.871 9.86902C34.4958 9.24418 35.5089 9.24418 36.1337 9.86902C36.7586 10.4939 36.7586 11.5069 36.1337 12.1318L26.1337 22.1318C25.5089 22.7566 24.4958 22.7566 23.871 22.1318L13.871 12.1318Z" fill="#333333"/>
<path d="M13.871 28.1318C13.2461 27.5069 13.2461 26.4939 13.871 25.869C14.4958 25.2442 15.5089 25.2442 16.1337 25.869L25.0023 34.7377L33.871 25.869C34.4958 25.2442 35.5089 25.2442 36.1337 25.869C36.7586 26.4939 36.7586 27.5069 36.1337 28.1318L26.1337 38.1318C25.5089 38.7566 24.4958 38.7566 23.871 38.1318L13.871 28.1318Z" fill="#333333"/>
</svg>
