<svg width="48" height="48" viewBox="0 0 48 48" fill="none" xmlns="http://www.w3.org/2000/svg">
<path d="M32.5977 22.9131C31.714 22.9131 30.9977 22.1968 30.9977 21.3131L30.9977 17.1993H26.9981C26.1144 17.1993 25.3981 16.483 25.3981 15.5993C25.3981 14.7156 26.1144 13.9993 26.9981 13.9993H30.9977L30.9977 9.99941C30.9977 9.11576 31.714 8.39941 32.5977 8.39941C33.4813 8.39941 34.1977 9.11576 34.1977 9.99941L34.1977 13.9993H38.3118C39.1955 13.9993 39.9118 14.7156 39.9118 15.5993C39.9118 16.483 39.1955 17.1993 38.3118 17.1993H34.1977L34.1977 21.3131C34.1977 22.1968 33.4813 22.9131 32.5977 22.9131Z" fill="#333333"/>
<path fill-rule="evenodd" clip-rule="evenodd" d="M8.39844 12.2001C8.39844 10.1014 10.0998 8.40008 12.1984 8.40008H18.7984C20.8971 8.40008 22.5984 10.1014 22.5984 12.2001V18.8001C22.5984 20.8988 20.8971 22.6001 18.7984 22.6001H12.1984C10.0998 22.6001 8.39844 20.8988 8.39844 18.8001V12.2001ZM12.1984 11.6001C11.8671 11.6001 11.5984 11.8687 11.5984 12.2001V18.8001C11.5984 19.1314 11.8671 19.4001 12.1984 19.4001H18.7984C19.1298 19.4001 19.3984 19.1314 19.3984 18.8001V12.2001C19.3984 11.8687 19.1298 11.6001 18.7984 11.6001H12.1984Z" fill="#333333"/>
<path fill-rule="evenodd" clip-rule="evenodd" d="M8.39844 29.2001C8.39844 27.1014 10.0998 25.4001 12.1984 25.4001H18.7984C20.8971 25.4001 22.5984 27.1014 22.5984 29.2001V35.8001C22.5984 37.8988 20.8971 39.6001 18.7984 39.6001H12.1984C10.0998 39.6001 8.39844 37.8988 8.39844 35.8001V29.2001ZM12.1984 28.6001C11.8671 28.6001 11.5984 28.8687 11.5984 29.2001V35.8001C11.5984 36.1314 11.8671 36.4001 12.1984 36.4001H18.7984C19.1298 36.4001 19.3984 36.1314 19.3984 35.8001V29.2001C19.3984 28.8687 19.1298 28.6001 18.7984 28.6001H12.1984Z" fill="#333333"/>
<path fill-rule="evenodd" clip-rule="evenodd" d="M29.1984 25.4001C27.0998 25.4001 25.3984 27.1014 25.3984 29.2001V35.8001C25.3984 37.8988 27.0998 39.6001 29.1984 39.6001H35.7984C37.8971 39.6001 39.5984 37.8988 39.5984 35.8001V29.2001C39.5984 27.1014 37.8971 25.4001 35.7984 25.4001H29.1984ZM28.5984 29.2001C28.5984 28.8687 28.8671 28.6001 29.1984 28.6001H35.7984C36.1298 28.6001 36.3984 28.8687 36.3984 29.2001V35.8001C36.3984 36.1314 36.1298 36.4001 35.7984 36.4001H29.1984C28.8671 36.4001 28.5984 36.1314 28.5984 35.8001V29.2001Z" fill="#333333"/>
</svg>
