<svg width="48" height="48" viewBox="0 0 48 48" fill="none" xmlns="http://www.w3.org/2000/svg">
<path d="M20.2051 17.4941C20.2054 16.0112 21.8705 15.1382 23.0898 15.9824L29.9727 20.748C31.0281 21.4793 31.0283 23.0404 29.9727 23.7715L23.0898 28.5352C21.8704 29.3794 20.2051 28.5066 20.2051 27.0234V17.4941Z" fill="#333333"/>
<path fill-rule="evenodd" clip-rule="evenodd" d="M37.998 8.66016C41.0908 8.66016 43.5977 11.167 43.5977 14.2598V30.2598C43.5973 33.3523 41.0906 35.8594 37.998 35.8594H35.3066L37.4961 41.6973C37.8061 42.5244 37.3875 43.4474 36.5605 43.7578C35.7332 44.0681 34.8103 43.6477 34.5 42.8203L31.8887 35.8594H16.1074L13.4961 42.8203C13.1858 43.6477 12.2629 44.068 11.4355 43.7578C10.6085 43.4474 10.1899 42.5245 10.5 41.6973L12.6875 35.8594H9.99805C6.90547 35.8594 4.39878 33.3523 4.39844 30.2598V14.2598C4.39845 11.167 6.90529 8.6602 9.99805 8.66016H37.998ZM9.99805 11.8594C8.67261 11.8594 7.59766 12.9343 7.59766 14.2598V30.2598C7.598 31.5849 8.67278 32.6601 9.99805 32.6602H37.998C39.3233 32.6602 40.3981 31.585 40.3984 30.2598V14.2598C40.3984 12.9343 39.3235 11.8594 37.998 11.8594H9.99805Z" fill="#333333"/>
</svg>
