<svg width="48" height="48" viewBox="0 0 48 48" fill="none" xmlns="http://www.w3.org/2000/svg">
<path d="M23.998 10.9155C24.8817 10.9155 25.5973 11.6311 25.5973 12.5148V25.6239L29.3524 21.8688C29.9773 21.2442 30.9899 21.244 31.6146 21.8688C32.2394 22.4935 32.2393 23.5061 31.6146 24.131L25.1291 30.6165C24.5043 31.2413 23.4918 31.2413 22.867 30.6165L16.3815 24.131C15.7568 23.5061 15.7567 22.4935 16.3815 21.8688C17.0062 21.244 18.0188 21.2442 18.6436 21.8688L22.3988 25.6239V12.5148C22.3988 11.6311 23.1144 10.9155 23.998 10.9155Z" fill="#333333"/>
<path d="M35.998 33.8859C36.8817 33.8859 37.5977 34.6019 37.5977 35.4855C37.5977 36.3692 36.8817 37.0851 35.998 37.0851H11.998C11.1144 37.0851 10.3984 36.3692 10.3984 35.4855C10.3984 34.6019 11.1144 33.8859 11.998 33.8859H35.998Z" fill="#333333"/>
</svg>
