<svg width="48" height="48" viewBox="0 0 48 48" fill="none" xmlns="http://www.w3.org/2000/svg">
<path d="M8 13C10.2091 13 12 14.7909 12 17C12 19.2091 10.2091 21 8 21C5.79086 21 4 19.2091 4 17C4 14.7909 5.79086 13 8 13Z" fill="#333333"/>
<path d="M24 13C26.2091 13 28 14.7909 28 17C28 19.2091 26.2091 21 24 21C21.7909 21 20 19.2091 20 17C20 14.7909 21.7909 13 24 13Z" fill="#333333"/>
<path d="M40 13C42.2091 13 44 14.7909 44 17C44 19.2091 42.2091 21 40 21C37.7909 21 36 19.2091 36 17C36 14.7909 37.7909 13 40 13Z" fill="#333333"/>
<path d="M8 27C10.2091 27 12 28.7909 12 31C12 33.2091 10.2091 35 8 35C5.79086 35 4 33.2091 4 31C4 28.7909 5.79086 27 8 27Z" fill="#333333"/>
<path d="M24 27C26.2091 27 28 28.7909 28 31C28 33.2091 26.2091 35 24 35C21.7909 35 20 33.2091 20 31C20 28.7909 21.7909 27 24 27Z" fill="#333333"/>
<path d="M40 27C42.2091 27 44 28.7909 44 31C44 33.2091 42.2091 35 40 35C37.7909 35 36 33.2091 36 31C36 28.7909 37.7909 27 40 27Z" fill="#333333"/>
</svg>
