<svg width="48" height="48" viewBox="0 0 48 48" fill="none" xmlns="http://www.w3.org/2000/svg">
<path d="M29.457 32.4688C30.0818 31.8442 31.0959 31.8442 31.7207 32.4688C32.3445 33.0934 32.3445 34.1059 31.7207 34.7305L29.9648 36.4863H39.0742C39.9577 36.4865 40.6738 37.2024 40.6738 38.0859C40.6732 38.969 39.9574 39.6834 39.0742 39.6836H29.9648L31.7207 41.4395C32.3445 42.0641 32.3444 43.0765 31.7207 43.7012C31.096 44.3255 30.0818 44.3255 29.457 43.7012L24.9727 39.2168C24.8944 39.1386 24.8262 39.0538 24.7676 38.9648C24.7386 38.9209 24.7117 38.8761 24.6875 38.8301C24.6386 38.7371 24.5997 38.6401 24.5703 38.541C24.5265 38.3927 24.504 38.2393 24.5039 38.0859C24.5038 37.9832 24.5137 37.8805 24.5332 37.7793C24.5723 37.5772 24.6503 37.3808 24.7676 37.2031C24.826 37.1146 24.8948 37.0311 24.9727 36.9531L29.457 32.4688ZM25.998 4.40039C26.4224 4.40039 26.8288 4.56908 27.1289 4.86914L36.0176 13.7578C36.3176 14.0578 36.4863 14.4644 36.4863 14.8887V19.4473C35.5073 18.8805 34.3733 18.6873 33.2871 18.8691V16.4883H26.8867C25.5122 16.4882 24.3984 15.3745 24.3984 14V7.59961H13.998C12.6726 7.59961 11.5977 8.67452 11.5977 10V34C11.5977 35.3255 12.6726 36.4004 13.998 36.4004H21.6113C21.227 37.4289 21.2078 38.5603 21.5527 39.5996H13.998C10.9053 39.5996 8.39844 37.0928 8.39844 34V10C8.39844 6.90721 10.9053 4.40039 13.998 4.40039H25.998ZM34.1699 22.0078C34.2249 22.0107 34.2795 22.0149 34.334 22.0234C34.476 22.0459 34.6151 22.0858 34.748 22.1465C34.765 22.1542 34.7821 22.1616 34.7988 22.1699C34.8618 22.2014 34.9232 22.237 34.9824 22.2773C35.0012 22.2901 35.0188 22.3047 35.0371 22.3184C35.0985 22.3642 35.1591 22.413 35.2148 22.4688L39.6992 26.9531C40.3236 27.5779 40.3237 28.5921 39.6992 29.2168L35.2148 33.7012C35.1593 33.7567 35.0982 33.804 35.0371 33.8496C35.0187 33.8633 35.0012 33.8778 34.9824 33.8906C34.9187 33.934 34.8531 33.9727 34.7852 34.0059C34.7802 34.0083 34.7745 34.0093 34.7695 34.0117C34.6301 34.078 34.4837 34.1208 34.334 34.1445C34.2847 34.1522 34.2353 34.1551 34.1855 34.1582C34.1359 34.1614 34.0868 34.1655 34.0371 34.1641C34.0103 34.1632 33.9838 34.1584 33.957 34.1562C33.5905 34.1274 33.2313 33.9812 32.9512 33.7012C32.3275 33.0765 32.3273 32.0641 32.9512 31.4395L34.707 29.6836H25.5977C24.7145 29.6834 23.9986 28.969 23.998 28.0859C23.998 27.2024 24.7141 26.4865 25.5977 26.4863H34.707L32.9512 24.7305C32.3274 24.1059 32.3274 23.0934 32.9512 22.4688C33.0536 22.3664 33.1672 22.2817 33.2871 22.2129C33.2891 22.2117 33.2909 22.2101 33.293 22.209C33.3651 22.168 33.4392 22.1324 33.5156 22.1035C33.5214 22.1013 33.5274 22.0998 33.5332 22.0977C33.6379 22.0595 33.7463 22.0371 33.8555 22.0215C33.9198 22.0122 33.984 22.0034 34.0488 22.002C34.0893 22.0011 34.1295 22.0056 34.1699 22.0078ZM27.5977 13.2891H31.0254L27.5977 9.86133V13.2891Z" fill="#333333"/>
</svg>
