<svg width="48" height="48" viewBox="0 0 48 48" fill="none" xmlns="http://www.w3.org/2000/svg">
<path fill-rule="evenodd" clip-rule="evenodd" d="M12.9984 10.4004C9.90564 10.4004 7.39844 12.9076 7.39844 16.0004V28.0004C7.39844 31.0932 9.90564 33.6004 12.9984 33.6004H34.9984C38.0912 33.6004 40.5984 31.0932 40.5984 28.0004V16.0004C40.5984 12.9076 38.0912 10.4004 34.9984 10.4004H12.9984ZM10.5984 16.0004C10.5984 14.6749 11.673 13.6004 12.9984 13.6004H34.9984C36.3239 13.6004 37.3984 14.6749 37.3984 16.0004V28.0004C37.3984 29.3259 36.3239 30.4004 34.9984 30.4004H12.9984C11.673 30.4004 10.5984 29.3259 10.5984 28.0004V16.0004Z" fill="#333333"/>
<path d="M5.99844 36.4004C5.11478 36.4004 4.39844 37.1167 4.39844 38.0004C4.39844 38.884 5.11478 39.6004 5.99844 39.6004H41.9984C42.8821 39.6004 43.5984 38.884 43.5984 38.0004C43.5984 37.1167 42.8821 36.4004 41.9984 36.4004H5.99844Z" fill="#333333"/>
</svg>
