<svg width="48" height="48" viewBox="0 0 48 48" fill="none" xmlns="http://www.w3.org/2000/svg">
<path d="M29.6152 28.8691C30.2394 29.4938 30.2393 30.5081 29.6152 31.1328L25.1289 35.6172C24.5042 36.2412 23.4918 36.2413 22.8672 35.6172L18.3828 31.1328C17.7581 30.5081 17.7584 29.494 18.3828 28.8691C19.0077 28.2456 20.0201 28.2448 20.6445 28.8691L22.3984 30.6211V17.377L20.6445 19.1309C20.0198 19.755 19.0075 19.7532 18.3828 19.1289C17.7584 18.504 17.7581 17.4919 18.3828 16.8672L22.8672 12.3809C23.4917 11.7574 24.5043 11.7575 25.1289 12.3809L29.6152 16.8672C30.2397 17.4917 30.239 18.504 29.6152 19.1289C28.9904 19.7537 27.9764 19.7556 27.3516 19.1309L25.5977 17.377V30.6211L27.3516 28.8691C27.9763 28.245 28.9906 28.2449 29.6152 28.8691Z" fill="#333333"/>
<path fill-rule="evenodd" clip-rule="evenodd" d="M41.5977 36C41.5977 39.0928 39.0908 41.5996 35.998 41.5996H11.998C8.90525 41.5996 6.39844 39.0928 6.39844 36L6.39844 12C6.39844 8.9072 8.90525 6.40039 11.998 6.40039L35.998 6.40039C39.0908 6.40039 41.5977 8.90721 41.5977 12V36ZM38.3984 12C38.3984 10.6745 37.3235 9.59961 35.998 9.59961L11.998 9.59961C10.6726 9.59961 9.59766 10.6745 9.59766 12L9.59766 36C9.59766 37.3255 10.6726 38.4004 11.998 38.4004H35.998C37.3235 38.4004 38.3984 37.3255 38.3984 36V12Z" fill="#333333"/>
</svg>
