<svg width="48" height="48" viewBox="0 0 48 48" fill="none" xmlns="http://www.w3.org/2000/svg">
<path d="M10.3006 11.9998C10.3006 8.85178 12.8526 6.2998 16.0006 6.2998H38.0006C41.1486 6.2998 43.7006 8.85178 43.7006 11.9998V25.9998C43.7006 29.1478 41.1486 31.6998 38.0006 31.6998H28.0006V28.2998H38.0006C39.2708 28.2998 40.3006 27.2701 40.3006 25.9998V11.9998C40.3006 10.7295 39.2708 9.6998 38.0006 9.6998H16.0006C14.7303 9.6998 13.7006 10.7296 13.7006 11.9998V21.0998H10.3006V11.9998Z" fill="#333333"/>
<path fill-rule="evenodd" clip-rule="evenodd" d="M10.0008 26.9002C9.8351 26.9002 9.70078 27.0345 9.70078 27.2002V33C9.70078 33.1657 9.8351 33.3 10.0008 33.3H22.0008C22.1665 33.3 22.3008 33.1657 22.3008 33V27.2002C22.3008 27.0345 22.1665 26.9002 22.0008 26.9002H10.0008ZM6.30078 27.2002C6.30078 25.1567 7.95733 23.5002 10.0008 23.5002H22.0008C24.0442 23.5002 25.7008 25.1567 25.7008 27.2002V33C25.7008 35.0435 24.0442 36.7 22.0008 36.7H10.0008C7.95733 36.7 6.30078 35.0435 6.30078 33V27.2002Z" fill="#333333"/>
<path fill-rule="evenodd" clip-rule="evenodd" d="M4.30078 40C4.30078 39.0611 5.0619 38.3 6.00078 38.3H26.0008C26.9397 38.3 27.7008 39.0611 27.7008 40C27.7008 40.9389 26.9397 41.7 26.0008 41.7H6.00078C5.0619 41.7 4.30078 40.9389 4.30078 40Z" fill="#333333"/>
<path d="M27.6655 12.8165C28.0023 11.9401 28.9858 11.5026 29.8622 11.8394C32.1584 12.7218 34.1813 14.3694 35.5065 16.6647C36.8317 18.9601 37.2471 21.5357 36.8632 23.9655C36.7166 24.8929 35.846 25.5259 34.9187 25.3793C33.9913 25.2328 33.3583 24.3622 33.5049 23.4348C33.7717 21.746 33.484 19.9617 32.562 18.3647C31.64 16.7678 30.2386 15.6264 28.6426 15.0132C27.7662 14.6764 27.3288 13.6929 27.6655 12.8165Z" fill="#333333"/>
<path d="M27.5841 18.0415C26.7785 17.6783 25.831 18.0368 25.4678 18.8424C25.1046 19.648 25.4632 20.5954 26.2688 20.9586C26.6536 21.1322 26.9882 21.4221 27.2167 21.8178C27.4451 22.2135 27.5289 22.6483 27.4868 23.0683C27.3986 23.9475 28.0398 24.7318 28.919 24.8201C29.7983 24.9083 30.5826 24.267 30.6708 23.3878C30.7777 22.3227 30.5627 21.2134 29.9879 20.2178C29.4132 19.2223 28.5599 18.4814 27.5841 18.0415Z" fill="#333333"/>
</svg>
