<svg width="48" height="48" viewBox="0 0 48 48" fill="none" xmlns="http://www.w3.org/2000/svg">
<path fill-rule="evenodd" clip-rule="evenodd" d="M15.7559 12.4004L15.7559 10.0004C15.7559 8.01216 17.3676 6.40039 19.3559 6.40039H28.578C30.5662 6.40039 32.178 8.01216 32.178 10.0004V12.4004H37.9984C41.0912 12.4004 43.5984 14.9076 43.5984 18.0004V25.8391C42.6914 24.7733 41.6101 23.8604 40.3984 23.1445V18.0004C40.3984 16.6749 39.3239 15.6004 37.9984 15.6004H35.5984V21.501C35.0745 21.4346 34.5404 21.4004 33.9984 21.4004C33.4564 21.4004 32.9224 21.4346 32.3984 21.501V15.6004H15.5984V38.4004H22.188C22.6191 39.557 23.2152 40.6332 23.9477 41.6004H9.99844C6.90564 41.6004 4.39844 39.0932 4.39844 36.0004V18.0004C4.39844 14.9076 6.90564 12.4004 9.99844 12.4004H15.7559ZM18.9559 10.0004C18.9559 9.77948 19.1349 9.60039 19.3559 9.60039H28.578C28.7989 9.60039 28.978 9.77948 28.978 10.0004V12.4004H18.9559L18.9559 10.0004ZM9.99844 15.6004C8.67295 15.6004 7.59844 16.6749 7.59844 18.0004V36.0004C7.59844 37.3259 8.67295 38.4004 9.99844 38.4004H12.3984V15.6004H9.99844Z" fill="#333333"/>
<path fill-rule="evenodd" clip-rule="evenodd" d="M33.998 44C39.5209 44 43.998 39.5229 43.998 34C43.998 28.4772 39.5209 24 33.998 24C28.4752 24 23.998 28.4772 23.998 34C23.998 39.5229 28.4752 44 33.998 44ZM33.998 26.5996C34.9369 26.5996 35.698 27.3607 35.698 28.2997V34.2998C35.698 35.2387 34.9369 35.9999 33.998 35.9999C33.0592 35.9999 32.298 35.2387 32.298 34.2998L32.298 28.2997C32.298 27.3607 33.0592 26.5996 33.998 26.5996ZM31.998 39.6997C31.998 40.7998 32.898 41.6998 33.998 41.6998C35.098 41.6998 35.998 40.7998 35.998 39.6997C35.998 38.5997 35.098 37.6997 33.998 37.6997C32.898 37.6997 31.998 38.5997 31.998 39.6997Z" fill="#333333"/>
</svg>
