<svg width="48" height="48" viewBox="0 0 48 48" fill="none" xmlns="http://www.w3.org/2000/svg">
<path d="M26.5682 29.9998C26.5682 30.8833 25.8521 31.5993 24.9686 31.5994H11.8592L15.6151 35.3533C16.2397 35.9781 16.2399 36.9922 15.6151 37.617C14.9903 38.2417 13.9763 38.2416 13.3514 37.617L6.86704 31.1306C6.24222 30.5058 6.24225 29.4938 6.86704 28.8689L13.3514 22.3826C13.9763 21.758 14.9903 21.7578 15.6151 22.3826C16.2395 23.0071 16.2389 24.0194 15.6151 24.6443L11.8592 28.4002H24.9686C25.8522 28.4003 26.5682 29.1162 26.5682 29.9998Z" fill="#333333"/>
<path d="M41.1288 16.8689C41.7536 17.4938 41.7536 18.5058 41.1288 19.1306L34.6444 25.617C34.0195 26.2414 33.0054 26.2416 32.3807 25.617C31.756 24.9922 31.7563 23.9782 32.3807 23.3533L36.1366 19.5994H23.0272C22.1439 19.5992 21.4278 18.8831 21.4276 17.9998C21.4276 17.1163 22.1437 16.4004 23.0272 16.4002L36.1366 16.4002L32.3807 12.6443C31.757 12.0195 31.7565 11.0071 32.3807 10.3826C33.0055 9.75782 34.0195 9.75796 34.6444 10.3826L41.1288 16.8689Z" fill="#333333"/>
</svg>
