<svg width="48" height="48" viewBox="0 0 48 48" fill="none" xmlns="http://www.w3.org/2000/svg">
<path d="M15.8671 32.131C15.2422 31.5061 15.2422 30.4931 15.8671 29.8682L21.7353 24L15.8663 18.131C15.2414 17.5061 15.2414 16.4931 15.8663 15.8682C16.4911 15.2434 17.5042 15.2434 18.129 15.8682L23.998 21.7373L29.8671 15.8682C30.4919 15.2434 31.505 15.2434 32.1298 15.8682C32.7546 16.4931 32.7546 17.5061 32.1298 18.131L26.2608 24L32.129 29.8682C32.7539 30.4931 32.7539 31.5061 32.129 32.131C31.5042 32.7558 30.4911 32.7558 29.8663 32.131L23.998 26.2627L18.1298 32.131C17.505 32.7558 16.4919 32.7558 15.8671 32.131Z" fill="#333333"/>
<path fill-rule="evenodd" clip-rule="evenodd" d="M4.39844 24.0004C4.39844 13.1756 13.1737 4.40039 23.9984 4.40039C34.8232 4.40039 43.5984 13.1756 43.5984 24.0004C43.5984 34.8252 34.8232 43.6004 23.9984 43.6004C13.1737 43.6004 4.39844 34.8252 4.39844 24.0004ZM23.9984 7.60039C14.941 7.60039 7.59844 14.9429 7.59844 24.0004C7.59844 33.0579 14.941 40.4004 23.9984 40.4004C33.0559 40.4004 40.3984 33.0579 40.3984 24.0004C40.3984 14.9429 33.0559 7.60039 23.9984 7.60039Z" fill="#333333"/>
</svg>
