<svg width="48" height="48" viewBox="0 0 48 48" fill="none" xmlns="http://www.w3.org/2000/svg">
<path d="M4.39844 24.0004C4.39844 13.1756 13.1737 4.40039 23.9984 4.40039C34.8232 4.40039 43.5984 13.1756 43.5984 24.0004C43.5984 24.5899 43.5724 25.1733 43.5215 25.7495C42.6248 24.7155 41.5625 23.8289 40.3758 23.1312C39.9239 14.4778 32.7643 7.60039 23.9984 7.60039C14.941 7.60039 7.59844 14.9429 7.59844 24.0004C7.59844 32.7663 14.4758 39.9259 23.1292 40.3778C23.827 41.5644 24.7135 42.6267 25.7476 43.5234C25.1713 43.5744 24.5879 43.6004 23.9984 43.6004C13.1737 43.6004 4.39844 34.8252 4.39844 24.0004Z" fill="#333333"/>
<path d="M25.3787 24.8101C25.1825 24.9942 24.9922 25.1845 24.8081 25.3807C24.5706 25.5203 24.2939 25.6004 23.9984 25.6004H15.9984C15.1148 25.6004 14.3984 24.884 14.3984 24.0004C14.3984 23.1167 15.1148 22.4004 15.9984 22.4004H22.3984V12.0004C22.3984 11.1167 23.1148 10.4004 23.9984 10.4004C24.8821 10.4004 25.5984 11.1167 25.5984 12.0004V24.0004C25.5984 24.2958 25.5184 24.5726 25.3787 24.8101Z" fill="#333333"/>
<path fill-rule="evenodd" clip-rule="evenodd" d="M33.998 44C39.5209 44 43.998 39.5229 43.998 34C43.998 28.4772 39.5209 24 33.998 24C28.4752 24 23.998 28.4772 23.998 34C23.998 39.5229 28.4752 44 33.998 44ZM34.2231 28.1532C34.8089 27.5674 35.7586 27.5674 36.3444 28.1532L41.0587 32.8675C41.6445 33.4533 41.6445 34.403 41.0587 34.9888L36.3444 39.7031C35.7586 40.2889 34.8089 40.2889 34.2231 39.7031C33.6373 39.1173 33.6373 38.1676 34.2231 37.5818L36.3767 35.4282H28.998C28.1696 35.4282 27.498 34.7566 27.498 33.9282C27.498 33.0997 28.1696 32.4282 28.998 32.4282H36.3767L34.2231 30.2745C33.6373 29.6887 33.6373 28.739 34.2231 28.1532Z" fill="#333333"/>
</svg>
