<svg width="48" height="48" viewBox="0 0 48 48" fill="none" xmlns="http://www.w3.org/2000/svg">
<path fill-rule="evenodd" clip-rule="evenodd" d="M15.3984 8.00039C15.3984 6.56445 16.5625 5.40039 17.9984 5.40039H29.9984C31.4344 5.40039 32.5984 6.56445 32.5984 8.00039V8.40039H33.9984C37.0912 8.40039 39.5984 10.9076 39.5984 14.0004V22.7101C38.5997 22.2138 37.5259 21.8461 36.3984 21.6287V14.0004C36.3984 12.6749 35.3239 11.6004 33.9984 11.6004H32.5984V12.0004C32.5984 13.4363 31.4344 14.6004 29.9984 14.6004H17.9984C16.5625 14.6004 15.3984 13.4363 15.3984 12.0004V11.6004H13.9984C12.673 11.6004 11.5984 12.6749 11.5984 14.0004V38.0004C11.5984 39.3259 12.673 40.4004 13.9984 40.4004H23.1426C23.8584 41.612 24.7713 42.6934 25.8372 43.6004H13.9984C10.9056 43.6004 8.39844 41.0932 8.39844 38.0004V14.0004C8.39844 10.9076 10.9056 8.40039 13.9984 8.40039H15.3984V8.00039ZM18.5984 11.4004V8.60039H29.3984V11.4004H18.5984Z" fill="#333333"/>
<path d="M31.5569 21.6368C29.8502 21.9719 28.2671 22.6516 26.8829 23.6004H17.9984C17.1148 23.6004 16.3984 22.884 16.3984 22.0004C16.3984 21.1167 17.1148 20.4004 17.9984 20.4004H29.9984C30.757 20.4004 31.3923 20.9283 31.5569 21.6368Z" fill="#333333"/>
<path d="M21.6267 31.6004C21.8442 30.473 22.2119 29.3991 22.7082 28.4004H17.9984C17.1148 28.4004 16.3984 29.1167 16.3984 30.0004C16.3984 30.884 17.1148 31.6004 17.9984 31.6004H21.6267Z" fill="#333333"/>
<path fill-rule="evenodd" clip-rule="evenodd" d="M43.998 34C43.998 39.5229 39.5209 44 33.998 44C28.4752 44 23.998 39.5229 23.998 34C23.998 28.4772 28.4752 24 33.998 24C39.5209 24 43.998 28.4772 43.998 34ZM33.9978 27.5C34.8262 27.5 35.4978 28.1716 35.4978 29V32.4998H38.998C39.8265 32.4998 40.498 33.1713 40.498 33.9998C40.498 34.8282 39.8265 35.4998 38.998 35.4998H35.4978V39C35.4978 39.8284 34.8262 40.5 33.9978 40.5C33.1694 40.5 32.4978 39.8284 32.4978 39V35.4998H28.998C28.1696 35.4998 27.498 34.8282 27.498 33.9998C27.498 33.1713 28.1696 32.4998 28.998 32.4998H32.4978V29C32.4978 28.1716 33.1694 27.5 33.9978 27.5Z" fill="#333333"/>
</svg>
