<svg width="48" height="48" viewBox="0 0 48 48" fill="none" xmlns="http://www.w3.org/2000/svg">
<path d="M7.99805 28.4004C8.8817 28.4004 9.59766 29.1163 9.59766 30V36C9.59766 37.3255 10.6726 38.4004 11.998 38.4004H17.998C18.8817 38.4004 19.5977 39.1163 19.5977 40C19.5977 40.8837 18.8817 41.5996 17.998 41.5996H11.998C8.90525 41.5996 6.39844 39.0928 6.39844 36V30C6.39844 29.1163 7.11439 28.4004 7.99805 28.4004Z" fill="#333333"/>
<path d="M39.998 28.4004C40.8817 28.4004 41.5977 29.1163 41.5977 30V36C41.5977 39.0928 39.0908 41.5996 35.998 41.5996H29.998C29.1144 41.5996 28.3984 40.8837 28.3984 40C28.3984 39.1163 29.1144 38.4004 29.998 38.4004H35.998C37.3235 38.4004 38.3984 37.3255 38.3984 36V30C38.3984 29.1163 39.1144 28.4004 39.998 28.4004Z" fill="#333333"/>
<path d="M21.998 14.4004C22.8817 14.4004 23.5976 15.1164 23.5977 16C23.5977 16.8837 22.8817 17.5996 21.998 17.5996H19.8594L30.3984 28.1387V26C30.3984 25.1163 31.1144 24.4004 31.998 24.4004C32.8817 24.4004 33.5977 25.1163 33.5977 26V32C33.5977 32.0982 33.5853 32.1938 33.5684 32.2871C33.5666 32.2968 33.5664 32.3067 33.5645 32.3164C33.5371 32.4527 33.4913 32.5817 33.4316 32.7031C33.3561 32.8571 33.257 33.0028 33.1289 33.1309C33.0008 33.259 32.8551 33.358 32.7012 33.4336C32.6228 33.4721 32.5419 33.5058 32.457 33.5312C32.4338 33.5382 32.4102 33.543 32.3867 33.5488C32.3627 33.5548 32.3389 33.5615 32.3145 33.5664C32.3048 33.5683 32.2948 33.5685 32.2852 33.5703C32.1918 33.5873 32.0963 33.5996 31.998 33.5996H25.998C25.1144 33.5996 24.3984 32.8837 24.3984 32C24.3984 31.1163 25.1144 30.4004 25.998 30.4004H28.1367L17.5977 19.8613V22C17.5977 22.8837 16.8817 23.5996 15.998 23.5996C15.1144 23.5995 14.3984 22.8836 14.3984 22V16C14.3985 15.1164 15.1145 14.4005 15.998 14.4004H21.998Z" fill="#333333"/>
<path d="M17.998 6.40039C18.8817 6.40039 19.5977 7.11634 19.5977 8C19.5977 8.88366 18.8817 9.59961 17.998 9.59961H11.998C10.6726 9.59961 9.59766 10.6745 9.59766 12V18C9.59766 18.8837 8.8817 19.5996 7.99805 19.5996C7.11439 19.5996 6.39844 18.8837 6.39844 18V12C6.39844 8.90721 8.90525 6.40039 11.998 6.40039H17.998Z" fill="#333333"/>
<path d="M35.998 6.40039C39.0908 6.40039 41.5977 8.90721 41.5977 12V18C41.5977 18.8837 40.8817 19.5996 39.998 19.5996C39.1144 19.5996 38.3984 18.8837 38.3984 18V12C38.3984 10.6745 37.3235 9.59961 35.998 9.59961H29.998C29.1144 9.59961 28.3984 8.88366 28.3984 8C28.3984 7.11634 29.1144 6.40039 29.998 6.40039H35.998Z" fill="#333333"/>
</svg>
