<svg width="48" height="48" viewBox="0 0 48 48" fill="none" xmlns="http://www.w3.org/2000/svg">
<path fill-rule="evenodd" clip-rule="evenodd" d="M11.9984 4.40039C8.90564 4.40039 6.39844 6.9076 6.39844 10.0004V38.0004C6.39844 41.0932 8.90564 43.6004 11.9984 43.6004H35.9984C39.0912 43.6004 41.5984 41.0932 41.5984 38.0004V17.0004C41.5984 16.576 41.4299 16.1691 41.1298 15.869L30.1298 4.86902C29.8298 4.56896 29.4228 4.40039 28.9984 4.40039H11.9984ZM9.59844 10.0004C9.59844 8.67491 10.673 7.60039 11.9984 7.60039H27.3984V16.0004C27.3984 17.4363 28.5625 18.6004 29.9984 18.6004H38.3984V38.0004C38.3984 39.3259 37.3239 40.4004 35.9984 40.4004H11.9984C10.673 40.4004 9.59844 39.3259 9.59844 38.0004V10.0004ZM36.1357 15.4004L30.5984 9.86313V15.4004H36.1357Z" fill="#333333"/>
<path fill-rule="evenodd" clip-rule="evenodd" d="M18.1703 22.6V23.8571C18.1703 24.7408 17.454 25.4571 16.5703 25.4571C15.6867 25.4571 14.9703 24.7408 14.9703 23.8571V21.5714C14.9703 20.3722 15.9425 19.4 17.1417 19.4H30.856C32.0553 19.4 33.0275 20.3722 33.0275 21.5714V23.8571C33.0275 24.7408 32.3111 25.4571 31.4275 25.4571C30.5438 25.4571 29.8275 24.7408 29.8275 23.8571V22.6H25.5989L25.5989 34.3992H26.856C27.7397 34.3992 28.456 35.1155 28.456 35.9992C28.456 36.8828 27.7397 37.5992 26.856 37.5992H21.1417C20.2581 37.5992 19.5417 36.8828 19.5417 35.9992C19.5417 35.1155 20.2581 34.3992 21.1417 34.3992H22.3989L22.3989 22.6H18.1703Z" fill="#333333"/>
</svg>
