<svg width="48" height="48" viewBox="0 0 48 48" fill="none" xmlns="http://www.w3.org/2000/svg">
<path fill-rule="evenodd" clip-rule="evenodd" d="M12.3984 15.9999C12.3984 16.8836 13.1148 17.5999 13.9984 17.5999L33.9984 17.5999C34.8821 17.5999 35.5984 16.8836 35.5984 15.9999C35.5984 15.1162 34.8821 14.3999 33.9984 14.3999L13.9984 14.3999C13.1148 14.3999 12.3984 15.1162 12.3984 15.9999Z" fill="#333333"/>
<path fill-rule="evenodd" clip-rule="evenodd" d="M15.8675 24.8689C15.2426 25.4938 15.2426 26.5068 15.8675 27.1317L22.8675 34.1317C23.1675 34.4317 23.5745 34.6003 23.9988 34.6003C24.4232 34.6003 24.8301 34.4317 25.1302 34.1317L32.1302 27.1317C32.755 26.5068 32.755 25.4938 32.1302 24.8689C31.5054 24.2441 30.4923 24.2441 29.8675 24.8689L23.9988 30.7376L18.1302 24.8689C17.5054 24.2441 16.4923 24.2441 15.8675 24.8689Z" fill="#333333"/>
</svg>
