<svg width="48" height="48" viewBox="0 0 48 48" fill="none" xmlns="http://www.w3.org/2000/svg">
<path fill-rule="evenodd" clip-rule="evenodd" d="M9.99844 10.4004C6.90564 10.4004 4.39844 12.9076 4.39844 16.0004V32.0004C4.39844 35.0932 6.90564 37.6004 9.99844 37.6004H21.9202C21.6171 36.5817 21.4392 35.5091 21.4047 34.4004H9.99844C8.67295 34.4004 7.59844 33.3259 7.59844 32.0004V16.0004C7.59844 15.8922 7.6056 15.7857 7.61947 15.6812L18.5589 23.2021C20.6016 24.6065 23.0522 25.1352 25.4021 24.7882C27.1385 23.1672 29.3337 22.0313 31.7717 21.5965L40.3773 15.6802C40.3912 15.7849 40.3984 15.8918 40.3984 16.0004V23.1445C41.6101 23.8604 42.6914 24.7733 43.5984 25.8391V16.0004C43.5984 12.9076 41.0912 10.4004 37.9984 10.4004H9.99844ZM37.754 13.6004H10.2412L20.3718 20.5652C22.5558 22.0667 25.4394 22.0667 27.6234 20.5652L37.754 13.6004Z" fill="#333333"/>
<path fill-rule="evenodd" clip-rule="evenodd" d="M33.998 44C39.5209 44 43.998 39.5228 43.998 34C43.998 28.4772 39.5209 24 33.998 24C28.4752 24 23.998 28.4772 23.998 34C23.998 39.5228 28.4752 44 33.998 44ZM33.998 26.6C34.9369 26.6 35.698 27.3611 35.698 28.3V34.3C35.698 35.2389 34.9369 36 33.998 36C33.0592 36 32.298 35.2389 32.298 34.3L32.298 28.3C32.298 27.3611 33.0592 26.6 33.998 26.6ZM31.998 39.6998C31.998 40.7998 32.898 41.6998 33.998 41.6998C35.098 41.6998 35.998 40.7998 35.998 39.6998C35.998 38.5998 35.098 37.6998 33.998 37.6998C32.898 37.6998 31.998 38.5998 31.998 39.6998Z" fill="#333333"/>
</svg>
