<svg width="48" height="48" viewBox="0 0 48 48" fill="none" xmlns="http://www.w3.org/2000/svg">
<path d="M13.871 35.8692C13.2461 36.4941 13.2461 37.5071 13.871 38.132C14.4958 38.7568 15.5089 38.7568 16.1337 38.132L25.0023 29.2633L33.871 38.132C34.4958 38.7568 35.5089 38.7568 36.1337 38.132C36.7586 37.5071 36.7586 36.4941 36.1337 35.8692L26.1337 25.8692C25.5089 25.2444 24.4958 25.2444 23.871 25.8692L13.871 35.8692Z" fill="#333333"/>
<path d="M13.871 19.8692C13.2461 20.4941 13.2461 21.5071 13.871 22.132C14.4958 22.7568 15.5089 22.7568 16.1337 22.132L25.0023 13.2633L33.871 22.132C34.4958 22.7568 35.5089 22.7568 36.1337 22.132C36.7586 21.5071 36.7586 20.4941 36.1337 19.8692L26.1337 9.86921C25.5089 9.24438 24.4958 9.24438 23.871 9.86921L13.871 19.8692Z" fill="#333333"/>
</svg>
