<svg width="48" height="48" viewBox="0 0 48 48" fill="none" xmlns="http://www.w3.org/2000/svg">
<path d="M25.3049 7.02734C26.0368 6.29577 27.1952 6.24891 27.9806 6.88867L28.133 7.02734L42.9748 21.8672C43.7555 22.6481 43.7554 23.9163 42.9748 24.6973L28.1407 39.5314C27.8406 39.8314 27.4337 40 27.0093 40Lnan nanL27.0093 40C25.5839 40 24.8701 38.2766 25.878 37.2687L39.8654 23.2812L26.7189 10.1367L8.13885 28.7168L16.6879 37.2674C17.6963 38.2759 16.982 40 15.5559 40Lnan nanL15.5559 40C15.1313 40 14.7241 39.8313 14.4239 39.531L5.02752 30.1328L4.88885 29.9805C4.29142 29.2471 4.29245 28.188 4.8908 27.4551L5.02752 27.3047L25.3049 7.02734Z" fill="#333333"/>
<path d="M30.8693 20.8691C31.4941 20.2447 32.5063 20.2446 33.131 20.8691C33.7555 21.4939 33.7554 22.5061 33.131 23.1309L23.131 33.1309C22.5063 33.7556 21.4942 33.7554 20.8693 33.1309L16.8693 29.1309C16.2447 28.506 16.2445 27.4939 16.8693 26.8691C17.4552 26.2836 18.3816 26.2471 19.0099 26.7598L19.131 26.8691L22.0002 29.7383L30.8693 20.8691Z" fill="#333333"/>
</svg>
