<svg width="48" height="48" viewBox="0 0 48 48" fill="none" xmlns="http://www.w3.org/2000/svg">
<path fill-rule="evenodd" clip-rule="evenodd" d="M5.39844 11.9204C5.39844 9.93215 7.01021 8.32037 8.99844 8.32037H11.9984C13.9867 8.32037 15.5984 9.93215 15.5984 11.9204V25.9204C15.5984 27.9086 13.9867 29.5204 11.9984 29.5204H8.99844C7.01021 29.5204 5.39844 27.9086 5.39844 25.9204V11.9204ZM8.99844 11.5204C8.77752 11.5204 8.59844 11.6995 8.59844 11.9204V25.9204C8.59844 26.1413 8.77752 26.3204 8.99844 26.3204H11.9984C12.2194 26.3204 12.3984 26.1413 12.3984 25.9204V11.9204C12.3984 11.6995 12.2194 11.5204 11.9984 11.5204H8.99844Z" fill="#333333"/>
<path fill-rule="evenodd" clip-rule="evenodd" d="M26.3495 38.0661C25.76 38.2345 25.1295 37.9998 24.7937 37.4869L15.337 23.0439L12.6598 24.7968L22.1165 39.2398C23.22 40.9251 25.2917 41.6964 27.2286 41.143L28.5192 40.7742C31.6637 39.8758 33.3725 36.4855 32.2242 33.4234L31.3072 30.9781H34.4021C39.3113 30.9781 42.9325 26.3934 41.7955 21.6177L39.7021 12.8256C38.638 8.3564 34.0739 5.66587 29.6483 6.89896L13.569 11.3791L14.4279 14.4617L30.5072 9.98154C33.1844 9.2356 35.9454 10.8632 36.5891 13.5668L38.6825 22.3589C39.3408 25.1238 37.2443 27.7781 34.4021 27.7781H28.9984C28.4737 27.7781 27.9823 28.0354 27.6834 28.4667C27.3845 28.898 27.3161 29.4485 27.5003 29.9399L29.228 34.547C29.7201 35.8593 28.9878 37.3123 27.6401 37.6974L26.3495 38.0661Z" fill="#333333"/>
</svg>
