<svg width="48" height="48" viewBox="0 0 48 48" fill="none" xmlns="http://www.w3.org/2000/svg">
<path fill-rule="evenodd" clip-rule="evenodd" d="M20.4457 7.70078C17.9481 7.70078 15.9234 9.72545 15.9234 12.223C15.9234 14.7206 17.9481 16.7452 20.4457 16.7452C22.9432 16.7452 24.9679 14.7206 24.9679 12.223C24.9679 9.72545 22.9432 7.70078 20.4457 7.70078ZM12.5234 12.223C12.5234 7.84768 16.0703 4.30078 20.4457 4.30078C24.821 4.30078 28.3679 7.84768 28.3679 12.223C28.3679 16.5983 24.821 20.1452 20.4457 20.1452C16.0703 20.1452 12.5234 16.5983 12.5234 12.223Z" fill="#333333"/>
<path fill-rule="evenodd" clip-rule="evenodd" d="M26.9949 23.0485C25.0216 22.4221 22.7873 22.0781 20.4457 22.0781C16.7684 22.0781 13.3555 22.9264 10.8029 24.3851C8.29845 25.8162 6.30129 28.0524 6.30129 30.8892L6.30104 31.0928C6.29775 32.8962 6.29313 35.4237 8.4732 37.2272C9.54449 38.1135 11.009 38.7159 12.9089 39.1066C14.8154 39.4987 17.2752 39.7003 20.4457 39.7003C21.0935 39.7003 21.7116 39.6919 22.3014 39.6752C21.789 38.6206 21.415 37.4864 21.2029 36.2962C20.9565 36.2989 20.7042 36.3003 20.4457 36.3003C17.394 36.3003 15.1872 36.104 13.5937 35.7763C11.9936 35.4472 11.1248 35.0082 10.6405 34.6075C9.79278 33.9062 9.70129 33.0035 9.70129 30.8892C9.70129 29.7992 10.4901 28.4798 12.4898 27.3371C14.4413 26.2219 17.2506 25.4781 20.4457 25.4781C21.6713 25.4781 22.8401 25.5876 23.9255 25.7854C24.7959 24.7193 25.8321 23.7939 26.9949 23.0485Z" fill="#333333"/>
<path fill-rule="evenodd" clip-rule="evenodd" d="M44 34C44 39.5228 39.5228 44 34 44C28.4772 44 24 39.5228 24 34C24 28.4772 28.4772 24 34 24C39.5228 24 44 28.4772 44 34ZM33.9998 27.5C34.8282 27.5 35.4998 28.1716 35.4998 29V32.4998H39C39.8284 32.4998 40.5 33.1713 40.5 33.9998C40.5 34.8282 39.8284 35.4998 39 35.4998H35.4998V39C35.4998 39.8284 34.8282 40.5 33.9998 40.5C33.1713 40.5 32.4998 39.8284 32.4998 39V35.4998H29C28.1716 35.4998 27.5 34.8282 27.5 33.9998C27.5 33.1713 28.1716 32.4998 29 32.4998H32.4998V29C32.4998 28.1716 33.1713 27.5 33.9998 27.5Z" fill="#333333"/>
</svg>
