<svg width="48" height="48" viewBox="0 0 48 48" fill="none" xmlns="http://www.w3.org/2000/svg">
<path d="M33.2715 20.1152C33.5648 19.9799 33.9039 19.9799 34.1973 20.1152L43.0938 24.2188C43.4843 24.3992 43.7343 24.7905 43.7344 25.2207V30.0645C43.7341 36.4641 39.4675 42.4494 33.7344 43.9023C28.0012 42.4494 23.7346 36.4641 23.7344 30.0645V25.2207C23.7344 24.7905 23.9845 24.3992 24.375 24.2188L33.2715 20.1152ZM40.1953 26.7969C39.6096 26.2111 38.66 26.2113 38.0742 26.7969L31.6914 33.1797L30.1855 31.6719C29.5998 31.0862 28.6502 31.0863 28.0645 31.6719C27.4788 32.2577 27.4787 33.2073 28.0645 33.793L30.6309 36.3594C31.2166 36.9448 32.1662 36.9448 32.752 36.3594L40.1953 28.918C40.7807 28.3324 40.7803 27.3826 40.1953 26.7969ZM32 6C34.2091 6 36 7.79086 36 10V17.4219L35.5371 17.209L35.1016 17.0371C34.3574 16.7879 33.5616 16.749 32.8008 16.918V10C32.8008 9.55817 32.4418 9.19922 32 9.19922H8C7.55817 9.19922 7.19922 9.55817 7.19922 10V28C7.19922 28.4418 7.55817 28.8008 8 28.8008H20.5352V30.0645C20.5352 30.7124 20.5736 31.3586 20.6445 32H8C5.9287 32 4.22601 30.4256 4.02148 28.4082L4 28V10C4 7.79086 5.79086 6 8 6H32Z" fill="#333333"/>
</svg>
