<svg width="48" height="48" viewBox="0 0 48 48" fill="none" xmlns="http://www.w3.org/2000/svg">
<path d="M7.99805 28.4004C8.8817 28.4004 9.59766 29.1163 9.59766 30V36C9.59766 37.3255 10.6726 38.4004 11.998 38.4004H17.998C18.8817 38.4004 19.5977 39.1163 19.5977 40C19.5977 40.8837 18.8817 41.5996 17.998 41.5996H11.998C8.90525 41.5996 6.39844 39.0928 6.39844 36V30C6.39844 29.1163 7.11439 28.4004 7.99805 28.4004Z" fill="#333333"/>
<path d="M39.998 28.4004C40.8817 28.4004 41.5977 29.1163 41.5977 30V36C41.5977 39.0928 39.0908 41.5996 35.998 41.5996H29.998C29.1144 41.5996 28.3984 40.8837 28.3984 40C28.3984 39.1163 29.1144 38.4004 29.998 38.4004H35.998C37.3235 38.4004 38.3984 37.3255 38.3984 36V30C38.3984 29.1163 39.1144 28.4004 39.998 28.4004Z" fill="#333333"/>
<path d="M32 6C32.4935 6 32.7398 6.28802 32.8633 6.74023C32.9124 6.97158 32.9603 7.19583 33.0059 7.41211C34.2988 13.5434 34.342 13.7437 41.2188 15.1348C41.7122 15.2172 42 15.5064 42 16C42 16.4936 41.712 16.7809 41.2188 16.8633C34.1732 18.1996 34.1383 18.3813 32.9238 24.9336C32.904 25.0404 32.8837 25.1496 32.8633 25.2598C32.7398 25.712 32.4935 26 32 26C31.5064 26 31.2602 25.712 31.1367 25.2598C31.1189 25.1638 31.1013 25.0679 31.084 24.9746C29.8618 18.384 29.8416 18.2836 22.7812 16.8633C22.329 16.7809 22 16.4936 22 16C22 15.5064 22.3288 15.2172 22.7812 15.1348C29.6593 13.7514 29.7034 13.5458 30.9727 7.51367C31.0248 7.26602 31.0799 7.008 31.1367 6.74023C31.2602 6.28802 31.5064 6 32 6Z" fill="#333333"/>
<path d="M17.998 6.40039C18.8817 6.40039 19.5977 7.11634 19.5977 8C19.5977 8.88366 18.8817 9.59961 17.998 9.59961H11.998C10.6726 9.59961 9.59766 10.6745 9.59766 12V18C9.59766 18.8837 8.8817 19.5996 7.99805 19.5996C7.11439 19.5996 6.39844 18.8837 6.39844 18V12C6.39844 8.90721 8.90525 6.40039 11.998 6.40039H17.998Z" fill="#333333"/>
</svg>
