<svg width="48" height="48" viewBox="0 0 48 48" fill="none" xmlns="http://www.w3.org/2000/svg">
<path d="M22.4379 28.7369L19.1298 25.4288C18.505 24.8039 17.4919 24.8039 16.8671 25.4288C16.2422 26.0536 16.2422 27.0667 16.8671 27.6915L21.3065 32.131C21.6066 32.431 22.0135 32.5996 22.4379 32.5996C22.8622 32.5996 23.2692 32.431 23.5693 32.131L33.1298 22.5704C33.7546 21.9456 33.7546 20.9325 33.1298 20.3077C32.505 19.6829 31.4919 19.6829 30.8671 20.3077L22.4379 28.7369Z" fill="#333333"/>
<path fill-rule="evenodd" clip-rule="evenodd" d="M15.3984 8.00039C15.3984 6.56445 16.5625 5.40039 17.9984 5.40039H29.9984C31.4344 5.40039 32.5984 6.56445 32.5984 8.00039V8.40039H33.9984C37.0912 8.40039 39.5984 10.9076 39.5984 14.0004V38.0004C39.5984 41.0932 37.0912 43.6004 33.9984 43.6004H13.9984C10.9056 43.6004 8.39844 41.0932 8.39844 38.0004V14.0004C8.39844 10.9076 10.9056 8.40039 13.9984 8.40039H15.3984V8.00039ZM32.5984 12.0004V11.6004H33.9984C35.3239 11.6004 36.3984 12.6749 36.3984 14.0004V38.0004C36.3984 39.3259 35.3239 40.4004 33.9984 40.4004H13.9984C12.673 40.4004 11.5984 39.3259 11.5984 38.0004V14.0004C11.5984 12.6749 12.673 11.6004 13.9984 11.6004H15.3984V12.0004C15.3984 13.4363 16.5625 14.6004 17.9984 14.6004H29.9984C31.4344 14.6004 32.5984 13.4363 32.5984 12.0004ZM18.5984 8.60039V11.4004H29.3984V8.60039H18.5984Z" fill="#333333"/>
</svg>
