<svg width="48" height="48" viewBox="0 0 48 48" fill="none" xmlns="http://www.w3.org/2000/svg">
<path fill-rule="evenodd" clip-rule="evenodd" d="M11.998 7.40039C12.8817 7.40039 13.5977 8.11634 13.5977 9V11C13.5977 11.1541 13.5738 11.3024 13.5332 11.4434C15.2673 11.702 16.5977 13.1938 16.5977 15V24C16.5977 25.9771 15.3482 27.6563 13.5977 28.3066V31C13.5977 31.2209 13.7771 31.4004 13.998 31.4004C15.9863 31.4004 17.5977 33.0118 17.5977 35V39C17.5977 39.8837 16.8817 40.5996 15.998 40.5996C15.1144 40.5996 14.3984 39.8837 14.3984 39V35C14.3984 34.7791 14.219 34.5996 13.998 34.5996C12.0098 34.5996 10.3984 32.9882 10.3984 31V28.3066C8.64789 27.6563 7.39844 25.9771 7.39844 24V15C7.39844 13.1945 8.72776 11.7028 10.4609 11.4434C10.4204 11.3026 10.3984 11.1539 10.3984 11V9C10.3984 8.11634 11.1144 7.40039 11.998 7.40039ZM10.998 14.5996C10.7771 14.5996 10.5977 14.7791 10.5977 15V24C10.5977 24.7732 11.2248 25.4004 11.998 25.4004C12.7712 25.4004 13.3984 24.7732 13.3984 24V15C13.3984 14.7791 13.219 14.5996 12.998 14.5996H10.998Z" fill="#333333"/>
<path fill-rule="evenodd" clip-rule="evenodd" d="M23.998 7.40039C24.8817 7.40039 25.5977 8.11634 25.5977 9V11C25.5977 11.1541 25.5738 11.3024 25.5332 11.4434C27.2673 11.702 28.5977 13.1938 28.5977 15V24C28.5977 25.9771 27.3482 27.6563 25.5977 28.3066V39C25.5977 39.8837 24.8817 40.5996 23.998 40.5996C23.1144 40.5996 22.3984 39.8837 22.3984 39V28.3066C20.6479 27.6563 19.3984 25.9771 19.3984 24V15C19.3984 13.1945 20.7278 11.7028 22.4609 11.4434C22.4204 11.3026 22.3984 11.1539 22.3984 11V9C22.3984 8.11634 23.1144 7.40039 23.998 7.40039ZM22.998 14.5996C22.7771 14.5996 22.5977 14.7791 22.5977 15V24C22.5977 24.7732 23.2248 25.4004 23.998 25.4004C24.7712 25.4004 25.3984 24.7732 25.3984 24V15C25.3984 14.7791 25.219 14.5996 24.998 14.5996H22.998Z" fill="#333333"/>
<path fill-rule="evenodd" clip-rule="evenodd" d="M35.998 7.40039C36.8817 7.40039 37.5977 8.11634 37.5977 9V11C37.5977 11.1541 37.5738 11.3024 37.5332 11.4434C39.2673 11.702 40.5977 13.1938 40.5977 15V24C40.5977 25.9771 39.3482 27.6563 37.5977 28.3066V31C37.5977 32.9882 35.9863 34.5996 33.998 34.5996C33.7771 34.5996 33.5977 34.7791 33.5977 35V39C33.5977 39.8837 32.8817 40.5996 31.998 40.5996C31.1144 40.5996 30.3984 39.8837 30.3984 39V35C30.3984 33.0118 32.0098 31.4004 33.998 31.4004C34.219 31.4004 34.3984 31.2209 34.3984 31V28.3066C32.6479 27.6563 31.3984 25.9771 31.3984 24V15C31.3984 13.1945 32.7278 11.7028 34.4609 11.4434C34.4204 11.3026 34.3984 11.1539 34.3984 11V9C34.3984 8.11634 35.1144 7.40039 35.998 7.40039ZM34.998 14.5996C34.7771 14.5996 34.5977 14.7791 34.5977 15V24C34.5977 24.7732 35.2248 25.4004 35.998 25.4004C36.7712 25.4004 37.3984 24.7732 37.3984 24V15C37.3984 14.7791 37.219 14.5996 36.998 14.5996H34.998Z" fill="#333333"/>
</svg>
