<svg width="48" height="48" viewBox="0 0 48 48" fill="none" xmlns="http://www.w3.org/2000/svg">
<g clip-path="url(#clip0_6648_226)">
<path fill-rule="evenodd" clip-rule="evenodd" d="M41.0634 6.80461C41.4987 7.19162 41.6892 7.78459 41.5609 8.35272L34.9606 37.583C34.5096 39.5803 32.0338 40.2967 30.5859 38.8488L26.0687 34.3315L19.1961 42.0633C18.7548 42.5598 18.0526 42.7319 17.4316 42.4959C16.8107 42.2598 16.4002 41.6646 16.4002 41.0003L16.4002 26.6193L7.54101 22.485C5.43119 21.5004 5.57966 18.452 7.77518 17.6771L39.4677 6.49152C40.017 6.29767 40.6281 6.41759 41.0634 6.80461ZM19.6002 28.1126L19.6002 36.792L23.8021 32.0649L20.0682 28.331L19.6002 28.1126ZM23.263 27.0003L32.0789 35.8163L37.2216 13.0417L23.263 27.0003ZM33.8811 11.8567L20.6613 25.0765L10.2247 20.2061L33.8811 11.8567Z" fill="#333333"/>
</g>
<defs>
<clipPath id="clip0_6648_226">
<rect width="24" height="24" fill="white" transform="scale(2)"/>
</clipPath>
</defs>
</svg>
