<svg width="48" height="48" viewBox="0 0 48 48" fill="none" xmlns="http://www.w3.org/2000/svg">
<path d="M26.1895 29.6094C25.6684 28.0461 27.1555 26.5578 28.7188 27.0781L41.1465 31.2207C42.8911 31.8023 42.993 34.2326 41.3027 34.957L36.9746 36.8125C36.5026 37.0148 36.1261 37.3913 35.9238 37.8633L34.0684 42.1914C33.344 43.8817 30.9137 43.7816 30.332 42.0371L26.1895 29.6094Z" fill="#333333"/>
<path fill-rule="evenodd" clip-rule="evenodd" d="M21.3027 6.40039C25.8375 6.40045 29.5137 10.0765 29.5137 14.6113V19.334H29.7461C33.3227 19.3341 36.2227 22.2339 36.2227 25.8105V26.207L32.9453 25.1133C32.6259 23.6388 31.3162 22.5333 29.7461 22.5332H12.4766C10.6672 22.5332 9.19922 24.0012 9.19922 25.8105V35.5234C9.19922 37.3328 10.6672 38.8008 12.4766 38.8008H25.8809L26.9473 42H12.4766C8.89988 42 6 39.1001 6 35.5234V25.8105C6 22.2339 8.89988 19.334 12.4766 19.334H13.0918V14.6113C13.0918 10.0765 16.7679 6.40039 21.3027 6.40039ZM21.3027 9.59961C18.5352 9.59961 16.291 11.8438 16.291 14.6113V19.334H26.3145V14.6113C26.3145 11.8438 24.0702 9.59967 21.3027 9.59961Z" fill="#333333"/>
</svg>
