<svg width="48" height="48" viewBox="0 0 48 48" fill="none" xmlns="http://www.w3.org/2000/svg">
<path d="M30.5024 34.1858C31.0492 33.6396 31.9363 33.6393 32.4829 34.1858C33.0282 34.7325 33.0273 35.6185 32.4815 36.1649L31.1115 37.5349C32.6816 37.6024 34.5371 36.9373 36.0612 35.4136C37.9861 33.4883 38.5505 31.0229 37.9781 29.2816C37.7368 28.5475 38.1366 27.7558 38.8703 27.5139C39.6043 27.273 40.3964 27.6722 40.6381 28.406C41.6044 31.3443 40.558 34.8773 38.0417 37.394C36.2888 39.1465 34.0367 40.1838 31.8379 40.3246L32.4815 40.9682C33.0273 41.5146 33.0283 42.4007 32.4829 42.9473C31.9363 43.4937 31.0492 43.4934 30.5024 42.9473L27.1119 39.5568C26.5653 39.0101 26.5653 38.123 27.1119 37.5763L30.5024 34.1858Z" fill="#333333"/>
<path fill-rule="evenodd" clip-rule="evenodd" d="M23.999 9.85828C25.5611 8.29619 28.0937 8.2962 29.6558 9.85828L38.1411 18.3436C39.6057 19.8082 39.6964 22.1255 38.4146 23.6966L38.1411 24.0004L23.999 38.1426L23.6951 38.416C22.2286 39.6122 20.1124 39.6124 18.6459 38.416L18.3421 38.1426L9.85683 29.6573C8.29487 28.0953 8.2951 25.5625 9.85683 24.0004L23.999 9.85828ZM12.119 26.2626C11.807 26.575 11.8067 27.0828 12.119 27.3951L20.6043 35.8804C20.9166 36.1927 21.4243 36.1924 21.7368 35.8804L35.8789 21.7382C36.1913 21.4258 36.1913 20.9182 35.8789 20.6058L27.3936 12.1205C27.0812 11.8081 26.5736 11.8081 26.2612 12.1205L12.119 26.2626Z" fill="#333333"/>
<path d="M15.5095 5.05354C16.0562 4.50685 16.9432 4.50693 17.49 5.05354L20.8805 8.44407C21.4271 8.99081 21.4272 9.87782 20.8805 10.4245L17.49 13.815C16.9433 14.3612 16.0561 14.3615 15.5095 13.815C14.9638 13.2684 14.965 12.3825 15.5109 11.836L16.8823 10.4646C15.313 10.3984 13.4595 11.0646 11.9367 12.5873C10.0117 14.5126 9.44721 16.9779 10.0198 18.7192C10.2611 19.4535 9.86177 20.2453 9.12763 20.487C8.39352 20.7281 7.60168 20.3287 7.35986 19.5948C6.39335 16.6564 7.43977 13.1236 9.95627 10.6068C11.7077 8.85558 13.9573 7.81847 16.1545 7.67619L15.5109 7.03261C14.9647 6.48627 14.9641 5.60033 15.5095 5.05354Z" fill="#333333"/>
</svg>
