<svg width="48" height="48" viewBox="0 0 48 48" fill="none" xmlns="http://www.w3.org/2000/svg">
<path fill-rule="evenodd" clip-rule="evenodd" d="M16.9015 6.49649L31.5456 6.33594L41.8502 16.4128L41.7127 30.8249L31.2611 41.0834L16.6171 41.244L6.3125 31.1671L6.44991 16.755L16.9015 6.49649ZM9.63713 18.1105L9.52536 29.8332L17.907 38.0296L29.9385 37.8977L38.5255 29.4694L38.6373 17.7467L30.2556 9.55027L18.2241 9.68218L9.63713 18.1105Z" fill="#333333"/>
<path fill-rule="evenodd" clip-rule="evenodd" d="M24.0001 14.3997C24.8837 14.3997 25.6001 15.1161 25.6001 15.9997V25.9997C25.6001 26.8834 24.8837 27.5997 24.0001 27.5997C23.1164 27.5997 22.4001 26.8834 22.4001 25.9997L22.4001 15.9997C22.4001 15.1161 23.1164 14.3997 24.0001 14.3997Z" fill="#333333"/>
<path d="M24.0001 33.9997C22.9001 33.9997 22.0001 33.0997 22.0001 31.9997C22.0001 30.8997 22.9001 29.9997 24.0001 29.9997C25.1001 29.9997 26.0001 30.8997 26.0001 31.9997C26.0001 33.0997 25.1001 33.9997 24.0001 33.9997Z" fill="#333333"/>
</svg>
