<svg width="48" height="48" viewBox="0 0 48 48" fill="none" xmlns="http://www.w3.org/2000/svg">
<path d="M23.9977 29.5996C24.8813 29.5996 25.5977 28.8833 25.5977 27.9996V20.9996C25.5977 20.116 24.8813 19.3996 23.9977 19.3996C23.114 19.3996 22.3977 20.116 22.3977 20.9996V27.9996C22.3977 28.8833 23.114 29.5996 23.9977 29.5996Z" fill="#333333"/>
<path d="M21.498 14.5C21.498 13.125 22.623 12 23.998 12C25.373 12 26.498 13.125 26.498 14.5C26.498 15.875 25.373 17 23.998 17C22.623 17 21.498 15.875 21.498 14.5Z" fill="#333333"/>
<path fill-rule="evenodd" clip-rule="evenodd" d="M6.39844 12.0004C6.39844 8.9076 8.90564 6.40039 11.9984 6.40039H35.9984C39.0912 6.40039 41.5984 8.9076 41.5984 12.0004V29.0004C41.5984 32.0932 39.0912 34.6004 35.9984 34.6004H24.6612L17.8369 41.4247C16.199 43.0626 13.3984 41.9025 13.3984 39.5862V34.6004H11.9984C8.90564 34.6004 6.39844 32.0932 6.39844 29.0004V12.0004ZM11.9984 9.60039C10.673 9.60039 9.59844 10.6749 9.59844 12.0004V29.0004C9.59844 30.3259 10.673 31.4004 11.9984 31.4004H13.9984C15.4344 31.4004 16.5984 32.5645 16.5984 34.0004V38.1376L22.5742 32.1619C23.0618 31.6743 23.7231 31.4004 24.4127 31.4004H35.9984C37.3239 31.4004 38.3984 30.3259 38.3984 29.0004V12.0004C38.3984 10.6749 37.3239 9.60039 35.9984 9.60039H11.9984Z" fill="#333333"/>
</svg>
