<svg width="48" height="48" viewBox="0 0 48 48" fill="none" xmlns="http://www.w3.org/2000/svg">
<path d="M17.5984 14.0004C17.5984 13.1167 16.8821 12.4004 15.9984 12.4004C15.1148 12.4004 14.3984 13.1167 14.3984 14.0004V34.0004C14.3984 34.884 15.1148 35.6004 15.9984 35.6004C16.8821 35.6004 17.5984 34.884 17.5984 34.0004V14.0004Z" fill="#333333"/>
<path d="M32.8663 12.869C33.4911 12.2442 34.5042 12.2442 35.129 12.869C35.7539 13.4939 35.7539 14.5069 35.129 15.1318L26.2604 24.0004L35.129 32.869C35.7539 33.4939 35.7539 34.5069 35.129 35.1318C34.5042 35.7566 33.4911 35.7566 32.8663 35.1318L22.8663 25.1318C22.2414 24.5069 22.2414 23.4939 22.8663 22.869L32.8663 12.869Z" fill="#333333"/>
</svg>
