<svg width="48" height="48" viewBox="0 0 48 48" fill="none" xmlns="http://www.w3.org/2000/svg">
<path fill-rule="evenodd" clip-rule="evenodd" d="M5.87097 5.86914C6.49582 5.24436 7.50787 5.24432 8.13269 5.86914L42.1327 39.8691C42.7573 40.494 42.7574 41.5061 42.1327 42.1309C41.5079 42.7556 40.4958 42.7555 39.871 42.1309L33.1639 35.4238L33.5975 41.8945C33.6363 42.4817 33.35 43.0428 32.8514 43.3555C32.352 43.6679 31.7205 43.6806 31.2089 43.3887L25.0018 39.8418L18.7948 43.3887C18.2832 43.6808 17.6517 43.6678 17.1522 43.3555C16.6535 43.0429 16.3673 42.4819 16.4061 41.8945L17.3944 27.043C14.3617 24.7422 12.4022 21.1005 12.4022 17C12.4022 16.2655 12.4653 15.5458 12.5858 14.8457L5.87097 8.13086C5.24613 7.50602 5.24613 6.49398 5.87097 5.86914ZM19.7948 39.1328L24.2089 36.6113L24.3964 36.5195C24.8482 36.3348 25.3643 36.3655 25.7948 36.6113L30.2069 39.1328L29.7303 31.9902L27.1503 29.4102C26.4518 29.5309 25.7347 29.5996 25.0018 29.5996C23.4099 29.5996 21.8884 29.3004 20.4862 28.7617L19.7948 39.1328ZM15.6444 17.9043C16.071 22.3733 19.6269 25.9279 24.0956 26.3555L15.6444 17.9043Z" fill="#333333"/>
<path d="M25.0018 4.40039C31.9606 4.40046 37.6014 10.0413 37.6014 17C37.6014 20.3808 36.2679 23.4532 34.1014 25.7148C33.709 26.1245 33.2847 26.5023 32.8397 26.8555L30.5604 24.5762C31.0002 24.2528 31.4138 23.8956 31.7909 23.502C33.4097 21.8121 34.4022 19.5233 34.4022 17C34.4022 11.8086 30.1933 7.59967 25.0018 7.59961C21.8915 7.59961 19.1329 9.10977 17.4218 11.4375L15.1425 9.1582C17.4508 6.25976 21.0083 4.40039 25.0018 4.40039Z" fill="#333333"/>
</svg>
