<svg width="48" height="48" viewBox="0 0 48 48" fill="none" xmlns="http://www.w3.org/2000/svg">
<path fill-rule="evenodd" clip-rule="evenodd" d="M24.0004 4.40039C20.6315 4.40039 17.9004 7.13145 17.9004 10.5004C17.9004 11.4967 18.1393 12.4373 18.5628 13.2679C15.9023 13.0286 13.4612 12.5432 10.7857 11.7975C8.40076 11.1329 5.83228 12.4764 5.16582 14.9502C4.54869 17.2409 5.83488 19.6453 8.13333 20.3507C10.9008 21.2001 13.2007 21.7818 16.1711 22.0816L15.1325 29.1882C15.1283 29.2168 15.1249 29.2455 15.1222 29.2743L14.0803 40.7044C13.8765 42.9397 15.5132 44.9212 17.7468 45.1433C19.7346 45.3409 21.5741 44.0729 22.0966 42.1448L24.0642 34.8845L25.9194 42.0905C26.4226 44.0449 28.2762 45.3401 30.2845 45.1405C32.5005 44.9203 34.133 42.9675 33.957 40.7475L33.0487 29.2931C33.0452 29.2493 33.04 29.2057 33.0329 29.1624L31.8551 21.9281C34.6251 21.6151 37.0785 21.0993 39.8163 20.3259C42.1636 19.6628 43.4522 17.2318 42.8379 14.9422C42.1743 12.469 39.6219 11.1376 37.2536 11.7393C34.6524 12.4002 32.0565 12.8445 29.5135 13.1145C29.8898 12.3222 30.1004 11.4359 30.1004 10.5004C30.1004 7.13145 27.3693 4.40039 24.0004 4.40039ZM21.1004 10.5004C21.1004 8.89876 22.3988 7.60039 24.0004 7.60039C25.602 7.60039 26.9004 8.89876 26.9004 10.5004C26.9004 12.102 25.602 13.4004 24.0004 13.4004C22.3988 13.4004 21.1004 12.102 21.1004 10.5004ZM38.0415 14.8408C38.8276 14.6411 39.5673 15.1011 39.7472 15.7714C39.9256 16.4365 39.5432 17.0778 38.9464 17.2464C35.832 18.1261 33.1576 18.642 29.8741 18.9039C29.4284 18.9395 29.018 19.1599 28.7422 19.5117C28.4663 19.8635 28.3503 20.3147 28.4221 20.756L29.8639 29.6117L30.767 41.0005C30.8053 41.4834 30.4501 41.9083 29.968 41.9562C29.5311 41.9996 29.1279 41.7178 29.0184 41.2926L25.7508 28.6008C25.5688 27.8938 24.9313 27.3997 24.2013 27.3997H24.0013C23.2789 27.3997 22.646 27.8839 22.457 28.5812L19.0081 41.3078C18.8946 41.7265 18.4951 42.0019 18.0634 41.959C17.5783 41.9107 17.2228 41.4804 17.2671 40.9949L18.3051 29.608L19.5845 20.8538C19.6493 20.4103 19.5252 19.9601 19.2424 19.6125C18.9595 19.2649 18.5439 19.0519 18.0965 19.0252C14.5645 18.8147 12.2019 18.2521 9.07221 17.2915C8.45246 17.1013 8.07873 16.4394 8.25566 15.7826C8.4373 15.1084 9.17089 14.6694 9.9266 14.88C13.6423 15.9156 16.9972 16.4927 20.9998 16.6178C21.9847 16.6486 22.9941 16.6584 24.0241 16.6437C24.9986 16.6298 25.9916 16.594 26.9998 16.5333C30.57 16.3182 34.2931 15.7932 38.0415 14.8408Z" fill="#333333"/>
</svg>
