<svg width="48" height="48" viewBox="0 0 48 48" fill="none" xmlns="http://www.w3.org/2000/svg">
<path fill-rule="evenodd" clip-rule="evenodd" d="M20.9984 22.4004C19.5625 22.4004 18.3984 23.5645 18.3984 25.0004V39.0004C18.3984 40.4363 19.5625 41.6004 20.9984 41.6004H25.9984C27.4344 41.6004 28.5984 40.4363 28.5984 39.0004V25.0004C28.5984 23.5645 27.4344 22.4004 25.9984 22.4004H20.9984ZM21.5984 38.4004V25.6004H25.3984V38.4004H21.5984Z" fill="#333333"/>
<path fill-rule="evenodd" clip-rule="evenodd" d="M7.99844 30.4004C6.5625 30.4004 5.39844 31.5645 5.39844 33.0004V39.0004C5.39844 40.4363 6.5625 41.6004 7.99844 41.6004H12.9984C14.4344 41.6004 15.5984 40.4363 15.5984 39.0004V33.0004C15.5984 31.5645 14.4344 30.4004 12.9984 30.4004H7.99844ZM8.59844 38.4004V33.6004H12.3984V38.4004H8.59844Z" fill="#333333"/>
</svg>
