<svg width="48" height="48" viewBox="0 0 48 48" fill="none" xmlns="http://www.w3.org/2000/svg">
<path fill-rule="evenodd" clip-rule="evenodd" d="M16.265 28.9487C13.3034 26.6432 11.3984 23.0442 11.3984 19.0004C11.3984 12.0416 17.0396 6.40039 23.9984 6.40039C30.9572 6.40039 36.5984 12.0416 36.5984 19.0004C36.5984 22.3812 35.2648 25.4539 33.0983 27.7155C32.6738 28.1586 32.2171 28.5709 31.7319 28.9485L32.5949 41.8936C32.6341 42.4817 32.3468 43.0437 31.8471 43.3563C31.3475 43.669 30.7164 43.6816 30.2046 43.3892L23.9985 39.8428L17.7923 43.3892C17.2805 43.6816 16.6494 43.669 16.1498 43.3563C15.6501 43.0437 15.3628 42.4817 15.402 41.8936L16.265 28.9487ZM14.5984 19.0004C14.5984 13.8089 18.807 9.60039 23.9984 9.60039C29.1899 9.60039 33.3984 13.8089 33.3984 19.0004C33.3984 21.5237 32.4063 23.812 30.7875 25.5019C30.2025 26.1125 29.5366 26.6441 28.807 27.0794L28.402 27.1064L28.4149 27.3008C27.0982 28.003 25.5952 28.4004 23.9984 28.4004C22.4021 28.4004 20.8987 28.0025 19.582 27.3004L19.5949 27.1064L19.1905 27.0795C16.4405 25.4394 14.5984 22.435 14.5984 19.0004ZM19.3542 30.7169L18.7932 39.1316L23.2046 36.6108C23.6965 36.3297 24.3004 36.3297 24.7923 36.6108L29.2037 39.1316L28.6427 30.7164C27.2054 31.2867 25.6383 31.6004 23.9984 31.6004C22.3583 31.6004 20.7914 31.287 19.3542 30.7169Z" fill="#333333"/>
</svg>
