<svg width="48" height="48" viewBox="0 0 48 48" fill="none" xmlns="http://www.w3.org/2000/svg">
<path d="M25.5996 22.4004H29.9453V25.5996H24.1992C23.2057 25.5992 22.4008 24.7943 22.4004 23.8008V18.0547H25.5996V22.4004Z" fill="#333333"/>
<path d="M23.2383 6.97461C25.5492 6.97461 27.8376 7.43025 29.9727 8.31445C32.108 9.19894 34.0493 10.4966 35.6836 12.1309C37.3176 13.765 38.6136 15.7049 39.498 17.8398C40.3825 19.9752 40.8379 22.2649 40.8379 24.5762V25.5977L34.2539 25.5996V22.4004H37.4727C37.2982 21.2576 36.9873 20.1371 36.543 19.0645C35.8193 17.3174 34.7571 15.7297 33.4199 14.3926C32.0829 13.0557 30.4948 11.995 28.748 11.2715C27.7341 10.8516 26.6772 10.5542 25.5996 10.375V13.7461H22.4004L22.3984 6.97461H23.2383Z" fill="#333333"/>
</svg>
