<svg width="48" height="48" viewBox="0 0 48 48" fill="none" xmlns="http://www.w3.org/2000/svg">
<path fill-rule="evenodd" clip-rule="evenodd" d="M37.998 4.40039C41.0908 4.40039 43.5977 6.90721 43.5977 10V20C43.5977 23.0928 41.0908 25.5996 37.998 25.5996H36.5977V31C36.5977 34.0927 34.0907 36.5995 30.998 36.5996H25.5977V38C25.5977 41.0928 23.0908 43.5996 19.998 43.5996H9.99805C6.90525 43.5996 4.39844 41.0928 4.39844 38V28C4.39844 24.9072 6.90525 22.4004 9.99805 22.4004H11.3984V17C11.3984 13.9072 13.9053 11.4004 16.998 11.4004H22.3984V10C22.3984 6.90721 24.9053 4.40039 27.998 4.40039H37.998ZM9.99805 25.5996C8.67256 25.5996 7.59766 26.6745 7.59766 28V38C7.59766 39.3255 8.67256 40.4004 9.99805 40.4004H19.998C21.3235 40.4004 22.3984 39.3255 22.3984 38V28C22.3984 26.6745 21.3235 25.5996 19.998 25.5996H9.99805ZM27.998 7.59961C26.6726 7.59961 25.5977 8.67452 25.5977 10V20C25.5977 21.3255 26.6726 22.4004 27.998 22.4004H37.998C39.3235 22.4004 40.3984 21.3255 40.3984 20V10C40.3984 8.67452 39.3235 7.59961 37.998 7.59961H27.998Z" fill="#333333"/>
</svg>
