<svg width="48" height="48" viewBox="0 0 48 48" fill="none" xmlns="http://www.w3.org/2000/svg">
<path d="M6.55375 11.3128C6.81902 10.7554 7.38122 10.4004 7.99845 10.4004H39.9985C40.6157 10.4004 41.1779 10.7554 41.4432 11.3128C41.7084 11.8701 41.6295 12.5303 41.2402 13.0093L34.417 21.4072C34.278 21.4027 34.1385 21.4004 33.9984 21.4004C32.4826 21.4004 31.0294 21.6681 29.6833 22.1587L36.6369 13.6004H11.36L22.2402 26.9914C22.472 27.2766 22.5985 27.6329 22.5985 28.0004V28.6268C21.8288 30.2568 21.3984 32.0783 21.3984 34.0004C21.3984 36.5364 22.1476 38.8974 23.4368 40.8742L21.5044 41.5183C21.0165 41.6809 20.4801 41.5991 20.0629 41.2984C19.6457 40.9977 19.3985 40.5147 19.3985 40.0004V28.5685L6.75667 13.0093C6.36745 12.5303 6.28848 11.8701 6.55375 11.3128Z" fill="#333333"/>
<path fill-rule="evenodd" clip-rule="evenodd" d="M33.998 44C39.5209 44 43.998 39.5228 43.998 34C43.998 28.4772 39.5209 24 33.998 24C28.4752 24 23.998 28.4772 23.998 34C23.998 39.5228 28.4752 44 33.998 44ZM28.9372 33.5007C29.523 32.9148 30.4727 32.9147 31.0586 33.5004L32.4374 34.8788L37.3768 29.9393C37.9626 29.3536 38.9124 29.3536 39.4982 29.9393C40.0839 30.5251 40.0839 31.4749 39.4982 32.0607L33.4982 38.0607C32.9124 38.6464 31.9628 38.6465 31.377 38.0608L28.9375 35.622C28.3517 35.0363 28.3515 34.0865 28.9372 33.5007Z" fill="#333333"/>
</svg>
