<svg width="48" height="48" viewBox="0 0 48 48" fill="none" xmlns="http://www.w3.org/2000/svg">
<path fill-rule="evenodd" clip-rule="evenodd" d="M15.998 16.4004C19.6466 16.4004 22.6931 18.9713 23.4277 22.4004H37.998C38.8817 22.4004 39.5977 23.1163 39.5977 24C39.5977 24.8837 38.8817 25.5996 37.998 25.5996H23.4277C22.6931 29.0287 19.6466 31.5996 15.998 31.5996C11.8007 31.5996 8.39844 28.1974 8.39844 24C8.39844 19.8026 11.8007 16.4004 15.998 16.4004ZM15.998 19.5996C13.568 19.5996 11.5977 21.5699 11.5977 24C11.5977 26.4301 13.568 28.4004 15.998 28.4004C18.4281 28.4004 20.3984 26.4301 20.3984 24C20.3984 21.5699 18.4281 19.5996 15.998 19.5996Z" fill="#333333"/>
</svg>
