<svg width="48" height="48" viewBox="0 0 48 48" fill="none" xmlns="http://www.w3.org/2000/svg">
<path fill-rule="evenodd" clip-rule="evenodd" d="M25.9355 5.80452C26.4065 5.38593 27.0795 5.28274 27.6543 5.54085C28.2285 5.79916 28.5977 6.37011 28.5977 6.99984V38.9998C28.5976 39.6295 28.2285 40.2005 27.6543 40.4588C27.0796 40.7169 26.4064 40.6137 25.9355 40.1951L18.0723 33.2069C17.6329 32.8164 17.0644 32.5994 16.4766 32.5994H9.99805C6.9053 32.5994 4.39852 30.0926 4.39844 26.9998V18.9998C4.39844 15.907 6.90525 13.4002 9.99805 13.4002H16.4766C17.0643 13.4002 17.633 13.1833 18.0723 12.7928L25.9355 5.80452ZM20.1973 15.1854C19.1722 16.0964 17.8479 16.5994 16.4766 16.5994H9.99805C8.67256 16.5994 7.59766 17.6744 7.59766 18.9998V26.9998C7.59774 28.3253 8.67261 29.4002 9.99805 29.4002H16.4766C17.848 29.4002 19.1722 29.9032 20.1973 30.8143L25.3984 35.4373V10.5604L20.1973 15.1854Z" fill="#333333"/>
<path d="M32.8125 14.701C33.5298 14.1854 34.529 14.3491 35.0449 15.0662C36.6513 17.2995 37.5977 20.0414 37.5977 22.9998C37.5976 25.9582 36.6513 28.7002 35.0449 30.9334C34.529 31.6505 33.5298 31.8142 32.8125 31.2987C32.0954 30.7828 31.9318 29.7835 32.4473 29.0662C33.6753 27.3592 34.3984 25.2658 34.3984 22.9998C34.3984 20.7338 33.6753 18.6405 32.4473 16.9334C31.9317 16.2162 32.0954 15.2169 32.8125 14.701Z" fill="#333333"/>
</svg>
