<svg width="48" height="48" viewBox="0 0 48 48" fill="none" xmlns="http://www.w3.org/2000/svg">
<path d="M30.998 22.3984C31.8817 22.3984 32.5996 23.1163 32.5996 24C32.5996 24.8837 31.8817 25.6016 30.998 25.6016L16.998 25.5996C16.1145 25.5994 15.3984 24.8836 15.3984 24C15.3984 23.1164 16.1145 22.4006 16.998 22.4004L30.998 22.3984Z" fill="#333333"/>
<path fill-rule="evenodd" clip-rule="evenodd" d="M23.998 6.40039C33.7183 6.40039 41.5977 14.2798 41.5977 24C41.5977 28.7226 39.7358 33.0141 36.709 36.1738C33.5073 39.516 28.9946 41.5996 23.998 41.5996C14.2778 41.5996 6.39844 33.7202 6.39844 24C6.39844 14.2798 14.2778 6.40039 23.998 6.40039ZM23.998 9.59961C16.0451 9.59961 9.59766 16.0471 9.59766 24C9.59766 31.9529 16.0451 38.4004 23.998 38.4004C28.0866 38.4004 31.7753 36.6973 34.3984 33.959C36.8772 31.3711 38.3984 27.8649 38.3984 24C38.3984 16.0471 31.9509 9.59961 23.998 9.59961Z" fill="#333333"/>
</svg>
