<svg width="48" height="48" viewBox="0 0 48 48" fill="none" xmlns="http://www.w3.org/2000/svg">
<path fill-rule="evenodd" clip-rule="evenodd" d="M25.5988 34.4998V38.4012H33.9988C34.8825 38.4012 35.5988 39.1175 35.5988 40.0012C35.5988 40.8848 34.8825 41.6012 33.9988 41.6012H13.9988C13.1152 41.6012 12.3988 40.8848 12.3988 40.0012C12.3988 39.1175 13.1152 38.4012 13.9988 38.4012H22.3988V34.4998C17.4048 33.8669 13.3225 30.3108 11.9206 25.6004H10.1984C8.58188 25.6004 7.34453 24.5718 6.5908 23.3941C5.82379 22.1957 5.39844 20.6371 5.39844 19.0004C5.39844 17.3637 5.82379 15.8051 6.5908 14.6067C7.34453 13.4289 8.58188 12.4004 10.1984 12.4004H11.3988V10.0004C11.3988 8.01216 13.0106 6.40039 14.9988 6.40039H32.9988C34.9871 6.40039 36.5988 8.01216 36.5988 10.0004V12.4004H37.7984C39.415 12.4004 40.6523 13.4289 41.4061 14.6067C42.1731 15.8051 42.5984 17.3637 42.5984 19.0004C42.5984 20.6371 42.1731 22.1957 41.4061 23.3941C40.6523 24.5718 39.415 25.6004 37.7984 25.6004H36.077C34.6751 30.3108 30.5928 33.8669 25.5988 34.4998ZM11.3988 22.0004C11.3988 22.1342 11.4009 22.2676 11.4051 22.4004H10.1984C10.055 22.4004 9.69234 22.304 9.28607 21.6692C8.89309 21.0551 8.59844 20.1137 8.59844 19.0004C8.59844 17.8871 8.89309 16.9457 9.28607 16.3316C9.69234 15.6968 10.055 15.6004 10.1984 15.6004H11.3988V22.0004ZM36.5926 22.4004H37.7984C37.9419 22.4004 38.3045 22.304 38.7108 21.6692C39.1038 21.0551 39.3984 20.1137 39.3984 19.0004C39.3984 17.8871 39.1038 16.9457 38.7108 16.3316C38.3045 15.6968 37.9419 15.6004 37.7984 15.6004H36.5988V22.0004C36.5988 22.1342 36.5967 22.2676 36.5926 22.4004ZM23.9988 31.4004C18.8074 31.4004 14.5988 27.1919 14.5988 22.0004V10.0004C14.5988 9.77947 14.7779 9.60039 14.9988 9.60039H32.9988C33.2197 9.60039 33.3988 9.77947 33.3988 10.0004V22.0004C33.3988 27.1919 29.1903 31.4004 23.9988 31.4004Z" fill="#333333"/>
<path d="M28.6472 16.4379C28.6472 16.9309 28.5838 17.3887 28.457 17.8113C28.3302 18.2339 28.1612 18.6353 27.9499 19.0157C27.7386 19.396 27.4992 19.7622 27.2315 20.1144C26.9639 20.4665 26.6892 20.8046 26.4075 21.1286L23.6184 24.3613H27.5402C28.3454 24.3613 28.9981 25.0141 28.9981 25.8192C28.9981 26.6244 28.3454 27.2771 27.5402 27.2771H21.7871C20.5814 27.2771 19.6039 26.2997 19.6039 25.0939C19.6039 24.567 19.7944 24.0579 20.1404 23.6605L24.1467 19.0579C24.5129 18.6353 24.8017 18.2057 25.013 17.769C25.2243 17.3183 25.3299 16.8887 25.3299 16.4802C25.3299 16.0435 25.2243 15.6702 25.013 15.3603C24.8158 15.0504 24.4988 14.8955 24.0622 14.8955C23.6537 14.8955 23.3156 15.0645 23.048 15.4026C22.9672 15.5003 22.8601 15.6539 22.7485 15.838C22.2963 16.5837 21.4619 17.2307 20.5936 17.1497C19.7172 17.0679 19.0733 16.2722 19.3988 15.4544C19.7821 14.4913 20.3692 13.6334 20.935 13.1418C21.8084 12.3811 22.886 12.0008 24.1678 12.0008C24.858 12.0008 25.4778 12.1064 26.0272 12.3177C26.5765 12.529 27.0414 12.8248 27.4217 13.2051C27.8161 13.5855 28.119 14.0503 28.3302 14.5997C28.5415 15.149 28.6472 15.7618 28.6472 16.4379Z" fill="#333333"/>
</svg>
