<svg width="48" height="48" viewBox="0 0 48 48" fill="none" xmlns="http://www.w3.org/2000/svg">
<path d="M23.9974 40.6748C16.9034 38.4365 11.3641 30.6527 11.3641 22.0903V15.8635C11.3641 15.5514 11.5456 15.2678 11.829 15.1371L23.6623 9.67883C23.8749 9.58075 24.1199 9.58075 24.3325 9.67883L36.1658 15.1371C36.4254 15.2568 36.5995 15.5049 36.6269 15.7856C37.8156 16.1435 38.9017 16.7379 39.8307 17.5142V15.8635C39.8307 14.303 38.9232 12.8849 37.5061 12.2313L25.6728 6.77305C24.6097 6.28268 23.3851 6.28268 22.322 6.77305L10.4887 12.2313C9.07161 12.8849 8.16406 14.303 8.16406 15.8635V22.0903C8.16406 32.2237 14.9196 41.6997 23.9974 44.0003C25.6545 43.5803 27.2342 42.9212 28.7096 42.0627C28.6459 41.7963 28.613 41.5213 28.613 41.2429V38.2965C27.19 39.3457 25.6351 40.1581 23.9974 40.6748Z" fill="#333333"/>
<path fill-rule="evenodd" clip-rule="evenodd" d="M28.6631 28.215C29.3077 29.1391 30.1861 29.8878 31.2126 30.3755V41.2425C31.2126 41.4888 31.3105 41.725 31.4846 41.8991L33.3135 43.728C33.6871 44.1016 34.2966 44.0887 34.654 43.6996L38.0396 40.0144C38.3762 39.648 38.3642 39.0813 38.0124 38.7295L35.8559 36.5729L37.9852 34.4437C38.3478 34.081 38.3478 33.493 37.9852 33.1304L35.8559 31.0011V30.7319C38.541 29.9327 40.4991 27.4453 40.4991 24.5005C40.4991 20.9104 37.5887 18 33.9986 18C30.4084 18 27.498 20.9104 27.498 24.5005C27.498 24.8158 27.5205 25.1258 27.5639 25.4291C27.7105 26.4543 28.0964 27.4024 28.6631 28.215ZM33.9986 21.7146C35.0243 21.7146 35.8559 22.5461 35.8559 23.5719C35.8559 24.5976 35.0243 25.4292 33.9986 25.4292C32.9728 25.4292 32.1413 24.5976 32.1413 23.5719C32.1413 22.5461 32.9728 21.7146 33.9986 21.7146Z" fill="#333333"/>
</svg>
