<svg width="48" height="48" viewBox="0 0 48 48" fill="none" xmlns="http://www.w3.org/2000/svg">
<path d="M10 34C12.2091 34 14 35.7909 14 38C14 40.2091 12.2091 42 10 42C7.79086 42 6 40.2091 6 38C6 35.7909 7.79086 34 10 34Z" fill="#333333"/>
<path d="M24 34C26.2091 34 28 35.7909 28 38C28 40.2091 26.2091 42 24 42C21.7909 42 20 40.2091 20 38C20 35.7909 21.7909 34 24 34Z" fill="#333333"/>
<path d="M38 36C39.1046 36 40 36.8954 40 38C40 39.1046 39.1046 40 38 40C36.8954 40 36 39.1046 36 38C36 36.8954 36.8954 36 38 36Z" fill="#333333"/>
<path d="M10 20C12.2091 20 14 21.7909 14 24C14 26.2091 12.2091 28 10 28C7.79086 28 6 26.2091 6 24C6 21.7909 7.79086 20 10 20Z" fill="#333333"/>
<path d="M24 20C26.2091 20 28 21.7909 28 24C28 26.2091 26.2091 28 24 28C21.7909 28 20 26.2091 20 24C20 21.7909 21.7909 20 24 20Z" fill="#333333"/>
<path d="M38 20C40.2091 20 42 21.7909 42 24C42 26.2091 40.2091 28 38 28C35.7909 28 34 26.2091 34 24C34 21.7909 35.7909 20 38 20Z" fill="#333333"/>
<path d="M10 4C13.3137 4 16 6.68629 16 10C16 13.3137 13.3137 16 10 16C6.68629 16 4 13.3137 4 10C4 6.68629 6.68629 4 10 4Z" fill="#333333"/>
<path d="M24 6C26.2091 6 28 7.79086 28 10C28 12.2091 26.2091 14 24 14C21.7909 14 20 12.2091 20 10C20 7.79086 21.7909 6 24 6Z" fill="#333333"/>
<path d="M38 6C40.2091 6 42 7.79086 42 10C42 12.2091 40.2091 14 38 14C35.7909 14 34 12.2091 34 10C34 7.79086 35.7909 6 38 6Z" fill="#333333"/>
</svg>
