<svg width="48" height="48" viewBox="0 0 48 48" fill="none" xmlns="http://www.w3.org/2000/svg">
<path fill-rule="evenodd" clip-rule="evenodd" d="M32.9245 29.7316C32.7114 29.9696 32.4147 30.2727 32.0329 30.6418L30.2693 32.373C30.0183 32.6194 29.877 32.9563 29.877 33.308C29.877 34.0316 30.4635 34.6182 31.1871 34.6182H35.2087C35.8393 34.6182 36.3505 34.107 36.3505 33.4764C36.3505 32.8458 35.8393 32.3346 35.2087 32.3346H33.365L33.9588 31.799L33.9605 31.7974C34.463 31.3336 34.8718 30.9251 35.1852 30.5725L35.1876 30.5698C35.5037 30.2009 35.7404 29.8449 35.8915 29.5015L35.8926 29.4989C36.0446 29.1396 36.1198 28.7541 36.1198 28.3446C36.1198 27.5394 35.8441 26.9001 35.2757 26.4585C34.7313 26.0127 34.0166 25.7998 33.1521 25.7998C32.451 25.7998 31.8266 25.9188 31.2837 26.1629C31.0467 26.2663 30.8192 26.385 30.6014 26.5191C30.0614 26.8516 30.0283 27.563 30.3981 28.0192C30.8044 28.5202 31.5059 28.5291 32.0165 28.2445C32.0592 28.2207 32.1007 28.1992 32.141 28.18C32.4031 28.0611 32.6368 28.0065 32.8446 28.0065C33.0686 28.0065 33.2128 28.0623 33.3058 28.1468L33.3124 28.1523C33.4133 28.2364 33.4711 28.3555 33.4711 28.5368C33.4711 28.7263 33.4323 28.9105 33.3533 29.0909C33.2745 29.271 33.1345 29.4843 32.9245 29.7316Z" fill="#333333"/>
<path fill-rule="evenodd" clip-rule="evenodd" d="M28.8309 27.5691C28.8309 28.4912 28.7266 29.3365 28.518 30.1049C28.3095 30.8624 28.0131 31.5101 27.6288 32.048C27.2446 32.5859 26.7726 33.0031 26.2127 33.2995C25.6638 33.5959 25.0436 33.7441 24.352 33.7441C23.6604 33.7441 23.0346 33.5959 22.4748 33.2995C21.9259 33.0031 21.4593 32.5859 21.0751 32.048C20.6909 31.5101 20.3945 30.8624 20.1859 30.1049C19.9773 29.3365 19.873 28.4912 19.873 27.5691C19.873 26.6469 19.9718 25.8126 20.1694 25.0662C20.378 24.3087 20.6744 23.6665 21.0586 23.1396C21.4429 22.6016 21.9094 22.19 22.4583 21.9046C23.0182 21.6082 23.6494 21.46 24.352 21.46C25.0436 21.46 25.6638 21.6082 26.2127 21.9046C26.7726 22.19 27.2446 22.6016 27.6288 23.1396C28.0131 23.6665 28.3095 24.3087 28.518 25.0662C28.7266 25.8126 28.8309 26.6469 28.8309 27.5691ZM26.1304 27.5691C26.1304 27.0641 26.0919 26.5976 26.0151 26.1694C25.9383 25.7303 25.823 25.3516 25.6693 25.0332C25.5266 24.7149 25.3455 24.4679 25.1259 24.2922C24.9063 24.1056 24.6484 24.0123 24.352 24.0123C24.0556 24.0123 23.7921 24.1056 23.5616 24.2922C23.342 24.4679 23.1554 24.7149 23.0017 25.0332C22.859 25.3516 22.7492 25.7303 22.6724 26.1694C22.6065 26.5976 22.5736 27.0641 22.5736 27.5691C22.5736 28.0741 22.6065 28.5461 22.6724 28.9852C22.7492 29.4243 22.859 29.8031 23.0017 30.1214C23.1554 30.4398 23.342 30.6923 23.5616 30.8789C23.7921 31.0655 24.0556 31.1588 24.352 31.1588C24.6484 31.1588 24.9063 31.0655 25.1259 30.8789C25.3455 30.6923 25.5266 30.4398 25.6693 30.1214C25.823 29.8031 25.9383 29.4243 26.0151 28.9852C26.0919 28.5461 26.1304 28.0741 26.1304 27.5691Z" fill="#333333"/>
<path d="M18.5495 33.0287C19.125 32.5963 19.0861 31.7763 18.6359 31.2147L18.4885 31.0309C18.215 30.6898 17.669 30.7186 17.3051 30.9612C17.0417 31.1369 16.7343 31.2247 16.383 31.2247C16.0317 31.2247 15.7243 31.1314 15.4609 30.9447C15.1974 30.7581 14.9724 30.5001 14.7858 30.1708C14.6101 29.8415 14.4784 29.4573 14.3906 29.0181C14.3027 28.579 14.2588 28.107 14.2588 27.602C14.2588 27.097 14.3027 26.625 14.3906 26.1859C14.4784 25.7358 14.6101 25.3516 14.7858 25.0332C14.9724 24.7039 15.1919 24.4459 15.4444 24.2593C15.7079 24.0727 16.0153 23.9794 16.3665 23.9794C16.7398 23.9794 17.0472 24.0562 17.2887 24.2099C17.6833 24.4501 18.2402 24.4628 18.5154 24.0916L18.6312 23.9354C19.0746 23.3373 19.0809 22.4863 18.4535 22.0853C18.345 22.0159 18.2312 21.9502 18.112 21.8881C17.5961 21.6027 16.9484 21.46 16.1689 21.46C15.4883 21.46 14.8681 21.6082 14.3082 21.9046C13.7593 22.201 13.2873 22.6181 12.8921 23.156C12.4969 23.6939 12.1895 24.3416 11.97 25.0991C11.7504 25.8566 11.6406 26.6909 11.6406 27.602C11.6406 28.5022 11.7504 29.331 11.97 30.0885C12.1895 30.835 12.4969 31.4827 12.8921 32.0315C13.2873 32.5695 13.7593 32.9921 14.3082 33.2995C14.8681 33.5959 15.4883 33.7441 16.1689 33.7441C16.9703 33.7441 17.629 33.5959 18.1449 33.2995C18.2873 33.2146 18.4222 33.1244 18.5495 33.0287Z" fill="#333333"/>
<path fill-rule="evenodd" clip-rule="evenodd" d="M12.5672 16.4982C14.1136 11.5692 18.6476 8 24 8C30.6202 8 35.9882 13.4601 36 20.2C40.5645 21.1266 44 25.1621 44 30C44 35.5228 39.5228 40 34 40H16C9.37258 40 4 34.6274 4 28C4 22.5655 7.61254 17.9748 12.5672 16.4982ZM15.1113 19.0791L13.4811 19.5649C9.84543 20.6484 7.2 24.0194 7.2 28C7.2 32.8601 11.1399 36.8 16 36.8H34C37.7555 36.8 40.8 33.7555 40.8 30C40.8 26.7139 38.4659 23.9658 35.3634 23.3361L32.8045 22.8167L32.8 20.2056C32.7912 15.175 28.7998 11.2 24 11.2C20.1182 11.2 16.7704 13.7909 15.6205 17.4561L15.1113 19.0791Z" fill="#333333"/>
</svg>
