<svg width="48" height="48" viewBox="0 0 48 48" fill="none" xmlns="http://www.w3.org/2000/svg">
<path d="M17.873 32.4004C18.7567 32.4004 19.4727 33.1164 19.4727 34C19.4727 34.8836 18.7567 35.5996 17.873 35.5996L16.123 35.6016C15.2394 35.6015 14.5234 34.8836 14.5234 34C14.5234 33.1164 15.2394 32.3985 16.123 32.3984L17.873 32.4004Z" fill="#333333"/>
<path d="M24.873 32.3984C25.7565 32.3987 26.4746 33.1165 26.4746 34C26.4746 34.8835 25.7565 35.6013 24.873 35.6016H23.123C22.2397 35.6012 21.5215 34.8834 21.5215 34C21.5215 33.1166 22.2397 32.3988 23.123 32.3984H24.873Z" fill="#333333"/>
<path d="M31.873 32.3984C32.7566 32.3986 33.4727 33.1164 33.4727 34C33.4727 34.8836 32.7566 35.6014 31.873 35.6016L30.123 35.5996C29.2394 35.5996 28.5234 34.8836 28.5234 34C28.5234 33.1164 29.2394 32.4004 30.123 32.4004L31.873 32.3984Z" fill="#333333"/>
<path d="M37.998 32.4004C38.8816 32.4005 39.5977 33.1164 39.5977 34C39.5977 34.8836 38.8816 35.5995 37.998 35.5996L37.123 35.6016C36.2397 35.6012 35.5234 34.8835 35.5234 34C35.5234 33.1165 36.2397 32.3988 37.123 32.3984L37.998 32.4004Z" fill="#333333"/>
<path d="M10.873 32.4004C11.7564 32.4007 12.4727 33.1165 12.4727 34C12.4727 34.8835 11.7564 35.5993 10.873 35.5996H9.99805C9.11442 35.5996 8.39844 34.8836 8.39844 34C8.39844 33.1164 9.11442 32.4004 9.99805 32.4004H10.873Z" fill="#333333"/>
<path d="M27.498 22.3984C28.3815 22.3987 29.0977 23.1165 29.0977 24C29.0977 24.8835 28.3815 25.6013 27.498 25.6016H20.498C19.6145 25.6014 18.8984 24.8836 18.8984 24C18.8984 23.1164 19.6145 22.3986 20.498 22.3984H27.498Z" fill="#333333"/>
<path d="M13.498 22.4004C14.3816 22.4006 15.0977 23.1165 15.0977 24C15.0977 24.8835 14.3816 25.5994 13.498 25.5996H9.99805C9.11442 25.5996 8.39844 24.8836 8.39844 24C8.39844 23.1164 9.11442 22.4004 9.99805 22.4004H13.498Z" fill="#333333"/>
<path d="M37.998 22.4004C38.8816 22.4005 39.5977 23.1164 39.5977 24C39.5977 24.8836 38.8816 25.5995 37.998 25.5996H34.498C33.6145 25.5995 32.8984 24.8836 32.8984 24C32.8984 23.1164 33.6145 22.4005 34.498 22.4004H37.998Z" fill="#333333"/>
<path d="M37.998 12.4004C38.8816 12.4005 39.5977 13.1164 39.5977 14C39.5977 14.8836 38.8816 15.5995 37.998 15.5996H9.99805C9.11442 15.5996 8.39844 14.8836 8.39844 14C8.39844 13.1164 9.11442 12.4004 9.99805 12.4004H37.998Z" fill="#333333"/>
</svg>
