<svg width="48" height="48" viewBox="0 0 48 48" fill="none" xmlns="http://www.w3.org/2000/svg">
<path d="M23.998 29.7715C24.8817 29.7715 25.5977 30.4874 25.5977 31.3711V36.7715H35.998C37.3235 36.7715 38.3984 35.6966 38.3984 34.3711V33.3711C38.3984 32.4874 39.1144 31.7715 39.998 31.7715C40.8817 31.7715 41.5977 32.4874 41.5977 33.3711V34.3711C41.5977 37.4639 39.0908 39.9707 35.998 39.9707H11.998C8.90525 39.9707 6.39844 37.4639 6.39844 34.3711V33.3711C6.39844 32.4874 7.11439 31.7715 7.99805 31.7715C8.8817 31.7715 9.59766 32.4874 9.59766 33.3711V34.3711C9.59766 35.6966 10.6726 36.7715 11.998 36.7715H22.3984V31.3711C22.3984 30.4874 23.1144 29.7715 23.998 29.7715Z" fill="#333333"/>
<path d="M12.8672 18.7539C13.4919 18.1298 14.5042 18.1297 15.1289 18.7539C15.7535 19.3785 15.7551 20.3927 15.1309 21.0176L13.377 22.7695H34.6191L32.8672 21.0176C32.2426 20.393 32.243 19.3808 32.8672 18.7559C33.492 18.1312 34.5061 18.1291 35.1309 18.7539L39.6152 23.2402C40.2394 23.8651 40.2397 24.8792 39.6152 25.5039L35.1309 29.9883C34.5062 30.6129 33.4921 30.6125 32.8672 29.9883C32.2426 29.3634 32.2424 28.3494 32.8672 27.7246L34.6191 25.9727L13.377 25.9707L15.1309 27.7246C15.7551 28.3495 15.7535 29.3636 15.1289 29.9883C14.5042 30.6125 13.4919 30.6124 12.8672 29.9883L8.38086 25.502C7.75661 24.8772 7.75661 23.865 8.38086 23.2402L12.8672 18.7539Z" fill="#333333"/>
<path d="M35.998 8.77148C39.0908 8.77148 41.5977 11.2783 41.5977 14.3711V15.3711C41.5977 16.2547 40.8817 16.9707 39.998 16.9707C39.1144 16.9707 38.3984 16.2547 38.3984 15.3711V14.3711C38.3984 13.0456 37.3235 11.9707 35.998 11.9707H25.5977V17.3711C25.5977 18.2547 24.8817 18.9707 23.998 18.9707C23.1144 18.9707 22.3984 18.2547 22.3984 17.3711V11.9707H11.998C10.6726 11.9707 9.59766 13.0456 9.59766 14.3711V15.3711C9.59766 16.2547 8.8817 16.9707 7.99805 16.9707C7.11439 16.9707 6.39844 16.2547 6.39844 15.3711V14.3711C6.39844 11.2783 8.90525 8.77148 11.998 8.77148H35.998Z" fill="#333333"/>
</svg>
