<svg width="48" height="48" viewBox="0 0 48 48" fill="none" xmlns="http://www.w3.org/2000/svg">
<path fill-rule="evenodd" clip-rule="evenodd" d="M16.3984 12.0004C16.3984 7.80303 19.8011 4.40039 23.9984 4.40039C28.1958 4.40039 31.5984 7.80303 31.5984 12.0004V24.0004C31.5984 28.1978 28.1958 31.6004 23.9984 31.6004C19.8011 31.6004 16.3984 28.1978 16.3984 24.0004V12.0004ZM23.9984 7.60039C21.5684 7.60039 19.5984 9.57034 19.5984 12.0004V24.0004C19.5984 26.4304 21.5684 28.4004 23.9984 28.4004C26.4285 28.4004 28.3984 26.4304 28.3984 24.0004V12.0004C28.3984 9.57034 26.4285 7.60039 23.9984 7.60039Z" fill="#333333"/>
<path d="M11.9984 20.4004C12.8821 20.4004 13.5984 21.1167 13.5984 22.0004V24.0004C13.5984 29.7442 18.2547 34.4004 23.9984 34.4004C29.7422 34.4004 34.3984 29.7442 34.3984 24.0004V22.0004C34.3984 21.1167 35.1148 20.4004 35.9984 20.4004C36.8821 20.4004 37.5984 21.1167 37.5984 22.0004V24.0004C37.5984 30.9702 32.3555 36.7154 25.5984 37.5073V42.0004C25.5984 42.884 24.8821 43.6004 23.9984 43.6004C23.1148 43.6004 22.3984 42.884 22.3984 42.0004V37.5073C15.6414 36.7154 10.3984 30.9702 10.3984 24.0004V22.0004C10.3984 21.1167 11.1148 20.4004 11.9984 20.4004Z" fill="#333333"/>
</svg>
