<svg width="48" height="48" viewBox="0 0 48 48" fill="none" xmlns="http://www.w3.org/2000/svg">
<path fill-rule="evenodd" clip-rule="evenodd" d="M6.99844 5.40039C6.11478 5.40039 5.39844 6.11674 5.39844 7.00039C5.39844 7.88405 6.11478 8.60039 6.99844 8.60039L8.50688 8.60039C9.70705 8.60039 10.7227 9.48696 10.8849 10.6761L13.1772 27.4868C13.4205 29.2705 14.944 30.6004 16.7442 30.6004L34.4619 30.6004C36.0929 30.6004 37.5201 29.5039 37.9403 27.928L40.8737 16.928C41.4831 14.6425 39.7605 12.4004 37.3952 12.4004L14.3496 12.4004L14.0555 10.2438C13.6772 7.46904 11.3073 5.40039 8.50687 5.40039H6.99844ZM16.3479 27.0544L14.786 15.6004L37.3952 15.6004C37.658 15.6004 37.8494 15.8495 37.7817 16.1035L34.8484 27.1035C34.8017 27.2786 34.6431 27.4004 34.4619 27.4004L16.7442 27.4004C16.5442 27.4004 16.3749 27.2526 16.3479 27.0544Z" fill="#333333"/>
<path fill-rule="evenodd" clip-rule="evenodd" d="M10.3984 37.0004C10.3984 34.4599 12.4579 32.4004 14.9984 32.4004C17.5389 32.4004 19.5984 34.4599 19.5984 37.0004C19.5984 39.5409 17.5389 41.6004 14.9984 41.6004C12.4579 41.6004 10.3984 39.5409 10.3984 37.0004ZM14.9984 35.6004C14.2252 35.6004 13.5984 36.2272 13.5984 37.0004C13.5984 37.7736 14.2252 38.4004 14.9984 38.4004C15.7716 38.4004 16.3984 37.7736 16.3984 37.0004C16.3984 36.2272 15.7716 35.6004 14.9984 35.6004Z" fill="#333333"/>
<path fill-rule="evenodd" clip-rule="evenodd" d="M30.3984 37.0004C30.3984 34.4599 32.4579 32.4004 34.9984 32.4004C37.5389 32.4004 39.5984 34.4599 39.5984 37.0004C39.5984 39.5409 37.5389 41.6004 34.9984 41.6004C32.4579 41.6004 30.3984 39.5409 30.3984 37.0004ZM34.9984 35.6004C34.2252 35.6004 33.5984 36.2272 33.5984 37.0004C33.5984 37.7736 34.2252 38.4004 34.9984 38.4004C35.7716 38.4004 36.3984 37.7736 36.3984 37.0004C36.3984 36.2272 35.7716 35.6004 34.9984 35.6004Z" fill="#333333"/>
</svg>
