<svg width="48" height="48" viewBox="0 0 48 48" fill="none" xmlns="http://www.w3.org/2000/svg">
<path d="M25.4777 6.5163C18.2759 6.44351 12.3988 12.2615 12.3988 19.4636V24.0004C12.3988 24.884 13.1152 25.6004 13.9988 25.6004C14.8825 25.6004 15.5988 24.884 15.5988 24.0004V19.4636C15.5988 14.0414 20.0235 9.66133 25.4454 9.71614L25.8315 9.72004C30.311 9.76532 34.1193 13.0026 34.8852 17.4163C35.7684 22.5052 34.2236 27.7146 30.7091 31.4995L26.0698 36.4956C24.942 37.7102 23.3593 38.4004 21.7019 38.4004C19.0406 38.4004 16.7017 36.6361 15.9705 34.0772L15.5373 32.5608C15.2945 31.7111 14.409 31.2192 13.5593 31.4619C12.7096 31.7047 12.2177 32.5903 12.4604 33.4399L12.8937 34.9563C14.0173 38.889 17.6118 41.6004 21.7019 41.6004C24.2492 41.6004 26.6814 40.5397 28.4147 38.6731L33.0541 33.6769C37.2485 29.1598 39.0921 22.9426 38.0381 16.8692C37.0081 10.9342 31.8872 6.58109 25.8639 6.5202L25.4777 6.5163Z" fill="#333333"/>
<path d="M24.9984 12.4004C22.2421 12.4004 20.3423 13.2935 19.313 15.0749C18.4143 16.6304 18.3984 18.5733 18.3984 20.0004V26.0004C18.3984 26.884 19.1148 27.6004 19.9984 27.6004C20.8821 27.6004 21.5984 26.884 21.5984 26.0004V22.3188C22.0027 22.2979 22.4351 22.3314 22.8511 22.449C24.0277 22.7813 24.7341 23.9092 24.6477 25.5791C24.5607 27.2625 23.6487 28.8864 22.2829 29.5693C21.4926 29.9645 21.1722 30.9256 21.5674 31.7159C21.9626 32.5063 22.9237 32.8267 23.714 32.4315C26.3346 31.1212 27.711 28.3053 27.8434 25.7443C27.9766 23.1699 26.8335 20.2487 23.7211 19.3695C23.0006 19.166 22.2818 19.0967 21.6104 19.1159C21.6448 18.0185 21.7629 17.2312 22.0838 16.6758C22.3545 16.2073 22.9548 15.6004 24.9984 15.6004C26.877 15.6004 27.8966 16.3473 28.5 17.1853C29.1621 18.1049 29.3984 19.2564 29.3984 20.0004C29.3984 20.884 30.1148 21.6004 30.9984 21.6004C31.8821 21.6004 32.5984 20.884 32.5984 20.0004C32.5984 18.7444 32.2348 16.8959 31.0969 15.3155C29.9003 13.6535 27.9199 12.4004 24.9984 12.4004Z" fill="#333333"/>
</svg>
