<svg width="48" height="48" viewBox="0 0 48 48" fill="none" xmlns="http://www.w3.org/2000/svg">
<path fill-rule="evenodd" clip-rule="evenodd" d="M19.998 11.4492C20.534 11.4496 21.0149 11.7797 21.209 12.2793L23.9746 19.4023L24.2695 20.1562L25.291 22.7773C25.5519 23.4461 25.2214 24.1998 24.5527 24.4609C23.884 24.7216 23.1301 24.3913 22.8691 23.7227L22.1699 21.9297H17.8242L17.125 23.7227C16.864 24.3914 16.1102 24.7218 15.4414 24.4609C14.7726 24.1999 14.4421 23.4462 14.7031 22.7773L15.7246 20.1562L16.0195 19.4023L18.7852 12.2793L18.8711 12.0996C19.1007 11.7019 19.5289 11.4492 19.998 11.4492ZM18.8379 19.3301H21.1562L19.9961 16.3418L18.8379 19.3301Z" fill="#333333"/>
<path fill-rule="evenodd" clip-rule="evenodd" d="M27.998 6.40039C32.1954 6.40039 35.5977 9.80264 35.5977 14V18.4004H35.998C40.1954 18.4004 43.5977 21.8026 43.5977 26V36C43.5977 39.0928 41.0908 41.5996 37.998 41.5996H19.998C15.8007 41.5996 12.3984 38.1974 12.3984 34V29.5996H11.998C7.80068 29.5996 4.39844 26.1974 4.39844 22V12C4.39844 8.90721 6.90525 6.40039 9.99805 6.40039H27.998ZM35.5977 24C35.5977 27.0928 33.0908 29.5996 29.998 29.5996H15.5977V34C15.5977 36.4301 17.568 38.4004 19.998 38.4004H37.998C39.3235 38.4004 40.3984 37.3255 40.3984 36V26C40.3984 23.5699 38.4281 21.5996 35.998 21.5996H35.5977V24ZM9.99805 9.59961C8.67257 9.59961 7.59766 10.6745 7.59766 12V22C7.59766 24.4301 9.568 26.4004 11.998 26.4004H29.998C31.3235 26.4004 32.3984 25.3255 32.3984 24V14C32.3984 11.5699 30.4281 9.59961 27.998 9.59961H9.99805Z" fill="#333333"/>
</svg>
