<svg width="48" height="48" viewBox="0 0 48 48" fill="none" xmlns="http://www.w3.org/2000/svg">
<path fill-rule="evenodd" clip-rule="evenodd" d="M16.0723 16.6104L10.4881 16.6104C6.43972 16.6104 3.24354 20.0486 3.53856 24.0862L3.5719 24.5426C3.93633 29.53 8.08901 33.3904 13.0898 33.3904C17.1803 33.3904 20.816 30.7834 22.1284 26.9091L22.5548 25.6507C22.5605 25.6337 22.5662 25.617 22.5718 25.6004H24.9647C24.9703 25.617 24.976 25.6337 24.9817 25.6507L25.408 26.9091C26.7205 30.7834 30.3562 33.3904 34.4467 33.3904C39.4475 33.3904 43.6002 29.53 43.9646 24.5426L43.9979 24.0862C44.2929 20.0486 41.0968 16.6104 37.0484 16.6104L31.4642 16.6104C31.0878 16.6103 30.8161 16.6103 30.5927 16.6255C27.3392 16.8472 24.8859 19.3791 24.5384 22.4004H22.998C22.6506 19.3791 20.1973 16.8472 16.9438 16.6255C16.7204 16.6103 16.4487 16.6103 16.0723 16.6104ZM16.0053 19.8104C16.4765 19.8104 16.6273 19.8113 16.7262 19.8181C18.8186 19.9607 20.2627 21.9747 19.7264 24.0022C19.7011 24.098 19.6536 24.2411 19.5024 24.6875L19.0976 25.8824C18.2252 28.4576 15.8087 30.1904 13.0898 30.1904C9.76584 30.1904 7.00562 27.6245 6.76339 24.3094L6.73005 23.853C6.57052 21.6696 8.29889 19.8104 10.4881 19.8104H16.0053ZM31.5312 19.8104C31.0599 19.8104 30.9092 19.8113 30.8103 19.8181C28.7179 19.9607 27.2738 21.9747 27.81 24.0022C27.8354 24.098 27.8828 24.2411 28.034 24.6875L28.4388 25.8824C29.3112 28.4576 31.7278 30.1904 34.4467 30.1904C37.7706 30.1904 40.5309 27.6245 40.7731 24.3094L40.8064 23.853C40.966 21.6696 39.2376 19.8104 37.0484 19.8104H31.5312Z" fill="#333333"/>
</svg>
