<svg width="48" height="48" viewBox="0 0 48 48" fill="none" xmlns="http://www.w3.org/2000/svg">
<path fill-rule="evenodd" clip-rule="evenodd" d="M28.998 20.4004C32.0908 20.4004 34.5977 22.9072 34.5977 26C34.5977 29.0928 32.0908 31.5996 28.998 31.5996C25.9053 31.5996 23.3984 29.0928 23.3984 26C23.3984 22.9072 25.9053 20.4004 28.998 20.4004ZM28.998 23.5996C27.6726 23.5996 26.5977 24.6745 26.5977 26C26.5977 27.3255 27.6726 28.4004 28.998 28.4004C30.3235 28.4004 31.3984 27.3255 31.3984 26C31.3984 24.6745 30.3235 23.5996 28.998 23.5996Z" fill="#333333"/>
<path fill-rule="evenodd" clip-rule="evenodd" d="M26.998 4.40039C27.4224 4.40039 27.8288 4.56908 28.1289 4.86914L39.1289 15.8691C39.429 16.1692 39.5977 16.5757 39.5977 17V38C39.5977 41.0928 37.0908 43.5996 33.998 43.5996H13.998C10.9053 43.5996 8.39844 41.0928 8.39844 38V10C8.39844 6.90721 10.9053 4.40039 13.998 4.40039H26.998ZM20.6953 32.959C19.7581 32.0221 18.238 32.0221 17.3008 32.959L11.6719 38.5859C11.9335 39.628 12.8748 40.4004 13.998 40.4004H28.1367L20.6953 32.959ZM13.998 7.59961C12.6726 7.59961 11.5977 8.67452 11.5977 10V34.1387L15.0391 30.6973C17.2259 28.5107 20.7702 28.5107 22.957 30.6973L32.6602 40.4004H33.998C35.3235 40.4004 36.3984 39.3255 36.3984 38V18.5996H27.998C26.5621 18.5996 25.3984 17.4359 25.3984 16V7.59961H13.998ZM28.5977 15.4004H34.1367L28.5977 9.86133V15.4004Z" fill="#333333"/>
</svg>
