<svg width="48" height="48" viewBox="0 0 48 48" fill="none" xmlns="http://www.w3.org/2000/svg">
<path d="M25.5984 13.0004C25.5984 12.1167 24.8821 11.4004 23.9984 11.4004C23.1148 11.4004 22.3984 12.1167 22.3984 13.0004V24.0004C22.3984 24.4247 22.567 24.8317 22.8671 25.1318L28.8671 31.1318C29.4919 31.7566 30.505 31.7566 31.1298 31.1318C31.7546 30.5069 31.7546 29.4939 31.1298 28.869L25.5984 23.3377V13.0004Z" fill="#333333"/>
<path fill-rule="evenodd" clip-rule="evenodd" d="M23.9984 4.40039C13.1737 4.40039 4.39844 13.1756 4.39844 24.0004C4.39844 34.8252 13.1737 43.6004 23.9984 43.6004C34.8232 43.6004 43.5984 34.8252 43.5984 24.0004C43.5984 13.1756 34.8232 4.40039 23.9984 4.40039ZM7.59844 24.0004C7.59844 14.9429 14.941 7.60039 23.9984 7.60039C33.0559 7.60039 40.3984 14.9429 40.3984 24.0004C40.3984 33.0579 33.0559 40.4004 23.9984 40.4004C14.941 40.4004 7.59844 33.0579 7.59844 24.0004Z" fill="#333333"/>
</svg>
