<svg width="48" height="48" viewBox="0 0 48 48" fill="none" xmlns="http://www.w3.org/2000/svg">
<path fill-rule="evenodd" clip-rule="evenodd" d="M12.2022 8.24023C10.0151 8.24023 8.24219 10.0132 8.24219 12.2002V18.8002C8.24219 20.9873 10.0151 22.7602 12.2022 22.7602H18.8022C20.9892 22.7602 22.7622 20.9873 22.7622 18.8002V12.2002C22.7622 10.0132 20.9892 8.24023 18.8022 8.24023H12.2022ZM11.7622 12.2002C11.7622 11.9572 11.9592 11.7602 12.2022 11.7602H18.8022C19.0452 11.7602 19.2422 11.9572 19.2422 12.2002V18.8002C19.2422 19.0432 19.0452 19.2402 18.8022 19.2402H12.2022C11.9592 19.2402 11.7622 19.0432 11.7622 18.8002V12.2002Z" fill="#333333"/>
<path fill-rule="evenodd" clip-rule="evenodd" d="M12.2022 25.2402C10.0151 25.2402 8.24219 27.0132 8.24219 29.2002V35.8002C8.24219 37.9873 10.0151 39.7602 12.2022 39.7602H18.8022C20.9892 39.7602 22.7622 37.9873 22.7622 35.8002V29.2002C22.7622 27.0132 20.9892 25.2402 18.8022 25.2402H12.2022ZM11.7622 29.2002C11.7622 28.9572 11.9592 28.7602 12.2022 28.7602H18.8022C19.0452 28.7602 19.2422 28.9572 19.2422 29.2002V35.8002C19.2422 36.0432 19.0452 36.2402 18.8022 36.2402H12.2022C11.9592 36.2402 11.7622 36.0432 11.7622 35.8002V29.2002Z" fill="#333333"/>
<path fill-rule="evenodd" clip-rule="evenodd" d="M25.2422 12.2002C25.2422 10.0132 27.0151 8.24023 29.2022 8.24023H35.8022C37.9892 8.24023 39.7622 10.0132 39.7622 12.2002V18.8002C39.7622 20.9873 37.9892 22.7602 35.8022 22.7602H29.2022C27.0151 22.7602 25.2422 20.9873 25.2422 18.8002V12.2002ZM29.2022 11.7602C28.9592 11.7602 28.7622 11.9572 28.7622 12.2002V18.8002C28.7622 19.0432 28.9592 19.2402 29.2022 19.2402H35.8022C36.0452 19.2402 36.2422 19.0432 36.2422 18.8002V12.2002C36.2422 11.9572 36.0452 11.7602 35.8022 11.7602H29.2022Z" fill="#333333"/>
<path fill-rule="evenodd" clip-rule="evenodd" d="M29.2022 25.2402C27.0151 25.2402 25.2422 27.0132 25.2422 29.2002V35.8002C25.2422 37.9873 27.0151 39.7602 29.2022 39.7602H35.8022C37.9892 39.7602 39.7622 37.9873 39.7622 35.8002V29.2002C39.7622 27.0132 37.9892 25.2402 35.8022 25.2402H29.2022ZM28.7622 29.2002C28.7622 28.9572 28.9592 28.7602 29.2022 28.7602H35.8022C36.0452 28.7602 36.2422 28.9572 36.2422 29.2002V35.8002C36.2422 36.0432 36.0452 36.2402 35.8022 36.2402H29.2022C28.9592 36.2402 28.7622 36.0432 28.7622 35.8002V29.2002Z" fill="#333333"/>
</svg>
