<svg width="48" height="48" viewBox="0 0 48 48" fill="none" xmlns="http://www.w3.org/2000/svg">
<path fill-rule="evenodd" clip-rule="evenodd" d="M12.848 16.8685C12.2232 16.2436 11.2101 16.2436 10.5853 16.8685L4.87097 22.5827C4.24613 23.2076 4.24613 24.2206 4.87097 24.8455L10.5853 30.5598C11.2101 31.1846 12.2232 31.1846 12.848 30.5598C13.4728 29.9349 13.4728 28.9219 12.848 28.297L9.86508 25.3141H17.0018C17.8854 25.3141 18.6018 24.5978 18.6018 23.7141C18.6018 22.8305 17.8854 22.1141 17.0018 22.1141H9.86508L12.848 19.1312C13.4728 18.5064 13.4728 17.4933 12.848 16.8685Z" fill="#333333"/>
<path fill-rule="evenodd" clip-rule="evenodd" d="M34.8704 16.8685C35.4953 16.2436 36.5083 16.2436 37.1332 16.8685L42.8474 22.5827C43.4723 23.2076 43.4723 24.2206 42.8474 24.8455L37.1332 30.5598C36.5083 31.1846 35.4953 31.1846 34.8704 30.5598C34.2456 29.9349 34.2456 28.9219 34.8704 28.297L37.8533 25.3141H31.0018C30.1181 25.3141 29.4018 24.5978 29.4018 23.7141C29.4018 22.8305 30.1181 22.1141 31.0018 22.1141H37.8533L34.8704 19.1312C34.2456 18.5064 34.2456 17.4933 34.8704 16.8685Z" fill="#333333"/>
<path fill-rule="evenodd" clip-rule="evenodd" d="M17.013 34.7249C16.3882 35.3497 16.3882 36.3628 17.013 36.9876L22.7273 42.7019C23.3521 43.3268 24.3652 43.3268 24.99 42.7019L30.7043 36.9876C31.3291 36.3628 31.3291 35.3497 30.7043 34.7249C30.0795 34.1001 29.0664 34.1001 28.4416 34.7249L25.4586 37.7078V30.5711C25.4586 29.6875 24.7423 28.9711 23.8586 28.9711C22.975 28.9711 22.2586 29.6875 22.2586 30.5711V37.7078L19.2757 34.7249C18.6509 34.1001 17.6378 34.1001 17.013 34.7249Z" fill="#333333"/>
<path fill-rule="evenodd" clip-rule="evenodd" d="M17.013 12.7025C16.3882 12.0777 16.3882 11.0646 17.013 10.4398L22.7273 4.72547C23.3521 4.10063 24.3652 4.10063 24.99 4.72546L30.7043 10.4398C31.3291 11.0646 31.3291 12.0777 30.7043 12.7025C30.0795 13.3273 29.0664 13.3273 28.4416 12.7025L25.4586 9.71958V16.5711C25.4586 17.4548 24.7423 18.1711 23.8586 18.1711C22.975 18.1711 22.2586 17.4548 22.2586 16.5711L22.2586 9.71958L19.2757 12.7025C18.6509 13.3273 17.6378 13.3273 17.013 12.7025Z" fill="#333333"/>
</svg>
