<svg width="48" height="48" viewBox="0 0 48 48" fill="none" xmlns="http://www.w3.org/2000/svg">
<path d="M25.6004 10.0004C25.6004 9.11674 24.884 8.40039 24.0004 8.40039C23.1167 8.40039 22.4004 9.11674 22.4004 10.0004V15H11C10.4477 15 10 15.4477 10 16V20C10 20.5523 10.4477 21 11 21H22.4004V28H17C16.4477 28 16 28.4477 16 29V33C16 33.5523 16.4477 34 17 34H22.4004V40.0004C22.4004 40.884 23.1167 41.6004 24.0004 41.6004C24.884 41.6004 25.6004 40.884 25.6004 40.0004V34H31C31.5523 34 32 33.5523 32 33V29C32 28.4477 31.5523 28 31 28H25.6004V21H37C37.5523 21 38 20.5523 38 20V16C38 15.4477 37.5523 15 37 15H25.6004V10.0004Z" fill="#333333"/>
</svg>
