<svg width="48" height="48" viewBox="0 0 48 48" fill="none" xmlns="http://www.w3.org/2000/svg">
<path d="M17 36C19.2091 36 21 37.7909 21 40C21 42.2091 19.2091 44 17 44C14.7909 44 13 42.2091 13 40C13 37.7909 14.7909 36 17 36Z" fill="#333333"/>
<path d="M31 36C33.2091 36 35 37.7909 35 40C35 42.2091 33.2091 44 31 44C28.7909 44 27 42.2091 27 40C27 37.7909 28.7909 36 31 36Z" fill="#333333"/>
<path d="M17 20C19.2091 20 21 21.7909 21 24C21 26.2091 19.2091 28 17 28C14.7909 28 13 26.2091 13 24C13 21.7909 14.7909 20 17 20Z" fill="#333333"/>
<path d="M31 20C33.2091 20 35 21.7909 35 24C35 26.2091 33.2091 28 31 28C28.7909 28 27 26.2091 27 24C27 21.7909 28.7909 20 31 20Z" fill="#333333"/>
<path d="M17 4C19.2091 4 21 5.79086 21 8C21 10.2091 19.2091 12 17 12C14.7909 12 13 10.2091 13 8C13 5.79086 14.7909 4 17 4Z" fill="#333333"/>
<path d="M31 4C33.2091 4 35 5.79086 35 8C35 10.2091 33.2091 12 31 12C28.7909 12 27 10.2091 27 8C27 5.79086 28.7909 4 31 4Z" fill="#333333"/>
</svg>
