<svg width="48" height="48" viewBox="0 0 48 48" fill="none" xmlns="http://www.w3.org/2000/svg">
<path d="M23.9984 7.59941C21.5684 7.59941 19.5984 9.56936 19.5984 11.9994V13.6184L16.5354 10.5554C17.2099 7.04863 20.2948 4.39941 23.9984 4.39941C28.1958 4.39941 31.5984 7.80205 31.5984 11.9994V23.9994C31.5984 24.5044 31.5492 24.9978 31.4552 25.4752L28.3984 22.4184V11.9994C28.3984 9.56936 26.4285 7.59941 23.9984 7.59941Z" fill="#333333"/>
<path fill-rule="evenodd" clip-rule="evenodd" d="M16.3984 18.6631L8.86707 11.1318C8.24223 10.5069 8.24223 9.49386 8.86707 8.86902C9.49191 8.24418 10.505 8.24418 11.1298 8.86902L32.3967 30.1359C33.6553 28.416 34.3984 26.295 34.3984 24.0004V22.0004C34.3984 21.1167 35.1148 20.4004 35.9984 20.4004C36.8821 20.4004 37.5984 21.1167 37.5984 22.0004V24.0004C37.5984 27.1794 36.5077 30.1036 34.6801 32.4193L39.1298 36.869C39.7546 37.4939 39.7546 38.5069 39.1298 39.1318C38.505 39.7566 37.4919 39.7566 36.8671 39.1318L32.4173 34.682C30.496 36.1985 28.1556 37.2076 25.5984 37.5073V42.0004C25.5984 42.884 24.8821 43.6004 23.9984 43.6004C23.1148 43.6004 22.3984 42.884 22.3984 42.0004V37.5073C15.6414 36.7154 10.3984 30.9702 10.3984 24.0004V22.0004C10.3984 21.1167 11.1148 20.4004 11.9984 20.4004C12.8821 20.4004 13.5984 21.1167 13.5984 22.0004V24.0004C13.5984 29.7442 18.2547 34.4004 23.9984 34.4004C26.293 34.4004 28.414 33.6573 30.1339 32.3986L28.1207 30.3854C26.9332 31.1535 25.5179 31.5994 23.9984 31.5994C19.8011 31.5994 16.3984 28.1968 16.3984 23.9994V18.6631ZM25.7655 28.0302C25.2247 28.2676 24.6269 28.3994 23.9984 28.3994C21.5684 28.3994 19.5984 26.4295 19.5984 23.9994V21.8631L25.7655 28.0302Z" fill="#333333"/>
</svg>
