<svg width="48" height="48" viewBox="0 0 48 48" fill="none" xmlns="http://www.w3.org/2000/svg">
<path d="M8.39844 11.9997C8.39844 11.116 9.11406 10.4004 9.99771 10.4004L37.9975 10.4004C38.8811 10.4004 39.5968 11.116 39.5968 11.9997C39.5968 12.8833 38.8811 13.5989 37.9975 13.5989H9.99771C9.11406 13.5989 8.39844 12.8833 8.39844 11.9997Z" fill="#333333"/>
<path d="M39.5993 21.7944C39.5993 20.7189 38.3913 20.086 37.507 20.6982L29.6274 26.1533C28.8615 26.6835 28.8615 27.8156 29.6274 28.3458L37.507 33.8009C38.3913 34.4132 39.5993 33.7802 39.5993 32.7047V21.7944Z" fill="#333333"/>
<path d="M8.39844 21.9997C8.39844 21.116 9.11406 20.4004 9.99771 20.4004L22.9977 20.399C23.8814 20.399 24.5984 21.116 24.5984 21.9997C24.5984 22.8833 23.8814 23.6003 22.9977 23.6003L9.99771 23.5989C9.11406 23.5989 8.39844 22.8833 8.39844 21.9997Z" fill="#333333"/>
<path d="M8.39844 32.4997C8.39844 31.616 9.11406 30.9004 9.99771 30.9004L22.9977 30.899C23.8814 30.899 24.5984 31.616 24.5984 32.4997C24.5984 33.3833 23.8814 34.1003 22.9977 34.1003L9.99771 34.0989C9.11406 34.0989 8.39844 33.3833 8.39844 32.4997Z" fill="#333333"/>
</svg>
