<svg width="48" height="48" viewBox="0 0 48 48" fill="none" xmlns="http://www.w3.org/2000/svg">
<path d="M26.7496 28.7271L28.709 30.5173L31.7698 34.8444C32.7068 36.1691 31.7596 37.9994 30.137 37.9994H17.8648C16.2425 37.9994 15.2952 36.1695 16.2317 34.8448L19.2901 30.5188L21.2512 28.7287C22.7725 27.2192 25.2285 27.2174 26.7496 28.7271Z" fill="#333333"/>
<path fill-rule="evenodd" clip-rule="evenodd" d="M15.469 4.40039C12.4585 4.40039 9.46626 6.7479 9.55402 10.2711C9.62446 13.0987 10.2252 15.3376 11.1965 17.1685C12.1631 18.9907 13.4085 20.2396 14.4967 21.18C14.866 21.4991 15.2421 21.803 15.5644 22.0635L15.5727 22.0701C15.7059 22.1778 15.8288 22.2771 15.943 22.3706C16.3669 22.7178 16.6546 22.9716 16.8695 23.201C17.2176 23.5727 17.2604 23.7418 17.2605 24.0008C17.2605 24.2601 17.2177 24.4289 16.8703 24.8001C16.6557 25.0293 16.3683 25.283 15.9447 25.63C15.83 25.7239 15.7067 25.8235 15.5728 25.9317L15.5647 25.9383C15.2429 26.1983 14.8674 26.5017 14.4989 26.8201C13.411 27.76 12.1654 29.0082 11.1977 30.8292C10.2254 32.659 9.6224 34.8969 9.54893 37.7237C9.45729 41.2497 12.4514 43.6004 15.4638 43.6004H32.5345C35.5472 43.6004 38.5408 41.2496 38.4496 37.724C38.3765 34.8977 37.7744 32.6601 36.8033 30.8304C35.8368 29.0095 34.5925 27.7612 33.5055 26.8211C33.1373 26.5026 32.7621 26.1991 32.4406 25.939L32.4323 25.9323C32.2987 25.8243 32.1756 25.7247 32.0611 25.6308C31.6379 25.2839 31.3508 25.0302 31.1364 24.801C30.7894 24.43 30.7462 24.2606 30.7462 24.0004C30.7462 23.7415 30.7889 23.5726 31.1369 23.201C31.3517 22.9715 31.6394 22.7178 32.0633 22.3706C32.1776 22.2771 32.3005 22.1778 32.4337 22.0701L32.4419 22.0634C32.7642 21.803 33.1405 21.499 33.5097 21.18C34.5979 20.2396 35.8434 18.9907 36.8101 17.1685C37.7814 15.3375 38.3821 13.0985 38.4525 10.2708C38.5401 6.74774 35.5479 4.40039 32.5374 4.40039H15.469ZM12.753 10.1914C12.7173 8.75538 13.9537 7.60039 15.469 7.60039H32.5374C34.0528 7.60039 35.2892 8.7553 35.2534 10.1913C35.1937 12.5934 34.6913 14.3341 33.9832 15.6689C33.2745 17.0047 32.3503 17.9526 31.4174 18.7587C31.0913 19.0405 30.7526 19.3144 30.4225 19.5811L30.4198 19.5832C30.2893 19.6887 30.1589 19.7941 30.0358 19.8949C29.5926 20.2579 29.1679 20.622 28.8011 21.0137C28.0571 21.8082 27.5462 22.7228 27.5462 24.0004C27.5462 25.2777 28.0562 26.1922 28.7992 26.9867C29.1655 27.3784 29.5896 27.7425 30.0322 28.1054C30.1552 28.2063 30.2856 28.3117 30.4162 28.4173L30.4198 28.4203C30.749 28.6866 31.087 28.9602 31.4123 29.2415C32.3442 30.0474 33.2679 30.9951 33.9768 32.3307C34.6851 33.6652 35.1885 35.4054 35.2507 37.8068C35.2878 39.2438 34.051 40.4004 32.5345 40.4004H15.4638C13.9473 40.4004 12.7105 39.2438 12.7478 37.8069C12.8103 35.4055 13.3144 33.6653 14.0235 32.3308C14.7332 30.9953 15.658 30.0476 16.5909 29.2416C16.9164 28.9604 17.2546 28.6869 17.5841 28.4206L17.5871 28.4182C17.7181 28.3124 17.8489 28.2066 17.9723 28.1055C18.4155 27.7426 18.8399 27.3785 19.2066 26.9868C19.9502 26.1924 20.4607 25.2778 20.4605 24.0003C20.4603 22.7228 19.9492 21.8082 19.2052 21.0137C18.8384 20.622 18.4138 20.2579 17.9705 19.8949C17.8475 19.7942 17.7172 19.6889 17.5867 19.5834L17.5839 19.5812C17.2539 19.3145 16.9151 19.0406 16.589 18.7588C15.6562 17.9526 14.732 17.0048 14.0234 15.669C13.3153 14.3342 12.8129 12.5935 12.753 10.1914Z" fill="#333333"/>
</svg>
