<svg width="48" height="48" viewBox="0 0 48 48" fill="none" xmlns="http://www.w3.org/2000/svg">
<path fill-rule="evenodd" clip-rule="evenodd" d="M23.9984 7.5999C14.941 7.5999 7.59844 14.9424 7.59844 23.9999C7.59844 33.0574 14.941 40.3999 23.9984 40.3999C28.6549 40.3999 32.8558 38.4614 35.843 35.343C38.6663 32.3958 40.3984 28.4018 40.3984 23.9999C40.3984 14.9424 33.0559 7.5999 23.9984 7.5999ZM4.39844 23.9999C4.39844 13.1751 13.1737 4.3999 23.9984 4.3999C34.8232 4.3999 43.5984 13.1751 43.5984 23.9999C43.5984 29.2593 41.5248 34.0377 38.1538 37.5567C34.5881 41.279 29.563 43.5999 23.9984 43.5999C13.1737 43.5999 4.39844 34.8247 4.39844 23.9999Z" fill="#333333"/>
</svg>
