<svg width="48" height="48" viewBox="0 0 48 48" fill="none" xmlns="http://www.w3.org/2000/svg">
<path d="M23.998 31.7591C26.2069 31.7591 27.9975 33.5503 27.998 35.7591V40.3606C27.9977 41.4649 27.1024 42.3606 25.998 42.3606H21.998C20.8937 42.3606 19.9984 41.4649 19.998 40.3606V35.7591C19.9986 33.5503 21.7892 31.7591 23.998 31.7591ZM20.7207 8.1028C21.9999 5.28999 25.9962 5.28992 27.2754 8.1028L35.4551 26.0969C35.5063 26.2096 35.5408 26.3263 35.5645 26.4426C36.8062 27.4695 37.5974 29.0218 37.5977 30.7591V40.7591C37.5977 41.6427 36.8817 42.3587 35.998 42.3587C35.1144 42.3587 34.3984 41.6427 34.3984 40.7591V30.7591C34.3979 29.434 33.3232 28.3587 31.998 28.3587H15.998C14.6729 28.3587 13.5982 29.434 13.5977 30.7591V40.7591C13.5977 41.6427 12.8817 42.3587 11.998 42.3587C11.1144 42.3587 10.3984 41.6427 10.3984 40.7591V30.7591C10.3987 29.0223 11.1887 27.4695 12.4297 26.4426C12.4533 26.3262 12.4898 26.2097 12.541 26.0969L20.7207 8.1028ZM16.4824 25.1594H31.5137L27.2402 15.7591H20.7559L16.4824 25.1594Z" fill="#333333"/>
</svg>
