<svg width="48" height="48" viewBox="0 0 48 48" fill="none" xmlns="http://www.w3.org/2000/svg">
<path fill-rule="evenodd" clip-rule="evenodd" d="M20.0481 39.9729C20.6782 39.8528 21.2577 39.546 21.7113 39.0924L40.2048 20.5989C43.0165 17.7871 43.0165 13.2283 40.2048 10.4165L37.4479 7.65961C34.6361 4.84784 30.0773 4.84784 27.2655 7.65961L8.77202 26.1531C8.31843 26.6067 8.01163 27.1862 7.89143 27.8163L5.90828 38.2132C5.70971 39.2543 6.03946 40.3261 6.78887 41.0755C7.53828 41.8249 8.61012 42.1547 9.65118 41.9561L20.0481 39.9729ZM26.594 12.8566L11.0348 28.4159L9.05161 38.8128L19.4485 36.8296L35.0078 21.2704L26.594 12.8566ZM28.8568 10.5939L37.2705 19.0076L37.942 18.3361C39.5041 16.774 39.5041 14.2414 37.942 12.6793L35.1851 9.92235C33.623 8.36026 31.0904 8.36026 29.5283 9.92235L28.8568 10.5939Z" fill="#333333"/>
</svg>
