<svg width="48" height="48" viewBox="0 0 48 48" fill="none" xmlns="http://www.w3.org/2000/svg">
<path d="M17.998 29C16.898 29 15.998 28.1 15.998 27C15.998 25.9 16.898 25 17.998 25C19.098 25 19.998 25.9 19.998 27C19.998 28.1 19.098 29 17.998 29Z" fill="#333333"/>
<path d="M17.998 35C16.898 35 15.998 34.1 15.998 33C15.998 31.9 16.898 31 17.998 31C19.098 31 19.998 31.9 19.998 33C19.998 34.1 19.098 35 17.998 35Z" fill="#333333"/>
<path fill-rule="evenodd" clip-rule="evenodd" d="M17.9984 6.40039C18.8821 6.40039 19.5984 7.11674 19.5984 8.00039V10.4004H28.3984V8.00039C28.3984 7.11674 29.1148 6.40039 29.9984 6.40039C30.8821 6.40039 31.5984 7.11674 31.5984 8.00039V10.4004H35.9984C39.0912 10.4004 41.5984 12.9076 41.5984 16.0004V22.6004H38.3984V21.6004H9.59844V36.0004C9.59844 37.3259 10.673 38.4004 11.9984 38.4004H21.5984V41.6004H11.9984C8.90564 41.6004 6.39844 39.0932 6.39844 36.0004V16.0004C6.39844 12.9076 8.90564 10.4004 11.9984 10.4004H16.3984V8.00039C16.3984 7.11674 17.1148 6.40039 17.9984 6.40039ZM16.3984 13.6004H11.9984C10.673 13.6004 9.59844 14.6749 9.59844 16.0004V18.4004H38.3984V16.0004C38.3984 14.6749 37.3239 13.6004 35.9984 13.6004H31.5984V15.0004C31.5984 15.884 30.8821 16.6004 29.9984 16.6004C29.1148 16.6004 28.3984 15.884 28.3984 15.0004V13.6004H19.5984V15.0004C19.5984 15.884 18.8821 16.6004 17.9984 16.6004C17.1148 16.6004 16.3984 15.884 16.3984 15.0004V13.6004Z" fill="#333333"/>
<path d="M33.5645 27.6389C30.0001 27.3532 26.8997 29.9898 26.6182 33.5027C26.3366 37.0156 28.9775 40.1123 32.542 40.398C35.0722 40.6007 37.3747 39.3295 38.5954 37.3112C39.0527 36.5551 40.0364 36.3129 40.7925 36.7702C41.5486 37.2275 41.7908 38.2112 41.3335 38.9673C39.5054 41.9899 36.0618 43.8903 32.2863 43.5877C26.9811 43.1626 23.004 38.5425 23.4284 33.2471C23.8528 27.9517 28.5149 24.0239 33.8201 24.4491C36.4748 24.6618 38.7944 25.9235 40.3978 27.7935V26.0004C40.3978 25.1167 41.1141 24.4004 41.9978 24.4004C42.8814 24.4004 43.5978 25.1167 43.5978 26.0004V33.3337C43.5978 34.2174 42.8814 34.9337 41.9978 34.9337H35.9984C35.1148 34.9337 34.3984 34.2174 34.3984 33.3337C34.3984 32.4501 35.1148 31.7337 35.9984 31.7337H39.0821C38.2189 29.5065 36.1279 27.8443 33.5645 27.6389Z" fill="#333333"/>
</svg>
