<svg width="48" height="48" viewBox="0 0 48 48" fill="none" xmlns="http://www.w3.org/2000/svg">
<path fill-rule="evenodd" clip-rule="evenodd" d="M30.7488 20.5996C24.9775 20.5996 20.2988 25.2782 20.2988 31.0496C20.2988 36.821 24.9775 41.4996 30.7488 41.4996C33.057 41.4996 35.1903 40.7513 36.9195 39.484L40.8671 43.4316C41.4919 44.0564 42.505 44.0564 43.1298 43.4316C43.7546 42.8067 43.7546 41.7937 43.1298 41.1688L39.1824 37.2214C40.4502 35.492 41.1988 33.3583 41.1988 31.0496C41.1988 25.2782 36.5202 20.5996 30.7488 20.5996ZM23.6988 31.0496C23.6988 27.156 26.8552 23.9996 30.7488 23.9996C34.6424 23.9996 37.7988 27.156 37.7988 31.0496C37.7988 34.9432 34.6424 38.0996 30.7488 38.0996C26.8552 38.0996 23.6988 34.9432 23.6988 31.0496Z" fill="#333333"/>
<path d="M7.59844 14.0004C7.59844 12.6749 8.67295 11.6004 9.99844 11.6004H17.3416C17.9781 11.6004 18.5886 11.8532 19.0386 12.3033L23.5742 16.8389C24.0618 17.3265 24.7231 17.6004 25.4127 17.6004H37.9984C39.3239 17.6004 40.3984 18.6749 40.3984 20.0004V22.1877C41.4286 23.297 42.2689 24.5852 42.8676 26.0004H43.5984V20.0004C43.5984 16.9076 41.0912 14.4004 37.9984 14.4004H25.6612L21.3014 10.0406C20.2512 8.99039 18.8268 8.40039 17.3416 8.40039H9.99844C6.90564 8.40039 4.39844 10.9076 4.39844 14.0004V34.0004C4.39844 37.0932 6.90564 39.6004 9.99844 39.6004H20.8293C20.0121 38.643 19.3304 37.5664 18.8139 36.4004H9.99844C8.67295 36.4004 7.59844 35.3259 7.59844 34.0004V14.0004Z" fill="#333333"/>
</svg>
