<svg width="48" height="48" viewBox="0 0 48 48" fill="none" xmlns="http://www.w3.org/2000/svg">
<path fill-rule="evenodd" clip-rule="evenodd" d="M19.1702 14.4866C19.1702 11.6775 21.4475 9.4002 24.2566 9.4002H25.1793C27.236 9.4002 28.9662 10.9414 29.203 12.9844C29.3048 13.8622 30.0988 14.4913 30.9766 14.3896C31.8544 14.2878 32.4835 13.4937 32.3817 12.616C31.9578 8.95903 28.8607 6.2002 25.1793 6.2002H24.2566C19.6802 6.2002 15.9702 9.91015 15.9702 14.4866V19.1337H15.3551C11.7784 19.1337 8.87891 22.0331 8.87891 25.6098V35.3241C8.87891 38.9007 11.7784 41.8002 15.3551 41.8002H32.6393C36.2159 41.8002 39.1154 38.9007 39.1154 35.3241V25.6098C39.1154 22.0331 36.2159 19.1337 32.6393 19.1337H19.1702V14.4866ZM15.3551 22.3337H32.6393C34.4486 22.3337 35.9154 23.8005 35.9154 25.6098V35.3241C35.9154 37.1334 34.4486 38.6002 32.6393 38.6002H15.3551C13.5457 38.6002 12.0789 37.1334 12.0789 35.3241V25.6098C12.0789 23.8004 13.5457 22.3337 15.3551 22.3337Z" fill="#333333"/>
</svg>
