<svg width="48" height="48" viewBox="0 0 48 48" fill="none" xmlns="http://www.w3.org/2000/svg">
<path d="M26 38.3008C26.9389 38.3008 27.6992 39.0611 27.6992 40C27.6992 40.9389 26.9389 41.6992 26 41.6992H6C5.06112 41.6992 4.30078 40.9389 4.30078 40C4.30078 39.0611 5.06112 38.3008 6 38.3008H26Z" fill="#333333"/>
<path fill-rule="evenodd" clip-rule="evenodd" d="M22 23.5C24.0435 23.5 25.6992 25.1558 25.6992 27.1992V32.998C25.6992 35.0415 24.0435 36.6992 22 36.6992H10C7.95655 36.6992 6.30078 35.0415 6.30078 32.998V27.1992C6.30078 25.1558 7.95655 23.5 10 23.5H22ZM10 26.8984C9.83431 26.8984 9.69922 27.0335 9.69922 27.1992V32.998C9.69922 33.1637 9.83431 33.2988 10 33.2988H22C22.1657 33.2988 22.3008 33.1637 22.3008 32.998V27.1992C22.3008 27.0335 22.1657 26.8984 22 26.8984H10Z" fill="#333333"/>
<path d="M38 6.30078C41.148 6.30078 43.6992 8.85198 43.6992 12V26C43.6992 29.148 41.148 31.6992 38 31.6992H28V28.3008H38C39.2703 28.3008 40.3008 27.2703 40.3008 26V12C40.3008 10.7297 39.2703 9.69922 38 9.69922H16C14.7297 9.69922 13.6992 10.7297 13.6992 12V21.0996H10.3008V12C10.3008 8.85198 12.852 6.30078 16 6.30078H38Z" fill="#333333"/>
<path d="M28.082 12.3203C29.0092 12.467 29.6425 13.3384 29.4961 14.2656C29.2293 15.9543 29.5175 17.7391 30.4395 19.3359C31.3613 20.9322 32.7621 22.0723 34.3574 22.6855C35.2337 23.0223 35.6725 24.0084 35.3359 24.8848C34.999 25.7605 34.0147 26.1976 33.1387 25.8613C30.8425 24.979 28.8194 23.3305 27.4941 21.0352C26.1693 18.7403 25.7532 16.1656 26.1367 13.7363C26.2833 12.809 27.1547 12.1738 28.082 12.3203Z" fill="#333333"/>
<path d="M34.082 12.8809C34.9607 12.9694 35.6015 13.7521 35.5137 14.6309C35.4716 15.0507 35.5569 15.4853 35.7852 15.8809C36.0136 16.2766 36.3476 16.5687 36.7324 16.7422C37.5374 17.1055 37.896 18.0521 37.5332 18.8574C37.1698 19.6626 36.2214 20.0213 35.416 19.6582C34.4407 19.2183 33.5883 18.4774 33.0137 17.4824C32.439 16.4871 32.2233 15.3774 32.3301 14.3125C32.4183 13.4335 33.203 12.793 34.082 12.8809Z" fill="#333333"/>
</svg>
