<svg width="48" height="48" viewBox="0 0 48 48" fill="none" xmlns="http://www.w3.org/2000/svg">
<path fill-rule="evenodd" clip-rule="evenodd" d="M33.998 24C39.5209 24 43.998 28.4772 43.998 34C43.998 39.5228 39.5209 44 33.998 44C28.4752 44 23.998 39.5228 23.998 34C23.998 28.4772 28.4752 24 33.998 24ZM33.998 27.5C33.1696 27.5 32.4981 28.1716 32.498 29V32.5H28.998C28.1697 32.5 27.498 33.1716 27.498 34C27.498 34.8284 28.1697 35.5 28.998 35.5H32.498V38.998C32.498 39.8265 33.1696 40.498 33.998 40.498C34.8265 40.498 35.498 39.8265 35.498 38.998V35.5H38.9961C39.8245 35.5 40.4961 34.8284 40.4961 34C40.4961 33.1716 39.8245 32.5 38.9961 32.5H35.498V29C35.498 28.1716 34.8265 27.5 33.998 27.5Z" fill="#333333"/>
<path d="M37.998 14.4004C41.0908 14.4004 43.5977 16.9072 43.5977 20V24.9453C42.6686 23.9607 41.5906 23.1195 40.3984 22.457V20C40.3984 18.6745 39.3235 17.5996 37.998 17.5996H9.99805C8.67256 17.5996 7.59766 18.6745 7.59766 20V28C7.59766 29.3255 8.67256 30.4004 9.99805 30.4004H21.3008C21.0117 31.4222 20.8416 32.4932 20.8086 33.5996H9.99805C6.90525 33.5996 4.39844 31.0928 4.39844 28V20C4.39844 16.9072 6.90525 14.4004 9.99805 14.4004H37.998Z" fill="#333333"/>
</svg>
