<svg width="48" height="48" viewBox="0 0 48 48" fill="none" xmlns="http://www.w3.org/2000/svg">
<path fill-rule="evenodd" clip-rule="evenodd" d="M34 14.4004C35.9882 14.4004 37.5996 16.0118 37.5996 18V25.4277C37.5996 27.416 35.9882 29.0293 34 29.0293H32.4609C32.2406 29.0296 32.063 29.2074 32.0625 29.4277V30C32.0625 31.9882 30.4492 33.5996 28.4609 33.5996H19.5391C17.5508 33.5996 15.9375 31.9882 15.9375 30V29.4277C15.937 29.2074 15.7594 29.0296 15.5391 29.0293H14C12.0118 29.0293 10.4004 27.416 10.4004 25.4277V18C10.4004 16.0118 12.0118 14.4004 14 14.4004H34ZM14 17.5996C13.7791 17.5996 13.5996 17.7791 13.5996 18V25.4277C13.5996 25.6487 13.7791 25.8281 14 25.8281H15.5391C17.5267 25.8284 19.1382 27.4401 19.1387 29.4277V30C19.1387 30.2209 19.3181 30.4004 19.5391 30.4004H28.4609C28.6819 30.4004 28.8613 30.2209 28.8613 30V29.4277C28.8618 27.4401 30.4733 25.8284 32.4609 25.8281H34C34.2209 25.8281 34.4004 25.6486 34.4004 25.4277V18C34.4004 17.7791 34.2209 17.5996 34 17.5996H14Z" fill="#333333"/>
<path fill-rule="evenodd" clip-rule="evenodd" d="M40.4082 8.02148C42.4256 8.22601 44 9.9287 44 12V36C44 38.0713 42.4256 39.774 40.4082 39.9785L40 40H8C5.79086 40 4 38.2091 4 36V12C4 9.79086 5.79086 8 8 8H40L40.4082 8.02148ZM8 11.1992C7.55817 11.1992 7.19922 11.5582 7.19922 12V36C7.19922 36.4418 7.55817 36.8008 8 36.8008H40C40.4418 36.8008 40.8008 36.4418 40.8008 36V12C40.8008 11.5582 40.4418 11.1992 40 11.1992H8Z" fill="#333333"/>
</svg>
