<svg width="48" height="48" viewBox="0 0 48 48" fill="none" xmlns="http://www.w3.org/2000/svg">
<path fill-rule="evenodd" clip-rule="evenodd" d="M14.3984 10.4004V10.0004C14.3984 6.9076 16.9056 4.40039 19.9984 4.40039H29.9984C30.4228 4.40039 30.8298 4.56896 31.1298 4.86902L41.1298 14.869C41.4299 15.1691 41.5984 15.576 41.5984 16.0004V32.0004C41.5984 35.0932 39.0912 37.6004 35.9984 37.6004H32.5984V38.0004C32.5984 41.0932 30.0912 43.6004 26.9984 43.6004H11.9984C8.90564 43.6004 6.39844 41.0932 6.39844 38.0004V16.0004C6.39844 12.9076 8.90564 10.4004 11.9984 10.4004H14.3984ZM17.5984 10.0004C17.5984 8.67491 18.673 7.60039 19.9984 7.60039H28.3984V15.0004C28.3984 16.4363 29.5625 17.6004 30.9984 17.6004H38.3984V32.0004C38.3984 33.3259 37.3239 34.4004 35.9984 34.4004H19.9984C18.673 34.4004 17.5984 33.3259 17.5984 32.0004V12.0022C17.5984 12.0016 17.5984 12.0027 17.5984 12.0022C17.5984 12.0016 17.5984 11.9992 17.5984 11.9986V10.0004ZM14.3984 13.6004H11.9984C10.673 13.6004 9.59844 14.6749 9.59844 16.0004V38.0004C9.59844 39.3259 10.673 40.4004 11.9984 40.4004H26.9984C28.3239 40.4004 29.3984 39.3259 29.3984 38.0004V37.6004H19.9984C16.9056 37.6004 14.3984 35.0932 14.3984 32.0004V13.6004ZM36.1357 14.4004L31.5984 9.86313V14.4004H36.1357Z" fill="#333333"/>
</svg>
