<svg width="48" height="48" viewBox="0 0 48 48" fill="none" xmlns="http://www.w3.org/2000/svg">
<path fill-rule="evenodd" clip-rule="evenodd" d="M11.9984 7.5999C10.673 7.5999 9.59844 8.67442 9.59844 9.9999V37.9999C9.59844 39.3254 10.673 40.3999 11.9984 40.3999H35.9984C37.3239 40.3999 38.3984 39.3254 38.3984 37.9999V18.5999H29.9984C28.5625 18.5999 27.3984 17.4358 27.3984 15.9999V7.5999H11.9984ZM30.5984 9.86264L36.1357 15.3999H30.5984V9.86264ZM6.39844 9.9999C6.39844 6.90711 8.90564 4.3999 11.9984 4.3999H28.9984C29.4228 4.3999 29.8298 4.56847 30.1298 4.86853L41.1298 15.8685C41.4299 16.1686 41.5984 16.5756 41.5984 16.9999V37.9999C41.5984 41.0927 39.0912 43.5999 35.9984 43.5999H11.9984C8.90564 43.5999 6.39844 41.0927 6.39844 37.9999V9.9999Z" fill="#333333"/>
<path d="M33.5347 23.8479V32.9999H31.0227V23.8479H28.9427V21.6719H35.6147V23.8479H33.5347Z" fill="#333333"/>
<path d="M25.5181 32.9999L23.9501 29.2559L22.3981 32.9999H19.7261L22.5101 27.0639L19.9501 21.6719H22.6221L24.0141 25.1119L25.4221 21.6719H28.0461L25.4701 27.0479L28.2861 32.9999H25.5181Z" fill="#333333"/>
<path d="M16.9735 23.8479V32.9999H14.4615V23.8479H12.3815V21.6719H19.0535V23.8479H16.9735Z" fill="#333333"/>
</svg>
