<svg width="48" height="48" viewBox="0 0 48 48" fill="none" xmlns="http://www.w3.org/2000/svg">
<path d="M23.9977 15.4014C24.8813 15.4014 25.5977 16.1177 25.5977 17.0014V26.0014C25.5977 26.885 24.8813 27.6014 23.9977 27.6014C23.114 27.6014 22.3977 26.885 22.3977 26.0014V17.0014C22.3977 16.1177 23.114 15.4014 23.9977 15.4014Z" fill="#333333"/>
<path d="M21.998 32.001C21.998 33.101 22.898 34.001 23.998 34.001C25.098 34.001 25.998 33.101 25.998 32.001C25.998 30.901 25.098 30.001 23.998 30.001C22.898 30.001 21.998 30.901 21.998 32.001Z" fill="#333333"/>
<path fill-rule="evenodd" clip-rule="evenodd" d="M20.8604 8.31553C22.2367 5.86877 25.7594 5.86879 27.1357 8.31553L41.716 34.2361C43.0659 36.6358 41.3317 39.601 38.5784 39.601H9.41774C6.66436 39.601 4.9302 36.6358 6.28007 34.2361L20.8604 8.31553ZM24.3467 9.88437C24.1938 9.6125 23.8023 9.61251 23.6494 9.88436L9.06911 35.8049C8.91912 36.0715 9.11181 36.401 9.41774 36.401H38.5784C38.8843 36.401 39.077 36.0715 38.927 35.8049L24.3467 9.88437Z" fill="#333333"/>
</svg>
