<svg width="48" height="48" viewBox="0 0 48 48" fill="none" xmlns="http://www.w3.org/2000/svg">
<path d="M30.8984 24C30.8984 20.1892 27.8088 17.0996 23.998 17.0996C20.1873 17.0996 17.0977 20.1892 17.0977 24C17.0977 27.8108 20.1873 30.9004 23.998 30.9004C27.8088 30.9004 30.8984 27.8108 30.8984 24ZM34.0977 24C34.0977 29.5781 29.5761 34.0996 23.998 34.0996C18.42 34.0996 13.8984 29.5781 13.8984 24C13.8984 18.4219 18.42 13.9004 23.998 13.9004C29.5761 13.9004 34.0977 18.4219 34.0977 24Z" fill="#333333"/>
<path d="M22.3984 7V6C22.3984 5.11634 23.1144 4.40039 23.998 4.40039C24.8817 4.40039 25.5977 5.11634 25.5977 6V7C25.5977 7.88366 24.8817 8.59961 23.998 8.59961C23.1144 8.59961 22.3984 7.88366 22.3984 7Z" fill="#333333"/>
<path d="M23.998 43.5993C23.1144 43.5993 22.3988 42.8837 22.3988 42V40.5803C22.3988 39.6966 23.1144 38.981 23.998 38.981C24.8817 38.981 25.5973 39.6966 25.5973 40.5803V42C25.5973 42.8837 24.8817 43.5993 23.998 43.5993Z" fill="#333333"/>
<path d="M6.99805 25.5996H5.99805C5.11439 25.5996 4.39844 24.8837 4.39844 24C4.39844 23.1163 5.11439 22.4004 5.99805 22.4004H6.99805C7.8817 22.4004 8.59766 23.1163 8.59766 24C8.59766 24.8837 7.8817 25.5996 6.99805 25.5996Z" fill="#333333"/>
<path d="M43.5973 24C43.5973 24.8837 42.8817 25.5993 41.998 25.5993H40.5783C39.6947 25.5993 38.979 24.8837 38.979 24C38.979 23.1163 39.6947 22.4007 40.5783 22.4007H41.998C42.8817 22.4007 43.5973 23.1163 43.5973 24Z" fill="#333333"/>
<path d="M13.1087 37.1515L12.4016 37.8586C11.7768 38.4835 10.7643 38.4835 10.1394 37.8586C9.51457 37.2338 9.51457 36.2213 10.1394 35.5964L10.8465 34.8893C11.4714 34.2645 12.4839 34.2645 13.1087 34.8893C13.7335 35.5142 13.7335 36.5267 13.1087 37.1515Z" fill="#333333"/>
<path d="M37.8564 10.1416C38.4813 10.7664 38.4813 11.7785 37.8564 12.4033L36.8525 13.4072C36.2277 14.0321 35.2157 14.0321 34.5908 13.4072C33.966 12.7824 33.966 11.7703 34.5908 11.1455L35.5947 10.1416C36.2196 9.51677 37.2316 9.51676 37.8564 10.1416Z" fill="#333333"/>
<path d="M10.8465 13.1107L10.1394 12.4036C9.51457 11.7787 9.51457 10.7662 10.1394 10.1414C10.7643 9.51653 11.7768 9.51653 12.4016 10.1414L13.1087 10.8485C13.7335 11.4733 13.7335 12.4858 13.1087 13.1107C12.4839 13.7355 11.4714 13.7355 10.8465 13.1107Z" fill="#333333"/>
<path d="M37.8564 37.8584C37.2316 38.4832 36.2196 38.4832 35.5947 37.8584L34.5908 36.8545C33.966 36.2297 33.966 35.2176 34.5908 34.5928C35.2157 33.9679 36.2277 33.9679 36.8525 34.5928L37.8564 35.5967C38.4813 36.2215 38.4813 37.2336 37.8564 37.8584Z" fill="#333333"/>
</svg>
