<svg width="48" height="48" viewBox="0 0 48 48" fill="none" xmlns="http://www.w3.org/2000/svg">
<path fill-rule="evenodd" clip-rule="evenodd" d="M7.98242 30.4277C8.52605 30.4278 9.01351 30.5225 9.43945 30.7188C9.86196 30.9136 10.1984 31.1844 10.4414 31.5312C10.6858 31.8782 10.8102 32.2726 10.8105 32.707L10.8027 32.877C10.7711 33.2627 10.62 33.5935 10.3477 33.8613C10.2009 34.0068 10.0346 34.1231 9.84961 34.2129C10.1464 34.3169 10.3962 34.4702 10.5938 34.6758L10.709 34.8066C10.9237 35.0767 11.0436 35.394 11.0723 35.752L11.0801 35.9336C11.08 36.3971 10.9415 36.8135 10.666 37.1758C10.4628 37.4434 10.2017 37.6659 9.88672 37.8438L9.55469 38.0059C9.08781 38.2027 8.55655 38.2988 7.9668 38.2988C7.53432 38.2988 7.13394 38.2441 6.76758 38.1309L6.41211 37.998C5.95865 37.794 5.5932 37.5096 5.32422 37.1426C5.05219 36.7711 4.91352 36.3424 4.9082 35.8652L4.90625 35.6621H7.06836L7.07812 35.8535C7.08348 35.9719 7.12046 36.0724 7.18945 36.1621C7.26001 36.2519 7.35768 36.3274 7.49414 36.3848C7.62902 36.4415 7.78832 36.4726 7.97461 36.4727C8.15866 36.4727 8.31205 36.4395 8.43945 36.3809L8.61328 36.2734C8.66248 36.2331 8.70257 36.1875 8.73633 36.1387C8.80113 36.0426 8.83386 35.9324 8.83203 35.8008V35.7949C8.83369 35.6676 8.79854 35.5589 8.72656 35.4629C8.65293 35.3651 8.54457 35.2828 8.39062 35.2207C8.24033 35.1594 8.05274 35.1251 7.82617 35.125H6.91797V33.4746H7.82617C8.01952 33.4745 8.1811 33.4427 8.31445 33.3848L8.49219 33.2812C8.5415 33.2432 8.58149 33.2005 8.61523 33.1543C8.68152 33.0608 8.71648 32.9539 8.71484 32.8262V32.8203C8.7167 32.6922 8.68715 32.588 8.63086 32.502L8.62891 32.498C8.60049 32.4525 8.56643 32.4111 8.52539 32.375L8.38086 32.2812C8.27344 32.2284 8.14187 32.1993 7.98242 32.1992C7.81225 32.1992 7.66187 32.2267 7.53125 32.2832L7.5332 32.2852C7.40593 32.3411 7.30983 32.4171 7.24023 32.5117C7.17389 32.6021 7.13841 32.7084 7.13477 32.8359L7.12891 33.0293H5.05273L5.05469 32.8281C5.05984 32.3567 5.1926 31.9332 5.45508 31.5684C5.71397 31.2065 6.06497 30.9264 6.5 30.7266L6.83984 30.5957C7.19026 30.4835 7.57199 30.4277 7.98242 30.4277ZM8.52539 36.5625L8.63867 36.5C8.65228 36.4915 8.66476 36.4816 8.67773 36.4727C8.6307 36.5052 8.58077 36.5364 8.52539 36.5625ZM7.19727 36.4473C7.20536 36.4532 7.21625 36.4552 7.22461 36.4609C7.18279 36.4326 7.14233 36.4047 7.10742 36.3711L7.19727 36.4473ZM8.39453 33.5684L8.51172 33.5098C8.52352 33.5029 8.53359 33.4935 8.54492 33.4863C8.4982 33.5159 8.44912 33.5449 8.39453 33.5684ZM9.35547 30.9004C9.75066 31.0826 10.0591 31.3318 10.2793 31.6465C10.1693 31.4892 10.0367 31.349 9.88281 31.2246C9.729 31.1004 9.55303 30.9915 9.35547 30.9004Z" fill="#333333"/>
<path d="M38 32.2207C38.772 32.2209 39.3984 33.0175 39.3984 34C39.3984 34.9825 38.772 35.7791 38 35.7793H16C15.228 35.7792 14.6035 34.9826 14.6035 34C14.6035 33.0174 15.228 32.2208 16 32.2207H38Z" fill="#333333"/>
<path fill-rule="evenodd" clip-rule="evenodd" d="M7.92188 20.4277C8.49548 20.4277 9.00489 20.5238 9.44336 20.7227C9.87939 20.9204 10.2232 21.2015 10.4688 21.5664C10.7183 21.9317 10.8418 22.3544 10.8418 22.8262C10.8418 23.1304 10.7804 23.4301 10.6602 23.7246C10.5681 23.9499 10.4242 24.1867 10.2324 24.4336L10.0254 24.6836C9.73046 25.0223 9.31595 25.423 8.78516 25.8848L8.24609 26.3828H10.9316V28.1992H5.14844V26.6445L5.2168 26.5859L7.86914 24.2637L8.36133 23.7832C8.48987 23.6437 8.5834 23.5088 8.64648 23.3789C8.7063 23.2535 8.73823 23.1165 8.73828 22.9648C8.73828 22.7932 8.70108 22.6592 8.63672 22.5547L8.63477 22.5527C8.56701 22.4413 8.47458 22.3564 8.35352 22.2949C8.23187 22.2332 8.08787 22.1993 7.91602 22.1992C7.74279 22.1992 7.59997 22.2346 7.48242 22.2988C7.366 22.3607 7.27205 22.4513 7.20508 22.5723C7.14255 22.6899 7.10747 22.8416 7.10742 23.0352V23.2363H5.04102V23.0352C5.04107 22.5099 5.1593 22.0448 5.4043 21.6484C5.64802 21.2543 5.99103 20.9519 6.42578 20.7422C6.86223 20.5305 7.36271 20.4278 7.92188 20.4277ZM7.18359 22.2715C7.17639 22.2786 7.17102 22.2875 7.16406 22.2949C7.19981 22.2567 7.23697 22.2204 7.2793 22.1895L7.18359 22.2715ZM7.92188 20.627C7.65441 20.627 7.40309 20.652 7.16797 20.7012L7.5332 20.6465C7.65871 20.6342 7.78825 20.627 7.92188 20.627Z" fill="#333333"/>
<path d="M38 22.2207C38.772 22.2209 39.3984 23.0175 39.3984 24C39.3984 24.9825 38.772 25.7791 38 25.7793H16C15.228 25.7792 14.6035 24.9826 14.6035 24C14.6035 23.0174 15.228 22.2208 16 22.2207H38Z" fill="#333333"/>
<path d="M9.61328 18.1992H7.45898V12.6973L6.0957 13.5332L5.79102 13.7188V11.7305L5.88477 11.6719L7.67773 10.5566L7.72656 10.5273H9.61328V18.1992Z" fill="#333333"/>
<path d="M38 12.2207C38.772 12.2209 39.3984 13.0175 39.3984 14C39.3984 14.9825 38.772 15.7791 38 15.7793H16C15.228 15.7792 14.6035 14.9826 14.6035 14C14.6035 13.0174 15.228 12.2208 16 12.2207H38Z" fill="#333333"/>
</svg>
