<svg width="48" height="48" viewBox="0 0 48 48" fill="none" xmlns="http://www.w3.org/2000/svg">
<path d="M32.0161 16.2723C31.0794 16.2723 30.3348 15.5436 29.9315 14.6982C29.5656 13.9311 28.9929 13.2918 28.2135 12.7803C26.9509 11.9517 25.4022 11.5374 23.5674 11.5374C22.2259 11.5374 21.052 11.7544 20.0459 12.1885C19.0496 12.6225 18.2703 13.2193 17.708 13.9788C17.1556 14.7384 16.8794 15.6015 16.8794 16.5682C16.8794 17.3771 17.0718 18.0725 17.4565 18.6545C17.8511 19.2266 18.3542 19.705 18.9657 20.0898C19.5773 20.4646 20.2185 20.7753 20.8893 21.0219C21.56 21.2587 22.1766 21.451 22.7388 21.599L25.7125 22.3996L39.9984 22.3996C40.8821 22.3996 41.5984 23.1159 41.5984 23.9996C41.5984 24.8833 40.8821 25.5996 39.9984 25.5996L7.99844 25.5996C7.11478 25.5996 6.39844 24.8833 6.39844 23.9996C6.39844 23.116 7.11478 22.3996 7.99844 22.3996L16.2525 22.3996C15.95 22.1781 15.6657 21.9457 15.3998 21.7026C14.0188 20.4399 13.3283 18.7877 13.3283 16.7458C13.3283 15.0491 13.787 13.5695 14.7044 12.3068C15.6316 11.0344 16.8745 10.0479 18.4331 9.34757C20.0015 8.63734 21.7524 8.28223 23.6858 8.28223C25.6389 8.28223 27.375 8.63241 28.8941 9.33277C30.4132 10.0233 31.6167 10.9702 32.5044 12.1737C33.0165 12.8602 33.3906 13.5997 33.6266 14.3922C33.9246 15.3929 33.0602 16.2723 32.0161 16.2723Z" fill="#333333"/>
<path d="M30.2103 28.6004H34.0669C34.2484 29.2553 34.3392 29.9794 34.3392 30.7728C34.3392 32.4102 33.9101 33.8899 33.0519 35.2117C32.2036 36.5335 30.9607 37.584 29.3232 38.3633C27.6956 39.1426 25.7178 39.5322 23.3899 39.5322C21.2197 39.5322 19.3406 39.182 17.7524 38.4817C16.1741 37.7813 14.9312 36.8048 14.0237 35.552C13.5081 34.8324 13.1211 34.0461 12.8626 33.1931C12.5424 32.1367 13.4386 31.1871 14.5425 31.1871C15.5296 31.1871 16.3032 31.9709 16.7005 32.8746C16.8876 33.3004 17.1347 33.6848 17.4417 34.028C18.1223 34.7678 18.9805 35.3202 20.0163 35.6852C21.0619 36.0403 22.1864 36.2178 23.3899 36.2178C24.7906 36.2178 26.0483 35.991 27.1629 35.5372C28.2776 35.0736 29.1605 34.4324 29.8115 33.6137C30.4625 32.7851 30.7881 31.8184 30.7881 30.7136C30.7881 29.8808 30.5955 29.1764 30.2103 28.6004Z" fill="#333333"/>
</svg>
