<svg width="48" height="48" viewBox="0 0 48 48" fill="none" xmlns="http://www.w3.org/2000/svg">
<path fill-rule="evenodd" clip-rule="evenodd" d="M12.5214 25.7254L9.27868 28.9681C8.60503 29.6418 8.60503 30.734 9.27868 31.4077C9.95233 32.0813 11.0445 32.0813 11.7182 31.4077L17.4005 25.7254H22.2734V30.5984L16.5912 36.2806C15.9175 36.9543 15.9175 38.0465 16.5912 38.7201C17.2648 39.3938 18.357 39.3938 19.0307 38.7201L22.2734 35.4774V40.8754C22.2734 41.8281 23.0457 42.6004 23.9984 42.6004C24.9511 42.6004 25.7234 41.8281 25.7234 40.8754V35.4774L28.9662 38.7201C29.6398 39.3938 30.732 39.3938 31.4057 38.7201C32.0794 38.0465 32.0794 36.9543 31.4057 36.2806L25.7234 30.5984V25.7254H30.5964L36.2787 31.4077C36.9523 32.0813 38.0445 32.0813 38.7182 31.4077C39.3918 30.734 39.3918 29.6418 38.7182 28.9681L35.4755 25.7254H40.8734C41.8261 25.7254 42.5984 24.9531 42.5984 24.0004C42.5984 23.0477 41.8261 22.2754 40.8734 22.2754H35.4755L38.7182 19.0326C39.3918 18.359 39.3918 17.2668 38.7182 16.5931C38.0445 15.9195 36.9523 15.9195 36.2787 16.5931L30.5964 22.2754H25.7234V17.4024L31.4057 11.7201C32.0794 11.0465 32.0793 9.95429 31.4057 9.28063C30.732 8.60698 29.6398 8.60698 28.9662 9.28063L25.7234 12.5234V7.12539C25.7234 6.1727 24.9511 5.40039 23.9984 5.40039C23.0457 5.40039 22.2734 6.1727 22.2734 7.12539V12.5234L19.0307 9.28063C18.357 8.60698 17.2648 8.60698 16.5912 9.28063C15.9175 9.95429 15.9175 11.0465 16.5912 11.7201L22.2734 17.4024V22.2754H17.4005L11.7182 16.5931C11.0445 15.9195 9.95233 15.9195 9.27868 16.5931C8.60502 17.2668 8.60502 18.359 9.27868 19.0326L12.5214 22.2754H7.12344C6.17075 22.2754 5.39844 23.0477 5.39844 24.0004C5.39844 24.9531 6.17075 25.7254 7.12344 25.7254H12.5214ZM9.69762 18.603L9.70294 18.6084L9.69762 18.603Z" fill="#333333"/>
</svg>
