<svg width="48" height="48" viewBox="0 0 48 48" fill="none" xmlns="http://www.w3.org/2000/svg">
<path d="M23.998 4.40088C24.8817 4.40088 25.5973 5.1165 25.5973 6.00016V15.1097L27.3527 13.3543C27.9775 12.7297 28.9901 12.7296 29.6149 13.3543C30.2394 13.9791 30.2394 14.9917 29.6149 15.6165L25.1291 20.1022C24.5044 20.7268 23.4917 20.7268 22.867 20.1022L18.3812 15.6165C17.7567 14.9917 17.7567 13.9791 18.3812 13.3543C19.006 12.7296 20.0186 12.7297 20.6434 13.3543L22.3988 15.1097V6.00016C22.3988 5.1165 23.1144 4.40088 23.998 4.40088Z" fill="#333333"/>
<path d="M35.998 22.4005C36.8817 22.4005 37.5977 23.1165 37.5977 24.0002C37.5977 24.8838 36.8817 25.5998 35.998 25.5998H11.998C11.1144 25.5998 10.3984 24.8838 10.3984 24.0002C10.3984 23.1165 11.1144 22.4005 11.998 22.4005H35.998Z" fill="#333333"/>
<path d="M23.998 43.5897C23.1144 43.5897 22.3988 42.874 22.3988 41.9904V32.8809L20.6434 34.6362C20.0186 35.2608 19.006 35.261 18.3812 34.6362C17.7567 34.0114 17.7567 32.9988 18.3812 32.374L22.867 27.8883C23.4917 27.2637 24.5044 27.2638 25.1291 27.8883L29.6149 32.374C30.2394 32.9988 30.2394 34.0114 29.6148 34.6362C28.9901 35.261 27.9775 35.2608 27.3527 34.6362L25.5973 32.8809V41.9904C25.5973 42.874 24.8817 43.5897 23.998 43.5897Z" fill="#333333"/>
</svg>
