<svg width="48" height="48" viewBox="0 0 48 48" fill="none" xmlns="http://www.w3.org/2000/svg">
<path d="M17.998 40C19.1026 40 19.998 40.8954 19.998 42C19.998 43.1046 19.1026 44 17.998 44C16.8935 44 15.998 43.1046 15.998 42C15.998 40.8954 16.8935 40 17.998 40Z" fill="#333333"/>
<path d="M23.998 40C25.1026 40 25.998 40.8954 25.998 42C25.998 43.1046 25.1026 44 23.998 44C22.8935 44 21.998 43.1046 21.998 42C21.998 40.8954 22.8935 40 23.998 40Z" fill="#333333"/>
<path d="M29.998 40C31.1026 40 31.998 40.8954 31.998 42C31.998 43.1046 31.1026 44 29.998 44C28.8935 44 27.998 43.1046 27.998 42C27.998 40.8954 28.8935 40 29.998 40Z" fill="#333333"/>
<path d="M29.8438 9.17383C30.3 8.4176 31.2825 8.17318 32.0391 8.62891C36.5652 11.3562 39.5977 16.3234 39.5977 22C39.5976 30.6156 32.6137 37.5996 23.998 37.5996C15.3824 37.5996 8.39847 30.6156 8.39844 22C8.39844 16.3234 11.4309 11.3562 15.957 8.62891C16.7136 8.17318 17.6961 8.4176 18.1523 9.17383C18.6083 9.93061 18.366 10.915 17.6094 11.3711C14.0042 13.5434 11.5977 17.4913 11.5977 22C11.5977 28.8483 17.1497 34.4004 23.998 34.4004C30.8464 34.4004 36.3984 28.8483 36.3984 22C36.3984 17.4913 33.9919 13.5434 30.3867 11.3711C29.6301 10.915 29.3878 9.93061 29.8438 9.17383Z" fill="#333333"/>
<path d="M23.998 4C24.8816 4 25.5974 4.71613 25.5977 5.59961V18.4004C25.5974 19.2839 24.8816 20 23.998 20C23.1147 19.9998 22.3986 19.2837 22.3984 18.4004V5.59961C22.3986 4.71626 23.1147 4.00021 23.998 4Z" fill="#333333"/>
</svg>
