<svg width="48" height="48" viewBox="0 0 48 48" fill="none" xmlns="http://www.w3.org/2000/svg">
<path fill-rule="evenodd" clip-rule="evenodd" d="M4.86719 4.86902C5.49203 4.24418 6.50407 4.24418 7.12891 4.86902L43.1289 40.869C43.7536 41.4939 43.7537 42.5059 43.1289 43.1307C42.5041 43.7555 41.492 43.7554 40.8672 43.1307L36.3359 38.5995H9.99805C6.9053 38.5995 4.39852 36.0926 4.39844 32.9999V12.9999C4.39844 11.2646 5.1885 9.71666 6.42773 8.69129L4.86719 7.13074C4.24235 6.5059 4.24236 5.49386 4.86719 4.86902ZM7.59766 31.5995V32.9999C7.59774 34.3253 8.67261 35.4003 9.99805 35.4003H33.1367L29.3359 31.5995H7.59766ZM8.71094 10.9745C8.042 11.4006 7.59766 12.1482 7.59766 12.9999V28.4003H26.1367L8.71094 10.9745Z" fill="#333333"/>
<path d="M37.998 7.40027C41.0908 7.40027 43.5977 9.90708 43.5977 12.9999V32.9999C43.5976 34.2238 43.1993 35.352 42.5332 36.2733L40.2031 33.9432C40.3273 33.6534 40.3984 33.3351 40.3984 32.9999V31.5995H37.8594L34.6602 28.4003H40.3984V12.9999C40.3984 11.6744 39.3235 10.5995 37.998 10.5995H16.8594L13.6602 7.40027H37.998Z" fill="#333333"/>
</svg>
