<svg width="48" height="48" viewBox="0 0 48 48" fill="none" xmlns="http://www.w3.org/2000/svg">
<path fill-rule="evenodd" clip-rule="evenodd" d="M24.1003 11.5013L19.3102 9.13892L16.7904 13.8481L11.5266 14.7524L12.256 20.0433L8.52899 23.869L12.229 27.7207L11.4625 33.0063L16.7198 33.9476L19.2065 38.6743L24.0131 36.3456L28.8032 38.708L31.323 33.9988L36.5868 33.0945L35.8574 27.8036L39.5844 23.978L35.8843 20.1263L36.6509 14.8406L31.3935 13.8994L28.9068 9.1726L24.1003 11.5013ZM19.6845 5.75549C18.717 5.27833 17.5454 5.65446 17.0364 6.60563L14.7069 10.9592L9.84061 11.7952C8.77741 11.9778 8.05066 12.9708 8.19799 14.0395L8.87233 18.9308L5.42682 22.4675C4.67403 23.2402 4.66971 24.4707 5.41705 25.2486L8.83766 28.8094L8.12899 33.6959C7.97416 34.7635 8.69393 35.7615 9.75582 35.9517L14.6161 36.8218L16.915 41.1916C17.4173 42.1463 18.5862 42.5307 19.557 42.0603L24.0006 39.9075L28.4289 42.0915C29.3964 42.5686 30.568 42.1925 31.077 41.2413L33.4065 36.8878L38.2728 36.0518C39.336 35.8691 40.0627 34.8762 39.9154 33.8075L39.241 28.9162L42.6865 25.3795C43.4393 24.6068 43.4436 23.3763 42.6963 22.5983L39.2757 19.0375L39.9844 14.151C40.1392 13.0834 39.4194 12.0854 38.3575 11.8953L33.4972 11.0251L31.1984 6.65534C30.6961 5.70062 29.5272 5.31627 28.5563 5.78663L24.1128 7.93947L19.6845 5.75549Z" fill="#333333"/>
<path fill-rule="evenodd" clip-rule="evenodd" d="M32.1285 18.8689C32.7534 19.4937 32.7534 20.5068 32.1285 21.1316L23.1285 30.1316C22.5037 30.7564 21.4906 30.7564 20.8658 30.1316L16.8658 26.1316C16.2409 25.5068 16.2409 24.4937 16.8658 23.8689C17.4906 23.244 18.5037 23.244 19.1285 23.8689L21.9972 26.7375L29.8658 18.8689C30.4906 18.244 31.5037 18.244 32.1285 18.8689Z" fill="#333333"/>
</svg>
