<svg width="48" height="48" viewBox="0 0 48 48" fill="none" xmlns="http://www.w3.org/2000/svg">
<path d="M31.1442 17.1914C32.6728 16.1519 34.5117 17.9909 33.4723 19.5195L27.0739 28.9297C26.6337 29.5769 26.0056 30.0745 25.275 30.3555C22.1674 31.55 19.1149 28.4963 20.3102 25.3887C20.5912 24.6582 21.0887 24.03 21.736 23.5898L31.1442 17.1914Z" fill="#333333"/>
<path fill-rule="evenodd" clip-rule="evenodd" d="M23.9977 7.06641C27.8739 7.06649 31.6634 8.21575 34.8864 10.3691C38.1093 12.5227 40.6217 15.5849 42.1051 19.166C43.5884 22.7473 43.9766 26.6885 43.2204 30.4902C43.0586 31.3032 42.8465 32.1025 42.5856 32.8828C41.8454 35.0954 39.7132 36.2656 37.6403 36.2656H10.3532C8.28053 36.2654 6.14999 35.0951 5.40981 32.8828C5.14886 32.1025 4.93676 31.3031 4.77504 30.4902C4.0188 26.6884 4.40694 22.7473 5.89028 19.166C7.37377 15.5847 9.88591 12.5228 13.109 10.3691C16.3321 8.21576 20.1215 7.06641 23.9977 7.06641ZM23.9977 10.2676C20.7541 10.2676 17.5833 11.2292 14.8864 13.0312C12.1899 14.8331 10.0866 17.3925 8.84535 20.3887C7.60417 23.3851 7.27916 26.6842 7.91176 29.8652C8.04705 30.5453 8.22474 31.2144 8.44301 31.8672C8.66676 32.5362 9.38766 33.066 10.3532 33.0664H37.6422C38.6076 33.066 39.3266 32.5362 39.5504 31.8672C39.7687 31.2144 39.9464 30.5454 40.0817 29.8652C40.7143 26.6841 40.3893 23.3852 39.1481 20.3887C37.9069 17.3929 35.8051 14.833 33.109 13.0312C30.4122 11.2293 27.2412 10.2677 23.9977 10.2676Z" fill="#333333"/>
</svg>
