<svg width="48" height="48" viewBox="0 0 48 48" fill="none" xmlns="http://www.w3.org/2000/svg">
<path d="M9.6 4C6.50721 4 4 6.50721 4 9.6V15.6C4 16.4837 4.71634 17.2 5.6 17.2C6.48366 17.2 7.2 16.4837 7.2 15.6V9.6C7.2 8.27452 8.27452 7.2 9.6 7.2H15.6C16.4837 7.2 17.2 6.48366 17.2 5.6C17.2 4.71634 16.4837 4 15.6 4H9.6Z" fill="#333333"/>
<path d="M9.6 43.2C6.50721 43.2 4 40.6927 4 37.6V31.6C4 30.7163 4.71634 30 5.6 30C6.48366 30 7.2 30.7163 7.2 31.6V37.6C7.2 38.9254 8.27452 40 9.6 40H15.6C16.4837 40 17.2 40.7163 17.2 41.6C17.2 42.4836 16.4837 43.2 15.6 43.2H9.6Z" fill="#333333"/>
<path d="M43.2002 9.6C43.2002 6.50721 40.693 4 37.6002 4H31.6002C30.7165 4 30.0002 4.71634 30.0002 5.6C30.0002 6.48366 30.7165 7.2 31.6002 7.2H37.6002C38.9257 7.2 40.0002 8.27452 40.0002 9.6V15.6C40.0002 16.4837 40.7165 17.2 41.6002 17.2C42.4839 17.2 43.2002 16.4837 43.2002 15.6V9.6Z" fill="#333333"/>
<path d="M37.6002 43.2C40.693 43.2 43.2002 40.6927 43.2002 37.6V31.6C43.2002 30.7163 42.4839 30 41.6002 30C40.7165 30 40.0002 30.7163 40.0002 31.6V37.6C40.0002 38.9254 38.9257 40 37.6002 40H31.6002C30.7165 40 30.0002 40.7163 30.0002 41.6C30.0002 42.4836 30.7165 43.2 31.6002 43.2H37.6002Z" fill="#333333"/>
<path fill-rule="evenodd" clip-rule="evenodd" d="M12.8333 11C11.8208 11 11 11.8208 11 12.8333V20.1667C11 21.1792 11.8208 22 12.8333 22H20.1667C21.1792 22 22 21.1792 22 20.1667V12.8333C22 11.8208 21.1792 11 20.1667 11H12.8333ZM14.2 14.2V18.8H18.8V14.2H14.2Z" fill="#333333"/>
<path fill-rule="evenodd" clip-rule="evenodd" d="M11 26.8333C11 25.8208 11.8208 25 12.8333 25H20.1667C21.1792 25 22 25.8208 22 26.8333V34.1667C22 35.1792 21.1792 36 20.1667 36H12.8333C11.8208 36 11 35.1792 11 34.1667V26.8333ZM14.2 32.8V28.2H18.8V32.8H14.2Z" fill="#333333"/>
<path fill-rule="evenodd" clip-rule="evenodd" d="M26.8333 11C25.8208 11 25 11.8208 25 12.8333V20.1667C25 21.1792 25.8208 22 26.8333 22H34.1667C35.1792 22 36 21.1792 36 20.1667V12.8333C36 11.8208 35.1792 11 34.1667 11H26.8333ZM28.2 14.2V18.8H32.8V14.2H28.2Z" fill="#333333"/>
<path d="M25 26C25 25.4477 25.4477 25 26 25H30C30.5523 25 31 25.4477 31 26V29C31 29.5523 31.4477 30 32 30H35C35.5523 30 36 30.4477 36 31V35C36 35.5523 35.5523 36 35 36H31C30.4477 36 30 35.5523 30 35V32C30 31.4477 29.5523 31 29 31H26C25.4477 31 25 30.5523 25 30V26Z" fill="#333333"/>
</svg>
