<svg width="48" height="48" viewBox="0 0 48 48" fill="none" xmlns="http://www.w3.org/2000/svg">
<path fill-rule="evenodd" clip-rule="evenodd" d="M36.6016 24.5957L36.6016 8.00039C36.6016 7.11673 35.8852 6.40039 35.0016 6.40039C34.1179 6.40039 33.4016 7.11673 33.4016 8.00039L33.4016 24.5957C30.5296 25.3108 28.4016 27.9071 28.4016 31.0004C28.4016 34.0937 30.5296 36.69 33.4016 37.4051L33.4016 40.0004C33.4016 40.884 34.1179 41.6004 35.0016 41.6004C35.8852 41.6004 36.6016 40.884 36.6016 40.0004L36.6016 37.4051C39.4735 36.69 41.6016 34.0937 41.6016 31.0004C41.6016 27.9071 39.4735 25.3108 36.6016 24.5957ZM35.0016 27.6004C36.8793 27.6004 38.4016 29.1226 38.4016 31.0004C38.4016 32.8782 36.8793 34.4004 35.0016 34.4004C33.1238 34.4004 31.6016 32.8782 31.6016 31.0004C31.6016 29.1226 33.1238 27.6004 35.0016 27.6004Z" fill="#333333"/>
<path fill-rule="evenodd" clip-rule="evenodd" d="M25.6016 10.5957C28.4735 11.3108 30.6016 13.9071 30.6016 17.0004C30.6016 20.0937 28.4735 22.69 25.6016 23.4051L25.6016 40.0004C25.6016 40.884 24.8852 41.6004 24.0016 41.6004C23.1179 41.6004 22.4016 40.884 22.4016 40.0004L22.4016 23.4051C19.5296 22.69 17.4016 20.0937 17.4016 17.0004C17.4016 13.9071 19.5296 11.3108 22.4016 10.5957L22.4016 8.00039C22.4016 7.11673 23.1179 6.40039 24.0016 6.40039C24.8852 6.40039 25.6016 7.11673 25.6016 8.00039L25.6016 10.5957ZM27.4016 17.0004C27.4016 15.1226 25.8793 13.6004 24.0016 13.6004C22.1238 13.6004 20.6016 15.1226 20.6016 17.0004C20.6016 18.8782 22.1238 20.4004 24.0016 20.4004C25.8793 20.4004 27.4016 18.8782 27.4016 17.0004Z" fill="#333333"/>
<path fill-rule="evenodd" clip-rule="evenodd" d="M14.6016 24.5957C17.4735 25.3108 19.6016 27.9071 19.6016 31.0004C19.6016 34.0937 17.4735 36.69 14.6016 37.4051L14.6016 40.0004C14.6016 40.884 13.8852 41.6004 13.0016 41.6004C12.1179 41.6004 11.4016 40.884 11.4016 40.0004L11.4016 37.4051C8.5296 36.69 6.40156 34.0937 6.40156 31.0004C6.40156 27.9071 8.5296 25.3108 11.4016 24.5957L11.4016 8.00039C11.4016 7.11673 12.1179 6.40039 13.0016 6.40039C13.8852 6.40039 14.6016 7.11673 14.6016 8.00039L14.6016 24.5957ZM16.4016 31.0004C16.4016 29.1226 14.8793 27.6004 13.0016 27.6004C11.1238 27.6004 9.60156 29.1226 9.60156 31.0004C9.60156 32.8782 11.1238 34.4004 13.0016 34.4004C14.8793 34.4004 16.4016 32.8782 16.4016 31.0004Z" fill="#333333"/>
</svg>
