<svg width="48" height="48" viewBox="0 0 48 48" fill="none" xmlns="http://www.w3.org/2000/svg">
<path d="M23.9984 4.40039C13.1737 4.40039 4.39844 13.1756 4.39844 24.0004C4.39844 34.8252 13.1737 43.6004 23.9984 43.6004C24.5879 43.6004 25.1713 43.5744 25.7476 43.5234C24.7135 42.6267 23.827 41.5644 23.1292 40.3778C14.4758 39.9259 7.59844 32.7663 7.59844 24.0004C7.59844 14.9429 14.941 7.60039 23.9984 7.60039C32.7643 7.60039 39.9239 14.4778 40.3758 23.1312C41.5625 23.8289 42.6248 24.7155 43.5215 25.7495C43.5724 25.1733 43.5984 24.5899 43.5984 24.0004C43.5984 13.1756 34.8232 4.40039 23.9984 4.40039Z" fill="#333333"/>
<path d="M24.8081 25.3807C24.9922 25.1845 25.1825 24.9942 25.3787 24.8101C25.5184 24.5726 25.5984 24.2958 25.5984 24.0004V12.0004C25.5984 11.1167 24.8821 10.4004 23.9984 10.4004C23.1148 10.4004 22.3984 11.1167 22.3984 12.0004V22.4004H15.9984C15.1148 22.4004 14.3984 23.1167 14.3984 24.0004C14.3984 24.884 15.1148 25.6004 15.9984 25.6004H23.9984C24.2939 25.6004 24.5706 25.5203 24.8081 25.3807Z" fill="#333333"/>
<path fill-rule="evenodd" clip-rule="evenodd" d="M33.998 44C39.5209 44 43.998 39.5229 43.998 34C43.998 28.4772 39.5209 24 33.998 24C28.4752 24 23.998 28.4772 23.998 34C23.998 39.5229 28.4752 44 33.998 44ZM33.998 26C34.9369 26 35.698 26.7611 35.698 27.7V33.7C35.698 34.6389 34.9369 35.4 33.998 35.4C33.0592 35.4 32.298 34.6389 32.298 33.7L32.298 27.7C32.298 26.7611 33.0592 26 33.998 26ZM31.998 39.7C31.998 40.8 32.898 41.7 33.998 41.7C35.098 41.7 35.998 40.8 35.998 39.7C35.998 38.6 35.098 37.7 33.998 37.7C32.898 37.7 31.998 38.6 31.998 39.7Z" fill="#333333"/>
</svg>
