<svg width="48" height="48" viewBox="0 0 48 48" fill="none" xmlns="http://www.w3.org/2000/svg">
<path fill-rule="evenodd" clip-rule="evenodd" d="M33.998 24C39.5209 24 43.998 28.4772 43.998 34C43.998 39.5228 39.5209 44 33.998 44C28.4752 44 23.998 39.5228 23.998 34C23.998 28.4772 28.4752 24 33.998 24ZM33.998 27.5C33.1696 27.5 32.4981 28.1716 32.498 29V32.5H28.998C28.1697 32.5 27.498 33.1716 27.498 34C27.498 34.8284 28.1697 35.5 28.998 35.5H32.498V38.998C32.498 39.8265 33.1696 40.498 33.998 40.498C34.8265 40.498 35.498 39.8265 35.498 38.998V35.5H38.9961C39.8245 35.5 40.4961 34.8284 40.4961 34C40.4961 33.1716 39.8245 32.5 38.9961 32.5H35.498V29C35.498 28.1716 34.8265 27.5 33.998 27.5Z" fill="#333333"/>
<path d="M37.998 10.4004C41.0908 10.4004 43.5977 12.9072 43.5977 16V24.9453C42.6686 23.9607 41.5906 23.1195 40.3984 22.457V16C40.3984 14.6745 39.3235 13.5996 37.998 13.5996H9.99805C8.67256 13.5996 7.59766 14.6745 7.59766 16V32C7.59766 33.3255 8.67256 34.4004 9.99805 34.4004H21.4102C21.4448 35.5092 21.6226 36.5809 21.9258 37.5996H9.99805C6.90525 37.5996 4.39844 35.0928 4.39844 32V16C4.39844 12.9072 6.90525 10.4004 9.99805 10.4004H37.998Z" fill="#333333"/>
</svg>
