<svg width="48" height="48" viewBox="0 0 48 48" fill="none" xmlns="http://www.w3.org/2000/svg">
<path fill-rule="evenodd" clip-rule="evenodd" d="M17.029 6.28293L18.0189 7.2728L18.3025 6.98922C19.7084 5.58333 21.9877 5.58333 23.3936 6.98922L25.515 9.11054C26.9208 10.5164 26.9208 12.7958 25.515 14.2017L20.9892 18.7274L29.3334 27.0716L33.8591 22.5459C35.265 21.14 37.5444 21.14 38.9503 22.5459L41.0716 24.6672C42.4775 26.0731 42.4775 28.3525 41.0716 29.7583L40.788 30.0419L41.7774 31.0313C43.1832 32.4372 43.1832 34.7166 41.7774 36.1224L40.0808 37.819L41.0714 38.8096C41.6963 39.4344 41.6963 40.4475 41.0714 41.0723C40.4466 41.6972 39.4335 41.6972 38.8087 41.0723L37.8181 40.0817L36.1205 41.7793C34.7146 43.1852 32.4352 43.1852 31.0293 41.7793L30.04 40.79L29.7579 41.0721C28.352 42.4779 26.0726 42.4779 24.6667 41.0721L22.5454 38.9507C21.1395 37.5448 21.1395 35.2655 22.5454 33.8596L27.0707 29.3343L18.7265 20.9902L14.2012 25.5154C12.7954 26.9213 10.516 26.9213 9.11007 25.5154L6.98875 23.3941C5.58287 21.9882 5.58287 19.7088 6.98875 18.3029L7.27085 18.0208L6.28098 17.031C4.87509 15.6251 4.87509 13.3457 6.28098 11.9398L7.97856 10.2422L6.98816 9.25181C6.36332 8.62697 6.36332 7.61391 6.98816 6.98907C7.613 6.36423 8.62606 6.36423 9.2509 6.98907L10.2413 7.97946L11.9378 6.28293C13.3437 4.87704 15.6231 4.87704 17.029 6.28293ZM15.7561 9.53555L9.53359 15.7581L8.54372 14.7682C8.38751 14.612 8.38751 14.3587 8.54372 14.2025L14.2006 8.54567C14.3568 8.38946 14.61 8.38946 14.7663 8.54567L15.7561 9.53555ZM30.451 30.4794L24.8081 36.1223C24.6519 36.2785 24.6519 36.5318 24.8081 36.688L26.9295 38.8093C27.0857 38.9655 27.3389 38.9655 27.4951 38.8093L38.8088 27.4956C38.9651 27.3394 38.9651 27.0861 38.8088 26.9299L36.6875 24.8086C36.5313 24.6524 36.2781 24.6524 36.1218 24.8086L30.4785 30.4519C30.474 30.4565 30.4694 30.4612 30.4649 30.4658C30.4603 30.4704 30.4556 30.4749 30.451 30.4794ZM32.3027 38.5272L33.2921 39.5166C33.4483 39.6728 33.7015 39.6728 33.8578 39.5166L39.5146 33.8597C39.6708 33.7035 39.6708 33.4502 39.5146 33.294L38.5253 32.3047L32.3027 38.5272ZM21.1309 9.25196C20.9747 9.09575 20.7214 9.09575 20.5652 9.25196L9.2515 20.5657C9.09529 20.7219 9.09529 20.9751 9.2515 21.1314L11.3728 23.2527C11.529 23.4089 11.7823 23.4089 11.9385 23.2527L23.2522 11.939C23.4084 11.7828 23.4084 11.5295 23.2522 11.3733L21.1309 9.25196Z" fill="#333333"/>
</svg>
