<svg width="48" height="48" viewBox="0 0 48 48" fill="none" xmlns="http://www.w3.org/2000/svg">
<path fill-rule="evenodd" clip-rule="evenodd" d="M29.998 16C34.4163 16 37.998 19.5817 37.998 24C37.998 28.4183 34.4163 32 29.998 32C25.5798 32 21.998 28.4183 21.998 24C21.998 19.5817 25.5798 16 29.998 16ZM29.998 19.1992C27.3471 19.1992 25.1973 21.349 25.1973 24C25.1973 26.651 27.3471 28.8008 29.998 28.8008C32.649 28.8008 34.7988 26.651 34.7988 24C34.7988 21.349 32.649 19.1992 29.998 19.1992Z" fill="#333333"/>
<path fill-rule="evenodd" clip-rule="evenodd" d="M29.998 10.4004C37.5091 10.4004 43.5977 16.4889 43.5977 24C43.5977 31.5111 37.5091 37.5996 29.998 37.5996H17.998C10.487 37.5996 4.39844 31.5111 4.39844 24C4.39844 16.4889 10.487 10.4004 17.998 10.4004H29.998ZM17.998 13.5996C12.2543 13.5996 7.59766 18.2562 7.59766 24C7.59766 29.7438 12.2543 34.4004 17.998 34.4004H29.998C35.7418 34.4004 40.3984 29.7438 40.3984 24C40.3984 18.2562 35.7418 13.5996 29.998 13.5996H17.998Z" fill="#333333"/>
</svg>
