<svg width="48" height="48" viewBox="0 0 48 48" fill="none" xmlns="http://www.w3.org/2000/svg">
<path d="M41.9961 24.3906C42.8796 24.3906 43.5955 25.1068 43.5957 25.9902V33.3242C43.5956 34.2078 42.8797 34.9238 41.9961 34.9238H35.998C35.1146 34.9237 34.3966 34.2077 34.3965 33.3242C34.3965 32.4406 35.1145 31.7247 35.998 31.7246H39.0762C38.2126 29.4981 36.1253 27.8343 33.5625 27.6289C29.9985 27.3439 26.8987 29.9816 26.6172 33.4941C26.3362 37.0066 28.977 40.1029 32.541 40.3887C35.0707 40.5913 37.3729 39.3204 38.5938 37.3027C39.051 36.5467 40.0349 36.3045 40.791 36.7617C41.5468 37.219 41.7889 38.201 41.332 38.957C39.5039 41.9795 36.0606 43.8807 32.2852 43.5781C26.9803 43.1528 23.0037 38.5333 23.4277 33.2383C23.8521 27.9432 28.5135 24.0148 33.8184 24.4395C36.4743 24.6523 38.793 25.9176 40.3965 27.7891V25.9902C40.3967 25.107 41.1129 24.391 41.9961 24.3906Z" fill="#333333"/>
<path fill-rule="evenodd" clip-rule="evenodd" d="M35.998 8.40039C39.0908 8.40039 41.5977 10.9072 41.5977 14V21.8125C40.4889 21.9174 39.5069 22.4522 38.8184 23.25C38.6803 23.1765 38.5397 23.1075 38.3984 23.0391V19.5996H9.59766V34C9.59766 35.3255 10.6726 36.4004 11.998 36.4004H21.0371C21.2635 37.528 21.6455 38.6026 22.1641 39.5996H11.998C8.90525 39.5996 6.39844 37.0928 6.39844 34V14C6.39844 10.9072 8.90525 8.40039 11.998 8.40039H35.998ZM11.998 11.5996C10.6726 11.5996 9.59766 12.6745 9.59766 14V16.4004H38.3984V14C38.3984 12.6745 37.3235 11.5996 35.998 11.5996H11.998Z" fill="#333333"/>
</svg>
