<svg width="48" height="48" viewBox="0 0 48 48" fill="none" xmlns="http://www.w3.org/2000/svg">
<path d="M19.9984 22.6004C19.1148 22.6004 18.3984 21.884 18.3984 21.0004V20.0004C18.3984 19.1167 19.1148 18.4004 19.9984 18.4004C20.8821 18.4004 21.5984 19.1167 21.5984 20.0004V21.0004C21.5984 21.884 20.8821 22.6004 19.9984 22.6004Z" fill="#333333"/>
<path d="M18.3984 28.0004C18.3984 28.884 19.1148 29.6004 19.9984 29.6004C20.8821 29.6004 21.5984 28.884 21.5984 28.0004V27.0004C21.5984 26.1167 20.8821 25.4004 19.9984 25.4004C19.1148 25.4004 18.3984 26.1167 18.3984 27.0004V28.0004Z" fill="#333333"/>
<path fill-rule="evenodd" clip-rule="evenodd" d="M20.0489 11.4012C20.0322 11.4007 20.0153 11.4004 19.9984 11.4004C19.9815 11.4004 19.9647 11.4007 19.9479 11.4012H7.99844C6.01021 11.4012 4.39844 13.0129 4.39844 15.0012V18.0012C4.39844 19.4371 5.5625 20.6012 6.99844 20.6012C8.32392 20.6012 9.39844 21.6757 9.39844 23.0012V25.0012C9.39844 26.3267 8.32392 27.4012 6.99844 27.4012C5.5625 27.4012 4.39844 28.5652 4.39844 30.0012V33.0012C4.39844 34.9894 6.01021 36.6012 7.99844 36.6012H39.9977C41.9859 36.6012 43.5977 34.9894 43.5977 33.0012V15.0012C43.5977 13.0129 41.9859 11.4012 39.9977 11.4012H20.0489ZM19.9984 16.6004C19.1148 16.6004 18.3984 15.884 18.3984 15.0004V14.6012H7.99844C7.77752 14.6012 7.59844 14.7803 7.59844 15.0012V17.4329C10.4091 17.7323 12.5984 20.1111 12.5984 23.0012V25.0012C12.5984 27.8913 10.4091 30.27 7.59844 30.5694V33.0012C7.59844 33.2221 7.77752 33.4012 7.99844 33.4012H18.3984V33.0004C18.3984 32.1167 19.1148 31.4004 19.9984 31.4004C20.8821 31.4004 21.5984 32.1167 21.5984 33.0004V33.4012H39.9977C40.2186 33.4012 40.3977 33.2221 40.3977 33.0012V15.0012C40.3977 14.7803 40.2186 14.6012 39.9977 14.6012H21.5984V15.0004C21.5984 15.884 20.8821 16.6004 19.9984 16.6004Z" fill="#333333"/>
</svg>
