<svg width="48" height="48" viewBox="0 0 48 48" fill="none" xmlns="http://www.w3.org/2000/svg">
<path d="M15.5759 7.90234C16.4596 7.90234 17.1756 8.6183 17.1756 9.50195V34.6367L21.4451 30.3672L21.5662 30.2578C22.1946 29.745 23.1209 29.7815 23.7068 30.3672C24.2927 30.9531 24.3291 31.8794 23.8162 32.5078L23.7068 32.6289L16.7244 39.6094C16.4335 39.9109 16.0282 40.1016 15.5759 40.1016C15.2062 40.1015 14.8702 39.9704 14.5994 39.7598C14.5891 39.7518 14.5763 39.7466 14.5662 39.7383L14.4256 39.6094L7.44508 32.6289C6.82044 32.0041 6.82034 30.992 7.44508 30.3672C8.06986 29.7424 9.08196 29.7425 9.7068 30.3672L13.9763 34.6367V9.50195C13.9763 8.6184 14.6924 7.90251 15.5759 7.90234Z" fill="#333333"/>
<path d="M37.4204 26.8984C38.0672 26.8987 38.6514 27.2891 38.8989 27.8867C39.1458 28.4841 39.0082 29.1716 38.5513 29.6289L31.2817 36.8984H37.4204L37.5845 36.9062C38.3907 36.9888 39.02 37.67 39.02 38.498C39.02 39.3814 38.3037 40.0972 37.4204 40.0977H27.4204C26.7734 40.0977 26.1896 39.7071 25.9419 39.1094C25.6948 38.5117 25.8322 37.8245 26.2895 37.3672L33.5591 30.0977H27.4204C26.5367 30.0977 25.8208 29.3817 25.8208 28.498C25.8208 27.6144 26.5367 26.8984 27.4204 26.8984H37.4204Z" fill="#333333"/>
<path fill-rule="evenodd" clip-rule="evenodd" d="M32.4204 7.89844C33.0372 7.89875 33.6005 8.25361 33.8657 8.81055L39.8657 21.4102L39.9282 21.5605C40.2013 22.3241 39.8555 23.1865 39.1079 23.543C38.3103 23.9225 37.355 23.5826 36.9751 22.7852C36.6204 22.0404 36.2652 21.2956 35.9106 20.5508H28.9302L27.8657 22.7852C27.486 23.5826 26.5305 23.922 25.7329 23.543C24.9352 23.1631 24.5954 22.2079 24.9751 21.4102L30.9751 8.81055C31.2405 8.25355 31.8034 7.89844 32.4204 7.89844ZM30.4536 17.3516H34.3872C33.7314 15.9741 33.0763 14.5962 32.4204 13.2188L30.4536 17.3516Z" fill="#333333"/>
</svg>
