<svg width="48" height="48" viewBox="0 0 48 48" fill="none" xmlns="http://www.w3.org/2000/svg">
<path d="M28.3926 15.7402C29.1578 15.2984 30.1363 15.5609 30.5781 16.3262C31.0199 17.0914 30.7574 18.0699 29.9922 18.5117L19.6016 24.5117C18.8364 24.9535 17.858 24.6907 17.416 23.9258C16.9742 23.1605 17.2367 22.1821 18.002 21.7402L28.3926 15.7402Z" fill="#333333"/>
<path fill-rule="evenodd" clip-rule="evenodd" d="M35.998 9.52539C39.0908 9.52539 41.5977 12.0342 41.5977 15.127V25.127C41.5971 28.2193 39.0905 30.7266 35.998 30.7266H25.5977V35.127C25.5976 35.1959 25.5905 35.2635 25.582 35.3301C26.4314 35.8598 26.998 36.8002 26.998 37.875C26.998 39.5319 25.6549 40.875 23.998 40.875C22.3412 40.875 20.998 39.5319 20.998 37.875C20.998 36.8008 21.5635 35.86 22.4121 35.3301C22.4036 35.2635 22.3985 35.1958 22.3984 35.127V30.7266H11.998C8.90558 30.7266 6.39897 28.2193 6.39844 25.127V15.127C6.39844 12.0342 8.90525 9.52539 11.998 9.52539H35.998ZM11.998 12.7266C10.6726 12.7266 9.59766 13.8015 9.59766 15.127V25.127C9.59818 26.452 10.6729 27.5273 11.998 27.5273H35.998C37.3232 27.5273 38.3979 26.452 38.3984 25.127V15.127C38.3984 13.8015 37.3235 12.7266 35.998 12.7266H11.998Z" fill="#333333"/>
</svg>
