<svg width="48" height="48" viewBox="0 0 48 48" fill="none" xmlns="http://www.w3.org/2000/svg">
<path d="M22.0876 28.791C21.4122 30.3333 21.0283 32.0309 21.0036 33.8164L19.0212 31.8203C18.5561 31.3513 18.5537 30.5856 19.0837 30.1914C19.6009 29.8072 20.1653 29.4822 20.7771 29.2188C21.1987 29.0372 21.6356 28.8951 22.0876 28.791Z" fill="#333333"/>
<path d="M24.0017 18.1816C26.5309 18.1819 28.8902 18.6628 31.0759 19.625C31.9866 20.0261 32.8487 20.487 33.6618 21.0078C31.0068 21.0755 28.5507 21.9372 26.5212 23.3672C25.7061 23.2108 24.8666 23.131 24.0017 23.1309C22.1872 23.1309 20.481 23.475 18.8864 24.1621C17.6709 24.686 16.5658 25.3621 15.5739 26.1895C15.0611 26.6171 14.2968 26.6176 13.8298 26.1406L12.0427 24.3105C11.5835 23.8404 11.5855 23.0834 12.0798 22.6504C13.5021 21.405 15.1176 20.3901 16.9255 19.6055C19.1116 18.6569 21.4719 18.1816 24.0017 18.1816Z" fill="#333333"/>
<path d="M23.9978 7.57812C27.9022 7.57829 31.5473 8.30829 34.9294 9.76562C37.9401 11.0631 40.6137 12.8092 42.9489 15C43.4273 15.45 43.423 16.2052 42.9587 16.6699L41.1813 18.4473C40.7131 18.9152 39.9543 18.9118 39.4626 18.4688C37.5511 16.7423 35.3851 15.3601 32.9685 14.3242C30.1778 13.1284 27.1869 12.5295 23.9978 12.5293C20.808 12.5293 17.8162 13.1281 15.0251 14.3242C12.6083 15.36 10.4446 16.7423 8.53291 18.4688C8.04159 18.9124 7.28286 18.9144 6.81416 18.4473L5.03682 16.6699C4.5718 16.2049 4.56708 15.45 5.04658 15C7.38214 12.809 10.055 11.0631 13.0661 9.76562C16.4484 8.30833 20.093 7.57812 23.9978 7.57812Z" fill="#333333"/>
<path fill-rule="evenodd" clip-rule="evenodd" d="M33.9993 24C39.5222 24 43.9993 28.4772 43.9993 34C43.9993 39.5228 39.5222 44 33.9993 44C28.4765 44 23.9993 39.5228 23.9993 34C23.9993 28.4772 28.4765 24 33.9993 24ZM33.9993 27.5C33.1709 27.5 32.4993 28.1716 32.4993 29V32.5H28.9993C28.1709 32.5 27.4993 33.1716 27.4993 34C27.4993 34.8284 28.1709 35.5 28.9993 35.5H32.4993V38.998C32.4993 39.8265 33.1709 40.498 33.9993 40.498C34.8277 40.498 35.4993 39.8265 35.4993 38.998V35.5H38.9974C39.8258 35.5 40.4974 34.8284 40.4974 34C40.4974 33.1716 39.8258 32.5 38.9974 32.5H35.4993V29C35.4993 28.1716 34.8277 27.5 33.9993 27.5Z" fill="#333333"/>
</svg>
