<svg width="48" height="48" viewBox="0 0 48 48" fill="none" xmlns="http://www.w3.org/2000/svg">
<path d="M8.39844 36.4C8.39844 37.2837 9.11478 38 9.99844 38H37.9984C38.8821 38 39.5984 37.2837 39.5984 36.4C39.5984 35.5163 38.8821 34.8 37.9984 34.8H9.99844C9.11478 34.8 8.39844 35.5163 8.39844 36.4Z" fill="#333333"/>
<path d="M15.998 32.4004H19.998C20.5503 32.4004 20.998 31.9527 20.998 31.4004V9.40039C20.998 8.8481 20.5503 8.40039 19.998 8.40039H15.998C15.4458 8.40039 14.998 8.84811 14.998 9.40039V31.4004C14.998 31.9527 15.4458 32.4004 15.998 32.4004Z" fill="#333333"/>
<path d="M27.998 18.4004H31.998C32.5503 18.4004 32.998 18.8481 32.998 19.4004V31.4004C32.998 31.9527 32.5503 32.4004 31.998 32.4004H27.998C27.4458 32.4004 26.998 31.9527 26.998 31.4004V19.4004C26.998 18.8481 27.4458 18.4004 27.998 18.4004Z" fill="#333333"/>
</svg>
