<svg width="48" height="48" viewBox="0 0 48 48" fill="none" xmlns="http://www.w3.org/2000/svg">
<path fill-rule="evenodd" clip-rule="evenodd" d="M15.9988 7.40039C16.7189 7.40039 17.3502 7.88136 17.5414 8.57556L25.5408 37.5735C25.7766 38.4251 25.2773 39.3066 24.4257 39.5424C23.5741 39.7782 22.6926 39.2789 22.4568 38.4273L20.2009 30.2782H11.7967L9.54085 38.4273C9.3051 39.2789 8.4236 39.7782 7.57197 39.5424C6.72035 39.3066 6.22108 38.4251 6.45684 37.5735L14.4563 8.57556C14.6475 7.88136 15.2788 7.40039 15.9988 7.40039ZM19.318 27.0782L15.9988 15.0263L12.6797 27.0782H19.318Z" fill="#333333"/>
<path fill-rule="evenodd" clip-rule="evenodd" d="M38.3994 25.5949C38.1717 25.5698 37.938 25.5661 37.7005 25.5859L32.642 26.0075C29.1135 26.3015 26.3994 29.2512 26.3994 32.7919V33.0501C26.3994 36.6675 29.3318 39.5999 32.9492 39.5999C34.6863 39.5999 36.3522 38.9098 37.5805 37.6815L38.3994 36.8626V38.0003C38.3994 38.884 39.1158 39.6003 39.9994 39.6003C40.8831 39.6003 41.5994 38.884 41.5994 38.0003V25.1267C41.5994 20.9739 37.6967 17.9268 33.6679 18.934C32.0409 19.3407 30.555 20.182 29.3691 21.3679L28.868 21.869C28.2432 22.4938 28.2432 23.5069 28.868 24.1317C29.4929 24.7565 30.5059 24.7565 31.1308 24.1317L31.6318 23.6307C32.4076 22.8549 33.3797 22.3045 34.444 22.0384C36.4532 21.5361 38.3994 23.0557 38.3994 25.1267V25.5949ZM38.3994 29.1735C38.3994 28.9395 38.1994 28.7554 37.9662 28.7749L32.9078 29.1964C31.0378 29.3522 29.5994 30.9155 29.5994 32.7919V33.0501C29.5994 34.9002 31.0991 36.3999 32.9492 36.3999C33.8376 36.3999 34.6896 36.047 35.3178 35.4188L36.5249 34.2117C37.7251 33.0114 38.3994 31.3836 38.3994 29.6862V29.1735Z" fill="#333333"/>
</svg>
