<svg width="48" height="48" viewBox="0 0 48 48" fill="none" xmlns="http://www.w3.org/2000/svg">
<path d="M7.99805 28.4004C8.8817 28.4004 9.59766 29.1163 9.59766 30V36C9.59766 37.3255 10.6726 38.4004 11.998 38.4004H17.998C18.8817 38.4004 19.5977 39.1163 19.5977 40C19.5977 40.8837 18.8817 41.5996 17.998 41.5996H11.998C8.90525 41.5996 6.39844 39.0928 6.39844 36V30C6.39844 29.1163 7.11439 28.4004 7.99805 28.4004Z" fill="#333333"/>
<path d="M39.998 28.4004C40.8817 28.4004 41.5977 29.1163 41.5977 30V36C41.5977 39.0928 39.0908 41.5996 35.998 41.5996H29.998C29.1144 41.5996 28.3984 40.8837 28.3984 40C28.3984 39.1163 29.1144 38.4004 29.998 38.4004H35.998C37.3235 38.4004 38.3984 37.3255 38.3984 36V30C38.3984 29.1163 39.1144 28.4004 39.998 28.4004Z" fill="#333333"/>
<path d="M31.998 24.4004C32.8817 24.4004 33.5977 25.1163 33.5977 26C33.5977 26.8837 32.8817 27.5996 31.998 27.5996H29.8594L33.1289 30.8691C33.7537 31.494 33.7537 32.506 33.1289 33.1309C32.5041 33.7557 31.492 33.7557 30.8672 33.1309L27.5977 29.8613V32C27.5977 32.8837 26.8817 33.5996 25.998 33.5996C25.1144 33.5996 24.3984 32.8837 24.3984 32V26C24.3984 25.1163 25.1144 24.4004 25.998 24.4004H31.998Z" fill="#333333"/>
<path d="M21.998 14.4004C22.8817 14.4004 23.5977 15.1163 23.5977 16V22C23.5977 22.8837 22.8817 23.5996 21.998 23.5996H15.998C15.1144 23.5996 14.3984 22.8837 14.3984 22C14.3984 21.1163 15.1144 20.4004 15.998 20.4004H18.1367L14.8672 17.1309C14.2423 16.506 14.2423 15.494 14.8672 14.8691C15.492 14.2443 16.5041 14.2443 17.1289 14.8691L20.3984 18.1387V16C20.3984 15.1163 21.1144 14.4004 21.998 14.4004Z" fill="#333333"/>
<path d="M17.998 6.40039C18.8817 6.40039 19.5977 7.11634 19.5977 8C19.5977 8.88366 18.8817 9.59961 17.998 9.59961H11.998C10.6726 9.59961 9.59766 10.6745 9.59766 12V18C9.59766 18.8837 8.8817 19.5996 7.99805 19.5996C7.11439 19.5996 6.39844 18.8837 6.39844 18V12C6.39844 8.90721 8.90525 6.40039 11.998 6.40039H17.998Z" fill="#333333"/>
<path d="M35.998 6.40039C39.0908 6.40039 41.5977 8.90721 41.5977 12V18C41.5977 18.8837 40.8817 19.5996 39.998 19.5996C39.1144 19.5996 38.3984 18.8837 38.3984 18V12C38.3984 10.6745 37.3235 9.59961 35.998 9.59961H29.998C29.1144 9.59961 28.3984 8.88366 28.3984 8C28.3984 7.11634 29.1144 6.40039 29.998 6.40039H35.998Z" fill="#333333"/>
</svg>
