<svg width="48" height="48" viewBox="0 0 48 48" fill="none" xmlns="http://www.w3.org/2000/svg">
<path d="M36.3996 10.0004C36.3996 9.11674 37.116 8.40039 37.9996 8.40039C38.8833 8.40039 39.5996 9.11674 39.5996 10.0004V40.0004C39.5996 40.884 38.8833 41.6004 37.9996 41.6004C37.116 41.6004 36.3996 40.884 36.3996 40.0004V10.0004Z" fill="#333333"/>
<path d="M11 15H33C33.5523 15 34 15.4477 34 16V20C34 20.5523 33.5523 21 33 21H11C10.4477 21 10 20.5523 10 20V16C10 15.4477 10.4477 15 11 15Z" fill="#333333"/>
<path d="M21 28H33C33.5523 28 34 28.4477 34 29V33C34 33.5523 33.5523 34 33 34H21C20.4477 34 20 33.5523 20 33V29C20 28.4477 20.4477 28 21 28Z" fill="#333333"/>
</svg>
