<svg width="48" height="48" viewBox="0 0 48 48" fill="none" xmlns="http://www.w3.org/2000/svg">
<path d="M11.1992 33.5996C11.1992 34.9251 12.2741 36 13.5996 36V39.1992C10.5068 39.1992 8 36.6924 8 33.5996H11.1992ZM21.5996 39.1992H17.5996V36H21.5996V39.1992ZM29.5996 39.1992H25.5996V36H29.5996V39.1992ZM39.1992 33.5996C39.1992 36.6924 36.6924 39.1992 33.5996 39.1992V36C34.9251 36 36 34.9251 36 33.5996H39.1992ZM28 14.4004C31.0928 14.4004 33.5996 16.9072 33.5996 20V28C33.5996 31.0928 31.0928 33.5996 28 33.5996H20C16.9072 33.5996 14.4004 31.0928 14.4004 28V20C14.4004 16.9072 16.9072 14.4004 20 14.4004H28ZM20 17.5996C18.6745 17.5996 17.5996 18.6745 17.5996 20V28C17.5996 29.3255 18.6745 30.4004 20 30.4004H28C29.3255 30.4004 30.4004 29.3255 30.4004 28V20C30.4004 18.6745 29.3255 17.5996 28 17.5996H20ZM11.1992 29.5996H8V25.5996H11.1992V29.5996ZM39.1992 29.5996H36V25.5996H39.1992V29.5996ZM11.1992 21.5996H8V17.5996H11.1992V21.5996ZM39.1992 21.5996H36V17.5996H39.1992V21.5996ZM13.5996 11.1992C12.2741 11.1992 11.1992 12.2741 11.1992 13.5996H8C8 10.5068 10.5068 8 13.5996 8V11.1992ZM33.5996 8C36.6924 8 39.1992 10.5068 39.1992 13.5996H36C36 12.2741 34.9251 11.1992 33.5996 11.1992V8ZM21.5996 11.1992H17.5996V8H21.5996V11.1992ZM29.5996 11.1992H25.5996V8H29.5996V11.1992Z" fill="#333333"/>
</svg>
