<svg width="48" height="48" viewBox="0 0 48 48" fill="none" xmlns="http://www.w3.org/2000/svg">
<path d="M31.7931 36.1426C32.5564 35.6981 33.5356 35.9559 33.9806 36.7188L36.1095 40.373C36.5538 41.1366 36.2948 42.1179 35.5314 42.5625C34.7679 43.0067 33.7885 42.7458 33.3439 41.9824L31.2169 38.3281C30.7731 37.5647 31.03 36.5871 31.7931 36.1426Z" fill="#333333"/>
<path fill-rule="evenodd" clip-rule="evenodd" d="M17.0001 6.40039C17.8838 6.40039 18.5997 7.11634 18.5997 8V12.8555L21.6134 13.3203C21.6952 13.3329 21.7796 13.3201 21.8536 13.2832L29.3204 9.55078L29.5079 9.46484C31.4539 8.6657 33.5415 10.4362 32.9962 12.5293C32.5208 14.3535 32.0694 16.0337 31.6447 17.625C34.5236 19.2781 36.0891 22.7088 35.2384 26.0781C34.3661 29.5324 31.2279 31.8381 27.8107 31.8145C27.3111 33.6745 26.7877 35.6443 26.2208 37.8145C25.6182 40.1192 22.4557 40.4893 21.3732 38.3242L17.9161 31.4102C17.8715 31.3209 17.7945 31.2507 17.7013 31.2148L7.07826 27.127C5.38175 26.4742 4.43708 24.66 4.87708 22.8965L7.00599 14.3809C7.45696 12.5771 9.20743 11.4131 11.0451 11.6953L15.4005 12.3633V8C15.4005 7.11639 16.1165 6.40047 17.0001 6.40039ZM23.2853 16.1465C22.6186 16.4797 21.8637 16.5977 21.1271 16.4844L18.5997 16.0957V22C18.5997 22.8837 17.8838 23.5996 17.0001 23.5996C16.1165 23.5995 15.4005 22.8836 15.4005 22V15.6035L10.5587 14.8594C10.3548 14.8283 10.1597 14.9562 10.1095 15.1562L7.9806 23.6719C7.9324 23.8672 8.03711 24.0699 8.22474 24.1426L18.8517 28.2266C19.6894 28.5489 20.3757 29.1739 20.7775 29.9766L23.5294 35.4785C24.6269 31.3077 25.5636 27.8533 26.506 24.3945C27.4671 20.867 28.4255 17.3308 29.5587 13.0098L23.2853 16.1465ZM29.5939 25.2363C29.2965 26.3278 29.0009 27.4186 28.6994 28.5293C30.3214 28.2108 31.7079 26.9937 32.1369 25.2949C32.5525 23.6485 31.9625 21.9722 30.7638 20.9141C30.3645 22.3911 29.9809 23.8159 29.5939 25.2363Z" fill="#333333"/>
<path d="M37.0743 26.7188C37.3404 25.8762 38.2396 25.4078 39.0822 25.6738L42.881 26.875C43.7233 27.1411 44.1917 28.0384 43.9259 28.8809C43.6598 29.7235 42.7607 30.1899 41.9181 29.9238L38.1173 28.7266C37.2755 28.4603 36.809 27.5609 37.0743 26.7188Z" fill="#333333"/>
<path d="M40.8439 12.8301C41.5982 12.3703 42.583 12.6072 43.0431 13.3613C43.5029 14.1156 43.2638 15.1004 42.5099 15.5605L39.131 17.6191C38.3769 18.0788 37.394 17.8414 36.9337 17.0879C36.4739 16.3336 36.7111 15.3488 37.465 14.8887L40.8439 12.8301Z" fill="#333333"/>
</svg>
