<svg width="48" height="48" viewBox="0 0 48 48" fill="none" xmlns="http://www.w3.org/2000/svg">
<path fill-rule="evenodd" clip-rule="evenodd" d="M37.998 12.4004C41.0908 12.4004 43.5977 14.9072 43.5977 18V30C43.5977 33.0928 41.0908 35.5996 37.998 35.5996H9.99805C6.90525 35.5996 4.39844 33.0928 4.39844 30V18C4.39844 14.9072 6.90525 12.4004 9.99805 12.4004H37.998ZM9.99805 15.5996C8.67256 15.5996 7.59766 16.6745 7.59766 18V30C7.59766 31.3255 8.67256 32.4004 9.99805 32.4004H37.998C39.3235 32.4004 40.3984 31.3255 40.3984 30V18C40.3984 16.6745 39.3235 15.5996 37.998 15.5996H34.5977V20C34.5977 20.8837 33.8817 21.5996 32.998 21.5996C32.1144 21.5996 31.3984 20.8837 31.3984 20V15.5996H25.5977V22C25.5977 22.8837 24.8817 23.5996 23.998 23.5996C23.1144 23.5996 22.3984 22.8837 22.3984 22V15.5996H16.5977V20C16.5977 20.8837 15.8817 21.5996 14.998 21.5996C14.1144 21.5996 13.3984 20.8837 13.3984 20V15.5996H9.99805Z" fill="#333333"/>
</svg>
