<svg width="48" height="48" viewBox="0 0 48 48" fill="none" xmlns="http://www.w3.org/2000/svg">
<path d="M19.998 31.6C19.1144 31.6 18.398 30.8836 18.398 30L18.398 18C18.398 17.1163 19.1144 16.4 19.998 16.4C20.8817 16.4 21.598 17.1163 21.598 18V30C21.598 30.8836 20.8817 31.6 19.998 31.6Z" fill="#333333"/>
<path d="M26.398 30C26.398 30.8836 27.1144 31.6 27.998 31.6C28.8817 31.6 29.598 30.8836 29.598 30L29.598 18C29.598 17.1163 28.8817 16.4 27.998 16.4C27.1144 16.4 26.398 17.1163 26.398 18V30Z" fill="#333333"/>
<path fill-rule="evenodd" clip-rule="evenodd" d="M4.39844 24.0004C4.39844 13.1756 13.1737 4.40039 23.9984 4.40039C34.8232 4.40039 43.5984 13.1756 43.5984 24.0004C43.5984 34.8252 34.8232 43.6004 23.9984 43.6004C13.1737 43.6004 4.39844 34.8252 4.39844 24.0004ZM23.9984 7.60039C14.941 7.60039 7.59844 14.9429 7.59844 24.0004C7.59844 33.0579 14.941 40.4004 23.9984 40.4004C33.0559 40.4004 40.3984 33.0579 40.3984 24.0004C40.3984 14.9429 33.0559 7.60039 23.9984 7.60039Z" fill="#333333"/>
</svg>
