<svg width="48" height="48" viewBox="0 0 48 48" fill="none" xmlns="http://www.w3.org/2000/svg">
<path d="M25.5984 8.00039C25.5984 7.11674 24.8821 6.40039 23.9984 6.40039C23.1148 6.40039 22.3984 7.11674 22.3984 8.00039V38.0004C22.3984 38.884 23.1148 39.6004 23.9984 39.6004C24.8821 39.6004 25.5984 38.884 25.5984 38.0004V8.00039Z" fill="#333333"/>
<path fill-rule="evenodd" clip-rule="evenodd" d="M4.39844 14.0004C4.39844 12.0122 6.01021 10.4004 7.99844 10.4004H15.9984C17.9867 10.4004 19.5984 12.0122 19.5984 14.0004V34.0004C19.5984 35.9886 17.9867 37.6004 15.9984 37.6004H7.99844C6.01021 37.6004 4.39844 35.9886 4.39844 34.0004V14.0004ZM7.99844 13.6004C7.77752 13.6004 7.59844 13.7795 7.59844 14.0004V34.0004C7.59844 34.2213 7.77752 34.4004 7.99844 34.4004H15.9984C16.2194 34.4004 16.3984 34.2213 16.3984 34.0004V14.0004C16.3984 13.7795 16.2194 13.6004 15.9984 13.6004H7.99844Z" fill="#333333"/>
<path fill-rule="evenodd" clip-rule="evenodd" d="M28.3984 14.0004C28.3984 12.0122 30.0102 10.4004 31.9984 10.4004H39.9984C41.9867 10.4004 43.5984 12.0122 43.5984 14.0004V34.0004C43.5984 35.9886 41.9867 37.6004 39.9984 37.6004H31.9984C30.0102 37.6004 28.3984 35.9886 28.3984 34.0004V14.0004ZM31.9984 13.6004C31.7775 13.6004 31.5984 13.7795 31.5984 14.0004V34.0004C31.5984 34.2213 31.7775 34.4004 31.9984 34.4004H39.9984C40.2194 34.4004 40.3984 34.2213 40.3984 34.0004V14.0004C40.3984 13.7795 40.2194 13.6004 39.9984 13.6004H31.9984Z" fill="#333333"/>
</svg>
