<svg width="48" height="48" viewBox="0 0 48 48" fill="none" xmlns="http://www.w3.org/2000/svg">
<path d="M17.5195 17.3867C17.8879 17.3867 18.2117 17.5045 18.4648 17.752C18.7173 17.9887 18.8555 18.2863 18.8555 18.6289C18.855 19.0945 18.6004 19.6636 18.1777 20.3086L15.9277 23.7441L18.3574 27.5684L18.6641 28.0645C18.7502 28.2159 18.821 28.3563 18.877 28.4824C18.9938 28.7403 19.0585 28.9999 19.0586 29.2559C19.0584 29.4997 19.0004 29.7311 18.8809 29.9395C18.7604 30.149 18.5884 30.314 18.375 30.4336C18.1576 30.5552 17.9161 30.6133 17.6582 30.6133C17.3885 30.6132 17.1397 30.5537 16.9258 30.4199C16.733 30.3044 16.5709 30.1568 16.4473 29.9746C16.3469 29.8265 16.1638 29.5419 15.8984 29.127L15.8965 29.123L14.043 26.1445L12.0664 29.2227C11.8928 29.4999 11.7654 29.7018 11.6855 29.8184L11.6836 29.8164C11.6019 29.9432 11.5055 30.0662 11.3926 30.1816C11.261 30.3159 11.1049 30.4223 10.9297 30.498C10.7434 30.5784 10.5357 30.6132 10.3145 30.6133C9.95292 30.6133 9.63164 30.4979 9.375 30.2578L9.37109 30.2559C9.10617 29.9998 8.9944 29.6428 8.99414 29.2402C8.99414 28.7409 9.2329 28.1773 9.64062 27.5664L12.2051 23.7383L10.0605 20.3555L10.0586 20.3516C9.95097 20.1767 9.85475 20.0122 9.77148 19.8594L9.55469 19.4258C9.44 19.1475 9.3791 18.8681 9.37891 18.5957C9.37891 18.264 9.52557 17.9777 9.77734 17.748C10.0419 17.5065 10.3664 17.3867 10.7305 17.3867C11.1287 17.3869 11.4753 17.5116 11.7285 17.7891C11.9432 18.015 12.2196 18.4157 12.5508 18.9648L14.0957 21.5176L15.752 18.957C15.9079 18.7097 16.0393 18.4975 16.1465 18.3223L16.1504 18.3164C16.2699 18.1303 16.3878 17.9691 16.5039 17.8379C16.6298 17.6957 16.7771 17.585 16.9434 17.5098C17.1197 17.4272 17.3146 17.3868 17.5195 17.3867Z" fill="#333333"/>
<path d="M37.8496 17.3867C38.2258 17.3867 38.5545 17.5175 38.8145 17.7793C39.074 18.0307 39.2188 18.3409 39.2188 18.6953C39.2186 18.9608 39.1534 19.2224 39.0332 19.4746C38.9214 19.7088 38.7349 20.0202 38.4844 20.4043L35.541 25.0215V28.8066C35.5409 29.3503 35.4196 29.8158 35.1211 30.1426C34.8334 30.4571 34.4602 30.6132 34.0273 30.6133C33.5928 30.6133 33.2183 30.462 32.9336 30.1504L32.9316 30.1465C32.6399 29.8192 32.5197 29.3533 32.5195 28.8066V25.0176L29.6484 20.4707L29.6465 20.4688C29.3897 20.05 29.2001 19.7118 29.084 19.4629L29.082 19.459C28.9694 19.2047 28.9006 18.9573 28.9004 18.7285C28.9004 18.3606 29.0434 18.0385 29.3105 17.7793L29.3125 17.7773C29.5888 17.5162 29.9311 17.3867 30.3184 17.3867C30.7061 17.3868 31.0466 17.5031 31.2871 17.7754C31.4843 17.9897 31.757 18.3959 32.0977 18.9648L34.0762 22.248L36.0781 18.9648C36.2131 18.7387 36.3261 18.5472 36.418 18.3926C36.5174 18.2252 36.6278 18.067 36.7461 17.9219L36.9629 17.6992C37.0404 17.6338 37.1249 17.578 37.2129 17.5312C37.4021 17.4309 37.6183 17.3868 37.8496 17.3867Z" fill="#333333"/>
<path d="M23.9766 19.5039C24.7227 19.5042 25.3281 20.1092 25.3281 20.8555V22.6934H27.0742C27.8424 22.6934 28.4667 23.3158 28.4668 24.084C28.4663 24.8518 27.8422 25.4746 27.0742 25.4746H25.3281V27.2969C25.3276 28.0427 24.7224 28.6481 23.9766 28.6484C23.2304 28.6484 22.6255 28.0429 22.625 27.2969V25.4746H20.8926C20.125 25.4741 19.5025 24.8515 19.502 24.084C19.5021 23.3161 20.1248 22.6938 20.8926 22.6934H22.625V20.8555C22.625 20.109 23.2301 19.5039 23.9766 19.5039Z" fill="#333333"/>
<path fill-rule="evenodd" clip-rule="evenodd" d="M37.998 8.40039C41.0908 8.40039 43.5977 10.9072 43.5977 14V34C43.5977 37.0928 41.0908 39.5996 37.998 39.5996H9.99805C6.90525 39.5996 4.39844 37.0928 4.39844 34V14C4.39844 10.9072 6.90525 8.40039 9.99805 8.40039H37.998ZM9.99805 11.5996C8.67256 11.5996 7.59766 12.6745 7.59766 14V34C7.59766 35.3255 8.67256 36.4004 9.99805 36.4004H37.998C39.3235 36.4004 40.3984 35.3255 40.3984 34V14C40.3984 12.6745 39.3235 11.5996 37.998 11.5996H9.99805Z" fill="#333333"/>
</svg>
