<svg width="48" height="48" viewBox="0 0 48 48" fill="none" xmlns="http://www.w3.org/2000/svg">
<path d="M41.8125 42.291C41.8511 42.8783 41.5632 43.4415 41.0645 43.7539C40.5655 44.0654 39.9329 44.0765 39.4219 43.7852L36.3965 42.0566L33.373 43.7852C32.8619 44.0767 32.2296 44.0655 31.7305 43.7539C31.2318 43.4414 30.9457 42.8783 30.9844 42.291L31.3711 36.4629C32.8159 37.4076 34.5432 37.9588 36.3984 37.959C38.2521 37.9587 39.9794 37.4042 41.4238 36.4609L41.8125 42.291Z" fill="#333333"/>
<path d="M37.998 7.40039C41.0908 7.40039 43.5977 9.90721 43.5977 13V21.5391C42.6849 20.6289 41.6016 19.8905 40.3984 19.377V13C40.3984 11.6745 39.3235 10.5996 37.998 10.5996H9.99805C8.67256 10.5996 7.59766 11.6745 7.59766 13V28.4004H26.207C26.2029 28.5196 26.1992 28.6395 26.1992 28.7598C26.1992 29.7452 26.3369 30.6983 26.5977 31.5996H7.59766V33C7.59766 34.3255 8.67256 35.4004 9.99805 35.4004H28.6602C28.7139 35.4629 28.7671 35.5267 28.8223 35.5879L28.7773 36.291L28.625 38.5996H9.99805C6.90525 38.5996 4.39844 36.0928 4.39844 33V13C4.39844 9.90721 6.90525 7.40039 9.99805 7.40039H37.998Z" fill="#333333"/>
<path d="M36.3984 21.1602C40.5955 21.1606 43.998 24.5626 43.998 28.7598C43.998 30.7984 43.1926 32.6521 41.8867 34.0156C40.5054 35.4575 38.5557 36.3592 36.3984 36.3594C32.2011 36.3594 28.7989 32.957 28.7988 28.7598C28.7988 24.5624 32.2011 21.1602 36.3984 21.1602Z" fill="#333333"/>
</svg>
