<svg width="48" height="48" viewBox="0 0 48 48" fill="none" xmlns="http://www.w3.org/2000/svg">
<path d="M6.39844 8.00039C6.39844 7.11674 7.11478 6.40039 7.99844 6.40039C8.88209 6.40039 9.59844 7.11674 9.59844 8.00039V13.5991C12.8224 9.23278 18.023 6.40039 23.8871 6.40039C33.6583 6.40039 41.5984 14.2697 41.5984 24.0004C41.5984 33.731 33.6583 41.6004 23.8871 41.6004C15.6399 41.6004 8.70312 35.9979 6.73443 28.4018C6.51273 27.5464 7.02644 26.6733 7.88184 26.4516C8.73723 26.2299 9.61038 26.7436 9.83208 27.599C11.4405 33.8047 17.1197 38.4004 23.8871 38.4004C31.912 38.4004 38.3984 31.9428 38.3984 24.0004C38.3984 16.0579 31.912 9.60039 23.8871 9.60039C18.6817 9.60039 14.1192 12.3195 11.5586 16.4004H16.9984C17.8821 16.4004 18.5984 17.1167 18.5984 18.0004C18.5984 18.884 17.8821 19.6004 16.9984 19.6004H7.99844C7.11478 19.6004 6.39844 18.884 6.39844 18.0004V8.00039Z" fill="#333333"/>
<path d="M23.999 12.2998C23.0601 12.2998 22.299 13.0609 22.299 13.9998V23.9998C22.299 24.4507 22.4781 24.8831 22.7969 25.2019L26.7969 29.2019C27.4608 29.8658 28.5372 29.8658 29.2011 29.2019C29.865 28.538 29.865 27.4616 29.2011 26.7977L25.699 23.2956V13.9998C25.699 13.0609 24.9379 12.2998 23.999 12.2998Z" fill="#333333"/>
</svg>
