<svg width="48" height="48" viewBox="0 0 48 48" fill="none" xmlns="http://www.w3.org/2000/svg">
<path fill-rule="evenodd" clip-rule="evenodd" d="M23.9983 6.40039C17.0517 6.40039 11.7317 12.6717 11.7317 20.0004V27.2675C11.7317 27.9308 11.4571 28.5646 10.9731 29.0184L8.74886 31.1036C7.02934 32.7156 8.17012 35.6004 10.5271 35.6004H18.3977V36C18.3977 39.0928 20.9049 41.6 23.9977 41.6C27.0905 41.6 29.5977 39.0928 29.5977 36V35.6004H37.4695C39.8265 35.6004 40.9673 32.7156 39.2478 31.1036L37.0235 29.0184C36.5396 28.5646 36.265 27.9308 36.265 27.2675V20.0004C36.265 12.6717 30.945 6.40039 23.9983 6.40039ZM14.9317 20.0004C14.9317 14.0743 19.1629 9.60039 23.9983 9.60039C28.8338 9.60039 33.065 14.0743 33.065 20.0004V27.2675C33.065 28.8154 33.7057 30.2942 34.8349 31.3529L35.9523 32.4004H12.0444L13.1617 31.3529C14.291 30.2942 14.9317 28.8154 14.9317 27.2675V20.0004ZM26.3977 35.6004H21.5977V36C21.5977 37.3255 22.6722 38.4 23.9977 38.4C25.3231 38.4 26.3977 37.3255 26.3977 36V35.6004Z" fill="#333333"/>
</svg>
