<svg width="48" height="48" viewBox="0 0 48 48" fill="none" xmlns="http://www.w3.org/2000/svg">
<path d="M32.998 22.4004C36.0908 22.4004 38.5977 24.9072 38.5977 28V36C38.5977 39.0928 36.0908 41.5996 32.998 41.5996H14.998C11.9053 41.5996 9.39844 39.0928 9.39844 36V28C9.39844 24.9072 11.9053 22.4004 14.998 22.4004H32.998ZM14.998 25.5996C13.6726 25.5996 12.5977 26.6745 12.5977 28V36C12.5977 37.3255 13.6726 38.4004 14.998 38.4004H32.998C34.3235 38.4004 35.3984 37.3255 35.3984 36V28C35.3984 26.6745 34.3235 25.5996 32.998 25.5996H14.998ZM30.9609 27.1758C31.5406 27.1758 32.031 27.2816 32.4258 27.5C32.8207 27.7058 33.139 27.9663 33.3809 28.2832L33.4258 28.3438L32.3496 29.7949L32.2695 29.9023L32.1895 29.7969C32.0522 29.6139 31.8966 29.4699 31.7246 29.3652C31.569 29.2662 31.3638 29.213 31.1055 29.2129C30.8683 29.2129 30.6638 29.2755 30.4902 29.3984C30.3209 29.5242 30.1707 29.6993 30.041 29.9277C29.9193 30.1484 29.8262 30.4184 29.7637 30.7383C29.7012 31.0509 29.668 31.3899 29.668 31.752C29.668 32.114 29.7012 32.451 29.7637 32.7637C29.8261 33.0757 29.9186 33.3464 30.041 33.5762C30.1706 33.8044 30.3246 33.9796 30.502 34.1055C30.6756 34.2284 30.88 34.293 31.1172 34.293C31.3552 34.2929 31.5589 34.2326 31.7324 34.1172C31.9141 33.9961 32.0564 33.8525 32.1602 33.6895L32.2363 33.5723L32.3223 33.6816L33.3906 35.0137L33.4375 35.0723L33.3945 35.1328C33.2139 35.3881 32.9916 35.6132 32.7285 35.8066L32.4512 35.9902C32.0557 36.2174 31.5565 36.3281 30.9609 36.3281C30.45 36.3281 29.982 36.2163 29.5586 35.9922C29.2488 35.8187 28.9685 35.5963 28.7246 35.3262L28.4922 35.0391C28.1967 34.6286 27.9674 34.145 27.8047 33.5918C27.6417 33.0296 27.5605 32.416 27.5605 31.752C27.5606 31.0801 27.6417 30.4626 27.8047 29.9004C27.9673 29.3392 28.1962 28.8561 28.4922 28.4531C28.7882 28.0502 29.1429 27.7352 29.5566 27.5117C29.98 27.2877 30.45 27.1758 30.9609 27.1758ZM30.9609 36.2285C31.0955 36.2285 31.2242 36.2187 31.3477 36.207C31.2242 36.2185 31.0955 36.2285 30.9609 36.2285ZM31.4316 36.1973C31.5214 36.1867 31.6077 36.1732 31.6914 36.1562C31.6077 36.173 31.5214 36.1868 31.4316 36.1973ZM29.9648 36.0586C30.0423 36.0862 30.1209 36.1102 30.2012 36.1309C30.1209 36.1101 30.0423 36.0862 29.9648 36.0586ZM17.5645 27.4688L19.3594 32.2832L19.3262 27.5039V27.4043H21.1836V36.0996H18.9609L18.9375 36.0352L17.1309 31.2891L17.1738 36L17.1758 36.0996H15.2578V27.4043H17.541L17.5645 27.4688ZM26.9492 29.3438H24.7402V30.8711H26.7695V32.7168H24.7539V36.0996H22.6094V27.4043H26.9492V29.3438ZM29.6055 35.9043C29.6979 35.9532 29.7937 35.9935 29.8906 36.0312C29.7937 35.9934 29.6979 35.9532 29.6055 35.9043ZM32.4004 35.9043C32.4824 35.8554 32.5595 35.8019 32.6348 35.748C32.5597 35.8018 32.4823 35.8555 32.4004 35.9043ZM32.7148 35.6875C32.7694 35.6457 32.8223 35.6032 32.873 35.5586C32.8223 35.6032 32.7694 35.6457 32.7148 35.6875ZM28.0332 33.959C28.1291 34.2127 28.2413 34.4482 28.3691 34.666C28.2413 34.4482 28.1291 34.2127 28.0332 33.959ZM30.7559 34.3418H30.7578H30.7559ZM30.0605 33.7949V33.793V33.7949ZM30.918 29.125C30.7385 29.1506 30.5773 29.2147 30.4336 29.3164C30.3879 29.3502 30.3435 29.3875 30.3008 29.4277C30.3436 29.3874 30.3878 29.3502 30.4336 29.3164C30.4817 29.2823 30.5318 29.2522 30.584 29.2266C30.7397 29.1504 30.9139 29.1113 31.1055 29.1113C31.0409 29.1113 30.9785 29.1162 30.918 29.125ZM28.7734 28.2637C28.7037 28.3421 28.6363 28.4245 28.5723 28.5117C28.6363 28.4245 28.7038 28.3421 28.7734 28.2637ZM33.3008 28.3438C33.25 28.2772 33.1948 28.2139 33.1367 28.1523C33.1948 28.2139 33.25 28.2772 33.3008 28.3438ZM29.0137 28.0234C28.9595 28.0727 28.9068 28.124 28.8555 28.1777C28.9068 28.124 28.9595 28.0728 29.0137 28.0234ZM33.0684 28.084C33.0236 28.0401 32.9765 27.9982 32.9277 27.957C32.9764 27.9982 33.0236 28.0401 33.0684 28.084ZM29.3145 27.7793C29.2327 27.8365 29.1546 27.8992 29.0781 27.9648C29.1545 27.8991 29.2326 27.8365 29.3145 27.7793ZM30.9609 27.2754C30.5891 27.2754 30.2423 27.3374 29.9199 27.459C30.2423 27.3376 30.5891 27.2754 30.9609 27.2754ZM32.377 27.5879C32.2922 27.541 32.2019 27.5012 32.1074 27.4648C32.2019 27.5012 32.2922 27.541 32.377 27.5879ZM32.0137 27.4316C31.9463 27.4089 31.8767 27.3888 31.8047 27.3711C31.8767 27.3888 31.9463 27.4089 32.0137 27.4316ZM23.998 12.4004C26.8503 12.4005 29.4321 13.5732 31.2812 15.459C31.8997 16.09 31.8906 17.1041 31.2598 17.7227C30.6288 18.3411 29.6147 18.33 28.9961 17.6992C27.724 16.402 25.9558 15.5997 23.998 15.5996C22.0402 15.5997 20.272 16.4019 19 17.6992C18.3817 18.33 17.3694 18.3405 16.7383 17.7227C16.1073 17.1041 16.0962 16.09 16.7148 15.459C18.5639 13.573 21.1457 12.4005 23.998 12.4004ZM23.998 4.30664C29.1956 4.30664 33.8902 6.4747 37.2207 9.95117C37.8673 10.6262 37.8447 11.6989 37.1699 12.3457C36.4949 12.9923 35.4221 12.9698 34.7754 12.2949C32.057 9.45717 28.235 7.69336 23.998 7.69336C19.7611 7.69337 15.9391 9.45717 13.2207 12.2949C12.5739 12.9697 11.5012 12.9923 10.8262 12.3457C10.1515 11.6989 10.1288 10.6262 10.7754 9.95117C14.1059 6.4747 18.8005 4.30665 23.998 4.30664Z" fill="#333333"/>
</svg>
