<svg width="48" height="48" viewBox="0 0 48 48" fill="none" xmlns="http://www.w3.org/2000/svg">
<path d="M30.998 23C32.1026 23 32.998 23.8954 32.998 25V31C32.998 32.1046 32.1026 33 30.998 33H24.998C23.8935 33 22.998 32.1046 22.998 31V25C22.998 23.8954 23.8935 23 24.998 23H30.998Z" fill="#333333"/>
<path d="M20.498 15C23.5023 15 25.939 17.4088 25.9922 20.4004H24.998C22.4575 20.4004 20.3984 22.4595 20.3984 25V25.9941C17.4069 25.941 14.998 23.5043 14.998 20.5C14.998 17.4624 17.4605 15 20.498 15Z" fill="#333333"/>
<path fill-rule="evenodd" clip-rule="evenodd" d="M37.498 4.40039C40.867 4.40039 43.5977 7.13106 43.5977 10.5C43.5977 13.3153 41.6905 15.684 39.0977 16.3867V31.6113C41.6907 32.3139 43.5977 34.6845 43.5977 37.5C43.5977 40.8689 40.867 43.5996 37.498 43.5996C34.6827 43.5996 32.3141 41.6924 31.6113 39.0996H16.3848C15.682 41.6924 13.3134 43.5996 10.498 43.5996C7.12911 43.5996 4.39844 40.8689 4.39844 37.5C4.39844 34.6845 6.30539 32.3139 8.89844 31.6113V16.3867C6.30564 15.684 4.39844 13.3153 4.39844 10.5C4.39844 7.13106 7.12911 4.40039 10.498 4.40039C13.3134 4.40039 15.682 6.30759 16.3848 8.90039H31.6113C32.3141 6.30759 34.6827 4.40039 37.498 4.40039ZM10.498 34.5996C8.89642 34.5996 7.59766 35.8984 7.59766 37.5C7.59766 39.1016 8.89642 40.4004 10.498 40.4004C12.0997 40.4004 13.3984 39.1016 13.3984 37.5C13.3984 35.8984 12.0997 34.5996 10.498 34.5996ZM37.498 34.5996C35.8964 34.5996 34.5977 35.8984 34.5977 37.5C34.5977 39.1016 35.8964 40.4004 37.498 40.4004C39.0997 40.4004 40.3984 39.1016 40.3984 37.5C40.3984 35.8984 39.0997 34.5996 37.498 34.5996ZM16.3848 12.0996C15.8202 14.1825 14.1806 15.8221 12.0977 16.3867V31.6113C14.1808 32.1758 15.8202 33.8173 16.3848 35.9004H31.6113C32.1759 33.8173 33.8153 32.1758 35.8984 31.6113V16.3867C33.8155 15.8221 32.1759 14.1825 31.6113 12.0996H16.3848ZM10.498 7.59961C8.89642 7.59961 7.59766 8.89837 7.59766 10.5C7.59766 12.1016 8.89642 13.4004 10.498 13.4004C12.0997 13.4004 13.3984 12.1016 13.3984 10.5C13.3984 8.89837 12.0997 7.59961 10.498 7.59961ZM37.498 7.59961C35.8964 7.59961 34.5977 8.89837 34.5977 10.5C34.5977 12.1016 35.8964 13.4004 37.498 13.4004C39.0997 13.4004 40.3984 12.1016 40.3984 10.5C40.3984 8.89837 39.0997 7.59961 37.498 7.59961Z" fill="#333333"/>
</svg>
