<svg width="48" height="48" viewBox="0 0 48 48" fill="none" xmlns="http://www.w3.org/2000/svg">
<path d="M5.99844 33.5992C5.11478 33.5992 4.39844 32.8829 4.39844 31.9992C4.39844 31.1156 5.11478 30.3992 5.99844 30.3992H14.3929C16.1105 30.3992 17.7144 29.5408 18.6672 28.1117C19.1573 27.3765 20.1507 27.1778 20.886 27.668C21.6212 28.1581 21.8199 29.1515 21.3297 29.8868C19.7835 32.2061 17.1804 33.5992 14.3929 33.5992H5.99844Z" fill="#333333"/>
<path d="M22.9036 24.7636C22.9943 24.9374 23.1185 25.097 23.275 25.2322L26.1413 28.8481C28.721 32.1025 32.6462 33.9998 36.799 33.9998H38.4724L35.8943 36.9462C35.3124 37.6112 35.3798 38.6221 36.0448 39.204C36.7098 39.7858 37.7207 39.7185 38.3026 39.0534L43.2026 33.4534C43.7304 32.8502 43.7304 31.9495 43.2026 31.3462L38.3026 25.7462C37.7207 25.0812 36.7098 25.0138 36.0448 25.5957C35.3798 26.1776 35.3124 27.1884 35.8943 27.8534L38.4724 30.7998H36.799C33.6233 30.7998 30.6217 29.3489 28.649 26.8603L26.3814 23.9996L28.649 21.139C30.6217 18.6504 33.6233 17.1994 36.799 17.1994H38.4724L35.8943 20.1458C35.3124 20.8108 35.3798 21.8217 36.0448 22.4036C36.7098 22.9855 37.7207 22.9181 38.3026 22.253L43.2026 16.653C43.7304 16.0498 43.7304 15.1491 43.2026 14.5458L38.3026 8.94583C37.7207 8.28081 36.7098 8.21342 36.0448 8.79531C35.3798 9.37721 35.3124 10.388 35.8943 11.053L38.4724 13.9994H36.799C32.6462 13.9994 28.721 15.8968 26.1413 19.1512L24.3397 21.424L22.8556 19.5517C20.2759 16.2974 16.3507 14.4 12.1979 14.4H5.99844C5.11478 14.4 4.39844 15.1164 4.39844 16C4.39844 16.8837 5.11478 17.6 5.99844 17.6H12.1979C15.3735 17.6 18.3752 19.051 20.3479 21.5396L22.9036 24.7636Z" fill="#333333"/>
</svg>
