<svg width="48" height="48" viewBox="0 0 48 48" fill="none" xmlns="http://www.w3.org/2000/svg">
<path d="M15.2369 16.1277C16.4304 12.3235 19.9179 9.60039 23.9997 9.60039C29.0477 9.60039 33.1906 13.7719 33.1997 18.9832L33.202 20.2887L34.4814 20.5484C37.0969 21.0794 39.2165 22.9953 40.0349 25.4977C40.3096 26.3376 41.2131 26.7958 42.053 26.5211C42.8929 26.2464 43.3511 25.3429 43.0764 24.503C42.0337 21.3148 39.5225 18.7929 36.338 17.7372C35.7153 11.3937 30.4528 6.40039 23.9997 6.40039C18.7394 6.40039 14.2678 9.7225 12.4599 14.3815C8.09498 16.0126 4.89491 20.0312 4.45212 24.8541C4.37133 25.7341 5.01918 26.5129 5.89914 26.5937C6.77909 26.6745 7.55793 26.0266 7.63872 25.1467C7.98613 21.3626 10.6302 18.2362 14.1672 17.1821L14.9823 16.9392L15.2369 16.1277Z" fill="#333333"/>
<path d="M42.9483 38.0508C43.1354 37.5622 43.229 36.9903 43.229 36.3352C43.229 35.8049 43.1562 35.3266 43.0106 34.9003C42.8755 34.474 42.6727 34.1101 42.4024 33.8086C42.1424 33.507 41.8149 33.2731 41.4198 33.1067C41.0351 32.9403 40.5932 32.8572 40.0941 32.8572C39.9797 32.8572 39.8393 32.8728 39.673 32.904C39.517 32.9352 39.3766 32.9767 39.2519 33.0287L39.3298 31.1259H41.7551C42.3538 31.1259 42.8391 30.6406 42.8391 30.042C42.8391 29.4433 42.3538 28.958 41.7551 28.958H38.7215C37.8944 28.958 37.2155 29.6121 37.1846 30.4386L37.0479 34.1024C37.0283 34.6287 37.5683 35.0159 38.0821 34.9003C38.5084 34.7963 38.8827 34.7444 39.2051 34.7444C39.6522 34.7444 40.0317 34.8795 40.3436 35.1499C40.666 35.4202 40.8271 35.8413 40.8271 36.4132C40.8271 36.8811 40.7283 37.2762 40.5308 37.5985C40.3436 37.9105 40.0577 38.0664 39.673 38.0664C39.3402 38.0664 39.0699 37.9365 38.8619 37.6765C38.5247 37.2328 37.986 36.8835 37.4542 37.0504L37.2776 37.1058C36.7252 37.2792 36.3731 37.8553 36.6185 38.3798C36.8417 38.8568 37.1476 39.2411 37.5362 39.5325C38.1601 40.0004 38.8931 40.2344 39.7353 40.2344C40.2136 40.2344 40.6659 40.1564 41.0923 40.0004C41.5186 39.8341 41.8877 39.5897 42.1996 39.2674C42.5219 38.9347 42.7715 38.5291 42.9483 38.0508Z" fill="#333333"/>
<path d="M35.501 38.7367C35.501 39.1318 35.3763 39.4645 35.1267 39.7349C34.8772 40.0052 34.56 40.1404 34.1753 40.1404C33.7802 40.1404 33.4579 40.0052 33.2083 39.7349C32.9692 39.4645 32.8496 39.1318 32.8496 38.7367C32.8496 38.352 32.9692 38.0192 33.2083 37.7385C33.4579 37.4578 33.7802 37.3174 34.1753 37.3174C34.56 37.3174 34.8772 37.4578 35.1267 37.7385C35.3763 38.0192 35.501 38.352 35.501 38.7367Z" fill="#333333"/>
<path d="M31.6112 33.0127C31.7047 32.7008 31.7515 32.3629 31.7515 31.9989C31.7515 31.4998 31.6735 31.0475 31.5176 30.642C31.3616 30.2365 31.1381 29.8934 30.8469 29.6126C30.5662 29.3319 30.2231 29.1135 29.8176 28.9576C29.412 28.8016 28.9545 28.7236 28.445 28.7236C27.4988 28.7236 26.7034 29.0044 26.0588 29.5659C25.6648 29.9082 25.3691 30.3609 25.1717 30.9239C24.9567 31.537 25.4508 32.1264 26.0977 32.1868L26.1284 32.1897C26.7524 32.2479 27.2193 31.7178 27.6184 31.2347C27.816 30.9851 28.0655 30.8604 28.3671 30.8604C28.6894 30.8604 28.9233 30.9747 29.0689 31.2035C29.2249 31.4322 29.3029 31.7078 29.3029 32.0301C29.3029 32.3317 29.2249 32.6488 29.0689 32.9815C28.9129 33.3038 28.6998 33.621 28.4294 33.9329L25.4722 37.3303C25.2168 37.6237 25.0762 37.9995 25.0762 38.3884C25.0762 39.2785 25.7977 40 26.6877 40H30.535C31.1293 40 31.6112 39.5182 31.6112 38.9238C31.6112 38.3295 31.1293 37.8477 30.535 37.8477H28.0395L30.0983 35.4614C30.3062 35.2222 30.509 34.9727 30.7066 34.7127C30.9041 34.4528 31.0809 34.1825 31.2368 33.9017C31.3928 33.621 31.5176 33.3246 31.6112 33.0127Z" fill="#333333"/>
<path d="M22.6048 40.0004C21.9269 40.0004 21.3797 39.4465 21.3881 38.7686L21.4665 32.4205H21.4041L19.7568 39.1479C19.6343 39.6484 19.1857 40.0004 18.6704 40.0004C18.1519 40.0004 17.7013 39.6441 17.5819 39.1395L15.992 32.4205H15.9452L16.0115 38.8639C16.018 39.4897 15.5125 40.0004 14.8867 40.0004C14.2654 40.0004 13.7617 39.4968 13.7617 38.8755V30.7272C13.7617 29.7501 14.5538 28.958 15.5309 28.958C16.3427 28.958 17.0504 29.5105 17.2473 30.2981L18.6903 36.0701H18.7526L20.1365 30.385C20.3404 29.5475 21.0906 28.958 21.9525 28.958C22.9848 28.958 23.8216 29.7948 23.8216 30.827V38.7836C23.8216 39.4557 23.2768 40.0004 22.6048 40.0004Z" fill="#333333"/>
<path fill-rule="evenodd" clip-rule="evenodd" d="M12.6151 34.0113C12.8022 33.5642 12.8958 33.0339 12.8958 32.4205C12.8958 31.7654 12.7918 31.2143 12.5839 30.7672C12.3863 30.3201 12.1212 29.9666 11.7884 29.7066C11.4661 29.4363 11.1022 29.2439 10.6967 29.1296C10.3016 29.0152 9.90645 28.958 9.51134 28.958H8.08008C6.97551 28.958 6.08008 29.8534 6.08008 30.958V38.7761C6.08008 39.4523 6.62823 40.0004 7.30441 40.0004C7.9806 40.0004 8.52875 39.4523 8.52875 38.7761V35.9765H9.60492C10.0104 35.9765 10.4107 35.9089 10.8059 35.7737C11.201 35.6282 11.5545 35.4098 11.8664 35.1187C12.1784 34.8275 12.4279 34.4584 12.6151 34.0113ZM10.1976 31.3911C10.4367 31.6094 10.5563 31.9682 10.5563 32.4673C10.5563 32.9455 10.4367 33.3147 10.1976 33.5746C9.95844 33.8242 9.6673 33.9489 9.32418 33.9489H8.52875V31.0636H9.32418C9.6673 31.0636 9.95844 31.1727 10.1976 31.3911Z" fill="#333333"/>
</svg>
