<svg width="48" height="48" viewBox="0 0 48 48" fill="none" xmlns="http://www.w3.org/2000/svg">
<path d="M35.6069 19.4815C35.5205 19.7983 35.3476 20 35.002 20C34.6562 20 34.4834 19.7983 34.397 19.4815L34.3601 19.2828C33.5046 14.669 33.4916 14.5991 28.5493 13.6049C28.2324 13.5474 28.002 13.3457 28.002 12.9999C28.002 12.6543 28.2324 12.4526 28.5493 12.395C33.3639 11.4267 33.3943 11.2821 34.2828 7.05956C34.3193 6.88643 34.3573 6.70572 34.397 6.51855C34.4834 6.20169 34.6562 6 35.002 6C35.3476 6 35.5205 6.20169 35.6069 6.51855L35.7062 6.98863C36.6113 11.2805 36.6409 11.4213 41.4546 12.395C41.8003 12.4526 42.002 12.6543 42.002 12.9999C42.002 13.3457 41.8003 13.5474 41.4546 13.6049C36.5227 14.5403 36.4993 14.6668 35.6492 19.2535L35.6069 19.4815Z" fill="#333333"/>
<path fill-rule="evenodd" clip-rule="evenodd" d="M18.2509 9.2533C18.7431 8.79752 19.36 8.59961 20.0016 8.59961C20.6431 8.59961 21.26 8.79758 21.7521 9.25323C22.2108 9.67799 22.4383 10.2142 22.5622 10.6684L22.5727 10.707L22.581 10.7462C22.6505 11.0739 22.7169 11.3888 22.7808 11.6916C23.1878 13.6208 23.4915 15.06 23.8301 16.2018C24.2167 17.5049 24.6015 18.2417 25.0917 18.7566C25.577 19.2664 26.2894 19.688 27.5881 20.1071C28.9011 20.5307 30.6637 20.9073 33.1639 21.4132C33.711 21.5088 34.2911 21.7431 34.7394 22.2259C35.2099 22.7327 35.4016 23.3689 35.4016 23.9995C35.4016 24.63 35.21 25.2664 34.7394 25.7732C34.2884 26.2589 33.7042 26.4931 33.1543 26.5874C30.6347 27.0654 28.8487 27.4219 27.5135 27.833C26.1921 28.2398 25.4663 28.6569 24.9764 29.1638C24.4848 29.6726 24.0996 30.4071 23.7298 31.7153C23.3767 32.9645 23.0773 34.5789 22.6654 36.8007L22.5774 37.275L22.5622 37.3308C22.4383 37.785 22.2108 38.3212 21.7521 38.746C21.26 39.2016 20.6431 39.3996 20.0016 39.3996C19.36 39.3996 18.7431 39.2017 18.2509 38.7459C17.7921 38.3211 17.5648 37.7848 17.441 37.3308L17.4257 37.275L17.3499 36.8661C16.9317 34.6116 16.63 32.9855 16.2739 31.7338C15.9049 30.437 15.5211 29.7138 15.0313 29.2119C14.5407 28.7091 13.8126 28.294 12.485 27.8802C11.1444 27.4623 9.35503 27.0919 6.83133 26.5842C6.30374 26.4859 5.74406 26.2494 5.3034 25.7923C4.83897 25.3107 4.60156 24.6803 4.60156 23.9995C4.60156 23.3186 4.83908 22.6884 5.3034 22.2068C5.74403 21.7498 6.30365 21.5132 6.83116 21.4149C9.35068 20.9081 11.123 20.5309 12.4401 20.1068C13.7412 19.6878 14.4498 19.2667 14.9305 18.7592C15.4167 18.2459 15.797 17.5107 16.1799 16.2058C16.5066 15.0923 16.8 13.6985 17.1905 11.8436L17.1911 11.8405C17.2644 11.4924 17.3411 11.128 17.4221 10.7462L17.4304 10.707L17.441 10.6684C17.5648 10.2144 17.7921 9.67814 18.2509 9.2533ZM20.0016 12.0828L19.9362 12.3935C19.5477 14.2411 19.2269 15.7662 18.8666 16.9941C18.4339 18.4691 17.8961 19.6999 16.9635 20.6846C16.0254 21.675 14.8149 22.2837 13.2983 22.772C11.9654 23.2013 10.283 23.5709 8.17747 23.9993C10.2818 24.4257 11.9744 24.7882 13.3182 25.207C14.8442 25.6826 16.0785 26.2758 17.0354 27.2564C17.9932 28.238 18.542 29.4737 18.967 30.9675C19.3322 32.2511 19.638 33.8513 20.0015 35.8087C20.3649 33.8501 20.6706 32.244 21.0354 30.9536C21.4595 29.4531 22.007 28.2072 22.9629 27.2181C23.9206 26.227 25.1573 25.6287 26.6895 25.1569C28.0304 24.7441 29.7143 24.3954 31.8051 23.9942C29.7221 23.5679 28.0535 23.1994 26.7283 22.7718C25.2148 22.2835 24.0043 21.6753 23.0637 20.6872C22.1279 19.7042 21.5838 18.4749 21.1458 16.9981C20.7723 15.7389 20.4416 14.17 20.0392 12.261L20.0016 12.0828Z" fill="#333333"/>
<path d="M35.002 42C35.3476 42 35.5205 41.7983 35.6069 41.4815C35.6212 41.4043 35.6353 41.3283 35.6492 41.2535C36.4993 36.6668 36.5227 36.5403 41.4546 35.6049C41.8003 35.5474 42.002 35.3457 42.002 34.9999C42.002 34.6543 41.8003 34.4526 41.4546 34.395C36.6409 33.4213 36.6113 33.2805 35.7062 28.9886C35.6743 28.8372 35.6413 28.6806 35.6069 28.5185C35.5205 28.2017 35.3476 28 35.002 28C34.6562 28 34.4834 28.2017 34.397 28.5185C34.3572 28.706 34.3193 28.8862 34.2828 29.0596C33.3943 33.2821 33.3639 33.4267 28.5493 34.395C28.2324 34.4526 28.002 34.6543 28.002 34.9999C28.002 35.3457 28.2324 35.5474 28.5493 35.6049C33.4916 36.5991 33.5046 36.669 34.3601 41.2828C34.3722 41.3481 34.3845 41.4143 34.397 41.4815C34.4834 41.7983 34.6562 42 35.002 42Z" fill="#333333"/>
</svg>
