<svg width="48" height="48" viewBox="0 0 48 48" fill="none" xmlns="http://www.w3.org/2000/svg">
<path fill-rule="evenodd" clip-rule="evenodd" d="M19.3991 10.0004C19.3991 7.45988 21.4586 5.40039 23.9991 5.40039C26.5396 5.40039 28.5991 7.45988 28.5991 10.0004V24.4004H31.383C33.6079 24.4004 35.6217 25.7175 36.5135 27.7558L41.2392 38.5574C42.2798 40.9359 40.5372 43.6004 37.941 43.6004H10.0571C7.46096 43.6004 5.71835 40.9359 6.75894 38.5574L11.4847 27.7558C12.3764 25.7175 14.3903 24.4004 16.6151 24.4004H19.3991V10.0004ZM23.9991 8.60039C23.2259 8.60039 22.5991 9.22719 22.5991 10.0004V25.0004C22.5991 26.4363 21.435 27.6004 19.9991 27.6004H16.6151C15.6616 27.6004 14.7985 28.1649 14.4164 29.0384L13.8205 30.4004H34.1776L33.5818 29.0384C33.1996 28.1649 32.3365 27.6004 31.383 27.6004H27.9991C26.5631 27.6004 25.3991 26.4363 25.3991 25.0004V10.0004C25.3991 9.22719 24.7723 8.60039 23.9991 8.60039ZM9.69064 39.8401L12.4205 33.6004H35.5776L38.3075 39.8401C38.4231 40.1043 38.2295 40.4004 37.941 40.4004H10.0571C9.76864 40.4004 9.57502 40.1043 9.69064 39.8401Z" fill="#333333"/>
<path d="M37 24C37.3456 24 37.5186 23.7983 37.605 23.4815C37.6193 23.4043 37.6334 23.3283 37.6472 23.2535C38.4973 18.6668 38.5208 18.5403 43.4527 17.6049C43.7983 17.5474 44 17.3457 44 16.9999C44 16.6543 43.7983 16.4526 43.4527 16.395C38.639 15.4213 38.6093 15.2805 37.7043 10.9886C37.6724 10.8372 37.6393 10.6806 37.605 10.5185C37.5186 10.2017 37.3456 10 37 10C36.6543 10 36.4814 10.2017 36.395 10.5185C36.3553 10.706 36.3174 10.8862 36.2809 11.0596C35.3924 15.2821 35.362 15.4267 30.5473 16.395C30.2305 16.4526 30 16.6543 30 16.9999C30 17.3457 30.2305 17.5474 30.5473 17.6049C35.4897 18.5991 35.5026 18.669 36.3582 23.2828C36.3703 23.3481 36.3826 23.4143 36.395 23.4815C36.4814 23.7983 36.6543 24 37 24Z" fill="#333333"/>
</svg>
