<svg width="48" height="48" viewBox="0 0 48 48" fill="none" xmlns="http://www.w3.org/2000/svg">
<path d="M21.5984 19.3158C21.5984 17.8161 22.8142 16.6004 24.3138 16.6004C25.8135 16.6004 27.0292 17.8161 27.0292 19.3158C27.0292 20.1003 26.6986 20.8051 26.1644 21.3029C26.087 21.375 26.0055 21.4503 25.9209 21.5285C25.3447 22.0608 24.6211 22.7293 24.0394 23.4644C23.359 24.3244 22.7138 25.4639 22.7138 26.8677V27.7111C22.7138 28.5947 23.4302 29.3111 24.3138 29.3111C25.1975 29.3111 25.9138 28.5947 25.9138 27.7111V26.8677C25.9138 26.484 26.0855 26.0357 26.5489 25.45C26.9639 24.9255 27.4853 24.4422 28.0777 23.8931C28.1656 23.8116 28.2551 23.7287 28.3461 23.6439C29.5026 22.5661 30.2292 21.0246 30.2292 19.3158C30.2292 16.0488 27.5808 13.4004 24.3138 13.4004C21.0468 13.4004 18.3984 16.0488 18.3984 19.3158C18.3984 20.1994 19.1148 20.9158 19.9984 20.9158C20.8821 20.9158 21.5984 20.1994 21.5984 19.3158Z" fill="#333333"/>
<path d="M22.3691 34C22.3691 35.1 23.2691 36 24.3691 36C25.4691 36 26.3691 35.1 26.3691 34C26.3691 32.9 25.4691 32 24.3691 32C23.2691 32 22.3691 32.9 22.3691 34Z" fill="#333333"/>
<path fill-rule="evenodd" clip-rule="evenodd" d="M23.9984 4.40039C13.1737 4.40039 4.39844 13.1756 4.39844 24.0004C4.39844 34.8252 13.1737 43.6004 23.9984 43.6004C34.8232 43.6004 43.5984 34.8252 43.5984 24.0004C43.5984 13.1756 34.8232 4.40039 23.9984 4.40039ZM7.59844 24.0004C7.59844 14.9429 14.941 7.60039 23.9984 7.60039C33.0559 7.60039 40.3984 14.9429 40.3984 24.0004C40.3984 33.0579 33.0559 40.4004 23.9984 40.4004C14.941 40.4004 7.59844 33.0579 7.59844 24.0004Z" fill="#333333"/>
</svg>
