<svg width="48" height="48" viewBox="0 0 48 48" fill="none" xmlns="http://www.w3.org/2000/svg">
<path fill-rule="evenodd" clip-rule="evenodd" d="M35.998 6.40039C39.0908 6.40039 41.5977 8.90721 41.5977 12V36C41.5977 39.0928 39.0908 41.5996 35.998 41.5996H11.998C8.90525 41.5996 6.39844 39.0928 6.39844 36V12C6.39844 8.90721 8.90525 6.40039 11.998 6.40039H35.998ZM9.59766 36C9.59766 37.3255 10.6726 38.4004 11.998 38.4004H22.6973V25.3008H9.59766V36ZM25.2988 28.0449H26.3965C27.1145 28.0449 27.6973 28.6277 27.6973 29.3457C27.6973 30.0637 27.1145 30.6465 26.3965 30.6465H25.2988V33.377H26.3965C27.1145 33.377 27.6973 33.9617 27.6973 34.6797C27.6967 35.3972 27.1141 35.9785 26.3965 35.9785H25.2988V38.4004H35.998C37.3235 38.4004 38.3984 37.3255 38.3984 36V25.3008H25.2988V28.0449ZM11.998 9.59961C10.6726 9.59961 9.59766 10.6745 9.59766 12V22.6992H12.0332V21.5996C12.0332 20.8816 12.616 20.2988 13.334 20.2988C14.052 20.2988 14.6348 20.8816 14.6348 21.5996V22.6992H17.3613V21.5996C17.3613 20.8816 17.9441 20.2988 18.6621 20.2988C19.3801 20.2988 19.9629 20.8816 19.9629 21.5996V22.6992H22.6973V9.59961H11.998ZM25.2988 12.0449H26.3965C27.1145 12.0449 27.6973 12.6277 27.6973 13.3457C27.6973 14.0637 27.1145 14.6465 26.3965 14.6465H25.2988V17.377H26.3965C27.1145 17.377 27.6973 17.9617 27.6973 18.6797C27.6967 19.3972 27.1141 19.9785 26.3965 19.9785H25.2988V22.6992H28.0332V21.5996C28.0332 20.8816 28.616 20.2988 29.334 20.2988C30.052 20.2988 30.6348 20.8816 30.6348 21.5996V22.6992H33.3613V21.5996C33.3613 20.8816 33.9441 20.2988 34.6621 20.2988C35.3801 20.2988 35.9629 20.8816 35.9629 21.5996V22.6992H38.3984V12C38.3984 10.6745 37.3235 9.59961 35.998 9.59961H25.2988V12.0449Z" fill="#333333"/>
</svg>
