<svg width="48" height="48" viewBox="0 0 48 48" fill="none" xmlns="http://www.w3.org/2000/svg">
<path d="M28.3026 19.9468C27.7207 19.2818 26.7098 19.2144 26.0448 19.7963C25.3798 20.3782 25.3124 21.389 25.8943 22.054L28.4724 25.0004H16.9984C16.1148 25.0004 15.3984 25.7168 15.3984 26.6004C15.3984 27.4841 16.1148 28.2004 16.9984 28.2004H28.4724L25.8943 31.1468C25.3124 31.8118 25.3798 32.8226 26.0448 33.4045C26.7098 33.9864 27.7207 33.919 28.3026 33.254L33.2026 27.654C33.7304 27.0508 33.7304 26.15 33.2026 25.5468L28.3026 19.9468Z" fill="#333333"/>
<path fill-rule="evenodd" clip-rule="evenodd" d="M9.99844 8.40039C6.90564 8.40039 4.39844 10.9076 4.39844 14.0004V34.0004C4.39844 37.0932 6.90564 39.6004 9.99844 39.6004H37.9984C41.0912 39.6004 43.5984 37.0932 43.5984 34.0004V20.0004C43.5984 16.9076 41.0912 14.4004 37.9984 14.4004H25.6612L21.3014 10.0406C20.2512 8.99039 18.8268 8.40039 17.3416 8.40039H9.99844ZM7.59844 14.0004C7.59844 12.6749 8.67295 11.6004 9.99844 11.6004H17.3416C17.9781 11.6004 18.5886 11.8532 19.0386 12.3033L23.5742 16.8389C24.0618 17.3265 24.7231 17.6004 25.4127 17.6004H37.9984C39.3239 17.6004 40.3984 18.6749 40.3984 20.0004V34.0004C40.3984 35.3259 39.3239 36.4004 37.9984 36.4004H9.99844C8.67295 36.4004 7.59844 35.3259 7.59844 34.0004V14.0004Z" fill="#333333"/>
</svg>
