<svg width="48" height="48" viewBox="0 0 48 48" fill="none" xmlns="http://www.w3.org/2000/svg">
<path fill-rule="evenodd" clip-rule="evenodd" d="M17.9984 6.40039C18.8821 6.40039 19.5984 7.11674 19.5984 8.00039V10.4004H28.3984V8.00039C28.3984 7.11674 29.1148 6.40039 29.9984 6.40039C30.8821 6.40039 31.5984 7.11674 31.5984 8.00039V10.4004H35.9984C39.0912 10.4004 41.5984 12.9076 41.5984 16.0004V24L38.3984 23.6004V21.6004H9.59844V36.0004C9.59844 37.3259 10.673 38.4004 11.9984 38.4004H21.5984L22.998 41.6004H11.9984C8.90564 41.6004 6.39844 39.0932 6.39844 36.0004V16.0004C6.39844 12.9076 8.90564 10.4004 11.9984 10.4004H16.3984V8.00039C16.3984 7.11674 17.1148 6.40039 17.9984 6.40039ZM16.3984 13.6004H11.9984C10.673 13.6004 9.59844 14.6749 9.59844 16.0004V18.4004H38.3984V16.0004C38.3984 14.6749 37.3239 13.6004 35.9984 13.6004H31.5984V15.0004C31.5984 15.884 30.8821 16.6004 29.9984 16.6004C29.1148 16.6004 28.3984 15.884 28.3984 15.0004V13.6004H19.5984V15.0004C19.5984 15.884 18.8821 16.6004 17.9984 16.6004C17.1148 16.6004 16.3984 15.884 16.3984 15.0004V13.6004Z" fill="#333333"/>
<path d="M28.1661 28.4093C28.9063 28.892 29.1151 29.8833 28.6325 30.6235C27.9786 31.6264 27.5984 32.823 27.5984 34.1132C27.5984 37.6479 30.4638 40.5132 33.9984 40.5132C37.5331 40.5132 40.3984 37.6479 40.3984 34.1132C40.3984 32.823 40.0183 31.6264 39.3644 30.6235C38.8818 29.8833 39.0906 28.892 39.8308 28.4093C40.571 27.9267 41.5623 28.1355 42.0449 28.8757C43.0275 30.3827 43.5984 32.1837 43.5984 34.1132C43.5984 39.4152 39.3004 43.7132 33.9984 43.7132C28.6965 43.7132 24.3984 39.4152 24.3984 34.1132C24.3984 32.1837 24.9694 30.3827 25.9519 28.8757C26.4346 28.1355 27.4259 27.9267 28.1661 28.4093Z" fill="#333333"/>
<path d="M33.9984 23.7871C34.8821 23.7871 35.5984 24.5035 35.5984 25.3871V34.6598C35.5984 35.5435 34.8821 36.2598 33.9984 36.2598C33.1148 36.2598 32.3984 35.5435 32.3984 34.6598V25.3871C32.3984 24.5035 33.1148 23.7871 33.9984 23.7871Z" fill="#333333"/>
<path d="M17.998 29C16.898 29 15.998 28.1 15.998 27C15.998 25.9 16.898 25 17.998 25C19.098 25 19.998 25.9 19.998 27C19.998 28.1 19.098 29 17.998 29Z" fill="#333333"/>
<path d="M17.998 35C16.898 35 15.998 34.1 15.998 33C15.998 31.9 16.898 31 17.998 31C19.098 31 19.998 31.9 19.998 33C19.998 34.1 19.098 35 17.998 35Z" fill="#333333"/>
</svg>
