<svg width="48" height="48" viewBox="0 0 48 48" fill="none" xmlns="http://www.w3.org/2000/svg">
<path fill-rule="evenodd" clip-rule="evenodd" d="M13.9984 7.60039C12.673 7.60039 11.5984 8.67491 11.5984 10.0004V34.0004C11.5984 35.3259 12.673 36.4004 13.9984 36.4004H21.6267C21.8442 37.5278 22.2119 38.6017 22.7082 39.6004H13.9984C10.9056 39.6004 8.39844 37.0932 8.39844 34.0004V10.0004C8.39844 6.9076 10.9056 4.40039 13.9984 4.40039H25.9984C26.4228 4.40039 26.8298 4.56896 27.1298 4.86902L36.0187 13.7579C36.3188 14.058 36.4873 14.4649 36.4873 14.8893V21.6462C35.6827 21.485 34.8505 21.4004 33.9984 21.4004C33.7598 21.4004 33.5227 21.407 33.2873 21.4201V16.4893H26.8873C25.5128 16.4893 24.3984 15.375 24.3984 14.0004V7.60039H13.9984ZM27.5984 9.86313L31.0246 13.2893H27.5984V9.86313Z" fill="#333333"/>
<path fill-rule="evenodd" clip-rule="evenodd" d="M33.998 44C39.5209 44 43.998 39.5229 43.998 34C43.998 28.4772 39.5209 24 33.998 24C28.4752 24 23.998 28.4772 23.998 34C23.998 39.5229 28.4752 44 33.998 44ZM35.4978 29C35.4978 28.1716 34.8262 27.5 33.9978 27.5C33.1694 27.5 32.4978 28.1716 32.4978 29V32.4998H28.998C28.1696 32.4998 27.498 33.1713 27.498 33.9998C27.498 34.8282 28.1696 35.4998 28.998 35.4998H32.4978V39C32.4978 39.8284 33.1694 40.5 33.9978 40.5C34.8262 40.5 35.4978 39.8284 35.4978 39V35.4998H38.998C39.8265 35.4998 40.498 34.8282 40.498 33.9998C40.498 33.1713 39.8265 32.4998 38.998 32.4998H35.4978V29Z" fill="#333333"/>
</svg>
