<svg width="48" height="48" viewBox="0 0 48 48" fill="none" xmlns="http://www.w3.org/2000/svg">
<path fill-rule="evenodd" clip-rule="evenodd" d="M20.4457 4.30078C16.0703 4.30078 12.5234 7.84768 12.5234 12.223C12.5234 16.5983 16.0703 20.1452 20.4457 20.1452C24.821 20.1452 28.3679 16.5983 28.3679 12.223C28.3679 7.84768 24.821 4.30078 20.4457 4.30078ZM15.9234 12.223C15.9234 9.72545 17.9481 7.70078 20.4457 7.70078C22.9432 7.70078 24.9679 9.72545 24.9679 12.223C24.9679 14.7206 22.9432 16.7452 20.4457 16.7452C17.9481 16.7452 15.9234 14.7206 15.9234 12.223Z" fill="#333333"/>
<path d="M12.4898 27.3371C14.1509 26.3879 16.4334 25.7077 19.0464 25.5263C20.533 24.2123 22.2397 23.1381 24.1042 22.3666C22.935 22.1779 21.708 22.0781 20.4457 22.0781C16.7684 22.0781 13.3555 22.9264 10.8029 24.3851C8.29845 25.8162 6.30129 28.0524 6.30129 30.8892L6.30104 31.0928C6.29775 32.8962 6.29313 35.4237 8.4732 37.2272C9.54449 38.1135 11.009 38.7159 12.9089 39.1066C14.8154 39.4987 17.2752 39.7003 20.4457 39.7003C21.7877 39.7003 23.0028 39.6642 24.103 39.5927C23.5106 39.4633 22.9333 39.2173 22.4049 38.8487C21.4852 38.2072 20.8628 37.2984 20.5693 36.3002L20.4457 36.3003C17.394 36.3003 15.1872 36.104 13.5937 35.7763C11.9936 35.4472 11.1248 35.0082 10.6405 34.6075C9.79278 33.9062 9.70129 33.0035 9.70129 30.8892C9.70129 29.7992 10.4901 28.4798 12.4898 27.3371Z" fill="#333333"/>
<path d="M22.2751 31.4546C24.3993 29.0183 27.5203 27.4832 31.0019 27.4832C34.4834 27.4832 37.6044 29.0183 39.7286 31.4546C40.3605 32.1793 41.4604 32.2546 42.1851 31.6226C42.9099 30.9907 42.9851 29.8909 42.3532 29.1661C39.5958 26.0037 35.5317 24.001 31.0019 24.001C26.472 24.001 22.4079 26.0037 19.6505 29.1661C19.0186 29.8909 19.0938 30.9907 19.8186 31.6226C20.5433 32.2546 21.6432 32.1793 22.2751 31.4546Z" fill="#333333"/>
<path d="M31.0014 33.6287C29.1583 33.6287 27.5291 34.5457 26.5453 35.9562C25.9951 36.7449 24.9098 36.9383 24.1211 36.3881C23.3325 35.838 23.1391 34.7527 23.6892 33.964C25.2964 31.6599 27.972 30.1465 31.0014 30.1465C34.0308 30.1465 36.7065 31.6599 38.3137 33.964C38.8638 34.7527 38.6704 35.838 37.8817 36.3881C37.0931 36.9383 36.0078 36.7449 35.4576 35.9562C34.4738 34.5457 32.8446 33.6287 31.0014 33.6287Z" fill="#333333"/>
<path d="M34.2002 39.001C34.2002 40.6578 32.857 42.001 31.2002 42.001C29.5433 42.001 28.2002 40.6578 28.2002 39.001C28.2002 37.3441 29.5433 36.001 31.2002 36.001C32.857 36.001 34.2002 37.3441 34.2002 39.001Z" fill="#333333"/>
</svg>
