<svg width="48" height="48" viewBox="0 0 48 48" fill="none" xmlns="http://www.w3.org/2000/svg">
<path fill-rule="evenodd" clip-rule="evenodd" d="M31.3969 37.0004V35.6612L28.5988 32.8631V36.9994C28.5988 38.4354 27.4348 39.5994 25.9988 39.5994H20.9988C19.5629 39.5994 18.3988 38.4354 18.3988 36.9994V22.9994C18.3988 22.8921 18.4053 22.7862 18.418 22.6823L8.86707 13.1314C8.24223 12.5065 8.24223 11.4935 8.86707 10.8686C9.49191 10.2438 10.505 10.2438 11.1298 10.8686L39.1298 38.8686C39.7546 39.4935 39.7546 40.5065 39.1298 41.1314C38.505 41.7562 37.4919 41.7562 36.8671 41.1314L35.3361 39.6004H33.9969C32.5609 39.6004 31.3969 38.4363 31.3969 37.0004ZM25.3988 36.3994V29.6631L21.5988 25.8631V36.3994H25.3988Z" fill="#333333"/>
<path d="M38.3969 11.6004V34.1337L41.578 37.3149C41.5905 37.2118 41.5969 37.1068 41.5969 37.0004V11.0004C41.5969 9.56445 40.4328 8.40039 38.9969 8.40039H33.9969C32.5609 8.40039 31.3969 9.56445 31.3969 11.0004V27.1337L34.5969 30.3337V11.6004H38.3969Z" fill="#333333"/>
<path d="M28.5988 22.9994V24.6185L24.3797 20.3994H25.9988C27.4348 20.3994 28.5988 21.5635 28.5988 22.9994Z" fill="#333333"/>
<path fill-rule="evenodd" clip-rule="evenodd" d="M7.99844 28.4C6.5625 28.4 5.39844 29.5641 5.39844 31V37C5.39844 38.4359 6.5625 39.6 7.99844 39.6H12.9984C14.4344 39.6 15.5984 38.4359 15.5984 37V31C15.5984 29.5641 14.4344 28.4 12.9984 28.4H7.99844ZM8.59844 36.4V31.6H12.3984V36.4H8.59844Z" fill="#333333"/>
</svg>
