<svg width="48" height="48" viewBox="0 0 48 48" fill="none" xmlns="http://www.w3.org/2000/svg">
<path d="M17.576 29.7729C17.0086 30.9483 15.7863 31.5331 14.8459 31.0792C13.9056 30.6252 13.6033 29.3043 14.1708 28.1289C14.7382 26.9535 15.9605 26.3686 16.9009 26.8226C17.8412 27.2765 18.1435 28.5974 17.576 29.7729Z" fill="#333333"/>
<path d="M33.3513 31.0792C32.411 31.5331 31.1887 30.9483 30.6212 29.7729C30.0538 28.5974 30.356 27.2765 31.2964 26.8226C32.2367 26.3686 33.459 26.9535 34.0265 28.1289C34.594 29.3043 34.2917 30.6252 33.3513 31.0792Z" fill="#333333"/>
<path fill-rule="evenodd" clip-rule="evenodd" d="M36.1369 12.617C36.901 13.0608 37.1608 14.04 36.717 14.8041L33.8381 19.7617C38.5778 22.8718 41.7584 28.1739 41.9242 34.2514L41.9466 35.0746C41.9754 36.1297 41.1279 37.0006 40.0724 37.0006H7.98056C6.90161 37.0006 6.04143 36.0991 6.09196 35.0214L6.14448 33.9011C6.42828 27.8476 9.69522 22.6126 14.4843 19.5903L11.7049 14.8041C11.2611 14.04 11.5208 13.0608 12.285 12.617C13.0491 12.1733 14.0283 12.433 14.4721 13.1972L17.3365 18.1298C19.4063 17.2951 21.6655 16.8365 24.0278 16.8365C26.5046 16.8365 28.8663 17.3402 31.0146 18.2517L33.9498 13.1972C34.3935 12.433 35.3727 12.1733 36.1369 12.617ZM38.701 33.8006C38.2125 26.0937 31.8117 20.0365 24.0278 20.0365C16.2591 20.0365 9.8468 26.0761 9.35481 33.8006H38.701Z" fill="#333333"/>
</svg>
