<svg width="48" height="48" viewBox="0 0 48 48" fill="none" xmlns="http://www.w3.org/2000/svg">
<path d="M23.8873 9.60039C31.9122 9.60039 38.3987 16.0579 38.3987 24.0004C38.3987 31.9428 31.9122 38.4004 23.8873 38.4004C16.6899 38.4004 10.7255 33.2028 9.57634 26.4005C9.42914 25.5292 8.60348 24.9422 7.73217 25.0894C6.86086 25.2366 6.27385 26.0623 6.42105 26.9336C7.82866 35.2658 15.1184 41.6004 23.8873 41.6004C33.6586 41.6004 41.5987 33.731 41.5987 24.0004C41.5987 14.2697 33.6586 6.40039 23.8873 6.40039C18.0233 6.40039 12.8226 9.23278 9.5987 13.599V8.00039C9.5987 7.11673 8.88235 6.40039 7.9987 6.40039C7.11504 6.40039 6.39869 7.11673 6.39869 8.00039V18.0004C6.39869 18.884 7.11504 19.6004 7.9987 19.6004H15.9987C16.8824 19.6004 17.5987 18.884 17.5987 18.0004C17.5987 17.1167 16.8824 16.4004 15.9987 16.4004H11.5589C14.1194 12.3195 18.682 9.60039 23.8873 9.60039Z" fill="#333333"/>
<path fill-rule="evenodd" clip-rule="evenodd" d="M20.7183 30.1619C21.599 30.7585 22.6501 31.0592 23.8717 31.0639C25.0933 31.0639 26.1421 30.7656 27.018 30.169C27.894 29.5724 28.5663 28.7083 29.035 27.5767C29.5085 26.4451 29.7453 25.0814 29.7453 23.4858C29.75 21.8996 29.5156 20.5502 29.0422 19.4375C28.5687 18.3201 27.8916 17.4678 27.0109 16.8807C26.135 16.2936 25.0886 16 23.8717 16C22.6548 16 21.6061 16.2936 20.7254 16.8807C19.8494 17.4631 19.1747 18.313 18.7012 19.4304C18.2325 20.5478 17.9981 21.8996 17.9981 23.4858C17.9934 25.0767 18.2254 26.438 18.6941 27.5696C19.1676 28.7012 19.8423 29.5653 20.7183 30.1619ZM25.8674 27.2571C25.3703 28.0952 24.705 28.5142 23.8717 28.5142C23.3177 28.5142 22.8348 28.3295 22.4228 27.9602C22.0109 27.5862 21.6913 27.0275 21.464 26.2841C21.2415 25.536 21.1302 24.6032 21.1302 23.4858C21.135 21.8333 21.3859 20.5928 21.8831 19.7642C22.3802 18.9356 23.0431 18.5213 23.8717 18.5213C24.4257 18.5213 24.9063 18.706 25.3135 19.0753C25.7254 19.4446 26.0426 19.9962 26.2652 20.7301C26.4924 21.464 26.6061 22.3826 26.6061 23.4858C26.6108 25.1619 26.3646 26.419 25.8674 27.2571Z" fill="#333333"/>
</svg>
