<svg width="48" height="48" viewBox="0 0 48 48" fill="none" xmlns="http://www.w3.org/2000/svg">
<path fill-rule="evenodd" clip-rule="evenodd" d="M31.5977 36C31.5977 39.0928 29.0908 41.5996 25.998 41.5996H11.998C8.90525 41.5996 6.39844 39.0928 6.39844 36V22C6.39844 18.9072 8.90525 16.4004 11.998 16.4004H16.3984V12C16.3984 8.90721 18.9053 6.40039 21.998 6.40039H35.998C39.0908 6.40039 41.5977 8.90721 41.5977 12V26C41.5977 29.0928 39.0908 31.5996 35.998 31.5996H31.5977V36ZM21.998 31.5996C18.9053 31.5996 16.3984 29.0928 16.3984 26V19.5996H11.998C10.6726 19.5996 9.59766 20.6745 9.59766 22V36C9.59766 37.3255 10.6726 38.4004 11.998 38.4004H25.998C27.3235 38.4004 28.3984 37.3255 28.3984 36V31.5996H21.998Z" fill="#333333"/>
</svg>
