<svg width="48" height="48" viewBox="0 0 48 48" fill="none" xmlns="http://www.w3.org/2000/svg">
<path fill-rule="evenodd" clip-rule="evenodd" d="M20.7005 6C16.1717 6 12.5005 9.67126 12.5005 14.2C12.5005 18.7287 16.1717 22.4 20.7005 22.4C25.2292 22.4 28.9005 18.7287 28.9005 14.2C28.9005 9.67126 25.2292 6 20.7005 6ZM15.9005 14.2C15.9005 11.549 18.0495 9.4 20.7005 9.4C23.3515 9.4 25.5005 11.549 25.5005 14.2C25.5005 16.851 23.3515 19 20.7005 19C18.0495 19 15.9005 16.851 15.9005 14.2Z" fill="#333333"/>
<path fill-rule="evenodd" clip-rule="evenodd" d="M20.7005 24.5713C16.8698 24.5713 13.318 25.4551 10.6648 26.9712C8.05983 28.4598 6.00048 30.7753 6.00048 33.6999L6.00025 33.9073C5.99704 35.795 5.99261 38.4015 8.24184 40.2623C9.34785 41.1773 10.8645 41.803 12.8424 42.2097C14.8271 42.6179 17.3911 42.8284 20.7005 42.8284C24.0099 42.8284 26.5739 42.6179 28.5585 42.2097C30.5365 41.803 32.0531 41.1773 33.1591 40.2623C35.4084 38.4015 35.4039 35.795 35.4007 33.9073L35.4005 33.6999C35.4005 30.7753 33.3411 28.4598 30.7362 26.9712C28.083 25.4551 24.5312 24.5713 20.7005 24.5713ZM9.40048 33.6999C9.40048 32.5222 10.2515 31.1234 12.3517 29.9232C14.4037 28.7506 17.3519 27.9713 20.7005 27.9713C24.049 27.9713 26.9972 28.7506 29.0493 29.9232C31.1495 31.1234 32.0005 32.5222 32.0005 33.6999C32.0005 35.9018 31.909 36.8839 30.9918 37.6426C30.4728 38.072 29.552 38.5343 27.8737 38.8794C26.2021 39.2232 23.8911 39.4284 20.7005 39.4284C17.5099 39.4284 15.1989 39.2232 13.5273 38.8794C11.849 38.5343 10.9281 38.072 10.4091 37.6426C9.49197 36.8839 9.40048 35.9018 9.40048 33.6999Z" fill="#333333"/>
<path d="M31.4504 21.3659C30.6311 21.3659 29.844 21.2284 29.1108 20.9753C29.7246 20.2142 30.2372 19.368 30.6282 18.4573C30.8944 18.5084 31.1693 18.5352 31.4504 18.5352C33.8443 18.5352 35.785 16.5945 35.785 14.2005C35.785 11.8066 33.8443 9.86593 31.4504 9.86593C31.1693 9.86593 30.8945 9.89268 30.6283 9.94377C30.2374 9.03303 29.7248 8.18687 29.111 7.42574C29.8441 7.17262 30.6312 7.03516 31.4504 7.03516C35.4077 7.03516 38.6158 10.2432 38.6158 14.2005C38.6158 18.1579 35.4077 21.3659 31.4504 21.3659Z" fill="#333333"/>
<path d="M33.5649 25.7209C34.7737 26.622 35.8933 27.7496 36.7051 29.0998C37.8063 29.3972 38.7879 29.7961 39.6103 30.266C41.4904 31.3404 42.2784 32.6077 42.2784 33.7002C42.2784 35.6496 42.2019 36.5683 41.3496 37.2734C40.873 37.6677 40.0388 38.0829 38.5392 38.3913C38.1873 38.4637 37.804 38.5291 37.3865 38.5869C37.0204 39.6197 36.437 40.6723 35.5083 41.6275C36.9026 41.5376 38.0942 41.3868 39.1121 41.1775C40.8625 40.8175 42.195 40.2657 43.1628 39.465C45.1292 37.8383 45.1257 35.5609 45.1231 33.8783L45.1229 33.7002C45.1229 31.1463 43.3239 29.112 41.0216 27.7964C39.0096 26.6466 36.4084 25.9069 33.5649 25.7209Z" fill="#333333"/>
</svg>
