<svg width="48" height="48" viewBox="0 0 48 48" fill="none" xmlns="http://www.w3.org/2000/svg">
<path d="M33.8203 8.73014C34.4316 8.09281 35.4441 8.07053 36.082 8.68131C40.097 12.5275 42.5996 17.949 42.5996 23.9508C42.5994 29.9524 40.0968 35.3724 36.082 39.2184C35.4441 39.8295 34.4316 39.8072 33.8203 39.1696C33.2093 38.5317 33.2298 37.5192 33.8672 36.9079C37.2781 33.6404 39.4002 29.0443 39.4004 23.9508C39.4004 18.8571 37.2782 14.2615 33.8672 10.9938C33.2292 10.3826 33.2091 9.36824 33.8203 8.73014Z" fill="#333333"/>
<path fill-rule="evenodd" clip-rule="evenodd" d="M22.6602 9.53483C23.1104 9.13473 23.7532 9.03617 24.3027 9.28287C24.8521 9.52957 25.2067 10.0753 25.207 10.6774V37.318L25.1895 37.5407C25.1143 38.0523 24.7837 38.4985 24.3027 38.7145L24.0938 38.7907C23.6673 38.9117 23.2085 38.8404 22.8379 38.5973L22.6602 38.4626L15.582 32.1715C15.2031 31.8349 14.7139 31.6481 14.207 31.6481H9.40625L8.99805 31.6266C6.98071 31.4221 5.40625 29.7194 5.40625 27.6481V20.3473C5.4068 18.1387 7.19745 16.3473 9.40625 16.3473H14.207C14.6505 16.3473 15.0812 16.2061 15.4355 15.945L15.582 15.8258L22.6602 9.53483ZM17.709 18.2165C16.7443 19.074 15.4977 19.5485 14.207 19.5485H9.40625C8.96476 19.5485 8.60602 19.906 8.60547 20.3473V27.6481C8.60547 28.0899 8.96442 28.4489 9.40625 28.4489H14.207C15.3363 28.4489 16.4316 28.8112 17.334 29.4762L17.709 29.779L22.0059 33.5973V14.3962L17.709 18.2165Z" fill="#333333"/>
<path d="M28.7559 15.4489C29.3743 14.818 30.3865 14.8073 31.0176 15.4255C33.2257 17.5903 34.5994 20.6118 34.5996 23.9508C34.5994 27.2901 33.2259 30.3134 31.0176 32.4782C30.3866 33.0957 29.3741 33.0851 28.7559 32.4548C28.1377 31.8241 28.1474 30.8117 28.7773 30.193C30.397 28.6053 31.4002 26.3956 31.4004 23.9508C31.4002 21.5063 30.3968 19.2984 28.7773 17.7106C28.147 17.0922 28.1381 16.0798 28.7559 15.4489Z" fill="#333333"/>
</svg>
