<svg width="48" height="48" viewBox="0 0 48 48" fill="none" xmlns="http://www.w3.org/2000/svg">
<path d="M13.2199 12.2945C15.9383 9.45677 19.7605 7.69318 23.9975 7.69318C28.2344 7.69318 32.0566 9.45677 34.7751 12.2945C35.4218 12.9696 36.4934 12.9927 37.1685 12.3459C37.8436 11.6992 37.8666 10.6277 37.2199 9.95254C33.8894 6.47583 29.1952 4.30762 23.9975 4.30762C18.7997 4.30762 14.1056 6.47583 10.7751 9.95254C10.1283 10.6277 10.1514 11.6992 10.8265 12.3459C11.5016 12.9927 12.5732 12.9696 13.2199 12.2945Z" fill="#333333"/>
<path d="M21.998 36C21.998 37.1 22.898 38 23.998 38C25.098 38 25.998 37.1 25.998 36C25.998 34.9 25.098 34 23.998 34C22.898 34 21.998 34.9 21.998 36Z" fill="#333333"/>
<path fill-rule="evenodd" clip-rule="evenodd" d="M17.9984 20.4004C14.9056 20.4004 12.3984 22.9076 12.3984 26.0004V38.0004C12.3984 41.0932 14.9056 43.6004 17.9984 43.6004H29.9984C33.0912 43.6004 35.5984 41.0932 35.5984 38.0004V26.0004C35.5984 22.9076 33.0912 20.4004 29.9984 20.4004H17.9984ZM15.5984 26.0004C15.5984 24.6749 16.673 23.6004 17.9984 23.6004H29.9984C31.3239 23.6004 32.3984 24.6749 32.3984 26.0004V38.0004C32.3984 39.3259 31.3239 40.4004 29.9984 40.4004H17.9984C16.673 40.4004 15.5984 39.3259 15.5984 38.0004V26.0004Z" fill="#333333"/>
<path d="M23.9989 15.6004C22.0406 15.6004 20.2725 16.4025 19.0004 17.7002C18.3818 18.3313 17.3688 18.3413 16.7377 17.7227C16.1067 17.1041 16.0967 16.0911 16.7153 15.4601C18.5645 13.5737 21.1461 12.4004 23.9989 12.4004C26.8517 12.4004 29.4334 13.5737 31.2826 15.4601C31.9012 16.0911 31.8911 17.1041 31.2601 17.7227C30.6291 18.3413 29.6161 18.3313 28.9975 17.7002C27.7253 16.4025 25.9572 15.6004 23.9989 15.6004Z" fill="#333333"/>
</svg>
