<svg width="48" height="48" viewBox="0 0 48 48" fill="none" xmlns="http://www.w3.org/2000/svg">
<path d="M21.9984 34.3996C21.1148 34.3996 20.3984 35.116 20.3984 35.9996C20.3984 36.8833 21.1148 37.5996 21.9984 37.5996H25.9984C26.8821 37.5996 27.5984 36.8833 27.5984 35.9996C27.5984 35.116 26.8821 34.3996 25.9984 34.3996H21.9984Z" fill="#333333"/>
<path fill-rule="evenodd" clip-rule="evenodd" d="M12.9984 4.40039C9.90564 4.40039 7.39844 6.9076 7.39844 10.0004V38.0004C7.39844 41.0932 9.90564 43.6004 12.9984 43.6004H34.9984C38.0912 43.6004 40.5984 41.0932 40.5984 38.0004V10.0004C40.5984 6.9076 38.0912 4.40039 34.9984 4.40039H12.9984ZM10.5984 10.0004C10.5984 8.67491 11.673 7.60039 12.9984 7.60039H34.9984C36.3239 7.60039 37.3984 8.67491 37.3984 10.0004V38.0004C37.3984 39.3259 36.3239 40.4004 34.9984 40.4004H12.9984C11.673 40.4004 10.5984 39.3259 10.5984 38.0004V10.0004Z" fill="#333333"/>
</svg>
