<svg width="48" height="48" viewBox="0 0 48 48" fill="none" xmlns="http://www.w3.org/2000/svg">
<path d="M23.9984 4.40039C13.1737 4.40039 4.39844 13.1756 4.39844 24.0004C4.39844 32.9345 10.376 40.4725 18.5499 42.8331C18.3284 41.7939 18.4304 40.6688 18.9429 39.6064C12.3593 37.4752 7.59844 31.2938 7.59844 24.0004C7.59844 14.9429 14.941 7.60039 23.9984 7.60039C33.0559 7.60039 40.3984 14.9429 40.3984 24.0004C40.3984 26.0601 40.0187 28.0311 39.3255 29.8473L41.2618 33.2895C42.7524 30.5249 43.5984 27.3615 43.5984 24.0004C43.5984 13.1756 34.8232 4.40039 23.9984 4.40039Z" fill="#333333"/>
<path d="M26.5984 12.0004C26.5984 11.1167 25.8821 10.4004 24.9984 10.4004C24.1148 10.4004 23.3984 11.1167 23.3984 12.0004V22.4004H16.9984C16.1148 22.4004 15.3984 23.1167 15.3984 24.0004C15.3984 24.884 16.1148 25.6004 16.9984 25.6004H24.9984C25.8821 25.6004 26.5984 24.884 26.5984 24.0004V12.0004Z" fill="#333333"/>
<path fill-rule="evenodd" clip-rule="evenodd" d="M21.5969 40.7145L29.9525 25.8601C30.7953 24.3617 32.9525 24.3617 33.7954 25.8601L42.151 40.7145C42.9776 42.184 41.9156 43.9998 40.2295 43.9998H23.5183C21.8322 43.9998 20.7702 42.184 21.5969 40.7145ZM33.2988 30.0002C33.2988 29.2822 32.7168 28.7002 31.9988 28.7002C31.2809 28.7002 30.6988 29.2822 30.6988 30.0002V35.5002C30.6988 36.2182 31.2809 36.8002 31.9988 36.8002C32.7168 36.8002 33.2988 36.2182 33.2988 35.5002V30.0002ZM30.5977 39.3886C30.5977 40.183 31.2476 40.833 32.042 40.833C32.8365 40.833 33.4864 40.183 33.4864 39.3886C33.4864 38.5942 32.8365 37.9442 32.042 37.9442C31.2476 37.9442 30.5977 38.5942 30.5977 39.3886Z" fill="#333333"/>
</svg>
