<svg width="48" height="48" viewBox="0 0 48 48" fill="none" xmlns="http://www.w3.org/2000/svg">
<path d="M23.1236 40.3682C16.4538 37.79 11.3641 30.2978 11.3641 22.0903V15.8635C11.3641 15.5514 11.5456 15.2678 11.829 15.1371L23.6623 9.67883C23.8749 9.58075 24.1199 9.58075 24.3325 9.67883L36.1658 15.1371C36.4492 15.2678 36.6307 15.5514 36.6307 15.8635V21.6758C37.7564 21.915 38.8265 22.3046 39.819 22.8225C39.8268 22.5789 39.8307 22.3348 39.8307 22.0903V15.8635C39.8307 14.303 38.9232 12.8849 37.5061 12.2313L25.6728 6.77305C24.6097 6.28268 23.3851 6.28268 22.322 6.77305L10.4887 12.2313C9.07161 12.8849 8.16406 14.303 8.16406 15.8635V22.0903C8.16406 32.2237 14.9196 41.6997 23.9974 44.0003C24.573 43.8544 25.1393 43.6796 25.6952 43.4777C24.6808 42.5883 23.8104 41.5386 23.1236 40.3682Z" fill="#333333"/>
<path fill-rule="evenodd" clip-rule="evenodd" d="M43.998 34C43.998 39.5229 39.5209 44 33.998 44C28.4752 44 23.998 39.5229 23.998 34C23.998 28.4772 28.4752 24 33.998 24C39.5209 24 43.998 28.4772 43.998 34ZM35.698 28.3C35.698 27.3611 34.9369 26.6 33.998 26.6C33.0592 26.6 32.298 27.3611 32.298 28.3L32.298 34.3C32.298 35.2389 33.0592 36 33.998 36C34.9369 36 35.698 35.2389 35.698 34.3V28.3ZM33.998 41.6998C32.898 41.6998 31.998 40.7998 31.998 39.6998C31.998 38.5998 32.898 37.6998 33.998 37.6998C35.098 37.6998 35.998 38.5998 35.998 39.6998C35.998 40.7998 35.098 41.6998 33.998 41.6998Z" fill="#333333"/>
</svg>
