<svg width="48" height="48" viewBox="0 0 48 48" fill="none" xmlns="http://www.w3.org/2000/svg">
<path fill-rule="evenodd" clip-rule="evenodd" d="M11.1321 8.86902C10.5073 8.24418 9.49423 8.24418 8.86939 8.86902C8.24455 9.49386 8.24455 10.5069 8.86939 11.1318L12.2702 14.5325C10.0405 16.3289 7.78036 18.7223 5.5156 21.8215C4.56772 23.1186 4.56772 24.8822 5.5156 26.1793C15.528 39.8806 25.4509 39.787 33.0382 35.3006L36.8694 39.1318C37.4942 39.7566 38.5073 39.7566 39.1321 39.1318C39.757 38.5069 39.757 37.4939 39.1321 36.869L11.1321 8.86902ZM30.6889 32.9513L28.1236 30.386C26.936 31.1543 25.5204 31.6004 24.0007 31.6004C19.8033 31.6004 16.4007 28.1977 16.4007 24.0004C16.4007 22.4806 16.8468 21.0651 17.6151 19.8775L14.5442 16.8066C12.4816 18.4194 10.3254 20.6631 8.09926 23.7095C7.97316 23.8821 7.97316 24.1187 8.09926 24.2912C15.2276 34.0459 21.6378 35.5703 26.5586 34.5071C27.9768 34.2007 29.3604 33.6629 30.6889 32.9513ZM19.9702 22.2326C19.7326 22.7736 19.6007 23.3716 19.6007 24.0004C19.6007 26.4304 21.5707 28.4004 24.0007 28.4004C24.6295 28.4004 25.2275 28.2685 25.7685 28.0308L19.9702 22.2326Z" fill="#333333"/>
<path d="M22.7636 16.5005L31.5005 25.2374C31.5664 24.8349 31.6007 24.4216 31.6007 24.0004C31.6007 19.803 28.1981 16.4004 24.0007 16.4004C23.5795 16.4004 23.1662 16.4346 22.7636 16.5005Z" fill="#333333"/>
<path d="M40.0715 24.1839C38.8097 25.9957 37.3028 27.7803 35.617 29.354L37.8806 31.6175C39.7485 29.8612 41.3727 27.9148 42.6974 26.0126C43.541 24.8013 43.541 23.1994 42.6974 21.9881C37.6439 14.7317 28.2302 6.82976 17.5673 11.3042L20.061 13.7979C22.4285 13.0574 24.6103 13.0727 26.5586 13.4936C31.9361 14.6554 36.8183 19.1456 40.0715 23.8169C40.1497 23.9292 40.1497 24.0716 40.0715 24.1839Z" fill="#333333"/>
</svg>
