<svg width="48" height="48" viewBox="0 0 48 48" fill="none" xmlns="http://www.w3.org/2000/svg">
<path d="M21.6152 22.8702C22.2393 23.495 22.2396 24.5073 21.6152 25.1319L15.1289 31.6163C14.5041 32.2409 13.492 32.2409 12.8672 31.6163C12.2429 30.9915 12.2426 29.9793 12.8672 29.3546L16.623 25.5987H7.51367C6.63026 25.5987 5.91446 24.8844 5.91406 24.0011C5.91406 23.1174 6.63002 22.4015 7.51367 22.4015H16.623L12.8672 18.6456C12.2428 18.0208 12.2427 17.0086 12.8672 16.3839C13.4919 15.7594 14.5041 15.7595 15.1289 16.3839L21.6152 22.8702Z" fill="#333333"/>
<path d="M42.082 24.0011C42.0816 24.8844 41.3658 25.5987 40.4824 25.5987H31.373L35.1289 29.3546C35.7535 29.9793 35.7532 30.9915 35.1289 31.6163C34.5041 32.2409 33.492 32.2409 32.8672 31.6163L26.3809 25.1319C25.7565 24.5073 25.7568 23.495 26.3809 22.8702L32.8672 16.3839C33.492 15.7595 34.5042 15.7594 35.1289 16.3839C35.7534 17.0086 35.7533 18.0208 35.1289 18.6456L31.373 22.4015L40.4824 22.4015C41.3661 22.4015 42.082 23.1174 42.082 24.0011Z" fill="#333333"/>
</svg>
