<svg width="48" height="48" viewBox="0 0 48 48" fill="none" xmlns="http://www.w3.org/2000/svg">
<path fill-rule="evenodd" clip-rule="evenodd" d="M38.2741 8.72621C36.4777 6.9298 33.5651 6.9298 31.7687 8.72621L23.99 16.505L22.6463 15.1613C21.67 14.185 20.0871 14.185 19.1108 15.1613C18.1345 16.1376 18.1345 17.7205 19.1108 18.6969L19.7468 19.3329L7.72614 31.3536C5.5392 33.5405 5.5392 37.0862 7.72614 39.2732C9.91308 41.4601 13.4588 41.4601 15.6457 39.2732L27.6664 27.2525L28.3032 27.8892C29.2795 28.8656 30.8624 28.8656 31.8387 27.8892C32.815 26.9129 32.815 25.33 31.8387 24.3537L30.4953 23.0104L38.2741 15.2316C40.0705 13.4352 40.0705 10.5226 38.2741 8.72621ZM22.0096 21.5956L25.4037 24.9897L13.383 37.0104C12.4457 37.9477 10.9261 37.9477 9.98888 37.0104C9.05162 36.0732 9.05162 34.5536 9.98888 33.6163L22.0096 21.5956Z" fill="#333333"/>
</svg>
