<svg width="48" height="48" viewBox="0 0 48 48" fill="none" xmlns="http://www.w3.org/2000/svg">
<path d="M12.002 20C12.002 21.1 12.902 22 14.002 22C15.102 22 16.002 21.1 16.002 20C16.002 18.9 15.102 18 14.002 18C12.902 18 12.002 18.9 12.002 20Z" fill="#333333"/>
<path d="M18.002 27C16.902 27 16.002 26.1 16.002 25C16.002 23.9 16.902 23 18.002 23C19.102 23 20.002 23.9 20.002 25C20.002 26.1 19.102 27 18.002 27Z" fill="#333333"/>
<path d="M12.002 31C12.002 32.1 12.902 33 14.002 33C15.102 33 16.002 32.1 16.002 31C16.002 29.9 15.102 29 14.002 29C12.902 29 12.002 29.9 12.002 31Z" fill="#333333"/>
<path d="M22.002 22C20.902 22 20.002 21.1 20.002 20C20.002 18.9 20.902 18 22.002 18C23.102 18 24.002 18.9 24.002 20C24.002 21.1 23.102 22 22.002 22Z" fill="#333333"/>
<path d="M24.002 25C24.002 26.1 24.902 27 26.002 27C27.102 27 28.002 26.1 28.002 25C28.002 23.9 27.102 23 26.002 23C24.902 23 24.002 23.9 24.002 25Z" fill="#333333"/>
<path d="M22.002 33C20.902 33 20.002 32.1 20.002 31C20.002 29.9 20.902 29 22.002 29C23.102 29 24.002 29.9 24.002 31C24.002 32.1 23.102 33 22.002 33Z" fill="#333333"/>
<path d="M28.002 20C28.002 21.1 28.902 22 30.002 22C31.102 22 32.002 21.1 32.002 20C32.002 18.9 31.102 18 30.002 18C28.902 18 28.002 18.9 28.002 20Z" fill="#333333"/>
<path d="M34.002 27C32.902 27 32.002 26.1 32.002 25C32.002 23.9 32.902 23 34.002 23C35.102 23 36.002 23.9 36.002 25C36.002 26.1 35.102 27 34.002 27Z" fill="#333333"/>
<path d="M28.002 31C28.002 32.1 28.902 33 30.002 33C31.102 33 32.002 32.1 32.002 31C32.002 29.9 31.102 29 30.002 29C28.902 29 28.002 29.9 28.002 31Z" fill="#333333"/>
<path fill-rule="evenodd" clip-rule="evenodd" d="M9.46376 12.4004C6.13816 12.4004 3.60293 15.3775 4.13273 18.6607L6.59565 33.9234C7.01786 36.5398 9.27641 38.4631 11.9267 38.4631H35.7583C38.3765 38.4631 40.6176 36.5849 41.0752 34.0069L43.7844 18.7442C44.3716 15.436 41.8274 12.4004 38.4675 12.4004H9.46376ZM7.29186 18.1509C7.07602 16.8133 8.10889 15.6004 9.46376 15.6004H38.4675C39.8363 15.6004 40.8729 16.8371 40.6336 18.1849L37.9244 33.4476C37.738 34.4979 36.825 35.2631 35.7583 35.2631H11.9267C10.8469 35.2631 9.92679 34.4796 9.75478 33.4136L7.29186 18.1509Z" fill="#333333"/>
</svg>
