<svg width="48" height="48" viewBox="0 0 48 48" fill="none" xmlns="http://www.w3.org/2000/svg">
<path d="M12.3218 12.8863C9.40895 15.6766 7.59844 19.6003 7.59844 23.9496C7.59844 28.2989 9.40895 32.2226 12.3218 35.0129C12.9599 35.6242 12.9816 36.637 12.3704 37.2751C11.7591 37.9133 10.7463 37.935 10.1081 37.3237C6.5914 33.9549 4.39844 29.207 4.39844 23.9496C4.39844 18.6922 6.5914 13.9443 10.1081 10.5755C10.7463 9.96418 11.7591 9.98593 12.3704 10.624C12.9816 11.2622 12.9599 12.275 12.3218 12.8863Z" fill="#333333"/>
<path d="M40.377 23.1319C40.1657 19.1099 38.4042 15.5006 35.6751 12.8863C35.037 12.275 35.0152 11.2622 35.6265 10.624C36.2378 9.98593 37.2506 9.96418 37.8887 10.5755C41.4055 13.9443 43.5984 18.6922 43.5984 23.9496C43.5984 24.5535 43.5695 25.1506 43.513 25.7397C42.6184 24.7102 41.5594 23.8273 40.377 23.1319Z" fill="#333333"/>
<path d="M36.1636 21.5857C35.6975 19.4602 34.6167 17.5642 33.1191 16.0961C32.4881 15.4775 31.4751 15.4876 30.8565 16.1186C30.2379 16.7496 30.248 17.7626 30.879 18.3812C31.7463 19.2315 32.4151 20.2809 32.8114 21.4556C33.2022 21.4191 33.5981 21.4004 33.9984 21.4004C34.7367 21.4004 35.4601 21.4639 36.1636 21.5857Z" fill="#333333"/>
<path d="M29.3332 22.2923C28.6109 20.0348 26.4956 18.4004 23.9984 18.4004C20.9056 18.4004 18.3984 20.9076 18.3984 24.0004C18.3984 26.4975 20.0329 28.6129 22.2903 29.3351C22.7116 28.2788 23.2717 27.2929 23.9481 26.3999C22.6458 26.3731 21.5984 25.309 21.5984 24.0004C21.5984 22.6749 22.673 21.6004 23.9984 21.6004C25.3071 21.6004 26.3711 22.6478 26.3979 23.95C27.2909 23.2737 28.2768 22.7136 29.3332 22.2923Z" fill="#333333"/>
<path d="M14.5984 23.9509C14.5984 21.7689 15.4924 19.7986 16.9382 18.3812C17.5692 17.7626 17.5793 16.7496 16.9607 16.1186C16.3421 15.4876 15.3291 15.4775 14.6981 16.0961C12.6637 18.0905 11.3984 20.8744 11.3984 23.9509C11.3984 27.0274 12.6637 29.8114 14.6981 31.8057C15.3291 32.4243 16.3421 32.4143 16.9607 31.7832C17.5793 31.1522 17.5692 30.1392 16.9382 29.5206C15.4924 28.1033 14.5984 26.133 14.5984 23.9509Z" fill="#333333"/>
<path fill-rule="evenodd" clip-rule="evenodd" d="M43.998 34C43.998 39.5229 39.5209 44 33.998 44C28.4752 44 23.998 39.5229 23.998 34C23.998 28.4772 28.4752 24 33.998 24C39.5209 24 43.998 28.4772 43.998 34ZM35.698 27.7C35.698 26.7611 34.9369 26 33.998 26C33.0592 26 32.298 26.7611 32.298 27.7L32.298 33.7C32.298 34.6389 33.0592 35.4 33.998 35.4C34.9369 35.4 35.698 34.6389 35.698 33.7V27.7ZM33.998 41.7C32.898 41.7 31.998 40.8 31.998 39.7C31.998 38.6 32.898 37.7 33.998 37.7C35.098 37.7 35.998 38.6 35.998 39.7C35.998 40.8 35.098 41.7 33.998 41.7Z" fill="#333333"/>
</svg>
