<svg width="48" height="48" viewBox="0 0 48 48" fill="none" xmlns="http://www.w3.org/2000/svg">
<path d="M32.3886 39.1922C34.5697 35.4542 39.9732 35.4542 42.1543 39.1922C42.5993 39.9553 42.341 40.9363 41.5781 41.3816C40.8149 41.8268 39.8339 41.5686 39.3886 40.8054C38.4424 39.1843 36.1006 39.1843 35.1543 40.8054C32.9733 44.5442 27.5697 44.5441 25.3886 40.8054C24.9439 40.0422 25.2017 39.0611 25.9648 38.616C26.7278 38.1712 27.7089 38.4295 28.1543 39.1922C29.1005 40.814 31.4425 40.8141 32.3886 39.1922Z" fill="#333333"/>
<path fill-rule="evenodd" clip-rule="evenodd" d="M27.2656 7.65895C30.0772 4.84798 34.6356 4.84813 37.4472 7.65895L40.2051 10.4168C43.0164 13.2284 43.0162 17.7867 40.2051 20.5984L21.7109 39.0925C21.2575 39.5458 20.6785 39.8531 20.0488 39.9734L9.65036 41.9558C8.60962 42.1541 7.53825 41.8241 6.78904 41.075C6.03992 40.3256 5.70974 39.2545 5.90818 38.2136L7.8906 27.8172C8.01078 27.1872 8.318 26.6066 8.77146 26.1531L27.2656 7.65895ZM11.0351 28.4168L9.05075 38.8133L19.4492 36.8289L35.0078 21.2703L26.5937 12.8562L11.0351 28.4168ZM35.1855 9.92263C33.6236 8.36071 31.0914 8.36107 29.5293 9.92263L28.8574 10.5945L37.2715 19.0086L37.9414 18.3367C39.5033 16.7746 39.5033 14.2406 37.9414 12.6785L35.1855 9.92263Z" fill="#333333"/>
</svg>
