<svg width="48" height="48" viewBox="0 0 48 48" fill="none" xmlns="http://www.w3.org/2000/svg">
<path fill-rule="evenodd" clip-rule="evenodd" d="M33.998 24C39.5209 24 43.998 28.4772 43.998 34C43.998 39.5229 39.5209 44 33.998 44C28.4752 44 23.998 39.5229 23.998 34C23.998 28.4772 28.4752 24 33.998 24ZM33.998 27.5C33.1696 27.5 32.4981 28.1716 32.498 29V32.5H28.998C28.1697 32.5 27.498 33.1716 27.498 34C27.498 34.8284 28.1697 35.5 28.998 35.5H32.498V38.998C32.498 39.8265 33.1696 40.498 33.998 40.498C34.8265 40.498 35.498 39.8265 35.498 38.998V35.5H38.9961C39.8245 35.5 40.4961 34.8284 40.4961 34C40.4961 33.1716 39.8245 32.5 38.9961 32.5H35.498V29C35.498 28.1716 34.8265 27.5 33.998 27.5Z" fill="#333333"/>
<path d="M20.998 4.40039C27.9568 4.40039 33.5977 10.0412 33.5977 17C33.5977 18.3399 33.3839 19.63 32.9961 20.8418C31.6356 20.9439 30.3334 21.251 29.1191 21.7344C29.9318 20.3438 30.3984 18.7273 30.3984 17C30.3984 11.8085 26.1895 7.59961 20.998 7.59961C15.8066 7.59961 11.5977 11.8085 11.5977 17C11.5977 22.1915 15.8066 26.4004 20.998 26.4004C21.8422 26.4004 22.6594 26.2866 23.4375 26.0781C22.6434 27.1351 22.007 28.3165 21.5566 29.5859C21.3714 29.5941 21.1853 29.5996 20.998 29.5996C19.4061 29.5996 17.8847 29.3004 16.4824 28.7617L15.791 39.1328L20.2051 36.6113L20.3926 36.5195C20.5933 36.4375 20.8066 36.3994 21.0195 36.4023C21.3111 37.9877 21.8839 39.474 22.6875 40.8066L20.998 39.8418L14.791 43.3887C14.2794 43.6808 13.6479 43.6679 13.1484 43.3555C12.6497 43.0429 12.3635 42.4819 12.4023 41.8945L13.3906 27.043C10.3579 24.7422 8.39844 21.1005 8.39844 17C8.39844 10.0412 14.0393 4.40039 20.998 4.40039Z" fill="#333333"/>
</svg>
