<svg width="48" height="48" viewBox="0 0 48 48" fill="none" xmlns="http://www.w3.org/2000/svg">
<path d="M39.5993 11.9997C39.5993 11.116 38.8837 10.4004 38 10.4004L10.0002 10.4004C9.11657 10.4004 8.40095 11.116 8.40095 11.9997C8.40095 12.8833 9.11657 13.5989 10.0002 13.5989H38C38.8837 13.5989 39.5993 12.8833 39.5993 11.9997Z" fill="#333333"/>
<path d="M8.39844 21.7944C8.39844 20.7189 9.60641 20.086 10.4907 20.6982L18.3703 26.1533C19.1362 26.6835 19.1362 27.8156 18.3703 28.3458L10.4907 33.8009C9.60641 34.4132 8.39844 33.7802 8.39844 32.7047V21.7944Z" fill="#333333"/>
<path d="M39.5993 21.9997C39.5993 21.116 38.8837 20.4004 38 20.4004L25 20.399C24.1164 20.399 23.3993 21.116 23.3993 21.9997C23.3993 22.8833 24.1164 23.6003 25 23.6003L38 23.5989C38.8837 23.5989 39.5993 22.8833 39.5993 21.9997Z" fill="#333333"/>
<path d="M39.5993 32.4997C39.5993 31.616 38.8837 30.9004 38 30.9004L25 30.899C24.1164 30.899 23.3993 31.616 23.3993 32.4997C23.3993 33.3833 24.1164 34.1003 25 34.1003L38 34.0989C38.8837 34.0989 39.5993 33.3833 39.5993 32.4997Z" fill="#333333"/>
</svg>
