<svg width="48" height="48" viewBox="0 0 48 48" fill="none" xmlns="http://www.w3.org/2000/svg">
<path d="M26.002 5.50316C28.3941 3.90873 31.5971 5.62256 31.5977 8.49729V19.5383C32.7823 20.1275 33.5977 21.3479 33.5977 22.7609V25.3937C35.9107 26.0821 37.5977 28.2241 37.5977 30.7609V40.7609C37.5972 41.6441 36.8814 42.3605 35.998 42.3605C35.1147 42.3605 34.3989 41.6441 34.3984 40.7609V30.7609C34.3984 29.4354 33.3235 28.3605 31.998 28.3605H15.998C14.6726 28.3605 13.5977 29.4354 13.5977 30.7609V40.7609C13.5972 41.6441 12.8814 42.3605 11.998 42.3605C11.1147 42.3605 10.3989 41.6441 10.3984 40.7609V30.7609C10.3984 28.2241 12.0854 26.0821 14.3984 25.3937V22.7609C14.3984 21.3479 15.2138 20.1275 16.3984 19.5383V13.8313C16.3985 12.6277 17.0006 11.5029 18.002 10.8352L26.002 5.50316ZM23.998 31.7609C26.2072 31.7609 27.998 33.5518 27.998 35.7609V40.3605C27.9978 41.4649 27.1025 42.3605 25.998 42.3605H21.998C20.8936 42.3605 19.9983 41.4649 19.998 40.3605V35.7609C19.998 33.5518 21.7889 31.7609 23.998 31.7609ZM17.998 22.3605C17.7771 22.3605 17.5977 22.54 17.5977 22.7609V25.1613H30.3984V22.7609C30.3984 22.54 30.219 22.3605 29.998 22.3605H17.998ZM28.3984 8.49729C28.3979 8.17824 28.041 7.98818 27.7754 8.16526L19.7754 13.4992C19.6648 13.5735 19.5977 13.698 19.5977 13.8313V19.1613H28.3984V8.49729Z" fill="#333333"/>
</svg>
