<svg width="48" height="48" viewBox="0 0 48 48" fill="none" xmlns="http://www.w3.org/2000/svg">
<path d="M15.996 10.0171C18.3087 8.54496 21.0529 7.69318 23.9975 7.69318C28.2344 7.69318 32.0567 9.45677 34.7751 12.2945C35.4218 12.9696 36.4934 12.9927 37.1685 12.3459C37.8436 11.6992 37.8666 10.6277 37.2199 9.95254C33.8894 6.47583 29.1952 4.30762 23.9975 4.30762C20.1166 4.30762 16.5164 5.51638 13.555 7.57604L15.996 10.0171Z" fill="#333333"/>
<path d="M21.9344 15.9545C22.6275 15.7246 23.3688 15.6004 24.1395 15.6004C26.0978 15.6004 27.8659 16.4025 29.1381 17.7002C29.7567 18.3313 30.7697 18.3413 31.4007 17.7227C32.0317 17.1041 32.0418 16.0911 31.4232 15.4601C29.574 13.5737 26.9923 12.4004 24.1395 12.4004C22.4678 12.4004 20.8891 12.8033 19.4964 13.5165L21.9344 15.9545Z" fill="#333333"/>
<path d="M23.998 38C22.898 38 21.998 37.1 21.998 36C21.998 34.9 22.898 34 23.998 34C25.098 34 25.998 34.9 25.998 36C25.998 37.1 25.098 38 23.998 38Z" fill="#333333"/>
<path fill-rule="evenodd" clip-rule="evenodd" d="M18.1357 20.4004L8.86707 11.1318C8.24223 10.5069 8.24223 9.49386 8.86707 8.86902C9.49191 8.24418 10.505 8.24418 11.1298 8.86902L39.1298 36.869C39.7546 37.4939 39.7546 38.5069 39.1298 39.1318C38.505 39.7566 37.4919 39.7566 36.8671 39.1318L35.5984 37.8631V38.0004C35.5984 41.0932 33.0912 43.6004 29.9984 43.6004H17.9984C14.9056 43.6004 12.3984 41.0932 12.3984 38.0004V26.0004C12.3984 22.9076 14.9056 20.4004 17.9984 20.4004H18.1357ZM32.3984 34.6631V38.0004C32.3984 39.3259 31.3239 40.4004 29.9984 40.4004H17.9984C16.673 40.4004 15.5984 39.3259 15.5984 38.0004V26.0004C15.5984 24.6749 16.673 23.6004 17.9984 23.6004H21.3357L32.3984 34.6631Z" fill="#333333"/>
<path d="M32.3984 26.0004V26.4185L35.5984 29.6185V26.0004C35.5984 22.9076 33.0912 20.4004 29.9984 20.4004H26.3803L29.5803 23.6004H29.9984C31.3239 23.6004 32.3984 24.6749 32.3984 26.0004Z" fill="#333333"/>
</svg>
