<svg width="48" height="48" viewBox="0 0 48 48" fill="none" xmlns="http://www.w3.org/2000/svg">
<path d="M25.7234 27.9881L36.8671 39.1318C37.4919 39.7566 38.505 39.7566 39.1298 39.1318C39.7546 38.5069 39.7546 37.4939 39.1298 36.869L11.1298 8.86902C10.505 8.24418 9.49191 8.24418 8.86707 8.86902C8.24223 9.49386 8.24223 10.5069 8.86707 11.1318L20.0107 22.2754H17.4005L13.0137 17.8886C12.34 17.215 11.2478 17.215 10.5742 17.8886C9.90052 18.5623 9.90052 19.6545 10.5742 20.3281L12.5214 22.2754H7.12344C6.17075 22.2754 5.39844 23.0477 5.39844 24.0004C5.39844 24.9531 6.17075 25.7254 7.12344 25.7254H12.5214L10.5742 27.6726C9.90052 28.3463 9.90052 29.4385 10.5742 30.1122C11.2478 30.7858 12.34 30.7858 13.0137 30.1122L17.4005 25.7254H22.2734V30.5984L18.1822 34.6896C17.5085 35.3633 17.5085 36.4555 18.1822 37.1292C18.8558 37.8028 19.948 37.8028 20.6217 37.1292L22.2734 35.4774V40.8754C22.2734 41.8281 23.0457 42.6004 23.9984 42.6004C24.9511 42.6004 25.7234 41.8281 25.7234 40.8754V35.4774L27.3752 37.1292C28.0488 37.8028 29.141 37.8028 29.8147 37.1292C30.4884 36.4555 30.4884 35.3633 29.8147 34.6896L25.7234 30.5984V27.9881Z" fill="#333333"/>
<path d="M37.4227 30.1122C37.3398 30.195 37.2506 30.2677 37.1567 30.3302L29.1019 22.2754H30.5964L34.9832 17.8886C35.6568 17.215 36.749 17.215 37.4227 17.8886C38.0964 18.5623 38.0964 19.6545 37.4227 20.3281L35.4755 22.2754H40.8734C41.8261 22.2754 42.5984 23.0477 42.5984 24.0004C42.5984 24.9531 41.8261 25.7254 40.8734 25.7254H35.4755L37.4227 27.6726C38.0964 28.3463 38.0964 29.4385 37.4227 30.1122Z" fill="#333333"/>
<path d="M25.7234 17.4024V18.897L17.9641 11.1377C18.0266 11.0437 18.0993 10.9545 18.1822 10.8716C18.8558 10.198 19.948 10.198 20.6217 10.8716L22.2734 12.5234V7.12539C22.2734 6.1727 23.0457 5.40039 23.9984 5.40039C24.9511 5.40039 25.7234 6.1727 25.7234 7.12539V12.5234L27.3752 10.8716C28.0488 10.198 29.1411 10.198 29.8147 10.8716C30.4884 11.5453 30.4884 12.6375 29.8147 13.3111L25.7234 17.4024Z" fill="#333333"/>
</svg>
