<svg width="48" height="48" viewBox="0 0 48 48" fill="none" xmlns="http://www.w3.org/2000/svg">
<path fill-rule="evenodd" clip-rule="evenodd" d="M20.4433 4.40039C16.1232 4.40039 12.6211 7.90252 12.6211 12.2226C12.6211 16.5427 16.1232 20.0448 20.4433 20.0448C24.7634 20.0448 28.2655 16.5427 28.2655 12.2226C28.2655 7.90252 24.7634 4.40039 20.4433 4.40039ZM15.8211 12.2226C15.8211 9.66983 17.8905 7.60039 20.4433 7.60039C22.9961 7.60039 25.0655 9.66983 25.0655 12.2226C25.0655 14.7754 22.9961 16.8448 20.4433 16.8448C17.8905 16.8448 15.8211 14.7754 15.8211 12.2226Z" fill="#333333"/>
<path d="M20.4433 22.1777C16.7802 22.1777 13.385 23.0229 10.8501 24.4715C8.3605 25.8942 6.39888 28.1033 6.39888 30.8888L6.39866 31.0855C6.39568 32.894 6.39158 35.3769 8.53454 37.1498C9.58856 38.0218 11.0356 38.6194 12.9266 39.0083C14.8239 39.3984 17.2763 39.6 20.4433 39.6C20.739 39.6 21.0284 39.5982 21.3117 39.5947L21.6298 37.9271C21.7324 37.3893 21.9009 36.8693 22.1296 36.3782C21.5981 36.3925 21.0365 36.4 20.4433 36.4C17.3881 36.4 15.1739 36.2034 13.5712 35.8739C11.9622 35.543 11.0759 35.0991 10.5743 34.6842C9.68499 33.9484 9.59888 32.9942 9.59888 30.8888C9.59888 29.7474 10.4233 28.4011 12.4378 27.2499C14.4069 26.1246 17.234 25.3777 20.4433 25.3777C23.6526 25.3777 26.4797 26.1246 28.4489 27.2499C28.9669 27.5459 29.4062 27.8548 29.773 28.1698L32.0375 25.9054C31.4385 25.3645 30.7598 24.8848 30.0366 24.4715C27.5016 23.0229 24.1065 22.1777 20.4433 22.1777Z" fill="#333333"/>
<path d="M42.6193 31.0004L31.2839 42.3357C30.7169 42.9027 29.9926 43.2862 29.2049 43.4365L24.4446 44.3445C23.7511 44.4767 23.1426 43.8682 23.2749 43.1748L24.1829 38.4145C24.3332 37.6268 24.7167 36.9025 25.2837 36.3355L36.619 25.0001C38.2759 23.3432 40.9623 23.3432 42.6193 25.0001C44.2762 26.657 44.2762 29.3434 42.6193 31.0004Z" fill="#333333"/>
</svg>
