<svg width="48" height="48" viewBox="0 0 48 48" fill="none" xmlns="http://www.w3.org/2000/svg">
<path d="M8.39844 14.0004C8.39844 13.1167 9.11478 12.4004 9.99844 12.4004H37.9984C38.8821 12.4004 39.5984 13.1167 39.5984 14.0004C39.5984 14.884 38.8821 15.6004 37.9984 15.6004L9.99844 15.6004C9.11478 15.6004 8.39844 14.884 8.39844 14.0004Z" fill="#333333"/>
<path d="M8.39844 24.0004C8.39844 23.1167 9.11478 22.4004 9.99844 22.4004L37.9984 22.4004C38.8821 22.4004 39.5984 23.1167 39.5984 24.0004C39.5984 24.884 38.8821 25.6004 37.9984 25.6004L9.99844 25.6004C9.11478 25.6004 8.39844 24.884 8.39844 24.0004Z" fill="#333333"/>
<path d="M9.99844 32.4004C9.11478 32.4004 8.39844 33.1167 8.39844 34.0004C8.39844 34.884 9.11478 35.6004 9.99844 35.6004H37.9984C38.8821 35.6004 39.5984 34.884 39.5984 34.0004C39.5984 33.1167 38.8821 32.4004 37.9984 32.4004H9.99844Z" fill="#333333"/>
</svg>
