<svg width="48" height="48" viewBox="0 0 48 48" fill="none" xmlns="http://www.w3.org/2000/svg">
<path fill-rule="evenodd" clip-rule="evenodd" d="M11.9984 7.5999C10.673 7.5999 9.59844 8.67442 9.59844 9.9999V37.9999C9.59844 39.3254 10.673 40.3999 11.9984 40.3999H35.9984C37.3239 40.3999 38.3984 39.3254 38.3984 37.9999V18.5999H29.9984C28.5625 18.5999 27.3984 17.4358 27.3984 15.9999V7.5999H11.9984ZM30.5984 9.86264L36.1357 15.3999H30.5984V9.86264ZM6.39844 9.9999C6.39844 6.90711 8.90564 4.3999 11.9984 4.3999H28.9984C29.4228 4.3999 29.8298 4.56847 30.1298 4.86853L41.1298 15.8685C41.4299 16.1686 41.5984 16.5756 41.5984 16.9999V37.9999C41.5984 41.0927 39.0912 43.5999 35.9984 43.5999H11.9984C8.90564 43.5999 6.39844 41.0927 6.39844 37.9999V9.9999Z" fill="#333333"/>
<path d="M18.7082 24.7108L18.6182 32.0008H20.9732V21.3808H17.7632L16.0982 28.2208H16.0382L14.3282 21.3808H11.2982V32.0008H13.4732L13.3982 24.7108H13.4432L15.1682 32.0008H16.8632L18.6482 24.7108H18.7082Z" fill="#333333"/>
<path fill-rule="evenodd" clip-rule="evenodd" d="M29.4255 24.7108C29.4255 25.3008 29.3355 25.8108 29.1555 26.2408C28.9755 26.6708 28.7355 27.0258 28.4355 27.3058C28.1355 27.5858 27.7955 27.7958 27.4155 27.9358C27.0355 28.0658 26.6505 28.1308 26.2605 28.1308H25.2255V32.0008H22.8705V21.3808H26.1705C26.5505 21.3808 26.9305 21.4358 27.3105 21.5458C27.7005 21.6558 28.0505 21.8408 28.3605 22.1008C28.6805 22.3508 28.9355 22.6908 29.1255 23.1208C29.3255 23.5508 29.4255 24.0808 29.4255 24.7108ZM27.1755 24.7558C27.1755 24.2758 27.0605 23.9308 26.8305 23.7208C26.6005 23.5108 26.3205 23.4058 25.9905 23.4058H25.2255V26.1808H25.9905C26.3205 26.1808 26.6005 26.0608 26.8305 25.8208C27.0605 25.5708 27.1755 25.2158 27.1755 24.7558Z" fill="#333333"/>
<path fill-rule="evenodd" clip-rule="evenodd" d="M36.1228 29.8708V32.0008H33.9928V29.8708H30.1078V27.8308L33.2128 21.3808H36.1228V27.8908H37.2028V29.8708H36.1228ZM34.0378 23.7208H34.0078L32.1928 27.8908H34.0378V23.7208Z" fill="#333333"/>
</svg>
