<svg width="48" height="48" viewBox="0 0 48 48" fill="none" xmlns="http://www.w3.org/2000/svg">
<path fill-rule="evenodd" clip-rule="evenodd" d="M26.0781 6.4002L27.4559 6.4002C28.849 6.4002 30.1921 6.91944 31.2229 7.85653L39.7693 15.626C40.9368 16.6873 41.6023 18.1919 41.6023 19.7697V36.0002C41.6023 39.093 39.0951 41.6002 36.0023 41.6002H12.0023C8.90955 41.6002 6.40234 39.093 6.40234 36.0002V12.0002C6.40234 8.9074 8.90955 6.4002 12.0023 6.4002L26.0023 6.39941C26.0277 6.39941 26.0529 6.39968 26.0781 6.4002ZM17.0023 17.5994C15.5664 17.5994 14.4023 16.4354 14.4023 14.9994V9.6002H12.0023C10.6769 9.6002 9.60234 10.6747 9.60234 12.0002L9.60234 36.0002C9.60234 37.3257 10.6769 38.4002 12.0023 38.4002H13.4023V30.0002C13.4023 26.9074 15.9095 24.4002 19.0023 24.4002H29.0023C32.0951 24.4002 34.6023 26.9074 34.6023 30.0002V38.4002H36.0023C37.3278 38.4002 38.4023 37.3257 38.4023 36.0002V19.7697C38.4023 19.0935 38.1171 18.4487 37.6168 17.9938L29.6023 10.708V14.9994C29.6023 16.4354 28.4383 17.5994 27.0023 17.5994H17.0023ZM17.6023 9.6002H26.0275C26.2367 9.6132 26.4023 9.78697 26.4023 9.99941V14.3994H17.6023V9.6002ZM31.4023 38.4002H16.6023V30.0002C16.6023 28.6747 17.6769 27.6002 19.0023 27.6002H29.0023C30.3278 27.6002 31.4023 28.6747 31.4023 30.0002V38.4002Z" fill="#333333"/>
</svg>
