<svg width="48" height="48" viewBox="0 0 48 48" fill="none" xmlns="http://www.w3.org/2000/svg">
<path d="M28.8672 18.3828C29.4919 17.7586 30.5061 17.7587 31.1309 18.3828L35.6152 22.8691C36.2392 23.4939 36.2394 24.5062 35.6152 25.1309L31.1309 29.6152C30.5062 30.2399 29.4921 30.2396 28.8672 29.6152C28.2437 28.9903 28.2428 27.9779 28.8672 27.3535L30.6191 25.5996H17.375L19.1289 27.3535C19.753 27.9783 19.7512 28.9906 19.127 29.6152C18.5021 30.2396 17.4899 30.2399 16.8652 29.6152L12.3789 25.1309C11.7555 24.5063 11.7555 23.4937 12.3789 22.8691L16.8652 18.3828C17.4897 17.7584 18.502 17.759 19.127 18.3828C19.7518 19.0076 19.7537 20.0216 19.1289 20.6465L17.375 22.4004H30.6191L28.8672 20.6465C28.2431 20.0217 28.2429 19.0075 28.8672 18.3828Z" fill="#333333"/>
<path fill-rule="evenodd" clip-rule="evenodd" d="M35.998 6.40039C39.0908 6.40039 41.5977 8.90721 41.5977 12V36C41.5977 39.0928 39.0908 41.5996 35.998 41.5996H11.998C8.90525 41.5996 6.39844 39.0928 6.39844 36V12C6.39844 8.90721 8.90525 6.40039 11.998 6.40039H35.998ZM11.998 9.59961C10.6726 9.59961 9.59766 10.6745 9.59766 12V36C9.59766 37.3255 10.6726 38.4004 11.998 38.4004H35.998C37.3235 38.4004 38.3984 37.3255 38.3984 36V12C38.3984 10.6745 37.3235 9.59961 35.998 9.59961H11.998Z" fill="#333333"/>
</svg>
