<svg width="48" height="48" viewBox="0 0 48 48" fill="none" xmlns="http://www.w3.org/2000/svg">
<path d="M36.5801 23.6016C37.6404 23.6016 38.5445 23.776 39.293 24.123C39.778 24.3544 40.205 24.6714 40.5723 25.0762C40.9395 25.4811 41.2248 25.9513 41.4258 26.4863C41.6337 27.0142 41.7363 27.5654 41.7363 28.1367C41.7362 29.0331 41.5214 29.8505 41.0918 30.5879C40.6691 31.318 40.2364 31.8932 39.793 32.3125C38.1563 33.8334 36.1142 35.1254 34.9062 37.041H40.334C40.8742 37.0411 41.2863 37.1574 41.5703 37.3887C41.8544 37.62 41.996 37.9345 41.9961 38.332C41.9961 38.6861 41.8827 38.9866 41.6543 39.2324C41.4325 39.4783 41.0922 39.6016 40.6348 39.6016H32.9824C32.7064 39.6015 32.4633 39.5585 32.252 39.4746C32.2446 39.4717 32.2377 39.4678 32.2305 39.4648C32.1816 39.4446 32.1352 39.4213 32.0898 39.3965C32.0767 39.3893 32.0636 39.3825 32.0508 39.375C32.017 39.3551 31.9849 39.3331 31.9531 39.3105C31.931 39.2949 31.9079 39.2807 31.8867 39.2637C31.8452 39.2302 31.8053 39.1947 31.7676 39.1562C31.4765 38.8525 31.3301 38.4987 31.3301 38.0938C31.3301 38.0097 31.3375 37.9235 31.3496 37.8359C31.3525 37.8145 31.3558 37.793 31.3594 37.7715C31.3692 37.7132 31.3821 37.6547 31.3965 37.5957C31.4044 37.5632 31.4127 37.5307 31.4219 37.498C31.4333 37.4577 31.4457 37.4173 31.459 37.377C31.6217 36.8781 31.9177 36.3832 32.2246 36.043C33.9492 34.1761 36.0523 32.6885 37.7246 30.8145C38.1053 30.3882 38.392 29.9544 38.5859 29.5137C38.7869 29.0654 38.8886 28.6277 38.8887 28.2012C38.8887 27.7386 38.781 27.3263 38.5664 26.9648C38.3585 26.5961 38.0704 26.3099 37.7031 26.1074C37.3427 25.9049 36.9473 25.8027 36.5176 25.8027C35.61 25.8028 34.8967 26.2196 34.377 27.0508C34.3076 27.1593 34.1898 27.4569 34.0234 27.9414C33.8641 28.4256 33.6805 28.7984 33.4727 29.0586C33.2717 29.3188 32.9729 29.4491 32.5781 29.4492C32.2316 29.4492 31.9436 29.3285 31.7148 29.0898C31.4863 28.8512 31.3711 28.5254 31.3711 28.1133C31.3712 27.6148 31.4788 27.0945 31.6934 26.5527C31.9082 26.0104 32.2276 25.5173 32.6504 25.0762C33.0799 24.6353 33.6204 24.2811 34.2715 24.0137C34.9299 23.7389 35.6999 23.6016 36.5801 23.6016Z" fill="#333333"/>
<path d="M15.998 8.40039C16.8817 8.40039 17.5977 9.11634 17.5977 10C17.5977 10.8837 16.8817 11.5996 15.998 11.5996H13.9277L19.998 21.041L26.0684 11.5996H23.998C23.1144 11.5996 22.3984 10.8837 22.3984 10C22.3984 9.11634 23.1144 8.40039 23.998 8.40039H31.998C32.8817 8.40039 33.5977 9.11634 33.5977 10C33.5977 10.8837 32.8817 11.5996 31.998 11.5996H29.8711L21.8984 24L29.3809 35.6387C29.3339 35.7295 29.2865 35.8199 29.2441 35.9121C28.9838 36.4787 28.7305 37.2455 28.7305 38.0938C28.7305 38.6263 28.8309 39.132 29.0156 39.5996H23.998C23.1144 39.5996 22.3984 38.8837 22.3984 38C22.3984 37.1163 23.1144 36.4004 23.998 36.4004H26.0684L19.998 26.957L13.9277 36.4004H15.998C16.8817 36.4004 17.5977 37.1163 17.5977 38C17.5977 38.8837 16.8817 39.5996 15.998 39.5996H7.99805C7.11439 39.5996 6.39844 38.8837 6.39844 38C6.39844 37.1163 7.11439 36.4004 7.99805 36.4004H10.125L18.0957 24L10.125 11.5996H7.99805C7.11439 11.5996 6.39844 10.8837 6.39844 10C6.39844 9.11634 7.11439 8.40039 7.99805 8.40039H15.998Z" fill="#333333"/>
</svg>
