<svg width="48" height="48" viewBox="0 0 48 48" fill="none" xmlns="http://www.w3.org/2000/svg">
<path fill-rule="evenodd" clip-rule="evenodd" d="M12.5984 11.6004V15.0004C12.5984 15.884 11.8821 16.6004 10.9984 16.6004C10.1148 16.6004 9.39844 15.884 9.39844 15.0004V11.0004C9.39844 9.56445 10.5625 8.40039 11.9984 8.40039H35.9984C37.4344 8.40039 38.5984 9.56445 38.5984 11.0004V15.0004C38.5984 15.884 37.8821 16.6004 36.9984 16.6004C36.1148 16.6004 35.3984 15.884 35.3984 15.0004V11.6004H25.5984V36.4004H28.9984C29.8821 36.4004 30.5984 37.1167 30.5984 38.0004C30.5984 38.884 29.8821 39.6004 28.9984 39.6004H18.9984C18.1148 39.6004 17.3984 38.884 17.3984 38.0004C17.3984 37.1167 18.1148 36.4004 18.9984 36.4004H22.3984V11.6004H12.5984Z" fill="#333333"/>
</svg>
