<svg width="48" height="48" viewBox="0 0 48 48" fill="none" xmlns="http://www.w3.org/2000/svg">
<path d="M14.8709 10.9401C15.4958 10.3156 16.5079 10.3154 17.1326 10.9401C17.7181 11.5256 17.7557 12.4523 17.2439 13.0807L17.1326 13.2018L11.8631 18.4714H20.0018C28.617 18.4716 35.6011 25.4557 35.6014 34.071V37.0007C35.6008 37.8837 34.8849 38.6001 34.0018 38.6003C33.1184 38.6003 32.4027 37.8839 32.4021 37.0007V34.071C32.4018 27.223 26.8497 21.6708 20.0018 21.6706H11.8631L17.1326 26.9401C17.7572 27.5648 17.7569 28.577 17.1326 29.2018C16.5078 29.8267 15.4957 29.8266 14.8709 29.2018L6.87089 21.2018C6.2462 20.577 6.24612 19.5649 6.87089 18.9401L14.8709 10.9401Z" fill="#333333"/>
</svg>
