<svg width="48" height="48" viewBox="0 0 48 48" fill="none" xmlns="http://www.w3.org/2000/svg">
<path fill-rule="evenodd" clip-rule="evenodd" d="M4.39844 24.0004C4.39844 13.1756 13.1737 4.40039 23.9984 4.40039C34.8232 4.40039 43.5984 13.1756 43.5984 24.0004C43.5984 29.2598 41.5248 34.0382 38.1538 37.5571C34.5881 41.2794 29.563 43.6004 23.9984 43.6004C13.1737 43.6004 4.39844 34.8252 4.39844 24.0004ZM23.9984 7.60039C14.941 7.60039 7.59844 14.9429 7.59844 24.0004C7.59844 28.5641 9.46256 32.6925 12.4709 35.6656L35.6636 12.4729C32.6905 9.46451 28.5622 7.60039 23.9984 7.60039ZM20.6978 40.0681C18.6177 39.6431 16.681 38.8243 14.969 37.693L37.6911 14.9709C38.8224 16.683 39.6411 18.6197 40.0662 20.6998C39.9964 20.7499 39.9298 20.8063 39.8671 20.869L20.8671 39.869C20.8043 39.9317 20.7479 39.9984 20.6978 40.0681ZM24.8847 40.3769C29.1864 40.148 33.0466 38.2628 35.843 35.3435C38.4756 32.5954 40.1594 28.9371 40.3749 24.8866L24.8847 40.3769Z" fill="#333333"/>
</svg>
