<svg width="48" height="48" viewBox="0 0 48 48" fill="none" xmlns="http://www.w3.org/2000/svg">
<path fill-rule="evenodd" clip-rule="evenodd" d="M29.7742 8.40387C27.5873 6.21694 24.0416 6.21694 21.8546 8.40387L7.70661 22.5519C5.5229 24.7356 5.51921 28.275 7.69835 30.4632L10.8043 33.5822C11.8355 34.6177 13.2307 35.2091 14.6919 35.2301L25.2852 35.3824C26.7982 35.4041 28.2556 34.8127 29.3255 33.7427L38.2595 24.8088C40.4465 22.6218 40.4465 19.0761 38.2595 16.8892L29.7742 8.40387ZM24.1174 10.6666C25.0546 9.72936 26.5742 9.72936 27.5115 10.6666L35.9968 19.1519C36.934 20.0892 36.934 21.6088 35.9968 22.546L27.0628 31.48C26.6042 31.9385 25.9797 32.192 25.3312 32.1827L14.7379 32.0304C14.1116 32.0214 13.5137 31.768 13.0718 31.3242L9.96581 28.2052C9.03189 27.2674 9.03347 25.7505 9.96935 24.8146L24.1174 10.6666Z" fill="#333333"/>
<path d="M20.0004 38.4001C19.1167 38.4001 18.4004 39.1165 18.4004 40.0001C18.4004 40.8838 19.1167 41.6001 20.0004 41.6001H40.0004C40.884 41.6001 41.6004 40.8838 41.6004 40.0001C41.6004 39.1165 40.884 38.4001 40.0004 38.4001H20.0004Z" fill="#333333"/>
</svg>
