<svg width="48" height="48" viewBox="0 0 48 48" fill="none" xmlns="http://www.w3.org/2000/svg">
<path fill-rule="evenodd" clip-rule="evenodd" d="M28.1964 4.53574C27.7411 4.47897 27.2833 4.6204 26.9394 4.92412C26.5954 5.22784 26.3984 5.6646 26.3984 6.12345V20.9997C26.3984 21.8833 27.1148 22.5997 27.9984 22.5997H41.9677C42.4091 22.5997 42.831 22.4173 43.1334 22.0957C43.4358 21.774 43.5918 21.3418 43.5647 20.9012C43.0419 12.4243 36.5232 5.57408 28.1964 4.53574ZM29.5984 19.3997V8.05299C34.9871 9.43968 39.1562 13.8695 40.1645 19.3997H29.5984Z" fill="#333333"/>
<path fill-rule="evenodd" clip-rule="evenodd" d="M22.645 6.96562C22.998 7.26957 23.2011 7.71229 23.2011 8.17814V25.3298L34.1215 36.0907C34.4623 36.4266 34.6349 36.8974 34.592 37.374C34.549 37.8506 34.295 38.283 33.8995 38.5525C31.0781 40.4755 27.6672 41.5997 23.9984 41.5997C14.2782 41.5997 6.39844 33.7199 6.39844 23.9997C6.39844 15.1743 12.8927 7.86865 21.3633 6.5959C21.824 6.52668 22.292 6.66167 22.645 6.96562ZM20.0011 10.1614C13.9932 11.8934 9.59844 17.4345 9.59844 23.9997C9.59844 31.9526 16.0455 38.3997 23.9984 38.3997C26.2962 38.3997 28.4656 37.8626 30.3908 36.9071L20.478 27.1391C20.1729 26.8384 20.0011 26.4279 20.0011 25.9994V10.1614Z" fill="#333333"/>
<path fill-rule="evenodd" clip-rule="evenodd" d="M28.5113 26.4102C28.7533 25.8006 29.3427 25.4004 29.9985 25.4004H41.8747C42.3336 25.4004 42.7703 25.5974 43.0741 25.9413C43.3778 26.2853 43.5192 26.743 43.4625 27.1983C43.0501 30.506 41.7201 33.5282 39.7379 36.0011C39.4586 36.3495 39.0464 36.5654 38.601 36.5965C38.1555 36.6276 37.7173 36.4711 37.3923 36.1649L28.9013 28.1649C28.424 27.7152 28.2694 27.0197 28.5113 26.4102ZM34.0299 28.6004L38.2483 32.5748C39.0022 31.3583 39.5796 30.0217 39.9453 28.6004H34.0299Z" fill="#333333"/>
</svg>
