<svg width="48" height="48" viewBox="0 0 48 48" fill="none" xmlns="http://www.w3.org/2000/svg">
<path fill-rule="evenodd" clip-rule="evenodd" d="M31.429 10.4008C30.6944 6.97152 27.6463 4.40039 23.9977 4.40039C20.349 4.40039 17.3009 6.97152 16.5663 10.4008H7.99844C7.11478 10.4008 6.39844 11.1171 6.39844 12.0008C6.39844 12.8844 7.11478 13.6008 7.99844 13.6008H8.59736L11.4864 35.2687C12.1223 40.0381 16.1907 43.5999 21.0022 43.5999H26.9939C31.8055 43.5999 35.8738 40.0381 36.5097 35.2687L39.3988 13.6008H39.9984C40.8821 13.6008 41.5984 12.8844 41.5984 12.0008C41.5984 11.1171 40.8821 10.4008 39.9984 10.4008H31.429ZM28.0979 10.4008C27.4579 8.76163 25.8634 7.60039 23.9977 7.60039C22.1319 7.60039 20.5374 8.76163 19.8975 10.4008H28.0979ZM11.8257 13.6008H36.1705L33.3378 34.8458C32.9139 38.0253 30.2016 40.3999 26.9939 40.3999H21.0022C17.7945 40.3999 15.0823 38.0254 14.6583 34.8458L11.8257 13.6008Z" fill="#333333"/>
</svg>
