<svg width="48" height="48" viewBox="0 0 48 48" fill="none" xmlns="http://www.w3.org/2000/svg">
<path d="M33.6142 27.7708L38.1715 23.2134C38.5619 22.823 38.7812 22.2935 38.7812 21.7413L38.7812 9.46047C38.7812 9.3274 38.6733 9.21953 38.5403 9.21953L26.2585 9.21954C25.7064 9.21954 25.1769 9.43888 24.7864 9.82931L20.2295 14.3862L17.9668 12.1235L22.5237 7.56657C23.5142 6.57602 24.8577 6.01954 26.2585 6.01954L38.5403 6.01953C40.4407 6.01953 41.9812 7.56009 41.9812 9.46047L41.9812 21.7413C41.9812 23.1422 41.4247 24.4856 40.4342 25.4761L35.8769 30.0336L33.6142 27.7708Z" fill="#333333"/>
<path fill-rule="evenodd" clip-rule="evenodd" d="M13.9152 16.175L7.33609 22.7542C5.27339 24.8169 5.27338 28.1612 7.33609 30.2239L17.7766 40.6644C19.8393 42.7271 23.1837 42.7271 25.2464 40.6644L31.8254 34.0852L36.871 39.1308C37.4958 39.7556 38.5089 39.7556 39.1337 39.1308C39.7586 38.5059 39.7586 37.4929 39.1337 36.868L11.1337 8.86804C10.5089 8.2432 9.49581 8.2432 8.87097 8.86804C8.24613 9.49288 8.24613 10.5059 8.87097 11.1308L13.9152 16.175ZM16.178 18.4378L29.5626 31.8224L22.9836 38.4016C22.1706 39.2147 20.8524 39.2147 20.0394 38.4017L9.59883 27.9611C8.78581 27.1481 8.78581 25.8299 9.59883 25.0169L16.178 18.4378Z" fill="#333333"/>
<path fill-rule="evenodd" clip-rule="evenodd" d="M26.4023 16.9994C26.4023 14.4589 28.4618 12.3994 31.0023 12.3994C33.5429 12.3994 35.6023 14.4589 35.6023 16.9994C35.6023 19.5399 33.5429 21.5994 31.0023 21.5994C28.4618 21.5994 26.4023 19.5399 26.4023 16.9994ZM31.0023 15.5994C30.2291 15.5994 29.6023 16.2262 29.6023 16.9994C29.6023 17.7726 30.2291 18.3994 31.0023 18.3994C31.7755 18.3994 32.4023 17.7726 32.4023 16.9994C32.4023 16.2262 31.7755 15.5994 31.0023 15.5994Z" fill="#333333"/>
</svg>
