<svg width="48" height="48" viewBox="0 0 48 48" fill="none" xmlns="http://www.w3.org/2000/svg">
<path fill-rule="evenodd" clip-rule="evenodd" d="M28.396 5.96457C29.132 4.93424 30.617 4.81134 31.5123 5.70666L42.5804 16.7748C43.4757 17.6701 43.3528 19.1551 42.3225 19.891L34.4197 25.5359C34.2435 25.6617 34.1117 25.8402 34.0432 26.0456L30.8503 35.6242C30.3687 37.0692 28.5347 37.5022 27.4576 36.4251L20.6485 29.616L12.1338 38.1317C11.509 38.7565 10.4959 38.7566 9.87103 38.1318C9.24616 37.507 9.24611 36.4939 9.87091 35.8691L18.3858 27.3533L11.8619 20.8295C10.7849 19.7524 11.2178 17.9184 12.6628 17.4367L22.2415 14.2438C22.4469 14.1754 22.6253 14.0436 22.7512 13.8674L28.396 5.96457ZM25.3551 15.7273L30.2103 8.93013L39.3569 18.0768L32.5597 22.9319C31.8332 23.4509 31.2898 24.1867 31.0074 25.0337L28.4035 32.8455L15.4415 19.8836L23.2534 17.2796C24.1004 16.9973 24.8362 16.4539 25.3551 15.7273Z" fill="#333333"/>
</svg>
