<svg width="48" height="48" viewBox="0 0 48 48" fill="none" xmlns="http://www.w3.org/2000/svg">
<path fill-rule="evenodd" clip-rule="evenodd" d="M24.0018 3.53906C24.8854 3.53906 25.6012 4.2552 25.6014 5.13867V21.9395C25.6013 22.3298 25.4548 22.6813 25.2225 22.959L43.1327 40.8691C43.7573 41.494 43.7574 42.5061 43.1327 43.1309C42.5079 43.7556 41.4958 43.7555 40.871 43.1309L35.0057 37.2656C31.9921 39.6862 28.1684 41.1386 24.0018 41.1387C14.2816 41.1387 6.40222 33.2593 6.40222 23.5391C6.4024 19.3719 7.85202 15.5448 10.2714 12.5312L4.87097 7.13086C4.24613 6.50602 4.24613 5.49398 4.87097 4.86914C5.49582 4.24436 6.50787 4.24432 7.13269 4.86914L22.4022 20.1387V5.13867C22.4024 4.25529 23.1184 3.53921 24.0018 3.53906ZM12.5507 14.8105C10.7009 17.2331 9.60161 20.2576 9.60144 23.5391C9.60144 31.492 16.0489 37.9395 24.0018 37.9395C27.2842 37.9394 30.3052 36.836 32.7264 34.9863L12.5507 14.8105Z" fill="#333333"/>
<path d="M30.6171 8.87891C31.0596 8.11457 32.038 7.8529 32.8026 8.29492C38.0589 11.3355 41.6012 17.0229 41.6014 23.5391C41.6014 26.9124 40.6493 30.0627 39.0038 32.7402L36.6639 30.4004C37.7715 28.3606 38.4022 26.0233 38.4022 23.5391C38.4019 18.2115 35.5091 13.5566 31.2011 11.0645C30.4364 10.622 30.1748 9.6437 30.6171 8.87891Z" fill="#333333"/>
<path d="M15.2011 8.29492C15.9657 7.85299 16.9441 8.11453 17.3866 8.87891C17.7646 9.5325 17.6262 10.3402 17.1014 10.8379L14.7987 8.53516C14.9316 8.45349 15.0659 8.37312 15.2011 8.29492Z" fill="#333333"/>
</svg>
