<svg width="48" height="48" viewBox="0 0 48 48" fill="none" xmlns="http://www.w3.org/2000/svg">
<path d="M35.998 8.40039C39.0908 8.40039 41.5977 10.9072 41.5977 14V17C41.5977 17.8837 40.8817 18.5996 39.998 18.5996C39.1144 18.5996 38.3984 17.8837 38.3984 17V14C38.3984 12.6745 37.3235 11.5996 35.998 11.5996H25.5977V36.4004H35.998C37.3235 36.4004 38.3984 35.3255 38.3984 34V31C38.3984 30.1163 39.1144 29.4004 39.998 29.4004C40.8817 29.4004 41.5977 30.1163 41.5977 31V34C41.5977 37.0928 39.0908 39.5996 35.998 39.5996H11.998C8.90525 39.5996 6.39844 37.0928 6.39844 34V31C6.39844 30.1163 7.11439 29.4004 7.99805 29.4004C8.8817 29.4004 9.59766 30.1163 9.59766 31V34C9.59766 35.3255 10.6726 36.4004 11.998 36.4004H22.3984V11.5996H11.998C10.6726 11.5996 9.59766 12.6745 9.59766 14V17C9.59766 17.8837 8.8817 18.5996 7.99805 18.5996C7.11439 18.5996 6.39844 17.8837 6.39844 17V14C6.39844 10.9072 8.90525 8.40039 11.998 8.40039H35.998Z" fill="#333333"/>
<path d="M12.8672 18.3828C13.4919 17.7587 14.5042 17.7587 15.1289 18.3828L19.6152 22.8691C20.2394 23.4938 20.2394 24.5062 19.6152 25.1309L15.1289 29.6172C14.5042 30.2413 13.4919 30.2413 12.8672 29.6172C12.2425 28.9925 12.2429 27.9803 12.8672 27.3555L14.623 25.5996H5.51367C4.63002 25.5996 3.91406 24.8837 3.91406 24C3.91406 23.1163 4.63002 22.4004 5.51367 22.4004H14.623L12.8672 20.6445C12.2429 20.0197 12.2425 19.0075 12.8672 18.3828Z" fill="#333333"/>
<path d="M32.8672 18.3828C33.4919 17.7587 34.5042 17.7587 35.1289 18.3828C35.7536 19.0075 35.7532 20.0197 35.1289 20.6445L33.373 22.4004H42.4824C43.3661 22.4004 44.082 23.1163 44.082 24C44.082 24.8837 43.3661 25.5996 42.4824 25.5996H33.373L35.1289 27.3555C35.7532 27.9804 35.7536 28.9925 35.1289 29.6172C34.5042 30.2413 33.4919 30.2413 32.8672 29.6172L28.3809 25.1309C27.7567 24.5062 27.7567 23.4938 28.3809 22.8691L32.8672 18.3828Z" fill="#333333"/>
</svg>
