<svg width="48" height="48" viewBox="0 0 48 48" fill="none" xmlns="http://www.w3.org/2000/svg">
<path d="M34.1791 16.3427C34.2092 15.8914 33.9372 15.4747 33.512 15.3206C33.0868 15.1665 32.611 15.3122 32.345 15.678L22.1922 29.638C21.9676 29.9468 21.9353 30.3555 22.1086 30.6958C22.2819 31.0361 22.6315 31.2504 23.0133 31.2504H31.4411L30.8843 39.0464C30.8523 39.4942 31.1182 39.9099 31.5382 40.0685C31.9582 40.2272 32.4325 40.0912 32.7045 39.7341L42.8573 26.4086C43.0912 26.1016 43.1308 25.6886 42.9595 25.3427C42.7882 24.9969 42.4356 24.778 42.0497 24.778H33.6167L34.1791 16.3427Z" fill="#333333"/>
<path d="M4.39844 14.0004C4.39844 10.9076 6.90564 8.40039 9.99844 8.40039H35.9984C39.0912 8.40039 41.5984 10.9076 41.5984 14.0004V21.7783H38.3984V14.0004C38.3984 12.6749 37.3239 11.6004 35.9984 11.6004H9.99844C8.67295 11.6004 7.59844 12.6749 7.59844 14.0004V29.4004H19.0858C18.898 30.2843 19.0103 31.2229 19.4353 32.0574C19.5327 32.2488 19.6443 32.4301 19.7684 32.6004H7.59844V34.0004C7.59844 35.3259 8.67295 36.4004 9.99844 36.4004H28.0657L27.8919 38.8329C27.8734 39.0924 27.8801 39.3492 27.9104 39.6004H9.99844C6.90564 39.6004 4.39844 37.0932 4.39844 34.0004V14.0004Z" fill="#333333"/>
</svg>
