<svg width="48" height="48" viewBox="0 0 48 48" fill="none" xmlns="http://www.w3.org/2000/svg">
<path fill-rule="evenodd" clip-rule="evenodd" d="M23.9984 7.5999C14.941 7.5999 7.59844 14.9424 7.59844 23.9999C7.59844 33.0574 14.941 40.3999 23.9984 40.3999C33.0559 40.3999 40.3984 33.0574 40.3984 23.9999C40.3984 14.9424 33.0559 7.5999 23.9984 7.5999ZM4.39844 23.9999C4.39844 13.1751 13.1737 4.3999 23.9984 4.3999C34.8232 4.3999 43.5984 13.1751 43.5984 23.9999C43.5984 34.8247 34.8232 43.5999 23.9984 43.5999C13.1737 43.5999 4.39844 34.8247 4.39844 23.9999ZM23.9984 33.5999C24.8821 33.5999 25.5984 32.8836 25.5984 31.9999V21.9999C25.5984 21.1162 24.8821 20.3999 23.9984 20.3999C23.1148 20.3999 22.3984 21.1162 22.3984 21.9999V31.9999C22.3984 32.8836 23.1148 33.5999 23.9984 33.5999ZM21.4984 15.4999C21.4984 14.1249 22.6234 12.9999 23.9984 12.9999C25.3734 12.9999 26.4984 14.1249 26.4984 15.4999C26.4984 16.8749 25.3734 17.9999 23.9984 17.9999C22.6234 17.9999 21.4984 16.8749 21.4984 15.4999Z" fill="#333333"/>
</svg>
