<svg width="48" height="48" viewBox="0 0 48 48" fill="none" xmlns="http://www.w3.org/2000/svg">
<path fill-rule="evenodd" clip-rule="evenodd" d="M33.0512 13.7953C33.7163 14.3772 33.7836 15.388 33.2018 16.053C32.6199 16.718 31.609 16.7854 30.944 16.2035L25.5976 11.5254V29.9994C25.5976 30.8831 24.8813 31.5994 23.9976 31.5994C23.114 31.5994 22.3976 30.8831 22.3976 29.9994L22.3976 11.5254L17.0512 16.2035C16.3862 16.7854 15.3754 16.718 14.7935 16.053C14.2116 15.388 14.279 14.3772 14.944 13.7953L22.944 6.79529C23.5473 6.26746 24.448 6.26746 25.0512 6.79529L33.0512 13.7953ZM10.5984 25.0002C10.5984 24.1165 9.88209 23.4002 8.99844 23.4002C8.11478 23.4002 7.39844 24.1165 7.39844 25.0002V36.0002C7.39844 39.093 9.90564 41.6002 12.9984 41.6002H34.9984C38.0912 41.6002 40.5984 39.093 40.5984 36.0002V25.0002C40.5984 24.1165 39.8821 23.4002 38.9984 23.4002C38.1148 23.4002 37.3984 24.1165 37.3984 25.0002V36.0002C37.3984 37.3257 36.3239 38.4002 34.9984 38.4002H12.9984C11.673 38.4002 10.5984 37.3257 10.5984 36.0002V25.0002Z" fill="#333333"/>
</svg>
