<svg width="48" height="48" viewBox="0 0 48 48" fill="none" xmlns="http://www.w3.org/2000/svg">
<path fill-rule="evenodd" clip-rule="evenodd" d="M32.998 22C34.0853 22 34.6302 22.0008 35.0586 22.168C35.3407 22.278 35.5981 22.4403 35.8145 22.6445C36.0306 22.8488 36.2028 23.0921 36.3203 23.3594C36.4289 23.6045 36.4709 23.8911 36.4883 24.3086C36.496 24.6103 36.5832 24.9058 36.7441 25.166C36.9052 25.4264 37.1343 25.6436 37.4082 25.7969C37.6876 25.9445 38.0025 26.0219 38.3223 26.0234C38.642 26.0249 38.9573 25.9496 39.2383 25.8047C39.6294 25.609 39.9133 25.502 40.1934 25.4668C40.8063 25.3904 41.4258 25.5469 41.918 25.9023C42.2861 26.1696 42.5574 26.6124 43.1016 27.5C43.6458 28.3877 43.9171 28.8322 43.9785 29.2656C44.0184 29.5523 43.9972 29.8439 43.918 30.123C43.8387 30.4022 43.7019 30.6639 43.5156 30.8926C43.3431 31.1036 43.1014 31.2808 42.7266 31.5039C42.1754 31.8295 41.8203 32.3862 41.8203 33C41.8203 33.6138 42.1762 34.1713 42.7285 34.498C42.8225 34.5539 42.9081 34.6068 42.9863 34.6582C43.0639 34.7091 43.1351 34.7577 43.1992 34.8066L43.2715 34.8672C43.3667 34.9459 43.447 35.0228 43.5156 35.1074C43.702 35.336 43.8385 35.5978 43.918 35.877C43.9974 36.1561 44.0183 36.4476 43.9785 36.7344C43.9171 37.1689 43.6458 37.6123 43.1016 38.5C42.5586 39.3876 42.2861 39.8315 41.918 40.0977C41.4271 40.4529 40.807 40.6101 40.1934 40.5332C39.9133 40.498 39.6294 40.391 39.2383 40.1953C38.9574 40.0505 38.6419 39.975 38.3223 39.9766C38.0031 39.9781 37.6892 40.0559 37.4102 40.2031C36.8465 40.5099 36.5117 41.0779 36.4883 41.6914C36.4709 42.1089 36.4289 42.3955 36.3203 42.6406C36.0826 43.1807 35.6285 43.6095 35.0586 43.832C34.6302 43.9992 34.0853 44 32.998 44C31.9109 44 31.3659 43.9992 30.9375 43.832C30.366 43.6086 29.9119 43.1793 29.6758 42.6406C29.5672 42.3955 29.5252 42.1089 29.5078 41.6914C29.4832 41.0779 29.1504 40.511 28.5879 40.2031C28.3085 40.0555 27.9935 39.9781 27.6738 39.9766C27.3542 39.9751 27.0387 40.0504 26.7578 40.1953C26.3667 40.3909 26.0828 40.498 25.8027 40.5332C25.1892 40.609 24.569 40.4529 24.0781 40.0977C23.71 39.8303 23.4386 39.3876 22.8945 38.5C22.3503 37.6123 22.0789 37.1678 22.0176 36.7344C21.9777 36.4477 21.9988 36.1561 22.0781 35.877C22.1574 35.5978 22.2942 35.3361 22.4805 35.1074C22.6529 34.8964 22.8947 34.7192 23.2695 34.4961C23.8207 34.1705 24.1758 33.6138 24.1758 33C24.1758 32.3863 23.8217 31.8287 23.2695 31.502C22.8955 31.2798 22.6518 31.1038 22.4805 30.8926C22.1032 30.4296 21.9366 29.844 22.0176 29.2656C22.0789 28.8311 22.3503 28.3877 22.8945 27.5C23.4375 26.6124 23.71 26.1686 24.0781 25.9023C24.5702 25.5469 25.1898 25.3904 25.8027 25.4668C26.0828 25.502 26.3667 25.6091 26.7578 25.8047C27.0387 25.9495 27.3542 26.025 27.6738 26.0234C27.993 26.0219 28.3069 25.9441 28.5859 25.7969C28.8599 25.6439 29.0887 25.4261 29.25 25.166C29.4111 24.9058 29.5 24.6104 29.5078 24.3086C29.5252 23.8922 29.5672 23.6045 29.6758 23.3594C29.9135 22.8193 30.3676 22.3905 30.9375 22.168C31.3671 22.0008 31.9109 22 32.998 22ZM32.998 29.6992C31.0644 29.6993 29.498 31.1773 29.498 33C29.498 34.3673 30.3801 35.5403 31.6367 36.041C31.7599 36.0902 31.8876 36.1303 32.0176 36.166C32.3289 36.2516 32.6575 36.3008 32.998 36.3008C34.9317 36.3008 36.498 34.8227 36.498 33C36.498 31.1773 34.9305 29.6992 32.998 29.6992Z" fill="#333333"/>
<path d="M37.998 7.40039C41.0908 7.40039 43.5977 9.90721 43.5977 13V23.1797L43.3438 23.0156C42.4477 22.4916 41.4257 22.2338 40.3984 22.252V13C40.3984 11.6745 39.3235 10.5996 37.998 10.5996H9.99805C8.67256 10.5996 7.59766 11.6745 7.59766 13V28.4004H18.9336C18.9019 28.5344 18.8701 28.673 18.8496 28.8184V28.8223C18.7152 29.7824 18.8546 30.7367 19.2168 31.5996H7.59766V33C7.59766 34.3255 8.67256 35.4004 9.99805 35.4004H18.9102C18.7921 35.9838 18.7671 36.5829 18.8496 37.1758V37.1836C18.9286 37.7412 19.1016 38.2169 19.2773 38.5996H9.99805C6.90525 38.5996 4.39844 36.0928 4.39844 33V13C4.39844 9.90721 6.90525 7.40039 9.99805 7.40039H37.998Z" fill="#333333"/>
</svg>
