<svg width="48" height="48" viewBox="0 0 48 48" fill="none" xmlns="http://www.w3.org/2000/svg">
<path fill-rule="evenodd" clip-rule="evenodd" d="M17.9984 6.40039C18.8821 6.40039 19.5984 7.11674 19.5984 8.00039V10.4004H28.3984V8.00039C28.3984 7.11674 29.1148 6.40039 29.9984 6.40039C30.8821 6.40039 31.5984 7.11674 31.5984 8.00039V10.4004H35.9984C39.0912 10.4004 41.5984 12.9076 41.5984 16.0004V24L38.3984 23.6004V21.6004H9.59844V36.0004C9.59844 37.3259 10.673 38.4004 11.9984 38.4004H21.5984L22.998 41.6004H11.9984C8.90564 41.6004 6.39844 39.0932 6.39844 36.0004V16.0004C6.39844 12.9076 8.90564 10.4004 11.9984 10.4004H16.3984V8.00039C16.3984 7.11674 17.1148 6.40039 17.9984 6.40039ZM16.3984 13.6004H11.9984C10.673 13.6004 9.59844 14.6749 9.59844 16.0004V18.4004H38.3984V16.0004C38.3984 14.6749 37.3239 13.6004 35.9984 13.6004H31.5984V15.0004C31.5984 15.884 30.8821 16.6004 29.9984 16.6004C29.1148 16.6004 28.3984 15.884 28.3984 15.0004V13.6004H19.5984V15.0004C19.5984 15.884 18.8821 16.6004 17.9984 16.6004C17.1148 16.6004 16.3984 15.884 16.3984 15.0004V13.6004Z" fill="#333333"/>
<path d="M17.998 29C16.898 29 15.998 28.1 15.998 27C15.998 25.9 16.898 25 17.998 25C19.098 25 19.998 25.9 19.998 27C19.998 28.1 19.098 29 17.998 29Z" fill="#333333"/>
<path d="M15.998 33C15.998 34.1 16.898 35 17.998 35C19.098 35 19.998 34.1 19.998 33C19.998 31.9 19.098 31 17.998 31C16.898 31 15.998 31.9 15.998 33Z" fill="#333333"/>
<path fill-rule="evenodd" clip-rule="evenodd" d="M41.0689 26.9287C42.8784 28.7384 43.9977 31.2383 43.9977 33.9996C43.9977 39.5225 39.5205 43.9996 33.9977 43.9996C31.2363 43.9996 28.7364 42.8804 26.9268 41.0709C25.1173 39.2612 23.998 36.7613 23.998 34C23.998 28.4772 28.4752 24 33.998 24C36.7594 24 39.2593 25.1192 41.0689 26.9287ZM33.9979 27.6998C34.7158 27.6998 35.2979 28.2818 35.2979 28.9998V33.6998H37.9979C38.7158 33.6998 39.2979 34.2818 39.2979 34.9998C39.2979 35.7178 38.7158 36.2998 37.9979 36.2998H33.9979C33.2799 36.2998 32.6979 35.7178 32.6979 34.9998V28.9998C32.6979 28.2818 33.2799 27.6998 33.9979 27.6998Z" fill="#333333"/>
</svg>
