<svg width="48" height="48" viewBox="0 0 48 48" fill="none" xmlns="http://www.w3.org/2000/svg">
<path d="M17.9984 23.3996C17.1148 23.3996 16.3984 24.116 16.3984 24.9996C16.3984 25.8833 17.1148 26.5996 17.9984 26.5996L33.9984 26.5996C34.8821 26.5996 35.5984 25.8833 35.5984 24.9996C35.5984 24.116 34.8821 23.3996 33.9984 23.3996L17.9984 23.3996Z" fill="#333333"/>
<path fill-rule="evenodd" clip-rule="evenodd" d="M8.99844 15.4004C7.01021 15.4004 5.39844 17.0122 5.39844 19.0004V25.0424C5.39844 26.0615 5.83041 27.0329 6.58717 27.7155L13.0401 33.5363C13.7016 34.1329 14.5607 34.4631 15.4514 34.4631H38.9984C40.9867 34.4631 42.5984 32.8514 42.5984 30.8631V19.0004C42.5984 17.0122 40.9867 15.4004 38.9984 15.4004H8.99844ZM8.59844 19.0004C8.59844 18.7795 8.77752 18.6004 8.99844 18.6004H38.9984C39.2193 18.6004 39.3984 18.7795 39.3984 19.0004V30.8631C39.3984 31.084 39.2193 31.2631 38.9984 31.2631H15.4514C15.3524 31.2631 15.257 31.2264 15.1835 31.1602L8.73052 25.3394C8.64643 25.2636 8.59844 25.1556 8.59844 25.0424V19.0004Z" fill="#333333"/>
</svg>
