<svg width="48" height="48" viewBox="0 0 48 48" fill="none" xmlns="http://www.w3.org/2000/svg">
<path d="M30.1231 4C30.445 6.18672 29.555 8.32899 28.3808 9.84467C27.1246 11.4704 24.9594 12.7278 22.8615 12.6622C22.4786 10.5686 23.4591 8.41155 24.6522 6.9615C25.961 5.36115 28.2041 4.13336 30.1231 4Z" fill="#333333"/>
<path d="M36.4264 34.7778C37.508 33.1203 37.912 32.2841 38.7516 30.4128C32.6452 28.0906 31.6667 19.4093 37.71 16.0774C35.8667 13.7658 33.2764 12.4258 30.8314 12.4258C29.0696 12.4258 27.8625 12.8855 26.7651 13.3035C25.8506 13.6518 25.0123 13.9711 23.9927 13.9711C22.8909 13.9711 21.9152 13.6213 20.8936 13.2549C19.771 12.8524 18.5928 12.43 17.131 12.43C14.3871 12.43 11.4665 14.1066 9.61477 16.9728C7.01188 21.0097 7.45586 28.5986 11.6769 35.0636C13.1856 37.3773 15.2014 39.9768 17.838 40.0001C18.932 40.011 19.66 39.6844 20.4478 39.3311C21.3495 38.9267 22.3295 38.4871 24.0264 38.4781C25.7333 38.4678 26.6979 38.9128 27.5876 39.3231C28.3552 39.6772 29.067 40.0055 30.1517 39.9937C32.7904 39.9726 34.9177 37.0915 36.4264 34.7778Z" fill="#333333"/>
</svg>
