<svg width="48" height="48" viewBox="0 0 48 48" fill="none" xmlns="http://www.w3.org/2000/svg">
<path fill-rule="evenodd" clip-rule="evenodd" d="M19.5178 9.49894C19.3014 8.84328 18.6889 8.40039 17.9984 8.40039C17.308 8.40039 16.6954 8.84329 16.479 9.49894L10.4174 27.8655L7.86889 36.4004H5.99844C5.11478 36.4004 4.39844 37.1167 4.39844 38.0004C4.39844 38.884 5.11478 39.6004 5.99844 39.6004H11.944C12.8277 39.6004 13.544 38.884 13.544 38.0004C13.544 37.1167 12.8277 36.4004 11.944 36.4004H11.2085L13.136 29.9452H22.8608L24.7884 36.4004H24.0529C23.1692 36.4004 22.4529 37.1167 22.4529 38.0004C22.4529 38.884 23.1692 39.6004 24.0529 39.6004H29.9984C30.8821 39.6004 31.5984 38.884 31.5984 38.0004C31.5984 37.1167 30.8821 36.4004 29.9984 36.4004H28.128L25.5794 27.8655L19.5178 9.49894ZM17.9984 15.1056L21.8399 26.7452H14.1569L17.9984 15.1056Z" fill="#333333"/>
<path d="M28.9971 22.4C28.1135 22.4 27.3971 23.1163 27.3971 24C27.3971 24.8837 28.1135 25.6 28.9971 25.6H41.9971C42.8808 25.6 43.5971 24.8837 43.5971 24C43.5971 23.1163 42.8808 22.4 41.9971 22.4L28.9971 22.4Z" fill="#333333"/>
</svg>
