<svg width="48" height="48" viewBox="0 0 48 48" fill="none" xmlns="http://www.w3.org/2000/svg">
<path d="M37 13.5C34.5147 13.5 32.5 15.5147 32.5 18C32.5 20.4853 34.5147 22.5 37 22.5C39.4853 22.5 41.5 20.4853 41.5 18C41.5 15.5147 39.4853 13.5 37 13.5Z" fill="#333333"/>
<path d="M8.47698 32.6333C8.47698 28.838 10.9652 26.1216 13.5297 24.5049C11.2291 24.5641 9.09006 25.1206 7.4518 26.0567C5.75929 27.0239 4.31705 28.5886 4.31705 30.6407L4.31674 30.7954C4.31329 31.9566 4.30785 33.7807 5.87614 35.0781C6.61597 35.6902 7.59579 36.0952 8.80877 36.3583C8.46827 35.0082 8.47311 33.7702 8.47623 32.9721L8.47671 32.8256L8.47698 32.6333Z" fill="#333333"/>
<path d="M40.4099 32.6336C40.4099 28.8813 37.9778 26.1836 35.4443 24.5605C37.3712 24.7309 39.1438 25.2544 40.5483 26.057C42.2408 27.0242 43.683 28.5889 43.683 30.641L43.6833 30.7957C43.6868 31.9569 43.6922 33.781 42.1239 35.0784C41.5873 35.5224 40.9243 35.8575 40.1377 36.1084C40.4181 34.8564 40.4136 33.7209 40.4107 32.9724L40.4102 32.8259L40.4099 32.6336Z" fill="#333333"/>
<path d="M6.5 18C6.5 15.5147 8.51472 13.5 11 13.5C13.4853 13.5 15.5 15.5147 15.5 18C15.5 20.4853 13.4853 22.5 11 22.5C8.51472 22.5 6.5 20.4853 6.5 18Z" fill="#333333"/>
<path fill-rule="evenodd" clip-rule="evenodd" d="M24.2207 6.40039C19.9006 6.40039 16.3984 9.90252 16.3984 14.2226C16.3984 18.5427 19.9006 22.0448 24.2207 22.0448C28.5408 22.0448 32.0429 18.5427 32.0429 14.2226C32.0429 9.90252 28.5408 6.40039 24.2207 6.40039ZM19.5984 14.2226C19.5984 11.6698 21.6679 9.60039 24.2207 9.60039C26.7734 9.60039 28.8429 11.6698 28.8429 14.2226C28.8429 16.7754 26.7734 18.8448 24.2207 18.8448C21.6679 18.8448 19.5984 16.7754 19.5984 14.2226Z" fill="#333333"/>
<path fill-rule="evenodd" clip-rule="evenodd" d="M24.4433 24.1777C20.7802 24.1777 17.385 25.0229 14.8501 26.4715C12.3605 27.8942 10.3989 30.1033 10.3989 32.8888L10.3987 33.0855C10.3957 34.894 10.3916 37.3769 12.5345 39.1498C13.5886 40.0218 15.0356 40.6194 16.9266 41.0083C18.8239 41.3984 21.2763 41.6 24.4433 41.6C27.6104 41.6 30.0628 41.3984 31.9601 41.0083C33.8511 40.6194 35.2981 40.0218 36.3521 39.1498C38.4951 37.3769 38.491 34.894 38.488 33.0855L38.4878 32.8888C38.4878 30.1033 36.5261 27.8942 34.0366 26.4715C31.5016 25.0229 28.1065 24.1777 24.4433 24.1777ZM13.5989 32.8888C13.5989 31.7474 14.4233 30.4011 16.4378 29.2499C18.4069 28.1246 21.234 27.3777 24.4433 27.3777C27.6526 27.3777 30.4797 28.1246 32.4489 29.2499C34.4634 30.4011 35.2878 31.7474 35.2878 32.8888C35.2878 34.9942 35.2017 35.9484 34.3123 36.6842C33.8108 37.0991 32.9245 37.543 31.3155 37.8739C29.7128 38.2034 27.4985 38.4 24.4433 38.4C21.3881 38.4 19.1739 38.2034 17.5712 37.8739C15.9622 37.543 15.0759 37.0991 14.5743 36.6842C13.685 35.9484 13.5989 34.9942 13.5989 32.8888Z" fill="#333333"/>
</svg>
