<svg width="48" height="48" viewBox="0 0 48 48" fill="none" xmlns="http://www.w3.org/2000/svg">
<path d="M11.3641 22.0903C11.3641 30.0252 16.1213 37.2915 22.4644 40.0952C22.6369 41.5171 23.141 42.8367 23.897 43.9745C14.8698 41.6298 8.16406 32.1863 8.16406 22.0903V15.8635C8.16406 14.303 9.07161 12.8849 10.4887 12.2313L22.322 6.77305C23.3851 6.28268 24.6097 6.28268 25.6728 6.77305L37.5061 12.2313C38.9232 12.8849 39.8307 14.303 39.8307 15.8635V19.4062C38.8723 18.795 37.7903 18.3602 36.6307 18.1477V15.8635C36.6307 15.5514 36.4492 15.2678 36.1658 15.1371L24.3325 9.67883C24.1199 9.58075 23.8749 9.58075 23.6623 9.67883L11.829 15.1371C11.5456 15.2678 11.3641 15.5514 11.3641 15.8635V22.0903Z" fill="#333333"/>
<path d="M29.4228 26.1219C29.4228 23.2931 31.7159 21 34.5446 21C37.3733 21 39.6665 23.2931 39.6665 26.1219C39.6665 28.9506 37.3733 31.2437 34.5446 31.2437C31.7159 31.2437 29.4228 28.9506 29.4228 26.1219Z" fill="#333333"/>
<path d="M28.3091 33.9848C29.9594 33.0418 32.1659 32.4934 34.5434 32.4934C36.9208 32.4934 39.1273 33.0418 40.7777 33.9848C42.3968 34.9101 43.688 36.3558 43.688 38.1899L43.6882 38.3215C43.6903 39.4874 43.6933 41.1215 42.2838 42.2875C41.5912 42.8605 40.6444 43.25 39.4161 43.5026C38.1835 43.756 36.5932 43.8864 34.5434 43.8864C32.4936 43.8864 30.9033 43.756 29.6707 43.5026C28.4424 43.25 27.4956 42.8605 26.8029 42.2875C25.3935 41.1215 25.3965 39.4874 25.3986 38.3215L25.3988 38.1899C25.3988 36.3558 26.69 34.9101 28.3091 33.9848Z" fill="#333333"/>
</svg>
