<svg width="48" height="48" viewBox="0 0 48 48" fill="none" xmlns="http://www.w3.org/2000/svg">
<path fill-rule="evenodd" clip-rule="evenodd" d="M36.998 17.4004C40.0908 17.4004 42.5977 19.9072 42.5977 23V37C42.5977 40.0928 40.0908 42.5996 36.998 42.5996H10.998C7.90525 42.5996 5.39844 40.0928 5.39844 37V23C5.39844 19.9072 7.90525 17.4004 10.998 17.4004H36.998ZM10.998 20.5996C9.67256 20.5996 8.59766 21.6745 8.59766 23V37C8.59766 38.3255 9.67256 39.4004 10.998 39.4004H36.998C38.3235 39.4004 39.3984 38.3255 39.3984 37V23C39.3984 21.6745 38.3235 20.5996 36.998 20.5996H10.998Z" fill="#333333"/>
<path d="M34.8984 11.4004C36.9416 11.4006 38.5974 13.0565 38.5977 15.0996H35.3984C35.3982 14.8238 35.1743 14.5999 34.8984 14.5996H13.0977C12.8218 14.5999 12.5979 14.8238 12.5977 15.0996H9.39844C9.39869 13.0565 11.0545 11.4006 13.0977 11.4004H34.8984Z" fill="#333333"/>
<path d="M31.8984 5.40039C33.9416 5.40064 35.5974 7.05648 35.5977 9.09961H32.3984C32.3982 8.82379 32.1743 8.59986 31.8984 8.59961H16.0977C15.8218 8.59986 15.5979 8.82379 15.5977 9.09961H12.3984C12.3987 7.05648 14.0545 5.40064 16.0977 5.40039H31.8984Z" fill="#333333"/>
</svg>
