<svg width="48" height="48" viewBox="0 0 48 48" fill="none" xmlns="http://www.w3.org/2000/svg">
<path d="M32.998 32.7695C33.8817 32.7695 34.5977 33.4855 34.5977 34.3691C34.5971 35.2523 33.8814 35.9688 32.998 35.9688H28.998C28.1147 35.9688 27.399 35.2523 27.3984 34.3691C27.3984 33.4855 28.1144 32.7695 28.998 32.7695H32.998Z" fill="#333333"/>
<path d="M36.998 26.0332C37.8817 26.0332 38.5977 26.7492 38.5977 27.6328C38.5971 28.516 37.8814 29.2324 36.998 29.2324H28.998C28.1147 29.2324 27.399 28.516 27.3984 27.6328C27.3984 26.7492 28.1144 26.0332 28.998 26.0332H36.998Z" fill="#333333"/>
<path fill-rule="evenodd" clip-rule="evenodd" d="M25.7109 4.10547C27.1464 4.106 28.3105 5.26946 28.3105 6.70508V7.10547H29.7109C32.8033 7.106 35.3105 9.61261 35.3105 12.7051V18H37.998C41.3118 18 43.998 20.6863 43.998 24V38C43.998 41.2102 41.4769 43.8316 38.3066 43.9922L37.998 44H27.998L27.6895 43.9922C26.1883 43.9161 24.8355 43.2854 23.8242 42.3047H9.71094C6.61814 42.3047 4.10938 39.7979 4.10938 36.7051V12.7051C4.10938 9.61228 6.61814 7.10547 9.71094 7.10547H11.1113V6.70508C11.1113 5.26914 12.275 4.10547 13.7109 4.10547H25.7109ZM27.998 21.1992C26.4516 21.1992 25.1973 22.4536 25.1973 24V38C25.1973 39.5464 26.4517 40.8008 27.998 40.8008H37.998C39.5444 40.8008 40.7988 39.5464 40.7988 38V24C40.7988 22.4536 39.5444 21.1992 37.998 21.1992H27.998ZM9.71094 10.3047C8.38545 10.3047 7.31055 11.3796 7.31055 12.7051V36.7051C7.31055 38.0306 8.38545 39.1055 9.71094 39.1055H22.1055C22.0569 38.845 22.0196 38.5797 22.0059 38.3086L21.998 38V24C21.998 20.6863 24.6843 18 27.998 18H32.1113V12.7051C32.1113 11.3799 31.036 10.3052 29.7109 10.3047H28.3105V10.7051C28.3105 12.1407 27.1464 13.3042 25.7109 13.3047H13.7109C12.275 13.3047 11.1113 12.141 11.1113 10.7051V10.3047H9.71094ZM14.3105 10.1055H25.1113V7.30469H14.3105V10.1055Z" fill="#333333"/>
</svg>
