<svg width="48" height="48" viewBox="0 0 48 48" fill="none" xmlns="http://www.w3.org/2000/svg">
<path d="M13.5984 23.0004C13.5984 22.1167 12.8821 21.4004 11.9984 21.4004C11.1148 21.4004 10.3984 22.1167 10.3984 23.0004V27.0004C10.3984 27.884 11.1148 28.6004 11.9984 28.6004C12.8821 28.6004 13.5984 27.884 13.5984 27.0004V23.0004Z" fill="#333333"/>
<path fill-rule="evenodd" clip-rule="evenodd" d="M9.99844 7.40039C6.90564 7.40039 4.39844 9.9076 4.39844 13.0004V35.0004C4.39844 38.0932 6.90564 40.6004 9.99844 40.6004H37.9984C41.0912 40.6004 43.5984 38.0932 43.5984 35.0004V13.0004C43.5984 9.9076 41.0912 7.40039 37.9984 7.40039H9.99844ZM7.59844 13.0004C7.59844 11.6749 8.67295 10.6004 9.99844 10.6004H37.9984C39.3239 10.6004 40.3984 11.6749 40.3984 13.0004V35.0004C40.3984 36.3259 39.3239 37.4004 37.9984 37.4004H9.99844C8.67295 37.4004 7.59844 36.3259 7.59844 35.0004V13.0004Z" fill="#333333"/>
</svg>
