<svg width="48" height="48" viewBox="0 0 48 48" fill="none" xmlns="http://www.w3.org/2000/svg">
<path fill-rule="evenodd" clip-rule="evenodd" d="M6.39844 10.0004C6.39844 6.9076 8.90564 4.40039 11.9984 4.40039H28.9984C29.4228 4.40039 29.8298 4.56896 30.1298 4.86902L41.1298 15.869C41.4299 16.1691 41.5984 16.576 41.5984 17.0004V38.0004C41.5984 41.0932 39.0912 43.6004 35.9984 43.6004H11.9984C8.90564 43.6004 6.39844 41.0932 6.39844 38.0004V10.0004ZM11.9984 7.60039C10.673 7.60039 9.59844 8.67491 9.59844 10.0004V38.0004C9.59844 39.3259 10.673 40.4004 11.9984 40.4004H35.9984C37.3239 40.4004 38.3984 39.3259 38.3984 38.0004V18.6004H29.9984C28.5625 18.6004 27.3984 17.4363 27.3984 16.0004V7.60039H11.9984ZM30.5984 9.86313L36.1357 15.4004H30.5984V9.86313Z" fill="#333333"/>
<path d="M33.2759 23.992V26.296H35.9799V28.488H33.2919V33H30.6999V21.672H36.2199V23.992H33.2759Z" fill="#333333"/>
<path d="M28.9904 27.368C28.9904 28.2213 28.8944 28.9947 28.7024 29.688C28.521 30.3813 28.2384 30.9733 27.8544 31.464C27.4704 31.9547 26.9797 32.3333 26.3824 32.6C25.7957 32.8667 25.097 33 24.2864 33H21.1024V21.672H24.2864C25.097 21.672 25.7957 21.8053 26.3824 22.072C26.9797 22.3387 27.4704 22.7227 27.8544 23.224C28.2384 23.7147 28.521 24.312 28.7024 25.016C28.8944 25.7093 28.9904 26.4933 28.9904 27.368ZM26.4144 27.368C26.4144 26.2267 26.217 25.368 25.8224 24.792C25.4384 24.2053 24.937 23.912 24.3184 23.912H23.6944V30.76H24.3184C24.937 30.76 25.4384 30.472 25.8224 29.896C26.217 29.3093 26.4144 28.4667 26.4144 27.368Z" fill="#333333"/>
<path d="M19.575 25.224C19.575 25.8533 19.479 26.3973 19.287 26.856C19.095 27.3147 18.839 27.6933 18.519 27.992C18.199 28.2907 17.8363 28.5147 17.431 28.664C17.0257 28.8027 16.615 28.872 16.199 28.872H15.095V33H12.583V21.672H16.103C16.5083 21.672 16.9137 21.7307 17.319 21.848C17.735 21.9653 18.1083 22.1627 18.439 22.44C18.7803 22.7067 19.0523 23.0693 19.255 23.528C19.4683 23.9867 19.575 24.552 19.575 25.224ZM17.175 25.272C17.175 24.76 17.0523 24.392 16.807 24.168C16.5617 23.944 16.263 23.832 15.911 23.832H15.095V26.792H15.911C16.263 26.792 16.5617 26.664 16.807 26.408C17.0523 26.1413 17.175 25.7627 17.175 25.272Z" fill="#333333"/>
</svg>
