<svg width="48" height="48" viewBox="0 0 48 48" fill="none" xmlns="http://www.w3.org/2000/svg">
<path fill-rule="evenodd" clip-rule="evenodd" d="M24.1929 4.55273C25.0763 4.55302 25.7925 5.27082 25.7925 6.1543V7.92578C26.5122 8.08527 27.2199 8.35611 27.8921 8.74414C31.1121 10.6032 32.4051 14.5167 31.0738 17.873L40.1754 33.6387C41.1641 35.3514 40.9217 37.4306 39.73 38.8691L41.0777 41.2012C41.5191 41.966 41.258 42.9427 40.4937 43.3848C39.7287 43.8264 38.7502 43.5654 38.3082 42.8008L36.9605 40.4668C35.1193 40.7789 33.1972 39.9505 32.2086 38.2383L24.191 24.3516L16.1753 38.2383C15.1865 39.9505 13.2647 40.7793 11.4234 40.4668L10.0777 42.8008C9.63572 43.5653 8.65904 43.8261 7.8941 43.3848C7.12894 42.943 6.8666 41.9664 7.30816 41.2012L8.65386 38.8691C7.46258 37.4308 7.22019 35.3511 8.20855 33.6387L17.3121 17.8711C16.5131 15.8444 16.6091 13.4862 17.7828 11.4531C18.863 9.5821 20.638 8.3611 22.5933 7.92773V6.1543C22.5933 5.27064 23.3093 4.55273 24.1929 4.55273ZM10.98 35.2383C10.5937 35.9077 10.8226 36.7637 11.4918 37.1504C12.1613 37.537 13.0192 37.3082 13.4058 36.6387L21.7711 22.1445C21.3354 21.9931 20.906 21.8016 20.4918 21.5625C20.0765 21.3227 19.695 21.0467 19.3453 20.7441L10.98 35.2383ZM29.0367 20.7461C28.3171 21.3694 27.4922 21.8401 26.6109 22.1445L34.98 36.6387C35.3667 37.3078 36.2227 37.5367 36.8921 37.1504C37.5615 36.7639 37.7919 35.9078 37.4058 35.2383L29.0367 20.7461ZM25.4918 12.9023C24.2482 12.1847 22.6589 12.6101 21.941 13.8535C21.2232 15.0968 21.6492 16.6862 22.8921 17.4043C24.1357 18.1223 25.7269 17.6967 26.4449 16.4531C27.1625 15.2096 26.7352 13.6202 25.4918 12.9023Z" fill="#333333"/>
</svg>
