<svg width="48" height="48" viewBox="0 0 48 48" fill="none" xmlns="http://www.w3.org/2000/svg">
<path d="M14.3984 29.9996C14.3984 29.1159 15.1148 28.3996 15.9984 28.3996L31.9984 28.3996C32.8821 28.3996 33.5984 29.116 33.5984 29.9996C33.5984 30.8833 32.8821 31.5996 31.9984 31.5996L15.9984 31.5996C15.1148 31.5996 14.3984 30.8833 14.3984 29.9996Z" fill="#333333"/>
<path d="M9.99805 18C9.99805 19.1 10.898 20 11.998 20C13.098 20 13.998 19.1 13.998 18C13.998 16.9 13.098 16 11.998 16C10.898 16 9.99805 16.9 9.99805 18Z" fill="#333333"/>
<path d="M17.998 20C16.898 20 15.998 19.1 15.998 18C15.998 16.9 16.898 16 17.998 16C19.098 16 19.998 16.9 19.998 18C19.998 19.1 19.098 20 17.998 20Z" fill="#333333"/>
<path d="M21.998 18C21.998 19.1 22.898 20 23.998 20C25.098 20 25.998 19.1 25.998 18C25.998 16.9 25.098 16 23.998 16C22.898 16 21.998 16.9 21.998 18Z" fill="#333333"/>
<path d="M29.998 20C28.898 20 27.998 19.1 27.998 18C27.998 16.9 28.898 16 29.998 16C31.098 16 31.998 16.9 31.998 18C31.998 19.1 31.098 20 29.998 20Z" fill="#333333"/>
<path d="M33.998 18C33.998 19.1 34.898 20 35.998 20C37.098 20 37.998 19.1 37.998 18C37.998 16.9 37.098 16 35.998 16C34.898 16 33.998 16.9 33.998 18Z" fill="#333333"/>
<path d="M14.998 26C13.898 26 12.998 25.1 12.998 24C12.998 22.9 13.898 22 14.998 22C16.098 22 16.998 22.9 16.998 24C16.998 25.1 16.098 26 14.998 26Z" fill="#333333"/>
<path d="M18.998 24C18.998 25.1 19.898 26 20.998 26C22.098 26 22.998 25.1 22.998 24C22.998 22.9 22.098 22 20.998 22C19.898 22 18.998 22.9 18.998 24Z" fill="#333333"/>
<path d="M26.998 26C25.898 26 24.998 25.1 24.998 24C24.998 22.9 25.898 22 26.998 22C28.098 22 28.998 22.9 28.998 24C28.998 25.1 28.098 26 26.998 26Z" fill="#333333"/>
<path d="M30.998 24C30.998 25.1 31.898 26 32.998 26C34.098 26 34.998 25.1 34.998 24C34.998 22.9 34.098 22 32.998 22C31.898 22 30.998 22.9 30.998 24Z" fill="#333333"/>
<path fill-rule="evenodd" clip-rule="evenodd" d="M4.39844 14.0004C4.39844 12.0122 6.01021 10.4004 7.99844 10.4004H39.9984C41.9867 10.4004 43.5984 12.0122 43.5984 14.0004V34.0004C43.5984 35.9886 41.9867 37.6004 39.9984 37.6004H7.99844C6.01021 37.6004 4.39844 35.9886 4.39844 34.0004V14.0004ZM7.99844 13.6004C7.77752 13.6004 7.59844 13.7795 7.59844 14.0004V34.0004C7.59844 34.2213 7.77752 34.4004 7.99844 34.4004L39.9984 34.4004C40.2193 34.4004 40.3984 34.2213 40.3984 34.0004V14.0004C40.3984 13.7795 40.2193 13.6004 39.9984 13.6004H7.99844Z" fill="#333333"/>
</svg>
