<svg width="48" height="48" viewBox="0 0 48 48" fill="none" xmlns="http://www.w3.org/2000/svg">
<path d="M38.3984 12C38.3984 10.6745 37.3235 9.59961 35.998 9.59961H11.998C10.6726 9.59961 9.59766 10.6745 9.59766 12V36C9.59766 37.3255 10.6726 38.4004 11.998 38.4004H35.998C37.3235 38.4004 38.3984 37.3255 38.3984 36V12ZM41.5977 36C41.5977 39.0928 39.0908 41.5996 35.998 41.5996H11.998C8.90525 41.5996 6.39844 39.0928 6.39844 36V12C6.39844 8.90721 8.90525 6.40039 11.998 6.40039H35.998C39.0908 6.40039 41.5977 8.90721 41.5977 12V36Z" fill="#333333"/>
</svg>
