<svg width="48" height="48" viewBox="0 0 48 48" fill="none" xmlns="http://www.w3.org/2000/svg">
<path fill-rule="evenodd" clip-rule="evenodd" d="M6.30078 35.9998C6.30078 39.1478 8.85276 41.6998 12.0008 41.6998H20.9121L21.5607 38.2998H16.7008V29.9998C16.7008 28.7295 17.7305 27.6998 19.0008 27.6998H29.0008C29.3634 27.6998 29.7065 27.7837 30.0116 27.9332L32.4689 25.4759C31.5081 24.7383 30.3057 24.2998 29.0008 24.2998H19.0008C15.8528 24.2998 13.3008 26.8518 13.3008 29.9998V38.2998H12.0008C10.7305 38.2998 9.70078 37.2701 9.70078 35.9998L9.70078 11.9998C9.70078 10.7295 10.7305 9.6998 12.0008 9.6998H14.3008V15.0002C14.3008 16.4914 15.5096 17.7002 17.0008 17.7002H26.0008C27.492 17.7002 28.7008 16.4914 28.7008 15.0002V10.0668C28.8066 10.135 28.9072 10.2122 29.0015 10.2979L37.5479 18.0674C38.0274 18.5033 38.3008 19.1213 38.3008 19.7693V21.2853C39.4279 21.0646 40.5999 21.1292 41.7008 21.4791V19.7693C41.7008 18.1633 41.0233 16.6319 39.835 15.5516L31.2886 7.78215C30.2394 6.82832 28.8723 6.2998 27.4544 6.2998H12.0008C8.85276 6.2998 6.30078 8.85178 6.30078 11.9998V35.9998ZM17.7008 14.3002V9.7002H25.3008V14.3002H17.7008Z" fill="#333333"/>
<path d="M42.6212 31.0004L31.2859 42.3357C30.7189 42.9027 29.9945 43.2862 29.2068 43.4365L24.4466 44.3445C23.7531 44.4767 23.1446 43.8682 23.2769 43.1748L24.1849 38.4145C24.3351 37.6268 24.7186 36.9025 25.2856 36.3355L36.621 25.0001C38.2779 23.3432 40.9643 23.3432 42.6212 25.0001C44.2781 26.657 44.2781 29.3434 42.6212 31.0004Z" fill="#333333"/>
</svg>
