<svg width="48" height="48" viewBox="0 0 48 48" fill="none" xmlns="http://www.w3.org/2000/svg">
<path fill-rule="evenodd" clip-rule="evenodd" d="M16.9984 4.40039C13.9056 4.40039 11.3984 6.9076 11.3984 10.0004V17.0004C11.3984 20.0932 13.9056 22.6004 16.9984 22.6004H30.9984C34.0912 22.6004 36.5984 20.0932 36.5984 17.0004V10.0004C36.5984 6.9076 34.0912 4.40039 30.9984 4.40039H16.9984ZM14.5984 10.0004C14.5984 8.67491 15.673 7.60039 16.9984 7.60039H30.9984C32.3239 7.60039 33.3984 8.67491 33.3984 10.0004V17.0004C33.3984 18.3259 32.3239 19.4004 30.9984 19.4004H16.9984C15.673 19.4004 14.5984 18.3259 14.5984 17.0004V10.0004Z" fill="#333333"/>
<path fill-rule="evenodd" clip-rule="evenodd" d="M16.9984 25.4004C13.9056 25.4004 11.3984 27.9076 11.3984 31.0004V38.0004C11.3984 41.0932 13.9056 43.6004 16.9984 43.6004H30.9984C34.0912 43.6004 36.5984 41.0932 36.5984 38.0004V31.0004C36.5984 27.9076 34.0912 25.4004 30.9984 25.4004H16.9984ZM14.5984 31.0004C14.5984 29.6749 15.673 28.6004 16.9984 28.6004H30.9984C32.3239 28.6004 33.3984 29.6749 33.3984 31.0004V38.0004C33.3984 39.3259 32.3239 40.4004 30.9984 40.4004H16.9984C15.673 40.4004 14.5984 39.3259 14.5984 38.0004V31.0004Z" fill="#333333"/>
</svg>
