<svg width="48" height="48" viewBox="0 0 48 48" fill="none" xmlns="http://www.w3.org/2000/svg">
<path d="M33.9977 20.3996C34.8813 20.3996 35.5977 21.116 35.5977 21.9996C35.5977 22.8833 34.8813 23.5996 33.9977 23.5996H13.9977C13.114 23.5996 12.3977 22.8833 12.3977 21.9996C12.3977 21.116 13.114 20.3996 13.9977 20.3996H33.9977Z" fill="#333333"/>
<path d="M23.5977 27.9996C23.5977 27.116 22.8813 26.3996 21.9977 26.3996H13.9977C13.114 26.3996 12.3977 27.116 12.3977 27.9996C12.3977 28.8833 13.114 29.5996 13.9977 29.5996H21.9977C22.8813 29.5996 23.5977 28.8833 23.5977 27.9996Z" fill="#333333"/>
<path d="M28.9977 26.3996C29.8813 26.3996 30.5977 27.116 30.5977 27.9996C30.5977 28.8833 29.8813 29.5996 28.9977 29.5996H26.9977C26.114 29.5996 25.3977 28.8833 25.3977 27.9996C25.3977 27.116 26.114 26.3996 26.9977 26.3996H28.9977Z" fill="#333333"/>
<path fill-rule="evenodd" clip-rule="evenodd" d="M11.9984 6.40039C8.90564 6.40039 6.39844 8.9076 6.39844 12.0004V30.0004C6.39844 33.0932 8.90564 35.6004 11.9984 35.6004H13.3984V39.7735C13.3984 42.017 16.049 43.2072 17.7258 41.7168L24.6068 35.6004H35.9984C39.0912 35.6004 41.5984 33.0932 41.5984 30.0004V12.0004C41.5984 8.9076 39.0912 6.40039 35.9984 6.40039H11.9984ZM9.59844 12.0004C9.59844 10.6749 10.673 9.60039 11.9984 9.60039H35.9984C37.3239 9.60039 38.3984 10.6749 38.3984 12.0004V30.0004C38.3984 31.3259 37.3239 32.4004 35.9984 32.4004H24.3786C23.7419 32.4004 23.1272 32.6341 22.6513 33.0571L16.5984 38.4374V35.0004C16.5984 33.5645 15.4344 32.4004 13.9984 32.4004H11.9984C10.673 32.4004 9.59844 31.3259 9.59844 30.0004V12.0004Z" fill="#333333"/>
</svg>
