<svg width="48" height="48" viewBox="0 0 48 48" fill="none" xmlns="http://www.w3.org/2000/svg">
<path d="M40.6174 32.0992C41.409 31.7076 42.3678 32.0307 42.76 32.8218C43.1518 33.6136 42.8288 34.5742 42.0373 34.9664L26.4866 42.6617C24.9212 43.4364 23.0831 43.4364 21.5178 42.6617L5.96898 34.9664C5.17723 34.5743 4.85246 33.6137 5.24437 32.8218C5.63652 32.0303 6.59713 31.7073 7.3889 32.0992L22.9377 39.7965C23.6081 40.128 24.3962 40.1278 25.0666 39.7965L40.6174 32.0992Z" fill="#333333"/>
<path d="M40.6174 23.7144C41.4092 23.323 42.368 23.6475 42.76 24.439C43.1517 25.2306 42.8285 26.1893 42.0373 26.5816L26.4866 34.2789C24.9213 35.0534 23.083 35.0535 21.5178 34.2789L5.96898 26.5816C5.17739 26.1896 4.85283 25.2308 5.24437 24.439C5.63643 23.6473 6.59703 23.3225 7.3889 23.7144L22.9377 31.4117C23.6083 31.7434 24.396 31.7432 25.0666 31.4117L40.6174 23.7144Z" fill="#333333"/>
<path fill-rule="evenodd" clip-rule="evenodd" d="M21.5198 5.36481C23.0847 4.59064 24.9216 4.59063 26.4866 5.36481L40.8909 12.4937C43.56 13.8159 43.5598 17.6226 40.8909 18.9449L26.4866 26.0758C24.9218 26.8498 23.0846 26.8497 21.5198 26.0758L7.11546 18.9449C4.44552 17.6228 4.44553 13.8158 7.11546 12.4937L21.5198 5.36481ZM25.0666 8.232C24.396 7.90048 23.6082 7.90025 22.9377 8.232L8.53538 15.3609C8.23875 15.5078 8.23875 15.9308 8.53538 16.0777L22.9377 23.2066C23.6084 23.5385 24.3959 23.5383 25.0666 23.2066L39.4709 16.0777C39.7668 15.9306 39.7669 15.5079 39.4709 15.3609L25.0666 8.232Z" fill="#333333"/>
</svg>
