<svg width="48" height="48" viewBox="0 0 48 48" fill="none" xmlns="http://www.w3.org/2000/svg">
<path fill-rule="evenodd" clip-rule="evenodd" d="M32.998 24C38.5209 24 42.998 28.4772 42.998 34C42.998 39.5229 38.5209 44 32.998 44C27.4752 44 22.998 39.5229 22.998 34C22.998 28.4772 27.4752 24 32.998 24ZM32.998 27.5C32.1696 27.5 31.4981 28.1716 31.498 29V32.5H27.998C27.1697 32.5 26.498 33.1716 26.498 34C26.498 34.8284 27.1697 35.5 27.998 35.5H31.498V38.998C31.498 39.8265 32.1696 40.498 32.998 40.498C33.8265 40.498 34.498 39.8265 34.498 38.998V35.5H37.9961C38.8245 35.5 39.4961 34.8284 39.4961 34C39.4961 33.1716 38.8245 32.5 37.9961 32.5H34.498V29C34.498 28.1716 33.8265 27.5 32.998 27.5Z" fill="#333333"/>
<path d="M26.998 4.40039C30.0908 4.40039 32.5977 6.90721 32.5977 10V20.8105C31.4914 20.8435 30.4201 21.0118 29.3984 21.3008V10C29.3984 8.67452 28.3235 7.59961 26.998 7.59961H18.998C17.6726 7.59961 16.5977 8.67452 16.5977 10V38C16.5977 39.3255 17.6726 40.4004 18.998 40.4004H21.4551C22.1175 41.5926 22.9588 42.6706 23.9434 43.5996H18.998C15.9053 43.5996 13.3984 41.0928 13.3984 38V10C13.3984 6.90721 15.9053 4.40039 18.998 4.40039H26.998Z" fill="#333333"/>
</svg>
