<svg width="48" height="48" viewBox="0 0 48 48" fill="none" xmlns="http://www.w3.org/2000/svg">
<path d="M18.3984 10.0004C18.3984 6.9076 20.9056 4.40039 23.9984 4.40039C27.0912 4.40039 29.5984 6.9076 29.5984 10.0004V23.999C31.8502 25.4027 33.539 27.63 34.241 30.2611L26.3984 22.4185V10.0004C26.3984 8.67491 25.3239 7.60039 23.9984 7.60039C22.673 7.60039 21.5984 8.67491 21.5984 10.0004V17.6185L18.3984 14.4185V10.0004Z" fill="#333333"/>
<path fill-rule="evenodd" clip-rule="evenodd" d="M33.48 37.7447L36.8671 41.1318C37.4919 41.7566 38.505 41.7566 39.1298 41.1318C39.7546 40.5069 39.7546 39.4939 39.1298 38.869L11.1298 10.869C10.505 10.2442 9.49191 10.2442 8.86707 10.869C8.24223 11.4939 8.24223 12.5069 8.86707 13.1318L18.3984 22.6631V23.999C15.3989 25.8688 13.3984 29.1998 13.3984 33.0004C13.3984 38.8546 18.1442 43.6004 23.9984 43.6004C28.1472 43.6004 31.7392 41.217 33.48 37.7447ZM31.0344 35.2991L28.9915 33.2562C28.857 35.8884 26.6621 38 23.998 38C21.248 38 18.998 35.75 18.998 33C18.998 30.6995 20.5726 28.7489 22.6973 28.1727V26.962L21.437 25.7017C21.2262 26.1331 20.8271 26.4558 20.3467 26.5624C18.1052 27.8369 16.5984 30.2439 16.5984 33.0004C16.5984 37.0873 19.9115 40.4004 23.9984 40.4004C27.2829 40.4004 30.0675 38.2607 31.0344 35.2991Z" fill="#333333"/>
<path d="M25.2973 16.0002V21.3183L22.6973 18.7183V16.0002C22.6973 15.2822 23.2793 14.7002 23.9973 14.7002C24.7152 14.7002 25.2973 15.2822 25.2973 16.0002Z" fill="#333333"/>
</svg>
