<svg width="48" height="48" viewBox="0 0 48 48" fill="none" xmlns="http://www.w3.org/2000/svg">
<path d="M21.9984 34.3996C21.1148 34.3996 20.3984 35.116 20.3984 35.9996C20.3984 36.8833 21.1148 37.5996 21.9984 37.5996H25.9984C26.8821 37.5996 27.5984 36.8833 27.5984 35.9996C27.5984 35.116 26.8821 34.3996 25.9984 34.3996H21.9984Z" fill="#333333"/>
<path fill-rule="evenodd" clip-rule="evenodd" d="M16.9984 4.40039C13.9056 4.40039 11.3984 6.9076 11.3984 10.0004V38.0004C11.3984 41.0932 13.9056 43.6004 16.9984 43.6004H30.9984C34.0912 43.6004 36.5984 41.0932 36.5984 38.0004V10.0004C36.5984 6.9076 34.0912 4.40039 30.9984 4.40039H16.9984ZM14.5984 10.0004C14.5984 8.67491 15.673 7.60039 16.9984 7.60039H30.9984C32.3239 7.60039 33.3984 8.67491 33.3984 10.0004V38.0004C33.3984 39.3259 32.3239 40.4004 30.9984 40.4004H16.9984C15.673 40.4004 14.5984 39.3259 14.5984 38.0004V10.0004Z" fill="#333333"/>
</svg>
