<svg width="48" height="48" viewBox="0 0 48 48" fill="none" xmlns="http://www.w3.org/2000/svg">
<path d="M14.3984 18.0004C14.3984 17.1167 15.1148 16.4004 15.9984 16.4004H31.9984C32.8821 16.4004 33.5984 17.1167 33.5984 18.0004C33.5984 18.884 32.8821 19.6004 31.9984 19.6004H15.9984C15.1148 19.6004 14.3984 18.884 14.3984 18.0004Z" fill="#333333"/>
<path d="M15.9984 22.4004C15.1148 22.4004 14.3984 23.1167 14.3984 24.0004C14.3984 24.884 15.1148 25.6004 15.9984 25.6004H23.9984C24.8821 25.6004 25.5984 24.884 25.5984 24.0004C25.5984 23.1167 24.8821 22.4004 23.9984 22.4004H15.9984Z" fill="#333333"/>
<path fill-rule="evenodd" clip-rule="evenodd" d="M6.39844 12.0004C6.39844 8.9076 8.90564 6.40039 11.9984 6.40039H35.9984C39.0912 6.40039 41.5984 8.9076 41.5984 12.0004V29.0004C41.5984 32.0932 39.0912 34.6004 35.9984 34.6004H24.6612L17.8369 41.4247C16.199 43.0626 13.3984 41.9025 13.3984 39.5862V34.6004H11.9984C8.90564 34.6004 6.39844 32.0932 6.39844 29.0004V12.0004ZM11.9984 9.60039C10.673 9.60039 9.59844 10.6749 9.59844 12.0004V29.0004C9.59844 30.3259 10.673 31.4004 11.9984 31.4004H13.9984C15.4344 31.4004 16.5984 32.5645 16.5984 34.0004V38.1376L22.5742 32.1619C23.0618 31.6743 23.7231 31.4004 24.4127 31.4004H35.9984C37.3239 31.4004 38.3984 30.3259 38.3984 29.0004V12.0004C38.3984 10.6749 37.3239 9.60039 35.9984 9.60039H11.9984Z" fill="#333333"/>
</svg>
