<svg width="48" height="48" viewBox="0 0 48 48" fill="none" xmlns="http://www.w3.org/2000/svg">
<path d="M9.99844 12.4004C9.11478 12.4004 8.39844 13.1167 8.39844 14.0004C8.39844 14.884 9.11478 15.6004 9.99844 15.6004L37.9984 15.6004C38.8821 15.6004 39.5984 14.884 39.5984 14.0004C39.5984 13.1167 38.8821 12.4004 37.9984 12.4004H9.99844Z" fill="#333333"/>
<path fill-rule="evenodd" clip-rule="evenodd" d="M33.9984 44.0004C39.5212 44.0004 43.9984 39.5232 43.9984 34.0004C43.9984 28.4775 39.5212 24.0004 33.9984 24.0004C28.4755 24.0004 23.9984 28.4775 23.9984 34.0004C23.9984 39.5232 28.4755 44.0004 33.9984 44.0004ZM30.9984 29.909C30.9984 29.1023 31.9044 28.6276 32.5676 29.0868L38.4773 33.1781C39.0517 33.5757 39.0517 34.4248 38.4773 34.8225L32.5676 38.9138C31.9044 39.373 30.9984 38.8983 30.9984 38.0916V29.909Z" fill="#333333"/>
<path d="M8.39844 24.0004C8.39844 23.1167 9.11478 22.4004 9.99844 22.4004H18.9984C19.8821 22.4004 20.5984 23.1167 20.5984 24.0004C20.5984 24.884 19.8821 25.6004 18.9984 25.6004H9.99844C9.11478 25.6004 8.39844 24.884 8.39844 24.0004Z" fill="#333333"/>
<path d="M9.99844 32.4004C9.11478 32.4004 8.39844 33.1167 8.39844 34.0004C8.39844 34.884 9.11478 35.6004 9.99844 35.6004H18.9984C19.8821 35.6004 20.5984 34.884 20.5984 34.0004C20.5984 33.1167 19.8821 32.4004 18.9984 32.4004H9.99844Z" fill="#333333"/>
</svg>
