<svg width="48" height="48" viewBox="0 0 48 48" fill="none" xmlns="http://www.w3.org/2000/svg">
<path fill-rule="evenodd" clip-rule="evenodd" d="M9.99844 6.40039C6.90564 6.40039 4.39844 8.9076 4.39844 12.0004V28.0004C4.39844 31.0932 6.90564 33.6004 9.99844 33.6004H19.1855L18.5856 38.4L14.9981 38.4C14.1144 38.4 13.3981 39.1163 13.3981 40C13.3981 40.8836 14.1144 41.6 14.9981 41.6H32.9981C33.8817 41.6 34.5981 40.8836 34.5981 40C34.5981 39.1163 33.8817 38.4 32.9981 38.4H29.4105L28.8106 33.6004H37.9984C41.0912 33.6004 43.5984 31.0932 43.5984 28.0004V12.0004C43.5984 8.9076 41.0912 6.40039 37.9984 6.40039H9.99844ZM25.5857 33.6004H22.4104L21.8105 38.4L26.1856 38.4L25.5857 33.6004ZM7.59844 12.0004C7.59844 10.6749 8.67295 9.60039 9.99844 9.60039H37.9984C39.3239 9.60039 40.3984 10.6749 40.3984 12.0004V28.0004C40.3984 29.3259 39.3239 30.4004 37.9984 30.4004H9.99844C8.67295 30.4004 7.59844 29.3259 7.59844 28.0004V12.0004Z" fill="#333333"/>
</svg>
