<svg width="48" height="48" viewBox="0 0 48 48" fill="none" xmlns="http://www.w3.org/2000/svg">
<path fill-rule="evenodd" clip-rule="evenodd" d="M4.39844 14.0004C4.39844 10.9076 6.90564 8.40039 9.99844 8.40039H37.9984C41.0912 8.40039 43.5984 10.9076 43.5984 14.0004V34.0004C43.5984 37.0932 41.0912 39.6004 37.9984 39.6004H9.99844C6.90564 39.6004 4.39844 37.0932 4.39844 34.0004V14.0004ZM9.99844 11.6004C8.67295 11.6004 7.59844 12.6749 7.59844 14.0004V34.0004C7.59844 35.3259 8.67295 36.4004 9.99844 36.4004H37.9984C39.3239 36.4004 40.3984 35.3259 40.3984 34.0004V14.0004C40.3984 12.6749 39.3239 11.6004 37.9984 11.6004H9.99844Z" fill="#333333"/>
<path d="M22.2282 20.8119C22.6404 21.7874 21.7779 22.7246 20.7189 22.7246H20.1783C19.5868 22.7246 19.1175 22.2664 18.853 21.7374C18.7062 21.4438 18.5121 21.1929 18.2706 20.9846C18.0291 20.7762 17.7427 20.6176 17.4112 20.5087C17.0845 20.3951 16.7223 20.3382 16.3246 20.3382C15.6191 20.3382 15.0107 20.5111 14.4993 20.8567C13.9927 21.2024 13.602 21.7019 13.3274 22.3553C13.0575 23.0087 12.9226 23.7994 12.9226 24.7275C12.9226 25.6934 13.0599 26.503 13.3345 27.1564C13.6139 27.8051 14.0045 28.2952 14.5064 28.6266C15.013 28.9533 15.612 29.1167 16.3033 29.1167C16.6915 29.1167 17.0443 29.0669 17.3615 28.9675C17.6835 28.8681 17.9652 28.7237 18.2067 28.5343C18.4529 28.3401 18.6541 28.1058 18.8104 27.8311C19.1007 27.3273 19.5697 26.8891 20.1511 26.8926L20.6996 26.8959C21.7718 26.9023 22.6137 27.8523 22.1342 28.8113C21.8265 29.4363 21.4027 30.0068 20.8629 30.5229C20.3232 31.0343 19.665 31.4415 18.8885 31.7445C18.1167 32.0475 17.2313 32.199 16.2322 32.199C14.916 32.199 13.737 31.9102 12.6953 31.3326C11.6584 30.7502 10.8393 29.9026 10.2379 28.79C9.6366 27.6773 9.33594 26.3231 9.33594 24.7275C9.33594 23.1271 9.64134 21.7705 10.2521 20.6578C10.8629 19.5452 11.6892 18.7 12.7308 18.1223C13.7725 17.5447 14.9396 17.2559 16.2322 17.2559C17.1129 17.2559 17.9273 17.379 18.6754 17.6252C19.4235 17.8667 20.0817 18.2218 20.6499 18.6905C21.218 19.1545 21.6797 19.7251 22.0348 20.4022C22.1045 20.535 22.169 20.6716 22.2282 20.8119Z" fill="#333333"/>
<path d="M38.2282 20.8119C38.6404 21.7874 37.7779 22.7246 36.7189 22.7246H36.1783C35.5868 22.7246 35.1175 22.2664 34.853 21.7374C34.7062 21.4438 34.5121 21.1929 34.2706 20.9846C34.0291 20.7762 33.7427 20.6176 33.4112 20.5087C33.0845 20.3951 32.7223 20.3382 32.3246 20.3382C31.6191 20.3382 31.0107 20.5111 30.4993 20.8567C29.9927 21.2024 29.602 21.7019 29.3274 22.3553C29.0575 23.0087 28.9226 23.7994 28.9226 24.7275C28.9226 25.6934 29.0599 26.503 29.3345 27.1564C29.6139 27.8051 30.0045 28.2952 30.5064 28.6266C31.013 28.9533 31.612 29.1167 32.3033 29.1167C32.6915 29.1167 33.0443 29.0669 33.3615 28.9675C33.6835 28.8681 33.9652 28.7237 34.2067 28.5343C34.4529 28.3401 34.6541 28.1058 34.8104 27.8311C35.1007 27.3273 35.5697 26.8891 36.1511 26.8926L36.6996 26.8959C37.7718 26.9023 38.6137 27.8523 38.1342 28.8113C37.8265 29.4363 37.4027 30.0068 36.8629 30.5229C36.3232 31.0343 35.665 31.4415 34.8885 31.7445C34.1167 32.0475 33.2313 32.199 32.2322 32.199C30.916 32.199 29.737 31.9102 28.6953 31.3326C27.6584 30.7502 26.8393 29.9026 26.2379 28.79C25.6366 27.6773 25.3359 26.3231 25.3359 24.7275C25.3359 23.1271 25.6413 21.7705 26.2521 20.6578C26.8629 19.5452 27.6892 18.7 28.7308 18.1223C29.7725 17.5447 30.9396 17.2559 32.2322 17.2559C33.1129 17.2559 33.9273 17.379 34.6754 17.6252C35.4235 17.8667 36.0817 18.2218 36.6499 18.6905C37.218 19.1545 37.6797 19.7251 38.0348 20.4022C38.1045 20.535 38.169 20.6716 38.2282 20.8119Z" fill="#333333"/>
</svg>
