<svg width="48" height="48" viewBox="0 0 48 48" fill="none" xmlns="http://www.w3.org/2000/svg">
<path fill-rule="evenodd" clip-rule="evenodd" d="M13.0019 15.2666L8.86707 11.1318C8.24223 10.5069 8.24223 9.49386 8.86707 8.86902C9.49191 8.24418 10.505 8.24418 11.1298 8.86902L39.1298 36.869C39.7546 37.4939 39.7546 38.5069 39.1298 39.1318C38.505 39.7566 37.4919 39.7566 36.8671 39.1318L34.5965 36.8612V39.9995C34.5965 40.6295 34.2267 41.2009 33.6519 41.459C33.0772 41.7171 32.4044 41.6139 31.9335 41.1953L24.0702 34.2057C23.6308 33.8152 23.0635 33.5994 22.4757 33.5994H15.9965C12.9037 33.5994 10.3965 31.0922 10.3965 27.9994V19.9994C10.3965 18.0081 11.4359 16.2594 13.0019 15.2666ZM31.3965 33.6612V36.4365L26.1961 31.814C25.171 30.9028 23.8472 30.3994 22.4757 30.3994H15.9965C14.671 30.3994 13.5965 29.3249 13.5965 27.9994V19.9994C13.5965 18.8772 14.3668 17.9348 15.4075 17.6722L31.3965 33.6612Z" fill="#333333"/>
<path d="M31.3965 11.5624V25.1347L34.5965 28.3347V7.99944C34.5965 7.36937 34.2267 6.79797 33.6519 6.53986C33.0772 6.28175 32.4044 6.38499 31.9335 6.80359L24.0702 13.7932C23.6308 14.1837 23.0635 14.3994 22.4757 14.3994H20.6612L23.721 17.4592C24.6337 17.251 25.4865 16.8157 26.1961 16.1849L31.3965 11.5624Z" fill="#333333"/>
</svg>
