<svg width="48" height="48" viewBox="0 0 48 48" fill="none" xmlns="http://www.w3.org/2000/svg">
<path fill-rule="evenodd" clip-rule="evenodd" d="M32.998 24.4007C37.1953 24.4007 40.5975 27.8031 40.5977 32.0003C40.5977 36.1977 37.1954 39.5999 32.998 39.5999C29.3494 39.5999 26.3029 37.0291 25.5684 33.5999H22.4277C21.6932 37.0291 18.6467 39.5999 14.998 39.5999C10.8007 39.5999 7.39844 36.1977 7.39844 32.0003C7.39861 27.8031 10.8008 24.4007 14.998 24.4007C18.6465 24.4007 21.693 26.9718 22.4277 30.4007H25.5684C26.3031 26.9718 29.3496 24.4007 32.998 24.4007ZM14.998 27.5999C12.5681 27.5999 10.5978 29.5704 10.5977 32.0003C10.5977 34.4304 12.568 36.4007 14.998 36.4007C17.4281 36.4007 19.3984 34.4304 19.3984 32.0003C19.3983 29.5704 17.428 27.5999 14.998 27.5999ZM32.998 27.5999C30.5681 27.5999 28.5978 29.5704 28.5977 32.0003C28.5977 34.4304 30.568 36.4007 32.998 36.4007C35.4281 36.4007 37.3984 34.4304 37.3984 32.0003C37.3983 29.5704 35.428 27.5999 32.998 27.5999Z" fill="#333333"/>
<path fill-rule="evenodd" clip-rule="evenodd" d="M30.0176 9.37531C33.8828 8.73118 37.1975 12.154 36.4297 15.9964L35.9492 18.4007H39.998C40.8816 18.4007 41.5975 19.1168 41.5977 20.0003C41.5977 20.884 40.8817 21.5999 39.998 21.5999H7.99805C7.11439 21.5999 6.39844 20.884 6.39844 20.0003C6.39861 19.1168 7.1145 18.4007 7.99805 18.4007H12.0469L11.5664 15.9964C10.7986 12.154 14.1133 8.73117 17.9785 9.37531L23.6035 10.3128C23.8647 10.3563 24.1314 10.3563 24.3926 10.3128L30.0176 9.37531ZM30.5449 12.5316L24.918 13.4691C24.3089 13.5705 23.6872 13.5705 23.0781 13.4691L17.4512 12.5316C15.7948 12.2557 14.3743 13.7229 14.7031 15.3694L15.3086 18.4007H32.6875L33.293 15.3694C33.6218 13.7229 32.2012 12.2558 30.5449 12.5316Z" fill="#333333"/>
</svg>
