<svg width="48" height="48" viewBox="0 0 48 48" fill="none" xmlns="http://www.w3.org/2000/svg">
<path fill-rule="evenodd" clip-rule="evenodd" d="M4.39844 10.3081C4.39844 7.04536 7.0434 4.40039 10.3061 4.40039H29.6907C32.9535 4.40039 35.5984 7.04535 35.5984 10.3081V14.4508C35.7263 14.4179 35.8603 14.4004 35.9984 14.4004H37.6907C40.9535 14.4004 43.5984 17.0454 43.5984 20.3081V37.6927C43.5984 40.9554 40.9535 43.6004 37.6907 43.6004H20.3061C17.0434 43.6004 14.3984 40.9554 14.3984 37.6927V36.0004C14.3984 35.8623 14.4159 35.7282 14.4488 35.6004H10.3061C7.0434 35.6004 4.39844 32.9554 4.39844 29.6927V10.3081ZM35.5984 29.6927V17.55C35.7263 17.5829 35.8603 17.6004 35.9984 17.6004H37.6907C39.1862 17.6004 40.3984 18.8127 40.3984 20.3081V37.6927C40.3984 39.1881 39.1862 40.4004 37.6907 40.4004H20.3061C18.8107 40.4004 17.5984 39.1881 17.5984 37.6927V36.0004C17.5984 35.8623 17.5809 35.7282 17.548 35.6004H29.6907C32.9535 35.6004 35.5984 32.9554 35.5984 29.6927ZM10.3061 7.60039C8.81071 7.60039 7.59844 8.81267 7.59844 10.3081V29.6927C7.59844 31.1881 8.81071 32.4004 10.3061 32.4004H29.6907C31.1862 32.4004 32.3984 31.1881 32.3984 29.6927V10.3081C32.3984 8.81267 31.1862 7.60039 29.6907 7.60039H10.3061Z" fill="#333333"/>
</svg>
