<svg width="48" height="48" viewBox="0 0 48 48" fill="none" xmlns="http://www.w3.org/2000/svg">
<path d="M38 8.40039C41.0928 8.40039 43.5996 10.9072 43.5996 14V34C43.5996 37.0928 41.0928 39.5996 38 39.5996H14C10.9072 39.5996 8.40039 37.0928 8.40039 34V30H11.5996V34C11.5996 35.3255 12.6745 36.4004 14 36.4004H38C39.3255 36.4004 40.4004 35.3255 40.4004 34V14C40.4004 12.6745 39.3255 11.5996 38 11.5996H14C12.6745 11.5996 11.5996 12.6745 11.5996 14V18H8.40039V14C8.40039 10.9072 10.9072 8.40039 14 8.40039H38Z" fill="#333333"/>
<path d="M22.8691 16.8691C23.494 16.2445 24.5061 16.2444 25.1309 16.8691L31.1309 22.8691C31.7553 23.4939 31.7554 24.5061 31.1309 25.1309L25.1309 31.1309C24.5061 31.7555 23.494 31.7554 22.8691 31.1309C22.2443 30.5061 22.2444 29.494 22.8691 28.8691L26.1387 25.5996H6.59961C5.71603 25.5996 5.00012 24.8836 5 24C5 23.1163 5.71595 22.4004 6.59961 22.4004H26.1387L22.8691 19.1309L22.7578 19.0098C22.2456 18.3814 22.2836 17.4548 22.8691 16.8691Z" fill="#333333"/>
</svg>
