<svg width="48" height="48" viewBox="0 0 48 48" fill="none" xmlns="http://www.w3.org/2000/svg">
<path d="M29.4141 10.1094C32.2258 7.29761 36.7839 7.29763 39.5957 10.1094L42.3535 12.8652C45.1653 15.677 45.1653 20.2371 42.3535 23.0488L23.8594 41.541C23.406 41.9944 22.8271 42.3016 22.1973 42.4219L11.7988 44.4062C10.7583 44.6044 9.68667 44.2743 8.9375 43.5254C8.18809 42.776 7.85806 41.7032 8.05664 40.6621L10.0391 30.2656C10.1593 29.6355 10.4663 29.0552 10.9199 28.6016L29.4141 10.1094ZM13.1836 30.8652L11.1992 41.2617L21.5977 39.2793L37.1562 23.7188L28.7422 15.3066L13.1836 30.8652ZM37.334 12.3711C35.7719 10.809 33.2379 10.809 31.6758 12.3711L31.0059 13.043L39.4199 21.457L40.0898 20.7852C41.6519 19.2231 41.6519 16.691 40.0898 15.1289L37.334 12.3711ZM11 4C11.3453 4 11.519 4.20117 11.6055 4.51758C11.6398 4.67953 11.6732 4.83688 11.7051 4.98828C12.6101 9.28016 12.6394 9.42081 17.4531 10.3945C17.7985 10.4523 18 10.6545 18 11C18 11.3456 17.7985 11.5479 17.4531 11.6055C12.5212 12.5409 12.4966 12.6673 11.6465 17.2539C11.6327 17.3285 11.6198 17.4054 11.6055 17.4824C11.519 17.7988 11.3453 18 11 18C10.6545 18 10.481 17.7988 10.3945 17.4824C10.3821 17.4154 10.3695 17.3484 10.3574 17.2832C9.50185 12.6694 9.48923 12.5997 4.54688 11.6055C4.2302 11.5479 4.00003 11.3456 4 11C4 10.6545 4.23019 10.4523 4.54688 10.3945C9.36154 9.4262 9.39276 9.28112 10.2812 5.05859C10.3177 4.88555 10.3548 4.70466 10.3945 4.51758C10.481 4.20117 10.6545 4 11 4Z" fill="#333333"/>
</svg>
