<svg width="48" height="48" viewBox="0 0 48 48" fill="none" xmlns="http://www.w3.org/2000/svg">
<path d="M4.39844 14.0004C4.39844 12.0122 6.01021 10.4004 7.99844 10.4004H39.9984C41.9867 10.4004 43.5984 12.0122 43.5984 14.0004V25.8391C42.6914 24.7733 41.6101 23.8604 40.3984 23.1445V14.0004C40.3984 13.7795 40.2193 13.6004 39.9984 13.6004H7.99844C7.77752 13.6004 7.59844 13.7795 7.59844 14.0004V34.0004C7.59844 34.2213 7.77752 34.4004 7.99844 34.4004H21.4047C21.4392 35.5091 21.6171 36.5817 21.9202 37.6004H7.99844C6.01021 37.6004 4.39844 35.9886 4.39844 34.0004V14.0004Z" fill="#333333"/>
<path d="M22.7086 28.3996C22.2122 29.3983 21.8444 30.4722 21.6269 31.5996L15.9984 31.5996C15.1148 31.5996 14.3984 30.8833 14.3984 29.9996C14.3984 29.1159 15.1148 28.3996 15.9984 28.3996L22.7086 28.3996Z" fill="#333333"/>
<path d="M11.998 20C10.898 20 9.99805 19.1 9.99805 18C9.99805 16.9 10.898 16 11.998 16C13.098 16 13.998 16.9 13.998 18C13.998 19.1 13.098 20 11.998 20Z" fill="#333333"/>
<path d="M17.998 20C16.898 20 15.998 19.1 15.998 18C15.998 16.9 16.898 16 17.998 16C19.098 16 19.998 16.9 19.998 18C19.998 19.1 19.098 20 17.998 20Z" fill="#333333"/>
<path d="M23.998 20C22.898 20 21.998 19.1 21.998 18C21.998 16.9 22.898 16 23.998 16C25.098 16 25.998 16.9 25.998 18C25.998 19.1 25.098 20 23.998 20Z" fill="#333333"/>
<path d="M29.998 20C28.898 20 27.998 19.1 27.998 18C27.998 16.9 28.898 16 29.998 16C31.098 16 31.998 16.9 31.998 18C31.998 19.1 31.098 20 29.998 20Z" fill="#333333"/>
<path d="M35.998 20C34.898 20 33.998 19.1 33.998 18C33.998 16.9 34.898 16 35.998 16C37.098 16 37.998 16.9 37.998 18C37.998 19.1 37.098 20 35.998 20Z" fill="#333333"/>
<path d="M14.998 26C13.898 26 12.998 25.1 12.998 24C12.998 22.9 13.898 22 14.998 22C16.098 22 16.998 22.9 16.998 24C16.998 25.1 16.098 26 14.998 26Z" fill="#333333"/>
<path d="M20.998 26C19.898 26 18.998 25.1 18.998 24C18.998 22.9 19.898 22 20.998 22C22.098 22 22.998 22.9 22.998 24C22.998 25.1 22.098 26 20.998 26Z" fill="#333333"/>
<path fill-rule="evenodd" clip-rule="evenodd" d="M33.998 44C39.5209 44 43.998 39.5228 43.998 34C43.998 28.4772 39.5209 24 33.998 24C28.4752 24 23.998 28.4772 23.998 34C23.998 39.5228 28.4752 44 33.998 44ZM31.998 28.6C31.998 27.5 32.898 26.6 33.998 26.6C35.098 26.6 35.998 27.5 35.998 28.6C35.998 29.7 35.098 30.6 33.998 30.6C32.898 30.6 31.998 29.7 31.998 28.6ZM33.998 41.6998C34.9369 41.6998 35.698 40.9387 35.698 39.9998V33.9998C35.698 33.0609 34.9369 32.2998 33.998 32.2998C33.0592 32.2998 32.298 33.0609 32.298 33.9998L32.298 39.9998C32.298 40.9387 33.0592 41.6998 33.998 41.6998Z" fill="#333333"/>
</svg>
