<svg width="48" height="48" viewBox="0 0 48 48" fill="none" xmlns="http://www.w3.org/2000/svg">
<path d="M22.8672 17.3828C23.4919 16.7585 24.5042 16.7585 25.1289 17.3828L31.6152 23.8691C32.2393 24.4939 32.2395 25.5062 31.6152 26.1309C30.9905 26.7556 29.9764 26.7555 29.3516 26.1309L25.5977 22.375V35.4844C25.5977 36.368 24.8817 37.084 23.998 37.084C23.1144 37.084 22.3984 36.368 22.3984 35.4844V22.375L18.6445 26.1309C18.0197 26.7555 17.0056 26.7556 16.3809 26.1309C15.7566 25.5062 15.7568 24.4939 16.3809 23.8691L22.8672 17.3828Z" fill="#333333"/>
<path d="M35.998 10.9141C36.8817 10.9141 37.5977 11.632 37.5977 12.5156C37.5971 13.3988 36.8814 14.1152 35.998 14.1152H11.998C11.1147 14.1152 10.399 13.3988 10.3984 12.5156C10.3984 11.632 11.1144 10.9141 11.998 10.9141H35.998Z" fill="#333333"/>
</svg>
