<svg width="48" height="48" viewBox="0 0 48 48" fill="none" xmlns="http://www.w3.org/2000/svg">
<path fill-rule="evenodd" clip-rule="evenodd" d="M23.3646 8.15417C23.1681 8.25548 22.9986 8.4023 22.8704 8.5824L13.9921 22.7263C12.7589 24.7154 12.0718 26.9944 12 29.3337C12 32.5163 13.2643 35.5686 15.5147 37.819C17.7652 40.0694 20.8174 41.3337 24 41.3337C27.1826 41.3337 30.2348 40.0694 32.4853 37.819C34.7357 35.5686 36 32.5163 36 29.3337C35.9233 26.9682 35.2223 24.6651 33.9681 22.658L25.1296 8.5824C25.0014 8.4023 24.8319 8.25548 24.6355 8.15417C24.439 8.05286 24.2211 8 24 8C23.7789 8 23.561 8.05286 23.3646 8.15417ZM16.7075 24.4195L24.0003 12.8014L31.2544 24.3538L31.2561 24.3565C32.1327 25.7603 32.654 27.354 32.7781 29L15.221 29C15.3403 27.3778 15.8494 25.8061 16.7075 24.4195Z" fill="#333333"/>
</svg>
