<svg width="48" height="48" viewBox="0 0 48 48" fill="none" xmlns="http://www.w3.org/2000/svg">
<path fill-rule="evenodd" clip-rule="evenodd" d="M35.998 6.40039C39.0908 6.40039 41.5977 8.90721 41.5977 12V36C41.5977 39.0928 39.0908 41.5996 35.998 41.5996H11.998C8.90525 41.5996 6.39844 39.0928 6.39844 36V12C6.39844 8.90721 8.90525 6.40039 11.998 6.40039H35.998ZM9.59766 30.9336V36C9.59766 37.3255 10.6726 38.4004 11.998 38.4004H17.0645V30.9336H9.59766ZM20.2637 30.9336V38.4004H27.7324V30.9336H20.2637ZM30.9316 30.9336V38.4004H35.998C37.3235 38.4004 38.3984 37.3255 38.3984 36V30.9336H30.9316ZM9.59766 27.7344H17.0645V20.2656H9.59766V27.7344ZM20.2637 27.7344H27.7324V20.2656H20.2637V27.7344ZM30.9316 27.7344H38.3984V20.2656H30.9316V27.7344ZM11.998 9.59961C10.6726 9.59961 9.59766 10.6745 9.59766 12V17.0664H17.0645V9.59961H11.998ZM20.2637 17.0664H27.7324V9.59961H20.2637V17.0664ZM30.9316 17.0664H38.3984V12C38.3984 10.6745 37.3235 9.59961 35.998 9.59961H30.9316V17.0664Z" fill="#333333"/>
</svg>
