<svg width="48" height="48" viewBox="0 0 48 48" fill="none" xmlns="http://www.w3.org/2000/svg">
<path d="M37.998 33.2344C38.8816 33.2345 39.5977 33.9504 39.5977 34.834C39.5971 35.7171 38.8813 36.4315 37.998 36.4316H9.99805C9.11472 36.4316 8.39896 35.7172 8.39844 34.834C8.39844 33.9503 9.11439 33.2344 9.99805 33.2344H37.998Z" fill="#333333"/>
<path d="M23.998 22.7559C24.8456 22.7559 25.5332 23.4997 25.5332 24.418C25.5327 25.3357 24.8453 26.0781 23.998 26.0781H9.99805C9.15072 26.0781 8.46533 25.3358 8.46484 24.418C8.46484 23.4997 9.15042 22.7559 9.99805 22.7559H23.998Z" fill="#333333"/>
<path d="M30.8691 6C31.3621 6.00038 31.609 6.28817 31.7324 6.74023C31.7815 6.97165 31.8294 7.19577 31.875 7.41211C33.1679 13.5432 33.2097 13.7438 40.0859 15.1348C40.5797 15.2171 40.8691 15.5063 40.8691 16C40.8691 16.4939 40.5797 16.7811 40.0859 16.8633C33.0406 18.1996 33.0074 18.3813 31.793 24.9336C31.7732 25.0404 31.7529 25.1495 31.7324 25.2598C31.609 25.7118 31.3621 25.9996 30.8691 26C30.3754 26 30.1274 25.7121 30.0039 25.2598C29.9861 25.1638 29.9685 25.0679 29.9512 24.9746C28.7291 18.3843 28.7105 18.2836 21.6504 16.8633C21.1978 16.7811 20.8692 16.4939 20.8691 16C20.8691 15.5063 21.1977 15.2171 21.6504 15.1348C28.528 13.7515 28.5725 13.5457 29.8418 7.51367C29.8939 7.26608 29.9471 7.00794 30.0039 6.74023C30.1274 6.28787 30.3754 6 30.8691 6Z" fill="#333333"/>
<path d="M16.998 12.2559C17.8456 12.2559 18.5312 12.9997 18.5312 13.918C18.5308 14.8358 17.8453 15.5781 16.998 15.5781H9.99805C9.15072 15.5781 8.46533 14.8358 8.46484 13.918C8.46484 12.9997 9.15042 12.2559 9.99805 12.2559H16.998Z" fill="#333333"/>
</svg>
