<svg width="48" height="48" viewBox="0 0 48 48" fill="none" xmlns="http://www.w3.org/2000/svg">
<path fill-rule="evenodd" clip-rule="evenodd" d="M35.1305 6.98989C36.9269 5.19348 39.8394 5.19347 41.6358 6.98989C43.4323 8.7863 43.4323 11.6989 41.6358 13.4953L39.5152 15.6159L39.7981 15.8988C40.5792 16.6798 40.5792 17.9462 39.7981 18.7272C39.0171 19.5083 37.7507 19.5083 36.9697 18.7272L36.6868 18.4443L27.4937 27.6374C25.6973 29.4338 22.7847 29.4338 20.9883 27.6374C19.1919 25.841 19.1919 22.9284 20.9883 21.132L30.1814 11.9389L29.8986 11.6561C29.1176 10.8751 29.1176 9.60876 29.8986 8.82771C30.6797 8.04667 31.946 8.04667 32.7271 8.82771L33.0098 9.1105L35.1305 6.98989ZM34.4241 16.1816L32.4442 14.2017L23.2511 23.3948C22.7043 23.9415 22.7043 24.8279 23.2511 25.3747C23.7978 25.9214 24.6842 25.9214 25.231 25.3747L34.4241 16.1816Z" fill="#333333"/>
<path d="M14.5984 10C14.5984 9.11634 13.8821 8.4 12.9984 8.4H9.99844C6.90564 8.4 4.39844 10.9072 4.39844 14V18C4.39844 18.8837 5.11478 19.6 5.99844 19.6C6.88209 19.6 7.59844 18.8837 7.59844 18V14C7.59844 12.6745 8.67295 11.6 9.99844 11.6H12.9984C13.8821 11.6 14.5984 10.8837 14.5984 10Z" fill="#333333"/>
<path d="M33.3984 38C33.3984 38.8837 34.1148 39.6 34.9984 39.6H37.9984C41.0912 39.6 43.5984 37.0928 43.5984 34V30C43.5984 29.1163 42.8821 28.4 41.9984 28.4C41.1148 28.4 40.3984 29.1163 40.3984 30V34C40.3984 35.3255 39.3239 36.4 37.9984 36.4H34.9984C34.1148 36.4 33.3984 37.1163 33.3984 38Z" fill="#333333"/>
<path d="M12.9984 39.6C13.8821 39.6 14.5984 38.8837 14.5984 38C14.5984 37.1163 13.8821 36.4 12.9984 36.4H9.99844C8.67295 36.4 7.59844 35.3255 7.59844 34V30C7.59844 29.1163 6.88209 28.4 5.99844 28.4C5.11478 28.4 4.39844 29.1163 4.39844 30V34C4.39844 37.0928 6.90564 39.6 9.99844 39.6H12.9984Z" fill="#333333"/>
<path d="M20.9306 17.5131L18.9713 15.8337C18.4774 15.4103 17.717 15.5639 17.4261 16.1458L9.72249 31.553C9.39004 32.2179 9.87353 33.0002 10.6169 33.0002H36.2956C37.224 33.0002 37.6513 31.8451 36.9464 31.2409L31.8962 26.9122L29.3322 29.4762C26.5205 32.288 21.9617 32.288 19.1499 29.4762C16.3381 26.6644 16.3381 22.1056 19.1499 19.2939L20.9306 17.5131Z" fill="#333333"/>
</svg>
