<svg width="48" height="48" viewBox="0 0 48 48" fill="none" xmlns="http://www.w3.org/2000/svg">
<path fill-rule="evenodd" clip-rule="evenodd" d="M33.9984 8.40039C32.5625 8.40039 31.3984 9.56445 31.3984 11.0004V39.0004C31.3984 40.4363 32.5625 41.6004 33.9984 41.6004H38.9984C40.4344 41.6004 41.5984 40.4363 41.5984 39.0004V11.0004C41.5984 9.56445 40.4344 8.40039 38.9984 8.40039H33.9984ZM38.3984 38.4004H34.5984V11.6004H38.3984V38.4004Z" fill="#333333"/>
<path fill-rule="evenodd" clip-rule="evenodd" d="M18.3984 25.0004C18.3984 23.5645 19.5625 22.4004 20.9984 22.4004H25.9984C27.4344 22.4004 28.5984 23.5645 28.5984 25.0004V39.0004C28.5984 40.4363 27.4344 41.6004 25.9984 41.6004H20.9984C19.5625 41.6004 18.3984 40.4363 18.3984 39.0004V25.0004ZM21.5984 25.6004V38.4004H25.3984V25.6004H21.5984Z" fill="#333333"/>
<path fill-rule="evenodd" clip-rule="evenodd" d="M5.39844 33.0004C5.39844 31.5644 6.5625 30.4004 7.99844 30.4004H12.9984C14.4344 30.4004 15.5984 31.5644 15.5984 33.0004V39.0004C15.5984 40.4363 14.4344 41.6004 12.9984 41.6004H7.99844C6.5625 41.6004 5.39844 40.4363 5.39844 39.0004V33.0004ZM8.59844 33.6004V38.4004H12.3984V33.6004H8.59844Z" fill="#333333"/>
</svg>
