<svg width="48" height="48" viewBox="0 0 48 48" fill="none" xmlns="http://www.w3.org/2000/svg">
<path d="M15.9984 22.3996C15.1148 22.3996 14.3984 23.116 14.3984 23.9996C14.3984 24.8833 15.1148 25.5996 15.9984 25.5996L31.9984 25.5996C32.8821 25.5996 33.5984 24.8833 33.5984 23.9996C33.5984 23.116 32.8821 22.3996 31.9984 22.3996L15.9984 22.3996Z" fill="#333333"/>
<path fill-rule="evenodd" clip-rule="evenodd" d="M11.9984 16.4004C7.80107 16.4004 4.39844 19.803 4.39844 24.0004C4.39844 28.1978 7.80107 31.6004 11.9984 31.6004H35.9984C40.1958 31.6004 43.5984 28.1978 43.5984 24.0004C43.5984 19.803 40.1958 16.4004 35.9984 16.4004H11.9984ZM7.59844 24.0004C7.59844 21.5703 9.56838 19.6004 11.9984 19.6004H35.9984C38.4285 19.6004 40.3984 21.5703 40.3984 24.0004C40.3984 26.4304 38.4285 28.4004 35.9984 28.4004H11.9984C9.56839 28.4004 7.59844 26.4304 7.59844 24.0004Z" fill="#333333"/>
</svg>
