<svg width="48" height="48" viewBox="0 0 48 48" fill="none" xmlns="http://www.w3.org/2000/svg">
<path fill-rule="evenodd" clip-rule="evenodd" d="M24.0008 16.2998C19.7482 16.2998 16.3008 19.7472 16.3008 23.9998C16.3008 28.2524 19.7482 31.6998 24.0008 31.6998C28.2534 31.6998 31.7008 28.2524 31.7008 23.9998C31.7008 19.7472 28.2534 16.2998 24.0008 16.2998ZM19.7008 23.9998C19.7008 21.625 21.626 19.6998 24.0008 19.6998C26.3756 19.6998 28.3008 21.625 28.3008 23.9998C28.3008 26.3746 26.3756 28.2998 24.0008 28.2998C21.626 28.2998 19.7008 26.3746 19.7008 23.9998Z" fill="#333333"/>
<path fill-rule="evenodd" clip-rule="evenodd" d="M19.46 4.2998C18.63 4.2998 17.9213 4.89928 17.7836 5.71786L16.8805 11.0875C16.4129 11.3356 15.9599 11.6069 15.5229 11.9L10.5433 10.3467C9.78661 10.1107 8.96721 10.429 8.56819 11.1139L4.53197 18.0421C4.11095 18.7648 4.27815 19.6863 4.92622 20.2151L8.81405 23.3869C8.78719 23.7547 8.77353 24.1258 8.77353 24.4998C8.77353 24.8614 8.78629 25.2203 8.81142 25.576L5.36191 28.7117C4.76835 29.2512 4.63271 30.1323 5.0365 30.8254L9.07272 37.7536C9.48883 38.4678 10.3584 38.7792 11.1333 38.4915L15.2975 36.9455C15.8599 37.3374 16.4502 37.6928 17.0649 38.0082L17.7836 42.2817C17.9213 43.1003 18.63 43.6998 19.46 43.6998H27.5325C28.3281 43.6998 29.0172 43.1481 29.1913 42.3718L30.0582 38.5055C31.0379 38.0947 31.9653 37.5858 32.8279 36.9914L36.8684 38.4915C37.6434 38.7792 38.5129 38.4678 38.929 37.7536L42.9653 30.8254C43.369 30.1323 43.2334 29.2512 42.6399 28.7117L39.3679 25.7374C39.4011 25.3289 39.418 24.9162 39.418 24.4998C39.418 24.0763 39.4005 23.6566 39.3662 23.2413L43.0755 20.2151C43.7236 19.6863 43.8908 18.7648 43.4698 18.0421L39.4336 11.1139C39.0345 10.429 38.2151 10.1107 37.4584 10.3467L32.6082 11.8596C31.8825 11.3779 31.1129 10.9558 30.3064 10.6007L29.1913 5.62784C29.0172 4.85155 28.3281 4.2998 27.5325 4.2998H19.46ZM20.0892 12.5091L20.898 7.6998H26.1715L27.1837 12.214C27.31 12.7771 27.7133 13.2376 28.2548 13.4372C29.3527 13.8417 30.3747 14.4022 31.2932 15.0917C31.7302 15.4198 32.2983 15.5178 32.82 15.3551L37.1777 13.9959L39.8009 18.4987L36.4967 21.1944C36.0321 21.5734 35.8016 22.1691 35.8899 22.7621C35.9742 23.3283 36.018 23.9084 36.018 24.4998C36.018 25.068 35.9776 25.626 35.8996 26.1711C35.8198 26.7292 36.0218 27.2905 36.439 27.6697L39.3351 30.3024L36.7111 34.8064L33.1514 33.4847C32.5962 33.2786 31.9738 33.3762 31.5084 33.7424C30.4772 34.5538 29.3079 35.1993 28.0415 35.6387C27.4854 35.8317 27.0687 36.2985 26.9399 36.8728L26.1715 40.2998H20.898L20.2711 36.5718C20.1759 36.0062 19.802 35.5266 19.2766 35.2965C18.3225 34.8786 17.4337 34.3401 16.6301 33.7004C16.1641 33.3295 15.538 33.2294 14.9796 33.4367L11.2906 34.8064L8.6667 30.3024L11.7316 27.5163C12.1436 27.1418 12.3461 26.5892 12.2736 26.0371C12.2076 25.5347 12.1735 25.0216 12.1735 24.4998C12.1735 23.9505 12.2113 23.4108 12.2843 22.8831C12.3655 22.2955 12.1346 21.708 11.675 21.333L8.20086 18.4987L10.8241 13.9959L15.316 15.397C15.8406 15.5606 16.412 15.4606 16.8498 15.1284C17.549 14.5979 18.309 14.1425 19.1175 13.7742C19.6314 13.5401 19.9956 13.066 20.0892 12.5091Z" fill="#333333"/>
</svg>
