<svg width="48" height="48" viewBox="0 0 48 48" fill="none" xmlns="http://www.w3.org/2000/svg">
<path fill-rule="evenodd" clip-rule="evenodd" d="M10.9984 6.40039C9.01021 6.40039 7.39844 8.01217 7.39844 10.0004V14.0004C7.39844 15.9886 9.01021 17.6004 10.9984 17.6004H18.9984C20.9867 17.6004 22.5984 15.9886 22.5984 14.0004L22.5984 10.0004C22.5984 8.01217 20.9867 6.40039 18.9984 6.40039H10.9984ZM10.5984 10.0004C10.5984 9.77948 10.7775 9.60039 10.9984 9.60039L18.9984 9.60039C19.2194 9.60039 19.3984 9.77948 19.3984 10.0004L19.3984 14.0004C19.3984 14.2213 19.2194 14.4004 18.9984 14.4004L10.9984 14.4004C10.7775 14.4004 10.5984 14.2213 10.5984 14.0004V10.0004Z" fill="#333333"/>
<path fill-rule="evenodd" clip-rule="evenodd" d="M28.9984 41.6004C27.0102 41.6004 25.3984 39.9886 25.3984 38.0004V34.0004C25.3984 32.0122 27.0102 30.4004 28.9984 30.4004H36.9984C38.9867 30.4004 40.5984 32.0122 40.5984 34.0004V38.0004C40.5984 39.9886 38.9867 41.6004 36.9984 41.6004H28.9984ZM28.5984 38.0004C28.5984 38.2213 28.7775 38.4004 28.9984 38.4004H36.9984C37.2194 38.4004 37.3984 38.2213 37.3984 38.0004V34.0004C37.3984 33.7795 37.2194 33.6004 36.9984 33.6004H28.9984C28.7775 33.6004 28.5984 33.7795 28.5984 34.0004V38.0004Z" fill="#333333"/>
<path fill-rule="evenodd" clip-rule="evenodd" d="M7.39844 24.0004C7.39844 22.0122 9.01021 20.4004 10.9984 20.4004H18.9984C20.9867 20.4004 22.5984 22.0122 22.5984 24.0004L22.5984 38.0004C22.5984 39.9886 20.9867 41.6004 18.9984 41.6004H10.9984C9.01021 41.6004 7.39844 39.9886 7.39844 38.0004V24.0004ZM10.9984 23.6004C10.7775 23.6004 10.5984 23.7795 10.5984 24.0004V38.0004C10.5984 38.2213 10.7775 38.4004 10.9984 38.4004H18.9984C19.2194 38.4004 19.3984 38.2213 19.3984 38.0004L19.3984 24.0004C19.3984 23.7795 19.2194 23.6004 18.9984 23.6004H10.9984Z" fill="#333333"/>
<path fill-rule="evenodd" clip-rule="evenodd" d="M28.9984 27.6004C27.0102 27.6004 25.3984 25.9886 25.3984 24.0004V10.0004C25.3984 8.01217 27.0102 6.40039 28.9984 6.40039H36.9984C38.9867 6.40039 40.5984 8.01217 40.5984 10.0004V24.0004C40.5984 25.9886 38.9867 27.6004 36.9984 27.6004H28.9984ZM28.5984 24.0004C28.5984 24.2213 28.7775 24.4004 28.9984 24.4004H36.9984C37.2194 24.4004 37.3984 24.2213 37.3984 24.0004V10.0004C37.3984 9.77948 37.2194 9.60039 36.9984 9.60039H28.9984C28.7775 9.60039 28.5984 9.77948 28.5984 10.0004V24.0004Z" fill="#333333"/>
</svg>
