<svg width="48" height="48" viewBox="0 0 48 48" fill="none" xmlns="http://www.w3.org/2000/svg">
<path fill-rule="evenodd" clip-rule="evenodd" d="M30.999 12.3993C28.4585 12.3993 26.399 14.4588 26.399 16.9993C26.399 19.5398 28.4585 21.5993 30.999 21.5993C33.5395 21.5993 35.599 19.5398 35.599 16.9993C35.599 14.4588 33.5395 12.3993 30.999 12.3993ZM29.599 16.9993C29.599 16.2261 30.2258 15.5993 30.999 15.5993C31.7722 15.5993 32.399 16.2261 32.399 16.9993C32.399 17.7725 31.7722 18.3993 30.999 18.3993C30.2258 18.3993 29.599 17.7725 29.599 16.9993Z" fill="#333333"/>
<path fill-rule="evenodd" clip-rule="evenodd" d="M41.9773 9.46047C41.9773 7.56009 40.4367 6.01953 38.5364 6.01953L26.2546 6.01954C24.8538 6.01954 23.5103 6.57602 22.5198 7.56657L7.33218 22.7542C5.26949 24.8169 5.26948 28.1612 7.33218 30.2239L17.7727 40.6644C19.8354 42.7271 23.1798 42.7271 25.2425 40.6644L40.4303 25.4761C41.4208 24.4856 41.9773 23.1422 41.9773 21.7413L41.9773 9.46047ZM38.5364 9.21953C38.6694 9.21953 38.7773 9.3274 38.7773 9.46047L38.7773 21.7413C38.7773 22.2935 38.558 22.823 38.1675 23.2134L22.9797 38.4016C22.1667 39.2147 20.8485 39.2147 20.0355 38.4017L9.59492 27.9611C8.7819 27.1481 8.7819 25.8299 9.59492 25.0169L24.7825 9.82931C25.1729 9.43888 25.7025 9.21954 26.2546 9.21954L38.5364 9.21953Z" fill="#333333"/>
</svg>
