<svg width="48" height="48" viewBox="0 0 48 48" fill="none" xmlns="http://www.w3.org/2000/svg">
<path d="M16.5984 10.0004C16.5984 9.11674 15.8821 8.40039 14.9984 8.40039C14.1148 8.40039 13.3984 9.11674 13.3984 10.0004V23.0004C13.3984 28.8546 18.1442 33.6004 23.9984 33.6004C29.8527 33.6004 34.5984 28.8546 34.5984 23.0004V10.0004C34.5984 9.11674 33.8821 8.40039 32.9984 8.40039C32.1148 8.40039 31.3984 9.11674 31.3984 10.0004V23.0004C31.3984 27.0873 28.0853 30.4004 23.9984 30.4004C19.9115 30.4004 16.5984 27.0873 16.5984 23.0004V10.0004Z" fill="#333333"/>
<path d="M13.9984 36.3996C13.1148 36.3996 12.3984 37.1159 12.3984 37.9996C12.3984 38.8833 13.1148 39.5996 13.9984 39.5996L33.9984 39.5996C34.8821 39.5996 35.5984 38.8833 35.5984 37.9996C35.5984 37.116 34.8821 36.3996 33.9984 36.3996L13.9984 36.3996Z" fill="#333333"/>
</svg>
