<svg width="48" height="48" viewBox="0 0 48 48" fill="none" xmlns="http://www.w3.org/2000/svg">
<path d="M34.1791 16.3427C34.2092 15.8914 33.9372 15.4747 33.512 15.3206C33.0868 15.1665 32.611 15.3122 32.345 15.678L22.1922 29.638C21.9676 29.9468 21.9353 30.3555 22.1086 30.6958C22.2819 31.0361 22.6315 31.2504 23.0133 31.2504H31.4411L30.8843 39.0464C30.8523 39.4942 31.1182 39.9099 31.5382 40.0685C31.9582 40.2272 32.4325 40.0912 32.7045 39.7341L42.8573 26.4086C43.0912 26.1016 43.1308 25.6886 42.9595 25.3427C42.7882 24.9969 42.4356 24.778 42.0497 24.778H33.6167L34.1791 16.3427Z" fill="#333333"/>
<path d="M11.9984 4.40039C8.90564 4.40039 6.39844 6.9076 6.39844 10.0004V38.0004C6.39844 41.0932 8.90564 43.6004 11.9984 43.6004H25.9984C27.3325 43.6004 28.5576 43.1339 29.5195 42.3551C28.5953 41.6762 27.9975 40.6252 27.8968 39.469C27.4578 40.0356 26.7707 40.4004 25.9984 40.4004H11.9984C10.673 40.4004 9.59844 39.3259 9.59844 38.0004V10.0004C9.59844 8.67491 10.673 7.60039 11.9984 7.60039H25.9984C27.3239 7.60039 28.3984 8.67491 28.3984 10.0004V16.0041L29.9188 13.9137C30.3587 13.3088 30.9437 12.8561 31.5984 12.5787V10.0004C31.5984 6.9076 29.0912 4.40039 25.9984 4.40039H11.9984Z" fill="#333333"/>
<path fill-rule="evenodd" clip-rule="evenodd" d="M15.398 36C15.398 35.1163 16.1144 34.4 16.998 34.4H20.998C21.8817 34.4 22.598 35.1163 22.598 36C22.598 36.8837 21.8817 37.6 20.998 37.6H16.998C16.1144 37.6 15.398 36.8837 15.398 36Z" fill="#333333"/>
</svg>
