<svg width="48" height="48" viewBox="0 0 48 48" fill="none" xmlns="http://www.w3.org/2000/svg">
<path d="M19.998 12.4004C20.8817 12.4004 21.5977 13.1163 21.5977 14C21.5977 14.8837 20.8817 15.5996 19.998 15.5996H15.8594L23.1289 22.8691C23.7537 23.494 23.7537 24.506 23.1289 25.1309C22.5041 25.7556 21.492 25.7557 20.8672 25.1309L13.5977 17.8613V22C13.5977 22.8837 12.8817 23.5996 11.998 23.5996C11.1144 23.5996 10.3984 22.8837 10.3984 22V14.4004C10.3984 13.2958 11.2939 12.4004 12.3984 12.4004H19.998Z" fill="#333333"/>
<path fill-rule="evenodd" clip-rule="evenodd" d="M29.998 6.40039C33.0908 6.40039 35.5977 8.90721 35.5977 12V18.4004H37.998C41.0908 18.4004 43.5977 20.9072 43.5977 24V36C43.5977 39.0928 41.0908 41.5996 37.998 41.5996H19.998C16.9053 41.5996 14.3984 39.0928 14.3984 36V31.5996H9.99805C6.90525 31.5996 4.39844 29.0928 4.39844 26V12C4.39844 8.90721 6.90525 6.40039 9.99805 6.40039H29.998ZM35.5977 26C35.5977 29.0928 33.0908 31.5996 29.998 31.5996H17.5977V36C17.5977 37.3255 18.6726 38.4004 19.998 38.4004H37.998C39.3235 38.4004 40.3984 37.3255 40.3984 36V24C40.3984 22.6745 39.3235 21.5996 37.998 21.5996H35.5977V26ZM9.99805 9.59961C8.67256 9.59961 7.59766 10.6745 7.59766 12V26C7.59766 27.3255 8.67256 28.4004 9.99805 28.4004H29.998C31.3235 28.4004 32.3984 27.3255 32.3984 26V12C32.3984 10.6745 31.3235 9.59961 29.998 9.59961H9.99805Z" fill="#333333"/>
</svg>
