<svg width="48" height="48" viewBox="0 0 48 48" fill="none" xmlns="http://www.w3.org/2000/svg">
<path d="M17.7442 24.122C17.1189 23.4977 16.1058 23.4984 15.4815 24.1237C14.8571 24.749 14.8578 25.7621 15.4832 26.3865L20.3902 31.2861C21.0152 31.9102 22.0276 31.9098 22.6521 31.2853L33.745 20.1923C34.3699 19.5675 34.3699 18.5544 33.745 17.9296C33.1202 17.3047 32.1071 17.3047 31.4823 17.9296L21.5198 27.892L17.7442 24.122Z" fill="#333333"/>
<path fill-rule="evenodd" clip-rule="evenodd" d="M12.9215 6.40039C9.31892 6.40039 6.39844 9.32087 6.39844 12.9235V35.0773C6.39844 38.6799 9.31892 41.6004 12.9215 41.6004H35.0754C38.678 41.6004 41.5984 38.6799 41.5984 35.0773V12.9235C41.5984 9.32087 38.678 6.40039 35.0754 6.40039H12.9215ZM9.59844 12.9235C9.59844 11.0882 11.0862 9.60039 12.9215 9.60039H35.0754C36.9106 9.60039 38.3984 11.0882 38.3984 12.9235V35.0773C38.3984 36.9126 36.9106 38.4004 35.0754 38.4004H12.9215C11.0862 38.4004 9.59844 36.9126 9.59844 35.0773V12.9235Z" fill="#333333"/>
</svg>
