<svg width="48" height="48" viewBox="0 0 48 48" fill="none" xmlns="http://www.w3.org/2000/svg">
<path fill-rule="evenodd" clip-rule="evenodd" d="M21.9976 7.14747C22.5602 6.62657 23.2653 6.40039 23.9984 6.40039C24.7316 6.40039 25.4366 6.62664 25.999 7.14738C26.5233 7.63282 26.7833 8.24565 26.9248 8.7647L26.9369 8.80886L26.9464 8.85363C27.0258 9.22814 27.1017 9.588 27.1747 9.93407C27.6399 12.1389 27.9869 13.7837 28.374 15.0887C28.8157 16.5778 29.2555 17.4199 29.8158 18.0084C30.3704 18.5911 31.1845 19.0729 32.6687 19.5518C34.1693 20.0359 36.1837 20.4664 39.0411 21.0445C39.6664 21.1537 40.3293 21.4215 40.8417 21.9733C41.3794 22.5525 41.5984 23.2796 41.5984 24.0003C41.5984 24.7208 41.3795 25.4481 40.8417 26.0274C40.3263 26.5824 39.6587 26.8501 39.0301 26.9579C36.1506 27.5041 34.1094 27.9115 32.5835 28.3814C31.0733 28.8463 30.2438 29.323 29.684 29.9023C29.1221 30.4838 28.6819 31.3232 28.2593 32.8183C27.8557 34.246 27.5136 36.091 27.0428 38.6303C27.0138 38.7866 26.9843 38.9455 26.9543 39.1071L26.9422 39.1722L26.9248 39.2361C26.7833 39.7551 26.5233 40.368 25.999 40.8534C25.4366 41.3741 24.7316 41.6004 23.9984 41.6004C23.2653 41.6004 22.5602 41.3742 21.9977 40.8533C21.4733 40.3678 21.2135 39.7549 21.072 39.2361L21.0546 39.1722L21.0426 39.1072C21.0173 38.9712 20.9924 38.8371 20.9679 38.7049C20.49 36.1284 20.1452 34.2699 19.7382 32.8394C19.3165 31.3574 18.8779 30.5309 18.3182 29.9573C17.7575 29.3826 16.9254 28.9082 15.4081 28.4353C13.8759 27.9578 11.831 27.5344 8.94671 26.9542C8.34376 26.8419 7.70414 26.5715 7.20054 26.0492C6.66977 25.4987 6.39844 24.7783 6.39844 24.0003C6.39844 23.2221 6.66988 22.5018 7.20054 21.9515C7.7041 21.4292 8.34366 21.1588 8.94651 21.0464C11.826 20.4672 13.8515 20.0362 15.3567 19.5515C16.8437 19.0726 17.6536 18.5914 18.203 18.0113C18.7585 17.4247 19.1933 16.5845 19.6308 15.0932C20.0042 13.8206 20.3395 12.2277 20.7858 10.1078C20.8698 9.70888 20.9577 9.29128 21.0505 8.85363L21.06 8.80886L21.072 8.7647C21.2135 8.2459 21.4733 7.633 21.9976 7.14747ZM23.9985 10.3811C23.9734 10.5007 23.9484 10.6191 23.9238 10.7363C23.4797 12.8478 23.1131 14.5907 22.7014 15.9941C22.2068 17.6798 21.5922 19.0865 20.5263 20.2118C19.4543 21.3437 18.0708 22.0393 16.3376 22.5975C14.8142 23.088 12.8915 23.5105 10.4852 24.0001C12.8902 24.4874 14.8246 24.9016 16.3603 25.3803C18.1043 25.9238 19.5149 26.6017 20.6085 27.7225C21.7031 28.8443 22.3303 30.2565 22.8161 31.9637C23.2335 33.4307 23.583 35.2594 23.9984 37.4965C24.4137 35.258 24.763 33.4226 25.1799 31.9478C25.6647 30.233 26.2904 28.8091 27.3829 27.6786C28.4773 26.546 29.8907 25.8622 31.6419 25.323C33.1742 24.8512 35.0987 24.4527 37.4882 23.9942C35.1077 23.507 33.2007 23.0858 31.6862 22.5972C29.9564 22.0391 28.573 21.344 27.498 20.2147C26.4286 19.0913 25.8067 17.6865 25.3061 15.9987C24.8792 14.5596 24.5013 12.7666 24.0414 10.5848C24.0272 10.5173 24.0129 10.4494 23.9985 10.3811ZM38.5842 24.2206C38.5841 24.2206 38.5831 24.2202 38.5813 24.2193L38.5842 24.2206ZM38.5816 23.7812C38.5835 23.7803 38.5844 23.7799 38.5845 23.7799L38.5816 23.7812ZM9.45457 24.2138C9.45311 24.2146 9.45233 24.215 9.4523 24.2149L9.45457 24.2138ZM9.45204 23.7856C9.45206 23.7856 9.45281 23.7859 9.45422 23.7867L9.45204 23.7856Z" fill="#333333"/>
</svg>
