<svg width="48" height="48" viewBox="0 0 48 48" fill="none" xmlns="http://www.w3.org/2000/svg">
<path d="M13.998 28.4004C17.0908 28.4004 19.5977 30.9072 19.5977 34V40C19.5977 40.8837 18.8817 41.5996 17.998 41.5996C17.1144 41.5996 16.3984 40.8837 16.3984 40V34C16.3984 32.6745 15.3235 31.5996 13.998 31.5996H7.99805C7.11439 31.5996 6.39844 30.8837 6.39844 30C6.39844 29.1163 7.11439 28.4004 7.99805 28.4004H13.998Z" fill="#333333"/>
<path d="M39.998 28.4004C40.8817 28.4004 41.5977 29.1163 41.5977 30C41.5977 30.8837 40.8817 31.5996 39.998 31.5996H33.998C32.6726 31.5996 31.5977 32.6745 31.5977 34V40C31.5977 40.8837 30.8817 41.5996 29.998 41.5996C29.1144 41.5996 28.3984 40.8837 28.3984 40V34C28.3984 30.9072 30.9053 28.4004 33.998 28.4004H39.998Z" fill="#333333"/>
<path d="M17.998 6.40039C18.8817 6.40039 19.5977 7.11634 19.5977 8V14C19.5977 17.0928 17.0908 19.5996 13.998 19.5996H7.99805C7.11439 19.5996 6.39844 18.8837 6.39844 18C6.39844 17.1163 7.11439 16.4004 7.99805 16.4004H13.998C15.3235 16.4004 16.3984 15.3255 16.3984 14V8C16.3984 7.11634 17.1144 6.40039 17.998 6.40039Z" fill="#333333"/>
<path d="M29.998 6.40039C30.8817 6.40039 31.5977 7.11634 31.5977 8V14C31.5977 15.3255 32.6726 16.4004 33.998 16.4004H39.998C40.8817 16.4004 41.5977 17.1163 41.5977 18C41.5977 18.8837 40.8817 19.5996 39.998 19.5996H33.998C30.9053 19.5996 28.3984 17.0928 28.3984 14V8C28.3984 7.11634 29.1144 6.40039 29.998 6.40039Z" fill="#333333"/>
</svg>
