<svg width="48" height="48" viewBox="0 0 48 48" fill="none" xmlns="http://www.w3.org/2000/svg">
<path d="M29.8129 21.6135C30.9046 21.6135 31.7796 20.6408 31.3722 19.6279C31.276 19.3885 31.1673 19.1583 31.0463 18.9373C30.6202 18.1589 30.0748 17.4998 29.41 16.9601C28.7452 16.4203 27.981 16.0112 27.1174 15.7328C26.2594 15.4487 25.3276 15.3066 24.3219 15.3066C22.7935 15.3066 21.4157 15.6589 20.1884 16.3635C18.9668 17.068 17.998 18.0879 17.2821 19.4231C16.5719 20.7583 16.2168 22.3748 16.2168 24.2726C16.2168 26.1646 16.5691 27.7811 17.2736 29.122C17.9782 30.4572 18.9412 31.4771 20.1628 32.1816C21.3844 32.8862 22.7708 33.2385 24.3219 33.2385C25.4299 33.2385 26.4242 33.0737 27.3049 32.7441C28.1855 32.4089 28.9469 31.9544 29.589 31.3805C30.231 30.801 30.7452 30.1419 31.1316 29.4032C31.1888 29.2938 31.243 29.1835 31.294 29.0726C31.7549 28.0701 30.892 27.0805 29.7886 27.0753L29.604 27.0744C28.817 27.0707 28.1861 27.6676 27.7736 28.3379C27.5463 28.7072 27.2623 29.0197 26.9213 29.2754C26.5861 29.5311 26.2026 29.7271 25.7708 29.8635C25.3446 29.9941 24.8816 30.0595 24.3816 30.0595C23.4895 30.0595 22.7026 29.8407 22.0208 29.4032C21.339 28.9657 20.8049 28.318 20.4185 27.4601C20.0378 26.5964 19.8475 25.5339 19.8475 24.2726C19.8475 23.0396 20.0378 21.9941 20.4185 21.1362C20.7992 20.2726 21.3304 19.6163 22.0123 19.1674C22.6941 18.7129 23.4895 18.4856 24.3986 18.4856C24.91 18.4856 25.3816 18.5566 25.8134 18.6987C26.2509 18.8407 26.6373 19.0481 26.9725 19.3208C27.3077 19.5879 27.5833 19.9146 27.7992 20.301C28.2021 20.9932 28.8351 21.6135 29.6361 21.6135H29.8129Z" fill="#333333"/>
<path fill-rule="evenodd" clip-rule="evenodd" d="M23.9984 4.40039C13.1737 4.40039 4.39844 13.1756 4.39844 24.0004C4.39844 34.8252 13.1737 43.6004 23.9984 43.6004C34.8232 43.6004 43.5984 34.8252 43.5984 24.0004C43.5984 13.1756 34.8232 4.40039 23.9984 4.40039ZM7.59844 24.0004C7.59844 14.9429 14.941 7.60039 23.9984 7.60039C33.0559 7.60039 40.3984 14.9429 40.3984 24.0004C40.3984 33.0579 33.0559 40.4004 23.9984 40.4004C14.941 40.4004 7.59844 33.0579 7.59844 24.0004Z" fill="#333333"/>
</svg>
