<svg width="48" height="48" viewBox="0 0 48 48" fill="none" xmlns="http://www.w3.org/2000/svg">
<path d="M20.4834 34.1523C20.0559 35.9013 18.4784 37.1992 16.5977 37.1992C14.3885 37.1992 12.5977 35.4084 12.5977 33.1992C12.5977 30.9901 14.3885 29.1992 16.5977 29.1992C16.943 29.1992 17.278 29.243 17.5977 29.3252V21.569C17.5977 20.0078 18.6039 18.6246 20.0893 18.1439L28.8036 15.324C31.1288 14.5716 33.5119 16.3052 33.5119 18.7491V30.9998C33.5119 31.0405 33.5104 31.0807 33.5075 31.1206C33.509 31.1661 33.5098 31.2119 33.5098 31.2578C33.5098 33.467 31.7189 35.2578 29.5098 35.2578C27.3006 35.2578 25.5098 33.467 25.5098 31.2578C25.5098 29.0487 27.3006 27.2578 29.5098 27.2578C29.7845 27.2578 30.0528 27.2855 30.3119 27.3383V18.7491C30.3119 18.4776 30.0471 18.285 29.7888 18.3686L21.0745 21.1885C20.9095 21.2419 20.7977 21.3956 20.7977 21.569V33.1998C20.7977 33.5566 20.6809 33.8862 20.4834 34.1523Z" fill="#333333"/>
<path fill-rule="evenodd" clip-rule="evenodd" d="M11.9984 4.40039C8.90564 4.40039 6.39844 6.9076 6.39844 10.0004V38.0004C6.39844 41.0932 8.90564 43.6004 11.9984 43.6004H35.9984C39.0912 43.6004 41.5984 41.0932 41.5984 38.0004V17.4146C41.5984 16.725 41.3245 16.0637 40.8369 15.5761L30.4227 5.16191C29.9351 4.67432 29.2738 4.40039 28.5842 4.40039H11.9984ZM9.59844 10.0004C9.59844 8.67491 10.673 7.60039 11.9984 7.60039H28.3357L38.3984 17.6631V38.0004C38.3984 39.3259 37.3239 40.4004 35.9984 40.4004H11.9984C10.673 40.4004 9.59844 39.3259 9.59844 38.0004V10.0004Z" fill="#333333"/>
</svg>
