<svg width="48" height="48" viewBox="0 0 48 48" fill="none" xmlns="http://www.w3.org/2000/svg">
<path fill-rule="evenodd" clip-rule="evenodd" d="M8.19538 19.6004C7.80636 21.0006 7.59844 22.4762 7.59844 24.0004C7.59844 25.5246 7.80636 27.0002 8.19538 28.4004H14.9751C14.4708 25.5362 14.4987 22.7726 14.9009 20.1801C14.9311 19.9858 14.9633 19.7925 14.9976 19.6004H8.19538ZM18.2551 19.6004C18.1833 19.953 18.1191 20.3099 18.0631 20.6707C17.6901 23.0751 17.6789 25.675 18.2317 28.4004H22.7082C22.2119 29.3991 21.8442 30.473 21.6267 31.6004H19.1328C19.7429 33.2868 20.5839 35.0087 21.6996 36.751C22.296 39.4297 23.7452 41.787 25.7476 43.5234C25.1713 43.5744 24.5879 43.6004 23.9984 43.6004C13.1737 43.6004 4.39844 34.8252 4.39844 24.0004C4.39844 13.1756 13.1737 4.40039 23.9984 4.40039C34.8232 4.40039 43.5984 13.1756 43.5984 24.0004C43.5984 24.5899 43.5724 25.1733 43.5215 25.7495C42.6248 24.7155 41.5625 23.8289 40.3758 23.1312C40.3123 21.9144 40.1161 20.7327 39.8015 19.6004H32.9067C32.941 19.7925 32.9732 19.9858 33.0034 20.1801C33.0672 20.5917 33.1216 21.0075 33.166 21.4275C32.0704 21.4989 31.0131 21.7104 30.0116 22.0442C29.9684 21.5798 29.9112 21.1218 29.8412 20.6707C29.7852 20.3099 29.721 19.953 29.6492 19.6004H18.2551ZM40.2526 26.1973C38.5399 24.8227 36.365 24.0004 33.998 24.0004C28.4752 24.0004 23.998 28.4775 23.998 34.0004C23.998 39.5232 28.4752 44.0004 33.998 44.0004C39.5209 44.0004 43.998 39.5232 43.998 34.0004C43.998 32.3246 43.5858 30.7451 42.8573 29.3577C42.8572 29.3579 42.8573 29.3575 42.8573 29.3577C42.2138 28.1324 41.3236 27.0568 40.2526 26.1973C40.2526 26.1972 40.2526 26.1974 40.2526 26.1973ZM15.7563 31.6004H9.46194C11.5994 35.6802 15.404 38.7491 19.9711 39.9022C17.9717 37.1081 16.609 34.322 15.7563 31.6004ZM19.1417 16.4004C20.3522 12.9555 22.205 10.0803 23.9521 8.08165C25.6993 10.0803 27.5521 12.9555 28.7626 16.4004H19.1417ZM19.852 8.1291C18.2604 10.3781 16.76 13.1888 15.7731 16.4004H9.46194C11.5808 12.356 15.3379 9.30514 19.852 8.1291ZM38.5349 16.4004H32.1312C31.14 13.175 29.6309 10.3539 28.0318 8.10005C32.5962 9.25429 36.3984 12.3223 38.5349 16.4004ZM35.698 27.7004C35.698 26.7615 34.9369 26.0004 33.998 26.0004C33.0592 26.0004 32.298 26.7615 32.298 27.7004L32.298 33.7004C32.298 34.6393 33.0592 35.4004 33.998 35.4004C34.9369 35.4004 35.698 34.6392 35.698 33.7004V27.7004ZM33.998 41.7004C32.898 41.7004 31.998 40.8004 31.998 39.7004C31.998 38.6004 32.898 37.7004 33.998 37.7004C35.098 37.7004 35.998 38.6004 35.998 39.7004C35.998 40.8004 35.098 41.7004 33.998 41.7004Z" fill="#333333"/>
</svg>
