<svg width="48" height="48" viewBox="0 0 48 48" fill="none" xmlns="http://www.w3.org/2000/svg">
<path fill-rule="evenodd" clip-rule="evenodd" d="M17.998 16.8238C17.998 14.59 20.5069 13.2755 22.3436 14.547L32.7093 21.7233C34.2999 22.8244 34.2999 25.1757 32.7093 26.2769L22.3436 33.4532C20.5069 34.7247 17.998 33.4102 17.998 31.1764V16.8238ZM30.3762 24.0001L21.198 30.3542V17.646L30.3762 24.0001Z" fill="#333333"/>
<path fill-rule="evenodd" clip-rule="evenodd" d="M23.9984 4.40039C13.1737 4.40039 4.39844 13.1756 4.39844 24.0004C4.39844 34.8252 13.1737 43.6004 23.9984 43.6004C34.8232 43.6004 43.5984 34.8252 43.5984 24.0004C43.5984 13.1756 34.8232 4.40039 23.9984 4.40039ZM7.59844 24.0004C7.59844 14.9429 14.941 7.60039 23.9984 7.60039C33.0559 7.60039 40.3984 14.9429 40.3984 24.0004C40.3984 33.0579 33.0559 40.4004 23.9984 40.4004C14.941 40.4004 7.59844 33.0579 7.59844 24.0004Z" fill="#333333"/>
</svg>
