<svg width="48" height="48" viewBox="0 0 48 48" fill="none" xmlns="http://www.w3.org/2000/svg">
<path d="M6.39844 8.00039C6.39844 7.11674 7.11478 6.40039 7.99844 6.40039C8.88209 6.40039 9.59844 7.11674 9.59844 8.00039V13.5991C12.8224 9.23278 18.023 6.40039 23.8871 6.40039C33.6583 6.40039 41.5984 14.2697 41.5984 24.0004C41.5984 32.9491 34.8833 40.3228 26.2047 41.4509C25.3284 41.5648 24.5257 40.9468 24.4118 40.0705C24.2979 39.1942 24.9159 38.3915 25.7922 38.2776C32.9142 37.3518 38.3984 31.3034 38.3984 24.0004C38.3984 16.0579 31.912 9.60039 23.8871 9.60039C18.6817 9.60039 14.1192 12.3195 11.5586 16.4004H16.9984C17.8821 16.4004 18.5984 17.1167 18.5984 18.0004C18.5984 18.884 17.8821 19.6004 16.9984 19.6004H7.99844C7.11478 19.6004 6.39844 18.884 6.39844 18.0004V8.00039Z" fill="#333333"/>
<path d="M8.12122 27.6821C7.28598 27.9706 6.84278 28.8816 7.13128 29.7168C7.73952 31.4777 8.62029 33.1112 9.72251 34.568C10.2557 35.2727 11.2592 35.4117 11.9638 34.8785C12.6685 34.3453 12.8075 33.3419 12.2744 32.6372C11.3717 31.4442 10.6522 30.1088 10.1559 28.6721C9.86741 27.8368 8.95645 27.3936 8.12122 27.6821Z" fill="#333333"/>
<path d="M13.9699 36.711C13.5021 37.4606 13.7306 38.4476 14.4803 38.9154C15.913 39.8093 17.4842 40.5055 19.1547 40.9647C20.0068 41.199 20.8874 40.6981 21.1216 39.8461C21.3559 38.994 20.855 38.1134 20.003 37.8792C18.6353 37.5032 17.3484 36.9332 16.1743 36.2005C15.4246 35.7327 14.4377 35.9613 13.9699 36.711Z" fill="#333333"/>
<path d="M23.9984 12.4004C23.1148 12.4004 22.3984 13.1167 22.3984 14.0004V24.0004C22.3984 24.4247 22.567 24.8317 22.8671 25.1318L26.8671 29.1318C27.4919 29.7566 28.505 29.7566 29.1298 29.1318C29.7546 28.5069 29.7546 27.4939 29.1298 26.869L25.5984 23.3377V14.0004C25.5984 13.1167 24.8821 12.4004 23.9984 12.4004Z" fill="#333333"/>
</svg>
