<svg width="48" height="48" viewBox="0 0 48 48" fill="none" xmlns="http://www.w3.org/2000/svg">
<path d="M33.502 21C34.8827 21 36.002 19.8807 36.002 18.5C36.002 17.1193 34.8827 16 33.502 16C32.1212 16 31.002 17.1193 31.002 18.5C31.002 19.8807 32.1212 21 33.502 21Z" fill="#333333"/>
<path d="M28.002 26.5C29.3827 26.5 30.502 25.3807 30.502 24C30.502 22.6193 29.3827 21.5 28.002 21.5C26.6212 21.5 25.502 22.6193 25.502 24C25.502 25.3807 26.6212 26.5 28.002 26.5Z" fill="#333333"/>
<path d="M11.4023 20.9996C11.4023 21.8833 12.1187 22.5996 13.0023 22.5996H15.4023V24.9996C15.4023 25.8833 16.1187 26.5996 17.0023 26.5996C17.886 26.5996 18.6023 25.8833 18.6023 24.9996V22.5996H21.0023C21.886 22.5996 22.6023 21.8833 22.6023 20.9996C22.6023 20.116 21.886 19.3996 21.0023 19.3996H18.6023V16.9996C18.6023 16.116 17.886 15.3996 17.0023 15.3996C16.1187 15.3996 15.4023 16.116 15.4023 16.9996V19.3996H13.0023C12.1187 19.3996 11.4023 20.116 11.4023 20.9996Z" fill="#333333"/>
<path fill-rule="evenodd" clip-rule="evenodd" d="M24.0592 8.4004C27.3277 8.39836 30.5352 8.96233 34.9018 10.0298C38.8858 11.0038 41.7243 14.4657 42.0477 18.5081L43.261 33.6744C43.5165 36.8678 40.9939 39.6003 37.7903 39.6003C36.1881 39.6003 34.666 38.9002 33.6233 37.6838L29.9844 33.4385C29.5285 32.9065 28.8628 32.6004 28.1622 32.6004L20.8417 32.6004C20.1411 32.6004 19.4754 32.9065 19.0195 33.4385L15.414 37.6447C14.3501 38.8859 12.797 39.6003 11.1622 39.6003H10.3347C7.06588 39.6003 4.49189 36.8121 4.75257 33.5537L5.95465 18.5277C6.27901 14.4733 9.13269 11.007 13.129 10.0404C17.555 8.96987 20.7924 8.40243 24.0592 8.4004ZM24.0612 11.6004C21.1773 11.6022 18.2328 12.0982 13.8813 13.1507C11.2717 13.7819 9.36208 16.0626 9.14446 18.7829L7.94238 33.8089C7.83066 35.2054 8.93379 36.4003 10.3347 36.4003H11.1622C11.8628 36.4003 12.5285 36.0941 12.9844 35.5622L16.5899 31.3559C17.6538 30.1147 19.2069 29.4004 20.8417 29.4004L28.1622 29.4004C29.797 29.4004 31.3501 30.1147 32.414 31.3559L36.0529 35.6012C36.4877 36.1084 37.1223 36.4003 37.7903 36.4003C39.1259 36.4003 40.1777 35.261 40.0712 33.9296L38.8579 18.7633C38.6408 16.0502 36.741 13.7737 34.1419 13.1383C29.8555 12.0904 26.9434 11.5986 24.0612 11.6004Z" fill="#333333"/>
</svg>
