<svg width="48" height="48" viewBox="0 0 48 48" fill="none" xmlns="http://www.w3.org/2000/svg">
<path d="M16.9981 20.4C16.1144 20.4 15.3981 21.1163 15.3981 22C15.3981 22.8837 16.1144 23.6 16.9981 23.6H28.3118C29.1955 23.6 29.9118 22.8837 29.9118 22C29.9118 21.1163 29.1955 20.4 28.3118 20.4H16.9981Z" fill="#333333"/>
<path fill-rule="evenodd" clip-rule="evenodd" d="M6.39844 22.0004C6.39844 13.3847 13.3828 6.40039 21.9984 6.40039C30.6141 6.40039 37.5984 13.3847 37.5984 22.0004C37.5984 25.7319 36.2883 29.1575 34.1029 31.8421L41.1298 38.869C41.7546 39.4939 41.7546 40.5069 41.1298 41.1318C40.505 41.7566 39.4919 41.7566 38.8671 41.1318L31.8401 34.1048C29.1555 36.2902 25.73 37.6004 21.9984 37.6004C13.3828 37.6004 6.39844 30.616 6.39844 22.0004ZM21.9984 9.60039C15.1501 9.60039 9.59844 15.1521 9.59844 22.0004C9.59844 28.8487 15.1501 34.4004 21.9984 34.4004C28.8468 34.4004 34.3984 28.8487 34.3984 22.0004C34.3984 15.1521 28.8468 9.60039 21.9984 9.60039Z" fill="#333333"/>
</svg>
