<svg width="48" height="48" viewBox="0 0 48 48" fill="none" xmlns="http://www.w3.org/2000/svg">
<path d="M24 8C30.6199 8 35.9878 13.4596 36 20.1992C40.5645 21.1258 44 25.1621 44 30C44 35.5228 39.5228 40 34 40H16C9.37258 40 4 34.6274 4 28C4 22.5658 7.61209 17.9748 12.5664 16.498C14.1128 11.569 18.6476 8 24 8ZM24 11.1992C20.1182 11.1992 16.771 13.7918 15.6211 17.457L15.1113 19.0781L13.4805 19.5645C9.84502 20.6481 7.19922 24.0196 7.19922 28C7.19922 32.8601 11.1399 36.8008 16 36.8008H34C37.7555 36.8008 40.8008 33.7555 40.8008 30C40.8008 26.7139 38.4658 23.9657 35.3633 23.3359L32.8047 22.8164L32.8008 20.2051C32.7917 15.1747 28.7996 11.1992 24 11.1992Z" fill="#333333"/>
</svg>
