<svg width="48" height="48" viewBox="0 0 48 48" fill="none" xmlns="http://www.w3.org/2000/svg">
<path d="M21.1298 18.868C21.7547 19.4929 21.7547 20.5059 21.1298 21.1308C20.505 21.7556 19.4919 21.7556 18.8671 21.1308L9.59844 11.8622L9.59844 19.9994C9.59844 20.8831 8.88209 21.5994 7.99844 21.5994C7.11478 21.5994 6.39844 20.8831 6.39844 19.9994V7.99941C6.39844 7.11576 7.11478 6.39941 7.99844 6.39941H19.9984C20.8821 6.39941 21.5984 7.11576 21.5984 7.99942C21.5984 8.88307 20.8821 9.59942 19.9984 9.59942L11.8612 9.59942L21.1298 18.868Z" fill="#333333"/>
<path d="M26.8679 29.1316C26.243 28.5067 26.243 27.4937 26.8679 26.8688C27.4927 26.244 28.5058 26.244 29.1306 26.8688L38.3992 36.1375V28.0002C38.3992 27.1165 39.1156 26.4002 39.9992 26.4002C40.8829 26.4002 41.5992 27.1165 41.5992 28.0002V40.0002C41.5992 40.8839 40.8829 41.6002 39.9992 41.6002H27.9992C27.1156 41.6002 26.3992 40.8839 26.3992 40.0002C26.3992 39.1165 27.1156 38.4002 27.9992 38.4002H36.1365L26.8679 29.1316Z" fill="#333333"/>
</svg>
