<svg width="48" height="48" viewBox="0 0 48 48" fill="none" xmlns="http://www.w3.org/2000/svg">
<path d="M11.1298 8.86902C10.505 8.24418 9.49191 8.24418 8.86707 8.86902C8.24223 9.49386 8.24223 10.5069 8.86707 11.1318L13.3028 15.5675C9.36522 16.3549 6.39844 19.8312 6.39844 24.0004C6.39844 28.75 10.2488 32.6004 14.9984 32.6004H19.9984C20.8821 32.6004 21.5984 31.884 21.5984 31.0004C21.5984 30.1167 20.8821 29.4004 19.9984 29.4004H14.9984C12.0161 29.4004 9.59844 26.9827 9.59844 24.0004C9.59844 21.0181 12.0161 18.6004 14.9984 18.6004H16.3357L20.1362 22.4009L17.2704 22.4011C16.3868 22.4011 15.6705 23.1175 15.6705 24.0012C15.6706 24.8848 16.3869 25.6011 17.2706 25.6011L23.3361 25.6008L27.2972 29.5619C26.765 29.8218 26.3984 30.3683 26.3984 31.0004C26.3984 31.884 27.1148 32.6004 27.9984 32.6004H30.3357L36.8671 39.1318C37.4919 39.7566 38.505 39.7566 39.1298 39.1318C39.7546 38.5069 39.7546 37.4939 39.1298 36.869L11.1298 8.86902Z" fill="#333333"/>
<path d="M37.2914 31.4539L34.8953 29.0578C36.9419 28.2899 38.3984 26.3152 38.3984 24.0004C38.3984 21.0181 35.9808 18.6004 32.9984 18.6004H27.9984C27.1148 18.6004 26.3984 17.884 26.3984 17.0004C26.3984 16.1167 27.1148 15.4004 27.9984 15.4004H32.9984C37.7481 15.4004 41.5984 19.2507 41.5984 24.0004C41.5984 27.1865 39.8658 29.9679 37.2914 31.4539Z" fill="#333333"/>
<path d="M28.238 22.4005L31.0467 25.2092C31.3847 24.9158 31.5985 24.483 31.5984 24.0003C31.5984 23.1166 30.882 22.4003 29.9984 22.4004L28.238 22.4005Z" fill="#333333"/>
</svg>
