<svg width="48" height="48" viewBox="0 0 48 48" fill="none" xmlns="http://www.w3.org/2000/svg">
<path fill-rule="evenodd" clip-rule="evenodd" d="M22.6602 9.53569C23.1104 9.1355 23.7532 9.03697 24.3027 9.28374C24.8519 9.53053 25.2067 10.0762 25.207 10.6783V37.3189L25.1895 37.5415C25.1141 38.0528 24.7834 38.4995 24.3027 38.7154L24.0938 38.7915C23.6676 38.9124 23.2084 38.8409 22.8379 38.5982L22.6602 38.4634L15.582 32.1724C15.2031 31.8357 14.7139 31.649 14.207 31.649H9.40625L8.99805 31.6275C6.981 31.423 5.40672 29.7199 5.40625 27.649V20.3482C5.40669 18.1394 7.19738 16.3482 9.40625 16.3482H14.207C14.6503 16.3482 15.0813 16.2067 15.4355 15.9458L15.582 15.8267L22.6602 9.53569ZM17.709 18.2173C16.7444 19.0746 15.4975 19.5494 14.207 19.5494H9.40625C8.96469 19.5494 8.6059 19.9067 8.60547 20.3482V27.649C8.60597 28.0904 8.96473 28.4498 9.40625 28.4498H14.207C15.3364 28.4498 16.4316 28.812 17.334 29.4771L17.709 29.7798L22.0059 33.5982V14.397L17.709 18.2173Z" fill="#333333"/>
<path d="M40.9902 16.7603C41.6187 16.2475 42.545 16.2838 43.1309 16.8697C43.7162 17.4556 43.7529 18.3821 43.2402 19.0103L43.1309 19.1314L38.2617 24.0005L43.1309 28.8697C43.7552 29.4946 43.7555 30.5067 43.1309 31.1314C42.5062 31.7557 41.4939 31.7556 40.8691 31.1314L36 26.2623L31.1309 31.1314C30.5062 31.7557 29.4939 31.7555 28.8691 31.1314C28.2444 30.5067 28.2446 29.4945 28.8691 28.8697L33.7383 24.0005L28.8691 19.1314L28.7598 19.0103C28.247 18.382 28.2836 17.4556 28.8691 16.8697C29.4551 16.2838 30.3813 16.2474 31.0098 16.7603L31.1309 16.8697L36 21.7388L40.8691 16.8697L40.9902 16.7603Z" fill="#333333"/>
</svg>
