<svg width="48" height="48" viewBox="0 0 48 48" fill="none" xmlns="http://www.w3.org/2000/svg">
<path fill-rule="evenodd" clip-rule="evenodd" d="M27.998 6.40039C29.9863 6.40039 31.5977 8.01178 31.5977 10V14.4004H37.998C41.0908 14.4004 43.5977 16.9072 43.5977 20V36C43.5977 39.0928 41.0908 41.5996 37.998 41.5996H9.99805C6.90525 41.5996 4.39844 39.0928 4.39844 36V20C4.39844 16.9072 6.90525 14.4004 9.99805 14.4004H16.3984V10C16.3984 8.01178 18.0098 6.40039 19.998 6.40039H27.998ZM9.99805 17.5996C8.67256 17.5996 7.59766 18.6745 7.59766 20V36C7.59766 37.3255 8.67256 38.4004 9.99805 38.4004H12.3984V17.5996H9.99805ZM15.5977 38.4004H32.3984V17.5996H15.5977V38.4004ZM35.5977 38.4004H37.998C39.3235 38.4004 40.3984 37.3255 40.3984 36V20C40.3984 18.6745 39.3235 17.5996 37.998 17.5996H35.5977V38.4004ZM19.998 9.59961C19.7771 9.59961 19.5977 9.77909 19.5977 10V14.4004H28.3984V10C28.3984 9.77909 28.219 9.59961 27.998 9.59961H19.998Z" fill="#333333"/>
</svg>
