<svg width="48" height="48" viewBox="0 0 48 48" fill="none" xmlns="http://www.w3.org/2000/svg">
<path d="M30.6133 9.33984C31.0558 8.57525 32.0341 8.31371 32.7988 8.75586C38.0552 11.7965 41.5975 17.4837 41.5977 24C41.5977 33.7202 33.7183 41.5996 23.998 41.5996C14.2778 41.5996 6.39844 33.7202 6.39844 24C6.39859 17.4837 9.9409 11.7965 15.1973 8.75586C15.962 8.31371 16.9403 8.57525 17.3828 9.33984C17.8251 10.1047 17.5636 11.0829 16.7988 11.5254C12.4907 14.0176 9.59781 18.6722 9.59766 24C9.59766 31.9529 16.0451 38.4004 23.998 38.4004C31.9509 38.4004 38.3984 31.9529 38.3984 24C38.3983 18.6722 35.5054 14.0176 31.1973 11.5254C30.4325 11.0829 30.171 10.1047 30.6133 9.33984Z" fill="#333333"/>
<path d="M23.998 4C24.8816 4 25.5974 4.71613 25.5977 5.59961V22.4004C25.5974 23.2839 24.8816 24 23.998 24C23.1147 23.9998 22.3986 23.2837 22.3984 22.4004V5.59961C22.3986 4.71626 23.1147 4.00021 23.998 4Z" fill="#333333"/>
</svg>
