<svg width="48" height="48" viewBox="0 0 48 48" fill="none" xmlns="http://www.w3.org/2000/svg">
<path d="M5.99805 30.4004C6.88159 30.4004 7.59747 31.1165 7.59766 32V38C7.59766 39.3254 8.67274 40.4002 9.99805 40.4004H15.998C16.8816 40.4004 17.5975 41.1165 17.5977 42C17.5977 42.8837 16.8817 43.5996 15.998 43.5996H9.99805C6.90543 43.5994 4.39844 41.0927 4.39844 38V32C4.39862 31.1166 5.11468 30.4006 5.99805 30.4004Z" fill="#333333"/>
<path d="M41.998 30.4004C42.8816 30.4004 43.5994 31.1165 43.5996 32V38C43.5996 41.0928 41.0908 43.5996 37.998 43.5996H31.998C31.1147 43.5993 30.3984 42.8835 30.3984 42C30.3986 41.1167 31.1148 40.4007 31.998 40.4004H37.998C39.3235 40.4004 40.3984 39.3255 40.3984 38V32C40.3986 31.1167 41.1148 30.4007 41.998 30.4004Z" fill="#333333"/>
<path fill-rule="evenodd" clip-rule="evenodd" d="M26.5918 12.4004C27.2864 12.4005 27.9036 13.5101 28.4414 15.7285C29.0015 17.9468 29.4491 20.6917 29.7852 23.9629C30.4123 23.8957 30.9612 23.8633 31.4316 23.8633C32.4399 23.8633 32.9452 24.1538 32.9453 24.7363C32.9453 25.1621 31.9583 25.6546 29.9863 26.2148C30.1656 28.5454 30.2559 30.5302 30.2559 32.166C30.2558 34.9889 29.8967 36.4004 29.1797 36.4004C28.7989 36.4003 28.4955 36.1656 28.2715 35.6953C28.0474 35.2247 27.8688 34.4055 27.7344 33.2402C27.5775 31.0893 27.4097 28.9832 27.2305 26.9219C26.2224 27.1907 25.3036 27.4361 24.4746 27.6602C23.6455 27.8618 22.3897 28.1993 20.709 28.6699C18.7372 33.8235 17.5714 36.4004 17.2129 36.4004C16.8545 36.4001 16.4626 36.1872 16.0371 35.7617C15.6337 35.3135 15.4316 34.8426 15.4316 34.3496C15.4323 34.1242 16.071 32.5326 17.3477 29.5762H17.1133C16.6652 29.5762 16.2608 29.4318 15.9023 29.1406C15.5663 28.8494 15.3985 28.4901 15.3984 28.0645C15.3984 27.6163 16.5081 27.0335 18.7266 26.3164C19.0851 25.5097 19.3755 24.7807 19.5996 24.1309C20.115 22.8537 20.8334 21.1067 21.752 18.8887C22.6707 16.6702 23.2535 15.2574 23.5 14.6523C23.9662 13.4661 25.2816 12.4004 26.5918 12.4004ZM25.8184 15.7285C25.8173 16.2838 23.5214 21.2763 21.9531 25.4434C23.5439 25.0177 25.2242 24.6585 26.9941 24.3672C26.5908 20.5355 26.1993 17.6557 25.8184 15.7285Z" fill="#333333"/>
<path d="M15.998 4.40039C16.8816 4.40039 17.5974 5.11652 17.5977 6C17.5977 6.88366 16.8817 7.59961 15.998 7.59961H9.99805C8.67287 7.59982 7.59787 8.67483 7.59766 10V16C7.59766 16.8837 6.8817 17.5996 5.99805 17.5996C5.11457 17.5994 4.39844 16.8835 4.39844 16V10C4.39865 6.90751 6.90556 4.4006 9.99805 4.40039H15.998Z" fill="#333333"/>
<path d="M37.998 4.40039C41.0907 4.40039 43.5994 6.90738 43.5996 10V16C43.5996 16.8837 42.8817 17.5996 41.998 17.5996C41.1147 17.5993 40.3984 16.8835 40.3984 16V10C40.3982 8.6747 39.3234 7.59961 37.998 7.59961H31.998C31.1147 7.59929 30.3984 6.88346 30.3984 6C30.3986 5.11672 31.1148 4.40071 31.998 4.40039H37.998Z" fill="#333333"/>
</svg>
