<svg width="48" height="48" viewBox="0 0 48 48" fill="none" xmlns="http://www.w3.org/2000/svg">
<path fill-rule="evenodd" clip-rule="evenodd" d="M28.1964 4.53574C27.7411 4.47897 27.2833 4.6204 26.9394 4.92412C26.5954 5.22784 26.3984 5.6646 26.3984 6.12345V20.9997C26.3984 21.8833 27.1148 22.5997 27.9984 22.5997H41.9677C42.4091 22.5997 42.831 22.4173 43.1334 22.0957C43.4358 21.774 43.5918 21.3418 43.5647 20.9012C43.0419 12.4243 36.5232 5.57408 28.1964 4.53574ZM29.5984 19.3997V8.05299C34.9871 9.43968 39.1562 13.8695 40.1645 19.3997H29.5984Z" fill="#333333"/>
<path fill-rule="evenodd" clip-rule="evenodd" d="M23.2011 8.17814C23.2011 7.71229 22.998 7.26957 22.645 6.96562C22.292 6.66167 21.824 6.52668 21.3633 6.5959C12.8927 7.86865 6.39844 15.1743 6.39844 23.9997C6.39844 33.7199 14.2782 41.5997 23.9984 41.5997C32.9749 41.5997 40.3797 34.8811 41.4624 26.1974C41.5192 25.7421 41.3777 25.2843 41.074 24.9404C40.7703 24.5964 40.3335 24.3994 39.8747 24.3994H23.2011V8.17814ZM9.59844 23.9997C9.59844 17.4345 13.9932 11.8934 20.0011 10.1614V25.9994C20.0011 26.8831 20.7174 27.5994 21.6011 27.5994H37.9452C36.3473 33.8099 30.7078 38.3997 23.9984 38.3997C16.0455 38.3997 9.59844 31.9526 9.59844 23.9997Z" fill="#333333"/>
</svg>
