<svg width="48" height="48" viewBox="0 0 48 48" fill="none" xmlns="http://www.w3.org/2000/svg">
<path d="M23.8873 9.60039C31.9122 9.60039 38.3987 16.0579 38.3987 24.0004C38.3987 31.9428 31.9122 38.4004 23.8873 38.4004C16.6899 38.4004 10.7255 33.2028 9.57634 26.4005C9.42914 25.5292 8.60348 24.9422 7.73217 25.0894C6.86086 25.2366 6.27385 26.0623 6.42105 26.9336C7.82866 35.2658 15.1184 41.6004 23.8873 41.6004C33.6586 41.6004 41.5987 33.731 41.5987 24.0004C41.5987 14.2697 33.6586 6.40039 23.8873 6.40039C18.0233 6.40039 12.8226 9.23278 9.59869 13.5991V8.00039C9.59869 7.11674 8.88235 6.40039 7.99869 6.40039C7.11504 6.40039 6.39869 7.11674 6.39869 8.00039V18.0004C6.39869 18.884 7.11504 19.6004 7.99869 19.6004H16.9987C17.8823 19.6004 18.5987 18.884 18.5987 18.0004C18.5987 17.1167 17.8823 16.4004 16.9987 16.4004H11.5589C14.1194 12.3195 18.682 9.60039 23.8873 9.60039Z" fill="#333333"/>
<path d="M23.9991 27C22.3491 27 20.9991 25.65 20.9991 24C20.9991 22.35 22.3491 21 23.9991 21C25.6491 21 26.9991 22.35 26.9991 24C26.9991 25.65 25.6491 27 23.9991 27Z" fill="#333333"/>
</svg>
