<svg width="691" height="400" viewBox="0 0 691 400" fill="none" xmlns="http://www.w3.org/2000/svg">
<rect width="345.001" height="200" transform="scale(2)" fill="#F6F6F6"/>
<path fill-rule="evenodd" clip-rule="evenodd" d="M180.801 220C180.801 223.977 184.024 227.2 188.001 227.2H194.001C197.977 227.2 201.201 223.977 201.201 220V192C201.201 188.024 197.977 184.8 194.001 184.8H188.001C184.024 184.8 180.801 188.024 180.801 192V220ZM188.001 220.8C187.559 220.8 187.201 220.442 187.201 220V192C187.201 191.558 187.559 191.2 188.001 191.2H194.001C194.443 191.2 194.801 191.558 194.801 192V220C194.801 220.442 194.443 220.8 194.001 220.8H188.001Z" fill="#333333"/>
<path fill-rule="evenodd" clip-rule="evenodd" d="M222.703 167.709C221.524 167.372 220.263 167.841 219.591 168.867L200.678 197.753L195.324 194.247L214.237 165.361C216.444 161.991 220.587 160.448 224.461 161.555L227.042 162.292C233.331 164.089 236.749 170.87 234.452 176.994L232.618 181.885H238.808C248.626 181.885 255.869 191.054 253.595 200.605L249.408 218.19C247.28 227.128 238.152 232.509 229.301 230.043L197.142 221.083L198.86 214.917L231.018 223.878C236.373 225.37 241.895 222.114 243.182 216.707L247.369 199.123C248.685 193.593 244.492 188.285 238.808 188.285H228.001C226.951 188.285 225.968 187.77 225.371 186.907C224.773 186.045 224.636 184.944 225.005 183.961L228.46 174.747C229.444 172.122 227.979 169.216 225.284 168.446L222.703 167.709Z" fill="#333333"/>
<path fill-rule="evenodd" clip-rule="evenodd" d="M438.801 199.63L438.801 224C438.801 230.185 443.815 235.2 450.001 235.2H498.001C504.186 235.2 509.201 230.185 509.201 224V199.63C509.201 196.4 507.807 193.328 505.376 191.201L481.376 170.201C477.153 166.506 470.848 166.506 466.626 170.201L442.626 191.201C440.195 193.328 438.801 196.4 438.801 199.63ZM445.201 224L445.201 199.63C445.201 198.246 445.798 196.929 446.84 196.017L470.84 175.017C472.65 173.434 475.352 173.434 477.162 175.017L501.162 196.017C502.203 196.929 502.801 198.246 502.801 199.63V224C502.801 226.651 500.652 228.8 498.001 228.8H489.201V216C489.201 207.605 482.396 200.8 474.001 200.8C465.606 200.8 458.801 207.605 458.801 216V228.8H450.001C447.35 228.8 445.201 226.651 445.201 224ZM465.201 228.8V216C465.201 211.139 469.141 207.2 474.001 207.2C478.861 207.2 482.801 211.139 482.801 216V228.8H465.201Z" fill="#333333"/>
<path d="M133.179 290.42V288.545H146.27V290.42H140.781V306H138.667V290.42H133.179ZM151.75 298.125V306H149.739V288.545H151.75V294.955H151.921C152.228 294.278 152.688 293.741 153.302 293.344C153.921 292.94 154.745 292.739 155.773 292.739C156.665 292.739 157.446 292.918 158.117 293.276C158.787 293.628 159.307 294.17 159.677 294.903C160.052 295.631 160.239 296.557 160.239 297.682V306H158.228V297.818C158.228 296.778 157.958 295.974 157.418 295.406C156.884 294.832 156.142 294.545 155.194 294.545C154.534 294.545 153.944 294.685 153.421 294.963C152.904 295.241 152.495 295.648 152.194 296.182C151.898 296.716 151.75 297.364 151.75 298.125ZM169.717 306.273C168.535 306.273 167.498 305.991 166.606 305.429C165.72 304.866 165.027 304.08 164.527 303.068C164.032 302.057 163.785 300.875 163.785 299.523C163.785 298.159 164.032 296.969 164.527 295.952C165.027 294.935 165.72 294.145 166.606 293.582C167.498 293.02 168.535 292.739 169.717 292.739C170.899 292.739 171.933 293.02 172.819 293.582C173.711 294.145 174.404 294.935 174.899 295.952C175.399 296.969 175.649 298.159 175.649 299.523C175.649 300.875 175.399 302.057 174.899 303.068C174.404 304.08 173.711 304.866 172.819 305.429C171.933 305.991 170.899 306.273 169.717 306.273ZM169.717 304.466C170.615 304.466 171.353 304.236 171.933 303.776C172.512 303.315 172.941 302.71 173.22 301.96C173.498 301.21 173.637 300.398 173.637 299.523C173.637 298.648 173.498 297.832 173.22 297.077C172.941 296.321 172.512 295.71 171.933 295.244C171.353 294.778 170.615 294.545 169.717 294.545C168.819 294.545 168.081 294.778 167.501 295.244C166.921 295.71 166.492 296.321 166.214 297.077C165.936 297.832 165.796 298.648 165.796 299.523C165.796 300.398 165.936 301.21 166.214 301.96C166.492 302.71 166.921 303.315 167.501 303.776C168.081 304.236 168.819 304.466 169.717 304.466ZM188.472 295.841L186.665 296.352C186.551 296.051 186.384 295.759 186.162 295.474C185.946 295.185 185.651 294.946 185.276 294.759C184.901 294.571 184.421 294.477 183.835 294.477C183.034 294.477 182.367 294.662 181.833 295.031C181.304 295.395 181.04 295.858 181.04 296.42C181.04 296.92 181.222 297.315 181.585 297.605C181.949 297.895 182.517 298.136 183.29 298.33L185.233 298.807C186.404 299.091 187.276 299.526 187.85 300.111C188.423 300.69 188.71 301.437 188.71 302.352C188.71 303.102 188.494 303.773 188.063 304.364C187.637 304.955 187.04 305.42 186.273 305.761C185.506 306.102 184.614 306.273 183.597 306.273C182.262 306.273 181.156 305.983 180.281 305.403C179.406 304.824 178.852 303.977 178.619 302.864L180.529 302.386C180.71 303.091 181.054 303.619 181.56 303.972C182.071 304.324 182.739 304.5 183.563 304.5C184.5 304.5 185.244 304.301 185.796 303.903C186.352 303.5 186.631 303.017 186.631 302.455C186.631 302 186.472 301.619 186.154 301.312C185.835 301 185.347 300.767 184.688 300.614L182.506 300.102C181.307 299.818 180.426 299.378 179.864 298.781C179.307 298.179 179.029 297.426 179.029 296.523C179.029 295.784 179.236 295.131 179.651 294.562C180.071 293.994 180.642 293.548 181.364 293.224C182.091 292.901 182.915 292.739 183.835 292.739C185.131 292.739 186.148 293.023 186.887 293.591C187.631 294.159 188.159 294.909 188.472 295.841ZM197.707 306.273C196.445 306.273 195.357 305.994 194.443 305.438C193.533 304.875 192.832 304.091 192.337 303.085C191.849 302.074 191.604 300.898 191.604 299.557C191.604 298.216 191.849 297.034 192.337 296.011C192.832 294.983 193.519 294.182 194.4 293.608C195.286 293.028 196.32 292.739 197.502 292.739C198.184 292.739 198.857 292.852 199.522 293.08C200.187 293.307 200.792 293.676 201.337 294.188C201.883 294.693 202.318 295.364 202.641 296.199C202.965 297.034 203.127 298.062 203.127 299.284V300.136H193.036V298.398H201.082C201.082 297.659 200.934 297 200.639 296.42C200.349 295.841 199.934 295.384 199.394 295.048C198.86 294.713 198.229 294.545 197.502 294.545C196.701 294.545 196.008 294.744 195.423 295.142C194.843 295.534 194.397 296.045 194.085 296.676C193.772 297.307 193.616 297.983 193.616 298.705V299.864C193.616 300.852 193.786 301.69 194.127 302.378C194.474 303.06 194.954 303.58 195.568 303.938C196.181 304.29 196.894 304.466 197.707 304.466C198.235 304.466 198.712 304.392 199.139 304.244C199.57 304.091 199.943 303.864 200.255 303.562C200.568 303.256 200.809 302.875 200.979 302.42L202.923 302.966C202.718 303.625 202.374 304.205 201.891 304.705C201.408 305.199 200.812 305.585 200.102 305.864C199.391 306.136 198.593 306.273 197.707 306.273ZM213.897 306V292.909H215.908V306H213.897ZM214.92 290.727C214.528 290.727 214.189 290.594 213.905 290.327C213.627 290.06 213.488 289.739 213.488 289.364C213.488 288.989 213.627 288.668 213.905 288.401C214.189 288.134 214.528 288 214.92 288C215.312 288 215.647 288.134 215.925 288.401C216.209 288.668 216.351 288.989 216.351 289.364C216.351 289.739 216.209 290.06 215.925 290.327C215.647 290.594 215.312 290.727 214.92 290.727ZM225.39 306.273C224.163 306.273 223.106 305.983 222.22 305.403C221.334 304.824 220.652 304.026 220.174 303.009C219.697 301.991 219.459 300.83 219.459 299.523C219.459 298.193 219.703 297.02 220.191 296.003C220.686 294.98 221.373 294.182 222.254 293.608C223.14 293.028 224.174 292.739 225.356 292.739C226.277 292.739 227.106 292.909 227.845 293.25C228.584 293.591 229.189 294.068 229.66 294.682C230.132 295.295 230.424 296.011 230.538 296.83H228.527C228.373 296.233 228.032 295.705 227.504 295.244C226.981 294.778 226.277 294.545 225.39 294.545C224.606 294.545 223.919 294.75 223.328 295.159C222.743 295.562 222.285 296.134 221.956 296.872C221.632 297.605 221.47 298.466 221.47 299.455C221.47 300.466 221.629 301.347 221.947 302.097C222.271 302.847 222.726 303.429 223.311 303.844C223.902 304.259 224.595 304.466 225.39 304.466C225.913 304.466 226.387 304.375 226.814 304.193C227.24 304.011 227.601 303.75 227.896 303.409C228.191 303.068 228.402 302.659 228.527 302.182H230.538C230.424 302.955 230.143 303.651 229.694 304.27C229.251 304.884 228.663 305.372 227.93 305.736C227.203 306.094 226.356 306.273 225.39 306.273ZM239.277 306.273C238.095 306.273 237.058 305.991 236.166 305.429C235.279 304.866 234.586 304.08 234.086 303.068C233.592 302.057 233.345 300.875 233.345 299.523C233.345 298.159 233.592 296.969 234.086 295.952C234.586 294.935 235.279 294.145 236.166 293.582C237.058 293.02 238.095 292.739 239.277 292.739C240.458 292.739 241.492 293.02 242.379 293.582C243.271 294.145 243.964 294.935 244.458 295.952C244.958 296.969 245.208 298.159 245.208 299.523C245.208 300.875 244.958 302.057 244.458 303.068C243.964 304.08 243.271 304.866 242.379 305.429C241.492 305.991 240.458 306.273 239.277 306.273ZM239.277 304.466C240.174 304.466 240.913 304.236 241.492 303.776C242.072 303.315 242.501 302.71 242.779 301.96C243.058 301.21 243.197 300.398 243.197 299.523C243.197 298.648 243.058 297.832 242.779 297.077C242.501 296.321 242.072 295.71 241.492 295.244C240.913 294.778 240.174 294.545 239.277 294.545C238.379 294.545 237.64 294.778 237.061 295.244C236.481 295.71 236.052 296.321 235.774 297.077C235.495 297.832 235.356 298.648 235.356 299.523C235.356 300.398 235.495 301.21 235.774 301.96C236.052 302.71 236.481 303.315 237.061 303.776C237.64 304.236 238.379 304.466 239.277 304.466ZM250.77 298.125V306H248.759V292.909H250.702V294.955H250.872C251.179 294.29 251.645 293.756 252.27 293.352C252.895 292.943 253.702 292.739 254.691 292.739C255.577 292.739 256.352 292.92 257.017 293.284C257.682 293.642 258.199 294.188 258.568 294.92C258.938 295.648 259.122 296.568 259.122 297.682V306H257.111V297.818C257.111 296.79 256.844 295.989 256.31 295.415C255.776 294.835 255.043 294.545 254.111 294.545C253.469 294.545 252.895 294.685 252.389 294.963C251.889 295.241 251.495 295.648 251.205 296.182C250.915 296.716 250.77 297.364 250.77 298.125ZM272.551 295.841L270.744 296.352C270.63 296.051 270.462 295.759 270.241 295.474C270.025 295.185 269.729 294.946 269.354 294.759C268.979 294.571 268.499 294.477 267.914 294.477C267.113 294.477 266.445 294.662 265.911 295.031C265.383 295.395 265.119 295.858 265.119 296.42C265.119 296.92 265.301 297.315 265.664 297.605C266.028 297.895 266.596 298.136 267.369 298.33L269.312 298.807C270.482 299.091 271.354 299.526 271.928 300.111C272.502 300.69 272.789 301.437 272.789 302.352C272.789 303.102 272.573 303.773 272.141 304.364C271.715 304.955 271.119 305.42 270.352 305.761C269.585 306.102 268.693 306.273 267.676 306.273C266.34 306.273 265.235 305.983 264.36 305.403C263.485 304.824 262.931 303.977 262.698 302.864L264.607 302.386C264.789 303.091 265.133 303.619 265.639 303.972C266.15 304.324 266.818 304.5 267.641 304.5C268.579 304.5 269.323 304.301 269.874 303.903C270.431 303.5 270.71 303.017 270.71 302.455C270.71 302 270.551 301.619 270.232 301.312C269.914 301 269.426 300.767 268.766 300.614L266.585 300.102C265.386 299.818 264.505 299.378 263.943 298.781C263.386 298.179 263.107 297.426 263.107 296.523C263.107 295.784 263.315 295.131 263.729 294.562C264.15 293.994 264.721 293.548 265.443 293.224C266.17 292.901 266.994 292.739 267.914 292.739C269.21 292.739 270.227 293.023 270.965 293.591C271.71 294.159 272.238 294.909 272.551 295.841ZM283.527 306V292.909H285.47V294.955H285.64C285.913 294.256 286.354 293.713 286.961 293.327C287.569 292.935 288.3 292.739 289.152 292.739C290.015 292.739 290.734 292.935 291.308 293.327C291.888 293.713 292.339 294.256 292.663 294.955H292.8C293.135 294.278 293.638 293.741 294.308 293.344C294.979 292.94 295.783 292.739 296.72 292.739C297.89 292.739 298.848 293.105 299.592 293.838C300.336 294.565 300.709 295.699 300.709 297.239V306H298.697V297.239C298.697 296.273 298.433 295.582 297.905 295.168C297.376 294.753 296.754 294.545 296.038 294.545C295.118 294.545 294.405 294.824 293.899 295.381C293.393 295.932 293.14 296.631 293.14 297.477V306H291.095V297.034C291.095 296.29 290.854 295.69 290.371 295.236C289.888 294.776 289.265 294.545 288.504 294.545C287.981 294.545 287.493 294.685 287.038 294.963C286.589 295.241 286.226 295.628 285.947 296.122C285.675 296.611 285.538 297.176 285.538 297.818V306H283.527ZM308.718 306.307C307.889 306.307 307.136 306.151 306.46 305.838C305.784 305.52 305.247 305.062 304.849 304.466C304.451 303.864 304.253 303.136 304.253 302.284C304.253 301.534 304.4 300.926 304.696 300.46C304.991 299.989 305.386 299.619 305.88 299.352C306.375 299.085 306.92 298.886 307.517 298.756C308.119 298.619 308.724 298.511 309.332 298.432C310.128 298.33 310.772 298.253 311.267 298.202C311.767 298.145 312.13 298.051 312.358 297.92C312.591 297.79 312.707 297.562 312.707 297.239V297.17C312.707 296.33 312.477 295.676 312.017 295.21C311.562 294.744 310.872 294.511 309.946 294.511C308.986 294.511 308.233 294.722 307.687 295.142C307.142 295.562 306.758 296.011 306.537 296.489L304.628 295.807C304.968 295.011 305.423 294.392 305.991 293.949C306.565 293.5 307.19 293.187 307.866 293.011C308.548 292.83 309.218 292.739 309.878 292.739C310.298 292.739 310.781 292.79 311.326 292.892C311.878 292.989 312.409 293.19 312.92 293.497C313.437 293.804 313.866 294.267 314.207 294.886C314.548 295.506 314.718 296.335 314.718 297.375V306H312.707V304.227H312.605C312.468 304.511 312.241 304.815 311.923 305.139C311.605 305.463 311.182 305.739 310.653 305.966C310.125 306.193 309.48 306.307 308.718 306.307ZM309.025 304.5C309.821 304.5 310.491 304.344 311.037 304.031C311.588 303.719 312.003 303.315 312.281 302.821C312.565 302.327 312.707 301.807 312.707 301.261V299.42C312.622 299.523 312.434 299.616 312.145 299.702C311.861 299.781 311.531 299.852 311.156 299.915C310.787 299.972 310.426 300.023 310.074 300.068C309.727 300.108 309.446 300.142 309.23 300.17C308.707 300.239 308.218 300.349 307.764 300.503C307.315 300.651 306.951 300.875 306.673 301.176C306.4 301.472 306.264 301.875 306.264 302.386C306.264 303.085 306.522 303.614 307.04 303.972C307.562 304.324 308.224 304.5 309.025 304.5ZM319.696 310.909C319.355 310.909 319.051 310.881 318.784 310.824C318.517 310.773 318.333 310.722 318.23 310.67L318.742 308.898C319.23 309.023 319.662 309.068 320.037 309.034C320.412 309 320.745 308.832 321.034 308.531C321.33 308.236 321.6 307.756 321.844 307.091L322.219 306.068L317.378 292.909H319.56L323.174 303.341H323.31L326.924 292.909H329.105L323.549 307.909C323.299 308.585 322.989 309.145 322.62 309.588C322.25 310.037 321.821 310.369 321.333 310.585C320.85 310.801 320.304 310.909 319.696 310.909ZM341.482 298.125V306H339.47V292.909H341.413V294.955H341.584C341.891 294.29 342.357 293.756 342.982 293.352C343.607 292.943 344.413 292.739 345.402 292.739C346.288 292.739 347.064 292.92 347.729 293.284C348.394 293.642 348.911 294.188 349.28 294.92C349.649 295.648 349.834 296.568 349.834 297.682V306H347.823V297.818C347.823 296.79 347.556 295.989 347.021 295.415C346.487 294.835 345.754 294.545 344.823 294.545C344.181 294.545 343.607 294.685 343.101 294.963C342.601 295.241 342.206 295.648 341.916 296.182C341.627 296.716 341.482 297.364 341.482 298.125ZM359.478 306.273C358.217 306.273 357.129 305.994 356.214 305.438C355.305 304.875 354.603 304.091 354.109 303.085C353.62 302.074 353.376 300.898 353.376 299.557C353.376 298.216 353.62 297.034 354.109 296.011C354.603 294.983 355.29 294.182 356.171 293.608C357.058 293.028 358.092 292.739 359.273 292.739C359.955 292.739 360.629 292.852 361.293 293.08C361.958 293.307 362.563 293.676 363.109 294.188C363.654 294.693 364.089 295.364 364.413 296.199C364.737 297.034 364.898 298.062 364.898 299.284V300.136H354.808V298.398H362.853C362.853 297.659 362.705 297 362.41 296.42C362.12 295.841 361.705 295.384 361.165 295.048C360.631 294.713 360.001 294.545 359.273 294.545C358.472 294.545 357.779 294.744 357.194 295.142C356.614 295.534 356.168 296.045 355.856 296.676C355.543 297.307 355.387 297.983 355.387 298.705V299.864C355.387 300.852 355.558 301.69 355.898 302.378C356.245 303.06 356.725 303.58 357.339 303.938C357.952 304.29 358.665 304.466 359.478 304.466C360.006 304.466 360.484 304.392 360.91 304.244C361.342 304.091 361.714 303.864 362.026 303.562C362.339 303.256 362.58 302.875 362.751 302.42L364.694 302.966C364.489 303.625 364.146 304.205 363.663 304.705C363.18 305.199 362.583 305.585 361.873 305.864C361.163 306.136 360.364 306.273 359.478 306.273ZM373.927 306.273C372.665 306.273 371.577 305.994 370.663 305.438C369.753 304.875 369.052 304.091 368.557 303.085C368.069 302.074 367.824 300.898 367.824 299.557C367.824 298.216 368.069 297.034 368.557 296.011C369.052 294.983 369.739 294.182 370.62 293.608C371.506 293.028 372.54 292.739 373.722 292.739C374.404 292.739 375.077 292.852 375.742 293.08C376.407 293.307 377.012 293.676 377.557 294.188C378.103 294.693 378.538 295.364 378.861 296.199C379.185 297.034 379.347 298.062 379.347 299.284V300.136H369.256V298.398H377.302C377.302 297.659 377.154 297 376.859 296.42C376.569 295.841 376.154 295.384 375.614 295.048C375.08 294.713 374.449 294.545 373.722 294.545C372.921 294.545 372.228 294.744 371.643 295.142C371.063 295.534 370.617 296.045 370.305 296.676C369.992 297.307 369.836 297.983 369.836 298.705V299.864C369.836 300.852 370.006 301.69 370.347 302.378C370.694 303.06 371.174 303.58 371.788 303.938C372.401 304.29 373.114 304.466 373.927 304.466C374.455 304.466 374.932 304.392 375.359 304.244C375.79 304.091 376.163 303.864 376.475 303.562C376.788 303.256 377.029 302.875 377.199 302.42L379.143 302.966C378.938 303.625 378.594 304.205 378.111 304.705C377.628 305.199 377.032 305.585 376.322 305.864C375.611 306.136 374.813 306.273 373.927 306.273ZM387.83 306.273C386.739 306.273 385.776 305.997 384.941 305.446C384.106 304.889 383.452 304.105 382.981 303.094C382.509 302.077 382.273 300.875 382.273 299.489C382.273 298.114 382.509 296.92 382.981 295.909C383.452 294.898 384.108 294.116 384.949 293.565C385.79 293.014 386.762 292.739 387.864 292.739C388.716 292.739 389.39 292.881 389.884 293.165C390.384 293.443 390.765 293.761 391.026 294.119C391.293 294.472 391.5 294.761 391.648 294.989H391.819V288.545H393.83V306H391.887V303.989H391.648C391.5 304.227 391.29 304.528 391.018 304.892C390.745 305.25 390.356 305.571 389.85 305.855C389.344 306.134 388.671 306.273 387.83 306.273ZM388.103 304.466C388.91 304.466 389.591 304.256 390.148 303.835C390.705 303.409 391.128 302.821 391.418 302.071C391.708 301.315 391.853 300.443 391.853 299.455C391.853 298.477 391.711 297.622 391.427 296.889C391.143 296.151 390.722 295.577 390.165 295.168C389.608 294.753 388.921 294.545 388.103 294.545C387.25 294.545 386.54 294.764 385.972 295.202C385.41 295.634 384.986 296.222 384.702 296.966C384.424 297.705 384.285 298.534 384.285 299.455C384.285 300.386 384.427 301.233 384.711 301.994C385 302.75 385.427 303.352 385.989 303.801C386.557 304.244 387.262 304.466 388.103 304.466ZM409.355 306.307C408.526 306.307 407.773 306.151 407.097 305.838C406.421 305.52 405.884 305.062 405.486 304.466C405.088 303.864 404.889 303.136 404.889 302.284C404.889 301.534 405.037 300.926 405.333 300.46C405.628 299.989 406.023 299.619 406.517 299.352C407.012 299.085 407.557 298.886 408.154 298.756C408.756 298.619 409.361 298.511 409.969 298.432C410.764 298.33 411.409 298.253 411.904 298.202C412.404 298.145 412.767 298.051 412.995 297.92C413.228 297.79 413.344 297.562 413.344 297.239V297.17C413.344 296.33 413.114 295.676 412.654 295.21C412.199 294.744 411.509 294.511 410.583 294.511C409.622 294.511 408.87 294.722 408.324 295.142C407.779 295.562 407.395 296.011 407.174 296.489L405.264 295.807C405.605 295.011 406.06 294.392 406.628 293.949C407.202 293.5 407.827 293.187 408.503 293.011C409.185 292.83 409.855 292.739 410.514 292.739C410.935 292.739 411.418 292.79 411.963 292.892C412.514 292.989 413.046 293.19 413.557 293.497C414.074 293.804 414.503 294.267 414.844 294.886C415.185 295.506 415.355 296.335 415.355 297.375V306H413.344V304.227H413.242C413.105 304.511 412.878 304.815 412.56 305.139C412.242 305.463 411.818 305.739 411.29 305.966C410.762 306.193 410.117 306.307 409.355 306.307ZM409.662 304.5C410.458 304.5 411.128 304.344 411.674 304.031C412.225 303.719 412.639 303.315 412.918 302.821C413.202 302.327 413.344 301.807 413.344 301.261V299.42C413.259 299.523 413.071 299.616 412.781 299.702C412.497 299.781 412.168 299.852 411.793 299.915C411.424 299.972 411.063 300.023 410.71 300.068C410.364 300.108 410.083 300.142 409.867 300.17C409.344 300.239 408.855 300.349 408.401 300.503C407.952 300.651 407.588 300.875 407.31 301.176C407.037 301.472 406.901 301.875 406.901 302.386C406.901 303.085 407.159 303.614 407.676 303.972C408.199 304.324 408.861 304.5 409.662 304.5ZM424.45 306.273C423.359 306.273 422.396 305.997 421.561 305.446C420.725 304.889 420.072 304.105 419.6 303.094C419.129 302.077 418.893 300.875 418.893 299.489C418.893 298.114 419.129 296.92 419.6 295.909C420.072 294.898 420.728 294.116 421.569 293.565C422.41 293.014 423.382 292.739 424.484 292.739C425.336 292.739 426.009 292.881 426.504 293.165C427.004 293.443 427.384 293.761 427.646 294.119C427.913 294.472 428.12 294.761 428.268 294.989H428.438V288.545H430.45V306H428.507V303.989H428.268C428.12 304.227 427.91 304.528 427.637 304.892C427.364 305.25 426.975 305.571 426.47 305.855C425.964 306.134 425.291 306.273 424.45 306.273ZM424.722 304.466C425.529 304.466 426.211 304.256 426.768 303.835C427.325 303.409 427.748 302.821 428.038 302.071C428.328 301.315 428.472 300.443 428.472 299.455C428.472 298.477 428.33 297.622 428.046 296.889C427.762 296.151 427.342 295.577 426.785 295.168C426.228 294.753 425.541 294.545 424.722 294.545C423.87 294.545 423.16 294.764 422.592 295.202C422.029 295.634 421.606 296.222 421.322 296.966C421.043 297.705 420.904 298.534 420.904 299.455C420.904 300.386 421.046 301.233 421.33 301.994C421.62 302.75 422.046 303.352 422.609 303.801C423.177 304.244 423.882 304.466 424.722 304.466ZM438.745 306.307C437.916 306.307 437.163 306.151 436.487 305.838C435.81 305.52 435.273 305.062 434.876 304.466C434.478 303.864 434.279 303.136 434.279 302.284C434.279 301.534 434.427 300.926 434.722 300.46C435.018 299.989 435.413 299.619 435.907 299.352C436.401 299.085 436.947 298.886 437.543 298.756C438.146 298.619 438.751 298.511 439.359 298.432C440.154 298.33 440.799 298.253 441.293 298.202C441.793 298.145 442.157 298.051 442.384 297.92C442.617 297.79 442.734 297.562 442.734 297.239V297.17C442.734 296.33 442.504 295.676 442.043 295.21C441.589 294.744 440.898 294.511 439.972 294.511C439.012 294.511 438.259 294.722 437.714 295.142C437.168 295.562 436.785 296.011 436.563 296.489L434.654 295.807C434.995 295.011 435.45 294.392 436.018 293.949C436.592 293.5 437.217 293.187 437.893 293.011C438.575 292.83 439.245 292.739 439.904 292.739C440.325 292.739 440.808 292.79 441.353 292.892C441.904 292.989 442.435 293.19 442.947 293.497C443.464 293.804 443.893 294.267 444.234 294.886C444.575 295.506 444.745 296.335 444.745 297.375V306H442.734V304.227H442.631C442.495 304.511 442.268 304.815 441.95 305.139C441.631 305.463 441.208 305.739 440.68 305.966C440.151 306.193 439.506 306.307 438.745 306.307ZM439.052 304.5C439.847 304.5 440.518 304.344 441.063 304.031C441.614 303.719 442.029 303.315 442.308 302.821C442.592 302.327 442.734 301.807 442.734 301.261V299.42C442.648 299.523 442.461 299.616 442.171 299.702C441.887 299.781 441.558 299.852 441.183 299.915C440.813 299.972 440.452 300.023 440.1 300.068C439.754 300.108 439.472 300.142 439.256 300.17C438.734 300.239 438.245 300.349 437.791 300.503C437.342 300.651 436.978 300.875 436.7 301.176C436.427 301.472 436.291 301.875 436.291 302.386C436.291 303.085 436.549 303.614 437.066 303.972C437.589 304.324 438.251 304.5 439.052 304.5ZM448.896 310.909V292.909H450.839V294.989H451.078C451.226 294.761 451.43 294.472 451.692 294.119C451.959 293.761 452.339 293.443 452.834 293.165C453.334 292.881 454.01 292.739 454.862 292.739C455.964 292.739 456.936 293.014 457.777 293.565C458.618 294.116 459.274 294.898 459.746 295.909C460.217 296.92 460.453 298.114 460.453 299.489C460.453 300.875 460.217 302.077 459.746 303.094C459.274 304.105 458.621 304.889 457.785 305.446C456.95 305.997 455.987 306.273 454.896 306.273C454.055 306.273 453.382 306.134 452.876 305.855C452.371 305.571 451.981 305.25 451.709 304.892C451.436 304.528 451.226 304.227 451.078 303.989H450.908V310.909H448.896ZM450.873 299.455C450.873 300.443 451.018 301.315 451.308 302.071C451.598 302.821 452.021 303.409 452.578 303.835C453.135 304.256 453.817 304.466 454.623 304.466C455.464 304.466 456.166 304.244 456.729 303.801C457.297 303.352 457.723 302.75 458.007 301.994C458.297 301.233 458.442 300.386 458.442 299.455C458.442 298.534 458.3 297.705 458.016 296.966C457.737 296.222 457.314 295.634 456.746 295.202C456.183 294.764 455.476 294.545 454.623 294.545C453.805 294.545 453.118 294.753 452.561 295.168C452.004 295.577 451.584 296.151 451.3 296.889C451.016 297.622 450.873 298.477 450.873 299.455ZM469.694 292.909V294.614H462.91V292.909H469.694ZM464.888 289.773H466.899V302.25C466.899 302.818 466.981 303.244 467.146 303.528C467.317 303.807 467.532 303.994 467.794 304.091C468.061 304.182 468.342 304.227 468.638 304.227C468.859 304.227 469.041 304.216 469.183 304.193C469.325 304.165 469.439 304.142 469.524 304.125L469.933 305.932C469.797 305.983 469.606 306.034 469.362 306.085C469.118 306.142 468.808 306.17 468.433 306.17C467.865 306.17 467.308 306.048 466.763 305.804C466.223 305.56 465.774 305.188 465.416 304.688C465.064 304.188 464.888 303.557 464.888 302.795V289.773ZM477.052 306.307C476.223 306.307 475.47 306.151 474.794 305.838C474.118 305.52 473.581 305.062 473.183 304.466C472.785 303.864 472.586 303.136 472.586 302.284C472.586 301.534 472.734 300.926 473.03 300.46C473.325 299.989 473.72 299.619 474.214 299.352C474.709 299.085 475.254 298.886 475.851 298.756C476.453 298.619 477.058 298.511 477.666 298.432C478.461 298.33 479.106 298.253 479.601 298.202C480.101 298.145 480.464 298.051 480.691 297.92C480.924 297.79 481.041 297.562 481.041 297.239V297.17C481.041 296.33 480.811 295.676 480.351 295.21C479.896 294.744 479.206 294.511 478.28 294.511C477.319 294.511 476.566 294.722 476.021 295.142C475.476 295.562 475.092 296.011 474.87 296.489L472.961 295.807C473.302 295.011 473.757 294.392 474.325 293.949C474.899 293.5 475.524 293.187 476.2 293.011C476.882 292.83 477.552 292.739 478.211 292.739C478.632 292.739 479.115 292.79 479.66 292.892C480.211 292.989 480.743 293.19 481.254 293.497C481.771 293.804 482.2 294.267 482.541 294.886C482.882 295.506 483.052 296.335 483.052 297.375V306H481.041V304.227H480.939C480.802 304.511 480.575 304.815 480.257 305.139C479.939 305.463 479.515 305.739 478.987 305.966C478.459 306.193 477.814 306.307 477.052 306.307ZM477.359 304.5C478.155 304.5 478.825 304.344 479.37 304.031C479.922 303.719 480.336 303.315 480.615 302.821C480.899 302.327 481.041 301.807 481.041 301.261V299.42C480.956 299.523 480.768 299.616 480.478 299.702C480.194 299.781 479.865 299.852 479.49 299.915C479.12 299.972 478.76 300.023 478.407 300.068C478.061 300.108 477.78 300.142 477.564 300.17C477.041 300.239 476.552 300.349 476.098 300.503C475.649 300.651 475.285 300.875 475.007 301.176C474.734 301.472 474.598 301.875 474.598 302.386C474.598 303.085 474.856 303.614 475.373 303.972C475.896 304.324 476.558 304.5 477.359 304.5ZM492.897 292.909V294.614H486.112V292.909H492.897ZM488.09 289.773H490.101V302.25C490.101 302.818 490.184 303.244 490.348 303.528C490.519 303.807 490.735 303.994 490.996 304.091C491.263 304.182 491.544 304.227 491.84 304.227C492.061 304.227 492.243 304.216 492.385 304.193C492.527 304.165 492.641 304.142 492.726 304.125L493.135 305.932C492.999 305.983 492.809 306.034 492.564 306.085C492.32 306.142 492.01 306.17 491.635 306.17C491.067 306.17 490.51 306.048 489.965 305.804C489.425 305.56 488.976 305.188 488.618 304.688C488.266 304.188 488.09 303.557 488.09 302.795V289.773ZM496.402 306V292.909H498.414V306H496.402ZM497.425 290.727C497.033 290.727 496.695 290.594 496.411 290.327C496.132 290.06 495.993 289.739 495.993 289.364C495.993 288.989 496.132 288.668 496.411 288.401C496.695 288.134 497.033 288 497.425 288C497.817 288 498.152 288.134 498.431 288.401C498.715 288.668 498.857 288.989 498.857 289.364C498.857 289.739 498.715 290.06 498.431 290.327C498.152 290.594 497.817 290.727 497.425 290.727ZM507.896 306.273C506.714 306.273 505.677 305.991 504.785 305.429C503.899 304.866 503.205 304.08 502.705 303.068C502.211 302.057 501.964 300.875 501.964 299.523C501.964 298.159 502.211 296.969 502.705 295.952C503.205 294.935 503.899 294.145 504.785 293.582C505.677 293.02 506.714 292.739 507.896 292.739C509.077 292.739 510.112 293.02 510.998 293.582C511.89 294.145 512.583 294.935 513.077 295.952C513.577 296.969 513.827 298.159 513.827 299.523C513.827 300.875 513.577 302.057 513.077 303.068C512.583 304.08 511.89 304.866 510.998 305.429C510.112 305.991 509.077 306.273 507.896 306.273ZM507.896 304.466C508.793 304.466 509.532 304.236 510.112 303.776C510.691 303.315 511.12 302.71 511.399 301.96C511.677 301.21 511.816 300.398 511.816 299.523C511.816 298.648 511.677 297.832 511.399 297.077C511.12 296.321 510.691 295.71 510.112 295.244C509.532 294.778 508.793 294.545 507.896 294.545C506.998 294.545 506.259 294.778 505.68 295.244C505.1 295.71 504.671 296.321 504.393 297.077C504.114 297.832 503.975 298.648 503.975 299.523C503.975 300.398 504.114 301.21 504.393 301.96C504.671 302.71 505.1 303.315 505.68 303.776C506.259 304.236 506.998 304.466 507.896 304.466ZM519.389 298.125V306H517.378V292.909H519.321V294.955H519.491C519.798 294.29 520.264 293.756 520.889 293.352C521.514 292.943 522.321 292.739 523.31 292.739C524.196 292.739 524.972 292.92 525.636 293.284C526.301 293.642 526.818 294.188 527.187 294.92C527.557 295.648 527.741 296.568 527.741 297.682V306H525.73V297.818C525.73 296.79 525.463 295.989 524.929 295.415C524.395 294.835 523.662 294.545 522.73 294.545C522.088 294.545 521.514 294.685 521.008 294.963C520.508 295.241 520.114 295.648 519.824 296.182C519.534 296.716 519.389 297.364 519.389 298.125ZM539.127 306V292.909H541.138V306H539.127ZM540.15 290.727C539.758 290.727 539.419 290.594 539.135 290.327C538.857 290.06 538.718 289.739 538.718 289.364C538.718 288.989 538.857 288.668 539.135 288.401C539.419 288.134 539.758 288 540.15 288C540.542 288 540.877 288.134 541.155 288.401C541.439 288.668 541.581 288.989 541.581 289.364C541.581 289.739 541.439 290.06 541.155 290.327C540.877 290.594 540.542 290.727 540.15 290.727ZM547.314 298.125V306H545.302V292.909H547.245V294.955H547.416C547.723 294.29 548.189 293.756 548.814 293.352C549.439 292.943 550.245 292.739 551.234 292.739C552.12 292.739 552.896 292.92 553.561 293.284C554.225 293.642 554.742 294.188 555.112 294.92C555.481 295.648 555.666 296.568 555.666 297.682V306H553.654V297.818C553.654 296.79 553.387 295.989 552.853 295.415C552.319 294.835 551.586 294.545 550.654 294.545C550.012 294.545 549.439 294.685 548.933 294.963C548.433 295.241 548.038 295.648 547.748 296.182C547.458 296.716 547.314 297.364 547.314 298.125ZM247.116 342.273C246.026 342.273 245.062 341.997 244.227 341.446C243.392 340.889 242.739 340.105 242.267 339.094C241.795 338.077 241.56 336.875 241.56 335.489C241.56 334.114 241.795 332.92 242.267 331.909C242.739 330.898 243.395 330.116 244.236 329.565C245.077 329.014 246.048 328.739 247.151 328.739C248.003 328.739 248.676 328.881 249.17 329.165C249.67 329.443 250.051 329.761 250.312 330.119C250.579 330.472 250.787 330.761 250.935 330.989H251.105V324.545H253.116V342H251.173V339.989H250.935C250.787 340.227 250.577 340.528 250.304 340.892C250.031 341.25 249.642 341.571 249.136 341.855C248.631 342.134 247.957 342.273 247.116 342.273ZM247.389 340.466C248.196 340.466 248.878 340.256 249.435 339.835C249.991 339.409 250.415 338.821 250.704 338.071C250.994 337.315 251.139 336.443 251.139 335.455C251.139 334.477 250.997 333.622 250.713 332.889C250.429 332.151 250.008 331.577 249.452 331.168C248.895 330.753 248.207 330.545 247.389 330.545C246.537 330.545 245.827 330.764 245.258 331.202C244.696 331.634 244.273 332.222 243.989 332.966C243.71 333.705 243.571 334.534 243.571 335.455C243.571 336.386 243.713 337.233 243.997 337.994C244.287 338.75 244.713 339.352 245.276 339.801C245.844 340.244 246.548 340.466 247.389 340.466ZM257.559 342V328.909H259.571V342H257.559ZM258.582 326.727C258.19 326.727 257.852 326.594 257.568 326.327C257.29 326.06 257.15 325.739 257.15 325.364C257.15 324.989 257.29 324.668 257.568 324.401C257.852 324.134 258.19 324 258.582 324C258.974 324 259.309 324.134 259.588 324.401C259.872 324.668 260.014 324.989 260.014 325.364C260.014 325.739 259.872 326.06 259.588 326.327C259.309 326.594 258.974 326.727 258.582 326.727ZM269.564 328.909V330.614H262.508V328.909H269.564ZM264.621 342V327.102C264.621 326.352 264.797 325.727 265.15 325.227C265.502 324.727 265.959 324.352 266.522 324.102C267.084 323.852 267.678 323.727 268.303 323.727C268.797 323.727 269.201 323.767 269.513 323.847C269.826 323.926 270.059 324 270.212 324.068L269.633 325.807C269.53 325.773 269.388 325.73 269.206 325.679C269.03 325.628 268.797 325.602 268.508 325.602C267.843 325.602 267.363 325.77 267.067 326.105C266.777 326.44 266.633 326.932 266.633 327.58V342H264.621ZM278.693 328.909V330.614H271.636V328.909H278.693ZM273.75 342V327.102C273.75 326.352 273.926 325.727 274.278 325.227C274.63 324.727 275.088 324.352 275.65 324.102C276.213 323.852 276.806 323.727 277.431 323.727C277.926 323.727 278.329 323.767 278.642 323.847C278.954 323.926 279.187 324 279.341 324.068L278.761 325.807C278.659 325.773 278.517 325.73 278.335 325.679C278.159 325.628 277.926 325.602 277.636 325.602C276.971 325.602 276.491 325.77 276.196 326.105C275.906 326.44 275.761 326.932 275.761 327.58V342H273.75ZM286.941 342.273C285.68 342.273 284.592 341.994 283.677 341.438C282.768 340.875 282.066 340.091 281.572 339.085C281.083 338.074 280.839 336.898 280.839 335.557C280.839 334.216 281.083 333.034 281.572 332.011C282.066 330.983 282.754 330.182 283.634 329.608C284.521 329.028 285.555 328.739 286.737 328.739C287.419 328.739 288.092 328.852 288.757 329.08C289.421 329.307 290.026 329.676 290.572 330.188C291.117 330.693 291.552 331.364 291.876 332.199C292.2 333.034 292.362 334.062 292.362 335.284V336.136H282.271V334.398H290.316C290.316 333.659 290.169 333 289.873 332.42C289.583 331.841 289.169 331.384 288.629 331.048C288.095 330.713 287.464 330.545 286.737 330.545C285.936 330.545 285.242 330.744 284.657 331.142C284.078 331.534 283.632 332.045 283.319 332.676C283.007 333.307 282.85 333.983 282.85 334.705V335.864C282.85 336.852 283.021 337.69 283.362 338.378C283.708 339.06 284.188 339.58 284.802 339.938C285.416 340.29 286.129 340.466 286.941 340.466C287.47 340.466 287.947 340.392 288.373 340.244C288.805 340.091 289.177 339.864 289.49 339.562C289.802 339.256 290.044 338.875 290.214 338.42L292.157 338.966C291.953 339.625 291.609 340.205 291.126 340.705C290.643 341.199 290.046 341.585 289.336 341.864C288.626 342.136 287.828 342.273 286.941 342.273ZM295.901 342V328.909H297.845V330.886H297.981C298.22 330.239 298.651 329.713 299.276 329.31C299.901 328.906 300.606 328.705 301.39 328.705C301.538 328.705 301.722 328.707 301.944 328.713C302.166 328.719 302.333 328.727 302.447 328.739V330.784C302.379 330.767 302.222 330.741 301.978 330.707C301.739 330.668 301.487 330.648 301.22 330.648C300.583 330.648 300.015 330.781 299.515 331.048C299.021 331.31 298.629 331.673 298.339 332.139C298.055 332.599 297.913 333.125 297.913 333.716V342H295.901ZM310.401 342.273C309.14 342.273 308.052 341.994 307.137 341.438C306.228 340.875 305.526 340.091 305.032 339.085C304.543 338.074 304.299 336.898 304.299 335.557C304.299 334.216 304.543 333.034 305.032 332.011C305.526 330.983 306.214 330.182 307.094 329.608C307.981 329.028 309.015 328.739 310.197 328.739C310.879 328.739 311.552 328.852 312.217 329.08C312.881 329.307 313.486 329.676 314.032 330.188C314.577 330.693 315.012 331.364 315.336 332.199C315.66 333.034 315.822 334.062 315.822 335.284V336.136H305.731V334.398H313.776C313.776 333.659 313.629 333 313.333 332.42C313.043 331.841 312.629 331.384 312.089 331.048C311.555 330.713 310.924 330.545 310.197 330.545C309.396 330.545 308.702 330.744 308.117 331.142C307.538 331.534 307.092 332.045 306.779 332.676C306.467 333.307 306.31 333.983 306.31 334.705V335.864C306.31 336.852 306.481 337.69 306.822 338.378C307.168 339.06 307.648 339.58 308.262 339.938C308.876 340.29 309.589 340.466 310.401 340.466C310.93 340.466 311.407 340.392 311.833 340.244C312.265 340.091 312.637 339.864 312.95 339.562C313.262 339.256 313.504 338.875 313.674 338.42L315.617 338.966C315.413 339.625 315.069 340.205 314.586 340.705C314.103 341.199 313.506 341.585 312.796 341.864C312.086 342.136 311.288 342.273 310.401 342.273ZM321.373 334.125V342H319.361V328.909H321.305V330.955H321.475C321.782 330.29 322.248 329.756 322.873 329.352C323.498 328.943 324.305 328.739 325.293 328.739C326.18 328.739 326.955 328.92 327.62 329.284C328.285 329.642 328.802 330.188 329.171 330.92C329.54 331.648 329.725 332.568 329.725 333.682V342H327.714V333.818C327.714 332.79 327.447 331.989 326.913 331.415C326.378 330.835 325.645 330.545 324.714 330.545C324.072 330.545 323.498 330.685 322.992 330.963C322.492 331.241 322.097 331.648 321.807 332.182C321.518 332.716 321.373 333.364 321.373 334.125ZM339.574 328.909V330.614H332.79V328.909H339.574ZM334.767 325.773H336.778V338.25C336.778 338.818 336.861 339.244 337.025 339.528C337.196 339.807 337.412 339.994 337.673 340.091C337.94 340.182 338.221 340.227 338.517 340.227C338.738 340.227 338.92 340.216 339.062 340.193C339.204 340.165 339.318 340.142 339.403 340.125L339.812 341.932C339.676 341.983 339.486 342.034 339.241 342.085C338.997 342.142 338.687 342.17 338.312 342.17C337.744 342.17 337.187 342.048 336.642 341.804C336.102 341.56 335.653 341.188 335.295 340.688C334.943 340.188 334.767 339.557 334.767 338.795V325.773ZM355.627 342.273C354.4 342.273 353.343 341.983 352.457 341.403C351.571 340.824 350.889 340.026 350.411 339.009C349.934 337.991 349.696 336.83 349.696 335.523C349.696 334.193 349.94 333.02 350.428 332.003C350.923 330.98 351.61 330.182 352.491 329.608C353.377 329.028 354.411 328.739 355.593 328.739C356.514 328.739 357.343 328.909 358.082 329.25C358.821 329.591 359.426 330.068 359.897 330.682C360.369 331.295 360.661 332.011 360.775 332.83H358.764C358.61 332.233 358.269 331.705 357.741 331.244C357.218 330.778 356.514 330.545 355.627 330.545C354.843 330.545 354.156 330.75 353.565 331.159C352.98 331.562 352.522 332.134 352.193 332.872C351.869 333.605 351.707 334.466 351.707 335.455C351.707 336.466 351.866 337.347 352.184 338.097C352.508 338.847 352.963 339.429 353.548 339.844C354.139 340.259 354.832 340.466 355.627 340.466C356.15 340.466 356.625 340.375 357.051 340.193C357.477 340.011 357.838 339.75 358.133 339.409C358.428 339.068 358.639 338.659 358.764 338.182H360.775C360.661 338.955 360.38 339.651 359.931 340.27C359.488 340.884 358.9 341.372 358.167 341.736C357.44 342.094 356.593 342.273 355.627 342.273ZM372.445 336.648V328.909H374.457V342H372.445V339.784H372.309C372.002 340.449 371.525 341.014 370.877 341.48C370.23 341.94 369.411 342.17 368.423 342.17C367.605 342.17 366.877 341.991 366.241 341.634C365.605 341.27 365.105 340.724 364.741 339.997C364.377 339.264 364.195 338.341 364.195 337.227V328.909H366.207V337.091C366.207 338.045 366.474 338.807 367.008 339.375C367.548 339.943 368.235 340.227 369.07 340.227C369.57 340.227 370.079 340.099 370.596 339.844C371.119 339.588 371.556 339.196 371.909 338.668C372.266 338.139 372.445 337.466 372.445 336.648ZM380.632 324.545V342H378.621V324.545H380.632ZM390.489 328.909V330.614H383.705V328.909H390.489ZM385.682 325.773H387.694V338.25C387.694 338.818 387.776 339.244 387.941 339.528C388.111 339.807 388.327 339.994 388.589 340.091C388.856 340.182 389.137 340.227 389.432 340.227C389.654 340.227 389.836 340.216 389.978 340.193C390.12 340.165 390.234 340.142 390.319 340.125L390.728 341.932C390.592 341.983 390.401 342.034 390.157 342.085C389.913 342.142 389.603 342.17 389.228 342.17C388.66 342.17 388.103 342.048 387.557 341.804C387.018 341.56 386.569 341.188 386.211 340.688C385.859 340.188 385.682 339.557 385.682 338.795V325.773ZM402.245 336.648V328.909H404.256V342H402.245V339.784H402.108C401.802 340.449 401.324 341.014 400.677 341.48C400.029 341.94 399.211 342.17 398.222 342.17C397.404 342.17 396.677 341.991 396.04 341.634C395.404 341.27 394.904 340.724 394.54 339.997C394.177 339.264 393.995 338.341 393.995 337.227V328.909H396.006V337.091C396.006 338.045 396.273 338.807 396.807 339.375C397.347 339.943 398.035 340.227 398.87 340.227C399.37 340.227 399.878 340.099 400.395 339.844C400.918 339.588 401.356 339.196 401.708 338.668C402.066 338.139 402.245 337.466 402.245 336.648ZM408.42 342V328.909H410.363V330.886H410.5C410.738 330.239 411.17 329.713 411.795 329.31C412.42 328.906 413.125 328.705 413.909 328.705C414.056 328.705 414.241 328.707 414.463 328.713C414.684 328.719 414.852 328.727 414.966 328.739V330.784C414.897 330.767 414.741 330.741 414.497 330.707C414.258 330.668 414.005 330.648 413.738 330.648C413.102 330.648 412.534 330.781 412.034 331.048C411.539 331.31 411.147 331.673 410.858 332.139C410.574 332.599 410.431 333.125 410.431 333.716V342H408.42ZM422.92 342.273C421.659 342.273 420.571 341.994 419.656 341.438C418.747 340.875 418.045 340.091 417.551 339.085C417.062 338.074 416.818 336.898 416.818 335.557C416.818 334.216 417.062 333.034 417.551 332.011C418.045 330.983 418.732 330.182 419.613 329.608C420.5 329.028 421.534 328.739 422.715 328.739C423.397 328.739 424.071 328.852 424.735 329.08C425.4 329.307 426.005 329.676 426.551 330.188C427.096 330.693 427.531 331.364 427.855 332.199C428.179 333.034 428.34 334.062 428.34 335.284V336.136H418.25V334.398H426.295C426.295 333.659 426.147 333 425.852 332.42C425.562 331.841 425.147 331.384 424.608 331.048C424.073 330.713 423.443 330.545 422.715 330.545C421.914 330.545 421.221 330.744 420.636 331.142C420.056 331.534 419.61 332.045 419.298 332.676C418.985 333.307 418.829 333.983 418.829 334.705V335.864C418.829 336.852 419 337.69 419.34 338.378C419.687 339.06 420.167 339.58 420.781 339.938C421.394 340.29 422.108 340.466 422.92 340.466C423.448 340.466 423.926 340.392 424.352 340.244C424.784 340.091 425.156 339.864 425.468 339.562C425.781 339.256 426.022 338.875 426.193 338.42L428.136 338.966C427.931 339.625 427.588 340.205 427.105 340.705C426.622 341.199 426.025 341.585 425.315 341.864C424.605 342.136 423.806 342.273 422.92 342.273ZM441.153 331.841L439.346 332.352C439.232 332.051 439.065 331.759 438.843 331.474C438.627 331.185 438.332 330.946 437.957 330.759C437.582 330.571 437.102 330.477 436.516 330.477C435.715 330.477 435.048 330.662 434.514 331.031C433.985 331.395 433.721 331.858 433.721 332.42C433.721 332.92 433.903 333.315 434.266 333.605C434.63 333.895 435.198 334.136 435.971 334.33L437.914 334.807C439.085 335.091 439.957 335.526 440.531 336.111C441.105 336.69 441.391 337.437 441.391 338.352C441.391 339.102 441.176 339.773 440.744 340.364C440.318 340.955 439.721 341.42 438.954 341.761C438.187 342.102 437.295 342.273 436.278 342.273C434.943 342.273 433.838 341.983 432.963 341.403C432.088 340.824 431.534 339.977 431.301 338.864L433.21 338.386C433.391 339.091 433.735 339.619 434.241 339.972C434.752 340.324 435.42 340.5 436.244 340.5C437.181 340.5 437.926 340.301 438.477 339.903C439.034 339.5 439.312 339.017 439.312 338.455C439.312 338 439.153 337.619 438.835 337.312C438.516 337 438.028 336.767 437.369 336.614L435.187 336.102C433.988 335.818 433.107 335.378 432.545 334.781C431.988 334.179 431.71 333.426 431.71 332.523C431.71 331.784 431.917 331.131 432.332 330.562C432.752 329.994 433.323 329.548 434.045 329.224C434.772 328.901 435.596 328.739 436.516 328.739C437.812 328.739 438.829 329.023 439.568 329.591C440.312 330.159 440.84 330.909 441.153 331.841ZM446.365 342.136C445.945 342.136 445.584 341.986 445.283 341.685C444.982 341.384 444.831 341.023 444.831 340.602C444.831 340.182 444.982 339.821 445.283 339.52C445.584 339.219 445.945 339.068 446.365 339.068C446.786 339.068 447.146 339.219 447.447 339.52C447.749 339.821 447.899 340.182 447.899 340.602C447.899 340.881 447.828 341.136 447.686 341.369C447.55 341.602 447.365 341.79 447.132 341.932C446.905 342.068 446.649 342.136 446.365 342.136Z" fill="#333333"/>
</svg>
