<svg width="1512" height="720" viewBox="0 0 1512 720" fill="none" xmlns="http://www.w3.org/2000/svg">
<rect width="756" height="360" transform="scale(2)" fill="#F6F6F6"/>
<g clip-path="url(#clip0_15283_30704)">
<rect x="188" y="110" width="480" height="480" fill="white"/>
<g opacity="0.6">
<path d="M428 110V590" stroke="#6D6DF3"/>
<path d="M368 110V590" stroke="#6D6DF3"/>
<path d="M488 110V590" stroke="#6D6DF3"/>
<path d="M188 410L668 410" stroke="#6D6DF3"/>
<path d="M188 290L668 290" stroke="#6D6DF3"/>
<path d="M188 350L668 350" stroke="#6D6DF3"/>
<path d="M668 110L188.004 589.996" stroke="#6D6DF3"/>
<path d="M188 110L667.996 589.996" stroke="#6D6DF3"/>
<circle cx="428" cy="350" r="200" stroke="#6D6DF3"/>
<circle cx="428" cy="350" r="85" stroke="#6D6DF3" stroke-width="0.988372"/>
<rect x="268" y="150" width="320" height="400" rx="10" stroke="#6D6DF3"/>
<rect x="248" y="170" width="360" height="360" rx="10" stroke="#6D6DF3"/>
<rect x="228" y="510" width="320" height="400" rx="10" transform="rotate(-90 228 510)" stroke="#6D6DF3"/>
</g>
</g>
<rect x="187.5" y="109.5" width="481" height="481" stroke="#B6B6F9"/>
<g clip-path="url(#clip1_15283_30704)">
<rect x="844" y="110" width="480" height="480" fill="white"/>
<path d="M1324 590H884V590.002H844V110H1324V590ZM884 550H1284V150H884V550Z" fill="#E5ECFF"/>
<g opacity="0.6">
<path d="M864 110V590" stroke="#B6B6F9"/>
<path d="M884 110V590" stroke="#B6B6F9"/>
<path d="M904 110V590" stroke="#B6B6F9"/>
<path d="M924 110V590" stroke="#B6B6F9"/>
<path d="M944 110V590" stroke="#B6B6F9"/>
<path d="M964 110V590" stroke="#B6B6F9"/>
<path d="M984 110V590" stroke="#B6B6F9"/>
<path d="M1004 110V590" stroke="#B6B6F9"/>
<path d="M1024 110V590" stroke="#B6B6F9"/>
<path d="M1044 110V590" stroke="#B6B6F9"/>
<path d="M1064 110V590" stroke="#B6B6F9"/>
<path d="M1084 110V590" stroke="#B6B6F9"/>
<path d="M1104 110V590" stroke="#B6B6F9"/>
<path d="M1124 110V590" stroke="#B6B6F9"/>
<path d="M1144 110V590" stroke="#B6B6F9"/>
<path d="M1164 110V590" stroke="#B6B6F9"/>
<path d="M1184 110V590" stroke="#B6B6F9"/>
<path d="M1204 110V590" stroke="#B6B6F9"/>
<path d="M1224 110V590" stroke="#B6B6F9"/>
<path d="M1244 110V590" stroke="#B6B6F9"/>
<path d="M1264 110V590" stroke="#B6B6F9"/>
<path d="M1284 110V590" stroke="#B6B6F9"/>
<path d="M1304 110V590" stroke="#B6B6F9"/>
</g>
<g opacity="0.6">
<path d="M844 570L1324 570" stroke="#B6B6F9"/>
<path d="M844 550L1324 550" stroke="#B6B6F9"/>
<path d="M844 530L1324 530" stroke="#B6B6F9"/>
<path d="M844 510L1324 510" stroke="#B6B6F9"/>
<path d="M844 490L1324 490" stroke="#B6B6F9"/>
<path d="M844 470L1324 470" stroke="#B6B6F9"/>
<path d="M844 450L1324 450" stroke="#B6B6F9"/>
<path d="M844 430L1324 430" stroke="#B6B6F9"/>
<path d="M844 410L1324 410" stroke="#B6B6F9"/>
<path d="M844 390L1324 390" stroke="#B6B6F9"/>
<path d="M844 370L1324 370" stroke="#B6B6F9"/>
<path d="M844 350L1324 350" stroke="#B6B6F9"/>
<path d="M844 330L1324 330" stroke="#B6B6F9"/>
<path d="M844 310L1324 310" stroke="#B6B6F9"/>
<path d="M844 290L1324 290" stroke="#B6B6F9"/>
<path d="M844 270L1324 270" stroke="#B6B6F9"/>
<path d="M844 250L1324 250" stroke="#B6B6F9"/>
<path d="M844 230L1324 230" stroke="#B6B6F9"/>
<path d="M844 210L1324 210" stroke="#B6B6F9"/>
<path d="M844 190L1324 190" stroke="#B6B6F9"/>
<path d="M844 170L1324 170" stroke="#B6B6F9"/>
<path d="M844 150L1324 150" stroke="#B6B6F9"/>
<path d="M844 130L1324 130" stroke="#B6B6F9"/>
</g>
</g>
<rect x="843.5" y="109.5" width="481" height="481" stroke="#B6B6F9"/>
<path d="M388.586 648V630.545H391.219V638.881H391.432L398.753 630.545H402.069L395.029 638.403L402.094 648H398.924L393.282 640.202L391.219 642.571V648H388.586ZM409 648.264C407.71 648.264 406.599 647.989 405.667 647.438C404.741 646.881 404.025 646.099 403.52 645.094C403.02 644.082 402.77 642.898 402.77 641.54C402.77 640.199 403.02 639.017 403.52 637.994C404.025 636.972 404.73 636.173 405.633 635.599C406.542 635.026 407.605 634.739 408.821 634.739C409.559 634.739 410.275 634.861 410.968 635.105C411.662 635.349 412.284 635.733 412.835 636.256C413.386 636.778 413.821 637.457 414.139 638.293C414.457 639.122 414.616 640.131 414.616 641.318V642.222H404.21V640.312H412.119C412.119 639.642 411.983 639.048 411.71 638.531C411.437 638.009 411.054 637.597 410.559 637.295C410.071 636.994 409.497 636.844 408.838 636.844C408.122 636.844 407.497 637.02 406.963 637.372C406.434 637.719 406.025 638.173 405.735 638.736C405.451 639.293 405.309 639.898 405.309 640.551V642.043C405.309 642.918 405.463 643.662 405.77 644.276C406.082 644.889 406.517 645.358 407.074 645.682C407.63 646 408.281 646.159 409.025 646.159C409.508 646.159 409.949 646.091 410.346 645.955C410.744 645.812 411.088 645.602 411.377 645.324C411.667 645.045 411.889 644.702 412.042 644.293L414.454 644.727C414.261 645.437 413.914 646.06 413.414 646.594C412.92 647.122 412.298 647.534 411.548 647.83C410.804 648.119 409.954 648.264 409 648.264ZM418.679 652.909C418.299 652.909 417.952 652.878 417.64 652.815C417.327 652.759 417.094 652.696 416.941 652.628L417.554 650.54C418.02 650.665 418.435 650.719 418.799 650.702C419.162 650.685 419.483 650.548 419.762 650.293C420.046 650.037 420.296 649.619 420.512 649.04L420.827 648.17L416.037 634.909H418.765L422.08 645.068H422.216L425.532 634.909H428.267L422.873 649.747C422.623 650.429 422.304 651.006 421.918 651.477C421.532 651.955 421.071 652.313 420.537 652.551C420.003 652.79 419.384 652.909 418.679 652.909ZM433.211 630.545V648H430.662V630.545H433.211ZM436.639 648V634.909H439.187V648H436.639ZM437.926 632.889C437.483 632.889 437.102 632.741 436.784 632.446C436.471 632.145 436.315 631.787 436.315 631.372C436.315 630.952 436.471 630.594 436.784 630.298C437.102 629.997 437.483 629.847 437.926 629.847C438.369 629.847 438.747 629.997 439.059 630.298C439.377 630.594 439.537 630.952 439.537 631.372C439.537 631.787 439.377 632.145 439.059 632.446C438.747 632.741 438.369 632.889 437.926 632.889ZM445.164 640.227V648H442.615V634.909H445.061V637.04H445.223C445.525 636.347 445.996 635.79 446.638 635.369C447.286 634.949 448.101 634.739 449.084 634.739C449.976 634.739 450.757 634.926 451.428 635.301C452.098 635.67 452.618 636.222 452.988 636.955C453.357 637.687 453.542 638.594 453.542 639.673V648H450.993V639.98C450.993 639.031 450.746 638.29 450.252 637.756C449.757 637.216 449.078 636.946 448.215 636.946C447.624 636.946 447.098 637.074 446.638 637.33C446.184 637.585 445.823 637.96 445.556 638.455C445.294 638.943 445.164 639.534 445.164 640.227ZM462.601 648.264C461.311 648.264 460.201 647.989 459.269 647.438C458.343 646.881 457.627 646.099 457.121 645.094C456.621 644.082 456.371 642.898 456.371 641.54C456.371 640.199 456.621 639.017 457.121 637.994C457.627 636.972 458.331 636.173 459.235 635.599C460.144 635.026 461.206 634.739 462.422 634.739C463.161 634.739 463.877 634.861 464.57 635.105C465.263 635.349 465.885 635.733 466.436 636.256C466.988 636.778 467.422 637.457 467.74 638.293C468.059 639.122 468.218 640.131 468.218 641.318V642.222H457.811V640.312H465.721C465.721 639.642 465.584 639.048 465.311 638.531C465.039 638.009 464.655 637.597 464.161 637.295C463.672 636.994 463.098 636.844 462.439 636.844C461.723 636.844 461.098 637.02 460.564 637.372C460.036 637.719 459.627 638.173 459.337 638.736C459.053 639.293 458.911 639.898 458.911 640.551V642.043C458.911 642.918 459.064 643.662 459.371 644.276C459.684 644.889 460.118 645.358 460.675 645.682C461.232 646 461.882 646.159 462.627 646.159C463.11 646.159 463.55 646.091 463.948 645.955C464.346 645.812 464.689 645.602 464.979 645.324C465.269 645.045 465.49 644.702 465.644 644.293L468.056 644.727C467.863 645.437 467.516 646.06 467.016 646.594C466.522 647.122 465.9 647.534 465.15 647.83C464.405 648.119 463.556 648.264 462.601 648.264Z" fill="#404041"/>
<path d="M1072.64 636.06C1072.47 635.543 1072.25 635.08 1071.97 634.67C1071.7 634.256 1071.37 633.903 1070.99 633.614C1070.61 633.318 1070.18 633.094 1069.69 632.94C1069.2 632.787 1068.67 632.71 1068.09 632.71C1067.11 632.71 1066.22 632.963 1065.43 633.469C1064.64 633.974 1064.02 634.716 1063.56 635.693C1063.11 636.665 1062.88 637.855 1062.88 639.264C1062.88 640.679 1063.11 641.875 1063.57 642.852C1064.03 643.83 1064.66 644.571 1065.46 645.077C1066.26 645.582 1067.17 645.835 1068.2 645.835C1069.14 645.835 1069.97 645.642 1070.68 645.256C1071.39 644.869 1071.93 644.324 1072.32 643.619C1072.71 642.909 1072.91 642.074 1072.91 641.114L1073.59 641.241H1068.6V639.068H1075.46V641.054C1075.46 642.52 1075.14 643.793 1074.52 644.872C1073.9 645.946 1073.04 646.776 1071.95 647.361C1070.86 647.946 1069.61 648.239 1068.2 648.239C1066.62 648.239 1065.23 647.875 1064.04 647.148C1062.85 646.42 1061.92 645.389 1061.26 644.054C1060.59 642.713 1060.26 641.122 1060.26 639.281C1060.26 637.889 1060.45 636.639 1060.84 635.531C1061.23 634.423 1061.77 633.483 1062.47 632.71C1063.17 631.932 1064 631.338 1064.95 630.929C1065.9 630.514 1066.95 630.307 1068.08 630.307C1069.02 630.307 1069.9 630.446 1070.71 630.724C1071.53 631.003 1072.26 631.398 1072.89 631.909C1073.53 632.42 1074.07 633.028 1074.49 633.733C1074.91 634.432 1075.19 635.207 1075.34 636.06H1072.64ZM1078.6 648V634.909H1081.06V636.989H1081.2C1081.43 636.284 1081.85 635.73 1082.46 635.327C1083.06 634.918 1083.75 634.713 1084.52 634.713C1084.68 634.713 1084.87 634.719 1085.08 634.73C1085.3 634.741 1085.48 634.756 1085.6 634.773V637.21C1085.5 637.182 1085.32 637.151 1085.06 637.116C1084.79 637.077 1084.53 637.057 1084.27 637.057C1083.67 637.057 1083.13 637.185 1082.66 637.44C1082.2 637.69 1081.83 638.04 1081.55 638.489C1081.28 638.932 1081.14 639.437 1081.14 640.006V648H1078.6ZM1087.81 648V634.909H1090.36V648H1087.81ZM1089.09 632.889C1088.65 632.889 1088.27 632.741 1087.95 632.446C1087.64 632.145 1087.48 631.787 1087.48 631.372C1087.48 630.952 1087.64 630.594 1087.95 630.298C1088.27 629.997 1088.65 629.847 1089.09 629.847C1089.54 629.847 1089.91 629.997 1090.23 630.298C1090.55 630.594 1090.7 630.952 1090.7 631.372C1090.7 631.787 1090.55 632.145 1090.23 632.446C1089.91 632.741 1089.54 632.889 1089.09 632.889ZM1098.68 648.256C1097.63 648.256 1096.68 647.986 1095.85 647.446C1095.03 646.901 1094.38 646.125 1093.91 645.119C1093.45 644.108 1093.21 642.895 1093.21 641.48C1093.21 640.065 1093.45 638.855 1093.92 637.849C1094.4 636.844 1095.05 636.074 1095.88 635.54C1096.71 635.006 1097.65 634.739 1098.7 634.739C1099.51 634.739 1100.17 634.875 1100.66 635.148C1101.16 635.415 1101.55 635.727 1101.82 636.085C1102.1 636.443 1102.31 636.759 1102.47 637.031H1102.62V630.545H1105.17V648H1102.68V645.963H1102.47C1102.31 646.241 1102.09 646.56 1101.8 646.918C1101.52 647.276 1101.13 647.588 1100.63 647.855C1100.13 648.122 1099.48 648.256 1098.68 648.256ZM1099.25 646.082C1099.98 646.082 1100.6 645.889 1101.1 645.503C1101.62 645.111 1102 644.568 1102.26 643.875C1102.53 643.182 1102.66 642.375 1102.66 641.455C1102.66 640.545 1102.53 639.75 1102.27 639.068C1102.01 638.386 1101.63 637.855 1101.12 637.474C1100.62 637.094 1099.99 636.903 1099.25 636.903C1098.48 636.903 1097.84 637.102 1097.33 637.5C1096.82 637.898 1096.43 638.44 1096.17 639.128C1095.91 639.815 1095.79 640.591 1095.79 641.455C1095.79 642.33 1095.92 643.116 1096.18 643.815C1096.44 644.514 1096.83 645.068 1097.34 645.477C1097.85 645.881 1098.49 646.082 1099.25 646.082Z" fill="#404041"/>
<defs>
<clipPath id="clip0_15283_30704">
<rect x="188" y="110" width="480" height="480" fill="white"/>
</clipPath>
<clipPath id="clip1_15283_30704">
<rect x="844" y="110" width="480" height="480" fill="white"/>
</clipPath>
</defs>
</svg>
