<svg width="1512" height="480" viewBox="0 0 1512 480" fill="none" xmlns="http://www.w3.org/2000/svg">
<rect width="756" height="240" transform="scale(2)" fill="#F6F6F6"/>
<path d="M1496 0C1504.84 0 1512 7.16344 1512 16V464C1512 472.837 1504.84 480 1496 480H16C7.16346 480 0 472.837 0 464V16C7.21566e-06 7.16345 7.16345 0 16 0H1496Z" fill="#FAFAFA"/>
<path d="M1496 0C1504.84 0 1512 7.16344 1512 16V464C1512 472.837 1504.84 480 1496 480H16C7.16346 480 0 472.837 0 464V16C7.21566e-06 7.16345 7.16345 0 16 0H1496Z" stroke="#E5E5E5"/>
<rect x="195.5" y="175.5" width="25" height="25" stroke="#B6B6F9"/>
<path fill-rule="evenodd" clip-rule="evenodd" d="M207.999 179.2C204.526 179.2 201.866 182.336 201.866 186V189.634C201.866 189.965 201.729 190.282 201.487 190.509L200.374 191.552C199.515 192.358 200.085 193.8 201.264 193.8H205.199V194C205.199 195.546 206.452 196.8 207.999 196.8C209.545 196.8 210.799 195.546 210.799 194V193.8H214.735C215.913 193.8 216.484 192.358 215.624 191.552L214.512 190.509C214.27 190.282 214.132 189.965 214.132 189.634V186C214.132 182.336 211.472 179.2 207.999 179.2ZM203.466 186C203.466 183.037 205.581 180.8 207.999 180.8C210.417 180.8 212.532 183.037 212.532 186V189.634C212.532 190.408 212.853 191.147 213.417 191.676L213.976 192.2H202.022L202.581 191.676C203.145 191.147 203.466 190.408 203.466 189.634V186ZM209.199 193.8H206.799V194C206.799 194.663 207.336 195.2 207.999 195.2C208.662 195.2 209.199 194.663 209.199 194V193.8Z" fill="#333333"/>
<rect x="251.5" y="175.5" width="33" height="33" stroke="#B6B6F9"/>
<path fill-rule="evenodd" clip-rule="evenodd" d="M268.001 180.267C263.37 180.267 259.823 184.448 259.823 189.334V194.178C259.823 194.621 259.64 195.043 259.317 195.346L257.835 196.736C256.688 197.81 257.449 199.734 259.02 199.734H264.267V200C264.267 202.062 265.939 203.733 268 203.733C270.062 203.733 271.734 202.062 271.734 200V199.734H276.982C278.553 199.734 279.313 197.81 278.167 196.736L276.684 195.346C276.362 195.043 276.179 194.621 276.179 194.178V189.334C276.179 184.448 272.632 180.267 268.001 180.267ZM261.956 189.334C261.956 185.383 264.777 182.4 268.001 182.4C271.224 182.4 274.045 185.383 274.045 189.334V194.178C274.045 195.21 274.472 196.196 275.225 196.902L275.97 197.6H260.032L260.776 196.902C261.529 196.196 261.956 195.21 261.956 194.178V189.334ZM269.6 199.734H266.4V200C266.4 200.884 267.117 201.6 268 201.6C268.884 201.6 269.6 200.884 269.6 200V199.734Z" fill="#333333"/>
<rect x="315.5" y="175.5" width="41" height="41" stroke="#B6B6F9"/>
<path fill-rule="evenodd" clip-rule="evenodd" d="M336.001 181.334C330.212 181.334 325.778 186.56 325.778 192.667V198.723C325.778 199.276 325.55 199.804 325.146 200.182L323.293 201.92C321.86 203.263 322.81 205.667 324.775 205.667H331.333V206C331.333 208.577 333.423 210.667 336 210.667C338.577 210.667 340.667 208.577 340.667 206V205.667H347.227C349.191 205.667 350.141 203.263 348.708 201.92L346.855 200.182C346.452 199.804 346.223 199.276 346.223 198.723V192.667C346.223 186.56 341.789 181.334 336.001 181.334ZM328.445 192.667C328.445 187.729 331.971 184 336.001 184C340.03 184 343.556 187.729 343.556 192.667V198.723C343.556 200.013 344.09 201.245 345.031 202.127L345.962 203H326.039L326.97 202.127C327.911 201.245 328.445 200.013 328.445 198.723V192.667ZM338 205.667H334V206C334 207.105 334.895 208 336 208C337.105 208 338 207.105 338 206V205.667Z" fill="#333333"/>
<rect x="387.5" y="175.5" width="49" height="49" stroke="#B6B6F9"/>
<path fill-rule="evenodd" clip-rule="evenodd" d="M412 182.4C405.054 182.4 399.734 188.672 399.734 196V203.267C399.734 203.931 399.459 204.565 398.975 205.018L396.751 207.104C395.031 208.716 396.172 211.6 398.529 211.6H406.4V212C406.4 215.093 408.907 217.6 412 217.6C415.092 217.6 417.6 215.093 417.6 212V211.6H425.472C427.828 211.6 428.969 208.716 427.25 207.104L425.025 205.018C424.542 204.565 424.267 203.931 424.267 203.267V196C424.267 188.672 418.947 182.4 412 182.4ZM402.934 196C402.934 190.074 407.165 185.6 412 185.6C416.836 185.6 421.067 190.074 421.067 196V203.267C421.067 204.815 421.708 206.294 422.837 207.353L423.954 208.4H400.046L401.164 207.353C402.293 206.294 402.934 204.815 402.934 203.267V196ZM414.4 211.6H409.6V212C409.6 213.325 410.674 214.4 412 214.4C413.325 214.4 414.4 213.325 414.4 212V211.6Z" fill="#333333"/>
<rect x="467.5" y="175.5" width="57" height="57" stroke="#B6B6F9"/>
<path fill-rule="evenodd" clip-rule="evenodd" d="M496 183.467C487.896 183.467 481.689 190.784 481.689 199.334V207.812C481.689 208.586 481.369 209.325 480.804 209.855L478.209 212.288C476.203 214.168 477.534 217.534 480.284 217.534H489.466V218C489.466 221.608 492.391 224.533 495.999 224.533C499.607 224.533 502.533 221.608 502.533 218V217.534H511.716C514.466 217.534 515.797 214.168 513.791 212.288L511.196 209.855C510.631 209.325 510.311 208.586 510.311 207.812V199.334C510.311 190.784 504.104 183.467 496 183.467ZM485.422 199.334C485.422 192.42 490.359 187.2 496 187.2C501.641 187.2 506.578 192.42 506.578 199.334V207.812C506.578 209.618 507.325 211.343 508.643 212.578L509.946 213.8H482.054L483.357 212.578C484.675 211.343 485.422 209.618 485.422 207.812V199.334ZM498.799 217.534H493.199V218C493.199 219.546 494.453 220.8 495.999 220.8C497.546 220.8 498.799 219.546 498.799 218V217.534Z" fill="#333333"/>
<rect x="555.5" y="175.5" width="65" height="65" stroke="#B6B6F9"/>
<path fill-rule="evenodd" clip-rule="evenodd" d="M588 184.534C578.738 184.534 571.644 192.896 571.644 202.667V212.357C571.644 213.241 571.278 214.086 570.633 214.691L567.667 217.471C565.374 219.621 566.895 223.467 570.038 223.467H580.532V224C580.532 228.124 583.875 231.467 587.999 231.467C592.123 231.467 595.465 228.124 595.465 224V223.467H605.961C609.104 223.467 610.625 219.621 608.332 217.471L605.367 214.691C604.721 214.086 604.355 213.241 604.355 212.357V202.667C604.355 192.896 597.262 184.534 588 184.534ZM575.911 202.667C575.911 194.766 581.552 188.8 588 188.8C594.447 188.8 600.089 194.766 600.089 202.667V212.357C600.089 214.42 600.943 216.392 602.449 217.804L603.938 219.2H572.061L573.551 217.804C575.057 216.392 575.911 214.42 575.911 212.357V202.667ZM591.199 223.467H584.799V224C584.799 225.767 586.232 227.2 587.999 227.2C589.766 227.2 591.199 225.767 591.199 224V223.467Z" fill="#333333"/>
<rect x="651.5" y="175.5" width="73" height="73" stroke="#B6B6F9"/>
<path fill-rule="evenodd" clip-rule="evenodd" d="M688.001 185.601C677.581 185.601 669.601 195.008 669.601 206.001V216.901C669.601 217.896 669.19 218.847 668.464 219.528L665.127 222.655C662.548 225.073 664.259 229.401 667.795 229.401H679.6V230C679.6 234.639 683.361 238.4 688 238.4C692.64 238.4 696.4 234.639 696.4 230V229.401H708.208C711.744 229.401 713.455 225.073 710.876 222.655L707.539 219.528C706.813 218.847 706.401 217.896 706.401 216.901V206.001C706.401 195.008 698.421 185.601 688.001 185.601ZM674.401 206.001C674.401 197.111 680.748 190.401 688.001 190.401C695.255 190.401 701.601 197.111 701.601 206.001V216.901C701.601 219.223 702.562 221.441 704.256 223.029L705.932 224.601H670.07L671.747 223.029C673.44 221.441 674.401 219.223 674.401 216.901V206.001ZM691.6 229.401H684.4V230C684.4 231.988 686.012 233.6 688 233.6C689.989 233.6 691.6 231.988 691.6 230V229.401Z" fill="#333333"/>
<rect x="755.5" y="175.5" width="81" height="81" stroke="#B6B6F9"/>
<path fill-rule="evenodd" clip-rule="evenodd" d="M796.001 186.667C784.423 186.667 775.557 197.12 775.557 209.334V221.446C775.557 222.551 775.099 223.608 774.292 224.364L770.585 227.839C767.719 230.526 769.621 235.334 773.549 235.334H786.667V236C786.667 241.155 790.845 245.333 796 245.333C801.155 245.333 805.333 241.155 805.333 236V235.334H818.453C822.381 235.334 824.283 230.526 821.417 227.839L817.71 224.364C816.903 223.608 816.446 222.551 816.446 221.446V209.334C816.446 197.12 807.579 186.667 796.001 186.667ZM780.89 209.334C780.89 199.457 787.942 192.001 796.001 192.001C804.06 192.001 811.112 199.457 811.112 209.334V221.446C811.112 224.026 812.18 226.49 814.062 228.255L815.924 230.001H776.078L777.94 228.255C779.822 226.49 780.89 224.026 780.89 221.446V209.334ZM800 235.334H792V236C792 238.209 793.791 240 796 240C798.209 240 800 238.209 800 236V235.334Z" fill="#333333"/>
<rect x="867.5" y="175.5" width="97" height="97" stroke="#B6B6F9"/>
<path fill-rule="evenodd" clip-rule="evenodd" d="M916.001 188.801C902.107 188.801 891.467 201.343 891.467 216.001V230.535C891.467 231.862 890.918 233.129 889.95 234.037L885.502 238.207C882.063 241.431 884.344 247.201 889.058 247.201H904.799V248C904.799 254.186 909.814 259.2 915.999 259.2C922.185 259.2 927.199 254.186 927.199 248V247.201H942.943C947.657 247.201 949.939 241.431 946.499 238.207L942.051 234.037C941.083 233.129 940.534 231.862 940.534 230.535V216.001C940.534 201.343 929.894 188.801 916.001 188.801ZM897.867 216.001C897.867 204.149 906.33 195.201 916.001 195.201C925.671 195.201 934.134 204.149 934.134 216.001V230.535C934.134 233.631 935.415 236.588 937.674 238.706L939.908 240.801H892.093L894.327 238.706C896.586 236.588 897.867 233.631 897.867 230.535V216.001ZM920.799 247.201H911.199V248C911.199 250.651 913.348 252.8 915.999 252.8C918.65 252.8 920.799 250.651 920.799 248V247.201Z" fill="#333333"/>
<rect x="995.5" y="175.5" width="129" height="129" stroke="#B6B6F9"/>
<path fill-rule="evenodd" clip-rule="evenodd" d="M1060 193.068C1041.48 193.068 1027.29 209.791 1027.29 229.334V248.713C1027.29 250.482 1026.56 252.172 1025.27 253.382L1019.34 258.943C1014.75 263.242 1017.79 270.934 1024.08 270.934H1045.07V272C1045.07 280.247 1051.75 286.933 1060 286.933C1068.25 286.933 1074.93 280.247 1074.93 272V270.934H1095.92C1102.21 270.934 1105.25 263.242 1100.67 258.943L1094.74 253.382C1093.44 252.172 1092.71 250.482 1092.71 248.713V229.334C1092.71 209.791 1078.53 193.068 1060 193.068ZM1035.82 229.334C1035.82 213.531 1047.11 201.601 1060 201.601C1072.9 201.601 1084.18 213.531 1084.18 229.334V248.713C1084.18 252.841 1085.89 256.785 1088.9 259.608L1091.88 262.401H1028.12L1031.1 259.608C1034.12 256.785 1035.82 252.841 1035.82 248.713V229.334ZM1066.4 270.934H1053.6V272C1053.6 275.535 1056.46 278.4 1060 278.4C1063.53 278.4 1066.4 275.535 1066.4 272V270.934Z" fill="#333333"/>
<rect x="1155.5" y="175.5" width="161" height="161" stroke="#B6B6F9"/>
<path fill-rule="evenodd" clip-rule="evenodd" d="M1236 197.335C1212.84 197.335 1195.11 218.239 1195.11 242.668V266.892C1195.11 269.103 1194.2 271.215 1192.58 272.728L1185.17 279.679C1179.44 285.052 1183.24 294.668 1191.1 294.668H1217.33V296C1217.33 306.309 1225.69 314.667 1236 314.667C1246.31 314.667 1254.66 306.309 1254.66 296V294.668H1280.9C1288.76 294.668 1292.56 285.052 1286.83 279.679L1279.42 272.728C1277.8 271.215 1276.89 269.103 1276.89 266.892V242.668C1276.89 218.239 1259.16 197.335 1236 197.335ZM1205.78 242.668C1205.78 222.914 1219.88 208.001 1236 208.001C1252.12 208.001 1266.22 222.914 1266.22 242.668V266.892C1266.22 272.051 1268.36 276.981 1272.12 280.51L1275.85 284.001H1196.15L1199.88 280.51C1203.64 276.981 1205.78 272.051 1205.78 266.892V242.668ZM1244 294.668H1228V296C1228 300.418 1231.58 304 1236 304C1240.42 304 1244 300.418 1244 296V294.668Z" fill="#333333"/>
<path d="M259.943 138.545V156H257.83V140.761H257.727L253.466 143.591V141.443L257.83 138.545H259.943ZM270.759 156.239C270.043 156.227 269.327 156.091 268.611 155.83C267.895 155.568 267.241 155.128 266.651 154.509C266.06 153.884 265.585 153.04 265.227 151.977C264.869 150.909 264.69 149.568 264.69 147.955C264.69 146.409 264.835 145.04 265.125 143.847C265.415 142.648 265.835 141.639 266.386 140.821C266.938 139.997 267.602 139.372 268.381 138.946C269.165 138.52 270.048 138.307 271.031 138.307C272.009 138.307 272.878 138.503 273.639 138.895C274.406 139.281 275.031 139.821 275.514 140.514C275.997 141.207 276.31 142.006 276.452 142.909H274.372C274.179 142.125 273.804 141.474 273.247 140.957C272.69 140.44 271.952 140.182 271.031 140.182C269.679 140.182 268.614 140.77 267.835 141.946C267.063 143.122 266.673 144.773 266.668 146.898H266.804C267.122 146.415 267.5 146.003 267.938 145.662C268.381 145.315 268.869 145.048 269.403 144.861C269.938 144.673 270.503 144.58 271.099 144.58C272.099 144.58 273.014 144.83 273.844 145.33C274.673 145.824 275.338 146.509 275.838 147.384C276.338 148.253 276.588 149.25 276.588 150.375C276.588 151.455 276.347 152.443 275.864 153.341C275.381 154.233 274.702 154.943 273.827 155.472C272.957 155.994 271.935 156.25 270.759 156.239ZM270.759 154.364C271.474 154.364 272.116 154.185 272.685 153.827C273.259 153.469 273.71 152.989 274.04 152.386C274.375 151.784 274.543 151.114 274.543 150.375C274.543 149.653 274.381 148.997 274.057 148.406C273.739 147.81 273.298 147.335 272.736 146.983C272.179 146.631 271.543 146.455 270.827 146.455C270.287 146.455 269.784 146.562 269.318 146.778C268.852 146.989 268.443 147.278 268.091 147.648C267.744 148.017 267.472 148.44 267.273 148.918C267.074 149.389 266.974 149.886 266.974 150.409C266.974 151.102 267.136 151.75 267.46 152.352C267.79 152.955 268.239 153.44 268.807 153.81C269.381 154.179 270.031 154.364 270.759 154.364Z" fill="#6D6DF3"/>
<path d="M317.807 156V154.466L323.568 148.159C324.244 147.42 324.801 146.778 325.239 146.233C325.676 145.682 326 145.165 326.21 144.682C326.426 144.193 326.534 143.682 326.534 143.148C326.534 142.534 326.386 142.003 326.091 141.554C325.801 141.105 325.403 140.759 324.898 140.514C324.392 140.27 323.824 140.148 323.193 140.148C322.523 140.148 321.938 140.287 321.438 140.565C320.943 140.838 320.56 141.222 320.287 141.716C320.02 142.21 319.886 142.79 319.886 143.455H317.875C317.875 142.432 318.111 141.534 318.582 140.761C319.054 139.989 319.696 139.386 320.509 138.955C321.327 138.523 322.244 138.307 323.261 138.307C324.284 138.307 325.19 138.523 325.98 138.955C326.77 139.386 327.389 139.969 327.838 140.702C328.287 141.435 328.511 142.25 328.511 143.148C328.511 143.79 328.395 144.418 328.162 145.031C327.935 145.639 327.537 146.318 326.969 147.068C326.406 147.812 325.625 148.722 324.625 149.795L320.705 153.989V154.125H328.818V156H317.807ZM338.031 156.239C336.747 156.239 335.653 155.889 334.75 155.19C333.847 154.486 333.156 153.466 332.679 152.131C332.202 150.79 331.963 149.17 331.963 147.273C331.963 145.386 332.202 143.776 332.679 142.44C333.162 141.099 333.855 140.077 334.759 139.372C335.668 138.662 336.759 138.307 338.031 138.307C339.304 138.307 340.392 138.662 341.295 139.372C342.205 140.077 342.898 141.099 343.375 142.44C343.858 143.776 344.099 145.386 344.099 147.273C344.099 149.17 343.861 150.79 343.384 152.131C342.906 153.466 342.216 154.486 341.312 155.19C340.409 155.889 339.315 156.239 338.031 156.239ZM338.031 154.364C339.304 154.364 340.293 153.75 340.997 152.523C341.702 151.295 342.054 149.545 342.054 147.273C342.054 145.761 341.892 144.474 341.568 143.412C341.25 142.349 340.79 141.54 340.188 140.983C339.591 140.426 338.872 140.148 338.031 140.148C336.77 140.148 335.784 140.77 335.074 142.014C334.364 143.253 334.009 145.006 334.009 147.273C334.009 148.784 334.168 150.068 334.486 151.125C334.804 152.182 335.261 152.986 335.858 153.537C336.46 154.088 337.185 154.364 338.031 154.364Z" fill="#6D6DF3"/>
<path d="M389.807 156V154.466L395.568 148.159C396.244 147.42 396.801 146.778 397.239 146.233C397.676 145.682 398 145.165 398.21 144.682C398.426 144.193 398.534 143.682 398.534 143.148C398.534 142.534 398.386 142.003 398.091 141.554C397.801 141.105 397.403 140.759 396.898 140.514C396.392 140.27 395.824 140.148 395.193 140.148C394.523 140.148 393.938 140.287 393.438 140.565C392.943 140.838 392.56 141.222 392.287 141.716C392.02 142.21 391.886 142.79 391.886 143.455H389.875C389.875 142.432 390.111 141.534 390.582 140.761C391.054 139.989 391.696 139.386 392.509 138.955C393.327 138.523 394.244 138.307 395.261 138.307C396.284 138.307 397.19 138.523 397.98 138.955C398.77 139.386 399.389 139.969 399.838 140.702C400.287 141.435 400.511 142.25 400.511 143.148C400.511 143.79 400.395 144.418 400.162 145.031C399.935 145.639 399.537 146.318 398.969 147.068C398.406 147.812 397.625 148.722 396.625 149.795L392.705 153.989V154.125H400.818V156H389.807ZM403.554 152.42V150.682L411.224 138.545H412.486V141.239H411.634L405.838 150.409V150.545H416.168V152.42H403.554ZM411.77 156V151.892V151.082V138.545H413.781V156H411.77Z" fill="#6D6DF3"/>
<path d="M203.943 138.545V156H201.83V140.761H201.727L197.466 143.591V141.443L201.83 138.545H203.943ZM208.963 156V154.466L214.724 148.159C215.401 147.42 215.957 146.778 216.395 146.233C216.832 145.682 217.156 145.165 217.366 144.682C217.582 144.193 217.69 143.682 217.69 143.148C217.69 142.534 217.543 142.003 217.247 141.554C216.957 141.105 216.56 140.759 216.054 140.514C215.548 140.27 214.98 140.148 214.349 140.148C213.679 140.148 213.094 140.287 212.594 140.565C212.099 140.838 211.716 141.222 211.443 141.716C211.176 142.21 211.043 142.79 211.043 143.455H209.031C209.031 142.432 209.267 141.534 209.739 140.761C210.21 139.989 210.852 139.386 211.665 138.955C212.483 138.523 213.401 138.307 214.418 138.307C215.44 138.307 216.347 138.523 217.136 138.955C217.926 139.386 218.545 139.969 218.994 140.702C219.443 141.435 219.668 142.25 219.668 143.148C219.668 143.79 219.551 144.418 219.318 145.031C219.091 145.639 218.693 146.318 218.125 147.068C217.562 147.812 216.781 148.722 215.781 149.795L211.861 153.989V154.125H219.974V156H208.963Z" fill="#6D6DF3"/>
<path d="M469.807 156V154.466L475.568 148.159C476.244 147.42 476.801 146.778 477.239 146.233C477.676 145.682 478 145.165 478.21 144.682C478.426 144.193 478.534 143.682 478.534 143.148C478.534 142.534 478.386 142.003 478.091 141.554C477.801 141.105 477.403 140.759 476.898 140.514C476.392 140.27 475.824 140.148 475.193 140.148C474.523 140.148 473.938 140.287 473.438 140.565C472.943 140.838 472.56 141.222 472.287 141.716C472.02 142.21 471.886 142.79 471.886 143.455H469.875C469.875 142.432 470.111 141.534 470.582 140.761C471.054 139.989 471.696 139.386 472.509 138.955C473.327 138.523 474.244 138.307 475.261 138.307C476.284 138.307 477.19 138.523 477.98 138.955C478.77 139.386 479.389 139.969 479.838 140.702C480.287 141.435 480.511 142.25 480.511 143.148C480.511 143.79 480.395 144.418 480.162 145.031C479.935 145.639 479.537 146.318 478.969 147.068C478.406 147.812 477.625 148.722 476.625 149.795L472.705 153.989V154.125H480.818V156H469.807ZM489.929 156.239C488.759 156.239 487.724 156.031 486.827 155.616C485.935 155.196 485.239 154.619 484.739 153.886C484.239 153.148 483.991 152.307 483.997 151.364C483.991 150.625 484.136 149.943 484.432 149.318C484.727 148.687 485.131 148.162 485.642 147.741C486.159 147.315 486.736 147.045 487.372 146.932V146.83C486.537 146.614 485.872 146.145 485.378 145.423C484.884 144.696 484.639 143.869 484.645 142.943C484.639 142.057 484.864 141.264 485.318 140.565C485.773 139.866 486.398 139.315 487.193 138.912C487.994 138.509 488.906 138.307 489.929 138.307C490.94 138.307 491.844 138.509 492.639 138.912C493.435 139.315 494.06 139.866 494.514 140.565C494.974 141.264 495.207 142.057 495.213 142.943C495.207 143.869 494.955 144.696 494.455 145.423C493.96 146.145 493.304 146.614 492.486 146.83V146.932C493.116 147.045 493.685 147.315 494.19 147.741C494.696 148.162 495.099 148.687 495.401 149.318C495.702 149.943 495.855 150.625 495.861 151.364C495.855 152.307 495.599 153.148 495.094 153.886C494.594 154.619 493.898 155.196 493.006 155.616C492.119 156.031 491.094 156.239 489.929 156.239ZM489.929 154.364C490.719 154.364 491.401 154.236 491.974 153.98C492.548 153.724 492.991 153.364 493.304 152.898C493.616 152.432 493.776 151.886 493.781 151.261C493.776 150.602 493.605 150.02 493.27 149.514C492.935 149.009 492.477 148.611 491.898 148.321C491.324 148.031 490.668 147.886 489.929 147.886C489.185 147.886 488.52 148.031 487.935 148.321C487.355 148.611 486.898 149.009 486.562 149.514C486.233 150.02 486.071 150.602 486.077 151.261C486.071 151.886 486.222 152.432 486.528 152.898C486.841 153.364 487.287 153.724 487.866 153.98C488.446 154.236 489.134 154.364 489.929 154.364ZM489.929 146.08C490.554 146.08 491.108 145.955 491.591 145.705C492.08 145.455 492.463 145.105 492.741 144.656C493.02 144.207 493.162 143.682 493.168 143.08C493.162 142.489 493.023 141.974 492.75 141.537C492.477 141.094 492.099 140.753 491.616 140.514C491.134 140.27 490.571 140.148 489.929 140.148C489.276 140.148 488.705 140.27 488.216 140.514C487.727 140.753 487.349 141.094 487.082 141.537C486.815 141.974 486.685 142.489 486.69 143.08C486.685 143.682 486.818 144.207 487.091 144.656C487.369 145.105 487.753 145.455 488.241 145.705C488.73 145.955 489.293 146.08 489.929 146.08Z" fill="#6D6DF3"/>
<path d="M563.705 156.239C562.58 156.239 561.577 156.045 560.696 155.659C559.821 155.273 559.125 154.736 558.608 154.048C558.097 153.355 557.818 152.551 557.773 151.636H559.92C559.966 152.199 560.159 152.685 560.5 153.094C560.841 153.497 561.287 153.81 561.838 154.031C562.389 154.253 563 154.364 563.67 154.364C564.42 154.364 565.085 154.233 565.665 153.972C566.244 153.71 566.699 153.347 567.028 152.881C567.358 152.415 567.523 151.875 567.523 151.261C567.523 150.619 567.364 150.054 567.045 149.565C566.727 149.071 566.261 148.685 565.648 148.406C565.034 148.128 564.284 147.989 563.398 147.989H562V146.114H563.398C564.091 146.114 564.699 145.989 565.222 145.739C565.75 145.489 566.162 145.136 566.457 144.682C566.759 144.227 566.909 143.693 566.909 143.08C566.909 142.489 566.778 141.974 566.517 141.537C566.256 141.099 565.886 140.759 565.409 140.514C564.938 140.27 564.381 140.148 563.739 140.148C563.136 140.148 562.568 140.259 562.034 140.48C561.506 140.696 561.074 141.011 560.739 141.426C560.403 141.835 560.222 142.33 560.193 142.909H558.148C558.182 141.994 558.457 141.193 558.974 140.506C559.491 139.812 560.168 139.273 561.003 138.886C561.844 138.5 562.767 138.307 563.773 138.307C564.852 138.307 565.778 138.526 566.551 138.963C567.324 139.395 567.918 139.966 568.332 140.676C568.747 141.386 568.955 142.153 568.955 142.977C568.955 143.96 568.696 144.798 568.179 145.491C567.668 146.185 566.972 146.665 566.091 146.932V147.068C567.193 147.25 568.054 147.719 568.673 148.474C569.293 149.224 569.602 150.153 569.602 151.261C569.602 152.21 569.344 153.062 568.827 153.818C568.315 154.568 567.616 155.159 566.73 155.591C565.844 156.023 564.835 156.239 563.705 156.239ZM573.088 156V154.466L578.849 148.159C579.526 147.42 580.082 146.778 580.52 146.233C580.957 145.682 581.281 145.165 581.491 144.682C581.707 144.193 581.815 143.682 581.815 143.148C581.815 142.534 581.668 142.003 581.372 141.554C581.082 141.105 580.685 140.759 580.179 140.514C579.673 140.27 579.105 140.148 578.474 140.148C577.804 140.148 577.219 140.287 576.719 140.565C576.224 140.838 575.841 141.222 575.568 141.716C575.301 142.21 575.168 142.79 575.168 143.455H573.156C573.156 142.432 573.392 141.534 573.864 140.761C574.335 139.989 574.977 139.386 575.79 138.955C576.608 138.523 577.526 138.307 578.543 138.307C579.565 138.307 580.472 138.523 581.261 138.955C582.051 139.386 582.67 139.969 583.119 140.702C583.568 141.435 583.793 142.25 583.793 143.148C583.793 143.79 583.676 144.418 583.443 145.031C583.216 145.639 582.818 146.318 582.25 147.068C581.688 147.812 580.906 148.722 579.906 149.795L575.986 153.989V154.125H584.099V156H573.088Z" fill="#6D6DF3"/>
<path d="M659.705 156.239C658.58 156.239 657.577 156.045 656.696 155.659C655.821 155.273 655.125 154.736 654.608 154.048C654.097 153.355 653.818 152.551 653.773 151.636H655.92C655.966 152.199 656.159 152.685 656.5 153.094C656.841 153.497 657.287 153.81 657.838 154.031C658.389 154.253 659 154.364 659.67 154.364C660.42 154.364 661.085 154.233 661.665 153.972C662.244 153.71 662.699 153.347 663.028 152.881C663.358 152.415 663.523 151.875 663.523 151.261C663.523 150.619 663.364 150.054 663.045 149.565C662.727 149.071 662.261 148.685 661.648 148.406C661.034 148.128 660.284 147.989 659.398 147.989H658V146.114H659.398C660.091 146.114 660.699 145.989 661.222 145.739C661.75 145.489 662.162 145.136 662.457 144.682C662.759 144.227 662.909 143.693 662.909 143.08C662.909 142.489 662.778 141.974 662.517 141.537C662.256 141.099 661.886 140.759 661.409 140.514C660.938 140.27 660.381 140.148 659.739 140.148C659.136 140.148 658.568 140.259 658.034 140.48C657.506 140.696 657.074 141.011 656.739 141.426C656.403 141.835 656.222 142.33 656.193 142.909H654.148C654.182 141.994 654.457 141.193 654.974 140.506C655.491 139.812 656.168 139.273 657.003 138.886C657.844 138.5 658.767 138.307 659.773 138.307C660.852 138.307 661.778 138.526 662.551 138.963C663.324 139.395 663.918 139.966 664.332 140.676C664.747 141.386 664.955 142.153 664.955 142.977C664.955 143.96 664.696 144.798 664.179 145.491C663.668 146.185 662.972 146.665 662.091 146.932V147.068C663.193 147.25 664.054 147.719 664.673 148.474C665.293 149.224 665.602 150.153 665.602 151.261C665.602 152.21 665.344 153.062 664.827 153.818C664.315 154.568 663.616 155.159 662.73 155.591C661.844 156.023 660.835 156.239 659.705 156.239ZM674.884 156.239C674.168 156.227 673.452 156.091 672.736 155.83C672.02 155.568 671.366 155.128 670.776 154.509C670.185 153.884 669.71 153.04 669.352 151.977C668.994 150.909 668.815 149.568 668.815 147.955C668.815 146.409 668.96 145.04 669.25 143.847C669.54 142.648 669.96 141.639 670.511 140.821C671.063 139.997 671.727 139.372 672.506 138.946C673.29 138.52 674.173 138.307 675.156 138.307C676.134 138.307 677.003 138.503 677.764 138.895C678.531 139.281 679.156 139.821 679.639 140.514C680.122 141.207 680.435 142.006 680.577 142.909H678.497C678.304 142.125 677.929 141.474 677.372 140.957C676.815 140.44 676.077 140.182 675.156 140.182C673.804 140.182 672.739 140.77 671.96 141.946C671.188 143.122 670.798 144.773 670.793 146.898H670.929C671.247 146.415 671.625 146.003 672.062 145.662C672.506 145.315 672.994 145.048 673.528 144.861C674.063 144.673 674.628 144.58 675.224 144.58C676.224 144.58 677.139 144.83 677.969 145.33C678.798 145.824 679.463 146.509 679.963 147.384C680.463 148.253 680.713 149.25 680.713 150.375C680.713 151.455 680.472 152.443 679.989 153.341C679.506 154.233 678.827 154.943 677.952 155.472C677.082 155.994 676.06 156.25 674.884 156.239ZM674.884 154.364C675.599 154.364 676.241 154.185 676.81 153.827C677.384 153.469 677.835 152.989 678.165 152.386C678.5 151.784 678.668 151.114 678.668 150.375C678.668 149.653 678.506 148.997 678.182 148.406C677.864 147.81 677.423 147.335 676.861 146.983C676.304 146.631 675.668 146.455 674.952 146.455C674.412 146.455 673.909 146.562 673.443 146.778C672.977 146.989 672.568 147.278 672.216 147.648C671.869 148.017 671.597 148.44 671.398 148.918C671.199 149.389 671.099 149.886 671.099 150.409C671.099 151.102 671.261 151.75 671.585 152.352C671.915 152.955 672.364 153.44 672.932 153.81C673.506 154.179 674.156 154.364 674.884 154.364Z" fill="#6D6DF3"/>
<path d="M757.398 152.42V150.682L765.068 138.545H766.33V141.239H765.477L759.682 150.409V150.545H770.011V152.42H757.398ZM765.614 156V151.892V151.082V138.545H767.625V156H765.614ZM778.898 156.239C777.614 156.239 776.521 155.889 775.617 155.19C774.714 154.486 774.023 153.466 773.546 152.131C773.069 150.79 772.83 149.17 772.83 147.273C772.83 145.386 773.069 143.776 773.546 142.44C774.029 141.099 774.722 140.077 775.626 139.372C776.535 138.662 777.626 138.307 778.898 138.307C780.171 138.307 781.259 138.662 782.163 139.372C783.072 140.077 783.765 141.099 784.242 142.44C784.725 143.776 784.967 145.386 784.967 147.273C784.967 149.17 784.728 150.79 784.251 152.131C783.773 153.466 783.083 154.486 782.18 155.19C781.276 155.889 780.183 156.239 778.898 156.239ZM778.898 154.364C780.171 154.364 781.16 153.75 781.864 152.523C782.569 151.295 782.921 149.545 782.921 147.273C782.921 145.761 782.759 144.474 782.435 143.412C782.117 142.349 781.657 141.54 781.055 140.983C780.458 140.426 779.739 140.148 778.898 140.148C777.637 140.148 776.651 140.77 775.941 142.014C775.231 143.253 774.876 145.006 774.876 147.273C774.876 148.784 775.035 150.068 775.353 151.125C775.671 152.182 776.129 152.986 776.725 153.537C777.327 154.088 778.052 154.364 778.898 154.364Z" fill="#6D6DF3"/>
<path d="M869.398 152.42V150.682L877.068 138.545H878.33V141.239H877.477L871.682 150.409V150.545H882.011V152.42H869.398ZM877.614 156V151.892V151.082V138.545H879.625V156H877.614ZM890.796 156.239C889.626 156.239 888.592 156.031 887.694 155.616C886.802 155.196 886.106 154.619 885.606 153.886C885.106 153.148 884.859 152.307 884.864 151.364C884.859 150.625 885.004 149.943 885.299 149.318C885.594 148.687 885.998 148.162 886.509 147.741C887.026 147.315 887.603 147.045 888.239 146.932V146.83C887.404 146.614 886.739 146.145 886.245 145.423C885.751 144.696 885.506 143.869 885.512 142.943C885.506 142.057 885.731 141.264 886.185 140.565C886.64 139.866 887.265 139.315 888.06 138.912C888.862 138.509 889.773 138.307 890.796 138.307C891.808 138.307 892.711 138.509 893.506 138.912C894.302 139.315 894.927 139.866 895.381 140.565C895.842 141.264 896.075 142.057 896.08 142.943C896.075 143.869 895.822 144.696 895.322 145.423C894.827 146.145 894.171 146.614 893.353 146.83V146.932C893.984 147.045 894.552 147.315 895.058 147.741C895.563 148.162 895.967 148.687 896.268 149.318C896.569 149.943 896.722 150.625 896.728 151.364C896.722 152.307 896.467 153.148 895.961 153.886C895.461 154.619 894.765 155.196 893.873 155.616C892.987 156.031 891.961 156.239 890.796 156.239ZM890.796 154.364C891.586 154.364 892.268 154.236 892.842 153.98C893.415 153.724 893.859 153.364 894.171 152.898C894.484 152.432 894.643 151.886 894.648 151.261C894.643 150.602 894.472 150.02 894.137 149.514C893.802 149.009 893.344 148.611 892.765 148.321C892.191 148.031 891.535 147.886 890.796 147.886C890.052 147.886 889.387 148.031 888.802 148.321C888.222 148.611 887.765 149.009 887.43 149.514C887.1 150.02 886.938 150.602 886.944 151.261C886.938 151.886 887.089 152.432 887.396 152.898C887.708 153.364 888.154 153.724 888.734 153.98C889.313 154.236 890.001 154.364 890.796 154.364ZM890.796 146.08C891.421 146.08 891.975 145.955 892.458 145.705C892.947 145.455 893.33 145.105 893.609 144.656C893.887 144.207 894.029 143.682 894.035 143.08C894.029 142.489 893.89 141.974 893.617 141.537C893.344 141.094 892.967 140.753 892.484 140.514C892.001 140.27 891.438 140.148 890.796 140.148C890.143 140.148 889.572 140.27 889.083 140.514C888.594 140.753 888.217 141.094 887.95 141.537C887.683 141.974 887.552 142.489 887.558 143.08C887.552 143.682 887.685 144.207 887.958 144.656C888.237 145.105 888.62 145.455 889.109 145.705C889.597 145.955 890.16 146.08 890.796 146.08Z" fill="#6D6DF3"/>
<path d="M1003.6 156.239C1002.89 156.227 1002.17 156.091 1001.45 155.83C1000.74 155.568 1000.09 155.128 999.494 154.509C998.903 153.884 998.429 153.04 998.071 151.977C997.713 150.909 997.534 149.568 997.534 147.955C997.534 146.409 997.679 145.04 997.969 143.847C998.259 142.648 998.679 141.639 999.23 140.821C999.781 139.997 1000.45 139.372 1001.22 138.946C1002.01 138.52 1002.89 138.307 1003.88 138.307C1004.85 138.307 1005.72 138.503 1006.48 138.895C1007.25 139.281 1007.88 139.821 1008.36 140.514C1008.84 141.207 1009.15 142.006 1009.3 142.909H1007.22C1007.02 142.125 1006.65 141.474 1006.09 140.957C1005.53 140.44 1004.8 140.182 1003.88 140.182C1002.52 140.182 1001.46 140.77 1000.68 141.946C999.906 143.122 999.517 144.773 999.511 146.898H999.648C999.966 146.415 1000.34 146.003 1000.78 145.662C1001.22 145.315 1001.71 145.048 1002.25 144.861C1002.78 144.673 1003.35 144.58 1003.94 144.58C1004.94 144.58 1005.86 144.83 1006.69 145.33C1007.52 145.824 1008.18 146.509 1008.68 147.384C1009.18 148.253 1009.43 149.25 1009.43 150.375C1009.43 151.455 1009.19 152.443 1008.71 153.341C1008.22 154.233 1007.55 154.943 1006.67 155.472C1005.8 155.994 1004.78 156.25 1003.6 156.239ZM1003.6 154.364C1004.32 154.364 1004.96 154.185 1005.53 153.827C1006.1 153.469 1006.55 152.989 1006.88 152.386C1007.22 151.784 1007.39 151.114 1007.39 150.375C1007.39 149.653 1007.22 148.997 1006.9 148.406C1006.58 147.81 1006.14 147.335 1005.58 146.983C1005.02 146.631 1004.39 146.455 1003.67 146.455C1003.13 146.455 1002.63 146.562 1002.16 146.778C1001.7 146.989 1001.29 147.278 1000.93 147.648C1000.59 148.017 1000.32 148.44 1000.12 148.918C999.918 149.389 999.818 149.886 999.818 150.409C999.818 151.102 999.98 151.75 1000.3 152.352C1000.63 152.955 1001.08 153.44 1001.65 153.81C1002.22 154.179 1002.88 154.364 1003.6 154.364ZM1012.37 152.42V150.682L1020.04 138.545H1021.31V141.239H1020.45L1014.66 150.409V150.545H1024.99V152.42H1012.37ZM1020.59 156V151.892V151.082V138.545H1022.6V156H1020.59Z" fill="#6D6DF3"/>
<path d="M1163.4 156.239C1162.23 156.239 1161.19 156.031 1160.3 155.616C1159.4 155.196 1158.71 154.619 1158.21 153.886C1157.71 153.148 1157.46 152.307 1157.47 151.364C1157.46 150.625 1157.61 149.943 1157.9 149.318C1158.2 148.687 1158.6 148.162 1159.11 147.741C1159.63 147.315 1160.2 147.045 1160.84 146.932V146.83C1160.01 146.614 1159.34 146.145 1158.85 145.423C1158.35 144.696 1158.11 143.869 1158.11 142.943C1158.11 142.057 1158.33 141.264 1158.79 140.565C1159.24 139.866 1159.87 139.315 1160.66 138.912C1161.46 138.509 1162.38 138.307 1163.4 138.307C1164.41 138.307 1165.31 138.509 1166.11 138.912C1166.9 139.315 1167.53 139.866 1167.98 140.565C1168.44 141.264 1168.68 142.057 1168.68 142.943C1168.68 143.869 1168.42 144.696 1167.92 145.423C1167.43 146.145 1166.77 146.614 1165.95 146.83V146.932C1166.59 147.045 1167.15 147.315 1167.66 147.741C1168.16 148.162 1168.57 148.687 1168.87 149.318C1169.17 149.943 1169.32 150.625 1169.33 151.364C1169.32 152.307 1169.07 153.148 1168.56 153.886C1168.06 154.619 1167.37 155.196 1166.47 155.616C1165.59 156.031 1164.56 156.239 1163.4 156.239ZM1163.4 154.364C1164.19 154.364 1164.87 154.236 1165.44 153.98C1166.02 153.724 1166.46 153.364 1166.77 152.898C1167.09 152.432 1167.24 151.886 1167.25 151.261C1167.24 150.602 1167.07 150.02 1166.74 149.514C1166.4 149.009 1165.95 148.611 1165.37 148.321C1164.79 148.031 1164.14 147.886 1163.4 147.886C1162.65 147.886 1161.99 148.031 1161.4 148.321C1160.82 148.611 1160.37 149.009 1160.03 149.514C1159.7 150.02 1159.54 150.602 1159.55 151.261C1159.54 151.886 1159.69 152.432 1160 152.898C1160.31 153.364 1160.76 153.724 1161.34 153.98C1161.91 154.236 1162.6 154.364 1163.4 154.364ZM1163.4 146.08C1164.02 146.08 1164.58 145.955 1165.06 145.705C1165.55 145.455 1165.93 145.105 1166.21 144.656C1166.49 144.207 1166.63 143.682 1166.64 143.08C1166.63 142.489 1166.49 141.974 1166.22 141.537C1165.95 141.094 1165.57 140.753 1165.09 140.514C1164.6 140.27 1164.04 140.148 1163.4 140.148C1162.74 140.148 1162.17 140.27 1161.68 140.514C1161.2 140.753 1160.82 141.094 1160.55 141.537C1160.28 141.974 1160.15 142.489 1160.16 143.08C1160.15 143.682 1160.29 144.207 1160.56 144.656C1160.84 145.105 1161.22 145.455 1161.71 145.705C1162.2 145.955 1162.76 146.08 1163.4 146.08ZM1178.29 156.239C1177 156.239 1175.91 155.889 1175.01 155.19C1174.1 154.486 1173.41 153.466 1172.94 152.131C1172.46 150.79 1172.22 149.17 1172.22 147.273C1172.22 145.386 1172.46 143.776 1172.94 142.44C1173.42 141.099 1174.11 140.077 1175.02 139.372C1175.93 138.662 1177.02 138.307 1178.29 138.307C1179.56 138.307 1180.65 138.662 1181.55 139.372C1182.46 140.077 1183.16 141.099 1183.63 142.44C1184.12 143.776 1184.36 145.386 1184.36 147.273C1184.36 149.17 1184.12 150.79 1183.64 152.131C1183.16 153.466 1182.47 154.486 1181.57 155.19C1180.67 155.889 1179.57 156.239 1178.29 156.239ZM1178.29 154.364C1179.56 154.364 1180.55 153.75 1181.25 152.523C1181.96 151.295 1182.31 149.545 1182.31 147.273C1182.31 145.761 1182.15 144.474 1181.83 143.412C1181.51 142.349 1181.05 141.54 1180.45 140.983C1179.85 140.426 1179.13 140.148 1178.29 140.148C1177.03 140.148 1176.04 140.77 1175.33 142.014C1174.62 143.253 1174.27 145.006 1174.27 147.273C1174.27 148.784 1174.43 150.068 1174.74 151.125C1175.06 152.182 1175.52 152.986 1176.12 153.537C1176.72 154.088 1177.44 154.364 1178.29 154.364Z" fill="#6D6DF3"/>
<path d="M352.138 396H346.488V378.545H352.317C354.028 378.545 355.496 378.895 356.724 379.594C357.951 380.287 358.891 381.284 359.545 382.585C360.204 383.881 360.533 385.435 360.533 387.247C360.533 389.065 360.201 390.628 359.536 391.935C358.877 393.241 357.923 394.247 356.673 394.952C355.423 395.651 353.911 396 352.138 396ZM349.121 393.699H351.994C353.323 393.699 354.428 393.449 355.309 392.949C356.19 392.443 356.849 391.713 357.286 390.759C357.724 389.798 357.942 388.628 357.942 387.247C357.942 385.878 357.724 384.716 357.286 383.761C356.854 382.807 356.21 382.082 355.352 381.588C354.494 381.094 353.428 380.847 352.156 380.847H349.121V393.699ZM369.246 396.264C367.956 396.264 366.845 395.989 365.913 395.438C364.987 394.881 364.271 394.099 363.766 393.094C363.266 392.082 363.016 390.898 363.016 389.54C363.016 388.199 363.266 387.017 363.766 385.994C364.271 384.972 364.976 384.173 365.879 383.599C366.788 383.026 367.851 382.739 369.067 382.739C369.805 382.739 370.521 382.861 371.214 383.105C371.908 383.349 372.53 383.733 373.081 384.256C373.632 384.778 374.067 385.457 374.385 386.293C374.703 387.122 374.862 388.131 374.862 389.318V390.222H364.456V388.312H372.365C372.365 387.642 372.229 387.048 371.956 386.531C371.683 386.009 371.3 385.597 370.805 385.295C370.317 384.994 369.743 384.844 369.084 384.844C368.368 384.844 367.743 385.02 367.209 385.372C366.68 385.719 366.271 386.173 365.982 386.736C365.697 387.293 365.555 387.898 365.555 388.551V390.043C365.555 390.918 365.709 391.662 366.016 392.276C366.328 392.889 366.763 393.358 367.32 393.682C367.876 394 368.527 394.159 369.271 394.159C369.754 394.159 370.195 394.091 370.592 393.955C370.99 393.812 371.334 393.602 371.624 393.324C371.913 393.045 372.135 392.702 372.288 392.293L374.7 392.727C374.507 393.437 374.161 394.06 373.661 394.594C373.166 395.122 372.544 395.534 371.794 395.83C371.05 396.119 370.2 396.264 369.246 396.264ZM383.92 382.909V384.955H376.522V382.909H383.92ZM378.55 396V381.392C378.55 380.574 378.729 379.895 379.087 379.355C379.445 378.81 379.92 378.403 380.511 378.136C381.102 377.864 381.744 377.727 382.437 377.727C382.948 377.727 383.386 377.77 383.749 377.855C384.113 377.935 384.383 378.009 384.559 378.077L383.962 380.139C383.843 380.105 383.69 380.065 383.502 380.02C383.315 379.969 383.087 379.943 382.82 379.943C382.201 379.943 381.758 380.097 381.491 380.403C381.229 380.71 381.099 381.153 381.099 381.733V396H378.55ZM389.96 396.29C389.131 396.29 388.381 396.136 387.71 395.83C387.04 395.517 386.509 395.065 386.116 394.474C385.73 393.884 385.537 393.159 385.537 392.301C385.537 391.562 385.679 390.955 385.963 390.477C386.247 390 386.631 389.622 387.114 389.344C387.597 389.065 388.136 388.855 388.733 388.713C389.33 388.571 389.938 388.463 390.557 388.389C391.341 388.298 391.977 388.224 392.466 388.168C392.955 388.105 393.31 388.006 393.531 387.869C393.753 387.733 393.864 387.511 393.864 387.205V387.145C393.864 386.401 393.653 385.824 393.233 385.415C392.818 385.006 392.199 384.801 391.375 384.801C390.517 384.801 389.841 384.991 389.347 385.372C388.858 385.747 388.52 386.165 388.332 386.625L385.938 386.08C386.222 385.284 386.636 384.642 387.182 384.153C387.733 383.659 388.366 383.301 389.082 383.08C389.798 382.852 390.551 382.739 391.341 382.739C391.864 382.739 392.418 382.801 393.003 382.926C393.594 383.045 394.145 383.267 394.656 383.591C395.173 383.915 395.597 384.378 395.926 384.98C396.256 385.577 396.42 386.352 396.42 387.307V396H393.932V394.21H393.83C393.665 394.54 393.418 394.864 393.088 395.182C392.759 395.5 392.335 395.764 391.818 395.974C391.301 396.185 390.682 396.29 389.96 396.29ZM390.514 394.244C391.219 394.244 391.821 394.105 392.321 393.827C392.827 393.548 393.21 393.185 393.472 392.736C393.739 392.281 393.872 391.795 393.872 391.278V389.591C393.781 389.682 393.605 389.767 393.344 389.847C393.088 389.92 392.795 389.986 392.466 390.043C392.136 390.094 391.815 390.142 391.503 390.188C391.19 390.227 390.929 390.261 390.719 390.29C390.224 390.352 389.773 390.457 389.364 390.605C388.96 390.753 388.636 390.966 388.392 391.244C388.153 391.517 388.034 391.881 388.034 392.335C388.034 392.966 388.267 393.443 388.733 393.767C389.199 394.085 389.793 394.244 390.514 394.244ZM408.107 390.571V382.909H410.664V396H408.158V393.733H408.022C407.721 394.432 407.238 395.014 406.573 395.48C405.914 395.94 405.093 396.17 404.11 396.17C403.269 396.17 402.525 395.986 401.877 395.616C401.235 395.241 400.729 394.688 400.36 393.955C399.996 393.222 399.815 392.315 399.815 391.236V382.909H402.363V390.929C402.363 391.821 402.61 392.531 403.104 393.06C403.599 393.588 404.241 393.852 405.031 393.852C405.508 393.852 405.982 393.733 406.454 393.494C406.931 393.256 407.326 392.895 407.638 392.412C407.957 391.929 408.113 391.315 408.107 390.571ZM416.636 378.545V396H414.088V378.545H416.636ZM426.175 382.909V384.955H419.025V382.909H426.175ZM420.942 379.773H423.491V392.156C423.491 392.651 423.565 393.023 423.712 393.273C423.86 393.517 424.05 393.685 424.283 393.776C424.522 393.861 424.781 393.903 425.059 393.903C425.263 393.903 425.442 393.889 425.596 393.861C425.749 393.832 425.869 393.81 425.954 393.793L426.414 395.898C426.266 395.955 426.056 396.011 425.783 396.068C425.511 396.131 425.17 396.165 424.761 396.17C424.09 396.182 423.465 396.062 422.886 395.812C422.306 395.562 421.837 395.176 421.479 394.653C421.121 394.131 420.942 393.474 420.942 392.685V379.773ZM445.156 386.105L442.846 386.514C442.749 386.219 442.596 385.937 442.386 385.67C442.181 385.403 441.903 385.185 441.55 385.014C441.198 384.844 440.758 384.759 440.229 384.759C439.508 384.759 438.906 384.92 438.423 385.244C437.94 385.562 437.698 385.974 437.698 386.48C437.698 386.918 437.86 387.27 438.184 387.537C438.508 387.804 439.031 388.023 439.752 388.193L441.832 388.67C443.036 388.949 443.934 389.378 444.525 389.957C445.116 390.537 445.411 391.29 445.411 392.216C445.411 393 445.184 393.699 444.729 394.312C444.281 394.92 443.653 395.398 442.846 395.744C442.045 396.091 441.116 396.264 440.059 396.264C438.593 396.264 437.397 395.952 436.471 395.327C435.545 394.696 434.977 393.801 434.766 392.642L437.229 392.267C437.383 392.909 437.698 393.395 438.175 393.724C438.653 394.048 439.275 394.21 440.042 394.21C440.877 394.21 441.545 394.037 442.045 393.69C442.545 393.338 442.795 392.909 442.795 392.403C442.795 391.994 442.641 391.651 442.335 391.372C442.033 391.094 441.57 390.884 440.945 390.741L438.729 390.256C437.508 389.977 436.604 389.534 436.019 388.926C435.44 388.318 435.15 387.548 435.15 386.616C435.15 385.844 435.366 385.168 435.798 384.588C436.229 384.009 436.826 383.557 437.587 383.233C438.349 382.903 439.221 382.739 440.204 382.739C441.619 382.739 442.732 383.045 443.545 383.659C444.357 384.267 444.894 385.082 445.156 386.105ZM448.213 396V382.909H450.761V396H448.213ZM449.5 380.889C449.057 380.889 448.676 380.741 448.358 380.446C448.045 380.145 447.889 379.787 447.889 379.372C447.889 378.952 448.045 378.594 448.358 378.298C448.676 377.997 449.057 377.847 449.5 377.847C449.943 377.847 450.321 377.997 450.634 378.298C450.952 378.594 451.111 378.952 451.111 379.372C451.111 379.787 450.952 380.145 450.634 380.446C450.321 380.741 449.943 380.889 449.5 380.889ZM453.917 396V394.253L461.008 385.244V385.125H454.147V382.909H464.187V384.767L457.369 393.665V393.784H464.425V396H453.917ZM472.699 396.264C471.409 396.264 470.298 395.989 469.366 395.438C468.44 394.881 467.724 394.099 467.219 393.094C466.719 392.082 466.469 390.898 466.469 389.54C466.469 388.199 466.719 387.017 467.219 385.994C467.724 384.972 468.429 384.173 469.332 383.599C470.241 383.026 471.304 382.739 472.52 382.739C473.259 382.739 473.974 382.861 474.668 383.105C475.361 383.349 475.983 383.733 476.534 384.256C477.085 384.778 477.52 385.457 477.838 386.293C478.156 387.122 478.315 388.131 478.315 389.318V390.222H467.909V388.312H475.818C475.818 387.642 475.682 387.048 475.409 386.531C475.136 386.009 474.753 385.597 474.259 385.295C473.77 384.994 473.196 384.844 472.537 384.844C471.821 384.844 471.196 385.02 470.662 385.372C470.134 385.719 469.724 386.173 469.435 386.736C469.151 387.293 469.009 387.898 469.009 388.551V390.043C469.009 390.918 469.162 391.662 469.469 392.276C469.781 392.889 470.216 393.358 470.773 393.682C471.33 394 471.98 394.159 472.724 394.159C473.207 394.159 473.648 394.091 474.045 393.955C474.443 393.812 474.787 393.602 475.077 393.324C475.366 393.045 475.588 392.702 475.741 392.293L478.153 392.727C477.96 393.437 477.614 394.06 477.114 394.594C476.619 395.122 475.997 395.534 475.247 395.83C474.503 396.119 473.653 396.264 472.699 396.264Z" fill="#333333"/>
<path d="M413 256C413 255.448 412.552 255 412 255C411.448 255 411 255.448 411 256H412H413ZM411.293 348.707C411.683 349.098 412.317 349.098 412.707 348.707L419.071 342.343C419.462 341.953 419.462 341.319 419.071 340.929C418.681 340.538 418.047 340.538 417.657 340.929L412 346.586L406.343 340.929C405.953 340.538 405.319 340.538 404.929 340.929C404.538 341.319 404.538 341.953 404.929 342.343L411.293 348.707ZM412 256H411V348H412H413V256H412Z" fill="#4D4D4D"/>
</svg>
