<svg width="1512" height="480" viewBox="0 0 1512 480" fill="none" xmlns="http://www.w3.org/2000/svg">
<rect width="756" height="240" transform="scale(2)" fill="#F6F6F6"/>
<path d="M1496 0C1504.84 0 1512 7.16344 1512 16V464C1512 472.837 1504.84 480 1496 480H16C7.16346 480 0 472.837 0 464V16C7.21566e-06 7.16345 7.16345 0 16 0H1496Z" fill="#FAFAFA"/>
<path d="M1496 0C1504.84 0 1512 7.16344 1512 16V464C1512 472.837 1504.84 480 1496 480H16C7.16346 480 0 472.837 0 464V16C7.21566e-06 7.16345 7.16345 0 16 0H1496Z" stroke="#E5E5E5"/>
<rect x="422" y="208" width="110" height="18" transform="rotate(-90 422 208)" fill="#B6B6F9"/>
<g clip-path="url(#clip0_15283_30948)">
<g opacity="0.6">
<path d="M224.332 116V364" stroke="#DADAFC"/>
<path d="M234.664 116V364" stroke="#DADAFC"/>
<path d="M245 116V364" stroke="#DADAFC"/>
<path d="M255.332 116V364" stroke="#DADAFC"/>
<path d="M265.664 116V364" stroke="#DADAFC"/>
<path d="M276 116V364" stroke="#DADAFC"/>
<path d="M286.332 116V364" stroke="#DADAFC"/>
<path d="M296.664 116V364" stroke="#DADAFC"/>
<path d="M307 116V364" stroke="#DADAFC"/>
<path d="M317.332 116V364" stroke="#DADAFC"/>
<path d="M327.664 116V364" stroke="#DADAFC"/>
<path d="M338 116V364" stroke="#DADAFC"/>
<path d="M348.332 116V364" stroke="#DADAFC"/>
<path d="M358.664 116V364" stroke="#DADAFC"/>
<path d="M369 116V364" stroke="#DADAFC"/>
<path d="M379.332 116V364" stroke="#DADAFC"/>
<path d="M389.664 116V364" stroke="#DADAFC"/>
<path d="M400 116V364" stroke="#DADAFC"/>
<path d="M410.332 116V364" stroke="#DADAFC"/>
<path d="M420.664 116V364" stroke="#DADAFC"/>
<path d="M431 116V364" stroke="#DADAFC"/>
<path d="M441.332 116V364" stroke="#DADAFC"/>
<path d="M451.664 116V364" stroke="#DADAFC"/>
</g>
<g opacity="0.6">
<path d="M214 353.667L462 353.667" stroke="#DADAFC"/>
<path d="M214 343.333L462 343.333" stroke="#DADAFC"/>
<path d="M214 333L462 333" stroke="#DADAFC"/>
<path d="M214 322.667L462 322.667" stroke="#DADAFC"/>
<path d="M214 312.333L462 312.333" stroke="#DADAFC"/>
<path d="M214 302L462 302" stroke="#DADAFC"/>
<path d="M214 291.667L462 291.667" stroke="#DADAFC"/>
<path d="M214 281.333L462 281.333" stroke="#DADAFC"/>
<path d="M214 271L462 271" stroke="#DADAFC"/>
<path d="M214 260.667L462 260.667" stroke="#DADAFC"/>
<path d="M214 250.333L462 250.333" stroke="#DADAFC"/>
<path d="M214 240L462 240" stroke="#DADAFC"/>
<path d="M214 229.667L462 229.667" stroke="#DADAFC"/>
<path d="M214 219.333L462 219.333" stroke="#DADAFC"/>
<path d="M214 209L462 209" stroke="#DADAFC"/>
<path d="M214 198.667L462 198.667" stroke="#DADAFC"/>
<path d="M214 188.333L462 188.333" stroke="#DADAFC"/>
<path d="M214 178L462 178" stroke="#DADAFC"/>
<path d="M214 167.667L462 167.667" stroke="#DADAFC"/>
<path d="M214 157.333L462 157.333" stroke="#DADAFC"/>
<path d="M214 147L462 147" stroke="#DADAFC"/>
<path d="M214 136.667L462 136.667" stroke="#DADAFC"/>
<path d="M214 126.333L462 126.333" stroke="#DADAFC"/>
</g>
</g>
<rect x="213.5" y="115.5" width="249" height="249" stroke="#DADAFC"/>
<path fill-rule="evenodd" clip-rule="evenodd" d="M338.001 200.735C313.461 200.735 293.568 220.629 293.568 245.169C293.568 269.709 313.461 289.602 338.001 289.602C362.541 289.602 382.434 269.709 382.434 245.169C382.434 220.629 362.541 200.735 338.001 200.735ZM310.101 245.169C310.101 229.76 322.592 217.269 338.001 217.269C353.41 217.269 365.901 229.76 365.901 245.169C365.901 260.577 353.41 273.069 338.001 273.069C322.592 273.069 310.101 260.577 310.101 245.169Z" fill="#333333"/>
<path fill-rule="evenodd" clip-rule="evenodd" d="M316.681 159.402C308.094 159.402 299.951 163.216 294.454 169.813L277.296 190.402H265.668C249.688 190.402 236.734 203.356 236.734 219.335V291.669C236.734 307.648 249.688 320.602 265.668 320.602H410.334C426.314 320.602 439.268 307.648 439.268 291.669V219.335C439.268 203.356 426.314 190.402 410.334 190.402H398.706L381.548 169.813C376.051 163.216 367.908 159.402 359.321 159.402H316.681ZM307.155 180.397C309.511 177.57 313.001 175.935 316.681 175.935H359.321C363.001 175.935 366.491 177.57 368.847 180.397L386.935 202.102C389.487 205.165 393.268 206.935 397.254 206.935H410.334C417.183 206.935 422.734 212.487 422.734 219.335V291.669C422.734 298.517 417.183 304.069 410.334 304.069H265.668C258.819 304.069 253.268 298.517 253.268 291.669V219.335C253.268 212.487 258.819 206.935 265.668 206.935H278.748C282.735 206.935 286.515 205.165 289.068 202.102L307.155 180.397Z" fill="#333333"/>
<rect x="422" y="190" width="58" height="18" fill="#B6B6F9"/>
<g clip-path="url(#clip1_15283_30948)">
<g opacity="0.6">
<path d="M642.332 116V364" stroke="#DADAFC"/>
<path d="M652.664 116V364" stroke="#DADAFC"/>
<path d="M663 116V364" stroke="#DADAFC"/>
<path d="M673.332 116V364" stroke="#DADAFC"/>
<path d="M683.664 116V364" stroke="#DADAFC"/>
<path d="M694 116V364" stroke="#DADAFC"/>
<path d="M704.332 116V364" stroke="#DADAFC"/>
<path d="M714.664 116V364" stroke="#DADAFC"/>
<path d="M725 116V364" stroke="#DADAFC"/>
<path d="M735.332 116V364" stroke="#DADAFC"/>
<path d="M745.664 116V364" stroke="#DADAFC"/>
<path d="M756 116V364" stroke="#DADAFC"/>
<path d="M766.332 116V364" stroke="#DADAFC"/>
<path d="M776.664 116V364" stroke="#DADAFC"/>
<path d="M787 116V364" stroke="#DADAFC"/>
<path d="M797.332 116V364" stroke="#DADAFC"/>
<path d="M807.664 116V364" stroke="#DADAFC"/>
<path d="M818 116V364" stroke="#DADAFC"/>
<path d="M828.332 116V364" stroke="#DADAFC"/>
<path d="M838.664 116V364" stroke="#DADAFC"/>
<path d="M849 116V364" stroke="#DADAFC"/>
<path d="M859.332 116V364" stroke="#DADAFC"/>
<path d="M869.664 116V364" stroke="#DADAFC"/>
</g>
<g opacity="0.6">
<path d="M632 353.667L880 353.667" stroke="#DADAFC"/>
<path d="M632 343.333L880 343.333" stroke="#DADAFC"/>
<path d="M632 333L880 333" stroke="#DADAFC"/>
<path d="M632 322.667L880 322.667" stroke="#DADAFC"/>
<path d="M632 312.333L880 312.333" stroke="#DADAFC"/>
<path d="M632 302L880 302" stroke="#DADAFC"/>
<path d="M632 291.667L880 291.667" stroke="#DADAFC"/>
<path d="M632 281.333L880 281.333" stroke="#DADAFC"/>
<path d="M632 271L880 271" stroke="#DADAFC"/>
<path d="M632 260.667L880 260.667" stroke="#DADAFC"/>
<path d="M632 250.333L880 250.333" stroke="#DADAFC"/>
<path d="M632 240L880 240" stroke="#DADAFC"/>
<path d="M632 229.667L880 229.667" stroke="#DADAFC"/>
<path d="M632 219.333L880 219.333" stroke="#DADAFC"/>
<path d="M632 209L880 209" stroke="#DADAFC"/>
<path d="M632 198.667L880 198.667" stroke="#DADAFC"/>
<path d="M632 188.333L880 188.333" stroke="#DADAFC"/>
<path d="M632 178L880 178" stroke="#DADAFC"/>
<path d="M632 167.667L880 167.667" stroke="#DADAFC"/>
<path d="M632 157.333L880 157.333" stroke="#DADAFC"/>
<path d="M632 147L880 147" stroke="#DADAFC"/>
<path d="M632 136.667L880 136.667" stroke="#DADAFC"/>
<path d="M632 126.333L880 126.333" stroke="#DADAFC"/>
</g>
</g>
<rect x="631.5" y="115.5" width="249" height="249" stroke="#DADAFC"/>
<path d="M1299.16 354L1060.53 115.005L1073 115.005L1083.16 115.005L1299.15 331V342L1299.16 354Z" fill="#B6B6F9"/>
<g clip-path="url(#clip2_15283_30948)">
<g opacity="0.6">
<path d="M1060.33 116V364" stroke="#DADAFC"/>
<path d="M1070.66 116V364" stroke="#DADAFC"/>
<path d="M1081 116V364" stroke="#DADAFC"/>
<path d="M1091.33 116V364" stroke="#DADAFC"/>
<path d="M1101.66 116V364" stroke="#DADAFC"/>
<path d="M1112 116V364" stroke="#DADAFC"/>
<path d="M1122.33 116V364" stroke="#DADAFC"/>
<path d="M1132.66 116V364" stroke="#DADAFC"/>
<path d="M1143 116V364" stroke="#DADAFC"/>
<path d="M1153.33 116V364" stroke="#DADAFC"/>
<path d="M1163.66 116V364" stroke="#DADAFC"/>
<path d="M1174 116V364" stroke="#DADAFC"/>
<path d="M1184.33 116V364" stroke="#DADAFC"/>
<path d="M1194.66 116V364" stroke="#DADAFC"/>
<path d="M1205 116V364" stroke="#DADAFC"/>
<path d="M1215.33 116V364" stroke="#DADAFC"/>
<path d="M1225.66 116V364" stroke="#DADAFC"/>
<path d="M1236 116V364" stroke="#DADAFC"/>
<path d="M1246.33 116V364" stroke="#DADAFC"/>
<path d="M1256.66 116V364" stroke="#DADAFC"/>
<path d="M1267 116V364" stroke="#DADAFC"/>
<path d="M1277.33 116V364" stroke="#DADAFC"/>
<path d="M1287.66 116V364" stroke="#DADAFC"/>
</g>
<g opacity="0.6">
<path d="M1050 353.667L1298 353.667" stroke="#DADAFC"/>
<path d="M1050 343.333L1298 343.333" stroke="#DADAFC"/>
<path d="M1050 333L1298 333" stroke="#DADAFC"/>
<path d="M1050 322.667L1298 322.667" stroke="#DADAFC"/>
<path d="M1050 312.333L1298 312.333" stroke="#DADAFC"/>
<path d="M1050 302L1298 302" stroke="#DADAFC"/>
<path d="M1050 291.667L1298 291.667" stroke="#DADAFC"/>
<path d="M1050 281.333L1298 281.333" stroke="#DADAFC"/>
<path d="M1050 271L1298 271" stroke="#DADAFC"/>
<path d="M1050 260.667L1298 260.667" stroke="#DADAFC"/>
<path d="M1050 250.333L1298 250.333" stroke="#DADAFC"/>
<path d="M1050 240L1298 240" stroke="#DADAFC"/>
<path d="M1050 229.667L1298 229.667" stroke="#DADAFC"/>
<path d="M1050 219.333L1298 219.333" stroke="#DADAFC"/>
<path d="M1050 209L1298 209" stroke="#DADAFC"/>
<path d="M1050 198.667L1298 198.667" stroke="#DADAFC"/>
<path d="M1050 188.333L1298 188.333" stroke="#DADAFC"/>
<path d="M1050 178L1298 178" stroke="#DADAFC"/>
<path d="M1050 167.667L1298 167.667" stroke="#DADAFC"/>
<path d="M1050 157.333L1298 157.333" stroke="#DADAFC"/>
<path d="M1050 147L1298 147" stroke="#DADAFC"/>
<path d="M1050 136.667L1298 136.667" stroke="#DADAFC"/>
<path d="M1050 126.333L1298 126.333" stroke="#DADAFC"/>
</g>
</g>
<rect x="1049.5" y="115.5" width="249" height="249" stroke="#DADAFC"/>
<path fill-rule="evenodd" clip-rule="evenodd" d="M704.336 155.269C697.487 155.269 691.936 160.82 691.936 167.669V291.669C691.936 298.517 697.487 304.069 704.336 304.069H743.749C744.872 309.894 746.772 315.442 749.336 320.602H704.336C688.356 320.602 675.402 307.648 675.402 291.669V167.669C675.402 151.689 688.356 138.735 704.336 138.735H766.336C768.528 138.735 770.631 139.606 772.181 141.157L818.107 187.083C819.657 188.633 820.528 190.735 820.528 192.928V227.839C816.371 227.006 812.071 226.569 807.669 226.569C806.436 226.569 805.211 226.603 803.995 226.671V201.195H770.928C763.826 201.195 758.069 195.437 758.069 188.335V155.269H704.336ZM774.602 166.96L792.304 184.661H774.602V166.96Z" fill="#333333"/>
<path fill-rule="evenodd" clip-rule="evenodd" d="M807.667 343.333C836.202 343.333 859.334 320.201 859.334 291.667C859.334 263.132 836.202 240 807.667 240C779.132 240 756 263.132 756 291.667C756 320.201 779.132 343.333 807.667 343.333ZM815.416 265.833C815.416 261.553 811.946 258.083 807.666 258.083C803.386 258.083 799.916 261.553 799.916 265.833V283.915H781.834C777.553 283.915 774.084 287.385 774.084 291.665C774.084 295.946 777.553 299.415 781.834 299.415H799.916V317.5C799.916 321.78 803.386 325.25 807.666 325.25C811.946 325.25 815.416 321.78 815.416 317.5V299.415H833.5C837.781 299.415 841.25 295.946 841.25 291.665C841.25 287.385 837.781 283.915 833.5 283.915H815.416V265.833Z" fill="#333333"/>
<path d="M1213.31 246.203C1213.62 244.182 1213.79 242.109 1213.79 239.999V177.999C1213.79 156.027 1195.98 138.216 1174 138.216C1155.37 138.216 1139.74 151.019 1135.41 168.306L1213.31 246.203Z" fill="#333333"/>
<path d="M1204.91 283.326L1195.23 273.65C1189.09 277.534 1181.81 279.782 1174 279.782C1152.03 279.782 1134.22 261.971 1134.22 239.999V212.637L1095.46 173.876C1092.03 170.446 1092.03 164.885 1095.46 161.455C1098.89 158.025 1104.45 158.025 1107.88 161.455L1217.33 270.905C1223.56 262.193 1227.22 251.524 1227.22 239.999V229.666C1227.22 224.815 1231.15 220.882 1236 220.882C1240.85 220.882 1244.79 224.815 1244.79 229.666V239.999C1244.79 256.38 1239.22 271.461 1229.88 283.455L1252.55 306.122C1255.98 309.552 1255.98 315.113 1252.55 318.543C1249.12 321.973 1243.56 321.973 1240.13 318.543L1217.46 295.877C1207.64 303.522 1195.76 308.637 1182.79 310.243V332.999C1182.79 337.85 1178.85 341.782 1174 341.782C1169.15 341.782 1165.22 337.85 1165.22 332.999V310.243C1130.27 305.917 1103.22 276.117 1103.22 239.999V229.666C1103.22 224.815 1107.15 220.882 1112 220.882C1116.85 220.882 1120.79 224.815 1120.79 229.666V239.999C1120.79 269.39 1144.61 293.216 1174 293.216C1185.53 293.216 1196.2 289.552 1204.91 283.326Z" fill="#333333"/>
<circle cx="807.602" cy="291.6" r="55.25" stroke="#B6B6F9" stroke-width="6.5"/>
<path d="M808 292L891 292" stroke="#6D6DF3" stroke-width="0.5"/>
<path d="M808 234L891 234" stroke="#6D6DF3" stroke-width="0.5"/>
<path d="M424.392 62.5455V80H422.279V64.7614H422.176L417.915 67.5909V65.4432L422.279 62.5455H424.392ZM429.881 80.1364C429.461 80.1364 429.1 79.9858 428.799 79.6847C428.498 79.3835 428.347 79.0227 428.347 78.6023C428.347 78.1818 428.498 77.821 428.799 77.5199C429.1 77.2187 429.461 77.0682 429.881 77.0682C430.301 77.0682 430.662 77.2187 430.963 77.5199C431.265 77.821 431.415 78.1818 431.415 78.6023C431.415 78.8807 431.344 79.1364 431.202 79.3693C431.066 79.6023 430.881 79.7898 430.648 79.9318C430.421 80.0682 430.165 80.1364 429.881 80.1364ZM440.176 80.2386C439.461 80.2273 438.745 80.0909 438.029 79.8295C437.313 79.5682 436.659 79.1278 436.069 78.5085C435.478 77.8835 435.003 77.0398 434.645 75.9773C434.287 74.9091 434.108 73.5682 434.108 71.9545C434.108 70.4091 434.253 69.0398 434.543 67.8466C434.833 66.6477 435.253 65.6392 435.804 64.821C436.355 63.9972 437.02 63.3722 437.799 62.946C438.583 62.5199 439.466 62.3068 440.449 62.3068C441.426 62.3068 442.296 62.5028 443.057 62.8949C443.824 63.2812 444.449 63.821 444.932 64.5142C445.415 65.2074 445.728 66.0057 445.87 66.9091H443.79C443.597 66.125 443.222 65.4744 442.665 64.9574C442.108 64.4403 441.37 64.1818 440.449 64.1818C439.097 64.1818 438.032 64.7699 437.253 65.946C436.48 67.1222 436.091 68.7727 436.086 70.8977H436.222C436.54 70.4148 436.918 70.0028 437.355 69.6619C437.799 69.3153 438.287 69.0483 438.821 68.8608C439.355 68.6733 439.921 68.5795 440.517 68.5795C441.517 68.5795 442.432 68.8295 443.262 69.3295C444.091 69.8239 444.756 70.5085 445.256 71.3835C445.756 72.2528 446.006 73.25 446.006 74.375C446.006 75.4545 445.765 76.4432 445.282 77.3409C444.799 78.233 444.12 78.9432 443.245 79.4716C442.375 79.9943 441.353 80.25 440.176 80.2386ZM440.176 78.3636C440.892 78.3636 441.534 78.1847 442.103 77.8267C442.676 77.4687 443.128 76.9886 443.458 76.3864C443.793 75.7841 443.961 75.1136 443.961 74.375C443.961 73.6534 443.799 72.9972 443.475 72.4062C443.157 71.8097 442.716 71.3352 442.154 70.983C441.597 70.6307 440.961 70.4545 440.245 70.4545C439.705 70.4545 439.202 70.5625 438.736 70.7784C438.27 70.9886 437.861 71.2784 437.509 71.6477C437.162 72.017 436.89 72.4403 436.691 72.9176C436.492 73.3892 436.392 73.8864 436.392 74.4091C436.392 75.1023 436.554 75.75 436.878 76.3523C437.208 76.9545 437.657 77.4403 438.225 77.8097C438.799 78.179 439.449 78.3636 440.176 78.3636Z" fill="#6D6DF3"/>
<path d="M500.392 188.545V206H498.279V190.761H498.176L493.915 193.591V191.443L498.279 188.545H500.392ZM505.881 206.136C505.461 206.136 505.1 205.986 504.799 205.685C504.498 205.384 504.347 205.023 504.347 204.602C504.347 204.182 504.498 203.821 504.799 203.52C505.1 203.219 505.461 203.068 505.881 203.068C506.301 203.068 506.662 203.219 506.963 203.52C507.265 203.821 507.415 204.182 507.415 204.602C507.415 204.881 507.344 205.136 507.202 205.369C507.066 205.602 506.881 205.79 506.648 205.932C506.421 206.068 506.165 206.136 505.881 206.136ZM516.176 206.239C515.461 206.227 514.745 206.091 514.029 205.83C513.313 205.568 512.659 205.128 512.069 204.509C511.478 203.884 511.003 203.04 510.645 201.977C510.287 200.909 510.108 199.568 510.108 197.955C510.108 196.409 510.253 195.04 510.543 193.847C510.833 192.648 511.253 191.639 511.804 190.821C512.355 189.997 513.02 189.372 513.799 188.946C514.583 188.52 515.466 188.307 516.449 188.307C517.426 188.307 518.296 188.503 519.057 188.895C519.824 189.281 520.449 189.821 520.932 190.514C521.415 191.207 521.728 192.006 521.87 192.909H519.79C519.597 192.125 519.222 191.474 518.665 190.957C518.108 190.44 517.37 190.182 516.449 190.182C515.097 190.182 514.032 190.77 513.253 191.946C512.48 193.122 512.091 194.773 512.086 196.898H512.222C512.54 196.415 512.918 196.003 513.355 195.662C513.799 195.315 514.287 195.048 514.821 194.861C515.355 194.673 515.921 194.58 516.517 194.58C517.517 194.58 518.432 194.83 519.262 195.33C520.091 195.824 520.756 196.509 521.256 197.384C521.756 198.253 522.006 199.25 522.006 200.375C522.006 201.455 521.765 202.443 521.282 203.341C520.799 204.233 520.12 204.943 519.245 205.472C518.375 205.994 517.353 206.25 516.176 206.239ZM516.176 204.364C516.892 204.364 517.534 204.185 518.103 203.827C518.676 203.469 519.128 202.989 519.458 202.386C519.793 201.784 519.961 201.114 519.961 200.375C519.961 199.653 519.799 198.997 519.475 198.406C519.157 197.81 518.716 197.335 518.154 196.983C517.597 196.631 516.961 196.455 516.245 196.455C515.705 196.455 515.202 196.562 514.736 196.778C514.27 196.989 513.861 197.278 513.509 197.648C513.162 198.017 512.89 198.44 512.691 198.918C512.492 199.389 512.392 199.886 512.392 200.409C512.392 201.102 512.554 201.75 512.878 202.352C513.208 202.955 513.657 203.44 514.225 203.81C514.799 204.179 515.449 204.364 516.176 204.364Z" fill="#6D6DF3"/>
<path d="M904.451 282.545V300H902.337V284.761H902.235L897.974 287.591V285.443L902.337 282.545H904.451ZM909.94 300.136C909.519 300.136 909.158 299.986 908.857 299.685C908.556 299.384 908.406 299.023 908.406 298.602C908.406 298.182 908.556 297.821 908.857 297.52C909.158 297.219 909.519 297.068 909.94 297.068C910.36 297.068 910.721 297.219 911.022 297.52C911.323 297.821 911.474 298.182 911.474 298.602C911.474 298.881 911.403 299.136 911.261 299.369C911.124 299.602 910.94 299.79 910.707 299.932C910.479 300.068 910.224 300.136 909.94 300.136ZM920.152 300.239C919.152 300.239 918.251 300.04 917.45 299.642C916.649 299.244 916.007 298.699 915.524 298.006C915.041 297.312 914.777 296.523 914.732 295.636H916.777C916.857 296.426 917.214 297.08 917.851 297.597C918.493 298.108 919.26 298.364 920.152 298.364C920.868 298.364 921.504 298.196 922.061 297.861C922.624 297.526 923.064 297.065 923.382 296.48C923.706 295.889 923.868 295.222 923.868 294.477C923.868 293.716 923.7 293.037 923.365 292.44C923.036 291.838 922.581 291.364 922.001 291.017C921.422 290.67 920.76 290.494 920.016 290.489C919.482 290.483 918.933 290.565 918.371 290.736C917.808 290.901 917.345 291.114 916.982 291.375L915.004 291.136L916.061 282.545H925.129V284.42H917.834L917.22 289.568H917.322C917.68 289.284 918.129 289.048 918.669 288.861C919.209 288.673 919.771 288.58 920.357 288.58C921.425 288.58 922.376 288.835 923.212 289.347C924.053 289.852 924.712 290.545 925.189 291.426C925.672 292.307 925.913 293.312 925.913 294.443C925.913 295.557 925.663 296.551 925.163 297.426C924.669 298.295 923.987 298.983 923.118 299.489C922.249 299.989 921.26 300.239 920.152 300.239Z" fill="#6D6DF3"/>
<path d="M904.392 226.545V244H902.279V228.761H902.176L897.915 231.591V229.443L902.279 226.545H904.392ZM909.881 244.136C909.461 244.136 909.1 243.986 908.799 243.685C908.498 243.384 908.347 243.023 908.347 242.602C908.347 242.182 908.498 241.821 908.799 241.52C909.1 241.219 909.461 241.068 909.881 241.068C910.301 241.068 910.662 241.219 910.963 241.52C911.265 241.821 911.415 242.182 911.415 242.602C911.415 242.881 911.344 243.136 911.202 243.369C911.066 243.602 910.881 243.79 910.648 243.932C910.421 244.068 910.165 244.136 909.881 244.136ZM920.176 244.239C919.461 244.227 918.745 244.091 918.029 243.83C917.313 243.568 916.659 243.128 916.069 242.509C915.478 241.884 915.003 241.04 914.645 239.977C914.287 238.909 914.108 237.568 914.108 235.955C914.108 234.409 914.253 233.04 914.543 231.847C914.833 230.648 915.253 229.639 915.804 228.821C916.355 227.997 917.02 227.372 917.799 226.946C918.583 226.52 919.466 226.307 920.449 226.307C921.426 226.307 922.296 226.503 923.057 226.895C923.824 227.281 924.449 227.821 924.932 228.514C925.415 229.207 925.728 230.006 925.87 230.909H923.79C923.597 230.125 923.222 229.474 922.665 228.957C922.108 228.44 921.37 228.182 920.449 228.182C919.097 228.182 918.032 228.77 917.253 229.946C916.48 231.122 916.091 232.773 916.086 234.898H916.222C916.54 234.415 916.918 234.003 917.355 233.662C917.799 233.315 918.287 233.048 918.821 232.861C919.355 232.673 919.921 232.58 920.517 232.58C921.517 232.58 922.432 232.83 923.262 233.33C924.091 233.824 924.756 234.509 925.256 235.384C925.756 236.253 926.006 237.25 926.006 238.375C926.006 239.455 925.765 240.443 925.282 241.341C924.799 242.233 924.12 242.943 923.245 243.472C922.375 243.994 921.353 244.25 920.176 244.239ZM920.176 242.364C920.892 242.364 921.534 242.185 922.103 241.827C922.676 241.469 923.128 240.989 923.458 240.386C923.793 239.784 923.961 239.114 923.961 238.375C923.961 237.653 923.799 236.997 923.475 236.406C923.157 235.81 922.716 235.335 922.154 234.983C921.597 234.631 920.961 234.455 920.245 234.455C919.705 234.455 919.202 234.562 918.736 234.778C918.27 234.989 917.861 235.278 917.509 235.648C917.162 236.017 916.89 236.44 916.691 236.918C916.492 237.389 916.392 237.886 916.392 238.409C916.392 239.102 916.554 239.75 916.878 240.352C917.208 240.955 917.657 241.44 918.225 241.81C918.799 242.179 919.449 242.364 920.176 242.364Z" fill="#6D6DF3"/>
<path d="M1322.39 336.545V354H1320.28V338.761H1320.18L1315.92 341.591V339.443L1320.28 336.545H1322.39ZM1327.88 354.136C1327.46 354.136 1327.1 353.986 1326.8 353.685C1326.5 353.384 1326.35 353.023 1326.35 352.602C1326.35 352.182 1326.5 351.821 1326.8 351.52C1327.1 351.219 1327.46 351.068 1327.88 351.068C1328.3 351.068 1328.66 351.219 1328.96 351.52C1329.26 351.821 1329.42 352.182 1329.42 352.602C1329.42 352.881 1329.34 353.136 1329.2 353.369C1329.07 353.602 1328.88 353.79 1328.65 353.932C1328.42 354.068 1328.17 354.136 1327.88 354.136ZM1338.18 354.239C1337.46 354.227 1336.74 354.091 1336.03 353.83C1335.31 353.568 1334.66 353.128 1334.07 352.509C1333.48 351.884 1333 351.04 1332.65 349.977C1332.29 348.909 1332.11 347.568 1332.11 345.955C1332.11 344.409 1332.25 343.04 1332.54 341.847C1332.83 340.648 1333.25 339.639 1333.8 338.821C1334.36 337.997 1335.02 337.372 1335.8 336.946C1336.58 336.52 1337.47 336.307 1338.45 336.307C1339.43 336.307 1340.3 336.503 1341.06 336.895C1341.82 337.281 1342.45 337.821 1342.93 338.514C1343.42 339.207 1343.73 340.006 1343.87 340.909H1341.79C1341.6 340.125 1341.22 339.474 1340.67 338.957C1340.11 338.44 1339.37 338.182 1338.45 338.182C1337.1 338.182 1336.03 338.77 1335.25 339.946C1334.48 341.122 1334.09 342.773 1334.09 344.898H1334.22C1334.54 344.415 1334.92 344.003 1335.36 343.662C1335.8 343.315 1336.29 343.048 1336.82 342.861C1337.36 342.673 1337.92 342.58 1338.52 342.58C1339.52 342.58 1340.43 342.83 1341.26 343.33C1342.09 343.824 1342.76 344.509 1343.26 345.384C1343.76 346.253 1344.01 347.25 1344.01 348.375C1344.01 349.455 1343.76 350.443 1343.28 351.341C1342.8 352.233 1342.12 352.943 1341.24 353.472C1340.38 353.994 1339.35 354.25 1338.18 354.239ZM1338.18 352.364C1338.89 352.364 1339.53 352.185 1340.1 351.827C1340.68 351.469 1341.13 350.989 1341.46 350.386C1341.79 349.784 1341.96 349.114 1341.96 348.375C1341.96 347.653 1341.8 346.997 1341.47 346.406C1341.16 345.81 1340.72 345.335 1340.15 344.983C1339.6 344.631 1338.96 344.455 1338.24 344.455C1337.7 344.455 1337.2 344.562 1336.74 344.778C1336.27 344.989 1335.86 345.278 1335.51 345.648C1335.16 346.017 1334.89 346.44 1334.69 346.918C1334.49 347.389 1334.39 347.886 1334.39 348.409C1334.39 349.102 1334.55 349.75 1334.88 350.352C1335.21 350.955 1335.66 351.44 1336.22 351.81C1336.8 352.179 1337.45 352.364 1338.18 352.364Z" fill="#6D6DF3"/>
<defs>
<clipPath id="clip0_15283_30948">
<rect x="214" y="116" width="248" height="248" fill="white"/>
</clipPath>
<clipPath id="clip1_15283_30948">
<rect x="632" y="116" width="248" height="248" fill="white"/>
</clipPath>
<clipPath id="clip2_15283_30948">
<rect x="1050" y="116" width="248" height="248" fill="white"/>
</clipPath>
</defs>
</svg>
