<svg width="1512" height="480" viewBox="0 0 1512 480" fill="none" xmlns="http://www.w3.org/2000/svg">
<rect width="756" height="240" transform="scale(2)" fill="#F6F6F6"/>
<path d="M1496 0C1504.84 0 1512 7.16344 1512 16V464C1512 472.837 1504.84 480 1496 480H16C7.16346 480 0 472.837 0 464V16C7.21566e-06 7.16345 7.16345 0 16 0H1496Z" fill="#FAFAFA"/>
<path d="M1496 0C1504.84 0 1512 7.16344 1512 16V464C1512 472.837 1504.84 480 1496 480H16C7.16346 480 0 472.837 0 464V16C7.21566e-06 7.16345 7.16345 0 16 0H1496Z" stroke="#E5E5E5"/>
<g clip-path="url(#clip0_15283_30844)">
<rect x="140" y="92" width="248" height="248" fill="white"/>
<g opacity="0.6">
<rect x="171" y="123" width="186" height="186" rx="5.16667" fill="#DADAFC"/>
<path d="M264 92V340" stroke="#6D6DF3" stroke-width="0.5"/>
<path d="M233 92V340" stroke="#6D6DF3" stroke-width="0.5"/>
<path d="M295 92V340" stroke="#6D6DF3" stroke-width="0.5"/>
<path d="M140 247L388 247" stroke="#6D6DF3" stroke-width="0.5"/>
<path d="M140 185L388 185" stroke="#6D6DF3" stroke-width="0.5"/>
<path d="M140 216L388 216" stroke="#6D6DF3" stroke-width="0.5"/>
<path d="M388 92L140.002 339.998" stroke="#6D6DF3" stroke-width="0.5"/>
<path d="M140 92L387.998 339.998" stroke="#6D6DF3" stroke-width="0.5"/>
<circle cx="264.003" cy="216" r="43.9167" stroke="#6D6DF3" stroke-width="0.5"/>
</g>
</g>
<rect x="139.742" y="91.7417" width="248.517" height="248.517" stroke="#B6B6F9" stroke-width="0.516667"/>
<path d="M233.926 387.131C233.835 386.324 233.46 385.699 232.801 385.256C232.142 384.807 231.312 384.582 230.312 384.582C229.596 384.582 228.977 384.696 228.454 384.923C227.931 385.145 227.525 385.452 227.235 385.844C226.951 386.23 226.809 386.67 226.809 387.165C226.809 387.58 226.906 387.937 227.099 388.239C227.298 388.54 227.556 388.793 227.875 388.997C228.199 389.196 228.545 389.364 228.914 389.5C229.284 389.631 229.639 389.739 229.98 389.824L231.684 390.267C232.241 390.403 232.812 390.588 233.397 390.821C233.983 391.054 234.525 391.361 235.025 391.741C235.525 392.122 235.929 392.594 236.235 393.156C236.548 393.719 236.704 394.392 236.704 395.176C236.704 396.165 236.449 397.043 235.937 397.81C235.431 398.577 234.696 399.182 233.73 399.625C232.77 400.068 231.608 400.29 230.244 400.29C228.937 400.29 227.806 400.082 226.852 399.668C225.897 399.253 225.15 398.665 224.61 397.903C224.071 397.136 223.772 396.227 223.716 395.176H226.358C226.409 395.807 226.613 396.332 226.971 396.753C227.335 397.168 227.798 397.477 228.36 397.682C228.929 397.881 229.551 397.98 230.227 397.98C230.971 397.98 231.633 397.864 232.213 397.631C232.798 397.392 233.258 397.062 233.593 396.642C233.929 396.216 234.096 395.719 234.096 395.151C234.096 394.634 233.949 394.21 233.653 393.881C233.363 393.551 232.968 393.278 232.468 393.062C231.974 392.847 231.414 392.656 230.789 392.491L228.727 391.929C227.329 391.548 226.221 390.989 225.403 390.25C224.591 389.511 224.184 388.534 224.184 387.318C224.184 386.312 224.457 385.435 225.002 384.685C225.548 383.935 226.287 383.352 227.218 382.938C228.15 382.517 229.201 382.307 230.372 382.307C231.554 382.307 232.596 382.514 233.5 382.929C234.409 383.344 235.125 383.915 235.647 384.642C236.17 385.364 236.443 386.193 236.466 387.131H233.926ZM248.485 404.909V397.963H248.331C248.178 398.241 247.956 398.56 247.667 398.918C247.382 399.276 246.99 399.588 246.49 399.855C245.99 400.122 245.343 400.256 244.547 400.256C243.49 400.256 242.547 399.986 241.718 399.446C240.894 398.901 240.246 398.125 239.775 397.119C239.309 396.108 239.076 394.895 239.076 393.48C239.076 392.065 239.311 390.855 239.783 389.849C240.26 388.844 240.914 388.074 241.743 387.54C242.573 387.006 243.513 386.739 244.564 386.739C245.377 386.739 246.03 386.875 246.525 387.148C247.025 387.415 247.411 387.727 247.684 388.085C247.962 388.443 248.178 388.759 248.331 389.031H248.544V386.909H251.033V404.909H248.485ZM245.11 398.082C245.843 398.082 246.462 397.889 246.968 397.503C247.479 397.111 247.865 396.568 248.127 395.875C248.394 395.182 248.527 394.375 248.527 393.455C248.527 392.545 248.397 391.75 248.135 391.068C247.874 390.386 247.49 389.855 246.985 389.474C246.479 389.094 245.854 388.903 245.11 388.903C244.343 388.903 243.703 389.102 243.192 389.5C242.681 389.898 242.294 390.44 242.033 391.128C241.777 391.815 241.65 392.591 241.65 393.455C241.65 394.33 241.78 395.116 242.042 395.815C242.303 396.514 242.689 397.068 243.201 397.477C243.718 397.881 244.354 398.082 245.11 398.082ZM262.752 394.571V386.909H265.309V400H262.803V397.733H262.667C262.365 398.432 261.882 399.014 261.218 399.48C260.559 399.94 259.738 400.17 258.755 400.17C257.914 400.17 257.169 399.986 256.522 399.616C255.88 399.241 255.374 398.688 255.005 397.955C254.641 397.222 254.459 396.315 254.459 395.236V386.909H257.007V394.929C257.007 395.821 257.255 396.531 257.749 397.06C258.243 397.588 258.885 397.852 259.675 397.852C260.152 397.852 260.627 397.733 261.098 397.494C261.576 397.256 261.971 396.895 262.283 396.412C262.601 395.929 262.757 395.315 262.752 394.571ZM272.542 400.29C271.713 400.29 270.963 400.136 270.292 399.83C269.622 399.517 269.091 399.065 268.699 398.474C268.312 397.884 268.119 397.159 268.119 396.301C268.119 395.562 268.261 394.955 268.545 394.477C268.829 394 269.213 393.622 269.696 393.344C270.179 393.065 270.718 392.855 271.315 392.713C271.912 392.571 272.52 392.463 273.139 392.389C273.923 392.298 274.559 392.224 275.048 392.168C275.537 392.105 275.892 392.006 276.113 391.869C276.335 391.733 276.446 391.511 276.446 391.205V391.145C276.446 390.401 276.235 389.824 275.815 389.415C275.4 389.006 274.781 388.801 273.957 388.801C273.099 388.801 272.423 388.991 271.929 389.372C271.44 389.747 271.102 390.165 270.914 390.625L268.52 390.08C268.804 389.284 269.218 388.642 269.764 388.153C270.315 387.659 270.949 387.301 271.664 387.08C272.38 386.852 273.133 386.739 273.923 386.739C274.446 386.739 275 386.801 275.585 386.926C276.176 387.045 276.727 387.267 277.238 387.591C277.755 387.915 278.179 388.378 278.508 388.98C278.838 389.577 279.002 390.352 279.002 391.307V400H276.514V398.21H276.412C276.247 398.54 276 398.864 275.67 399.182C275.341 399.5 274.917 399.764 274.4 399.974C273.883 400.185 273.264 400.29 272.542 400.29ZM273.096 398.244C273.801 398.244 274.403 398.105 274.903 397.827C275.409 397.548 275.792 397.185 276.054 396.736C276.321 396.281 276.454 395.795 276.454 395.278V393.591C276.363 393.682 276.187 393.767 275.926 393.847C275.67 393.92 275.377 393.986 275.048 394.043C274.718 394.094 274.397 394.142 274.085 394.188C273.772 394.227 273.511 394.261 273.301 394.29C272.806 394.352 272.355 394.457 271.946 394.605C271.542 394.753 271.218 394.966 270.974 395.244C270.735 395.517 270.616 395.881 270.616 396.335C270.616 396.966 270.849 397.443 271.315 397.767C271.781 398.085 272.375 398.244 273.096 398.244ZM282.397 400V386.909H284.86V388.989H284.996C285.235 388.284 285.655 387.73 286.257 387.327C286.865 386.918 287.553 386.713 288.32 386.713C288.479 386.713 288.667 386.719 288.882 386.73C289.104 386.741 289.277 386.756 289.402 386.773V389.21C289.3 389.182 289.118 389.151 288.857 389.116C288.596 389.077 288.334 389.057 288.073 389.057C287.471 389.057 286.934 389.185 286.462 389.44C285.996 389.69 285.627 390.04 285.354 390.489C285.081 390.932 284.945 391.437 284.945 392.006V400H282.397ZM296.781 400.264C295.491 400.264 294.38 399.989 293.449 399.438C292.522 398.881 291.806 398.099 291.301 397.094C290.801 396.082 290.551 394.898 290.551 393.54C290.551 392.199 290.801 391.017 291.301 389.994C291.806 388.972 292.511 388.173 293.414 387.599C294.324 387.026 295.386 386.739 296.602 386.739C297.341 386.739 298.056 386.861 298.75 387.105C299.443 387.349 300.065 387.733 300.616 388.256C301.167 388.778 301.602 389.457 301.92 390.293C302.238 391.122 302.397 392.131 302.397 393.318V394.222H291.991V392.312H299.9C299.9 391.642 299.764 391.048 299.491 390.531C299.218 390.009 298.835 389.597 298.341 389.295C297.852 388.994 297.278 388.844 296.619 388.844C295.903 388.844 295.278 389.02 294.744 389.372C294.216 389.719 293.806 390.173 293.517 390.736C293.233 391.293 293.091 391.898 293.091 392.551V394.043C293.091 394.918 293.244 395.662 293.551 396.276C293.863 396.889 294.298 397.358 294.855 397.682C295.412 398 296.062 398.159 296.806 398.159C297.289 398.159 297.73 398.091 298.127 397.955C298.525 397.812 298.869 397.602 299.159 397.324C299.449 397.045 299.67 396.702 299.824 396.293L302.235 396.727C302.042 397.437 301.696 398.06 301.196 398.594C300.701 399.122 300.079 399.534 299.329 399.83C298.585 400.119 297.735 400.264 296.781 400.264Z" fill="#333333"/>
<path d="M573.391 388.222H570.732C570.63 387.653 570.44 387.153 570.161 386.722C569.883 386.29 569.542 385.923 569.138 385.622C568.735 385.321 568.283 385.094 567.783 384.94C567.289 384.787 566.763 384.71 566.207 384.71C565.201 384.71 564.3 384.963 563.505 385.469C562.715 385.974 562.09 386.716 561.63 387.693C561.175 388.67 560.948 389.864 560.948 391.273C560.948 392.693 561.175 393.892 561.63 394.869C562.09 395.847 562.718 396.585 563.513 397.085C564.309 397.585 565.204 397.835 566.198 397.835C566.749 397.835 567.272 397.761 567.766 397.614C568.266 397.46 568.718 397.236 569.121 396.94C569.525 396.645 569.866 396.284 570.144 395.858C570.428 395.426 570.624 394.932 570.732 394.375L573.391 394.384C573.249 395.241 572.974 396.031 572.565 396.753C572.161 397.469 571.641 398.088 571.005 398.611C570.374 399.128 569.653 399.528 568.84 399.812C568.028 400.097 567.141 400.239 566.181 400.239C564.67 400.239 563.323 399.881 562.141 399.165C560.96 398.443 560.028 397.412 559.346 396.071C558.67 394.73 558.332 393.131 558.332 391.273C558.332 389.409 558.673 387.81 559.354 386.474C560.036 385.134 560.968 384.105 562.15 383.389C563.332 382.668 564.675 382.307 566.181 382.307C567.107 382.307 567.971 382.44 568.772 382.707C569.579 382.969 570.303 383.355 570.945 383.866C571.587 384.372 572.119 384.991 572.539 385.724C572.96 386.452 573.244 387.284 573.391 388.222ZM576.338 400V386.909H578.886V400H576.338ZM577.625 384.889C577.182 384.889 576.801 384.741 576.483 384.446C576.17 384.145 576.014 383.787 576.014 383.372C576.014 382.952 576.17 382.594 576.483 382.298C576.801 381.997 577.182 381.847 577.625 381.847C578.068 381.847 578.446 381.997 578.759 382.298C579.077 382.594 579.236 382.952 579.236 383.372C579.236 383.787 579.077 384.145 578.759 384.446C578.446 384.741 578.068 384.889 577.625 384.889ZM582.315 400V386.909H584.778V388.989H584.914C585.153 388.284 585.573 387.73 586.175 387.327C586.783 386.918 587.471 386.713 588.238 386.713C588.397 386.713 588.585 386.719 588.8 386.73C589.022 386.741 589.195 386.756 589.32 386.773V389.21C589.218 389.182 589.036 389.151 588.775 389.116C588.513 389.077 588.252 389.057 587.991 389.057C587.388 389.057 586.852 389.185 586.38 389.44C585.914 389.69 585.545 390.04 585.272 390.489C584.999 390.932 584.863 391.437 584.863 392.006V400H582.315ZM596.571 400.264C595.304 400.264 594.213 399.977 593.298 399.403C592.389 398.824 591.69 398.026 591.202 397.009C590.713 395.991 590.469 394.827 590.469 393.514C590.469 392.185 590.719 391.011 591.219 389.994C591.719 388.972 592.423 388.173 593.332 387.599C594.241 387.026 595.313 386.739 596.545 386.739C597.54 386.739 598.426 386.923 599.205 387.293C599.983 387.656 600.611 388.168 601.088 388.827C601.571 389.486 601.858 390.256 601.949 391.136H599.469C599.332 390.523 599.02 389.994 598.531 389.551C598.048 389.108 597.401 388.886 596.588 388.886C595.878 388.886 595.256 389.074 594.722 389.449C594.193 389.818 593.781 390.347 593.486 391.034C593.19 391.716 593.043 392.523 593.043 393.455C593.043 394.409 593.188 395.233 593.477 395.926C593.767 396.619 594.176 397.156 594.705 397.537C595.239 397.918 595.866 398.108 596.588 398.108C597.071 398.108 597.509 398.02 597.901 397.844C598.298 397.662 598.631 397.403 598.898 397.068C599.17 396.733 599.361 396.33 599.469 395.858H601.949C601.858 396.705 601.582 397.46 601.122 398.125C600.662 398.79 600.045 399.312 599.273 399.693C598.506 400.074 597.605 400.264 596.571 400.264ZM607.222 382.545V400H604.674V382.545H607.222ZM616.293 400.264C615.003 400.264 613.892 399.989 612.96 399.438C612.034 398.881 611.318 398.099 610.812 397.094C610.312 396.082 610.062 394.898 610.062 393.54C610.062 392.199 610.312 391.017 610.812 389.994C611.318 388.972 612.023 388.173 612.926 387.599C613.835 387.026 614.898 386.739 616.114 386.739C616.852 386.739 617.568 386.861 618.261 387.105C618.955 387.349 619.577 387.733 620.128 388.256C620.679 388.778 621.114 389.457 621.432 390.293C621.75 391.122 621.909 392.131 621.909 393.318V394.222H611.503V392.312H619.412C619.412 391.642 619.276 391.048 619.003 390.531C618.73 390.009 618.347 389.597 617.852 389.295C617.364 388.994 616.79 388.844 616.131 388.844C615.415 388.844 614.79 389.02 614.256 389.372C613.727 389.719 613.318 390.173 613.028 390.736C612.744 391.293 612.602 391.898 612.602 392.551V394.043C612.602 394.918 612.756 395.662 613.062 396.276C613.375 396.889 613.81 397.358 614.366 397.682C614.923 398 615.574 398.159 616.318 398.159C616.801 398.159 617.241 398.091 617.639 397.955C618.037 397.812 618.381 397.602 618.67 397.324C618.96 397.045 619.182 396.702 619.335 396.293L621.747 396.727C621.554 397.437 621.207 398.06 620.707 398.594C620.213 399.122 619.591 399.534 618.841 399.83C618.097 400.119 617.247 400.264 616.293 400.264Z" fill="#333333"/>
<path d="M820.275 382.545L825.133 396.761H825.329L830.187 382.545H833.034L826.752 400H823.71L817.429 382.545H820.275ZM839.679 400.264C838.39 400.264 837.279 399.989 836.347 399.438C835.421 398.881 834.705 398.099 834.199 397.094C833.699 396.082 833.449 394.898 833.449 393.54C833.449 392.199 833.699 391.017 834.199 389.994C834.705 388.972 835.409 388.173 836.313 387.599C837.222 387.026 838.284 386.739 839.5 386.739C840.239 386.739 840.955 386.861 841.648 387.105C842.341 387.349 842.963 387.733 843.515 388.256C844.066 388.778 844.5 389.457 844.819 390.293C845.137 391.122 845.296 392.131 845.296 393.318V394.222H834.89V392.312H842.799C842.799 391.642 842.662 391.048 842.39 390.531C842.117 390.009 841.733 389.597 841.239 389.295C840.75 388.994 840.176 388.844 839.517 388.844C838.801 388.844 838.176 389.02 837.642 389.372C837.114 389.719 836.705 390.173 836.415 390.736C836.131 391.293 835.989 391.898 835.989 392.551V394.043C835.989 394.918 836.142 395.662 836.449 396.276C836.762 396.889 837.196 397.358 837.753 397.682C838.31 398 838.961 398.159 839.705 398.159C840.188 398.159 840.628 398.091 841.026 397.955C841.424 397.812 841.767 397.602 842.057 397.324C842.347 397.045 842.569 396.702 842.722 396.293L845.134 396.727C844.941 397.437 844.594 398.06 844.094 398.594C843.6 399.122 842.978 399.534 842.228 399.83C841.483 400.119 840.634 400.264 839.679 400.264ZM848.123 400V386.909H850.586V388.989H850.723C850.961 388.284 851.382 387.73 851.984 387.327C852.592 386.918 853.279 386.713 854.047 386.713C854.206 386.713 854.393 386.719 854.609 386.73C854.831 386.741 855.004 386.756 855.129 386.773V389.21C855.027 389.182 854.845 389.151 854.583 389.116C854.322 389.077 854.061 389.057 853.799 389.057C853.197 389.057 852.66 389.185 852.189 389.44C851.723 389.69 851.353 390.04 851.081 390.489C850.808 390.932 850.672 391.437 850.672 392.006V400H848.123ZM864.218 386.909V388.955H857.068V386.909H864.218ZM858.985 383.773H861.534V396.156C861.534 396.651 861.608 397.023 861.755 397.273C861.903 397.517 862.093 397.685 862.326 397.776C862.565 397.861 862.824 397.903 863.102 397.903C863.306 397.903 863.485 397.889 863.639 397.861C863.792 397.832 863.912 397.81 863.997 397.793L864.457 399.898C864.309 399.955 864.099 400.011 863.826 400.068C863.554 400.131 863.213 400.165 862.804 400.17C862.133 400.182 861.508 400.062 860.929 399.812C860.349 399.562 859.88 399.176 859.522 398.653C859.164 398.131 858.985 397.474 858.985 396.685V383.773ZM867.037 400V386.909H869.586V400H867.037ZM868.324 384.889C867.881 384.889 867.5 384.741 867.182 384.446C866.87 384.145 866.713 383.787 866.713 383.372C866.713 382.952 866.87 382.594 867.182 382.298C867.5 381.997 867.881 381.847 868.324 381.847C868.767 381.847 869.145 381.997 869.458 382.298C869.776 382.594 869.935 382.952 869.935 383.372C869.935 383.787 869.776 384.145 869.458 384.446C869.145 384.741 868.767 384.889 868.324 384.889ZM878.528 400.264C877.261 400.264 876.17 399.977 875.255 399.403C874.346 398.824 873.647 398.026 873.159 397.009C872.67 395.991 872.426 394.827 872.426 393.514C872.426 392.185 872.676 391.011 873.176 389.994C873.676 388.972 874.38 388.173 875.289 387.599C876.199 387.026 877.27 386.739 878.502 386.739C879.497 386.739 880.383 386.923 881.162 387.293C881.94 387.656 882.568 388.168 883.045 388.827C883.528 389.486 883.815 390.256 883.906 391.136H881.426C881.289 390.523 880.977 389.994 880.488 389.551C880.005 389.108 879.358 388.886 878.545 388.886C877.835 388.886 877.213 389.074 876.679 389.449C876.15 389.818 875.738 390.347 875.443 391.034C875.147 391.716 875 392.523 875 393.455C875 394.409 875.145 395.233 875.434 395.926C875.724 396.619 876.133 397.156 876.662 397.537C877.196 397.918 877.824 398.108 878.545 398.108C879.028 398.108 879.466 398.02 879.858 397.844C880.255 397.662 880.588 397.403 880.855 397.068C881.127 396.733 881.318 396.33 881.426 395.858H883.906C883.815 396.705 883.539 397.46 883.079 398.125C882.619 398.79 882.002 399.312 881.23 399.693C880.463 400.074 879.562 400.264 878.528 400.264ZM890.441 400.29C889.611 400.29 888.861 400.136 888.191 399.83C887.52 399.517 886.989 399.065 886.597 398.474C886.211 397.884 886.017 397.159 886.017 396.301C886.017 395.562 886.159 394.955 886.444 394.477C886.728 394 887.111 393.622 887.594 393.344C888.077 393.065 888.617 392.855 889.213 392.713C889.81 392.571 890.418 392.463 891.037 392.389C891.821 392.298 892.458 392.224 892.946 392.168C893.435 392.105 893.79 392.006 894.012 391.869C894.233 391.733 894.344 391.511 894.344 391.205V391.145C894.344 390.401 894.134 389.824 893.713 389.415C893.299 389.006 892.679 388.801 891.855 388.801C890.998 388.801 890.321 388.991 889.827 389.372C889.338 389.747 889 390.165 888.813 390.625L886.418 390.08C886.702 389.284 887.117 388.642 887.662 388.153C888.213 387.659 888.847 387.301 889.563 387.08C890.279 386.852 891.032 386.739 891.821 386.739C892.344 386.739 892.898 386.801 893.483 386.926C894.074 387.045 894.625 387.267 895.137 387.591C895.654 387.915 896.077 388.378 896.407 388.98C896.736 389.577 896.901 390.352 896.901 391.307V400H894.412V398.21H894.31C894.145 398.54 893.898 398.864 893.569 399.182C893.239 399.5 892.816 399.764 892.299 399.974C891.782 400.185 891.162 400.29 890.441 400.29ZM890.995 398.244C891.699 398.244 892.301 398.105 892.801 397.827C893.307 397.548 893.691 397.185 893.952 396.736C894.219 396.281 894.353 395.795 894.353 395.278V393.591C894.262 393.682 894.086 393.767 893.824 393.847C893.569 393.92 893.276 393.986 892.946 394.043C892.617 394.094 892.296 394.142 891.983 394.188C891.671 394.227 891.409 394.261 891.199 394.29C890.705 394.352 890.253 394.457 889.844 394.605C889.441 394.753 889.117 394.966 888.873 395.244C888.634 395.517 888.515 395.881 888.515 396.335C888.515 396.966 888.748 397.443 889.213 397.767C889.679 398.085 890.273 398.244 890.995 398.244ZM902.843 382.545V400H900.295V382.545H902.843ZM912.623 400V386.909H915.086V388.989H915.223C915.461 388.284 915.882 387.73 916.484 387.327C917.092 386.918 917.779 386.713 918.547 386.713C918.706 386.713 918.893 386.719 919.109 386.73C919.331 386.741 919.504 386.756 919.629 386.773V389.21C919.527 389.182 919.345 389.151 919.083 389.116C918.822 389.077 918.561 389.057 918.299 389.057C917.697 389.057 917.16 389.185 916.689 389.44C916.223 389.69 915.853 390.04 915.581 390.489C915.308 390.932 915.172 391.437 915.172 392.006V400H912.623ZM927.007 400.264C925.718 400.264 924.607 399.989 923.675 399.438C922.749 398.881 922.033 398.099 921.527 397.094C921.027 396.082 920.777 394.898 920.777 393.54C920.777 392.199 921.027 391.017 921.527 389.994C922.033 388.972 922.738 388.173 923.641 387.599C924.55 387.026 925.613 386.739 926.828 386.739C927.567 386.739 928.283 386.861 928.976 387.105C929.669 387.349 930.292 387.733 930.843 388.256C931.394 388.778 931.828 389.457 932.147 390.293C932.465 391.122 932.624 392.131 932.624 393.318V394.222H922.218V392.312H930.127C930.127 391.642 929.99 391.048 929.718 390.531C929.445 390.009 929.061 389.597 928.567 389.295C928.078 388.994 927.505 388.844 926.846 388.844C926.13 388.844 925.505 389.02 924.971 389.372C924.442 389.719 924.033 390.173 923.743 390.736C923.459 391.293 923.317 391.898 923.317 392.551V394.043C923.317 394.918 923.471 395.662 923.777 396.276C924.09 396.889 924.525 397.358 925.081 397.682C925.638 398 926.289 398.159 927.033 398.159C927.516 398.159 927.956 398.091 928.354 397.955C928.752 397.812 929.096 397.602 929.385 397.324C929.675 397.045 929.897 396.702 930.05 396.293L932.462 396.727C932.269 397.437 931.922 398.06 931.422 398.594C930.928 399.122 930.306 399.534 929.556 399.83C928.811 400.119 927.962 400.264 927.007 400.264ZM940.966 400.264C939.699 400.264 938.608 399.977 937.693 399.403C936.784 398.824 936.085 398.026 935.596 397.009C935.108 395.991 934.863 394.827 934.863 393.514C934.863 392.185 935.113 391.011 935.613 389.994C936.113 388.972 936.818 388.173 937.727 387.599C938.636 387.026 939.707 386.739 940.94 386.739C941.934 386.739 942.821 386.923 943.599 387.293C944.377 387.656 945.005 388.168 945.483 388.827C945.966 389.486 946.252 390.256 946.343 391.136H943.863C943.727 390.523 943.414 389.994 942.926 389.551C942.443 389.108 941.795 388.886 940.983 388.886C940.272 388.886 939.65 389.074 939.116 389.449C938.588 389.818 938.176 390.347 937.88 391.034C937.585 391.716 937.437 392.523 937.437 393.455C937.437 394.409 937.582 395.233 937.872 395.926C938.162 396.619 938.571 397.156 939.099 397.537C939.633 397.918 940.261 398.108 940.983 398.108C941.466 398.108 941.903 398.02 942.295 397.844C942.693 397.662 943.025 397.403 943.292 397.068C943.565 396.733 943.755 396.33 943.863 395.858H946.343C946.252 396.705 945.977 397.46 945.517 398.125C945.056 398.79 944.44 399.312 943.667 399.693C942.9 400.074 942 400.264 940.966 400.264ZM955.179 386.909V388.955H948.029V386.909H955.179ZM949.946 383.773H952.495V396.156C952.495 396.651 952.569 397.023 952.716 397.273C952.864 397.517 953.054 397.685 953.287 397.776C953.526 397.861 953.784 397.903 954.063 397.903C954.267 397.903 954.446 397.889 954.6 397.861C954.753 397.832 954.873 397.81 954.958 397.793L955.418 399.898C955.27 399.955 955.06 400.011 954.787 400.068C954.515 400.131 954.174 400.165 953.765 400.17C953.094 400.182 952.469 400.062 951.89 399.812C951.31 399.562 950.841 399.176 950.483 398.653C950.125 398.131 949.946 397.474 949.946 396.685V383.773ZM961.808 400.29C960.978 400.29 960.228 400.136 959.558 399.83C958.887 399.517 958.356 399.065 957.964 398.474C957.578 397.884 957.385 397.159 957.385 396.301C957.385 395.562 957.527 394.955 957.811 394.477C958.095 394 958.478 393.622 958.961 393.344C959.444 393.065 959.984 392.855 960.581 392.713C961.177 392.571 961.785 392.463 962.404 392.389C963.189 392.298 963.825 392.224 964.314 392.168C964.802 392.105 965.157 392.006 965.379 391.869C965.6 391.733 965.711 391.511 965.711 391.205V391.145C965.711 390.401 965.501 389.824 965.081 389.415C964.666 389.006 964.047 388.801 963.223 388.801C962.365 388.801 961.689 388.991 961.194 389.372C960.706 389.747 960.368 390.165 960.18 390.625L957.785 390.08C958.069 389.284 958.484 388.642 959.029 388.153C959.581 387.659 960.214 387.301 960.93 387.08C961.646 386.852 962.399 386.739 963.189 386.739C963.711 386.739 964.265 386.801 964.85 386.926C965.441 387.045 965.993 387.267 966.504 387.591C967.021 387.915 967.444 388.378 967.774 388.98C968.103 389.577 968.268 390.352 968.268 391.307V400H965.779V398.21H965.677C965.512 398.54 965.265 398.864 964.936 399.182C964.606 399.5 964.183 399.764 963.666 399.974C963.149 400.185 962.529 400.29 961.808 400.29ZM962.362 398.244C963.066 398.244 963.669 398.105 964.169 397.827C964.674 397.548 965.058 397.185 965.319 396.736C965.586 396.281 965.72 395.795 965.72 395.278V393.591C965.629 393.682 965.453 393.767 965.191 393.847C964.936 393.92 964.643 393.986 964.314 394.043C963.984 394.094 963.663 394.142 963.35 394.188C963.038 394.227 962.777 394.261 962.566 394.29C962.072 394.352 961.62 394.457 961.211 394.605C960.808 394.753 960.484 394.966 960.24 395.244C960.001 395.517 959.882 395.881 959.882 396.335C959.882 396.966 960.115 397.443 960.581 397.767C961.047 398.085 961.64 398.244 962.362 398.244ZM974.211 392.227V400H971.662V386.909H974.108V389.04H974.27C974.571 388.347 975.043 387.79 975.685 387.369C976.333 386.949 977.148 386.739 978.131 386.739C979.023 386.739 979.804 386.926 980.475 387.301C981.145 387.67 981.665 388.222 982.034 388.955C982.404 389.687 982.588 390.594 982.588 391.673V400H980.04V391.98C980.04 391.031 979.793 390.29 979.299 389.756C978.804 389.216 978.125 388.946 977.262 388.946C976.671 388.946 976.145 389.074 975.685 389.33C975.23 389.585 974.87 389.96 974.603 390.455C974.341 390.943 974.211 391.534 974.211 392.227ZM991.495 405.182C990.455 405.182 989.56 405.045 988.81 404.773C988.066 404.5 987.458 404.139 986.986 403.69C986.515 403.241 986.162 402.75 985.929 402.216L988.12 401.312C988.273 401.562 988.478 401.827 988.733 402.105C988.995 402.389 989.347 402.631 989.79 402.83C990.239 403.028 990.816 403.128 991.52 403.128C992.486 403.128 993.284 402.892 993.915 402.42C994.546 401.955 994.861 401.21 994.861 400.188V397.614H994.699C994.546 397.892 994.324 398.202 994.034 398.543C993.75 398.884 993.358 399.179 992.858 399.429C992.358 399.679 991.708 399.804 990.907 399.804C989.873 399.804 988.941 399.562 988.111 399.08C987.287 398.591 986.634 397.872 986.151 396.923C985.674 395.969 985.435 394.795 985.435 393.403C985.435 392.011 985.671 390.818 986.142 389.824C986.62 388.83 987.273 388.068 988.103 387.54C988.932 387.006 989.873 386.739 990.924 386.739C991.736 386.739 992.392 386.875 992.892 387.148C993.392 387.415 993.782 387.727 994.06 388.085C994.344 388.443 994.563 388.759 994.716 389.031H994.904V386.909H997.401V400.29C997.401 401.415 997.14 402.338 996.617 403.06C996.094 403.781 995.387 404.315 994.495 404.662C993.608 405.009 992.608 405.182 991.495 405.182ZM991.469 397.69C992.202 397.69 992.821 397.52 993.327 397.179C993.838 396.832 994.225 396.338 994.486 395.696C994.753 395.048 994.887 394.273 994.887 393.369C994.887 392.489 994.756 391.713 994.495 391.043C994.233 390.372 993.85 389.849 993.344 389.474C992.838 389.094 992.213 388.903 991.469 388.903C990.702 388.903 990.063 389.102 989.551 389.5C989.04 389.892 988.654 390.426 988.392 391.102C988.137 391.778 988.009 392.534 988.009 393.369C988.009 394.227 988.14 394.98 988.401 395.628C988.662 396.276 989.049 396.781 989.56 397.145C990.077 397.509 990.713 397.69 991.469 397.69ZM1003.37 382.545V400H1000.82V382.545H1003.37ZM1012.44 400.264C1011.15 400.264 1010.04 399.989 1009.1 399.438C1008.18 398.881 1007.46 398.099 1006.96 397.094C1006.46 396.082 1006.21 394.898 1006.21 393.54C1006.21 392.199 1006.46 391.017 1006.96 389.994C1007.46 388.972 1008.17 388.173 1009.07 387.599C1009.98 387.026 1011.04 386.739 1012.26 386.739C1013 386.739 1013.71 386.861 1014.41 387.105C1015.1 387.349 1015.72 387.733 1016.27 388.256C1016.82 388.778 1017.26 389.457 1017.58 390.293C1017.89 391.122 1018.05 392.131 1018.05 393.318V394.222H1007.65V392.312H1015.56C1015.56 391.642 1015.42 391.048 1015.15 390.531C1014.87 390.009 1014.49 389.597 1014 389.295C1013.51 388.994 1012.93 388.844 1012.28 388.844C1011.56 388.844 1010.93 389.02 1010.4 389.372C1009.87 389.719 1009.46 390.173 1009.17 390.736C1008.89 391.293 1008.75 391.898 1008.75 392.551V394.043C1008.75 394.918 1008.9 395.662 1009.21 396.276C1009.52 396.889 1009.95 397.358 1010.51 397.682C1011.07 398 1011.72 398.159 1012.46 398.159C1012.95 398.159 1013.39 398.091 1013.78 397.955C1014.18 397.812 1014.53 397.602 1014.81 397.324C1015.1 397.045 1015.33 396.702 1015.48 396.293L1017.89 396.727C1017.7 397.437 1017.35 398.06 1016.85 398.594C1016.36 399.122 1015.74 399.534 1014.99 399.83C1014.24 400.119 1013.39 400.264 1012.44 400.264Z" fill="#333333"/>
<path d="M1132.76 400V382.545H1135.39V390.131H1144.1V382.545H1146.74V400H1144.1V392.389H1135.39V400H1132.76ZM1155.88 400.264C1154.66 400.264 1153.59 399.983 1152.67 399.42C1151.76 398.858 1151.05 398.071 1150.54 397.06C1150.03 396.048 1149.78 394.866 1149.78 393.514C1149.78 392.156 1150.03 390.969 1150.54 389.952C1151.05 388.935 1151.76 388.145 1152.67 387.582C1153.59 387.02 1154.66 386.739 1155.88 386.739C1157.11 386.739 1158.18 387.02 1159.1 387.582C1160.01 388.145 1160.72 388.935 1161.23 389.952C1161.73 390.969 1161.99 392.156 1161.99 393.514C1161.99 394.866 1161.73 396.048 1161.23 397.06C1160.72 398.071 1160.01 398.858 1159.1 399.42C1158.18 399.983 1157.11 400.264 1155.88 400.264ZM1155.89 398.125C1156.69 398.125 1157.35 397.915 1157.87 397.494C1158.39 397.074 1158.78 396.514 1159.03 395.815C1159.28 395.116 1159.41 394.347 1159.41 393.506C1159.41 392.67 1159.28 391.903 1159.03 391.205C1158.78 390.5 1158.39 389.935 1157.87 389.509C1157.35 389.082 1156.69 388.869 1155.89 388.869C1155.09 388.869 1154.43 389.082 1153.9 389.509C1153.38 389.935 1152.99 390.5 1152.73 391.205C1152.48 391.903 1152.36 392.67 1152.36 393.506C1152.36 394.347 1152.48 395.116 1152.73 395.815C1152.99 396.514 1153.38 397.074 1153.9 397.494C1154.43 397.915 1155.09 398.125 1155.89 398.125ZM1164.83 400V386.909H1167.29V388.989H1167.43C1167.67 388.284 1168.09 387.73 1168.69 387.327C1169.3 386.918 1169.99 386.713 1170.75 386.713C1170.91 386.713 1171.1 386.719 1171.32 386.73C1171.54 386.741 1171.71 386.756 1171.84 386.773V389.21C1171.73 389.182 1171.55 389.151 1171.29 389.116C1171.03 389.077 1170.77 389.057 1170.51 389.057C1169.9 389.057 1169.37 389.185 1168.9 389.44C1168.43 389.69 1168.06 390.04 1167.79 390.489C1167.51 390.932 1167.38 391.437 1167.38 392.006V400H1164.83ZM1174.04 400V386.909H1176.59V400H1174.04ZM1175.33 384.889C1174.88 384.889 1174.5 384.741 1174.19 384.446C1173.87 384.145 1173.72 383.787 1173.72 383.372C1173.72 382.952 1173.87 382.594 1174.19 382.298C1174.5 381.997 1174.88 381.847 1175.33 381.847C1175.77 381.847 1176.15 381.997 1176.46 382.298C1176.78 382.594 1176.94 382.952 1176.94 383.372C1176.94 383.787 1176.78 384.145 1176.46 384.446C1176.15 384.741 1175.77 384.889 1175.33 384.889ZM1179.75 400V398.253L1186.84 389.244V389.125H1179.98V386.909H1190.01V388.767L1183.2 397.665V397.784H1190.25V400H1179.75ZM1198.4 400.264C1197.17 400.264 1196.1 399.983 1195.19 399.42C1194.27 398.858 1193.56 398.071 1193.06 397.06C1192.55 396.048 1192.3 394.866 1192.3 393.514C1192.3 392.156 1192.55 390.969 1193.06 389.952C1193.56 388.935 1194.27 388.145 1195.19 387.582C1196.1 387.02 1197.17 386.739 1198.4 386.739C1199.63 386.739 1200.7 387.02 1201.61 387.582C1202.53 388.145 1203.24 388.935 1203.74 389.952C1204.25 390.969 1204.5 392.156 1204.5 393.514C1204.5 394.866 1204.25 396.048 1203.74 397.06C1203.24 398.071 1202.53 398.858 1201.61 399.42C1200.7 399.983 1199.63 400.264 1198.4 400.264ZM1198.41 398.125C1199.2 398.125 1199.86 397.915 1200.38 397.494C1200.91 397.074 1201.29 396.514 1201.54 395.815C1201.8 395.116 1201.93 394.347 1201.93 393.506C1201.93 392.67 1201.8 391.903 1201.54 391.205C1201.29 390.5 1200.91 389.935 1200.38 389.509C1199.86 389.082 1199.2 388.869 1198.41 388.869C1197.61 388.869 1196.94 389.082 1196.41 389.509C1195.89 389.935 1195.5 390.5 1195.25 391.205C1195 391.903 1194.87 392.67 1194.87 393.506C1194.87 394.347 1195 395.116 1195.25 395.815C1195.5 396.514 1195.89 397.074 1196.41 397.494C1196.94 397.915 1197.61 398.125 1198.41 398.125ZM1209.89 392.227V400H1207.35V386.909H1209.79V389.04H1209.95C1210.25 388.347 1210.73 387.79 1211.37 387.369C1212.02 386.949 1212.83 386.739 1213.81 386.739C1214.71 386.739 1215.49 386.926 1216.16 387.301C1216.83 387.67 1217.35 388.222 1217.72 388.955C1218.09 389.687 1218.27 390.594 1218.27 391.673V400H1215.72V391.98C1215.72 391.031 1215.48 390.29 1214.98 389.756C1214.49 389.216 1213.81 388.946 1212.95 388.946C1212.35 388.946 1211.83 389.074 1211.37 389.33C1210.91 389.585 1210.55 389.96 1210.29 390.455C1210.02 390.943 1209.89 391.534 1209.89 392.227ZM1227.8 386.909V388.955H1220.65V386.909H1227.8ZM1222.57 383.773H1225.12V396.156C1225.12 396.651 1225.19 397.023 1225.34 397.273C1225.49 397.517 1225.68 397.685 1225.91 397.776C1226.15 397.861 1226.41 397.903 1226.68 397.903C1226.89 397.903 1227.07 397.889 1227.22 397.861C1227.37 397.832 1227.49 397.81 1227.58 397.793L1228.04 399.898C1227.89 399.955 1227.68 400.011 1227.41 400.068C1227.14 400.131 1226.79 400.165 1226.39 400.17C1225.72 400.182 1225.09 400.062 1224.51 399.812C1223.93 399.562 1223.46 399.176 1223.1 398.653C1222.75 398.131 1222.57 397.474 1222.57 396.685V383.773ZM1234.43 400.29C1233.6 400.29 1232.85 400.136 1232.18 399.83C1231.51 399.517 1230.98 399.065 1230.59 398.474C1230.2 397.884 1230.01 397.159 1230.01 396.301C1230.01 395.562 1230.15 394.955 1230.43 394.477C1230.72 394 1231.1 393.622 1231.58 393.344C1232.07 393.065 1232.61 392.855 1233.2 392.713C1233.8 392.571 1234.41 392.463 1235.03 392.389C1235.81 392.298 1236.45 392.224 1236.93 392.168C1237.42 392.105 1237.78 392.006 1238 391.869C1238.22 391.733 1238.33 391.511 1238.33 391.205V391.145C1238.33 390.401 1238.12 389.824 1237.7 389.415C1237.29 389.006 1236.67 388.801 1235.84 388.801C1234.99 388.801 1234.31 388.991 1233.82 389.372C1233.33 389.747 1232.99 390.165 1232.8 390.625L1230.41 390.08C1230.69 389.284 1231.11 388.642 1231.65 388.153C1232.2 387.659 1232.84 387.301 1233.55 387.08C1234.27 386.852 1235.02 386.739 1235.81 386.739C1236.33 386.739 1236.89 386.801 1237.47 386.926C1238.06 387.045 1238.61 387.267 1239.12 387.591C1239.64 387.915 1240.07 388.378 1240.39 388.98C1240.72 389.577 1240.89 390.352 1240.89 391.307V400H1238.4V398.21H1238.3C1238.13 398.54 1237.89 398.864 1237.56 399.182C1237.23 399.5 1236.8 399.764 1236.29 399.974C1235.77 400.185 1235.15 400.29 1234.43 400.29ZM1234.98 398.244C1235.69 398.244 1236.29 398.105 1236.79 397.827C1237.3 397.548 1237.68 397.185 1237.94 396.736C1238.21 396.281 1238.34 395.795 1238.34 395.278V393.591C1238.25 393.682 1238.07 393.767 1237.81 393.847C1237.56 393.92 1237.26 393.986 1236.93 394.043C1236.61 394.094 1236.28 394.142 1235.97 394.188C1235.66 394.227 1235.4 394.261 1235.19 394.29C1234.69 394.352 1234.24 394.457 1233.83 394.605C1233.43 394.753 1233.11 394.966 1232.86 395.244C1232.62 395.517 1232.5 395.881 1232.5 396.335C1232.5 396.966 1232.74 397.443 1233.2 397.767C1233.67 398.085 1234.26 398.244 1234.98 398.244ZM1246.83 382.545V400H1244.28V382.545H1246.83ZM1256.61 400V386.909H1259.07V388.989H1259.21C1259.45 388.284 1259.87 387.73 1260.47 387.327C1261.08 386.918 1261.77 386.713 1262.53 386.713C1262.69 386.713 1262.88 386.719 1263.1 386.73C1263.32 386.741 1263.49 386.756 1263.62 386.773V389.21C1263.51 389.182 1263.33 389.151 1263.07 389.116C1262.81 389.077 1262.55 389.057 1262.29 389.057C1261.69 389.057 1261.15 389.185 1260.68 389.44C1260.21 389.69 1259.84 390.04 1259.57 390.489C1259.3 390.932 1259.16 391.437 1259.16 392.006V400H1256.61ZM1271 400.264C1269.71 400.264 1268.6 399.989 1267.66 399.438C1266.74 398.881 1266.02 398.099 1265.52 397.094C1265.02 396.082 1264.77 394.898 1264.77 393.54C1264.77 392.199 1265.02 391.017 1265.52 389.994C1266.02 388.972 1266.73 388.173 1267.63 387.599C1268.54 387.026 1269.6 386.739 1270.82 386.739C1271.56 386.739 1272.27 386.861 1272.96 387.105C1273.66 387.349 1274.28 387.733 1274.83 388.256C1275.38 388.778 1275.82 389.457 1276.13 390.293C1276.45 391.122 1276.61 392.131 1276.61 393.318V394.222H1266.21V392.312H1274.12C1274.12 391.642 1273.98 391.048 1273.71 390.531C1273.43 390.009 1273.05 389.597 1272.56 389.295C1272.07 388.994 1271.49 388.844 1270.83 388.844C1270.12 388.844 1269.49 389.02 1268.96 389.372C1268.43 389.719 1268.02 390.173 1267.73 390.736C1267.45 391.293 1267.31 391.898 1267.31 392.551V394.043C1267.31 394.918 1267.46 395.662 1267.77 396.276C1268.08 396.889 1268.51 397.358 1269.07 397.682C1269.63 398 1270.28 398.159 1271.02 398.159C1271.5 398.159 1271.94 398.091 1272.34 397.955C1272.74 397.812 1273.08 397.602 1273.37 397.324C1273.66 397.045 1273.88 396.702 1274.04 396.293L1276.45 396.727C1276.26 397.437 1275.91 398.06 1275.41 398.594C1274.92 399.122 1274.29 399.534 1273.54 399.83C1272.8 400.119 1271.95 400.264 1271 400.264ZM1284.95 400.264C1283.69 400.264 1282.6 399.977 1281.68 399.403C1280.77 398.824 1280.07 398.026 1279.58 397.009C1279.1 395.991 1278.85 394.827 1278.85 393.514C1278.85 392.185 1279.1 391.011 1279.6 389.994C1280.1 388.972 1280.81 388.173 1281.72 387.599C1282.62 387.026 1283.7 386.739 1284.93 386.739C1285.92 386.739 1286.81 386.923 1287.59 387.293C1288.37 387.656 1288.99 388.168 1289.47 388.827C1289.95 389.486 1290.24 390.256 1290.33 391.136H1287.85C1287.72 390.523 1287.4 389.994 1286.91 389.551C1286.43 389.108 1285.78 388.886 1284.97 388.886C1284.26 388.886 1283.64 389.074 1283.1 389.449C1282.58 389.818 1282.16 390.347 1281.87 391.034C1281.57 391.716 1281.43 392.523 1281.43 393.455C1281.43 394.409 1281.57 395.233 1281.86 395.926C1282.15 396.619 1282.56 397.156 1283.09 397.537C1283.62 397.918 1284.25 398.108 1284.97 398.108C1285.45 398.108 1285.89 398.02 1286.28 397.844C1286.68 397.662 1287.01 397.403 1287.28 397.068C1287.55 396.733 1287.74 396.33 1287.85 395.858H1290.33C1290.24 396.705 1289.97 397.46 1289.5 398.125C1289.04 398.79 1288.43 399.312 1287.66 399.693C1286.89 400.074 1285.99 400.264 1284.95 400.264ZM1299.17 386.909V388.955H1292.02V386.909H1299.17ZM1293.93 383.773H1296.48V396.156C1296.48 396.651 1296.56 397.023 1296.7 397.273C1296.85 397.517 1297.04 397.685 1297.28 397.776C1297.51 397.861 1297.77 397.903 1298.05 397.903C1298.26 397.903 1298.43 397.889 1298.59 397.861C1298.74 397.832 1298.86 397.81 1298.95 397.793L1299.41 399.898C1299.26 399.955 1299.05 400.011 1298.78 400.068C1298.5 400.131 1298.16 400.165 1297.75 400.17C1297.08 400.182 1296.46 400.062 1295.88 399.812C1295.3 399.562 1294.83 399.176 1294.47 398.653C1294.11 398.131 1293.93 397.474 1293.93 396.685V383.773ZM1305.8 400.29C1304.97 400.29 1304.22 400.136 1303.55 399.83C1302.88 399.517 1302.34 399.065 1301.95 398.474C1301.57 397.884 1301.37 397.159 1301.37 396.301C1301.37 395.562 1301.51 394.955 1301.8 394.477C1302.08 394 1302.47 393.622 1302.95 393.344C1303.43 393.065 1303.97 392.855 1304.57 392.713C1305.17 392.571 1305.77 392.463 1306.39 392.389C1307.18 392.298 1307.81 392.224 1308.3 392.168C1308.79 392.105 1309.15 392.006 1309.37 391.869C1309.59 391.733 1309.7 391.511 1309.7 391.205V391.145C1309.7 390.401 1309.49 389.824 1309.07 389.415C1308.65 389.006 1308.03 388.801 1307.21 388.801C1306.35 388.801 1305.68 388.991 1305.18 389.372C1304.69 389.747 1304.36 390.165 1304.17 390.625L1301.77 390.08C1302.06 389.284 1302.47 388.642 1303.02 388.153C1303.57 387.659 1304.2 387.301 1304.92 387.08C1305.63 386.852 1306.39 386.739 1307.18 386.739C1307.7 386.739 1308.25 386.801 1308.84 386.926C1309.43 387.045 1309.98 387.267 1310.49 387.591C1311.01 387.915 1311.43 388.378 1311.76 388.98C1312.09 389.577 1312.26 390.352 1312.26 391.307V400H1309.77V398.21H1309.67C1309.5 398.54 1309.25 398.864 1308.92 399.182C1308.59 399.5 1308.17 399.764 1307.65 399.974C1307.14 400.185 1306.52 400.29 1305.8 400.29ZM1306.35 398.244C1307.05 398.244 1307.66 398.105 1308.16 397.827C1308.66 397.548 1309.05 397.185 1309.31 396.736C1309.57 396.281 1309.71 395.795 1309.71 395.278V393.591C1309.62 393.682 1309.44 393.767 1309.18 393.847C1308.92 393.92 1308.63 393.986 1308.3 394.043C1307.97 394.094 1307.65 394.142 1307.34 394.188C1307.03 394.227 1306.76 394.261 1306.55 394.29C1306.06 394.352 1305.61 394.457 1305.2 394.605C1304.8 394.753 1304.47 394.966 1304.23 395.244C1303.99 395.517 1303.87 395.881 1303.87 396.335C1303.87 396.966 1304.1 397.443 1304.57 397.767C1305.03 398.085 1305.63 398.244 1306.35 398.244ZM1318.2 392.227V400H1315.65V386.909H1318.1V389.04H1318.26C1318.56 388.347 1319.03 387.79 1319.67 387.369C1320.32 386.949 1321.14 386.739 1322.12 386.739C1323.01 386.739 1323.79 386.926 1324.46 387.301C1325.13 387.67 1325.65 388.222 1326.02 388.955C1326.39 389.687 1326.58 390.594 1326.58 391.673V400H1324.03V391.98C1324.03 391.031 1323.78 390.29 1323.29 389.756C1322.79 389.216 1322.11 388.946 1321.25 388.946C1320.66 388.946 1320.13 389.074 1319.67 389.33C1319.22 389.585 1318.86 389.96 1318.59 390.455C1318.33 390.943 1318.2 391.534 1318.2 392.227ZM1335.48 405.182C1334.44 405.182 1333.55 405.045 1332.8 404.773C1332.05 404.5 1331.45 404.139 1330.97 403.69C1330.5 403.241 1330.15 402.75 1329.92 402.216L1332.11 401.312C1332.26 401.562 1332.47 401.827 1332.72 402.105C1332.98 402.389 1333.34 402.631 1333.78 402.83C1334.23 403.028 1334.8 403.128 1335.51 403.128C1336.47 403.128 1337.27 402.892 1337.9 402.42C1338.53 401.955 1338.85 401.21 1338.85 400.188V397.614H1338.69C1338.53 397.892 1338.31 398.202 1338.02 398.543C1337.74 398.884 1337.35 399.179 1336.85 399.429C1336.35 399.679 1335.7 399.804 1334.89 399.804C1333.86 399.804 1332.93 399.562 1332.1 399.08C1331.28 398.591 1330.62 397.872 1330.14 396.923C1329.66 395.969 1329.42 394.795 1329.42 393.403C1329.42 392.011 1329.66 390.818 1330.13 389.824C1330.61 388.83 1331.26 388.068 1332.09 387.54C1332.92 387.006 1333.86 386.739 1334.91 386.739C1335.72 386.739 1336.38 386.875 1336.88 387.148C1337.38 387.415 1337.77 387.727 1338.05 388.085C1338.33 388.443 1338.55 388.759 1338.7 389.031H1338.89V386.909H1341.39V400.29C1341.39 401.415 1341.13 402.338 1340.61 403.06C1340.08 403.781 1339.38 404.315 1338.48 404.662C1337.6 405.009 1336.6 405.182 1335.48 405.182ZM1335.46 397.69C1336.19 397.69 1336.81 397.52 1337.32 397.179C1337.83 396.832 1338.21 396.338 1338.47 395.696C1338.74 395.048 1338.88 394.273 1338.88 393.369C1338.88 392.489 1338.74 391.713 1338.48 391.043C1338.22 390.372 1337.84 389.849 1337.33 389.474C1336.83 389.094 1336.2 388.903 1335.46 388.903C1334.69 388.903 1334.05 389.102 1333.54 389.5C1333.03 389.892 1332.64 390.426 1332.38 391.102C1332.13 391.778 1332 392.534 1332 393.369C1332 394.227 1332.13 394.98 1332.39 395.628C1332.65 396.276 1333.04 396.781 1333.55 397.145C1334.07 397.509 1334.7 397.69 1335.46 397.69ZM1347.36 382.545V400H1344.81V382.545H1347.36ZM1356.43 400.264C1355.14 400.264 1354.02 399.989 1353.09 399.438C1352.17 398.881 1351.45 398.099 1350.95 397.094C1350.45 396.082 1350.2 394.898 1350.2 393.54C1350.2 392.199 1350.45 391.017 1350.95 389.994C1351.45 388.972 1352.16 388.173 1353.06 387.599C1353.97 387.026 1355.03 386.739 1356.25 386.739C1356.99 386.739 1357.7 386.861 1358.39 387.105C1359.09 387.349 1359.71 387.733 1360.26 388.256C1360.81 388.778 1361.25 389.457 1361.56 390.293C1361.88 391.122 1362.04 392.131 1362.04 393.318V394.222H1351.64V392.312H1359.54C1359.54 391.642 1359.41 391.048 1359.14 390.531C1358.86 390.009 1358.48 389.597 1357.99 389.295C1357.5 388.994 1356.92 388.844 1356.26 388.844C1355.55 388.844 1354.92 389.02 1354.39 389.372C1353.86 389.719 1353.45 390.173 1353.16 390.736C1352.88 391.293 1352.74 391.898 1352.74 392.551V394.043C1352.74 394.918 1352.89 395.662 1353.2 396.276C1353.51 396.889 1353.94 397.358 1354.5 397.682C1355.06 398 1355.71 398.159 1356.45 398.159C1356.93 398.159 1357.37 398.091 1357.77 397.955C1358.17 397.812 1358.51 397.602 1358.8 397.324C1359.09 397.045 1359.31 396.702 1359.47 396.293L1361.88 396.727C1361.69 397.437 1361.34 398.06 1360.84 398.594C1360.35 399.122 1359.72 399.534 1358.97 399.83C1358.23 400.119 1357.38 400.264 1356.43 400.264Z" fill="#333333"/>
<g clip-path="url(#clip1_15283_30844)">
<rect x="468" y="92" width="248" height="248" fill="white"/>
<g opacity="0.6">
<circle cx="591.997" cy="216" r="103.333" fill="#DADAFC"/>
<path d="M592 92V340" stroke="#6D6DF3" stroke-width="0.5"/>
<path d="M561 92V340" stroke="#6D6DF3" stroke-width="0.5"/>
<path d="M623 92V340" stroke="#6D6DF3" stroke-width="0.5"/>
<path d="M468 247L716 247" stroke="#6D6DF3" stroke-width="0.5"/>
<path d="M468 185L716 185" stroke="#6D6DF3" stroke-width="0.5"/>
<path d="M468 216L716 216" stroke="#6D6DF3" stroke-width="0.5"/>
<path d="M716 92L468.002 339.998" stroke="#6D6DF3" stroke-width="0.5"/>
<path d="M468 92L715.998 339.998" stroke="#6D6DF3" stroke-width="0.5"/>
<circle cx="592.003" cy="216" r="43.9167" stroke="#6D6DF3" stroke-width="0.5"/>
</g>
</g>
<rect x="467.742" y="91.7417" width="248.517" height="248.517" stroke="#B6B6F9" stroke-width="0.516667"/>
<g clip-path="url(#clip2_15283_30844)">
<rect x="796" y="92" width="248" height="248" fill="white"/>
<g opacity="0.6">
<rect x="837.336" y="112.667" width="165.333" height="206.667" rx="5.16667" fill="#DADAFC"/>
<path d="M920 92V340" stroke="#6D6DF3" stroke-width="0.5"/>
<path d="M889 92V340" stroke="#6D6DF3" stroke-width="0.5"/>
<path d="M951 92V340" stroke="#6D6DF3" stroke-width="0.5"/>
<path d="M796 247L1044 247" stroke="#6D6DF3" stroke-width="0.5"/>
<path d="M796 185L1044 185" stroke="#6D6DF3" stroke-width="0.5"/>
<path d="M796 216L1044 216" stroke="#6D6DF3" stroke-width="0.5"/>
<path d="M1044 92L796.002 339.998" stroke="#6D6DF3" stroke-width="0.5"/>
<path d="M796 92L1044 339.998" stroke="#6D6DF3" stroke-width="0.5"/>
<circle cx="920.003" cy="216" r="43.9167" stroke="#6D6DF3" stroke-width="0.5"/>
</g>
</g>
<rect x="795.742" y="91.7417" width="248.517" height="248.517" stroke="#B6B6F9" stroke-width="0.516667"/>
<g clip-path="url(#clip3_15283_30844)">
<rect x="1124" y="92" width="248" height="248" fill="white"/>
<g opacity="0.6">
<rect x="1144.66" y="298.667" width="165.333" height="206.667" rx="5.16667" transform="rotate(-90 1144.66 298.667)" fill="#DADAFC"/>
<path d="M1248 92V340" stroke="#6D6DF3" stroke-width="0.5"/>
<path d="M1217 92V340" stroke="#6D6DF3" stroke-width="0.5"/>
<path d="M1279 92V340" stroke="#6D6DF3" stroke-width="0.5"/>
<path d="M1124 247L1372 247" stroke="#6D6DF3" stroke-width="0.5"/>
<path d="M1124 185L1372 185" stroke="#6D6DF3" stroke-width="0.5"/>
<path d="M1124 216L1372 216" stroke="#6D6DF3" stroke-width="0.5"/>
<path d="M1372 92L1124 339.998" stroke="#6D6DF3" stroke-width="0.5"/>
<path d="M1124 92L1372 339.998" stroke="#6D6DF3" stroke-width="0.5"/>
<circle cx="1248" cy="216" r="43.9167" stroke="#6D6DF3" stroke-width="0.5"/>
</g>
</g>
<rect x="1123.74" y="91.7417" width="248.517" height="248.517" stroke="#B6B6F9" stroke-width="0.516667"/>
<defs>
<clipPath id="clip0_15283_30844">
<rect x="140" y="92" width="248" height="248" fill="white"/>
</clipPath>
<clipPath id="clip1_15283_30844">
<rect x="468" y="92" width="248" height="248" fill="white"/>
</clipPath>
<clipPath id="clip2_15283_30844">
<rect x="796" y="92" width="248" height="248" fill="white"/>
</clipPath>
<clipPath id="clip3_15283_30844">
<rect x="1124" y="92" width="248" height="248" fill="white"/>
</clipPath>
</defs>
</svg>
