<svg width="1512" height="480" viewBox="0 0 1512 480" fill="none" xmlns="http://www.w3.org/2000/svg">
<rect width="756" height="240" transform="scale(2)" fill="#F6F6F6"/>
<path d="M0 16C0 7.16346 7.16344 0 16 0H1496C1504.84 0 1512 7.16344 1512 16V464C1512 472.837 1504.84 480 1496 480H16C7.16347 480 0 472.837 0 464V16Z" fill="#FAFAFA"/>
<path fill-rule="evenodd" clip-rule="evenodd" d="M243.143 178.333C228.968 178.333 217.477 189.824 217.477 203.999C217.477 218.175 228.968 229.666 243.143 229.666C257.319 229.666 268.81 218.175 268.81 203.999C268.81 189.824 257.319 178.333 243.143 178.333ZM228.81 203.999C228.81 196.083 235.227 189.666 243.143 189.666C251.059 189.666 257.477 196.083 257.477 203.999C257.477 211.915 251.059 218.333 243.143 218.333C235.227 218.333 228.81 211.915 228.81 203.999Z" fill="#333333"/>
<path fill-rule="evenodd" clip-rule="evenodd" d="M228.007 138.333C225.241 138.333 222.878 140.331 222.419 143.06L219.409 160.958C217.85 161.785 216.34 162.69 214.884 163.667L198.285 158.489C195.763 157.702 193.031 158.763 191.701 161.046L178.247 184.14C176.844 186.549 177.401 189.621 179.561 191.384L192.521 201.956C192.431 203.182 192.386 204.419 192.386 205.666C192.386 206.871 192.428 208.068 192.512 209.253L181.014 219.706C179.035 221.504 178.583 224.441 179.929 226.751L193.383 249.845C194.77 252.226 197.669 253.264 200.252 252.305L214.132 247.152C216.007 248.458 217.975 249.643 220.024 250.694L222.419 264.939C222.878 267.668 225.241 269.666 228.007 269.666H254.916C257.568 269.666 259.865 267.827 260.445 265.239L263.335 252.352C266.6 250.982 269.692 249.286 272.567 247.305L286.035 252.305C288.618 253.264 291.517 252.226 292.904 249.845L306.358 226.751C307.704 224.441 307.252 221.504 305.273 219.706L294.367 209.791C294.478 208.43 294.534 207.054 294.534 205.666C294.534 204.254 294.476 202.855 294.361 201.471L306.726 191.384C308.886 189.621 309.443 186.549 308.04 184.14L294.586 161.046C293.256 158.763 290.524 157.702 288.002 158.489L271.835 163.532C269.416 161.926 266.85 160.519 264.162 159.336L260.445 142.759C259.865 140.172 257.568 138.333 254.916 138.333H228.007ZM230.105 165.697L232.801 149.666H250.379L253.753 164.713C254.174 166.59 255.518 168.126 257.323 168.791C260.983 170.139 264.39 172.007 267.451 174.306C268.908 175.399 270.802 175.726 272.541 175.184L287.066 170.653L295.81 185.662L284.796 194.648C283.248 195.911 282.479 197.897 282.774 199.874C283.055 201.761 283.201 203.695 283.201 205.666C283.201 207.56 283.066 209.42 282.806 211.237C282.54 213.097 283.213 214.968 284.604 216.232L294.257 225.008L285.511 240.021L273.645 235.616C271.795 234.929 269.72 235.254 268.169 236.475C264.731 239.179 260.834 241.331 256.612 242.796C254.759 243.439 253.37 244.995 252.94 246.909L250.379 258.333H232.801L230.711 245.906C230.394 244.021 229.147 242.422 227.396 241.655C224.216 240.262 221.253 238.467 218.574 236.335C217.021 235.098 214.934 234.765 213.073 235.456L200.776 240.021L192.03 225.008L202.246 215.721C203.619 214.473 204.294 212.631 204.053 210.79C203.833 209.116 203.719 207.405 203.719 205.666C203.719 203.835 203.845 202.036 204.088 200.277C204.359 198.318 203.589 196.36 202.057 195.11L190.477 185.662L199.221 170.653L214.194 175.323C215.943 175.869 217.847 175.535 219.307 174.428C221.637 172.66 224.171 171.142 226.866 169.914C228.579 169.134 229.792 167.553 230.105 165.697Z" fill="#333333"/>
<path fill-rule="evenodd" clip-rule="evenodd" d="M528.244 153.562C526.161 151.479 522.784 151.479 520.701 153.562C518.619 155.645 518.619 159.022 520.701 161.105L532.037 172.441C524.605 178.428 517.071 186.406 509.522 196.737C506.362 201.061 506.362 206.939 509.522 211.263C542.897 256.934 575.973 256.622 601.264 241.668L614.035 254.438C616.117 256.521 619.494 256.521 621.577 254.438C623.66 252.355 623.66 248.978 621.577 246.896L528.244 153.562ZM593.433 233.836L584.882 225.285C580.923 227.846 576.205 229.333 571.139 229.333C557.148 229.333 545.806 217.991 545.806 204C545.806 198.934 547.293 194.216 549.854 190.257L539.617 180.021C532.742 185.397 525.555 192.876 518.134 203.03C517.714 203.606 517.714 204.394 518.134 204.97C541.895 237.485 563.263 242.566 579.666 239.023C584.393 238.001 589.005 236.208 593.433 233.836ZM557.704 198.107C556.912 199.911 556.472 201.904 556.472 204C556.472 212.1 563.039 218.667 571.139 218.667C573.235 218.667 575.228 218.227 577.032 217.435L557.704 198.107Z" fill="#333333"/>
<path d="M567.015 179.001L596.139 208.124C596.358 206.782 596.472 205.404 596.472 204C596.472 190.009 585.13 178.667 571.139 178.667C569.735 178.667 568.357 178.781 567.015 179.001Z" fill="#333333"/>
<path d="M624.708 204.612C620.502 210.651 615.479 216.6 609.86 221.845L617.405 229.391C623.632 223.536 629.046 217.048 633.461 210.708C636.274 206.67 636.274 201.33 633.461 197.292C616.616 173.104 585.237 146.765 549.694 161.679L558.007 169.992C565.898 167.523 573.171 167.574 579.666 168.977C597.591 172.85 613.864 187.818 624.708 203.388C624.969 203.763 624.969 204.237 624.708 204.612Z" fill="#333333"/>
<path fill-rule="evenodd" clip-rule="evenodd" d="M925.137 163.326C927.35 161.113 930.938 161.113 933.151 163.326L969.817 199.992C972.03 202.205 972.03 205.793 969.817 208.006L933.151 244.673C930.938 246.886 927.35 246.886 925.137 244.673C922.924 242.46 922.924 238.872 925.137 236.659L952.13 209.666H872.477C869.348 209.666 866.811 207.129 866.811 203.999C866.811 200.87 869.348 198.333 872.477 198.333H952.13L925.137 171.34C922.924 169.127 922.924 165.539 925.137 163.326Z" fill="#333333"/>
<path fill-rule="evenodd" clip-rule="evenodd" d="M1180.47 158.667C1170.16 158.667 1161.81 167.024 1161.81 177.333V230.667C1161.81 240.976 1170.16 249.333 1180.47 249.333H1273.81C1284.12 249.333 1292.47 240.976 1292.47 230.667V177.333C1292.47 167.024 1284.12 158.667 1273.81 158.667H1180.47ZM1180.03 169.346C1180.18 169.338 1180.32 169.333 1180.47 169.333H1273.81C1273.96 169.333 1274.1 169.338 1274.25 169.346L1242.22 201.373C1233.89 209.704 1220.39 209.704 1212.06 201.373L1180.03 169.346ZM1172.49 176.888C1172.48 177.035 1172.47 177.184 1172.47 177.333V230.667C1172.47 235.085 1176.06 238.667 1180.47 238.667H1273.81C1278.22 238.667 1281.81 235.085 1281.81 230.667V177.333C1281.81 177.184 1281.8 177.035 1281.79 176.888L1249.77 208.915C1237.27 221.412 1217.01 221.412 1204.51 208.915L1172.49 176.888Z" fill="#333333"/>
<path d="M1103.14 102L1278.5 277.362" stroke="#B6B6F9" stroke-width="1.5" stroke-linecap="round" stroke-linejoin="round"/>
<path d="M1350.5 102L1175.14 277.362" stroke="#B6B6F9" stroke-width="1.5" stroke-linecap="round" stroke-linejoin="round"/>
<path d="M865.141 106L1014.5 255.362" stroke="#B6B6F9" stroke-width="1.5" stroke-linecap="round" stroke-linejoin="round"/>
<path d="M869.141 297.363L1014.5 152" stroke="#B6B6F9" stroke-width="1.5" stroke-linecap="round" stroke-linejoin="round"/>
<path d="M475.141 107.681L667.141 299.681" stroke="#B6B6F9" stroke-width="1.5" stroke-linecap="round" stroke-linejoin="round"/>
<path d="M243.141 108V300" stroke="#B6B6F9" stroke-width="1.5" stroke-linecap="round" stroke-linejoin="round"/>
<path d="M160 156L326.277 252" stroke="#B6B6F9" stroke-width="1.5" stroke-linecap="round" stroke-linejoin="round"/>
<path d="M326.277 156L160 252" stroke="#B6B6F9" stroke-width="1.5" stroke-linecap="round" stroke-linejoin="round"/>
<path d="M183.511 404.239C182.733 404.227 181.966 404.085 181.21 403.812C180.46 403.54 179.778 403.085 179.164 402.449C178.551 401.812 178.059 400.957 177.69 399.884C177.326 398.81 177.145 397.469 177.145 395.861C177.145 394.338 177.295 392.986 177.596 391.804C177.903 390.622 178.343 389.625 178.917 388.812C179.491 387.994 180.184 387.372 180.997 386.946C181.809 386.52 182.721 386.307 183.733 386.307C184.772 386.307 185.696 386.511 186.502 386.92C187.309 387.33 187.963 387.895 188.463 388.616C188.968 389.338 189.289 390.159 189.426 391.08H186.826C186.65 390.352 186.301 389.759 185.778 389.298C185.255 388.838 184.574 388.608 183.733 388.608C182.454 388.608 181.457 389.165 180.741 390.278C180.031 391.392 179.673 392.94 179.667 394.923H179.795C180.096 394.429 180.466 394.009 180.903 393.662C181.346 393.31 181.841 393.04 182.386 392.852C182.937 392.659 183.517 392.562 184.125 392.562C185.136 392.562 186.051 392.81 186.869 393.304C187.693 393.793 188.349 394.469 188.838 395.332C189.326 396.196 189.571 397.185 189.571 398.298C189.571 399.412 189.318 400.42 188.812 401.324C188.312 402.227 187.608 402.943 186.699 403.472C185.789 403.994 184.727 404.25 183.511 404.239ZM183.502 402.023C184.173 402.023 184.772 401.858 185.301 401.528C185.829 401.199 186.247 400.756 186.554 400.199C186.86 399.642 187.014 399.02 187.014 398.332C187.014 397.662 186.863 397.051 186.562 396.5C186.267 395.949 185.858 395.511 185.335 395.188C184.818 394.864 184.227 394.702 183.562 394.702C183.056 394.702 182.588 394.798 182.156 394.991C181.73 395.185 181.355 395.452 181.031 395.793C180.707 396.134 180.451 396.526 180.264 396.969C180.082 397.406 179.991 397.869 179.991 398.358C179.991 399.011 180.142 399.616 180.443 400.173C180.75 400.73 181.167 401.179 181.696 401.52C182.23 401.855 182.832 402.023 183.502 402.023ZM198.752 404.29C197.405 404.284 196.255 403.929 195.3 403.224C194.346 402.52 193.615 401.494 193.11 400.148C192.604 398.801 192.351 397.179 192.351 395.281C192.351 393.389 192.604 391.773 193.11 390.432C193.621 389.091 194.354 388.068 195.309 387.364C196.269 386.659 197.417 386.307 198.752 386.307C200.087 386.307 201.232 386.662 202.186 387.372C203.141 388.077 203.871 389.099 204.377 390.44C204.888 391.776 205.144 393.389 205.144 395.281C205.144 397.185 204.891 398.81 204.385 400.156C203.88 401.497 203.15 402.523 202.195 403.233C201.24 403.938 200.093 404.29 198.752 404.29ZM198.752 402.014C199.934 402.014 200.857 401.438 201.522 400.284C202.192 399.131 202.527 397.463 202.527 395.281C202.527 393.832 202.374 392.608 202.067 391.608C201.766 390.602 201.331 389.841 200.763 389.324C200.201 388.801 199.53 388.54 198.752 388.54C197.576 388.54 196.652 389.119 195.982 390.278C195.311 391.437 194.973 393.105 194.968 395.281C194.968 396.736 195.118 397.966 195.419 398.972C195.726 399.972 196.161 400.73 196.723 401.247C197.286 401.759 197.962 402.014 198.752 402.014ZM219.453 404.256C218.397 404.256 217.453 403.986 216.624 403.446C215.8 402.901 215.152 402.125 214.681 401.119C214.215 400.108 213.982 398.895 213.982 397.48C213.982 396.065 214.218 394.855 214.689 393.849C215.167 392.844 215.82 392.074 216.65 391.54C217.479 391.006 218.419 390.739 219.471 390.739C220.283 390.739 220.936 390.875 221.431 391.148C221.931 391.415 222.317 391.727 222.59 392.085C222.868 392.443 223.084 392.759 223.238 393.031H223.391V386.545H225.939V404H223.451V401.963H223.238C223.084 402.241 222.863 402.56 222.573 402.918C222.289 403.276 221.897 403.588 221.397 403.855C220.897 404.122 220.249 404.256 219.453 404.256ZM220.016 402.082C220.749 402.082 221.368 401.889 221.874 401.503C222.385 401.111 222.772 400.568 223.033 399.875C223.3 399.182 223.434 398.375 223.434 397.455C223.434 396.545 223.303 395.75 223.042 395.068C222.78 394.386 222.397 393.855 221.891 393.474C221.385 393.094 220.76 392.903 220.016 392.903C219.249 392.903 218.61 393.102 218.098 393.5C217.587 393.898 217.201 394.44 216.939 395.128C216.684 395.815 216.556 396.591 216.556 397.455C216.556 398.33 216.686 399.116 216.948 399.815C217.209 400.514 217.596 401.068 218.107 401.477C218.624 401.881 219.26 402.082 220.016 402.082ZM235.218 404.264C233.929 404.264 232.818 403.989 231.886 403.438C230.96 402.881 230.244 402.099 229.738 401.094C229.238 400.082 228.988 398.898 228.988 397.54C228.988 396.199 229.238 395.017 229.738 393.994C230.244 392.972 230.949 392.173 231.852 391.599C232.761 391.026 233.824 390.739 235.039 390.739C235.778 390.739 236.494 390.861 237.187 391.105C237.88 391.349 238.502 391.733 239.054 392.256C239.605 392.778 240.039 393.457 240.358 394.293C240.676 395.122 240.835 396.131 240.835 397.318V398.222H230.429V396.312H238.338C238.338 395.642 238.201 395.048 237.929 394.531C237.656 394.009 237.272 393.597 236.778 393.295C236.289 392.994 235.716 392.844 235.056 392.844C234.341 392.844 233.716 393.02 233.181 393.372C232.653 393.719 232.244 394.173 231.954 394.736C231.67 395.293 231.528 395.898 231.528 396.551V398.043C231.528 398.918 231.681 399.662 231.988 400.276C232.301 400.889 232.735 401.358 233.292 401.682C233.849 402 234.5 402.159 235.244 402.159C235.727 402.159 236.167 402.091 236.565 401.955C236.963 401.812 237.306 401.602 237.596 401.324C237.886 401.045 238.108 400.702 238.261 400.293L240.673 400.727C240.48 401.437 240.133 402.06 239.633 402.594C239.139 403.122 238.517 403.534 237.767 403.83C237.022 404.119 236.173 404.264 235.218 404.264ZM249.151 409.182C248.111 409.182 247.216 409.045 246.466 408.773C245.722 408.5 245.114 408.139 244.642 407.69C244.171 407.241 243.819 406.75 243.586 406.216L245.776 405.312C245.929 405.562 246.134 405.827 246.39 406.105C246.651 406.389 247.003 406.631 247.446 406.83C247.895 407.028 248.472 407.128 249.176 407.128C250.142 407.128 250.941 406.892 251.571 406.42C252.202 405.955 252.517 405.21 252.517 404.188V401.614H252.355C252.202 401.892 251.98 402.202 251.691 402.543C251.407 402.884 251.015 403.179 250.515 403.429C250.015 403.679 249.364 403.804 248.563 403.804C247.529 403.804 246.597 403.562 245.767 403.08C244.944 402.591 244.29 401.872 243.807 400.923C243.33 399.969 243.091 398.795 243.091 397.403C243.091 396.011 243.327 394.818 243.799 393.824C244.276 392.83 244.929 392.068 245.759 391.54C246.588 391.006 247.529 390.739 248.58 390.739C249.392 390.739 250.049 390.875 250.549 391.148C251.049 391.415 251.438 391.727 251.716 392.085C252 392.443 252.219 392.759 252.373 393.031H252.56V390.909H255.057V404.29C255.057 405.415 254.796 406.338 254.273 407.06C253.75 407.781 253.043 408.315 252.151 408.662C251.265 409.009 250.265 409.182 249.151 409.182ZM249.125 401.69C249.858 401.69 250.478 401.52 250.983 401.179C251.495 400.832 251.881 400.338 252.142 399.696C252.409 399.048 252.543 398.273 252.543 397.369C252.543 396.489 252.412 395.713 252.151 395.043C251.89 394.372 251.506 393.849 251 393.474C250.495 393.094 249.87 392.903 249.125 392.903C248.358 392.903 247.719 393.102 247.208 393.5C246.696 393.892 246.31 394.426 246.049 395.102C245.793 395.778 245.665 396.534 245.665 397.369C245.665 398.227 245.796 398.98 246.057 399.628C246.319 400.276 246.705 400.781 247.216 401.145C247.733 401.509 248.37 401.69 249.125 401.69ZM258.475 404V390.909H260.938V392.989H261.074C261.313 392.284 261.733 391.73 262.336 391.327C262.944 390.918 263.631 390.713 264.398 390.713C264.557 390.713 264.745 390.719 264.961 390.73C265.182 390.741 265.355 390.756 265.48 390.773V393.21C265.378 393.182 265.196 393.151 264.935 393.116C264.674 393.077 264.412 393.057 264.151 393.057C263.549 393.057 263.012 393.185 262.54 393.44C262.074 393.69 261.705 394.04 261.432 394.489C261.159 394.932 261.023 395.437 261.023 396.006V404H258.475ZM272.859 404.264C271.569 404.264 270.458 403.989 269.527 403.438C268.6 402.881 267.885 402.099 267.379 401.094C266.879 400.082 266.629 398.898 266.629 397.54C266.629 396.199 266.879 395.017 267.379 393.994C267.885 392.972 268.589 392.173 269.493 391.599C270.402 391.026 271.464 390.739 272.68 390.739C273.419 390.739 274.135 390.861 274.828 391.105C275.521 391.349 276.143 391.733 276.694 392.256C277.245 392.778 277.68 393.457 277.998 394.293C278.316 395.122 278.475 396.131 278.475 397.318V398.222H268.069V396.312H275.978C275.978 395.642 275.842 395.048 275.569 394.531C275.297 394.009 274.913 393.597 274.419 393.295C273.93 392.994 273.356 392.844 272.697 392.844C271.981 392.844 271.356 393.02 270.822 393.372C270.294 393.719 269.885 394.173 269.595 394.736C269.311 395.293 269.169 395.898 269.169 396.551V398.043C269.169 398.918 269.322 399.662 269.629 400.276C269.941 400.889 270.376 401.358 270.933 401.682C271.49 402 272.14 402.159 272.885 402.159C273.368 402.159 273.808 402.091 274.206 401.955C274.603 401.812 274.947 401.602 275.237 401.324C275.527 401.045 275.748 400.702 275.902 400.293L278.314 400.727C278.12 401.437 277.774 402.06 277.274 402.594C276.779 403.122 276.157 403.534 275.407 403.83C274.663 404.119 273.814 404.264 272.859 404.264ZM286.945 404.264C285.655 404.264 284.544 403.989 283.613 403.438C282.686 402.881 281.971 402.099 281.465 401.094C280.965 400.082 280.715 398.898 280.715 397.54C280.715 396.199 280.965 395.017 281.465 393.994C281.971 392.972 282.675 392.173 283.578 391.599C284.488 391.026 285.55 390.739 286.766 390.739C287.505 390.739 288.221 390.861 288.914 391.105C289.607 391.349 290.229 391.733 290.78 392.256C291.331 392.778 291.766 393.457 292.084 394.293C292.402 395.122 292.561 396.131 292.561 397.318V398.222H282.155V396.312H290.064C290.064 395.642 289.928 395.048 289.655 394.531C289.382 394.009 288.999 393.597 288.505 393.295C288.016 392.994 287.442 392.844 286.783 392.844C286.067 392.844 285.442 393.02 284.908 393.372C284.38 393.719 283.971 394.173 283.681 394.736C283.397 395.293 283.255 395.898 283.255 396.551V398.043C283.255 398.918 283.408 399.662 283.715 400.276C284.027 400.889 284.462 401.358 285.019 401.682C285.576 402 286.226 402.159 286.971 402.159C287.453 402.159 287.894 402.091 288.292 401.955C288.689 401.812 289.033 401.602 289.323 401.324C289.613 401.045 289.834 400.702 289.988 400.293L292.4 400.727C292.206 401.437 291.86 402.06 291.36 402.594C290.865 403.122 290.243 403.534 289.493 403.83C288.749 404.119 287.9 404.264 286.945 404.264ZM305.199 394.105L302.889 394.514C302.792 394.219 302.639 393.937 302.429 393.67C302.224 393.403 301.946 393.185 301.593 393.014C301.241 392.844 300.801 392.759 300.272 392.759C299.551 392.759 298.949 392.92 298.466 393.244C297.983 393.562 297.741 393.974 297.741 394.48C297.741 394.918 297.903 395.27 298.227 395.537C298.551 395.804 299.074 396.023 299.795 396.193L301.875 396.67C303.079 396.949 303.977 397.378 304.568 397.957C305.159 398.537 305.454 399.29 305.454 400.216C305.454 401 305.227 401.699 304.772 402.312C304.324 402.92 303.696 403.398 302.889 403.744C302.088 404.091 301.159 404.264 300.102 404.264C298.636 404.264 297.44 403.952 296.514 403.327C295.588 402.696 295.02 401.801 294.809 400.642L297.272 400.267C297.426 400.909 297.741 401.395 298.218 401.724C298.696 402.048 299.318 402.21 300.085 402.21C300.92 402.21 301.588 402.037 302.088 401.69C302.588 401.338 302.838 400.909 302.838 400.403C302.838 399.994 302.684 399.651 302.377 399.372C302.076 399.094 301.613 398.884 300.988 398.741L298.772 398.256C297.551 397.977 296.647 397.534 296.062 396.926C295.483 396.318 295.193 395.548 295.193 394.616C295.193 393.844 295.409 393.168 295.841 392.588C296.272 392.009 296.869 391.557 297.63 391.233C298.392 390.903 299.264 390.739 300.247 390.739C301.662 390.739 302.775 391.045 303.588 391.659C304.4 392.267 304.937 393.082 305.199 394.105Z" fill="#333333"/>
<path d="M507.133 400.591V398.46L514.675 386.545H516.354V389.682H515.289L509.894 398.222V398.358H520.232V400.591H507.133ZM515.408 404V399.943L515.425 398.972V386.545H517.923V404H515.408ZM528.964 404.239C527.896 404.239 526.935 404.034 526.083 403.625C525.237 403.21 524.56 402.642 524.055 401.92C523.549 401.199 523.279 400.375 523.245 399.449H525.802C525.864 400.199 526.197 400.815 526.799 401.298C527.401 401.781 528.123 402.023 528.964 402.023C529.634 402.023 530.228 401.869 530.745 401.562C531.268 401.25 531.677 400.821 531.972 400.276C532.273 399.73 532.424 399.108 532.424 398.409C532.424 397.699 532.271 397.065 531.964 396.509C531.657 395.952 531.234 395.514 530.694 395.196C530.16 394.878 529.546 394.716 528.853 394.71C528.325 394.71 527.793 394.801 527.259 394.983C526.725 395.165 526.293 395.403 525.964 395.699L523.552 395.341L524.532 386.545H534.129V388.804H526.722L526.168 393.688H526.271C526.612 393.358 527.063 393.082 527.626 392.861C528.194 392.639 528.802 392.528 529.45 392.528C530.512 392.528 531.458 392.781 532.288 393.287C533.123 393.793 533.779 394.483 534.256 395.358C534.739 396.227 534.978 397.227 534.972 398.358C534.978 399.489 534.722 400.497 534.205 401.384C533.694 402.27 532.984 402.969 532.075 403.48C531.171 403.986 530.134 404.239 528.964 404.239ZM549.371 404.256C548.315 404.256 547.371 403.986 546.542 403.446C545.718 402.901 545.07 402.125 544.599 401.119C544.133 400.108 543.9 398.895 543.9 397.48C543.9 396.065 544.136 394.855 544.607 393.849C545.085 392.844 545.738 392.074 546.567 391.54C547.397 391.006 548.337 390.739 549.388 390.739C550.201 390.739 550.854 390.875 551.349 391.148C551.849 391.415 552.235 391.727 552.508 392.085C552.786 392.443 553.002 392.759 553.156 393.031H553.309V386.545H555.857V404H553.369V401.963H553.156C553.002 402.241 552.781 402.56 552.491 402.918C552.207 403.276 551.815 403.588 551.315 403.855C550.815 404.122 550.167 404.256 549.371 404.256ZM549.934 402.082C550.667 402.082 551.286 401.889 551.792 401.503C552.303 401.111 552.69 400.568 552.951 399.875C553.218 399.182 553.352 398.375 553.352 397.455C553.352 396.545 553.221 395.75 552.96 395.068C552.698 394.386 552.315 393.855 551.809 393.474C551.303 393.094 550.678 392.903 549.934 392.903C549.167 392.903 548.528 393.102 548.016 393.5C547.505 393.898 547.119 394.44 546.857 395.128C546.602 395.815 546.474 396.591 546.474 397.455C546.474 398.33 546.604 399.116 546.866 399.815C547.127 400.514 547.513 401.068 548.025 401.477C548.542 401.881 549.178 402.082 549.934 402.082ZM565.136 404.264C563.847 404.264 562.736 403.989 561.804 403.438C560.878 402.881 560.162 402.099 559.656 401.094C559.156 400.082 558.906 398.898 558.906 397.54C558.906 396.199 559.156 395.017 559.656 393.994C560.162 392.972 560.866 392.173 561.77 391.599C562.679 391.026 563.741 390.739 564.957 390.739C565.696 390.739 566.412 390.861 567.105 391.105C567.798 391.349 568.42 391.733 568.972 392.256C569.523 392.778 569.957 393.457 570.276 394.293C570.594 395.122 570.753 396.131 570.753 397.318V398.222H560.347V396.312H568.256C568.256 395.642 568.119 395.048 567.847 394.531C567.574 394.009 567.19 393.597 566.696 393.295C566.207 392.994 565.634 392.844 564.974 392.844C564.259 392.844 563.634 393.02 563.099 393.372C562.571 393.719 562.162 394.173 561.872 394.736C561.588 395.293 561.446 395.898 561.446 396.551V398.043C561.446 398.918 561.599 399.662 561.906 400.276C562.219 400.889 562.653 401.358 563.21 401.682C563.767 402 564.418 402.159 565.162 402.159C565.645 402.159 566.085 402.091 566.483 401.955C566.881 401.812 567.224 401.602 567.514 401.324C567.804 401.045 568.026 400.702 568.179 400.293L570.591 400.727C570.398 401.437 570.051 402.06 569.551 402.594C569.057 403.122 568.435 403.534 567.685 403.83C566.94 404.119 566.091 404.264 565.136 404.264ZM579.069 409.182C578.029 409.182 577.134 409.045 576.384 408.773C575.64 408.5 575.032 408.139 574.56 407.69C574.089 407.241 573.737 406.75 573.504 406.216L575.694 405.312C575.847 405.562 576.052 405.827 576.308 406.105C576.569 406.389 576.921 406.631 577.364 406.83C577.813 407.028 578.39 407.128 579.094 407.128C580.06 407.128 580.859 406.892 581.489 406.42C582.12 405.955 582.435 405.21 582.435 404.188V401.614H582.273C582.12 401.892 581.898 402.202 581.609 402.543C581.325 402.884 580.933 403.179 580.433 403.429C579.933 403.679 579.282 403.804 578.481 403.804C577.447 403.804 576.515 403.562 575.685 403.08C574.862 402.591 574.208 401.872 573.725 400.923C573.248 399.969 573.009 398.795 573.009 397.403C573.009 396.011 573.245 394.818 573.717 393.824C574.194 392.83 574.847 392.068 575.677 391.54C576.506 391.006 577.447 390.739 578.498 390.739C579.31 390.739 579.967 390.875 580.467 391.148C580.967 391.415 581.356 391.727 581.634 392.085C581.918 392.443 582.137 392.759 582.29 393.031H582.478V390.909H584.975V404.29C584.975 405.415 584.714 406.338 584.191 407.06C583.668 407.781 582.961 408.315 582.069 408.662C581.183 409.009 580.183 409.182 579.069 409.182ZM579.043 401.69C579.776 401.69 580.396 401.52 580.901 401.179C581.413 400.832 581.799 400.338 582.06 399.696C582.327 399.048 582.461 398.273 582.461 397.369C582.461 396.489 582.33 395.713 582.069 395.043C581.808 394.372 581.424 393.849 580.918 393.474C580.413 393.094 579.788 392.903 579.043 392.903C578.276 392.903 577.637 393.102 577.126 393.5C576.614 393.892 576.228 394.426 575.967 395.102C575.711 395.778 575.583 396.534 575.583 397.369C575.583 398.227 575.714 398.98 575.975 399.628C576.237 400.276 576.623 400.781 577.134 401.145C577.651 401.509 578.288 401.69 579.043 401.69ZM588.393 404V390.909H590.856V392.989H590.992C591.231 392.284 591.651 391.73 592.254 391.327C592.862 390.918 593.549 390.713 594.316 390.713C594.475 390.713 594.663 390.719 594.879 390.73C595.1 390.741 595.273 390.756 595.398 390.773V393.21C595.296 393.182 595.114 393.151 594.853 393.116C594.592 393.077 594.33 393.057 594.069 393.057C593.467 393.057 592.93 393.185 592.458 393.44C591.992 393.69 591.623 394.04 591.35 394.489C591.077 394.932 590.941 395.437 590.941 396.006V404H588.393ZM602.777 404.264C601.487 404.264 600.376 403.989 599.445 403.438C598.518 402.881 597.803 402.099 597.297 401.094C596.797 400.082 596.547 398.898 596.547 397.54C596.547 396.199 596.797 395.017 597.297 393.994C597.803 392.972 598.507 392.173 599.411 391.599C600.32 391.026 601.382 390.739 602.598 390.739C603.337 390.739 604.053 390.861 604.746 391.105C605.439 391.349 606.061 391.733 606.612 392.256C607.163 392.778 607.598 393.457 607.916 394.293C608.234 395.122 608.393 396.131 608.393 397.318V398.222H597.987V396.312H605.896C605.896 395.642 605.76 395.048 605.487 394.531C605.214 394.009 604.831 393.597 604.337 393.295C603.848 392.994 603.274 392.844 602.615 392.844C601.899 392.844 601.274 393.02 600.74 393.372C600.212 393.719 599.803 394.173 599.513 394.736C599.229 395.293 599.087 395.898 599.087 396.551V398.043C599.087 398.918 599.24 399.662 599.547 400.276C599.859 400.889 600.294 401.358 600.851 401.682C601.408 402 602.058 402.159 602.803 402.159C603.286 402.159 603.726 402.091 604.124 401.955C604.521 401.812 604.865 401.602 605.155 401.324C605.445 401.045 605.666 400.702 605.82 400.293L608.232 400.727C608.038 401.437 607.692 402.06 607.192 402.594C606.697 403.122 606.075 403.534 605.325 403.83C604.581 404.119 603.732 404.264 602.777 404.264ZM616.863 404.264C615.573 404.264 614.462 403.989 613.531 403.438C612.604 402.881 611.888 402.099 611.383 401.094C610.883 400.082 610.633 398.898 610.633 397.54C610.633 396.199 610.883 395.017 611.383 393.994C611.888 392.972 612.593 392.173 613.496 391.599C614.406 391.026 615.468 390.739 616.684 390.739C617.423 390.739 618.138 390.861 618.832 391.105C619.525 391.349 620.147 391.733 620.698 392.256C621.249 392.778 621.684 393.457 622.002 394.293C622.32 395.122 622.479 396.131 622.479 397.318V398.222H612.073V396.312H619.982C619.982 395.642 619.846 395.048 619.573 394.531C619.3 394.009 618.917 393.597 618.423 393.295C617.934 392.994 617.36 392.844 616.701 392.844C615.985 392.844 615.36 393.02 614.826 393.372C614.298 393.719 613.888 394.173 613.599 394.736C613.315 395.293 613.173 395.898 613.173 396.551V398.043C613.173 398.918 613.326 399.662 613.633 400.276C613.945 400.889 614.38 401.358 614.937 401.682C615.494 402 616.144 402.159 616.888 402.159C617.371 402.159 617.812 402.091 618.21 401.955C618.607 401.812 618.951 401.602 619.241 401.324C619.531 401.045 619.752 400.702 619.906 400.293L622.317 400.727C622.124 401.437 621.778 402.06 621.278 402.594C620.783 403.122 620.161 403.534 619.411 403.83C618.667 404.119 617.817 404.264 616.863 404.264ZM635.116 394.105L632.807 394.514C632.71 394.219 632.557 393.937 632.347 393.67C632.142 393.403 631.864 393.185 631.511 393.014C631.159 392.844 630.719 392.759 630.19 392.759C629.469 392.759 628.866 392.92 628.384 393.244C627.901 393.562 627.659 393.974 627.659 394.48C627.659 394.918 627.821 395.27 628.145 395.537C628.469 395.804 628.991 396.023 629.713 396.193L631.793 396.67C632.997 396.949 633.895 397.378 634.486 397.957C635.077 398.537 635.372 399.29 635.372 400.216C635.372 401 635.145 401.699 634.69 402.312C634.241 402.92 633.614 403.398 632.807 403.744C632.006 404.091 631.077 404.264 630.02 404.264C628.554 404.264 627.358 403.952 626.432 403.327C625.506 402.696 624.938 401.801 624.727 400.642L627.19 400.267C627.344 400.909 627.659 401.395 628.136 401.724C628.614 402.048 629.236 402.21 630.003 402.21C630.838 402.21 631.506 402.037 632.006 401.69C632.506 401.338 632.756 400.909 632.756 400.403C632.756 399.994 632.602 399.651 632.295 399.372C631.994 399.094 631.531 398.884 630.906 398.741L628.69 398.256C627.469 397.977 626.565 397.534 625.98 396.926C625.401 396.318 625.111 395.548 625.111 394.616C625.111 393.844 625.327 393.168 625.759 392.588C626.19 392.009 626.787 391.557 627.548 391.233C628.31 390.903 629.182 390.739 630.165 390.739C631.58 390.739 632.693 391.045 633.506 391.659C634.318 392.267 634.855 393.082 635.116 394.105Z" fill="#333333"/>
<path d="M855.133 400.591V398.46L862.675 386.545H864.354V389.682H863.289L857.894 398.222V398.358H868.232V400.591H855.133ZM863.408 404V399.943L863.425 398.972V386.545H865.923V404H863.408ZM876.964 404.239C875.896 404.239 874.935 404.034 874.083 403.625C873.237 403.21 872.56 402.642 872.055 401.92C871.549 401.199 871.279 400.375 871.245 399.449H873.802C873.864 400.199 874.197 400.815 874.799 401.298C875.401 401.781 876.123 402.023 876.964 402.023C877.634 402.023 878.228 401.869 878.745 401.562C879.268 401.25 879.677 400.821 879.972 400.276C880.273 399.73 880.424 399.108 880.424 398.409C880.424 397.699 880.271 397.065 879.964 396.509C879.657 395.952 879.234 395.514 878.694 395.196C878.16 394.878 877.546 394.716 876.853 394.71C876.325 394.71 875.793 394.801 875.259 394.983C874.725 395.165 874.293 395.403 873.964 395.699L871.552 395.341L872.532 386.545H882.129V388.804H874.722L874.168 393.688H874.271C874.612 393.358 875.063 393.082 875.626 392.861C876.194 392.639 876.802 392.528 877.45 392.528C878.512 392.528 879.458 392.781 880.288 393.287C881.123 393.793 881.779 394.483 882.256 395.358C882.739 396.227 882.978 397.227 882.972 398.358C882.978 399.489 882.722 400.497 882.205 401.384C881.694 402.27 880.984 402.969 880.075 403.48C879.171 403.986 878.134 404.239 876.964 404.239ZM897.371 404.256C896.315 404.256 895.371 403.986 894.542 403.446C893.718 402.901 893.07 402.125 892.599 401.119C892.133 400.108 891.9 398.895 891.9 397.48C891.9 396.065 892.136 394.855 892.607 393.849C893.085 392.844 893.738 392.074 894.567 391.54C895.397 391.006 896.337 390.739 897.388 390.739C898.201 390.739 898.854 390.875 899.349 391.148C899.849 391.415 900.235 391.727 900.508 392.085C900.786 392.443 901.002 392.759 901.156 393.031H901.309V386.545H903.857V404H901.369V401.963H901.156C901.002 402.241 900.781 402.56 900.491 402.918C900.207 403.276 899.815 403.588 899.315 403.855C898.815 404.122 898.167 404.256 897.371 404.256ZM897.934 402.082C898.667 402.082 899.286 401.889 899.792 401.503C900.303 401.111 900.69 400.568 900.951 399.875C901.218 399.182 901.352 398.375 901.352 397.455C901.352 396.545 901.221 395.75 900.96 395.068C900.698 394.386 900.315 393.855 899.809 393.474C899.303 393.094 898.678 392.903 897.934 392.903C897.167 392.903 896.528 393.102 896.016 393.5C895.505 393.898 895.119 394.44 894.857 395.128C894.602 395.815 894.474 396.591 894.474 397.455C894.474 398.33 894.604 399.116 894.866 399.815C895.127 400.514 895.513 401.068 896.025 401.477C896.542 401.881 897.178 402.082 897.934 402.082ZM913.136 404.264C911.847 404.264 910.736 403.989 909.804 403.438C908.878 402.881 908.162 402.099 907.656 401.094C907.156 400.082 906.906 398.898 906.906 397.54C906.906 396.199 907.156 395.017 907.656 393.994C908.162 392.972 908.866 392.173 909.77 391.599C910.679 391.026 911.741 390.739 912.957 390.739C913.696 390.739 914.412 390.861 915.105 391.105C915.798 391.349 916.42 391.733 916.972 392.256C917.523 392.778 917.957 393.457 918.276 394.293C918.594 395.122 918.753 396.131 918.753 397.318V398.222H908.347V396.312H916.256C916.256 395.642 916.119 395.048 915.847 394.531C915.574 394.009 915.19 393.597 914.696 393.295C914.207 392.994 913.634 392.844 912.974 392.844C912.259 392.844 911.634 393.02 911.099 393.372C910.571 393.719 910.162 394.173 909.872 394.736C909.588 395.293 909.446 395.898 909.446 396.551V398.043C909.446 398.918 909.599 399.662 909.906 400.276C910.219 400.889 910.653 401.358 911.21 401.682C911.767 402 912.418 402.159 913.162 402.159C913.645 402.159 914.085 402.091 914.483 401.955C914.881 401.812 915.224 401.602 915.514 401.324C915.804 401.045 916.026 400.702 916.179 400.293L918.591 400.727C918.398 401.437 918.051 402.06 917.551 402.594C917.057 403.122 916.435 403.534 915.685 403.83C914.94 404.119 914.091 404.264 913.136 404.264ZM927.069 409.182C926.029 409.182 925.134 409.045 924.384 408.773C923.64 408.5 923.032 408.139 922.56 407.69C922.089 407.241 921.737 406.75 921.504 406.216L923.694 405.312C923.847 405.562 924.052 405.827 924.308 406.105C924.569 406.389 924.921 406.631 925.364 406.83C925.813 407.028 926.39 407.128 927.094 407.128C928.06 407.128 928.859 406.892 929.489 406.42C930.12 405.955 930.435 405.21 930.435 404.188V401.614H930.273C930.12 401.892 929.898 402.202 929.609 402.543C929.325 402.884 928.933 403.179 928.433 403.429C927.933 403.679 927.282 403.804 926.481 403.804C925.447 403.804 924.515 403.562 923.685 403.08C922.862 402.591 922.208 401.872 921.725 400.923C921.248 399.969 921.009 398.795 921.009 397.403C921.009 396.011 921.245 394.818 921.717 393.824C922.194 392.83 922.847 392.068 923.677 391.54C924.506 391.006 925.447 390.739 926.498 390.739C927.31 390.739 927.967 390.875 928.467 391.148C928.967 391.415 929.356 391.727 929.634 392.085C929.918 392.443 930.137 392.759 930.29 393.031H930.478V390.909H932.975V404.29C932.975 405.415 932.714 406.338 932.191 407.06C931.668 407.781 930.961 408.315 930.069 408.662C929.183 409.009 928.183 409.182 927.069 409.182ZM927.043 401.69C927.776 401.69 928.396 401.52 928.901 401.179C929.413 400.832 929.799 400.338 930.06 399.696C930.327 399.048 930.461 398.273 930.461 397.369C930.461 396.489 930.33 395.713 930.069 395.043C929.808 394.372 929.424 393.849 928.918 393.474C928.413 393.094 927.788 392.903 927.043 392.903C926.276 392.903 925.637 393.102 925.126 393.5C924.614 393.892 924.228 394.426 923.967 395.102C923.711 395.778 923.583 396.534 923.583 397.369C923.583 398.227 923.714 398.98 923.975 399.628C924.237 400.276 924.623 400.781 925.134 401.145C925.651 401.509 926.288 401.69 927.043 401.69ZM936.393 404V390.909H938.856V392.989H938.992C939.231 392.284 939.651 391.73 940.254 391.327C940.862 390.918 941.549 390.713 942.316 390.713C942.475 390.713 942.663 390.719 942.879 390.73C943.1 390.741 943.273 390.756 943.398 390.773V393.21C943.296 393.182 943.114 393.151 942.853 393.116C942.592 393.077 942.33 393.057 942.069 393.057C941.467 393.057 940.93 393.185 940.458 393.44C939.992 393.69 939.623 394.04 939.35 394.489C939.077 394.932 938.941 395.437 938.941 396.006V404H936.393ZM950.777 404.264C949.487 404.264 948.376 403.989 947.445 403.438C946.518 402.881 945.803 402.099 945.297 401.094C944.797 400.082 944.547 398.898 944.547 397.54C944.547 396.199 944.797 395.017 945.297 393.994C945.803 392.972 946.507 392.173 947.411 391.599C948.32 391.026 949.382 390.739 950.598 390.739C951.337 390.739 952.053 390.861 952.746 391.105C953.439 391.349 954.061 391.733 954.612 392.256C955.163 392.778 955.598 393.457 955.916 394.293C956.234 395.122 956.393 396.131 956.393 397.318V398.222H945.987V396.312H953.896C953.896 395.642 953.76 395.048 953.487 394.531C953.214 394.009 952.831 393.597 952.337 393.295C951.848 392.994 951.274 392.844 950.615 392.844C949.899 392.844 949.274 393.02 948.74 393.372C948.212 393.719 947.803 394.173 947.513 394.736C947.229 395.293 947.087 395.898 947.087 396.551V398.043C947.087 398.918 947.24 399.662 947.547 400.276C947.859 400.889 948.294 401.358 948.851 401.682C949.408 402 950.058 402.159 950.803 402.159C951.286 402.159 951.726 402.091 952.124 401.955C952.521 401.812 952.865 401.602 953.155 401.324C953.445 401.045 953.666 400.702 953.82 400.293L956.232 400.727C956.038 401.437 955.692 402.06 955.192 402.594C954.697 403.122 954.075 403.534 953.325 403.83C952.581 404.119 951.732 404.264 950.777 404.264ZM964.863 404.264C963.573 404.264 962.462 403.989 961.531 403.438C960.604 402.881 959.888 402.099 959.383 401.094C958.883 400.082 958.633 398.898 958.633 397.54C958.633 396.199 958.883 395.017 959.383 393.994C959.888 392.972 960.593 392.173 961.496 391.599C962.406 391.026 963.468 390.739 964.684 390.739C965.423 390.739 966.138 390.861 966.832 391.105C967.525 391.349 968.147 391.733 968.698 392.256C969.249 392.778 969.684 393.457 970.002 394.293C970.32 395.122 970.479 396.131 970.479 397.318V398.222H960.073V396.312H967.982C967.982 395.642 967.846 395.048 967.573 394.531C967.3 394.009 966.917 393.597 966.423 393.295C965.934 392.994 965.36 392.844 964.701 392.844C963.985 392.844 963.36 393.02 962.826 393.372C962.298 393.719 961.888 394.173 961.599 394.736C961.315 395.293 961.173 395.898 961.173 396.551V398.043C961.173 398.918 961.326 399.662 961.633 400.276C961.945 400.889 962.38 401.358 962.937 401.682C963.494 402 964.144 402.159 964.888 402.159C965.371 402.159 965.812 402.091 966.21 401.955C966.607 401.812 966.951 401.602 967.241 401.324C967.531 401.045 967.752 400.702 967.906 400.293L970.317 400.727C970.124 401.437 969.778 402.06 969.278 402.594C968.783 403.122 968.161 403.534 967.411 403.83C966.667 404.119 965.817 404.264 964.863 404.264ZM983.116 394.105L980.807 394.514C980.71 394.219 980.557 393.937 980.347 393.67C980.142 393.403 979.864 393.185 979.511 393.014C979.159 392.844 978.719 392.759 978.19 392.759C977.469 392.759 976.866 392.92 976.384 393.244C975.901 393.562 975.659 393.974 975.659 394.48C975.659 394.918 975.821 395.27 976.145 395.537C976.469 395.804 976.991 396.023 977.713 396.193L979.793 396.67C980.997 396.949 981.895 397.378 982.486 397.957C983.077 398.537 983.372 399.29 983.372 400.216C983.372 401 983.145 401.699 982.69 402.312C982.241 402.92 981.614 403.398 980.807 403.744C980.006 404.091 979.077 404.264 978.02 404.264C976.554 404.264 975.358 403.952 974.432 403.327C973.506 402.696 972.938 401.801 972.727 400.642L975.19 400.267C975.344 400.909 975.659 401.395 976.136 401.724C976.614 402.048 977.236 402.21 978.003 402.21C978.838 402.21 979.506 402.037 980.006 401.69C980.506 401.338 980.756 400.909 980.756 400.403C980.756 399.994 980.602 399.651 980.295 399.372C979.994 399.094 979.531 398.884 978.906 398.741L976.69 398.256C975.469 397.977 974.565 397.534 973.98 396.926C973.401 396.318 973.111 395.548 973.111 394.616C973.111 393.844 973.327 393.168 973.759 392.588C974.19 392.009 974.787 391.557 975.548 391.233C976.31 390.903 977.182 390.739 978.165 390.739C979.58 390.739 980.693 391.045 981.506 391.659C982.318 392.267 982.855 393.082 983.116 394.105Z" fill="#333333"/>
<path d="M1163.13 400.591V398.46L1170.68 386.545H1172.35V389.682H1171.29L1165.89 398.222V398.358H1176.23V400.591H1163.13ZM1171.41 404V399.943L1171.43 398.972V386.545H1173.92V404H1171.41ZM1184.96 404.239C1183.9 404.239 1182.94 404.034 1182.08 403.625C1181.24 403.21 1180.56 402.642 1180.05 401.92C1179.55 401.199 1179.28 400.375 1179.25 399.449H1181.8C1181.86 400.199 1182.2 400.815 1182.8 401.298C1183.4 401.781 1184.12 402.023 1184.96 402.023C1185.63 402.023 1186.23 401.869 1186.75 401.562C1187.27 401.25 1187.68 400.821 1187.97 400.276C1188.27 399.73 1188.42 399.108 1188.42 398.409C1188.42 397.699 1188.27 397.065 1187.96 396.509C1187.66 395.952 1187.23 395.514 1186.69 395.196C1186.16 394.878 1185.55 394.716 1184.85 394.71C1184.32 394.71 1183.79 394.801 1183.26 394.983C1182.73 395.165 1182.29 395.403 1181.96 395.699L1179.55 395.341L1180.53 386.545H1190.13V388.804H1182.72L1182.17 393.688H1182.27C1182.61 393.358 1183.06 393.082 1183.63 392.861C1184.19 392.639 1184.8 392.528 1185.45 392.528C1186.51 392.528 1187.46 392.781 1188.29 393.287C1189.12 393.793 1189.78 394.483 1190.26 395.358C1190.74 396.227 1190.98 397.227 1190.97 398.358C1190.98 399.489 1190.72 400.497 1190.21 401.384C1189.69 402.27 1188.98 402.969 1188.07 403.48C1187.17 403.986 1186.13 404.239 1184.96 404.239ZM1205.37 404.256C1204.31 404.256 1203.37 403.986 1202.54 403.446C1201.72 402.901 1201.07 402.125 1200.6 401.119C1200.13 400.108 1199.9 398.895 1199.9 397.48C1199.9 396.065 1200.14 394.855 1200.61 393.849C1201.08 392.844 1201.74 392.074 1202.57 391.54C1203.4 391.006 1204.34 390.739 1205.39 390.739C1206.2 390.739 1206.85 390.875 1207.35 391.148C1207.85 391.415 1208.24 391.727 1208.51 392.085C1208.79 392.443 1209 392.759 1209.16 393.031H1209.31V386.545H1211.86V404H1209.37V401.963H1209.16C1209 402.241 1208.78 402.56 1208.49 402.918C1208.21 403.276 1207.81 403.588 1207.31 403.855C1206.81 404.122 1206.17 404.256 1205.37 404.256ZM1205.93 402.082C1206.67 402.082 1207.29 401.889 1207.79 401.503C1208.3 401.111 1208.69 400.568 1208.95 399.875C1209.22 399.182 1209.35 398.375 1209.35 397.455C1209.35 396.545 1209.22 395.75 1208.96 395.068C1208.7 394.386 1208.31 393.855 1207.81 393.474C1207.3 393.094 1206.68 392.903 1205.93 392.903C1205.17 392.903 1204.53 393.102 1204.02 393.5C1203.5 393.898 1203.12 394.44 1202.86 395.128C1202.6 395.815 1202.47 396.591 1202.47 397.455C1202.47 398.33 1202.6 399.116 1202.87 399.815C1203.13 400.514 1203.51 401.068 1204.02 401.477C1204.54 401.881 1205.18 402.082 1205.93 402.082ZM1221.14 404.264C1219.85 404.264 1218.74 403.989 1217.8 403.438C1216.88 402.881 1216.16 402.099 1215.66 401.094C1215.16 400.082 1214.91 398.898 1214.91 397.54C1214.91 396.199 1215.16 395.017 1215.66 393.994C1216.16 392.972 1216.87 392.173 1217.77 391.599C1218.68 391.026 1219.74 390.739 1220.96 390.739C1221.7 390.739 1222.41 390.861 1223.11 391.105C1223.8 391.349 1224.42 391.733 1224.97 392.256C1225.52 392.778 1225.96 393.457 1226.28 394.293C1226.59 395.122 1226.75 396.131 1226.75 397.318V398.222H1216.35V396.312H1224.26C1224.26 395.642 1224.12 395.048 1223.85 394.531C1223.57 394.009 1223.19 393.597 1222.7 393.295C1222.21 392.994 1221.63 392.844 1220.97 392.844C1220.26 392.844 1219.63 393.02 1219.1 393.372C1218.57 393.719 1218.16 394.173 1217.87 394.736C1217.59 395.293 1217.45 395.898 1217.45 396.551V398.043C1217.45 398.918 1217.6 399.662 1217.91 400.276C1218.22 400.889 1218.65 401.358 1219.21 401.682C1219.77 402 1220.42 402.159 1221.16 402.159C1221.64 402.159 1222.09 402.091 1222.48 401.955C1222.88 401.812 1223.22 401.602 1223.51 401.324C1223.8 401.045 1224.03 400.702 1224.18 400.293L1226.59 400.727C1226.4 401.437 1226.05 402.06 1225.55 402.594C1225.06 403.122 1224.43 403.534 1223.68 403.83C1222.94 404.119 1222.09 404.264 1221.14 404.264ZM1235.07 409.182C1234.03 409.182 1233.13 409.045 1232.38 408.773C1231.64 408.5 1231.03 408.139 1230.56 407.69C1230.09 407.241 1229.74 406.75 1229.5 406.216L1231.69 405.312C1231.85 405.562 1232.05 405.827 1232.31 406.105C1232.57 406.389 1232.92 406.631 1233.36 406.83C1233.81 407.028 1234.39 407.128 1235.09 407.128C1236.06 407.128 1236.86 406.892 1237.49 406.42C1238.12 405.955 1238.44 405.21 1238.44 404.188V401.614H1238.27C1238.12 401.892 1237.9 402.202 1237.61 402.543C1237.32 402.884 1236.93 403.179 1236.43 403.429C1235.93 403.679 1235.28 403.804 1234.48 403.804C1233.45 403.804 1232.51 403.562 1231.69 403.08C1230.86 402.591 1230.21 401.872 1229.73 400.923C1229.25 399.969 1229.01 398.795 1229.01 397.403C1229.01 396.011 1229.25 394.818 1229.72 393.824C1230.19 392.83 1230.85 392.068 1231.68 391.54C1232.51 391.006 1233.45 390.739 1234.5 390.739C1235.31 390.739 1235.97 390.875 1236.47 391.148C1236.97 391.415 1237.36 391.727 1237.63 392.085C1237.92 392.443 1238.14 392.759 1238.29 393.031H1238.48V390.909H1240.98V404.29C1240.98 405.415 1240.71 406.338 1240.19 407.06C1239.67 407.781 1238.96 408.315 1238.07 408.662C1237.18 409.009 1236.18 409.182 1235.07 409.182ZM1235.04 401.69C1235.78 401.69 1236.4 401.52 1236.9 401.179C1237.41 400.832 1237.8 400.338 1238.06 399.696C1238.33 399.048 1238.46 398.273 1238.46 397.369C1238.46 396.489 1238.33 395.713 1238.07 395.043C1237.81 394.372 1237.42 393.849 1236.92 393.474C1236.41 393.094 1235.79 392.903 1235.04 392.903C1234.28 392.903 1233.64 393.102 1233.13 393.5C1232.61 393.892 1232.23 394.426 1231.97 395.102C1231.71 395.778 1231.58 396.534 1231.58 397.369C1231.58 398.227 1231.71 398.98 1231.98 399.628C1232.24 400.276 1232.62 400.781 1233.13 401.145C1233.65 401.509 1234.29 401.69 1235.04 401.69ZM1244.39 404V390.909H1246.86V392.989H1246.99C1247.23 392.284 1247.65 391.73 1248.25 391.327C1248.86 390.918 1249.55 390.713 1250.32 390.713C1250.48 390.713 1250.66 390.719 1250.88 390.73C1251.1 390.741 1251.27 390.756 1251.4 390.773V393.21C1251.3 393.182 1251.11 393.151 1250.85 393.116C1250.59 393.077 1250.33 393.057 1250.07 393.057C1249.47 393.057 1248.93 393.185 1248.46 393.44C1247.99 393.69 1247.62 394.04 1247.35 394.489C1247.08 394.932 1246.94 395.437 1246.94 396.006V404H1244.39ZM1258.78 404.264C1257.49 404.264 1256.38 403.989 1255.44 403.438C1254.52 402.881 1253.8 402.099 1253.3 401.094C1252.8 400.082 1252.55 398.898 1252.55 397.54C1252.55 396.199 1252.8 395.017 1253.3 393.994C1253.8 392.972 1254.51 392.173 1255.41 391.599C1256.32 391.026 1257.38 390.739 1258.6 390.739C1259.34 390.739 1260.05 390.861 1260.75 391.105C1261.44 391.349 1262.06 391.733 1262.61 392.256C1263.16 392.778 1263.6 393.457 1263.92 394.293C1264.23 395.122 1264.39 396.131 1264.39 397.318V398.222H1253.99V396.312H1261.9C1261.9 395.642 1261.76 395.048 1261.49 394.531C1261.21 394.009 1260.83 393.597 1260.34 393.295C1259.85 392.994 1259.27 392.844 1258.62 392.844C1257.9 392.844 1257.27 393.02 1256.74 393.372C1256.21 393.719 1255.8 394.173 1255.51 394.736C1255.23 395.293 1255.09 395.898 1255.09 396.551V398.043C1255.09 398.918 1255.24 399.662 1255.55 400.276C1255.86 400.889 1256.29 401.358 1256.85 401.682C1257.41 402 1258.06 402.159 1258.8 402.159C1259.29 402.159 1259.73 402.091 1260.12 401.955C1260.52 401.812 1260.87 401.602 1261.15 401.324C1261.44 401.045 1261.67 400.702 1261.82 400.293L1264.23 400.727C1264.04 401.437 1263.69 402.06 1263.19 402.594C1262.7 403.122 1262.08 403.534 1261.33 403.83C1260.58 404.119 1259.73 404.264 1258.78 404.264ZM1272.86 404.264C1271.57 404.264 1270.46 403.989 1269.53 403.438C1268.6 402.881 1267.89 402.099 1267.38 401.094C1266.88 400.082 1266.63 398.898 1266.63 397.54C1266.63 396.199 1266.88 395.017 1267.38 393.994C1267.89 392.972 1268.59 392.173 1269.5 391.599C1270.41 391.026 1271.47 390.739 1272.68 390.739C1273.42 390.739 1274.14 390.861 1274.83 391.105C1275.52 391.349 1276.15 391.733 1276.7 392.256C1277.25 392.778 1277.68 393.457 1278 394.293C1278.32 395.122 1278.48 396.131 1278.48 397.318V398.222H1268.07V396.312H1275.98C1275.98 395.642 1275.85 395.048 1275.57 394.531C1275.3 394.009 1274.92 393.597 1274.42 393.295C1273.93 392.994 1273.36 392.844 1272.7 392.844C1271.99 392.844 1271.36 393.02 1270.83 393.372C1270.3 393.719 1269.89 394.173 1269.6 394.736C1269.31 395.293 1269.17 395.898 1269.17 396.551V398.043C1269.17 398.918 1269.33 399.662 1269.63 400.276C1269.95 400.889 1270.38 401.358 1270.94 401.682C1271.49 402 1272.14 402.159 1272.89 402.159C1273.37 402.159 1273.81 402.091 1274.21 401.955C1274.61 401.812 1274.95 401.602 1275.24 401.324C1275.53 401.045 1275.75 400.702 1275.91 400.293L1278.32 400.727C1278.12 401.437 1277.78 402.06 1277.28 402.594C1276.78 403.122 1276.16 403.534 1275.41 403.83C1274.67 404.119 1273.82 404.264 1272.86 404.264ZM1291.12 394.105L1288.81 394.514C1288.71 394.219 1288.56 393.937 1288.35 393.67C1288.14 393.403 1287.86 393.185 1287.51 393.014C1287.16 392.844 1286.72 392.759 1286.19 392.759C1285.47 392.759 1284.87 392.92 1284.38 393.244C1283.9 393.562 1283.66 393.974 1283.66 394.48C1283.66 394.918 1283.82 395.27 1284.14 395.537C1284.47 395.804 1284.99 396.023 1285.71 396.193L1287.79 396.67C1289 396.949 1289.89 397.378 1290.49 397.957C1291.08 398.537 1291.37 399.29 1291.37 400.216C1291.37 401 1291.14 401.699 1290.69 402.312C1290.24 402.92 1289.61 403.398 1288.81 403.744C1288.01 404.091 1287.08 404.264 1286.02 404.264C1284.55 404.264 1283.36 403.952 1282.43 403.327C1281.51 402.696 1280.94 401.801 1280.73 400.642L1283.19 400.267C1283.34 400.909 1283.66 401.395 1284.14 401.724C1284.61 402.048 1285.24 402.21 1286 402.21C1286.84 402.21 1287.51 402.037 1288.01 401.69C1288.51 401.338 1288.76 400.909 1288.76 400.403C1288.76 399.994 1288.6 399.651 1288.3 399.372C1287.99 399.094 1287.53 398.884 1286.91 398.741L1284.69 398.256C1283.47 397.977 1282.57 397.534 1281.98 396.926C1281.4 396.318 1281.11 395.548 1281.11 394.616C1281.11 393.844 1281.33 393.168 1281.76 392.588C1282.19 392.009 1282.79 391.557 1283.55 391.233C1284.31 390.903 1285.18 390.739 1286.16 390.739C1287.58 390.739 1288.69 391.045 1289.51 391.659C1290.32 392.267 1290.86 393.082 1291.12 394.105Z" fill="#333333"/>
</svg>
