<svg width="1512" height="720" viewBox="0 0 1512 720" fill="none" xmlns="http://www.w3.org/2000/svg">
<g clip-path="url(#clip0_15283_31432)">
<rect width="756" height="360" transform="scale(2)" fill="#F2F2F2"/>
<g filter="url(#filter0_f_15283_31432)">
<circle cx="-27" cy="293" r="723" fill="white"/>
</g>
<path d="M1345.78 70.4668C1350.32 68.9533 1355 72.328 1355 77.1074V590.672C1355 595.506 1350.21 598.885 1345.66 597.268L987.658 470.18C984.866 469.188 983 466.547 983 463.584V196.688C983 193.676 984.927 191.001 987.783 190.047L1345.78 70.4668Z" stroke="#4D4D4D"/>
<path opacity="0.48" d="M996 207.451C996 203.967 998.254 200.884 1001.57 199.828L1323.57 97.3194C1328.73 95.6767 1334 99.5274 1334 104.942V560.895C1334 566.357 1328.65 570.213 1323.47 568.483L1001.47 460.965C998.202 459.875 996 456.819 996 453.377V207.451Z" fill="white"/>
<path d="M1153.97 259.219C1155.31 281.408 1156 303.774 1156 326.301C1156 351.167 1155.16 375.84 1153.53 400.293L56 330.652L1153.97 259.219Z" fill="#DADAFC"/>
<path d="M1151.58 216C1154.9 252.221 1156.6 288.912 1156.6 326C1156.6 368.559 1154.36 410.596 1150 452" stroke="#6D6DF3" stroke-dasharray="2 2"/>
<path d="M34.8725 409.022L3.89491 450.605C0.702484 463.239 -8.57719 473.439 -20.8329 477.822L-21.4822 478.065C-35.8481 483.205 -51.8914 479.499 -62.5508 468.623C-71.6682 459.316 -75.537 446.114 -72.9127 433.371L-40.2036 374.014L-49.3481 352.911C-57.248 334.704 -54.1908 313.601 -41.4211 298.396L-36.5783 292.634C-26.7576 280.919 -12.3105 274.074 2.97526 273.885L12.9854 273.777C22.4274 273.669 31.7612 276.104 39.9316 280.865C54.3787 289.252 63.983 304.024 65.7416 320.635C67.2025 334.46 68.7717 352.587 69.5562 372.499C71.2607 416.056 32.8704 417.598 16.0426 405.857" fill="#F3CEB3"/>
<path d="M66.3105 340.953C66.3105 340.953 79.8648 346.256 80 353.723C80.1083 361.163 65.3906 363.273 65.3906 363.273L66.3375 340.953H66.3105Z" fill="#F3CEB3"/>
<path d="M50.1613 332.322C49.8366 334.73 51.514 336.976 53.9219 337.301C56.3297 337.625 58.5482 335.948 58.8999 333.54C59.2245 331.132 57.5472 328.914 55.1393 328.562C52.7315 328.237 50.513 329.915 50.1613 332.322Z" fill="#404041"/>
<path d="M34.1435 411.89C34.1435 411.89 21.9419 409.401 9.52394 398.119C9.52394 398.119 8.41443 416.363 20.2141 428.95L34.1435 411.89Z" fill="#404041"/>
<path d="M60.8182 309.407C60.8182 309.407 50.9704 312.411 44.9102 319.58" stroke="#404041" stroke-width="2.02908" stroke-linecap="round" stroke-linejoin="round"/>
<path d="M39.8516 364.274C39.8516 364.274 46.9128 371.768 56.0301 374.014" stroke="#404041" stroke-width="2.02908" stroke-linecap="round" stroke-linejoin="round"/>
<path d="M25.9712 288.224C25.9712 288.224 39.1197 324.666 -5.70958 343.902C-5.70958 343.902 -16.5043 325.37 -30.248 332.945C-43.9917 340.52 -35.4966 358.241 -27.2991 363.3C-27.2991 363.3 -0.421631 404.234 -1.58498 467.568C-2.74832 530.903 -59.3733 542.644 -96.6543 515.644C-103.743 510.503 -109.749 503.956 -113.834 496.192C-118.027 488.265 -117.27 476.226 -122.978 469.462C-127.794 463.726 -133.962 467.27 -139.346 469.76C-148.22 473.872 -155.633 467.622 -155.985 458.288C-156.364 448.035 -149.627 438.674 -141.348 432.587C-133.178 426.581 -122.194 424.47 -114.429 418.302C-108.721 413.784 -105.339 405.559 -103.31 398.823C-98.4399 382.671 -82.9771 365.194 -82.9771 348.474C-82.9771 316.117 -68.99 272.235 -33.4134 263.794C-15.6656 259.573 28.1896 260.331 25.9982 288.224" fill="#404041"/>
<path d="M7.95312 265.174C7.95312 265.174 52.8635 257.842 65.3627 289.279L25.2409 307.243L15.4472 292.553L7.95312 265.174Z" fill="#404041"/>
<path d="M296.784 347H291.193L303.756 312.091H309.841L322.403 347H316.812L306.943 318.432H306.67L296.784 347ZM297.722 333.33H315.858V337.761H297.722V333.33ZM334.655 347.58C332.996 347.58 331.496 347.273 330.155 346.659C328.814 346.034 327.751 345.131 326.967 343.949C326.195 342.767 325.808 341.318 325.808 339.602C325.808 338.125 326.092 336.909 326.661 335.955C327.229 335 327.996 334.244 328.962 333.688C329.928 333.131 331.007 332.71 332.2 332.426C333.393 332.142 334.609 331.926 335.848 331.778C337.416 331.597 338.689 331.449 339.666 331.335C340.643 331.21 341.354 331.011 341.797 330.739C342.24 330.466 342.462 330.023 342.462 329.409V329.29C342.462 327.801 342.041 326.648 341.2 325.83C340.371 325.011 339.132 324.602 337.484 324.602C335.768 324.602 334.416 324.983 333.428 325.744C332.45 326.494 331.774 327.33 331.399 328.25L326.609 327.159C327.178 325.568 328.007 324.284 329.098 323.307C330.2 322.318 331.467 321.602 332.899 321.159C334.331 320.705 335.837 320.477 337.416 320.477C338.462 320.477 339.57 320.602 340.74 320.852C341.922 321.091 343.024 321.534 344.047 322.182C345.081 322.83 345.928 323.756 346.587 324.96C347.246 326.153 347.575 327.705 347.575 329.614V347H342.598V343.42H342.393C342.064 344.08 341.57 344.727 340.911 345.364C340.251 346 339.405 346.528 338.371 346.949C337.337 347.369 336.098 347.58 334.655 347.58ZM335.763 343.489C337.172 343.489 338.376 343.21 339.376 342.653C340.388 342.097 341.155 341.369 341.678 340.472C342.212 339.562 342.479 338.591 342.479 337.557V334.182C342.297 334.364 341.945 334.534 341.422 334.693C340.911 334.841 340.325 334.972 339.666 335.085C339.007 335.187 338.365 335.284 337.74 335.375C337.115 335.455 336.592 335.523 336.172 335.58C335.183 335.705 334.28 335.915 333.462 336.21C332.655 336.506 332.007 336.932 331.518 337.489C331.041 338.034 330.803 338.761 330.803 339.67C330.803 340.932 331.268 341.886 332.2 342.534C333.132 343.17 334.32 343.489 335.763 343.489Z" fill="#4848F0"/>
<path d="M663.568 363H652.386L677.511 293.182H689.682L714.807 363H703.625L683.886 305.864H683.341L663.568 363ZM665.443 335.659H701.716V344.523H665.443V335.659ZM738.35 364.159C735.031 364.159 732.031 363.545 729.35 362.318C726.668 361.068 724.543 359.261 722.975 356.898C721.429 354.534 720.656 351.636 720.656 348.205C720.656 345.25 721.225 342.818 722.361 340.909C723.497 339 725.031 337.489 726.963 336.375C728.895 335.261 731.054 334.42 733.441 333.852C735.827 333.284 738.259 332.852 740.736 332.557C743.872 332.193 746.418 331.898 748.372 331.67C750.327 331.42 751.747 331.023 752.634 330.477C753.52 329.932 753.963 329.045 753.963 327.818V327.58C753.963 324.602 753.122 322.295 751.441 320.659C749.781 319.023 747.304 318.205 744.009 318.205C740.577 318.205 737.872 318.966 735.895 320.489C733.941 321.989 732.588 323.659 731.838 325.5L722.259 323.318C723.395 320.136 725.054 317.568 727.236 315.614C729.441 313.636 731.975 312.205 734.838 311.318C737.702 310.409 740.713 309.955 743.872 309.955C745.963 309.955 748.179 310.205 750.52 310.705C752.884 311.182 755.088 312.068 757.134 313.364C759.202 314.659 760.895 316.511 762.213 318.92C763.531 321.307 764.191 324.409 764.191 328.227V363H754.236V355.841H753.827C753.168 357.159 752.179 358.455 750.861 359.727C749.543 361 747.85 362.057 745.781 362.898C743.713 363.739 741.236 364.159 738.35 364.159ZM740.566 355.977C743.384 355.977 745.793 355.42 747.793 354.307C749.816 353.193 751.35 351.739 752.395 349.943C753.463 348.125 753.997 346.182 753.997 344.114V337.364C753.634 337.727 752.929 338.068 751.884 338.386C750.861 338.682 749.691 338.943 748.372 339.17C747.054 339.375 745.77 339.568 744.52 339.75C743.27 339.909 742.225 340.045 741.384 340.159C739.406 340.409 737.6 340.83 735.963 341.42C734.35 342.011 733.054 342.864 732.077 343.977C731.122 345.068 730.645 346.523 730.645 348.341C730.645 350.864 731.577 352.773 733.441 354.068C735.304 355.341 737.679 355.977 740.566 355.977Z" fill="#4848F0"/>
<path d="M174.523 341H170.795L179.17 317.727H183.227L191.602 341H187.875L181.295 321.955H181.114L174.523 341ZM175.148 331.886H187.239V334.841H175.148V331.886ZM200.41 341.386C199.304 341.386 198.304 341.182 197.41 340.773C196.516 340.356 195.808 339.754 195.285 338.966C194.77 338.178 194.512 337.212 194.512 336.068C194.512 335.083 194.702 334.273 195.08 333.636C195.459 333 195.97 332.496 196.614 332.125C197.258 331.754 197.978 331.473 198.774 331.284C199.569 331.095 200.38 330.951 201.205 330.852C202.251 330.731 203.099 330.633 203.751 330.557C204.402 330.473 204.876 330.341 205.171 330.159C205.467 329.977 205.614 329.682 205.614 329.273V329.193C205.614 328.201 205.334 327.432 204.774 326.886C204.22 326.341 203.395 326.068 202.296 326.068C201.152 326.068 200.251 326.322 199.592 326.83C198.94 327.33 198.489 327.886 198.239 328.5L195.046 327.773C195.425 326.712 195.978 325.856 196.705 325.205C197.44 324.545 198.285 324.068 199.239 323.773C200.194 323.47 201.198 323.318 202.251 323.318C202.948 323.318 203.686 323.402 204.467 323.568C205.255 323.727 205.989 324.023 206.671 324.455C207.361 324.886 207.925 325.504 208.364 326.307C208.804 327.102 209.024 328.136 209.024 329.409V341H205.705V338.614H205.569C205.349 339.053 205.02 339.485 204.58 339.909C204.141 340.333 203.577 340.686 202.887 340.966C202.198 341.246 201.372 341.386 200.41 341.386ZM201.149 338.659C202.088 338.659 202.891 338.473 203.558 338.102C204.232 337.731 204.743 337.246 205.092 336.648C205.448 336.042 205.626 335.394 205.626 334.705V332.455C205.505 332.576 205.27 332.689 204.921 332.795C204.58 332.894 204.19 332.981 203.751 333.057C203.311 333.125 202.883 333.189 202.467 333.25C202.05 333.303 201.702 333.348 201.421 333.386C200.762 333.47 200.16 333.61 199.614 333.807C199.077 334.004 198.645 334.288 198.319 334.659C198.001 335.023 197.842 335.508 197.842 336.114C197.842 336.955 198.152 337.591 198.774 338.023C199.395 338.447 200.186 338.659 201.149 338.659Z" fill="#4848F0"/>
<path d="M192 470L182 464.226L182 475.774L192 470ZM56.6667 470C56.6667 472.946 59.0545 475.333 62 475.333C64.9455 475.333 67.3333 472.946 67.3333 470C67.3333 467.054 64.9455 464.667 62 464.667C59.0545 464.667 56.6667 467.054 56.6667 470ZM183 470L183 469L62 469V470V471L183 471L183 470Z" fill="#4D4D4D"/>
<path d="M712 598L702 592.227L702 603.774L712 598ZM56.6667 598C56.6667 600.946 59.0545 603.333 62 603.333C64.9455 603.333 67.3333 600.946 67.3333 598C67.3333 595.054 64.9455 592.667 62 592.667C59.0545 592.667 56.6667 595.054 56.6667 598ZM703 598L703 597L62 597L62 598L62 599L703 599L703 598Z" fill="#4D4D4D"/>
<path d="M730.404 592V574.545H734.094V588.957H741.577V592H730.404ZM747.686 592.247C746.85 592.247 746.106 592.102 745.453 591.812C744.799 591.517 744.282 591.082 743.902 590.509C743.527 589.929 743.339 589.207 743.339 588.344C743.339 587.616 743.473 587.006 743.74 586.511C744.007 586.017 744.37 585.619 744.831 585.318C745.291 585.017 745.814 584.79 746.399 584.636C746.99 584.483 747.609 584.375 748.257 584.312C749.018 584.233 749.632 584.159 750.098 584.091C750.564 584.017 750.902 583.909 751.112 583.767C751.322 583.625 751.427 583.415 751.427 583.136V583.085C751.427 582.545 751.257 582.128 750.916 581.832C750.581 581.537 750.103 581.389 749.484 581.389C748.831 581.389 748.311 581.534 747.924 581.824C747.538 582.108 747.282 582.466 747.157 582.898L743.799 582.625C743.97 581.83 744.305 581.142 744.805 580.562C745.305 579.977 745.95 579.528 746.74 579.216C747.535 578.898 748.456 578.739 749.501 578.739C750.228 578.739 750.924 578.824 751.589 578.994C752.26 579.165 752.853 579.429 753.37 579.787C753.893 580.145 754.305 580.605 754.606 581.168C754.907 581.724 755.058 582.392 755.058 583.17V592H751.615V590.185H751.512C751.302 590.594 751.021 590.955 750.669 591.267C750.316 591.574 749.893 591.815 749.399 591.991C748.904 592.162 748.333 592.247 747.686 592.247ZM748.725 589.741C749.26 589.741 749.731 589.636 750.14 589.426C750.549 589.21 750.87 588.92 751.103 588.557C751.336 588.193 751.453 587.781 751.453 587.321V585.932C751.339 586.006 751.183 586.074 750.984 586.136C750.791 586.193 750.572 586.247 750.328 586.298C750.083 586.344 749.839 586.386 749.595 586.426C749.35 586.46 749.129 586.491 748.93 586.52C748.504 586.582 748.132 586.682 747.814 586.818C747.495 586.955 747.248 587.139 747.072 587.372C746.896 587.599 746.808 587.884 746.808 588.224C746.808 588.719 746.987 589.097 747.345 589.358C747.708 589.614 748.169 589.741 748.725 589.741ZM757.875 592V578.909H761.395V581.193H761.531C761.77 580.381 762.17 579.767 762.733 579.352C763.295 578.932 763.943 578.722 764.676 578.722C764.858 578.722 765.054 578.733 765.264 578.756C765.474 578.778 765.659 578.81 765.818 578.849V582.071C765.647 582.02 765.412 581.974 765.11 581.935C764.809 581.895 764.534 581.875 764.284 581.875C763.75 581.875 763.272 581.991 762.852 582.224C762.437 582.452 762.108 582.77 761.863 583.179C761.625 583.588 761.505 584.06 761.505 584.594V592H757.875ZM772.983 597.182C771.807 597.182 770.799 597.02 769.958 596.696C769.123 596.378 768.458 595.943 767.963 595.392C767.469 594.841 767.148 594.222 767 593.534L770.358 593.082C770.461 593.344 770.623 593.588 770.844 593.815C771.066 594.043 771.358 594.224 771.722 594.361C772.091 594.503 772.54 594.574 773.069 594.574C773.858 594.574 774.509 594.381 775.02 593.994C775.537 593.614 775.796 592.974 775.796 592.077V589.682H775.642C775.483 590.045 775.245 590.389 774.926 590.713C774.608 591.037 774.199 591.301 773.699 591.506C773.199 591.71 772.603 591.812 771.909 591.812C770.926 591.812 770.032 591.585 769.225 591.131C768.424 590.67 767.784 589.969 767.307 589.026C766.836 588.077 766.6 586.878 766.6 585.429C766.6 583.946 766.841 582.707 767.324 581.713C767.807 580.719 768.449 579.974 769.25 579.48C770.057 578.986 770.941 578.739 771.901 578.739C772.634 578.739 773.248 578.864 773.742 579.114C774.236 579.358 774.634 579.665 774.935 580.034C775.242 580.398 775.478 580.756 775.642 581.108H775.779V578.909H779.384V592.128C779.384 593.241 779.111 594.173 778.566 594.923C778.02 595.673 777.265 596.236 776.299 596.611C775.338 596.991 774.233 597.182 772.983 597.182ZM773.06 589.085C773.645 589.085 774.14 588.94 774.543 588.651C774.952 588.355 775.265 587.935 775.48 587.389C775.702 586.838 775.813 586.179 775.813 585.412C775.813 584.645 775.705 583.98 775.489 583.418C775.273 582.849 774.961 582.409 774.551 582.097C774.142 581.784 773.645 581.628 773.06 581.628C772.463 581.628 771.961 581.79 771.551 582.114C771.142 582.432 770.833 582.875 770.623 583.443C770.412 584.011 770.307 584.668 770.307 585.412C770.307 586.168 770.412 586.821 770.623 587.372C770.838 587.918 771.148 588.341 771.551 588.642C771.961 588.937 772.463 589.085 773.06 589.085ZM788.239 592.256C786.892 592.256 785.733 591.983 784.762 591.438C783.796 590.886 783.051 590.108 782.529 589.102C782.006 588.091 781.745 586.895 781.745 585.514C781.745 584.168 782.006 582.986 782.529 581.969C783.051 580.952 783.787 580.159 784.736 579.591C785.691 579.023 786.81 578.739 788.094 578.739C788.958 578.739 789.762 578.878 790.506 579.156C791.256 579.429 791.909 579.841 792.466 580.392C793.029 580.943 793.466 581.636 793.779 582.472C794.091 583.301 794.248 584.273 794.248 585.386V586.384H783.194V584.134H790.83C790.83 583.611 790.716 583.148 790.489 582.744C790.262 582.341 789.946 582.026 789.543 581.798C789.145 581.565 788.682 581.449 788.154 581.449C787.603 581.449 787.114 581.577 786.688 581.832C786.267 582.082 785.938 582.42 785.699 582.847C785.461 583.267 785.338 583.736 785.333 584.253V586.392C785.333 587.04 785.452 587.599 785.691 588.071C785.935 588.543 786.279 588.906 786.722 589.162C787.165 589.418 787.691 589.545 788.299 589.545C788.702 589.545 789.071 589.489 789.407 589.375C789.742 589.261 790.029 589.091 790.267 588.864C790.506 588.636 790.688 588.358 790.813 588.028L794.171 588.25C794 589.057 793.651 589.761 793.123 590.364C792.6 590.96 791.924 591.426 791.094 591.761C790.27 592.091 789.319 592.256 788.239 592.256ZM813.064 582.642L809.74 582.847C809.683 582.562 809.561 582.307 809.373 582.08C809.186 581.847 808.939 581.662 808.632 581.526C808.331 581.384 807.97 581.312 807.549 581.312C806.987 581.312 806.512 581.432 806.126 581.67C805.74 581.903 805.547 582.216 805.547 582.608C805.547 582.92 805.672 583.185 805.922 583.401C806.172 583.616 806.6 583.79 807.208 583.92L809.578 584.398C810.85 584.659 811.799 585.08 812.424 585.659C813.049 586.239 813.362 587 813.362 587.943C813.362 588.801 813.109 589.554 812.603 590.202C812.103 590.849 811.416 591.355 810.541 591.719C809.672 592.077 808.669 592.256 807.532 592.256C805.799 592.256 804.419 591.895 803.39 591.173C802.368 590.446 801.768 589.457 801.592 588.207L805.163 588.02C805.271 588.548 805.532 588.952 805.947 589.23C806.362 589.503 806.893 589.639 807.541 589.639C808.177 589.639 808.689 589.517 809.075 589.273C809.467 589.023 809.666 588.702 809.672 588.31C809.666 587.98 809.527 587.71 809.254 587.5C808.981 587.284 808.561 587.119 807.993 587.006L805.725 586.554C804.447 586.298 803.495 585.855 802.87 585.224C802.251 584.594 801.941 583.79 801.941 582.812C801.941 581.972 802.169 581.247 802.623 580.639C803.083 580.031 803.728 579.562 804.558 579.233C805.393 578.903 806.37 578.739 807.49 578.739C809.143 578.739 810.444 579.088 811.393 579.787C812.348 580.486 812.904 581.437 813.064 582.642ZM821.563 592.256C820.222 592.256 819.069 591.972 818.103 591.403C817.142 590.83 816.404 590.034 815.887 589.017C815.375 588 815.12 586.83 815.12 585.506C815.12 584.165 815.378 582.989 815.895 581.977C816.418 580.96 817.159 580.168 818.12 579.599C819.08 579.026 820.222 578.739 821.546 578.739C822.688 578.739 823.688 578.946 824.546 579.361C825.404 579.776 826.083 580.358 826.583 581.108C827.083 581.858 827.358 582.739 827.409 583.75H823.983C823.887 583.097 823.631 582.571 823.216 582.173C822.807 581.77 822.27 581.568 821.605 581.568C821.043 581.568 820.551 581.722 820.131 582.028C819.716 582.33 819.392 582.77 819.159 583.349C818.926 583.929 818.81 584.631 818.81 585.455C818.81 586.29 818.924 587 819.151 587.585C819.384 588.17 819.711 588.616 820.131 588.923C820.551 589.23 821.043 589.384 821.605 589.384C822.02 589.384 822.392 589.298 822.722 589.128C823.057 588.957 823.333 588.71 823.549 588.386C823.77 588.057 823.915 587.662 823.983 587.202H827.409C827.353 588.202 827.08 589.082 826.591 589.844C826.108 590.599 825.441 591.19 824.588 591.616C823.736 592.043 822.728 592.256 821.563 592.256ZM829.734 592V578.909H833.254V581.193H833.39C833.629 580.381 834.029 579.767 834.592 579.352C835.154 578.932 835.802 578.722 836.535 578.722C836.717 578.722 836.913 578.733 837.123 578.756C837.333 578.778 837.518 578.81 837.677 578.849V582.071C837.507 582.02 837.271 581.974 836.97 581.935C836.669 581.895 836.393 581.875 836.143 581.875C835.609 581.875 835.132 581.991 834.711 582.224C834.297 582.452 833.967 582.77 833.723 583.179C833.484 583.588 833.365 584.06 833.365 584.594V592H829.734ZM844.911 592.256C843.564 592.256 842.405 591.983 841.434 591.438C840.468 590.886 839.723 590.108 839.201 589.102C838.678 588.091 838.417 586.895 838.417 585.514C838.417 584.168 838.678 582.986 839.201 581.969C839.723 580.952 840.459 580.159 841.408 579.591C842.363 579.023 843.482 578.739 844.766 578.739C845.63 578.739 846.434 578.878 847.178 579.156C847.928 579.429 848.581 579.841 849.138 580.392C849.701 580.943 850.138 581.636 850.451 582.472C850.763 583.301 850.919 584.273 850.919 585.386V586.384H839.865V584.134H847.502C847.502 583.611 847.388 583.148 847.161 582.744C846.934 582.341 846.618 582.026 846.215 581.798C845.817 581.565 845.354 581.449 844.826 581.449C844.275 581.449 843.786 581.577 843.36 581.832C842.939 582.082 842.61 582.42 842.371 582.847C842.132 583.267 842.01 583.736 842.005 584.253V586.392C842.005 587.04 842.124 587.599 842.363 588.071C842.607 588.543 842.951 588.906 843.394 589.162C843.837 589.418 844.363 589.545 844.971 589.545C845.374 589.545 845.743 589.489 846.078 589.375C846.414 589.261 846.701 589.091 846.939 588.864C847.178 588.636 847.36 588.358 847.485 588.028L850.843 588.25C850.672 589.057 850.323 589.761 849.794 590.364C849.272 590.96 848.596 591.426 847.766 591.761C846.942 592.091 845.99 592.256 844.911 592.256ZM859.255 592.256C857.908 592.256 856.749 591.983 855.777 591.438C854.811 590.886 854.067 590.108 853.544 589.102C853.022 588.091 852.76 586.895 852.76 585.514C852.76 584.168 853.022 582.986 853.544 581.969C854.067 580.952 854.803 580.159 855.752 579.591C856.706 579.023 857.826 578.739 859.11 578.739C859.973 578.739 860.777 578.878 861.522 579.156C862.272 579.429 862.925 579.841 863.482 580.392C864.044 580.943 864.482 581.636 864.794 582.472C865.107 583.301 865.263 584.273 865.263 585.386V586.384H854.209V584.134H861.846C861.846 583.611 861.732 583.148 861.505 582.744C861.277 582.341 860.962 582.026 860.559 581.798C860.161 581.565 859.698 581.449 859.169 581.449C858.618 581.449 858.13 581.577 857.703 581.832C857.283 582.082 856.953 582.42 856.715 582.847C856.476 583.267 856.354 583.736 856.348 584.253V586.392C856.348 587.04 856.468 587.599 856.706 588.071C856.951 588.543 857.294 588.906 857.738 589.162C858.181 589.418 858.706 589.545 859.314 589.545C859.718 589.545 860.087 589.489 860.422 589.375C860.757 589.261 861.044 589.091 861.283 588.864C861.522 588.636 861.703 588.358 861.828 588.028L865.186 588.25C865.016 589.057 864.667 589.761 864.138 590.364C863.615 590.96 862.939 591.426 862.11 591.761C861.286 592.091 860.334 592.256 859.255 592.256ZM871.263 584.432V592H867.632V578.909H871.093V581.219H871.246C871.536 580.457 872.022 579.855 872.703 579.412C873.385 578.963 874.212 578.739 875.184 578.739C876.093 578.739 876.885 578.938 877.561 579.335C878.238 579.733 878.763 580.301 879.138 581.04C879.513 581.773 879.701 582.648 879.701 583.665V592H876.07V584.312C876.076 583.511 875.871 582.886 875.456 582.438C875.042 581.983 874.471 581.756 873.743 581.756C873.255 581.756 872.823 581.861 872.448 582.071C872.078 582.281 871.789 582.588 871.578 582.991C871.374 583.389 871.269 583.869 871.263 584.432Z" fill="#333333"/>
<path d="M413.607 522V504.545H417.297V518.957H424.78V522H413.607ZM430.889 522.247C430.054 522.247 429.309 522.102 428.656 521.812C428.002 521.517 427.485 521.082 427.105 520.509C426.73 519.929 426.542 519.207 426.542 518.344C426.542 517.616 426.676 517.006 426.943 516.511C427.21 516.017 427.574 515.619 428.034 515.318C428.494 515.017 429.017 514.79 429.602 514.636C430.193 514.483 430.812 514.375 431.46 514.312C432.221 514.233 432.835 514.159 433.301 514.091C433.767 514.017 434.105 513.909 434.315 513.767C434.525 513.625 434.63 513.415 434.63 513.136V513.085C434.63 512.545 434.46 512.128 434.119 511.832C433.784 511.537 433.306 511.389 432.687 511.389C432.034 511.389 431.514 511.534 431.127 511.824C430.741 512.108 430.485 512.466 430.36 512.898L427.002 512.625C427.173 511.83 427.508 511.142 428.008 510.562C428.508 509.977 429.153 509.528 429.943 509.216C430.738 508.898 431.659 508.739 432.704 508.739C433.431 508.739 434.127 508.824 434.792 508.994C435.463 509.165 436.056 509.429 436.574 509.787C437.096 510.145 437.508 510.605 437.809 511.168C438.11 511.724 438.261 512.392 438.261 513.17V522H434.818V520.185H434.716C434.505 520.594 434.224 520.955 433.872 521.267C433.52 521.574 433.096 521.815 432.602 521.991C432.108 522.162 431.537 522.247 430.889 522.247ZM431.929 519.741C432.463 519.741 432.934 519.636 433.343 519.426C433.752 519.21 434.074 518.92 434.306 518.557C434.539 518.193 434.656 517.781 434.656 517.321V515.932C434.542 516.006 434.386 516.074 434.187 516.136C433.994 516.193 433.775 516.247 433.531 516.298C433.287 516.344 433.042 516.386 432.798 516.426C432.554 516.46 432.332 516.491 432.133 516.52C431.707 516.582 431.335 516.682 431.017 516.818C430.699 516.955 430.451 517.139 430.275 517.372C430.099 517.599 430.011 517.884 430.011 518.224C430.011 518.719 430.19 519.097 430.548 519.358C430.912 519.614 431.372 519.741 431.929 519.741ZM441.078 526.909V508.909H444.657V511.108H444.819C444.978 510.756 445.208 510.398 445.51 510.034C445.816 509.665 446.214 509.358 446.703 509.114C447.197 508.864 447.811 508.739 448.544 508.739C449.498 508.739 450.379 508.989 451.186 509.489C451.993 509.983 452.637 510.73 453.12 511.73C453.603 512.724 453.845 513.972 453.845 515.472C453.845 516.932 453.609 518.165 453.137 519.17C452.672 520.17 452.035 520.929 451.228 521.446C450.427 521.957 449.529 522.213 448.535 522.213C447.831 522.213 447.231 522.097 446.737 521.864C446.248 521.631 445.848 521.338 445.535 520.986C445.223 520.628 444.984 520.267 444.819 519.903H444.708V526.909H441.078ZM444.632 515.455C444.632 516.233 444.74 516.912 444.956 517.491C445.172 518.071 445.484 518.523 445.893 518.847C446.302 519.165 446.799 519.324 447.385 519.324C447.975 519.324 448.475 519.162 448.885 518.838C449.294 518.509 449.603 518.054 449.814 517.474C450.029 516.889 450.137 516.216 450.137 515.455C450.137 514.699 450.032 514.034 449.822 513.46C449.612 512.886 449.302 512.437 448.893 512.114C448.484 511.79 447.981 511.628 447.385 511.628C446.794 511.628 446.294 511.784 445.885 512.097C445.481 512.409 445.172 512.852 444.956 513.426C444.74 514 444.632 514.676 444.632 515.455ZM463.228 508.909V511.636H455.345V508.909H463.228ZM457.135 505.773H460.765V517.977C460.765 518.312 460.816 518.574 460.919 518.761C461.021 518.943 461.163 519.071 461.345 519.145C461.532 519.219 461.748 519.256 461.993 519.256C462.163 519.256 462.333 519.241 462.504 519.213C462.674 519.179 462.805 519.153 462.896 519.136L463.467 521.838C463.285 521.895 463.029 521.96 462.7 522.034C462.37 522.114 461.97 522.162 461.498 522.179C460.623 522.213 459.856 522.097 459.197 521.83C458.544 521.562 458.035 521.148 457.672 520.585C457.308 520.023 457.129 519.312 457.135 518.455V505.773ZM471.368 522.256C470.044 522.256 468.899 521.974 467.933 521.412C466.973 520.844 466.231 520.054 465.708 519.043C465.186 518.026 464.924 516.847 464.924 515.506C464.924 514.153 465.186 512.972 465.708 511.96C466.231 510.943 466.973 510.153 467.933 509.591C468.899 509.023 470.044 508.739 471.368 508.739C472.691 508.739 473.833 509.023 474.794 509.591C475.76 510.153 476.504 510.943 477.027 511.96C477.549 512.972 477.811 514.153 477.811 515.506C477.811 516.847 477.549 518.026 477.027 519.043C476.504 520.054 475.76 520.844 474.794 521.412C473.833 521.974 472.691 522.256 471.368 522.256ZM471.385 519.443C471.987 519.443 472.49 519.273 472.893 518.932C473.297 518.585 473.6 518.114 473.805 517.517C474.015 516.92 474.12 516.241 474.12 515.48C474.12 514.719 474.015 514.04 473.805 513.443C473.6 512.847 473.297 512.375 472.893 512.028C472.49 511.682 471.987 511.509 471.385 511.509C470.777 511.509 470.265 511.682 469.85 512.028C469.441 512.375 469.132 512.847 468.922 513.443C468.717 514.04 468.615 514.719 468.615 515.48C468.615 516.241 468.717 516.92 468.922 517.517C469.132 518.114 469.441 518.585 469.85 518.932C470.265 519.273 470.777 519.443 471.385 519.443ZM480.172 526.909V508.909H483.751V511.108H483.913C484.072 510.756 484.302 510.398 484.603 510.034C484.91 509.665 485.308 509.358 485.797 509.114C486.291 508.864 486.904 508.739 487.637 508.739C488.592 508.739 489.473 508.989 490.279 509.489C491.086 509.983 491.731 510.73 492.214 511.73C492.697 512.724 492.939 513.972 492.939 515.472C492.939 516.932 492.703 518.165 492.231 519.17C491.765 520.17 491.129 520.929 490.322 521.446C489.521 521.957 488.623 522.213 487.629 522.213C486.924 522.213 486.325 522.097 485.831 521.864C485.342 521.631 484.941 521.338 484.629 520.986C484.316 520.628 484.078 520.267 483.913 519.903H483.802V526.909H480.172ZM483.725 515.455C483.725 516.233 483.833 516.912 484.049 517.491C484.265 518.071 484.578 518.523 484.987 518.847C485.396 519.165 485.893 519.324 486.478 519.324C487.069 519.324 487.569 519.162 487.978 518.838C488.387 518.509 488.697 518.054 488.907 517.474C489.123 516.889 489.231 516.216 489.231 515.455C489.231 514.699 489.126 514.034 488.916 513.46C488.706 512.886 488.396 512.437 487.987 512.114C487.578 511.79 487.075 511.628 486.478 511.628C485.887 511.628 485.387 511.784 484.978 512.097C484.575 512.409 484.265 512.852 484.049 513.426C483.833 514 483.725 514.676 483.725 515.455Z" fill="#333333"/>
<path d="M211.837 442.545H216.388L221.195 454.273H221.4L226.207 442.545H230.758V460H227.178V448.639H227.033L222.516 459.915H220.079L215.562 448.597H215.417V460H211.837V442.545ZM239.645 460.256C238.321 460.256 237.176 459.974 236.21 459.412C235.25 458.844 234.509 458.054 233.986 457.043C233.463 456.026 233.202 454.847 233.202 453.506C233.202 452.153 233.463 450.972 233.986 449.96C234.509 448.943 235.25 448.153 236.21 447.591C237.176 447.023 238.321 446.739 239.645 446.739C240.969 446.739 242.111 447.023 243.071 447.591C244.037 448.153 244.781 448.943 245.304 449.96C245.827 450.972 246.088 452.153 246.088 453.506C246.088 454.847 245.827 456.026 245.304 457.043C244.781 458.054 244.037 458.844 243.071 459.412C242.111 459.974 240.969 460.256 239.645 460.256ZM239.662 457.443C240.264 457.443 240.767 457.273 241.17 456.932C241.574 456.585 241.878 456.114 242.082 455.517C242.293 454.92 242.398 454.241 242.398 453.48C242.398 452.719 242.293 452.04 242.082 451.443C241.878 450.847 241.574 450.375 241.17 450.028C240.767 449.682 240.264 449.509 239.662 449.509C239.054 449.509 238.543 449.682 238.128 450.028C237.719 450.375 237.409 450.847 237.199 451.443C236.994 452.04 236.892 452.719 236.892 453.48C236.892 454.241 236.994 454.92 237.199 455.517C237.409 456.114 237.719 456.585 238.128 456.932C238.543 457.273 239.054 457.443 239.662 457.443ZM248.517 460V442.545H252.148V449.108H252.259C252.418 448.756 252.648 448.398 252.949 448.034C253.256 447.665 253.653 447.358 254.142 447.114C254.636 446.864 255.25 446.739 255.983 446.739C256.938 446.739 257.818 446.989 258.625 447.489C259.432 447.983 260.077 448.73 260.56 449.73C261.043 450.724 261.284 451.972 261.284 453.472C261.284 454.932 261.048 456.165 260.577 457.17C260.111 458.17 259.474 458.929 258.668 459.446C257.866 459.957 256.969 460.213 255.974 460.213C255.27 460.213 254.67 460.097 254.176 459.864C253.688 459.631 253.287 459.338 252.974 458.986C252.662 458.628 252.423 458.267 252.259 457.903H252.097V460H248.517ZM252.071 453.455C252.071 454.233 252.179 454.912 252.395 455.491C252.611 456.071 252.923 456.523 253.332 456.847C253.741 457.165 254.239 457.324 254.824 457.324C255.415 457.324 255.915 457.162 256.324 456.838C256.733 456.509 257.043 456.054 257.253 455.474C257.469 454.889 257.577 454.216 257.577 453.455C257.577 452.699 257.472 452.034 257.261 451.46C257.051 450.886 256.741 450.437 256.332 450.114C255.923 449.79 255.42 449.628 254.824 449.628C254.233 449.628 253.733 449.784 253.324 450.097C252.92 450.409 252.611 450.852 252.395 451.426C252.179 452 252.071 452.676 252.071 453.455ZM263.707 460V446.909H267.337V460H263.707ZM265.531 445.222C264.991 445.222 264.528 445.043 264.141 444.685C263.761 444.321 263.57 443.886 263.57 443.381C263.57 442.881 263.761 442.452 264.141 442.094C264.528 441.73 264.991 441.548 265.531 441.548C266.07 441.548 266.531 441.73 266.911 442.094C267.298 442.452 267.491 442.881 267.491 443.381C267.491 443.886 267.298 444.321 266.911 444.685C266.531 445.043 266.07 445.222 265.531 445.222ZM273.876 442.545V460H270.246V442.545H273.876ZM282.751 460.256C281.404 460.256 280.245 459.983 279.273 459.438C278.308 458.886 277.563 458.108 277.04 457.102C276.518 456.091 276.256 454.895 276.256 453.514C276.256 452.168 276.518 450.986 277.04 449.969C277.563 448.952 278.299 448.159 279.248 447.591C280.202 447.023 281.322 446.739 282.606 446.739C283.469 446.739 284.273 446.878 285.018 447.156C285.768 447.429 286.421 447.841 286.978 448.392C287.54 448.943 287.978 449.636 288.29 450.472C288.603 451.301 288.759 452.273 288.759 453.386V454.384H277.705V452.134H285.342C285.342 451.611 285.228 451.148 285.001 450.744C284.773 450.341 284.458 450.026 284.055 449.798C283.657 449.565 283.194 449.449 282.665 449.449C282.114 449.449 281.626 449.577 281.2 449.832C280.779 450.082 280.45 450.42 280.211 450.847C279.972 451.267 279.85 451.736 279.844 452.253V454.392C279.844 455.04 279.964 455.599 280.202 456.071C280.447 456.543 280.79 456.906 281.234 457.162C281.677 457.418 282.202 457.545 282.81 457.545C283.214 457.545 283.583 457.489 283.918 457.375C284.254 457.261 284.54 457.091 284.779 456.864C285.018 456.636 285.2 456.358 285.325 456.028L288.683 456.25C288.512 457.057 288.163 457.761 287.634 458.364C287.112 458.96 286.435 459.426 285.606 459.761C284.782 460.091 283.83 460.256 282.751 460.256Z" fill="#333333"/>
<path d="M750.678 629.545V627.636H761.656V629.545H750.678ZM761.656 622.318L750.678 626.273V624.193L758.349 621.67L758.281 621.807V621.466L758.349 621.602L750.678 619.08V617L761.656 620.955V622.318ZM778.771 614.545V632H776.658V616.761H776.555L772.294 619.591V617.443L776.658 614.545H778.771ZM784.26 632.136C783.839 632.136 783.479 631.986 783.178 631.685C782.876 631.384 782.726 631.023 782.726 630.602C782.726 630.182 782.876 629.821 783.178 629.52C783.479 629.219 783.839 629.068 784.26 629.068C784.68 629.068 785.041 629.219 785.342 629.52C785.643 629.821 785.794 630.182 785.794 630.602C785.794 630.881 785.723 631.136 785.581 631.369C785.445 631.602 785.26 631.79 785.027 631.932C784.8 632.068 784.544 632.136 784.26 632.136ZM794.472 632.239C793.472 632.239 792.572 632.04 791.771 631.642C790.969 631.244 790.327 630.699 789.844 630.006C789.362 629.312 789.097 628.523 789.052 627.636H791.097C791.177 628.426 791.535 629.08 792.171 629.597C792.813 630.108 793.58 630.364 794.472 630.364C795.188 630.364 795.825 630.196 796.381 629.861C796.944 629.526 797.384 629.065 797.702 628.48C798.026 627.889 798.188 627.222 798.188 626.477C798.188 625.716 798.021 625.037 797.685 624.44C797.356 623.838 796.901 623.364 796.322 623.017C795.742 622.67 795.08 622.494 794.336 622.489C793.802 622.483 793.254 622.565 792.691 622.736C792.129 622.901 791.665 623.114 791.302 623.375L789.325 623.136L790.381 614.545H799.45V616.42H792.154L791.54 621.568H791.643C792.001 621.284 792.45 621.048 792.989 620.861C793.529 620.673 794.092 620.58 794.677 620.58C795.745 620.58 796.697 620.835 797.532 621.347C798.373 621.852 799.032 622.545 799.509 623.426C799.992 624.307 800.234 625.312 800.234 626.443C800.234 627.557 799.984 628.551 799.484 629.426C798.989 630.295 798.308 630.983 797.438 631.489C796.569 631.989 795.58 632.239 794.472 632.239ZM817.903 622.335V624.21H810.267V622.335H817.903ZM828.158 632V630.466L833.92 624.159C834.596 623.42 835.153 622.778 835.59 622.233C836.028 621.682 836.352 621.165 836.562 620.682C836.778 620.193 836.886 619.682 836.886 619.148C836.886 618.534 836.738 618.003 836.442 617.554C836.153 617.105 835.755 616.759 835.249 616.514C834.744 616.27 834.175 616.148 833.545 616.148C832.874 616.148 832.289 616.287 831.789 616.565C831.295 616.838 830.911 617.222 830.638 617.716C830.371 618.21 830.238 618.79 830.238 619.455H828.227C828.227 618.432 828.462 617.534 828.934 616.761C829.406 615.989 830.048 615.386 830.86 614.955C831.678 614.523 832.596 614.307 833.613 614.307C834.636 614.307 835.542 614.523 836.332 614.955C837.121 615.386 837.741 615.969 838.19 616.702C838.638 617.435 838.863 618.25 838.863 619.148C838.863 619.79 838.746 620.418 838.513 621.031C838.286 621.639 837.888 622.318 837.32 623.068C836.758 623.812 835.977 624.722 834.977 625.795L831.056 629.989V630.125H839.17V632H828.158ZM842.724 632V618.909H844.667V620.955H844.837C845.11 620.256 845.55 619.713 846.158 619.327C846.766 618.935 847.496 618.739 848.349 618.739C849.212 618.739 849.931 618.935 850.505 619.327C851.085 619.713 851.536 620.256 851.86 620.955H851.996C852.332 620.278 852.835 619.741 853.505 619.344C854.175 618.94 854.979 618.739 855.917 618.739C857.087 618.739 858.045 619.105 858.789 619.838C859.533 620.565 859.906 621.699 859.906 623.239V632H857.894V623.239C857.894 622.273 857.63 621.582 857.102 621.168C856.573 620.753 855.951 620.545 855.235 620.545C854.315 620.545 853.602 620.824 853.096 621.381C852.59 621.932 852.337 622.631 852.337 623.477V632H850.292V623.034C850.292 622.29 850.05 621.69 849.567 621.236C849.085 620.776 848.462 620.545 847.701 620.545C847.178 620.545 846.69 620.685 846.235 620.963C845.786 621.241 845.423 621.628 845.144 622.122C844.871 622.611 844.735 623.176 844.735 623.818V632H842.724Z" fill="#4D4D4D"/>
<path d="M401.89 562.239C400.89 562.239 399.99 562.04 399.189 561.642C398.387 561.244 397.745 560.699 397.262 560.006C396.779 559.312 396.515 558.523 396.47 557.636H398.515C398.595 558.426 398.953 559.08 399.589 559.597C400.231 560.108 400.998 560.364 401.89 560.364C402.606 560.364 403.243 560.196 403.799 559.861C404.362 559.526 404.802 559.065 405.12 558.48C405.444 557.889 405.606 557.222 405.606 556.477C405.606 555.716 405.439 555.037 405.103 554.44C404.774 553.838 404.319 553.364 403.74 553.017C403.16 552.67 402.498 552.494 401.754 552.489C401.22 552.483 400.672 552.565 400.109 552.736C399.547 552.901 399.083 553.114 398.72 553.375L396.743 553.136L397.799 544.545H406.868V546.42H399.572L398.958 551.568H399.061C399.419 551.284 399.868 551.048 400.407 550.861C400.947 550.673 401.51 550.58 402.095 550.58C403.163 550.58 404.115 550.835 404.95 551.347C405.791 551.852 406.45 552.545 406.927 553.426C407.41 554.307 407.652 555.312 407.652 556.443C407.652 557.557 407.402 558.551 406.902 559.426C406.407 560.295 405.725 560.983 404.856 561.489C403.987 561.989 402.998 562.239 401.89 562.239ZM416.73 562.239C415.446 562.239 414.353 561.889 413.449 561.19C412.546 560.486 411.855 559.466 411.378 558.131C410.901 556.79 410.662 555.17 410.662 553.273C410.662 551.386 410.901 549.776 411.378 548.44C411.861 547.099 412.554 546.077 413.458 545.372C414.367 544.662 415.458 544.307 416.73 544.307C418.003 544.307 419.091 544.662 419.995 545.372C420.904 546.077 421.597 547.099 422.074 548.44C422.557 549.776 422.799 551.386 422.799 553.273C422.799 555.17 422.56 556.79 422.083 558.131C421.605 559.466 420.915 560.486 420.012 561.19C419.108 561.889 418.015 562.239 416.73 562.239ZM416.73 560.364C418.003 560.364 418.992 559.75 419.696 558.523C420.401 557.295 420.753 555.545 420.753 553.273C420.753 551.761 420.591 550.474 420.267 549.412C419.949 548.349 419.489 547.54 418.887 546.983C418.29 546.426 417.571 546.148 416.73 546.148C415.469 546.148 414.483 546.77 413.773 548.014C413.063 549.253 412.708 551.006 412.708 553.273C412.708 554.784 412.867 556.068 413.185 557.125C413.503 558.182 413.961 558.986 414.557 559.537C415.159 560.088 415.884 560.364 416.73 560.364ZM440.321 552.335V554.21H432.685V552.335H440.321ZM451.122 562L458.929 546.557V546.42H449.929V544.545H461.11V546.523L453.338 562H451.122ZM469.605 562.239C468.321 562.239 467.228 561.889 466.324 561.19C465.421 560.486 464.73 559.466 464.253 558.131C463.776 556.79 463.537 555.17 463.537 553.273C463.537 551.386 463.776 549.776 464.253 548.44C464.736 547.099 465.429 546.077 466.333 545.372C467.242 544.662 468.333 544.307 469.605 544.307C470.878 544.307 471.966 544.662 472.87 545.372C473.779 546.077 474.472 547.099 474.949 548.44C475.432 549.776 475.674 551.386 475.674 553.273C475.674 555.17 475.435 556.79 474.958 558.131C474.48 559.466 473.79 560.486 472.887 561.19C471.983 561.889 470.89 562.239 469.605 562.239ZM469.605 560.364C470.878 560.364 471.867 559.75 472.571 558.523C473.276 557.295 473.628 555.545 473.628 553.273C473.628 551.761 473.466 550.474 473.142 549.412C472.824 548.349 472.364 547.54 471.762 546.983C471.165 546.426 470.446 546.148 469.605 546.148C468.344 546.148 467.358 546.77 466.648 548.014C465.938 549.253 465.583 551.006 465.583 553.273C465.583 554.784 465.742 556.068 466.06 557.125C466.378 558.182 466.836 558.986 467.432 559.537C468.034 560.088 468.759 560.364 469.605 560.364ZM484.265 562.273C483.037 562.273 481.98 561.983 481.094 561.403C480.208 560.824 479.526 560.026 479.049 559.009C478.571 557.991 478.333 556.83 478.333 555.523C478.333 554.193 478.577 553.02 479.066 552.003C479.56 550.98 480.248 550.182 481.128 549.608C482.015 549.028 483.049 548.739 484.23 548.739C485.151 548.739 485.98 548.909 486.719 549.25C487.458 549.591 488.063 550.068 488.534 550.682C489.006 551.295 489.299 552.011 489.412 552.83H487.401C487.248 552.233 486.907 551.705 486.378 551.244C485.855 550.778 485.151 550.545 484.265 550.545C483.48 550.545 482.793 550.75 482.202 551.159C481.617 551.562 481.159 552.134 480.83 552.872C480.506 553.605 480.344 554.466 480.344 555.455C480.344 556.466 480.503 557.347 480.821 558.097C481.145 558.847 481.6 559.429 482.185 559.844C482.776 560.259 483.469 560.466 484.265 560.466C484.787 560.466 485.262 560.375 485.688 560.193C486.114 560.011 486.475 559.75 486.77 559.409C487.066 559.068 487.276 558.659 487.401 558.182H489.412C489.299 558.955 489.017 559.651 488.569 560.27C488.125 560.884 487.537 561.372 486.804 561.736C486.077 562.094 485.23 562.273 484.265 562.273ZM492.353 562V548.909H494.296V550.955H494.466C494.739 550.256 495.179 549.713 495.787 549.327C496.395 548.935 497.125 548.739 497.978 548.739C498.841 548.739 499.56 548.935 500.134 549.327C500.713 549.713 501.165 550.256 501.489 550.955H501.625C501.961 550.278 502.463 549.741 503.134 549.344C503.804 548.94 504.608 548.739 505.546 548.739C506.716 548.739 507.674 549.105 508.418 549.838C509.162 550.565 509.534 551.699 509.534 553.239V562H507.523V553.239C507.523 552.273 507.259 551.582 506.73 551.168C506.202 550.753 505.58 550.545 504.864 550.545C503.944 550.545 503.23 550.824 502.725 551.381C502.219 551.932 501.966 552.631 501.966 553.477V562H499.921V553.034C499.921 552.29 499.679 551.69 499.196 551.236C498.713 550.776 498.091 550.545 497.33 550.545C496.807 550.545 496.319 550.685 495.864 550.963C495.415 551.241 495.051 551.628 494.773 552.122C494.5 552.611 494.364 553.176 494.364 553.818V562H492.353Z" fill="#4D4D4D"/>
<path d="M219.839 497.545H208.862V495.636H219.839V497.545ZM208.862 490.318V488.955L219.839 485V487.08L212.169 489.602L212.237 489.466V489.807L212.169 489.67L219.839 492.193V494.273L208.862 490.318ZM236.716 500.239C235.591 500.239 234.588 500.045 233.708 499.659C232.833 499.273 232.137 498.736 231.62 498.048C231.108 497.355 230.83 496.551 230.784 495.636H232.932C232.978 496.199 233.171 496.685 233.512 497.094C233.853 497.497 234.299 497.81 234.85 498.031C235.401 498.253 236.012 498.364 236.682 498.364C237.432 498.364 238.097 498.233 238.676 497.972C239.256 497.71 239.711 497.347 240.04 496.881C240.37 496.415 240.534 495.875 240.534 495.261C240.534 494.619 240.375 494.054 240.057 493.565C239.739 493.071 239.273 492.685 238.659 492.406C238.046 492.128 237.296 491.989 236.409 491.989H235.012V490.114H236.409C237.103 490.114 237.711 489.989 238.233 489.739C238.762 489.489 239.174 489.136 239.469 488.682C239.77 488.227 239.921 487.693 239.921 487.08C239.921 486.489 239.79 485.974 239.529 485.537C239.267 485.099 238.898 484.759 238.421 484.514C237.949 484.27 237.392 484.148 236.75 484.148C236.148 484.148 235.58 484.259 235.046 484.48C234.517 484.696 234.086 485.011 233.75 485.426C233.415 485.835 233.233 486.33 233.205 486.909H231.159C231.194 485.994 231.469 485.193 231.986 484.506C232.503 483.812 233.179 483.273 234.015 482.886C234.855 482.5 235.779 482.307 236.784 482.307C237.864 482.307 238.79 482.526 239.563 482.963C240.336 483.395 240.929 483.966 241.344 484.676C241.759 485.386 241.966 486.153 241.966 486.977C241.966 487.96 241.708 488.798 241.191 489.491C240.679 490.185 239.983 490.665 239.103 490.932V491.068C240.205 491.25 241.066 491.719 241.685 492.474C242.304 493.224 242.614 494.153 242.614 495.261C242.614 496.21 242.355 497.062 241.838 497.818C241.327 498.568 240.628 499.159 239.742 499.591C238.855 500.023 237.847 500.239 236.716 500.239ZM251.793 500.239C250.509 500.239 249.415 499.889 248.512 499.19C247.608 498.486 246.918 497.466 246.441 496.131C245.963 494.79 245.725 493.17 245.725 491.273C245.725 489.386 245.963 487.776 246.441 486.44C246.924 485.099 247.617 484.077 248.52 483.372C249.429 482.662 250.52 482.307 251.793 482.307C253.066 482.307 254.154 482.662 255.057 483.372C255.966 484.077 256.659 485.099 257.137 486.44C257.62 487.776 257.861 489.386 257.861 491.273C257.861 493.17 257.623 494.79 257.145 496.131C256.668 497.466 255.978 498.486 255.074 499.19C254.171 499.889 253.077 500.239 251.793 500.239ZM251.793 498.364C253.066 498.364 254.054 497.75 254.759 496.523C255.463 495.295 255.816 493.545 255.816 491.273C255.816 489.761 255.654 488.474 255.33 487.412C255.012 486.349 254.551 485.54 253.949 484.983C253.353 484.426 252.634 484.148 251.793 484.148C250.532 484.148 249.546 484.77 248.836 486.014C248.125 487.253 247.77 489.006 247.77 491.273C247.77 492.784 247.929 494.068 248.248 495.125C248.566 496.182 249.023 496.986 249.62 497.537C250.222 498.088 250.946 498.364 251.793 498.364ZM266.452 500.273C265.225 500.273 264.168 499.983 263.282 499.403C262.395 498.824 261.713 498.026 261.236 497.009C260.759 495.991 260.52 494.83 260.52 493.523C260.52 492.193 260.765 491.02 261.253 490.003C261.748 488.98 262.435 488.182 263.316 487.608C264.202 487.028 265.236 486.739 266.418 486.739C267.338 486.739 268.168 486.909 268.907 487.25C269.645 487.591 270.25 488.068 270.722 488.682C271.194 489.295 271.486 490.011 271.6 490.83H269.588C269.435 490.233 269.094 489.705 268.566 489.244C268.043 488.778 267.338 488.545 266.452 488.545C265.668 488.545 264.98 488.75 264.39 489.159C263.804 489.562 263.347 490.134 263.017 490.872C262.694 491.605 262.532 492.466 262.532 493.455C262.532 494.466 262.691 495.347 263.009 496.097C263.333 496.847 263.787 497.429 264.373 497.844C264.963 498.259 265.657 498.466 266.452 498.466C266.975 498.466 267.449 498.375 267.875 498.193C268.301 498.011 268.662 497.75 268.958 497.409C269.253 497.068 269.463 496.659 269.588 496.182H271.6C271.486 496.955 271.205 497.651 270.756 498.27C270.313 498.884 269.725 499.372 268.992 499.736C268.265 500.094 267.418 500.273 266.452 500.273ZM274.54 500V486.909H276.483V488.955H276.654C276.926 488.256 277.367 487.713 277.975 487.327C278.583 486.935 279.313 486.739 280.165 486.739C281.029 486.739 281.748 486.935 282.321 487.327C282.901 487.713 283.353 488.256 283.676 488.955H283.813C284.148 488.278 284.651 487.741 285.321 487.344C285.992 486.94 286.796 486.739 287.733 486.739C288.904 486.739 289.861 487.105 290.605 487.838C291.35 488.565 291.722 489.699 291.722 491.239V500H289.711V491.239C289.711 490.273 289.446 489.582 288.918 489.168C288.39 488.753 287.767 488.545 287.051 488.545C286.131 488.545 285.418 488.824 284.912 489.381C284.407 489.932 284.154 490.631 284.154 491.477V500H282.108V491.034C282.108 490.29 281.867 489.69 281.384 489.236C280.901 488.776 280.279 488.545 279.517 488.545C278.995 488.545 278.506 488.685 278.051 488.963C277.603 489.241 277.239 489.628 276.961 490.122C276.688 490.611 276.551 491.176 276.551 491.818V500H274.54Z" fill="#4D4D4D"/>
<path d="M633.707 150.707C634.098 150.317 634.098 149.683 633.707 149.293L627.343 142.929C626.953 142.538 626.319 142.538 625.929 142.929C625.538 143.319 625.538 143.953 625.929 144.343L631.586 150L625.929 155.657C625.538 156.047 625.538 156.681 625.929 157.071C626.319 157.462 626.953 157.462 627.343 157.071L633.707 150.707ZM633 150V149H376V150V151H633V150Z" fill="#4D4D4D"/>
<path d="M670 119H750C767.121 119 781 132.879 781 150C781 167.121 767.121 181 750 181H670C652.879 181 639 167.121 639 150C639 132.879 652.879 119 670 119Z" fill="white"/>
<path d="M670 119H750C767.121 119 781 132.879 781 150C781 167.121 767.121 181 750 181H670C652.879 181 639 167.121 639 150C639 132.879 652.879 119 670 119Z" stroke="#E5E5E5"/>
<path d="M665.023 157.405V154.412H678.626V157.405H665.023ZM678.626 149.162L665.023 153.219V150.236L674.161 147.77L674.052 147.959V147.501L674.161 147.69L665.023 145.224V142.241L678.626 146.298V149.162ZM689.635 156.222V153.288L698.276 139.636H700.722V143.812H699.23L693.414 153.03V153.189H705.475V156.222H689.635ZM699.35 160V155.327L699.389 154.014V139.636H702.869V160H699.35ZM715.89 160.278C714.412 160.278 713.099 160.03 711.953 159.533C710.812 159.036 709.918 158.356 709.268 157.494C708.625 156.626 708.307 155.642 708.313 154.541C708.307 153.686 708.492 152.901 708.87 152.185C709.248 151.469 709.758 150.872 710.401 150.395C711.051 149.911 711.774 149.603 712.569 149.47V149.331C711.522 149.099 710.673 148.565 710.024 147.73C709.381 146.888 709.062 145.917 709.069 144.817C709.062 143.769 709.354 142.835 709.944 142.013C710.534 141.191 711.343 140.545 712.37 140.074C713.398 139.597 714.571 139.358 715.89 139.358C717.196 139.358 718.359 139.597 719.38 140.074C720.408 140.545 721.216 141.191 721.806 142.013C722.403 142.835 722.701 143.769 722.701 144.817C722.701 145.917 722.373 146.888 721.717 147.73C721.067 148.565 720.229 149.099 719.201 149.331V149.47C719.997 149.603 720.713 149.911 721.349 150.395C721.992 150.872 722.502 151.469 722.88 152.185C723.265 152.901 723.457 153.686 723.457 154.541C723.457 155.642 723.132 156.626 722.482 157.494C721.833 158.356 720.938 159.036 719.798 159.533C718.664 160.03 717.362 160.278 715.89 160.278ZM715.89 157.435C716.652 157.435 717.315 157.305 717.879 157.047C718.442 156.782 718.88 156.411 719.191 155.933C719.503 155.456 719.662 154.906 719.669 154.283C719.662 153.633 719.493 153.06 719.161 152.562C718.837 152.059 718.389 151.664 717.819 151.379C717.256 151.094 716.613 150.952 715.89 150.952C715.161 150.952 714.511 151.094 713.941 151.379C713.371 151.664 712.92 152.059 712.589 152.562C712.264 153.06 712.105 153.633 712.112 154.283C712.105 154.906 712.258 155.456 712.569 155.933C712.881 156.404 713.318 156.772 713.882 157.037C714.452 157.302 715.121 157.435 715.89 157.435ZM715.89 148.158C716.513 148.158 717.063 148.032 717.541 147.78C718.025 147.528 718.406 147.177 718.684 146.726C718.963 146.275 719.105 145.755 719.112 145.165C719.105 144.581 718.966 144.071 718.694 143.634C718.422 143.189 718.044 142.848 717.561 142.609C717.077 142.364 716.52 142.241 715.89 142.241C715.247 142.241 714.68 142.364 714.19 142.609C713.706 142.848 713.328 143.189 713.056 143.634C712.791 144.071 712.662 144.581 712.669 145.165C712.662 145.755 712.794 146.275 713.066 146.726C713.345 147.17 713.726 147.521 714.21 147.78C714.7 148.032 715.26 148.158 715.89 148.158ZM726.765 165.727V144.727H730.305V147.253H730.514C730.7 146.882 730.961 146.487 731.3 146.07C731.638 145.645 732.095 145.284 732.672 144.986C733.248 144.681 733.984 144.528 734.879 144.528C736.059 144.528 737.123 144.83 738.071 145.433C739.025 146.03 739.781 146.915 740.338 148.088C740.901 149.255 741.183 150.687 741.183 152.384C741.183 154.061 740.908 155.486 740.358 156.659C739.808 157.832 739.059 158.727 738.111 159.344C737.163 159.96 736.089 160.268 734.889 160.268C734.014 160.268 733.288 160.123 732.711 159.831C732.135 159.539 731.671 159.188 731.319 158.777C730.975 158.359 730.706 157.965 730.514 157.594H730.365V165.727H726.765ZM730.295 152.364C730.295 153.351 730.434 154.216 730.713 154.959C730.998 155.701 731.406 156.281 731.936 156.699C732.473 157.11 733.122 157.315 733.885 157.315C734.68 157.315 735.346 157.103 735.883 156.679C736.42 156.248 736.825 155.661 737.096 154.919C737.375 154.17 737.514 153.318 737.514 152.364C737.514 151.416 737.378 150.574 737.106 149.838C736.835 149.102 736.43 148.526 735.893 148.108C735.356 147.69 734.687 147.482 733.885 147.482C733.116 147.482 732.463 147.684 731.926 148.088C731.389 148.492 730.981 149.059 730.703 149.788C730.431 150.518 730.295 151.376 730.295 152.364ZM746.634 144.727L749.717 150.365L752.849 144.727H756.657L752.053 152.364L756.737 160H752.948L749.717 154.501L746.515 160H742.697L747.35 152.364L742.816 144.727H746.634Z" fill="#333333"/>
<path d="M166 121H216C233.121 121 247 134.879 247 152C247 169.121 233.121 183 216 183H166C148.879 183 135 169.121 135 152C135 134.879 148.879 121 166 121Z" fill="white"/>
<path d="M166 121H216C233.121 121 247 134.879 247 152C247 169.121 233.121 183 216 183H166C148.879 183 135 169.121 135 152C135 134.879 148.879 121 166 121Z" stroke="#E5E5E5"/>
<path d="M168.95 141.636V162H165.261V145.226H165.142L160.379 148.268V144.888L165.44 141.636H168.95ZM181.578 162.278C180.603 162.272 179.652 162.103 178.724 161.771C177.796 161.433 176.961 160.886 176.218 160.131C175.476 159.368 174.886 158.357 174.448 157.098C174.011 155.832 173.795 154.264 173.802 152.395C173.802 150.652 173.988 149.097 174.359 147.732C174.73 146.366 175.264 145.213 175.96 144.271C176.656 143.323 177.494 142.601 178.475 142.104C179.463 141.607 180.567 141.358 181.786 141.358C183.066 141.358 184.199 141.61 185.187 142.114C186.181 142.617 186.983 143.307 187.593 144.182C188.203 145.05 188.581 146.031 188.727 147.125H185.097C184.912 146.343 184.531 145.72 183.954 145.256C183.384 144.785 182.661 144.55 181.786 144.55C180.374 144.55 179.287 145.163 178.525 146.389C177.769 147.616 177.388 149.299 177.382 151.44H177.521C177.846 150.857 178.267 150.357 178.784 149.939C179.301 149.521 179.884 149.2 180.534 148.974C181.19 148.742 181.883 148.626 182.612 148.626C183.805 148.626 184.875 148.911 185.823 149.482C186.778 150.052 187.534 150.837 188.09 151.838C188.647 152.832 188.922 153.973 188.916 155.259C188.922 156.598 188.617 157.801 188.001 158.868C187.384 159.929 186.526 160.764 185.426 161.374C184.325 161.983 183.043 162.285 181.578 162.278ZM181.558 159.295C182.28 159.295 182.927 159.12 183.497 158.768C184.067 158.417 184.517 157.943 184.849 157.347C185.18 156.75 185.343 156.08 185.336 155.338C185.343 154.609 185.184 153.949 184.859 153.359C184.541 152.769 184.1 152.302 183.536 151.957C182.973 151.613 182.33 151.44 181.607 151.44C181.07 151.44 180.57 151.543 180.106 151.749C179.642 151.954 179.238 152.239 178.893 152.604C178.548 152.962 178.276 153.379 178.078 153.857C177.885 154.327 177.786 154.831 177.779 155.368C177.786 156.077 177.952 156.73 178.276 157.327C178.601 157.923 179.049 158.401 179.619 158.759C180.189 159.116 180.835 159.295 181.558 159.295ZM192.316 167.727V146.727H195.856V149.253H196.065C196.25 148.882 196.512 148.487 196.85 148.07C197.188 147.645 197.646 147.284 198.222 146.986C198.799 146.681 199.535 146.528 200.43 146.528C201.61 146.528 202.674 146.83 203.622 147.433C204.576 148.03 205.332 148.915 205.889 150.088C206.452 151.255 206.734 152.687 206.734 154.384C206.734 156.061 206.459 157.486 205.909 158.659C205.358 159.832 204.609 160.727 203.661 161.344C202.713 161.96 201.64 162.268 200.44 162.268C199.565 162.268 198.839 162.123 198.262 161.831C197.686 161.539 197.222 161.188 196.87 160.777C196.526 160.359 196.257 159.965 196.065 159.594H195.916V167.727H192.316ZM195.846 154.364C195.846 155.351 195.985 156.216 196.264 156.959C196.549 157.701 196.956 158.281 197.487 158.699C198.024 159.11 198.673 159.315 199.436 159.315C200.231 159.315 200.897 159.103 201.434 158.679C201.971 158.248 202.375 157.661 202.647 156.919C202.926 156.17 203.065 155.318 203.065 154.364C203.065 153.416 202.929 152.574 202.657 151.838C202.385 151.102 201.981 150.526 201.444 150.108C200.907 149.69 200.238 149.482 199.436 149.482C198.667 149.482 198.014 149.684 197.477 150.088C196.94 150.492 196.532 151.059 196.254 151.788C195.982 152.518 195.846 153.376 195.846 154.364ZM212.185 146.727L215.268 152.365L218.4 146.727H222.208L217.604 154.364L222.287 162H218.499L215.268 156.501L212.066 162H208.248L212.901 154.364L208.367 146.727H212.185Z" fill="#333333"/>
<path d="M290 121H344C361.121 121 375 134.879 375 152C375 169.121 361.121 183 344 183H290C272.879 183 259 169.121 259 152C259 134.879 272.879 121 290 121Z" fill="white"/>
<path d="M290 121H344C361.121 121 375 134.879 375 152C375 169.121 361.121 183 344 183H290C272.879 183 259 169.121 259 152C259 134.879 272.879 121 290 121Z" stroke="#E5E5E5"/>
<path d="M284.671 162V159.335L291.741 152.405C292.417 151.722 292.98 151.116 293.431 150.585C293.882 150.055 294.22 149.541 294.445 149.044C294.671 148.547 294.783 148.017 294.783 147.453C294.783 146.81 294.637 146.26 294.346 145.803C294.054 145.339 293.653 144.981 293.143 144.729C292.632 144.477 292.052 144.351 291.403 144.351C290.733 144.351 290.146 144.49 289.643 144.768C289.139 145.04 288.748 145.428 288.469 145.932C288.198 146.436 288.062 147.036 288.062 147.732H284.552C284.552 146.439 284.847 145.315 285.437 144.361C286.027 143.406 286.839 142.667 287.873 142.143C288.913 141.62 290.107 141.358 291.452 141.358C292.818 141.358 294.018 141.613 295.052 142.124C296.086 142.634 296.888 143.333 297.458 144.222C298.035 145.11 298.323 146.124 298.323 147.264C298.323 148.027 298.177 148.776 297.885 149.511C297.594 150.247 297.08 151.062 296.344 151.957C295.615 152.852 294.591 153.936 293.272 155.209L289.762 158.778V158.918H298.631V162H284.671ZM301.256 158.222V155.288L309.897 141.636H312.343V145.812H310.851L305.035 155.03V155.189H317.096V158.222H301.256ZM310.971 162V157.327L311.01 156.014V141.636H314.491V162H310.971ZM320.312 167.727V146.727H323.852V149.253H324.061C324.247 148.882 324.508 148.487 324.846 148.07C325.184 147.645 325.642 147.284 326.219 146.986C326.795 146.681 327.531 146.528 328.426 146.528C329.606 146.528 330.67 146.83 331.618 147.433C332.572 148.03 333.328 148.915 333.885 150.088C334.448 151.255 334.73 152.687 334.73 154.384C334.73 156.061 334.455 157.486 333.905 158.659C333.354 159.832 332.605 160.727 331.657 161.344C330.71 161.96 329.636 162.268 328.436 162.268C327.561 162.268 326.835 162.123 326.258 161.831C325.682 161.539 325.218 161.188 324.866 160.777C324.522 160.359 324.253 159.965 324.061 159.594H323.912V167.727H320.312ZM323.842 154.364C323.842 155.351 323.981 156.216 324.26 156.959C324.545 157.701 324.952 158.281 325.483 158.699C326.02 159.11 326.669 159.315 327.432 159.315C328.227 159.315 328.893 159.103 329.43 158.679C329.967 158.248 330.372 157.661 330.643 156.919C330.922 156.17 331.061 155.318 331.061 154.364C331.061 153.416 330.925 152.574 330.653 151.838C330.381 151.102 329.977 150.526 329.44 150.108C328.903 149.69 328.234 149.482 327.432 149.482C326.663 149.482 326.01 149.684 325.473 150.088C324.936 150.492 324.528 151.059 324.25 151.788C323.978 152.518 323.842 153.376 323.842 154.364ZM340.181 146.727L343.264 152.365L346.396 146.727H350.204L345.6 154.364L350.284 162H346.495L343.264 156.501L340.062 162H336.244L340.897 154.364L336.363 146.727H340.181Z" fill="#333333"/>
<path d="M260.707 150.707C261.098 150.317 261.098 149.683 260.707 149.293L254.343 142.929C253.953 142.538 253.319 142.538 252.929 142.929C252.538 143.319 252.538 143.953 252.929 144.343L258.586 150L252.929 155.657C252.538 156.047 252.538 156.681 252.929 157.071C253.319 157.462 253.953 157.462 254.343 157.071L260.707 150.707ZM260 150V149H248V150V151H260V150Z" fill="#4D4D4D"/>
<path d="M522.049 232.709C523.992 232.06 526 233.506 526 235.555V432.334C526 434.406 523.949 435.854 521.996 435.16L384.996 386.48C383.8 386.055 383 384.924 383 383.654V281.359C383 280.069 383.825 278.923 385.049 278.514L522.049 232.709Z" stroke="#4D4D4D"/>
<path d="M250.895 273.1C252.864 272.319 255 273.77 255 275.889V380.111C255 382.23 252.864 383.681 250.895 382.9L226.895 373.385C225.751 372.931 225 371.826 225 370.596V285.404C225 284.174 225.751 283.069 226.895 282.615L250.895 273.1Z" stroke="#4D4D4D"/>
<path d="M378 534L368 528.226L368 539.774L378 534ZM56.6667 534C56.6667 536.946 59.0545 539.333 62 539.333C64.9455 539.333 67.3333 536.946 67.3333 534C67.3333 531.054 64.9455 528.667 62 528.667C59.0545 528.667 56.6667 531.054 56.6667 534ZM369 534L369 533L62 533L62 534L62 535L369 535L369 534Z" fill="#4D4D4D"/>
</g>
<defs>
<filter id="filter0_f_15283_31432" x="-858" y="-538" width="1662" height="1662" filterUnits="userSpaceOnUse" color-interpolation-filters="sRGB">
<feFlood flood-opacity="0" result="BackgroundImageFix"/>
<feBlend mode="normal" in="SourceGraphic" in2="BackgroundImageFix" result="shape"/>
<feGaussianBlur stdDeviation="27" result="effect1_foregroundBlur_15283_31432"/>
</filter>
<clipPath id="clip0_15283_31432">
<rect width="756" height="360" fill="white" transform="scale(2)"/>
</clipPath>
</defs>
</svg>
