<svg width="1512" height="1000" viewBox="0 0 1512 1000" fill="none" xmlns="http://www.w3.org/2000/svg">
<rect width="756" height="500" transform="scale(2)" fill="#F6F6F6"/>
<path d="M266 552C266 463.634 337.634 392 426 392H502C590.366 392 662 463.634 662 552C662 640.366 590.366 712 502 712H426C337.634 712 266 640.366 266 552Z" fill="#DB0025"/>
<path d="M364.401 518.864L359.424 523.841L354.379 518.864L359.424 513.818L364.401 518.864ZM370.81 525.273L365.833 530.318L360.856 525.273L365.833 520.295L370.81 525.273ZM357.992 525.273L352.947 530.318L347.901 525.273L352.947 520.295L357.992 525.273ZM364.401 531.75L359.424 536.727L354.379 531.75L359.424 526.705L364.401 531.75ZM389.825 523.841L388.018 524.352C387.904 524.051 387.737 523.759 387.515 523.474C387.299 523.185 387.004 522.946 386.629 522.759C386.254 522.571 385.773 522.477 385.188 522.477C384.387 522.477 383.719 522.662 383.185 523.031C382.657 523.395 382.393 523.858 382.393 524.42C382.393 524.92 382.575 525.315 382.938 525.605C383.302 525.895 383.87 526.136 384.643 526.33L386.586 526.807C387.756 527.091 388.629 527.526 389.202 528.111C389.776 528.69 390.063 529.437 390.063 530.352C390.063 531.102 389.847 531.773 389.415 532.364C388.989 532.955 388.393 533.42 387.626 533.761C386.859 534.102 385.967 534.273 384.95 534.273C383.614 534.273 382.509 533.983 381.634 533.403C380.759 532.824 380.205 531.977 379.972 530.864L381.881 530.386C382.063 531.091 382.407 531.619 382.913 531.972C383.424 532.324 384.092 532.5 384.915 532.5C385.853 532.5 386.597 532.301 387.148 531.903C387.705 531.5 387.984 531.017 387.984 530.455C387.984 530 387.825 529.619 387.506 529.312C387.188 529 386.7 528.767 386.04 528.614L383.859 528.102C382.66 527.818 381.779 527.378 381.217 526.781C380.66 526.179 380.381 525.426 380.381 524.523C380.381 523.784 380.589 523.131 381.004 522.562C381.424 521.994 381.995 521.548 382.717 521.224C383.444 520.901 384.268 520.739 385.188 520.739C386.484 520.739 387.501 521.023 388.239 521.591C388.984 522.159 389.512 522.909 389.825 523.841ZM394.386 538.909C394.045 538.909 393.741 538.881 393.474 538.824C393.207 538.773 393.023 538.722 392.92 538.67L393.432 536.898C393.92 537.023 394.352 537.068 394.727 537.034C395.102 537 395.435 536.832 395.724 536.531C396.02 536.236 396.29 535.756 396.534 535.091L396.909 534.068L392.068 520.909H394.25L397.864 531.341H398L401.614 520.909H403.795L398.239 535.909C397.989 536.585 397.679 537.145 397.31 537.588C396.94 538.037 396.511 538.369 396.023 538.585C395.54 538.801 394.994 538.909 394.386 538.909ZM415.723 523.841L413.916 524.352C413.803 524.051 413.635 523.759 413.413 523.474C413.197 523.185 412.902 522.946 412.527 522.759C412.152 522.571 411.672 522.477 411.087 522.477C410.286 522.477 409.618 522.662 409.084 523.031C408.555 523.395 408.291 523.858 408.291 524.42C408.291 524.92 408.473 525.315 408.837 525.605C409.2 525.895 409.768 526.136 410.541 526.33L412.484 526.807C413.655 527.091 414.527 527.526 415.101 528.111C415.675 528.69 415.962 529.437 415.962 530.352C415.962 531.102 415.746 531.773 415.314 532.364C414.888 532.955 414.291 533.42 413.524 533.761C412.757 534.102 411.865 534.273 410.848 534.273C409.513 534.273 408.408 533.983 407.533 533.403C406.658 532.824 406.104 531.977 405.871 530.864L407.78 530.386C407.962 531.091 408.305 531.619 408.811 531.972C409.322 532.324 409.99 532.5 410.814 532.5C411.751 532.5 412.496 532.301 413.047 531.903C413.604 531.5 413.882 531.017 413.882 530.455C413.882 530 413.723 529.619 413.405 529.312C413.087 529 412.598 528.767 411.939 528.614L409.757 528.102C408.558 527.818 407.678 527.378 407.115 526.781C406.558 526.179 406.28 525.426 406.28 524.523C406.28 523.784 406.487 523.131 406.902 522.562C407.322 521.994 407.893 521.548 408.615 521.224C409.342 520.901 410.166 520.739 411.087 520.739C412.382 520.739 413.399 521.023 414.138 521.591C414.882 522.159 415.411 522.909 415.723 523.841ZM426.489 525.58V527.455H418.853V525.58H426.489ZM435.347 534.273C434.119 534.273 433.063 533.983 432.176 533.403C431.29 532.824 430.608 532.026 430.131 531.009C429.653 529.991 429.415 528.83 429.415 527.523C429.415 526.193 429.659 525.02 430.148 524.003C430.642 522.98 431.33 522.182 432.21 521.608C433.097 521.028 434.131 520.739 435.312 520.739C436.233 520.739 437.062 520.909 437.801 521.25C438.54 521.591 439.145 522.068 439.616 522.682C440.088 523.295 440.381 524.011 440.494 524.83H438.483C438.33 524.233 437.989 523.705 437.46 523.244C436.938 522.778 436.233 522.545 435.347 522.545C434.563 522.545 433.875 522.75 433.284 523.159C432.699 523.562 432.241 524.134 431.912 524.872C431.588 525.605 431.426 526.466 431.426 527.455C431.426 528.466 431.585 529.347 431.903 530.097C432.227 530.847 432.682 531.429 433.267 531.844C433.858 532.259 434.551 532.466 435.347 532.466C435.869 532.466 436.344 532.375 436.77 532.193C437.196 532.011 437.557 531.75 437.852 531.409C438.148 531.068 438.358 530.659 438.483 530.182H440.494C440.381 530.955 440.099 531.651 439.651 532.27C439.207 532.884 438.619 533.372 437.886 533.736C437.159 534.094 436.313 534.273 435.347 534.273ZM448.753 534.273C447.571 534.273 446.534 533.991 445.642 533.429C444.756 532.866 444.062 532.08 443.562 531.068C443.068 530.057 442.821 528.875 442.821 527.523C442.821 526.159 443.068 524.969 443.562 523.952C444.062 522.935 444.756 522.145 445.642 521.582C446.534 521.02 447.571 520.739 448.753 520.739C449.935 520.739 450.969 521.02 451.855 521.582C452.747 522.145 453.44 522.935 453.935 523.952C454.435 524.969 454.685 526.159 454.685 527.523C454.685 528.875 454.435 530.057 453.935 531.068C453.44 532.08 452.747 532.866 451.855 533.429C450.969 533.991 449.935 534.273 448.753 534.273ZM448.753 532.466C449.651 532.466 450.389 532.236 450.969 531.776C451.548 531.315 451.977 530.71 452.256 529.96C452.534 529.21 452.673 528.398 452.673 527.523C452.673 526.648 452.534 525.832 452.256 525.077C451.977 524.321 451.548 523.71 450.969 523.244C450.389 522.778 449.651 522.545 448.753 522.545C447.855 522.545 447.116 522.778 446.537 523.244C445.957 523.71 445.528 524.321 445.25 525.077C444.972 525.832 444.832 526.648 444.832 527.523C444.832 528.398 444.972 529.21 445.25 529.96C445.528 530.71 445.957 531.315 446.537 531.776C447.116 532.236 447.855 532.466 448.753 532.466ZM459.766 516.545V534H457.755V516.545H459.766ZM468.768 534.273C467.587 534.273 466.55 533.991 465.658 533.429C464.771 532.866 464.078 532.08 463.578 531.068C463.084 530.057 462.837 528.875 462.837 527.523C462.837 526.159 463.084 524.969 463.578 523.952C464.078 522.935 464.771 522.145 465.658 521.582C466.55 521.02 467.587 520.739 468.768 520.739C469.95 520.739 470.984 521.02 471.871 521.582C472.763 522.145 473.456 522.935 473.95 523.952C474.45 524.969 474.7 526.159 474.7 527.523C474.7 528.875 474.45 530.057 473.95 531.068C473.456 532.08 472.763 532.866 471.871 533.429C470.984 533.991 469.95 534.273 468.768 534.273ZM468.768 532.466C469.666 532.466 470.405 532.236 470.984 531.776C471.564 531.315 471.993 530.71 472.271 529.96C472.55 529.21 472.689 528.398 472.689 527.523C472.689 526.648 472.55 525.832 472.271 525.077C471.993 524.321 471.564 523.71 470.984 523.244C470.405 522.778 469.666 522.545 468.768 522.545C467.871 522.545 467.132 522.778 466.553 523.244C465.973 523.71 465.544 524.321 465.266 525.077C464.987 525.832 464.848 526.648 464.848 527.523C464.848 528.398 464.987 529.21 465.266 529.96C465.544 530.71 465.973 531.315 466.553 531.776C467.132 532.236 467.871 532.466 468.768 532.466ZM477.771 534V520.909H479.714V522.886H479.85C480.089 522.239 480.521 521.713 481.146 521.31C481.771 520.906 482.475 520.705 483.259 520.705C483.407 520.705 483.592 520.707 483.813 520.713C484.035 520.719 484.202 520.727 484.316 520.739V522.784C484.248 522.767 484.092 522.741 483.847 522.707C483.609 522.668 483.356 522.648 483.089 522.648C482.452 522.648 481.884 522.781 481.384 523.048C480.89 523.31 480.498 523.673 480.208 524.139C479.924 524.599 479.782 525.125 479.782 525.716V534H477.771ZM493.239 525.58V527.455H485.603V525.58H493.239ZM496.778 538.909V520.909H498.722V522.989H498.96C499.108 522.761 499.313 522.472 499.574 522.119C499.841 521.761 500.222 521.443 500.716 521.165C501.216 520.881 501.892 520.739 502.744 520.739C503.847 520.739 504.818 521.014 505.659 521.565C506.5 522.116 507.156 522.898 507.628 523.909C508.099 524.92 508.335 526.114 508.335 527.489C508.335 528.875 508.099 530.077 507.628 531.094C507.156 532.105 506.503 532.889 505.668 533.446C504.832 533.997 503.869 534.273 502.778 534.273C501.938 534.273 501.264 534.134 500.759 533.855C500.253 533.571 499.864 533.25 499.591 532.892C499.318 532.528 499.108 532.227 498.96 531.989H498.79V538.909H496.778ZM498.756 527.455C498.756 528.443 498.901 529.315 499.19 530.071C499.48 530.821 499.903 531.409 500.46 531.835C501.017 532.256 501.699 532.466 502.506 532.466C503.347 532.466 504.048 532.244 504.611 531.801C505.179 531.352 505.605 530.75 505.889 529.994C506.179 529.233 506.324 528.386 506.324 527.455C506.324 526.534 506.182 525.705 505.898 524.966C505.619 524.222 505.196 523.634 504.628 523.202C504.065 522.764 503.358 522.545 502.506 522.545C501.688 522.545 501 522.753 500.443 523.168C499.886 523.577 499.466 524.151 499.182 524.889C498.898 525.622 498.756 526.477 498.756 527.455ZM511.403 534V520.909H513.347V522.886H513.483C513.722 522.239 514.153 521.713 514.778 521.31C515.403 520.906 516.108 520.705 516.892 520.705C517.04 520.705 517.224 520.707 517.446 520.713C517.668 520.719 517.835 520.727 517.949 520.739V522.784C517.881 522.767 517.724 522.741 517.48 522.707C517.241 522.668 516.989 522.648 516.722 522.648C516.085 522.648 515.517 522.781 515.017 523.048C514.523 523.31 514.131 523.673 513.841 524.139C513.557 524.599 513.415 525.125 513.415 525.716V534H511.403ZM520.333 534V520.909H522.344V534H520.333ZM521.356 518.727C520.964 518.727 520.626 518.594 520.342 518.327C520.063 518.06 519.924 517.739 519.924 517.364C519.924 516.989 520.063 516.668 520.342 516.401C520.626 516.134 520.964 516 521.356 516C521.748 516 522.083 516.134 522.362 516.401C522.646 516.668 522.788 516.989 522.788 517.364C522.788 517.739 522.646 518.06 522.362 518.327C522.083 518.594 521.748 518.727 521.356 518.727ZM526.028 534V520.909H527.972V522.955H528.142C528.415 522.256 528.855 521.713 529.463 521.327C530.071 520.935 530.801 520.739 531.653 520.739C532.517 520.739 533.236 520.935 533.81 521.327C534.389 521.713 534.841 522.256 535.165 522.955H535.301C535.636 522.278 536.139 521.741 536.81 521.344C537.48 520.94 538.284 520.739 539.222 520.739C540.392 520.739 541.349 521.105 542.094 521.838C542.838 522.565 543.21 523.699 543.21 525.239V534H541.199V525.239C541.199 524.273 540.935 523.582 540.406 523.168C539.878 522.753 539.256 522.545 538.54 522.545C537.619 522.545 536.906 522.824 536.401 523.381C535.895 523.932 535.642 524.631 535.642 525.477V534H533.597V525.034C533.597 524.29 533.355 523.69 532.872 523.236C532.389 522.776 531.767 522.545 531.006 522.545C530.483 522.545 529.994 522.685 529.54 522.963C529.091 523.241 528.727 523.628 528.449 524.122C528.176 524.611 528.04 525.176 528.04 525.818V534H526.028ZM550.74 534.307C549.911 534.307 549.158 534.151 548.482 533.838C547.805 533.52 547.268 533.062 546.871 532.466C546.473 531.864 546.274 531.136 546.274 530.284C546.274 529.534 546.422 528.926 546.717 528.46C547.013 527.989 547.408 527.619 547.902 527.352C548.396 527.085 548.942 526.886 549.538 526.756C550.141 526.619 550.746 526.511 551.354 526.432C552.149 526.33 552.794 526.253 553.288 526.202C553.788 526.145 554.152 526.051 554.379 525.92C554.612 525.79 554.729 525.562 554.729 525.239V525.17C554.729 524.33 554.499 523.676 554.038 523.21C553.584 522.744 552.893 522.511 551.967 522.511C551.007 522.511 550.254 522.722 549.709 523.142C549.163 523.562 548.78 524.011 548.558 524.489L546.649 523.807C546.99 523.011 547.445 522.392 548.013 521.949C548.587 521.5 549.212 521.187 549.888 521.011C550.57 520.83 551.24 520.739 551.899 520.739C552.32 520.739 552.803 520.79 553.348 520.892C553.899 520.989 554.43 521.19 554.942 521.497C555.459 521.804 555.888 522.267 556.229 522.886C556.57 523.506 556.74 524.335 556.74 525.375V534H554.729V532.227H554.626C554.49 532.511 554.263 532.815 553.945 533.139C553.626 533.463 553.203 533.739 552.675 533.966C552.146 534.193 551.501 534.307 550.74 534.307ZM551.047 532.5C551.842 532.5 552.513 532.344 553.058 532.031C553.609 531.719 554.024 531.315 554.303 530.821C554.587 530.327 554.729 529.807 554.729 529.261V527.42C554.643 527.523 554.456 527.616 554.166 527.702C553.882 527.781 553.553 527.852 553.178 527.915C552.808 527.972 552.447 528.023 552.095 528.068C551.749 528.108 551.467 528.142 551.251 528.17C550.729 528.239 550.24 528.349 549.786 528.503C549.337 528.651 548.973 528.875 548.695 529.176C548.422 529.472 548.286 529.875 548.286 530.386C548.286 531.085 548.544 531.614 549.061 531.972C549.584 532.324 550.246 532.5 551.047 532.5ZM560.411 534V520.909H562.354V522.886H562.491C562.729 522.239 563.161 521.713 563.786 521.31C564.411 520.906 565.116 520.705 565.9 520.705C566.048 520.705 566.232 520.707 566.454 520.713C566.675 520.719 566.843 520.727 566.957 520.739V522.784C566.888 522.767 566.732 522.741 566.488 522.707C566.249 522.668 565.996 522.648 565.729 522.648C565.093 522.648 564.525 522.781 564.025 523.048C563.531 523.31 563.138 523.673 562.849 524.139C562.565 524.599 562.423 525.125 562.423 525.716V534H560.411ZM571.035 538.909C570.694 538.909 570.39 538.881 570.123 538.824C569.856 538.773 569.671 538.722 569.569 538.67L570.08 536.898C570.569 537.023 571.001 537.068 571.376 537.034C571.751 537 572.083 536.832 572.373 536.531C572.668 536.236 572.938 535.756 573.183 535.091L573.558 534.068L568.717 520.909H570.898L574.512 531.341H574.648L578.262 520.909H580.444L574.887 535.909C574.637 536.585 574.327 537.145 573.958 537.588C573.589 538.037 573.16 538.369 572.671 538.585C572.188 538.801 571.643 538.909 571.035 538.909Z" fill="white"/>
<path d="M339.601 570.727V573.511H330.572V570.727H339.601ZM332.83 586V569.286C332.83 568.258 333.042 567.403 333.466 566.72C333.897 566.037 334.473 565.527 335.196 565.189C335.919 564.851 336.721 564.682 337.602 564.682C338.225 564.682 338.779 564.732 339.263 564.831C339.747 564.93 340.105 565.02 340.337 565.099L339.621 567.884C339.468 567.837 339.276 567.791 339.044 567.744C338.812 567.691 338.554 567.665 338.268 567.665C337.599 567.665 337.125 567.827 336.847 568.152C336.575 568.47 336.439 568.928 336.439 569.524V586H332.83ZM348.507 586.298C347.016 586.298 345.723 585.97 344.63 585.314C343.536 584.658 342.687 583.74 342.084 582.56C341.488 581.38 341.189 580.001 341.189 578.423C341.189 576.846 341.488 575.464 342.084 574.277C342.687 573.09 343.536 572.169 344.63 571.513C345.723 570.857 347.016 570.528 348.507 570.528C349.999 570.528 351.292 570.857 352.385 571.513C353.479 572.169 354.324 573.09 354.921 574.277C355.524 575.464 355.826 576.846 355.826 578.423C355.826 580.001 355.524 581.38 354.921 582.56C354.324 583.74 353.479 584.658 352.385 585.314C351.292 585.97 349.999 586.298 348.507 586.298ZM348.527 583.415C349.336 583.415 350.012 583.193 350.556 582.749C351.099 582.298 351.504 581.695 351.769 580.939C352.041 580.183 352.176 579.341 352.176 578.413C352.176 577.479 352.041 576.634 351.769 575.878C351.504 575.116 351.099 574.509 350.556 574.058C350.012 573.607 349.336 573.382 348.527 573.382C347.699 573.382 347.009 573.607 346.459 574.058C345.916 574.509 345.508 575.116 345.236 575.878C344.971 576.634 344.838 577.479 344.838 578.413C344.838 579.341 344.971 580.183 345.236 580.939C345.508 581.695 345.916 582.298 346.459 582.749C347.009 583.193 347.699 583.415 348.527 583.415ZM368.615 579.577V570.727H372.214V586H368.724V583.286H368.565C368.221 584.141 367.654 584.84 366.865 585.384C366.083 585.927 365.118 586.199 363.972 586.199C362.971 586.199 362.086 585.977 361.317 585.533C360.554 585.082 359.958 584.429 359.527 583.574C359.096 582.712 358.881 581.671 358.881 580.452V570.727H362.48V579.895C362.48 580.863 362.745 581.632 363.276 582.202C363.806 582.772 364.502 583.057 365.364 583.057C365.894 583.057 366.408 582.928 366.905 582.669C367.402 582.411 367.81 582.026 368.128 581.516C368.453 580.999 368.615 580.352 368.615 579.577ZM379.515 577.051V586H375.916V570.727H379.356V573.322H379.535C379.886 572.467 380.447 571.788 381.216 571.284C381.991 570.78 382.949 570.528 384.089 570.528C385.143 570.528 386.061 570.754 386.843 571.205C387.632 571.655 388.242 572.308 388.673 573.163C389.11 574.018 389.326 575.056 389.319 576.276V586H385.72V576.832C385.72 575.812 385.455 575.013 384.924 574.436C384.401 573.859 383.675 573.571 382.747 573.571C382.117 573.571 381.557 573.71 381.066 573.989C380.583 574.26 380.201 574.655 379.923 575.172C379.651 575.689 379.515 576.315 379.515 577.051ZM402.235 576.037V579H393.068V576.037H402.235ZM412.683 586.298C411.159 586.298 409.849 585.964 408.756 585.294C407.669 584.625 406.83 583.7 406.24 582.52C405.657 581.333 405.365 579.968 405.365 578.423C405.365 576.872 405.663 575.503 406.26 574.317C406.857 573.124 407.698 572.196 408.786 571.533C409.879 570.863 411.172 570.528 412.663 570.528C413.903 570.528 415 570.757 415.955 571.214C416.916 571.665 417.681 572.305 418.251 573.134C418.821 573.955 419.146 574.917 419.226 576.017H415.786C415.646 575.281 415.315 574.668 414.791 574.178C414.274 573.68 413.581 573.432 412.713 573.432C411.977 573.432 411.331 573.631 410.774 574.028C410.217 574.42 409.783 574.983 409.472 575.719C409.167 576.455 409.014 577.336 409.014 578.364C409.014 579.404 409.167 580.299 409.472 581.048C409.777 581.791 410.204 582.364 410.754 582.768C411.311 583.166 411.964 583.365 412.713 583.365C413.243 583.365 413.717 583.266 414.135 583.067C414.559 582.861 414.914 582.566 415.199 582.182C415.484 581.797 415.679 581.33 415.786 580.78H419.226C419.14 581.86 418.821 582.818 418.271 583.653C417.721 584.482 416.972 585.132 416.024 585.602C415.076 586.066 413.963 586.298 412.683 586.298ZM428.843 586.298C427.352 586.298 426.059 585.97 424.966 585.314C423.872 584.658 423.023 583.74 422.42 582.56C421.824 581.38 421.525 580.001 421.525 578.423C421.525 576.846 421.824 575.464 422.42 574.277C423.023 573.09 423.872 572.169 424.966 571.513C426.059 570.857 427.352 570.528 428.843 570.528C430.335 570.528 431.627 570.857 432.721 571.513C433.815 572.169 434.66 573.09 435.257 574.277C435.86 575.464 436.162 576.846 436.162 578.423C436.162 580.001 435.86 581.38 435.257 582.56C434.66 583.74 433.815 584.658 432.721 585.314C431.627 585.97 430.335 586.298 428.843 586.298ZM428.863 583.415C429.672 583.415 430.348 583.193 430.892 582.749C431.435 582.298 431.84 581.695 432.105 580.939C432.377 580.183 432.512 579.341 432.512 578.413C432.512 577.479 432.377 576.634 432.105 575.878C431.84 575.116 431.435 574.509 430.892 574.058C430.348 573.607 429.672 573.382 428.863 573.382C428.035 573.382 427.345 573.607 426.795 574.058C426.252 574.509 425.844 575.116 425.572 575.878C425.307 576.634 425.174 577.479 425.174 578.413C425.174 579.341 425.307 580.183 425.572 580.939C425.844 581.695 426.252 582.298 426.795 582.749C427.345 583.193 428.035 583.415 428.863 583.415ZM442.816 565.636V586H439.217V565.636H442.816ZM453.179 586.298C451.688 586.298 450.395 585.97 449.301 585.314C448.208 584.658 447.359 583.74 446.756 582.56C446.159 581.38 445.861 580.001 445.861 578.423C445.861 576.846 446.159 575.464 446.756 574.277C447.359 573.09 448.208 572.169 449.301 571.513C450.395 570.857 451.688 570.528 453.179 570.528C454.671 570.528 455.963 570.857 457.057 571.513C458.151 572.169 458.996 573.09 459.593 574.277C460.196 575.464 460.498 576.846 460.498 578.423C460.498 580.001 460.196 581.38 459.593 582.56C458.996 583.74 458.151 584.658 457.057 585.314C455.963 585.97 454.671 586.298 453.179 586.298ZM453.199 583.415C454.008 583.415 454.684 583.193 455.228 582.749C455.771 582.298 456.176 581.695 456.441 580.939C456.712 580.183 456.848 579.341 456.848 578.413C456.848 577.479 456.712 576.634 456.441 575.878C456.176 575.116 455.771 574.509 455.228 574.058C454.684 573.607 454.008 573.382 453.199 573.382C452.371 573.382 451.681 573.607 451.131 574.058C450.587 574.509 450.18 575.116 449.908 575.878C449.643 576.634 449.51 577.479 449.51 578.413C449.51 579.341 449.643 580.183 449.908 580.939C450.18 581.695 450.587 582.298 451.131 582.749C451.681 583.193 452.371 583.415 453.199 583.415ZM463.553 586V570.727H467.043V573.273H467.202C467.48 572.391 467.957 571.712 468.634 571.234C469.316 570.75 470.095 570.509 470.97 570.509C471.169 570.509 471.391 570.518 471.636 570.538C471.888 570.552 472.097 570.575 472.263 570.608V573.919C472.11 573.866 471.868 573.82 471.537 573.78C471.212 573.733 470.897 573.71 470.592 573.71C469.936 573.71 469.346 573.853 468.822 574.138C468.305 574.416 467.898 574.804 467.599 575.301C467.301 575.798 467.152 576.372 467.152 577.021V586H463.553ZM483.228 576.037V579H474.06V576.037H483.228ZM487.013 586V570.727H490.504V573.273H490.663C490.941 572.391 491.418 571.712 492.094 571.234C492.777 570.75 493.556 570.509 494.431 570.509C494.63 570.509 494.852 570.518 495.097 570.538C495.349 570.552 495.558 570.575 495.724 570.608V573.919C495.571 573.866 495.329 573.82 494.998 573.78C494.673 573.733 494.358 573.71 494.053 573.71C493.397 573.71 492.807 573.853 492.283 574.138C491.766 574.416 491.359 574.804 491.06 575.301C490.762 575.798 490.613 576.372 490.613 577.021V586H487.013ZM504.248 586.298C502.716 586.298 501.394 585.98 500.28 585.344C499.173 584.701 498.321 583.793 497.725 582.619C497.128 581.439 496.83 580.051 496.83 578.453C496.83 576.882 497.128 575.503 497.725 574.317C498.328 573.124 499.17 572.196 500.25 571.533C501.331 570.863 502.6 570.528 504.059 570.528C505 570.528 505.888 570.681 506.723 570.986C507.565 571.284 508.308 571.748 508.951 572.378C509.6 573.008 510.111 573.81 510.482 574.784C510.853 575.752 511.039 576.905 511.039 578.244V579.348H498.52V576.922H507.588C507.582 576.232 507.433 575.619 507.141 575.082C506.849 574.539 506.442 574.111 505.918 573.8C505.401 573.488 504.798 573.332 504.108 573.332C503.373 573.332 502.726 573.511 502.169 573.869C501.613 574.221 501.178 574.685 500.867 575.261C500.562 575.831 500.406 576.458 500.4 577.141V579.259C500.4 580.147 500.562 580.909 500.887 581.545C501.212 582.175 501.666 582.659 502.249 582.997C502.832 583.329 503.515 583.494 504.297 583.494C504.821 583.494 505.295 583.421 505.719 583.276C506.143 583.123 506.511 582.901 506.823 582.609C507.134 582.318 507.37 581.956 507.529 581.526L510.89 581.903C510.677 582.792 510.273 583.567 509.676 584.23C509.087 584.886 508.331 585.397 507.409 585.761C506.488 586.119 505.434 586.298 504.248 586.298ZM519.751 586.268C518.552 586.268 517.478 585.96 516.53 585.344C515.582 584.727 514.833 583.832 514.283 582.659C513.732 581.486 513.457 580.061 513.457 578.384C513.457 576.687 513.736 575.255 514.293 574.088C514.856 572.915 515.615 572.03 516.57 571.433C517.524 570.83 518.588 570.528 519.761 570.528C520.656 570.528 521.392 570.681 521.969 570.986C522.545 571.284 523.003 571.645 523.341 572.07C523.679 572.487 523.941 572.882 524.126 573.253H524.276V565.636H527.885V586H524.345V583.594H524.126C523.941 583.965 523.672 584.359 523.321 584.777C522.97 585.188 522.506 585.539 521.929 585.831C521.352 586.123 520.626 586.268 519.751 586.268ZM520.756 583.315C521.518 583.315 522.168 583.11 522.705 582.699C523.241 582.281 523.649 581.701 523.928 580.959C524.206 580.216 524.345 579.351 524.345 578.364C524.345 577.376 524.206 576.518 523.928 575.788C523.656 575.059 523.251 574.492 522.714 574.088C522.184 573.684 521.531 573.482 520.756 573.482C519.954 573.482 519.284 573.69 518.747 574.108C518.21 574.526 517.806 575.102 517.534 575.838C517.262 576.574 517.126 577.416 517.126 578.364C517.126 579.318 517.262 580.17 517.534 580.919C517.813 581.661 518.22 582.248 518.757 582.679C519.301 583.103 519.967 583.315 520.756 583.315ZM540.978 576.037V579H531.81V576.037H540.978ZM551.803 586.278C550.478 586.278 549.291 586.03 548.244 585.533C547.196 585.029 546.364 584.339 545.748 583.464C545.138 582.589 544.813 581.589 544.773 580.462H548.353C548.419 581.297 548.781 581.98 549.437 582.51C550.093 583.034 550.882 583.295 551.803 583.295C552.526 583.295 553.169 583.13 553.732 582.798C554.296 582.467 554.74 582.006 555.065 581.416C555.389 580.826 555.549 580.153 555.542 579.398C555.549 578.629 555.386 577.946 555.055 577.349C554.723 576.753 554.269 576.286 553.692 575.947C553.116 575.603 552.453 575.43 551.704 575.43C551.094 575.424 550.494 575.536 549.904 575.768C549.314 576 548.847 576.305 548.502 576.683L545.171 576.136L546.235 565.636H558.048V568.719H549.288L548.701 574.118H548.82C549.198 573.674 549.732 573.306 550.421 573.014C551.111 572.716 551.866 572.567 552.688 572.567C553.921 572.567 555.022 572.858 555.989 573.442C556.957 574.018 557.719 574.814 558.276 575.828C558.833 576.842 559.112 578.002 559.112 579.308C559.112 580.654 558.8 581.854 558.177 582.908C557.56 583.955 556.702 584.78 555.602 585.384C554.508 585.98 553.242 586.278 551.803 586.278ZM569.969 586.388C568.332 586.388 566.927 585.973 565.754 585.145C564.587 584.31 563.689 583.107 563.059 581.536C562.436 579.958 562.124 578.059 562.124 575.838C562.131 573.617 562.446 571.728 563.069 570.17C563.699 568.606 564.597 567.413 565.763 566.591C566.937 565.769 568.339 565.358 569.969 565.358C571.6 565.358 573.002 565.769 574.175 566.591C575.349 567.413 576.247 568.606 576.87 570.17C577.5 571.735 577.815 573.624 577.815 575.838C577.815 578.065 577.5 579.968 576.87 581.545C576.247 583.116 575.349 584.316 574.175 585.145C573.009 585.973 571.607 586.388 569.969 586.388ZM569.969 583.276C571.242 583.276 572.246 582.649 572.982 581.396C573.725 580.137 574.096 578.284 574.096 575.838C574.096 574.221 573.927 572.862 573.589 571.761C573.251 570.661 572.773 569.832 572.157 569.276C571.54 568.712 570.811 568.43 569.969 568.43C568.703 568.43 567.702 569.06 566.967 570.32C566.231 571.572 565.86 573.412 565.853 575.838C565.846 577.462 566.009 578.828 566.34 579.935C566.678 581.042 567.156 581.877 567.772 582.44C568.388 582.997 569.121 583.276 569.969 583.276ZM588.645 586.388C587.008 586.388 585.603 585.973 584.429 585.145C583.263 584.31 582.364 583.107 581.735 581.536C581.112 579.958 580.8 578.059 580.8 575.838C580.807 573.617 581.122 571.728 581.745 570.17C582.374 568.606 583.273 567.413 584.439 566.591C585.613 565.769 587.015 565.358 588.645 565.358C590.276 565.358 591.678 565.769 592.851 566.591C594.025 567.413 594.923 568.606 595.546 570.17C596.176 571.735 596.49 573.624 596.49 575.838C596.49 578.065 596.176 579.968 595.546 581.545C594.923 583.116 594.025 584.316 592.851 585.145C591.685 585.973 590.283 586.388 588.645 586.388ZM588.645 583.276C589.918 583.276 590.922 582.649 591.658 581.396C592.4 580.137 592.772 578.284 592.772 575.838C592.772 574.221 592.603 572.862 592.265 571.761C591.926 570.661 591.449 569.832 590.833 569.276C590.216 568.712 589.487 568.43 588.645 568.43C587.379 568.43 586.378 569.06 585.642 570.32C584.907 571.572 584.535 573.412 584.529 575.838C584.522 577.462 584.685 578.828 585.016 579.935C585.354 581.042 585.831 581.877 586.448 582.44C587.064 582.997 587.797 583.276 588.645 583.276Z" fill="white"/>
<path d="M822 552C822 463.634 893.634 392 982 392H1088C1176.37 392 1248 463.634 1248 552C1248 640.366 1176.37 712 1088 712H982C893.634 712 822 640.366 822 552Z" fill="#4848F0"/>
<path d="M935.401 518.864L930.424 523.841L925.379 518.864L930.424 513.818L935.401 518.864ZM941.81 525.273L936.833 530.318L931.856 525.273L936.833 520.295L941.81 525.273ZM928.992 525.273L923.947 530.318L918.901 525.273L923.947 520.295L928.992 525.273ZM935.401 531.75L930.424 536.727L925.379 531.75L930.424 526.705L935.401 531.75ZM960.825 523.841L959.018 524.352C958.904 524.051 958.737 523.759 958.515 523.474C958.299 523.185 958.004 522.946 957.629 522.759C957.254 522.571 956.773 522.477 956.188 522.477C955.387 522.477 954.719 522.662 954.185 523.031C953.657 523.395 953.393 523.858 953.393 524.42C953.393 524.92 953.575 525.315 953.938 525.605C954.302 525.895 954.87 526.136 955.643 526.33L957.586 526.807C958.756 527.091 959.629 527.526 960.202 528.111C960.776 528.69 961.063 529.437 961.063 530.352C961.063 531.102 960.847 531.773 960.415 532.364C959.989 532.955 959.393 533.42 958.626 533.761C957.859 534.102 956.967 534.273 955.95 534.273C954.614 534.273 953.509 533.983 952.634 533.403C951.759 532.824 951.205 531.977 950.972 530.864L952.881 530.386C953.063 531.091 953.407 531.619 953.913 531.972C954.424 532.324 955.092 532.5 955.915 532.5C956.853 532.5 957.597 532.301 958.148 531.903C958.705 531.5 958.984 531.017 958.984 530.455C958.984 530 958.825 529.619 958.506 529.312C958.188 529 957.7 528.767 957.04 528.614L954.859 528.102C953.66 527.818 952.779 527.378 952.217 526.781C951.66 526.179 951.381 525.426 951.381 524.523C951.381 523.784 951.589 523.131 952.004 522.562C952.424 521.994 952.995 521.548 953.717 521.224C954.444 520.901 955.268 520.739 956.188 520.739C957.484 520.739 958.501 521.023 959.239 521.591C959.984 522.159 960.512 522.909 960.825 523.841ZM965.386 538.909C965.045 538.909 964.741 538.881 964.474 538.824C964.207 538.773 964.023 538.722 963.92 538.67L964.432 536.898C964.92 537.023 965.352 537.068 965.727 537.034C966.102 537 966.435 536.832 966.724 536.531C967.02 536.236 967.29 535.756 967.534 535.091L967.909 534.068L963.068 520.909H965.25L968.864 531.341H969L972.614 520.909H974.795L969.239 535.909C968.989 536.585 968.679 537.145 968.31 537.588C967.94 538.037 967.511 538.369 967.023 538.585C966.54 538.801 965.994 538.909 965.386 538.909ZM986.723 523.841L984.916 524.352C984.803 524.051 984.635 523.759 984.413 523.474C984.197 523.185 983.902 522.946 983.527 522.759C983.152 522.571 982.672 522.477 982.087 522.477C981.286 522.477 980.618 522.662 980.084 523.031C979.555 523.395 979.291 523.858 979.291 524.42C979.291 524.92 979.473 525.315 979.837 525.605C980.2 525.895 980.768 526.136 981.541 526.33L983.484 526.807C984.655 527.091 985.527 527.526 986.101 528.111C986.675 528.69 986.962 529.437 986.962 530.352C986.962 531.102 986.746 531.773 986.314 532.364C985.888 532.955 985.291 533.42 984.524 533.761C983.757 534.102 982.865 534.273 981.848 534.273C980.513 534.273 979.408 533.983 978.533 533.403C977.658 532.824 977.104 531.977 976.871 530.864L978.78 530.386C978.962 531.091 979.305 531.619 979.811 531.972C980.322 532.324 980.99 532.5 981.814 532.5C982.751 532.5 983.496 532.301 984.047 531.903C984.604 531.5 984.882 531.017 984.882 530.455C984.882 530 984.723 529.619 984.405 529.312C984.087 529 983.598 528.767 982.939 528.614L980.757 528.102C979.558 527.818 978.678 527.378 978.115 526.781C977.558 526.179 977.28 525.426 977.28 524.523C977.28 523.784 977.487 523.131 977.902 522.562C978.322 521.994 978.893 521.548 979.615 521.224C980.342 520.901 981.166 520.739 982.087 520.739C983.382 520.739 984.399 521.023 985.138 521.591C985.882 522.159 986.411 522.909 986.723 523.841ZM997.489 525.58V527.455H989.853V525.58H997.489ZM1006.35 534.273C1005.12 534.273 1004.06 533.983 1003.18 533.403C1002.29 532.824 1001.61 532.026 1001.13 531.009C1000.65 529.991 1000.41 528.83 1000.41 527.523C1000.41 526.193 1000.66 525.02 1001.15 524.003C1001.64 522.98 1002.33 522.182 1003.21 521.608C1004.1 521.028 1005.13 520.739 1006.31 520.739C1007.23 520.739 1008.06 520.909 1008.8 521.25C1009.54 521.591 1010.14 522.068 1010.62 522.682C1011.09 523.295 1011.38 524.011 1011.49 524.83H1009.48C1009.33 524.233 1008.99 523.705 1008.46 523.244C1007.94 522.778 1007.23 522.545 1006.35 522.545C1005.56 522.545 1004.88 522.75 1004.28 523.159C1003.7 523.562 1003.24 524.134 1002.91 524.872C1002.59 525.605 1002.43 526.466 1002.43 527.455C1002.43 528.466 1002.59 529.347 1002.9 530.097C1003.23 530.847 1003.68 531.429 1004.27 531.844C1004.86 532.259 1005.55 532.466 1006.35 532.466C1006.87 532.466 1007.34 532.375 1007.77 532.193C1008.2 532.011 1008.56 531.75 1008.85 531.409C1009.15 531.068 1009.36 530.659 1009.48 530.182H1011.49C1011.38 530.955 1011.1 531.651 1010.65 532.27C1010.21 532.884 1009.62 533.372 1008.89 533.736C1008.16 534.094 1007.31 534.273 1006.35 534.273ZM1019.75 534.273C1018.57 534.273 1017.53 533.991 1016.64 533.429C1015.76 532.866 1015.06 532.08 1014.56 531.068C1014.07 530.057 1013.82 528.875 1013.82 527.523C1013.82 526.159 1014.07 524.969 1014.56 523.952C1015.06 522.935 1015.76 522.145 1016.64 521.582C1017.53 521.02 1018.57 520.739 1019.75 520.739C1020.93 520.739 1021.97 521.02 1022.86 521.582C1023.75 522.145 1024.44 522.935 1024.93 523.952C1025.43 524.969 1025.68 526.159 1025.68 527.523C1025.68 528.875 1025.43 530.057 1024.93 531.068C1024.44 532.08 1023.75 532.866 1022.86 533.429C1021.97 533.991 1020.93 534.273 1019.75 534.273ZM1019.75 532.466C1020.65 532.466 1021.39 532.236 1021.97 531.776C1022.55 531.315 1022.98 530.71 1023.26 529.96C1023.53 529.21 1023.67 528.398 1023.67 527.523C1023.67 526.648 1023.53 525.832 1023.26 525.077C1022.98 524.321 1022.55 523.71 1021.97 523.244C1021.39 522.778 1020.65 522.545 1019.75 522.545C1018.86 522.545 1018.12 522.778 1017.54 523.244C1016.96 523.71 1016.53 524.321 1016.25 525.077C1015.97 525.832 1015.83 526.648 1015.83 527.523C1015.83 528.398 1015.97 529.21 1016.25 529.96C1016.53 530.71 1016.96 531.315 1017.54 531.776C1018.12 532.236 1018.86 532.466 1019.75 532.466ZM1030.77 516.545V534H1028.75V516.545H1030.77ZM1039.77 534.273C1038.59 534.273 1037.55 533.991 1036.66 533.429C1035.77 532.866 1035.08 532.08 1034.58 531.068C1034.08 530.057 1033.84 528.875 1033.84 527.523C1033.84 526.159 1034.08 524.969 1034.58 523.952C1035.08 522.935 1035.77 522.145 1036.66 521.582C1037.55 521.02 1038.59 520.739 1039.77 520.739C1040.95 520.739 1041.98 521.02 1042.87 521.582C1043.76 522.145 1044.46 522.935 1044.95 523.952C1045.45 524.969 1045.7 526.159 1045.7 527.523C1045.7 528.875 1045.45 530.057 1044.95 531.068C1044.46 532.08 1043.76 532.866 1042.87 533.429C1041.98 533.991 1040.95 534.273 1039.77 534.273ZM1039.77 532.466C1040.67 532.466 1041.4 532.236 1041.98 531.776C1042.56 531.315 1042.99 530.71 1043.27 529.96C1043.55 529.21 1043.69 528.398 1043.69 527.523C1043.69 526.648 1043.55 525.832 1043.27 525.077C1042.99 524.321 1042.56 523.71 1041.98 523.244C1041.4 522.778 1040.67 522.545 1039.77 522.545C1038.87 522.545 1038.13 522.778 1037.55 523.244C1036.97 523.71 1036.54 524.321 1036.27 525.077C1035.99 525.832 1035.85 526.648 1035.85 527.523C1035.85 528.398 1035.99 529.21 1036.27 529.96C1036.54 530.71 1036.97 531.315 1037.55 531.776C1038.13 532.236 1038.87 532.466 1039.77 532.466ZM1048.77 534V520.909H1050.71V522.886H1050.85C1051.09 522.239 1051.52 521.713 1052.15 521.31C1052.77 520.906 1053.48 520.705 1054.26 520.705C1054.41 520.705 1054.59 520.707 1054.81 520.713C1055.03 520.719 1055.2 520.727 1055.32 520.739V522.784C1055.25 522.767 1055.09 522.741 1054.85 522.707C1054.61 522.668 1054.36 522.648 1054.09 522.648C1053.45 522.648 1052.88 522.781 1052.38 523.048C1051.89 523.31 1051.5 523.673 1051.21 524.139C1050.92 524.599 1050.78 525.125 1050.78 525.716V534H1048.77ZM1064.24 525.58V527.455H1056.6V525.58H1064.24ZM1067.78 538.909V520.909H1069.72V522.989H1069.96C1070.11 522.761 1070.31 522.472 1070.57 522.119C1070.84 521.761 1071.22 521.443 1071.72 521.165C1072.22 520.881 1072.89 520.739 1073.74 520.739C1074.85 520.739 1075.82 521.014 1076.66 521.565C1077.5 522.116 1078.16 522.898 1078.63 523.909C1079.1 524.92 1079.34 526.114 1079.34 527.489C1079.34 528.875 1079.1 530.077 1078.63 531.094C1078.16 532.105 1077.5 532.889 1076.67 533.446C1075.83 533.997 1074.87 534.273 1073.78 534.273C1072.94 534.273 1072.26 534.134 1071.76 533.855C1071.25 533.571 1070.86 533.25 1070.59 532.892C1070.32 532.528 1070.11 532.227 1069.96 531.989H1069.79V538.909H1067.78ZM1069.76 527.455C1069.76 528.443 1069.9 529.315 1070.19 530.071C1070.48 530.821 1070.9 531.409 1071.46 531.835C1072.02 532.256 1072.7 532.466 1073.51 532.466C1074.35 532.466 1075.05 532.244 1075.61 531.801C1076.18 531.352 1076.61 530.75 1076.89 529.994C1077.18 529.233 1077.32 528.386 1077.32 527.455C1077.32 526.534 1077.18 525.705 1076.9 524.966C1076.62 524.222 1076.2 523.634 1075.63 523.202C1075.07 522.764 1074.36 522.545 1073.51 522.545C1072.69 522.545 1072 522.753 1071.44 523.168C1070.89 523.577 1070.47 524.151 1070.18 524.889C1069.9 525.622 1069.76 526.477 1069.76 527.455ZM1082.4 534V520.909H1084.35V522.886H1084.48C1084.72 522.239 1085.15 521.713 1085.78 521.31C1086.4 520.906 1087.11 520.705 1087.89 520.705C1088.04 520.705 1088.22 520.707 1088.45 520.713C1088.67 520.719 1088.84 520.727 1088.95 520.739V522.784C1088.88 522.767 1088.72 522.741 1088.48 522.707C1088.24 522.668 1087.99 522.648 1087.72 522.648C1087.09 522.648 1086.52 522.781 1086.02 523.048C1085.52 523.31 1085.13 523.673 1084.84 524.139C1084.56 524.599 1084.41 525.125 1084.41 525.716V534H1082.4ZM1091.33 534V520.909H1093.34V534H1091.33ZM1092.36 518.727C1091.96 518.727 1091.63 518.594 1091.34 518.327C1091.06 518.06 1090.92 517.739 1090.92 517.364C1090.92 516.989 1091.06 516.668 1091.34 516.401C1091.63 516.134 1091.96 516 1092.36 516C1092.75 516 1093.08 516.134 1093.36 516.401C1093.65 516.668 1093.79 516.989 1093.79 517.364C1093.79 517.739 1093.65 518.06 1093.36 518.327C1093.08 518.594 1092.75 518.727 1092.36 518.727ZM1097.03 534V520.909H1098.97V522.955H1099.14C1099.41 522.256 1099.86 521.713 1100.46 521.327C1101.07 520.935 1101.8 520.739 1102.65 520.739C1103.52 520.739 1104.24 520.935 1104.81 521.327C1105.39 521.713 1105.84 522.256 1106.16 522.955H1106.3C1106.64 522.278 1107.14 521.741 1107.81 521.344C1108.48 520.94 1109.28 520.739 1110.22 520.739C1111.39 520.739 1112.35 521.105 1113.09 521.838C1113.84 522.565 1114.21 523.699 1114.21 525.239V534H1112.2V525.239C1112.2 524.273 1111.93 523.582 1111.41 523.168C1110.88 522.753 1110.26 522.545 1109.54 522.545C1108.62 522.545 1107.91 522.824 1107.4 523.381C1106.89 523.932 1106.64 524.631 1106.64 525.477V534H1104.6V525.034C1104.6 524.29 1104.36 523.69 1103.87 523.236C1103.39 522.776 1102.77 522.545 1102.01 522.545C1101.48 522.545 1100.99 522.685 1100.54 522.963C1100.09 523.241 1099.73 523.628 1099.45 524.122C1099.18 524.611 1099.04 525.176 1099.04 525.818V534H1097.03ZM1121.74 534.307C1120.91 534.307 1120.16 534.151 1119.48 533.838C1118.81 533.52 1118.27 533.062 1117.87 532.466C1117.47 531.864 1117.27 531.136 1117.27 530.284C1117.27 529.534 1117.42 528.926 1117.72 528.46C1118.01 527.989 1118.41 527.619 1118.9 527.352C1119.4 527.085 1119.94 526.886 1120.54 526.756C1121.14 526.619 1121.75 526.511 1122.35 526.432C1123.15 526.33 1123.79 526.253 1124.29 526.202C1124.79 526.145 1125.15 526.051 1125.38 525.92C1125.61 525.79 1125.73 525.562 1125.73 525.239V525.17C1125.73 524.33 1125.5 523.676 1125.04 523.21C1124.58 522.744 1123.89 522.511 1122.97 522.511C1122.01 522.511 1121.25 522.722 1120.71 523.142C1120.16 523.562 1119.78 524.011 1119.56 524.489L1117.65 523.807C1117.99 523.011 1118.44 522.392 1119.01 521.949C1119.59 521.5 1120.21 521.187 1120.89 521.011C1121.57 520.83 1122.24 520.739 1122.9 520.739C1123.32 520.739 1123.8 520.79 1124.35 520.892C1124.9 520.989 1125.43 521.19 1125.94 521.497C1126.46 521.804 1126.89 522.267 1127.23 522.886C1127.57 523.506 1127.74 524.335 1127.74 525.375V534H1125.73V532.227H1125.63C1125.49 532.511 1125.26 532.815 1124.94 533.139C1124.63 533.463 1124.2 533.739 1123.67 533.966C1123.15 534.193 1122.5 534.307 1121.74 534.307ZM1122.05 532.5C1122.84 532.5 1123.51 532.344 1124.06 532.031C1124.61 531.719 1125.02 531.315 1125.3 530.821C1125.59 530.327 1125.73 529.807 1125.73 529.261V527.42C1125.64 527.523 1125.46 527.616 1125.17 527.702C1124.88 527.781 1124.55 527.852 1124.18 527.915C1123.81 527.972 1123.45 528.023 1123.1 528.068C1122.75 528.108 1122.47 528.142 1122.25 528.17C1121.73 528.239 1121.24 528.349 1120.79 528.503C1120.34 528.651 1119.97 528.875 1119.69 529.176C1119.42 529.472 1119.29 529.875 1119.29 530.386C1119.29 531.085 1119.54 531.614 1120.06 531.972C1120.58 532.324 1121.25 532.5 1122.05 532.5ZM1131.41 534V520.909H1133.35V522.886H1133.49C1133.73 522.239 1134.16 521.713 1134.79 521.31C1135.41 520.906 1136.12 520.705 1136.9 520.705C1137.05 520.705 1137.23 520.707 1137.45 520.713C1137.68 520.719 1137.84 520.727 1137.96 520.739V522.784C1137.89 522.767 1137.73 522.741 1137.49 522.707C1137.25 522.668 1137 522.648 1136.73 522.648C1136.09 522.648 1135.52 522.781 1135.02 523.048C1134.53 523.31 1134.14 523.673 1133.85 524.139C1133.56 524.599 1133.42 525.125 1133.42 525.716V534H1131.41ZM1142.03 538.909C1141.69 538.909 1141.39 538.881 1141.12 538.824C1140.86 538.773 1140.67 538.722 1140.57 538.67L1141.08 536.898C1141.57 537.023 1142 537.068 1142.38 537.034C1142.75 537 1143.08 536.832 1143.37 536.531C1143.67 536.236 1143.94 535.756 1144.18 535.091L1144.56 534.068L1139.72 520.909H1141.9L1145.51 531.341H1145.65L1149.26 520.909H1151.44L1145.89 535.909C1145.64 536.585 1145.33 537.145 1144.96 537.588C1144.59 538.037 1144.16 538.369 1143.67 538.585C1143.19 538.801 1142.64 538.909 1142.03 538.909Z" fill="white"/>
<path d="M895.699 570.727V573.511H886.67V570.727H895.699ZM888.927 586V569.286C888.927 568.258 889.139 567.403 889.564 566.72C889.994 566.037 890.571 565.527 891.294 565.189C892.016 564.851 892.818 564.682 893.7 564.682C894.323 564.682 894.877 564.732 895.36 564.831C895.844 564.93 896.202 565.02 896.434 565.099L895.718 567.884C895.566 567.837 895.374 567.791 895.142 567.744C894.91 567.691 894.651 567.665 894.366 567.665C893.697 567.665 893.223 567.827 892.944 568.152C892.672 568.47 892.537 568.928 892.537 569.524V586H888.927ZM904.605 586.298C903.114 586.298 901.821 585.97 900.727 585.314C899.634 584.658 898.785 583.74 898.182 582.56C897.585 581.38 897.287 580.001 897.287 578.423C897.287 576.846 897.585 575.464 898.182 574.277C898.785 573.09 899.634 572.169 900.727 571.513C901.821 570.857 903.114 570.528 904.605 570.528C906.097 570.528 907.389 570.857 908.483 571.513C909.577 572.169 910.422 573.09 911.018 574.277C911.622 575.464 911.923 576.846 911.923 578.423C911.923 580.001 911.622 581.38 911.018 582.56C910.422 583.74 909.577 584.658 908.483 585.314C907.389 585.97 906.097 586.298 904.605 586.298ZM904.625 583.415C905.434 583.415 906.11 583.193 906.653 582.749C907.197 582.298 907.601 581.695 907.866 580.939C908.138 580.183 908.274 579.341 908.274 578.413C908.274 577.479 908.138 576.634 907.866 575.878C907.601 575.116 907.197 574.509 906.653 574.058C906.11 573.607 905.434 573.382 904.625 573.382C903.796 573.382 903.107 573.607 902.557 574.058C902.013 574.509 901.606 575.116 901.334 575.878C901.069 576.634 900.936 577.479 900.936 578.413C900.936 579.341 901.069 580.183 901.334 580.939C901.606 581.695 902.013 582.298 902.557 582.749C903.107 583.193 903.796 583.415 904.625 583.415ZM924.713 579.577V570.727H928.312V586H924.822V583.286H924.663C924.318 584.141 923.752 584.84 922.963 585.384C922.181 585.927 921.216 586.199 920.069 586.199C919.068 586.199 918.183 585.977 917.414 585.533C916.652 585.082 916.056 584.429 915.625 583.574C915.194 582.712 914.978 581.671 914.978 580.452V570.727H918.578V579.895C918.578 580.863 918.843 581.632 919.373 582.202C919.904 582.772 920.6 583.057 921.461 583.057C921.992 583.057 922.505 582.928 923.002 582.669C923.5 582.411 923.907 582.026 924.225 581.516C924.55 580.999 924.713 580.352 924.713 579.577ZM935.613 577.051V586H932.013V570.727H935.454V573.322H935.633C935.984 572.467 936.544 571.788 937.313 571.284C938.089 570.78 939.047 570.528 940.187 570.528C941.241 570.528 942.159 570.754 942.941 571.205C943.73 571.655 944.34 572.308 944.771 573.163C945.208 574.018 945.424 575.056 945.417 576.276V586H941.817V576.832C941.817 575.812 941.552 575.013 941.022 574.436C940.498 573.859 939.772 573.571 938.844 573.571C938.215 573.571 937.655 573.71 937.164 573.989C936.68 574.26 936.299 574.655 936.021 575.172C935.749 575.689 935.613 576.315 935.613 577.051ZM958.333 576.037V579H949.165V576.037H958.333ZM968.781 586.298C967.256 586.298 965.947 585.964 964.853 585.294C963.766 584.625 962.928 583.7 962.338 582.52C961.754 581.333 961.463 579.968 961.463 578.423C961.463 576.872 961.761 575.503 962.358 574.317C962.954 573.124 963.796 572.196 964.883 571.533C965.977 570.863 967.27 570.528 968.761 570.528C970.001 570.528 971.098 570.757 972.052 571.214C973.013 571.665 973.779 572.305 974.349 573.134C974.919 573.955 975.244 574.917 975.324 576.017H971.883C971.744 575.281 971.413 574.668 970.889 574.178C970.372 573.68 969.679 573.432 968.811 573.432C968.075 573.432 967.429 573.631 966.872 574.028C966.315 574.42 965.881 574.983 965.569 575.719C965.264 576.455 965.112 577.336 965.112 578.364C965.112 579.404 965.264 580.299 965.569 581.048C965.874 581.791 966.302 582.364 966.852 582.768C967.409 583.166 968.062 583.365 968.811 583.365C969.341 583.365 969.815 583.266 970.233 583.067C970.657 582.861 971.011 582.566 971.297 582.182C971.582 581.797 971.777 581.33 971.883 580.78H975.324C975.237 581.86 974.919 582.818 974.369 583.653C973.819 584.482 973.07 585.132 972.122 585.602C971.174 586.066 970.06 586.298 968.781 586.298ZM984.941 586.298C983.45 586.298 982.157 585.97 981.063 585.314C979.969 584.658 979.121 583.74 978.518 582.56C977.921 581.38 977.623 580.001 977.623 578.423C977.623 576.846 977.921 575.464 978.518 574.277C979.121 573.09 979.969 572.169 981.063 571.513C982.157 570.857 983.45 570.528 984.941 570.528C986.433 570.528 987.725 570.857 988.819 571.513C989.913 572.169 990.758 573.09 991.354 574.277C991.958 575.464 992.259 576.846 992.259 578.423C992.259 580.001 991.958 581.38 991.354 582.56C990.758 583.74 989.913 584.658 988.819 585.314C987.725 585.97 986.433 586.298 984.941 586.298ZM984.961 583.415C985.77 583.415 986.446 583.193 986.989 582.749C987.533 582.298 987.937 581.695 988.202 580.939C988.474 580.183 988.61 579.341 988.61 578.413C988.61 577.479 988.474 576.634 988.202 575.878C987.937 575.116 987.533 574.509 986.989 574.058C986.446 573.607 985.77 573.382 984.961 573.382C984.132 573.382 983.443 573.607 982.893 574.058C982.349 574.509 981.942 575.116 981.67 575.878C981.405 576.634 981.272 577.479 981.272 578.413C981.272 579.341 981.405 580.183 981.67 580.939C981.942 581.695 982.349 582.298 982.893 582.749C983.443 583.193 984.132 583.415 984.961 583.415ZM998.914 565.636V586H995.314V565.636H998.914ZM1009.28 586.298C1007.79 586.298 1006.49 585.97 1005.4 585.314C1004.31 584.658 1003.46 583.74 1002.85 582.56C1002.26 581.38 1001.96 580.001 1001.96 578.423C1001.96 576.846 1002.26 575.464 1002.85 574.277C1003.46 573.09 1004.31 572.169 1005.4 571.513C1006.49 570.857 1007.79 570.528 1009.28 570.528C1010.77 570.528 1012.06 570.857 1013.15 571.513C1014.25 572.169 1015.09 573.09 1015.69 574.277C1016.29 575.464 1016.6 576.846 1016.6 578.423C1016.6 580.001 1016.29 581.38 1015.69 582.56C1015.09 583.74 1014.25 584.658 1013.15 585.314C1012.06 585.97 1010.77 586.298 1009.28 586.298ZM1009.3 583.415C1010.11 583.415 1010.78 583.193 1011.33 582.749C1011.87 582.298 1012.27 581.695 1012.54 580.939C1012.81 580.183 1012.95 579.341 1012.95 578.413C1012.95 577.479 1012.81 576.634 1012.54 575.878C1012.27 575.116 1011.87 574.509 1011.33 574.058C1010.78 573.607 1010.11 573.382 1009.3 573.382C1008.47 573.382 1007.78 573.607 1007.23 574.058C1006.69 574.509 1006.28 575.116 1006.01 575.878C1005.74 576.634 1005.61 577.479 1005.61 578.413C1005.61 579.341 1005.74 580.183 1006.01 580.939C1006.28 581.695 1006.69 582.298 1007.23 582.749C1007.78 583.193 1008.47 583.415 1009.3 583.415ZM1019.65 586V570.727H1023.14V573.273H1023.3C1023.58 572.391 1024.06 571.712 1024.73 571.234C1025.41 570.75 1026.19 570.509 1027.07 570.509C1027.27 570.509 1027.49 570.518 1027.73 570.538C1027.99 570.552 1028.19 570.575 1028.36 570.608V573.919C1028.21 573.866 1027.97 573.82 1027.63 573.78C1027.31 573.733 1026.99 573.71 1026.69 573.71C1026.03 573.71 1025.44 573.853 1024.92 574.138C1024.4 574.416 1024 574.804 1023.7 575.301C1023.4 575.798 1023.25 576.372 1023.25 577.021V586H1019.65ZM1039.33 576.037V579H1030.16V576.037H1039.33ZM1056.75 570.727L1051.31 586H1047.34L1041.9 570.727H1045.74L1049.25 582.072H1049.41L1052.93 570.727H1056.75ZM1059.24 586V570.727H1062.84V586H1059.24ZM1061.05 568.56C1060.48 568.56 1059.99 568.371 1059.58 567.993C1059.17 567.608 1058.97 567.148 1058.97 566.611C1058.97 566.067 1059.17 565.607 1059.58 565.229C1059.99 564.844 1060.48 564.652 1061.05 564.652C1061.63 564.652 1062.12 564.844 1062.53 565.229C1062.94 565.607 1063.14 566.067 1063.14 566.611C1063.14 567.148 1062.94 567.608 1062.53 567.993C1062.12 568.371 1061.63 568.56 1061.05 568.56ZM1073.21 586.298C1071.72 586.298 1070.42 585.97 1069.33 585.314C1068.24 584.658 1067.39 583.74 1066.78 582.56C1066.19 581.38 1065.89 580.001 1065.89 578.423C1065.89 576.846 1066.19 575.464 1066.78 574.277C1067.39 573.09 1068.24 572.169 1069.33 571.513C1070.42 570.857 1071.72 570.528 1073.21 570.528C1074.7 570.528 1075.99 570.857 1077.08 571.513C1078.18 572.169 1079.02 573.09 1079.62 574.277C1080.22 575.464 1080.52 576.846 1080.52 578.423C1080.52 580.001 1080.22 581.38 1079.62 582.56C1079.02 583.74 1078.18 584.658 1077.08 585.314C1075.99 585.97 1074.7 586.298 1073.21 586.298ZM1073.23 583.415C1074.04 583.415 1074.71 583.193 1075.25 582.749C1075.8 582.298 1076.2 581.695 1076.47 580.939C1076.74 580.183 1076.88 579.341 1076.88 578.413C1076.88 577.479 1076.74 576.634 1076.47 575.878C1076.2 575.116 1075.8 574.509 1075.25 574.058C1074.71 573.607 1074.04 573.382 1073.23 573.382C1072.4 573.382 1071.71 573.607 1071.16 574.058C1070.61 574.509 1070.21 575.116 1069.94 575.878C1069.67 576.634 1069.54 577.479 1069.54 578.413C1069.54 579.341 1069.67 580.183 1069.94 580.939C1070.21 581.695 1070.61 582.298 1071.16 582.749C1071.71 583.193 1072.4 583.415 1073.23 583.415ZM1087.18 565.636V586H1083.58V565.636H1087.18ZM1097.64 586.298C1096.11 586.298 1094.79 585.98 1093.67 585.344C1092.57 584.701 1091.72 583.793 1091.12 582.619C1090.52 581.439 1090.22 580.051 1090.22 578.453C1090.22 576.882 1090.52 575.503 1091.12 574.317C1091.72 573.124 1092.56 572.196 1093.64 571.533C1094.73 570.863 1095.99 570.528 1097.45 570.528C1098.39 570.528 1099.28 570.681 1100.12 570.986C1100.96 571.284 1101.7 571.748 1102.35 572.378C1102.99 573.008 1103.51 573.81 1103.88 574.784C1104.25 575.752 1104.43 576.905 1104.43 578.244V579.348H1091.91V576.922H1100.98C1100.98 576.232 1100.83 575.619 1100.54 575.082C1100.24 574.539 1099.84 574.111 1099.31 573.8C1098.8 573.488 1098.19 573.332 1097.5 573.332C1096.77 573.332 1096.12 573.511 1095.56 573.869C1095.01 574.221 1094.57 574.685 1094.26 575.261C1093.96 575.831 1093.8 576.458 1093.79 577.141V579.259C1093.79 580.147 1093.96 580.909 1094.28 581.545C1094.61 582.175 1095.06 582.659 1095.64 582.997C1096.23 583.329 1096.91 583.494 1097.69 583.494C1098.22 583.494 1098.69 583.421 1099.11 583.276C1099.54 583.123 1099.91 582.901 1100.22 582.609C1100.53 582.318 1100.76 581.956 1100.92 581.526L1104.28 581.903C1104.07 582.792 1103.67 583.567 1103.07 584.23C1102.48 584.886 1101.73 585.397 1100.8 585.761C1099.88 586.119 1098.83 586.298 1097.64 586.298ZM1115.1 570.727V573.511H1106.32V570.727H1115.1ZM1108.49 567.068H1112.09V581.406C1112.09 581.89 1112.16 582.261 1112.31 582.52C1112.46 582.772 1112.66 582.944 1112.91 583.037C1113.15 583.13 1113.42 583.176 1113.72 583.176C1113.95 583.176 1114.15 583.16 1114.34 583.126C1114.53 583.093 1114.68 583.063 1114.78 583.037L1115.38 585.851C1115.19 585.917 1114.92 585.99 1114.56 586.07C1114.21 586.149 1113.78 586.196 1113.27 586.209C1112.36 586.235 1111.55 586.099 1110.83 585.801C1110.11 585.496 1109.53 585.026 1109.11 584.389C1108.69 583.753 1108.49 582.957 1108.49 582.003V567.068ZM1126.88 576.037V579H1117.71V576.037H1126.88ZM1137.71 586.278C1136.38 586.278 1135.19 586.03 1134.15 585.533C1133.1 585.029 1132.27 584.339 1131.65 583.464C1131.04 582.589 1130.72 581.589 1130.68 580.462H1134.26C1134.32 581.297 1134.68 581.98 1135.34 582.51C1136 583.034 1136.78 583.295 1137.71 583.295C1138.43 583.295 1139.07 583.13 1139.63 582.798C1140.2 582.467 1140.64 582.006 1140.97 581.416C1141.29 580.826 1141.45 580.153 1141.44 579.398C1141.45 578.629 1141.29 577.946 1140.96 577.349C1140.63 576.753 1140.17 576.286 1139.59 575.947C1139.02 575.603 1138.36 575.43 1137.61 575.43C1137 575.424 1136.4 575.536 1135.81 575.768C1135.22 576 1134.75 576.305 1134.4 576.683L1131.07 576.136L1132.14 565.636H1143.95V568.719H1135.19L1134.6 574.118H1134.72C1135.1 573.674 1135.63 573.306 1136.32 573.014C1137.01 572.716 1137.77 572.567 1138.59 572.567C1139.82 572.567 1140.92 572.858 1141.89 573.442C1142.86 574.018 1143.62 574.814 1144.18 575.828C1144.74 576.842 1145.01 578.002 1145.01 579.308C1145.01 580.654 1144.7 581.854 1144.08 582.908C1143.46 583.955 1142.6 584.78 1141.5 585.384C1140.41 585.98 1139.14 586.278 1137.71 586.278ZM1155.87 586.388C1154.23 586.388 1152.83 585.973 1151.66 585.145C1150.49 584.31 1149.59 583.107 1148.96 581.536C1148.34 579.958 1148.03 578.059 1148.03 575.838C1148.03 573.617 1148.35 571.728 1148.97 570.17C1149.6 568.606 1150.5 567.413 1151.67 566.591C1152.84 565.769 1154.24 565.358 1155.87 565.358C1157.5 565.358 1158.9 565.769 1160.08 566.591C1161.25 567.413 1162.15 568.606 1162.77 570.17C1163.4 571.735 1163.72 573.624 1163.72 575.838C1163.72 578.065 1163.4 579.968 1162.77 581.545C1162.15 583.116 1161.25 584.316 1160.08 585.145C1158.91 585.973 1157.51 586.388 1155.87 586.388ZM1155.87 583.276C1157.14 583.276 1158.15 582.649 1158.88 581.396C1159.63 580.137 1160 578.284 1160 575.838C1160 574.221 1159.83 572.862 1159.49 571.761C1159.15 570.661 1158.68 569.832 1158.06 569.276C1157.44 568.712 1156.71 568.43 1155.87 568.43C1154.61 568.43 1153.6 569.06 1152.87 570.32C1152.13 571.572 1151.76 573.412 1151.76 575.838C1151.75 577.462 1151.91 578.828 1152.24 579.935C1152.58 581.042 1153.06 581.877 1153.67 582.44C1154.29 582.997 1155.02 583.276 1155.87 583.276ZM1174.55 586.388C1172.91 586.388 1171.5 585.973 1170.33 585.145C1169.17 584.31 1168.27 583.107 1167.64 581.536C1167.01 579.958 1166.7 578.059 1166.7 575.838C1166.71 573.617 1167.02 571.728 1167.65 570.17C1168.28 568.606 1169.17 567.413 1170.34 566.591C1171.51 565.769 1172.92 565.358 1174.55 565.358C1176.18 565.358 1177.58 565.769 1178.75 566.591C1179.93 567.413 1180.83 568.606 1181.45 570.17C1182.08 571.735 1182.39 573.624 1182.39 575.838C1182.39 578.065 1182.08 579.968 1181.45 581.545C1180.83 583.116 1179.93 584.316 1178.75 585.145C1177.59 585.973 1176.18 586.388 1174.55 586.388ZM1174.55 583.276C1175.82 583.276 1176.82 582.649 1177.56 581.396C1178.3 580.137 1178.67 578.284 1178.67 575.838C1178.67 574.221 1178.5 572.862 1178.17 571.761C1177.83 570.661 1177.35 569.832 1176.74 569.276C1176.12 568.712 1175.39 568.43 1174.55 568.43C1173.28 568.43 1172.28 569.06 1171.54 570.32C1170.81 571.572 1170.44 573.412 1170.43 575.838C1170.42 577.462 1170.59 578.828 1170.92 579.935C1171.26 581.042 1171.73 581.877 1172.35 582.44C1172.97 582.997 1173.7 583.276 1174.55 583.276Z" fill="white"/>
<path d="M386 289H544C558.912 289 571 301.088 571 316C571 330.912 558.912 343 544 343H386C371.088 343 359 330.912 359 316C359 301.088 371.088 289 386 289Z" fill="white"/>
<path d="M386 289H544C558.912 289 571 301.088 571 316C571 330.912 558.912 343 544 343H386C371.088 343 359 330.912 359 316C359 301.088 371.088 289 386 289Z" stroke="#E5E5E5"/>
<path d="M392.443 324V306.545H399.431C400.716 306.545 401.787 306.736 402.645 307.116C403.502 307.497 404.147 308.026 404.579 308.702C405.011 309.372 405.227 310.145 405.227 311.02C405.227 311.702 405.091 312.301 404.818 312.818C404.545 313.33 404.17 313.75 403.693 314.08C403.221 314.403 402.681 314.634 402.074 314.77V314.94C402.738 314.969 403.36 315.156 403.94 315.503C404.525 315.849 405 316.335 405.363 316.96C405.727 317.58 405.909 318.318 405.909 319.176C405.909 320.102 405.679 320.929 405.218 321.656C404.764 322.378 404.091 322.949 403.199 323.369C402.306 323.79 401.207 324 399.9 324H392.443ZM396.133 320.983H399.142C400.17 320.983 400.92 320.787 401.392 320.395C401.863 319.997 402.099 319.469 402.099 318.81C402.099 318.327 401.983 317.901 401.75 317.531C401.517 317.162 401.184 316.872 400.752 316.662C400.326 316.452 399.818 316.347 399.227 316.347H396.133V320.983ZM396.133 313.849H398.869C399.375 313.849 399.824 313.761 400.216 313.585C400.613 313.403 400.926 313.148 401.153 312.818C401.386 312.489 401.502 312.094 401.502 311.634C401.502 311.003 401.278 310.494 400.829 310.108C400.386 309.722 399.755 309.528 398.937 309.528H396.133V313.849ZM408.242 324V310.909H411.762V313.193H411.898C412.137 312.381 412.537 311.767 413.1 311.352C413.662 310.932 414.31 310.722 415.043 310.722C415.225 310.722 415.421 310.733 415.631 310.756C415.841 310.778 416.026 310.81 416.185 310.849V314.071C416.015 314.02 415.779 313.974 415.478 313.935C415.176 313.895 414.901 313.875 414.651 313.875C414.117 313.875 413.64 313.991 413.219 314.224C412.804 314.452 412.475 314.77 412.23 315.179C411.992 315.588 411.873 316.06 411.873 316.594V324H408.242ZM421.42 324.247C420.585 324.247 419.841 324.102 419.187 323.812C418.534 323.517 418.017 323.082 417.636 322.509C417.261 321.929 417.074 321.207 417.074 320.344C417.074 319.616 417.207 319.006 417.474 318.511C417.741 318.017 418.105 317.619 418.565 317.318C419.025 317.017 419.548 316.79 420.133 316.636C420.724 316.483 421.343 316.375 421.991 316.312C422.752 316.233 423.366 316.159 423.832 316.091C424.298 316.017 424.636 315.909 424.846 315.767C425.056 315.625 425.162 315.415 425.162 315.136V315.085C425.162 314.545 424.991 314.128 424.65 313.832C424.315 313.537 423.838 313.389 423.218 313.389C422.565 313.389 422.045 313.534 421.659 313.824C421.272 314.108 421.017 314.466 420.892 314.898L417.534 314.625C417.704 313.83 418.039 313.142 418.539 312.562C419.039 311.977 419.684 311.528 420.474 311.216C421.27 310.898 422.19 310.739 423.235 310.739C423.963 310.739 424.659 310.824 425.324 310.994C425.994 311.165 426.588 311.429 427.105 311.787C427.627 312.145 428.039 312.605 428.341 313.168C428.642 313.724 428.792 314.392 428.792 315.17V324H425.349V322.185H425.247C425.037 322.594 424.755 322.955 424.403 323.267C424.051 323.574 423.627 323.815 423.133 323.991C422.639 324.162 422.068 324.247 421.42 324.247ZM422.46 321.741C422.994 321.741 423.466 321.636 423.875 321.426C424.284 321.21 424.605 320.92 424.838 320.557C425.071 320.193 425.187 319.781 425.187 319.321V317.932C425.074 318.006 424.917 318.074 424.718 318.136C424.525 318.193 424.306 318.247 424.062 318.298C423.818 318.344 423.574 318.386 423.329 318.426C423.085 318.46 422.863 318.491 422.664 318.52C422.238 318.582 421.866 318.682 421.548 318.818C421.23 318.955 420.983 319.139 420.806 319.372C420.63 319.599 420.542 319.884 420.542 320.224C420.542 320.719 420.721 321.097 421.079 321.358C421.443 321.614 421.903 321.741 422.46 321.741ZM435.24 316.432V324H431.609V310.909H435.069V313.219H435.223C435.512 312.457 435.998 311.855 436.68 311.412C437.362 310.963 438.189 310.739 439.16 310.739C440.069 310.739 440.862 310.938 441.538 311.335C442.214 311.733 442.74 312.301 443.115 313.04C443.49 313.773 443.677 314.648 443.677 315.665V324H440.047V316.312C440.052 315.511 439.848 314.886 439.433 314.438C439.018 313.983 438.447 313.756 437.72 313.756C437.231 313.756 436.799 313.861 436.424 314.071C436.055 314.281 435.765 314.588 435.555 314.991C435.35 315.389 435.245 315.869 435.24 316.432ZM451.363 324.213C450.368 324.213 449.468 323.957 448.661 323.446C447.86 322.929 447.223 322.17 446.752 321.17C446.286 320.165 446.053 318.932 446.053 317.472C446.053 315.972 446.294 314.724 446.777 313.73C447.26 312.73 447.902 311.983 448.703 311.489C449.51 310.989 450.394 310.739 451.354 310.739C452.087 310.739 452.698 310.864 453.186 311.114C453.681 311.358 454.078 311.665 454.38 312.034C454.686 312.398 454.919 312.756 455.078 313.108H455.189V306.545H458.811V324H455.232V321.903H455.078C454.908 322.267 454.667 322.628 454.354 322.986C454.047 323.338 453.647 323.631 453.152 323.864C452.664 324.097 452.067 324.213 451.363 324.213ZM452.513 321.324C453.098 321.324 453.593 321.165 453.996 320.847C454.405 320.523 454.718 320.071 454.934 319.491C455.155 318.912 455.266 318.233 455.266 317.455C455.266 316.676 455.158 316 454.942 315.426C454.726 314.852 454.414 314.409 454.005 314.097C453.596 313.784 453.098 313.628 452.513 313.628C451.917 313.628 451.414 313.79 451.005 314.114C450.596 314.437 450.286 314.886 450.076 315.46C449.865 316.034 449.76 316.699 449.76 317.455C449.76 318.216 449.865 318.889 450.076 319.474C450.292 320.054 450.601 320.509 451.005 320.838C451.414 321.162 451.917 321.324 452.513 321.324ZM474.632 310.909V312.614H467.848V310.909H474.632ZM469.825 307.773H471.836V320.25C471.836 320.818 471.919 321.244 472.083 321.528C472.254 321.807 472.47 321.994 472.731 322.091C472.998 322.182 473.279 322.227 473.575 322.227C473.797 322.227 473.978 322.216 474.12 322.193C474.262 322.165 474.376 322.142 474.461 322.125L474.87 323.932C474.734 323.983 474.544 324.034 474.299 324.085C474.055 324.142 473.745 324.17 473.37 324.17C472.802 324.17 472.245 324.048 471.7 323.804C471.16 323.56 470.711 323.188 470.353 322.688C470.001 322.188 469.825 321.557 469.825 320.795V307.773ZM479.95 316.125V324H477.939V306.545H479.95V312.955H480.12C480.427 312.278 480.887 311.741 481.501 311.344C482.12 310.94 482.944 310.739 483.973 310.739C484.865 310.739 485.646 310.918 486.316 311.276C486.987 311.628 487.507 312.17 487.876 312.903C488.251 313.631 488.439 314.557 488.439 315.682V324H486.427V315.818C486.427 314.778 486.157 313.974 485.618 313.406C485.083 312.832 484.342 312.545 483.393 312.545C482.734 312.545 482.143 312.685 481.62 312.963C481.103 313.241 480.694 313.648 480.393 314.182C480.098 314.716 479.95 315.364 479.95 316.125ZM497.607 324.273C496.346 324.273 495.257 323.994 494.343 323.438C493.434 322.875 492.732 322.091 492.238 321.085C491.749 320.074 491.505 318.898 491.505 317.557C491.505 316.216 491.749 315.034 492.238 314.011C492.732 312.983 493.419 312.182 494.3 311.608C495.186 311.028 496.221 310.739 497.402 310.739C498.084 310.739 498.757 310.852 499.422 311.08C500.087 311.307 500.692 311.676 501.238 312.188C501.783 312.693 502.218 313.364 502.542 314.199C502.865 315.034 503.027 316.062 503.027 317.284V318.136H492.936V316.398H500.982C500.982 315.659 500.834 315 500.539 314.42C500.249 313.841 499.834 313.384 499.294 313.048C498.76 312.713 498.13 312.545 497.402 312.545C496.601 312.545 495.908 312.744 495.323 313.142C494.743 313.534 494.297 314.045 493.985 314.676C493.672 315.307 493.516 315.983 493.516 316.705V317.864C493.516 318.852 493.686 319.69 494.027 320.378C494.374 321.06 494.854 321.58 495.468 321.938C496.081 322.29 496.794 322.466 497.607 322.466C498.135 322.466 498.613 322.392 499.039 322.244C499.471 322.091 499.843 321.864 500.155 321.562C500.468 321.256 500.709 320.875 500.88 320.42L502.823 320.966C502.618 321.625 502.275 322.205 501.792 322.705C501.309 323.199 500.712 323.585 500.002 323.864C499.292 324.136 498.493 324.273 497.607 324.273ZM506.087 324V310.909H508.03V312.955H508.201C508.473 312.256 508.914 311.713 509.522 311.327C510.13 310.935 510.86 310.739 511.712 310.739C512.576 310.739 513.294 310.935 513.868 311.327C514.448 311.713 514.9 312.256 515.223 312.955H515.36C515.695 312.278 516.198 311.741 516.868 311.344C517.539 310.94 518.343 310.739 519.28 310.739C520.451 310.739 521.408 311.105 522.152 311.838C522.897 312.565 523.269 313.699 523.269 315.239V324H521.257V315.239C521.257 314.273 520.993 313.582 520.465 313.168C519.936 312.753 519.314 312.545 518.598 312.545C517.678 312.545 516.965 312.824 516.459 313.381C515.953 313.932 515.701 314.631 515.701 315.477V324H513.655V315.034C513.655 314.29 513.414 313.69 512.931 313.236C512.448 312.776 511.826 312.545 511.064 312.545C510.542 312.545 510.053 312.685 509.598 312.963C509.15 313.241 508.786 313.628 508.507 314.122C508.235 314.611 508.098 315.176 508.098 315.818V324H506.087ZM532.435 324.273C531.174 324.273 530.086 323.994 529.171 323.438C528.262 322.875 527.56 322.091 527.066 321.085C526.577 320.074 526.333 318.898 526.333 317.557C526.333 316.216 526.577 315.034 527.066 314.011C527.56 312.983 528.248 312.182 529.128 311.608C530.015 311.028 531.049 310.739 532.23 310.739C532.912 310.739 533.586 310.852 534.25 311.08C534.915 311.307 535.52 311.676 536.066 312.188C536.611 312.693 537.046 313.364 537.37 314.199C537.694 315.034 537.855 316.062 537.855 317.284V318.136H527.765V316.398H535.81C535.81 315.659 535.662 315 535.367 314.42C535.077 313.841 534.662 313.384 534.123 313.048C533.588 312.713 532.958 312.545 532.23 312.545C531.429 312.545 530.736 312.744 530.151 313.142C529.571 313.534 529.125 314.045 528.813 314.676C528.5 315.307 528.344 315.983 528.344 316.705V317.864C528.344 318.852 528.515 319.69 528.855 320.378C529.202 321.06 529.682 321.58 530.296 321.938C530.909 322.29 531.623 322.466 532.435 322.466C532.963 322.466 533.441 322.392 533.867 322.244C534.299 322.091 534.671 321.864 534.983 321.562C535.296 321.256 535.537 320.875 535.708 320.42L537.651 320.966C537.446 321.625 537.103 322.205 536.62 322.705C536.137 323.199 535.54 323.585 534.83 323.864C534.12 324.136 533.321 324.273 532.435 324.273Z" fill="#333333"/>
<path d="M932 289H1138C1152.91 289 1165 301.088 1165 316C1165 330.912 1152.91 343 1138 343H932C917.088 343 905 330.912 905 316C905 301.088 917.088 289 932 289Z" fill="white"/>
<path d="M932 289H1138C1152.91 289 1165 301.088 1165 316C1165 330.912 1152.91 343 1138 343H932C917.088 343 905 330.912 905 316C905 301.088 917.088 289 932 289Z" stroke="#E5E5E5"/>
<path d="M937.951 324V306.545H949.712V309.588H941.641V313.747H949.107V316.79H941.641V320.957H949.746V324H937.951ZM957.402 324.213C956.407 324.213 955.507 323.957 954.7 323.446C953.899 322.929 953.262 322.17 952.791 321.17C952.325 320.165 952.092 318.932 952.092 317.472C952.092 315.972 952.333 314.724 952.816 313.73C953.299 312.73 953.941 311.983 954.743 311.489C955.549 310.989 956.433 310.739 957.393 310.739C958.126 310.739 958.737 310.864 959.225 311.114C959.72 311.358 960.118 311.665 960.419 312.034C960.725 312.398 960.958 312.756 961.118 313.108H961.228V306.545H964.85V324H961.271V321.903H961.118C960.947 322.267 960.706 322.628 960.393 322.986C960.086 323.338 959.686 323.631 959.191 323.864C958.703 324.097 958.106 324.213 957.402 324.213ZM958.552 321.324C959.137 321.324 959.632 321.165 960.035 320.847C960.444 320.523 960.757 320.071 960.973 319.491C961.194 318.912 961.305 318.233 961.305 317.455C961.305 316.676 961.197 316 960.981 315.426C960.765 314.852 960.453 314.409 960.044 314.097C959.635 313.784 959.137 313.628 958.552 313.628C957.956 313.628 957.453 313.79 957.044 314.114C956.635 314.437 956.325 314.886 956.115 315.46C955.904 316.034 955.799 316.699 955.799 317.455C955.799 318.216 955.904 318.889 956.115 319.474C956.331 320.054 956.64 320.509 957.044 320.838C957.453 321.162 957.956 321.324 958.552 321.324ZM976.23 318.426V310.909H979.861V324H976.375V321.622H976.239C975.944 322.389 975.452 323.006 974.765 323.472C974.083 323.937 973.25 324.17 972.267 324.17C971.392 324.17 970.623 323.972 969.958 323.574C969.293 323.176 968.773 322.611 968.398 321.878C968.029 321.145 967.841 320.267 967.836 319.244V310.909H971.466V318.597C971.472 319.369 971.679 319.98 972.088 320.429C972.498 320.878 973.046 321.102 973.733 321.102C974.171 321.102 974.58 321.003 974.961 320.804C975.341 320.599 975.648 320.298 975.881 319.901C976.12 319.503 976.236 319.011 976.23 318.426ZM988.68 324.256C987.339 324.256 986.186 323.972 985.22 323.403C984.26 322.83 983.521 322.034 983.004 321.017C982.493 320 982.237 318.83 982.237 317.506C982.237 316.165 982.495 314.989 983.012 313.977C983.535 312.96 984.277 312.168 985.237 311.599C986.197 311.026 987.339 310.739 988.663 310.739C989.805 310.739 990.805 310.946 991.663 311.361C992.521 311.776 993.2 312.358 993.7 313.108C994.2 313.858 994.475 314.739 994.527 315.75H991.1C991.004 315.097 990.748 314.571 990.333 314.173C989.924 313.77 989.387 313.568 988.723 313.568C988.16 313.568 987.669 313.722 987.248 314.028C986.833 314.33 986.51 314.77 986.277 315.349C986.044 315.929 985.927 316.631 985.927 317.455C985.927 318.29 986.041 319 986.268 319.585C986.501 320.17 986.828 320.616 987.248 320.923C987.669 321.23 988.16 321.384 988.723 321.384C989.137 321.384 989.51 321.298 989.839 321.128C990.174 320.957 990.45 320.71 990.666 320.386C990.887 320.057 991.032 319.662 991.1 319.202H994.527C994.47 320.202 994.197 321.082 993.708 321.844C993.225 322.599 992.558 323.19 991.706 323.616C990.853 324.043 989.845 324.256 988.68 324.256ZM1000.58 324.247C999.749 324.247 999.005 324.102 998.351 323.812C997.698 323.517 997.181 323.082 996.8 322.509C996.425 321.929 996.238 321.207 996.238 320.344C996.238 319.616 996.371 319.006 996.638 318.511C996.905 318.017 997.269 317.619 997.729 317.318C998.189 317.017 998.712 316.79 999.297 316.636C999.888 316.483 1000.51 316.375 1001.16 316.312C1001.92 316.233 1002.53 316.159 1003 316.091C1003.46 316.017 1003.8 315.909 1004.01 315.767C1004.22 315.625 1004.33 315.415 1004.33 315.136V315.085C1004.33 314.545 1004.16 314.128 1003.81 313.832C1003.48 313.537 1003 313.389 1002.38 313.389C1001.73 313.389 1001.21 313.534 1000.82 313.824C1000.44 314.108 1000.18 314.466 1000.06 314.898L996.698 314.625C996.868 313.83 997.203 313.142 997.703 312.562C998.203 311.977 998.848 311.528 999.638 311.216C1000.43 310.898 1001.35 310.739 1002.4 310.739C1003.13 310.739 1003.82 310.824 1004.49 310.994C1005.16 311.165 1005.75 311.429 1006.27 311.787C1006.79 312.145 1007.2 312.605 1007.5 313.168C1007.81 313.724 1007.96 314.392 1007.96 315.17V324H1004.51V322.185H1004.41C1004.2 322.594 1003.92 322.955 1003.57 323.267C1003.21 323.574 1002.79 323.815 1002.3 323.991C1001.8 324.162 1001.23 324.247 1000.58 324.247ZM1001.62 321.741C1002.16 321.741 1002.63 321.636 1003.04 321.426C1003.45 321.21 1003.77 320.92 1004 320.557C1004.23 320.193 1004.35 319.781 1004.35 319.321V317.932C1004.24 318.006 1004.08 318.074 1003.88 318.136C1003.69 318.193 1003.47 318.247 1003.23 318.298C1002.98 318.344 1002.74 318.386 1002.49 318.426C1002.25 318.46 1002.03 318.491 1001.83 318.52C1001.4 318.582 1001.03 318.682 1000.71 318.818C1000.39 318.955 1000.15 319.139 999.971 319.372C999.794 319.599 999.706 319.884 999.706 320.224C999.706 320.719 999.885 321.097 1000.24 321.358C1000.61 321.614 1001.07 321.741 1001.62 321.741ZM1017.74 310.909V313.636H1009.85V310.909H1017.74ZM1011.64 307.773H1015.27V319.977C1015.27 320.312 1015.32 320.574 1015.43 320.761C1015.53 320.943 1015.67 321.071 1015.85 321.145C1016.04 321.219 1016.26 321.256 1016.5 321.256C1016.67 321.256 1016.84 321.241 1017.01 321.213C1017.18 321.179 1017.31 321.153 1017.4 321.136L1017.97 323.838C1017.79 323.895 1017.54 323.96 1017.21 324.034C1016.88 324.114 1016.48 324.162 1016.01 324.179C1015.13 324.213 1014.36 324.097 1013.7 323.83C1013.05 323.562 1012.54 323.148 1012.18 322.585C1011.82 322.023 1011.64 321.312 1011.64 320.455V307.773ZM1020.1 324V310.909H1023.73V324H1020.1ZM1021.93 309.222C1021.39 309.222 1020.92 309.043 1020.54 308.685C1020.16 308.321 1019.96 307.886 1019.96 307.381C1019.96 306.881 1020.16 306.452 1020.54 306.094C1020.92 305.73 1021.39 305.548 1021.93 305.548C1022.46 305.548 1022.93 305.73 1023.31 306.094C1023.69 306.452 1023.89 306.881 1023.89 307.381C1023.89 307.886 1023.69 308.321 1023.31 308.685C1022.93 309.043 1022.46 309.222 1021.93 309.222ZM1032.56 324.256C1031.23 324.256 1030.09 323.974 1029.12 323.412C1028.16 322.844 1027.42 322.054 1026.9 321.043C1026.37 320.026 1026.11 318.847 1026.11 317.506C1026.11 316.153 1026.37 314.972 1026.9 313.96C1027.42 312.943 1028.16 312.153 1029.12 311.591C1030.09 311.023 1031.23 310.739 1032.56 310.739C1033.88 310.739 1035.02 311.023 1035.98 311.591C1036.95 312.153 1037.69 312.943 1038.21 313.96C1038.74 314.972 1039 316.153 1039 317.506C1039 318.847 1038.74 320.026 1038.21 321.043C1037.69 322.054 1036.95 322.844 1035.98 323.412C1035.02 323.974 1033.88 324.256 1032.56 324.256ZM1032.57 321.443C1033.17 321.443 1033.68 321.273 1034.08 320.932C1034.48 320.585 1034.79 320.114 1034.99 319.517C1035.2 318.92 1035.31 318.241 1035.31 317.48C1035.31 316.719 1035.2 316.04 1034.99 315.443C1034.79 314.847 1034.48 314.375 1034.08 314.028C1033.68 313.682 1033.17 313.509 1032.57 313.509C1031.96 313.509 1031.45 313.682 1031.04 314.028C1030.63 314.375 1030.32 314.847 1030.11 315.443C1029.9 316.04 1029.8 316.719 1029.8 317.48C1029.8 318.241 1029.9 318.92 1030.11 319.517C1030.32 320.114 1030.63 320.585 1031.04 320.932C1031.45 321.273 1031.96 321.443 1032.57 321.443ZM1044.99 316.432V324H1041.36V310.909H1044.82V313.219H1044.97C1045.26 312.457 1045.75 311.855 1046.43 311.412C1047.11 310.963 1047.94 310.739 1048.91 310.739C1049.82 310.739 1050.61 310.938 1051.29 311.335C1051.96 311.733 1052.49 312.301 1052.86 313.04C1053.24 313.773 1053.43 314.648 1053.43 315.665V324H1049.8V316.312C1049.8 315.511 1049.6 314.886 1049.18 314.438C1048.77 313.983 1048.2 313.756 1047.47 313.756C1046.98 313.756 1046.55 313.861 1046.17 314.071C1045.81 314.281 1045.52 314.588 1045.31 314.991C1045.1 315.389 1045 315.869 1044.99 316.432ZM1069.12 310.909V312.614H1062.34V310.909H1069.12ZM1064.32 307.773H1066.33V320.25C1066.33 320.818 1066.41 321.244 1066.58 321.528C1066.75 321.807 1066.96 321.994 1067.22 322.091C1067.49 322.182 1067.77 322.227 1068.07 322.227C1068.29 322.227 1068.47 322.216 1068.61 322.193C1068.75 322.165 1068.87 322.142 1068.95 322.125L1069.36 323.932C1069.23 323.983 1069.04 324.034 1068.79 324.085C1068.55 324.142 1068.24 324.17 1067.86 324.17C1067.29 324.17 1066.74 324.048 1066.19 323.804C1065.65 323.56 1065.2 323.188 1064.85 322.688C1064.49 322.188 1064.32 321.557 1064.32 320.795V307.773ZM1074.44 316.125V324H1072.43V306.545H1074.44V312.955H1074.61C1074.92 312.278 1075.38 311.741 1075.99 311.344C1076.61 310.94 1077.44 310.739 1078.46 310.739C1079.36 310.739 1080.14 310.918 1080.81 311.276C1081.48 311.628 1082 312.17 1082.37 312.903C1082.74 313.631 1082.93 314.557 1082.93 315.682V324H1080.92V315.818C1080.92 314.778 1080.65 313.974 1080.11 313.406C1079.58 312.832 1078.83 312.545 1077.89 312.545C1077.23 312.545 1076.64 312.685 1076.11 312.963C1075.6 313.241 1075.19 313.648 1074.89 314.182C1074.59 314.716 1074.44 315.364 1074.44 316.125ZM1092.1 324.273C1090.84 324.273 1089.75 323.994 1088.83 323.438C1087.93 322.875 1087.22 322.091 1086.73 321.085C1086.24 320.074 1086 318.898 1086 317.557C1086 316.216 1086.24 315.034 1086.73 314.011C1087.22 312.983 1087.91 312.182 1088.79 311.608C1089.68 311.028 1090.71 310.739 1091.89 310.739C1092.58 310.739 1093.25 310.852 1093.91 311.08C1094.58 311.307 1095.18 311.676 1095.73 312.188C1096.28 312.693 1096.71 313.364 1097.03 314.199C1097.36 315.034 1097.52 316.062 1097.52 317.284V318.136H1087.43V316.398H1095.47C1095.47 315.659 1095.33 315 1095.03 314.42C1094.74 313.841 1094.33 313.384 1093.79 313.048C1093.25 312.713 1092.62 312.545 1091.89 312.545C1091.09 312.545 1090.4 312.744 1089.81 313.142C1089.24 313.534 1088.79 314.045 1088.48 314.676C1088.16 315.307 1088.01 315.983 1088.01 316.705V317.864C1088.01 318.852 1088.18 319.69 1088.52 320.378C1088.87 321.06 1089.35 321.58 1089.96 321.938C1090.57 322.29 1091.29 322.466 1092.1 322.466C1092.63 322.466 1093.1 322.392 1093.53 322.244C1093.96 322.091 1094.33 321.864 1094.65 321.562C1094.96 321.256 1095.2 320.875 1095.37 320.42L1097.31 320.966C1097.11 321.625 1096.77 322.205 1096.28 322.705C1095.8 323.199 1095.2 323.585 1094.49 323.864C1093.78 324.136 1092.99 324.273 1092.1 324.273ZM1100.58 324V310.909H1102.52V312.955H1102.69C1102.97 312.256 1103.41 311.713 1104.01 311.327C1104.62 310.935 1105.35 310.739 1106.2 310.739C1107.07 310.739 1107.79 310.935 1108.36 311.327C1108.94 311.713 1109.39 312.256 1109.72 312.955H1109.85C1110.19 312.278 1110.69 311.741 1111.36 311.344C1112.03 310.94 1112.83 310.739 1113.77 310.739C1114.94 310.739 1115.9 311.105 1116.64 311.838C1117.39 312.565 1117.76 313.699 1117.76 315.239V324H1115.75V315.239C1115.75 314.273 1115.49 313.582 1114.96 313.168C1114.43 312.753 1113.81 312.545 1113.09 312.545C1112.17 312.545 1111.46 312.824 1110.95 313.381C1110.45 313.932 1110.19 314.631 1110.19 315.477V324H1108.15V315.034C1108.15 314.29 1107.91 313.69 1107.42 313.236C1106.94 312.776 1106.32 312.545 1105.56 312.545C1105.03 312.545 1104.55 312.685 1104.09 312.963C1103.64 313.241 1103.28 313.628 1103 314.122C1102.73 314.611 1102.59 315.176 1102.59 315.818V324H1100.58ZM1126.93 324.273C1125.67 324.273 1124.58 323.994 1123.66 323.438C1122.75 322.875 1122.05 322.091 1121.56 321.085C1121.07 320.074 1120.82 318.898 1120.82 317.557C1120.82 316.216 1121.07 315.034 1121.56 314.011C1122.05 312.983 1122.74 312.182 1123.62 311.608C1124.51 311.028 1125.54 310.739 1126.72 310.739C1127.4 310.739 1128.08 310.852 1128.74 311.08C1129.41 311.307 1130.01 311.676 1130.56 312.188C1131.1 312.693 1131.54 313.364 1131.86 314.199C1132.19 315.034 1132.35 316.062 1132.35 317.284V318.136H1122.26V316.398H1130.3C1130.3 315.659 1130.15 315 1129.86 314.42C1129.57 313.841 1129.15 313.384 1128.61 313.048C1128.08 312.713 1127.45 312.545 1126.72 312.545C1125.92 312.545 1125.23 312.744 1124.64 313.142C1124.06 313.534 1123.62 314.045 1123.31 314.676C1122.99 315.307 1122.84 315.983 1122.84 316.705V317.864C1122.84 318.852 1123.01 319.69 1123.35 320.378C1123.69 321.06 1124.17 321.58 1124.79 321.938C1125.4 322.29 1126.11 322.466 1126.93 322.466C1127.46 322.466 1127.93 322.392 1128.36 322.244C1128.79 322.091 1129.16 321.864 1129.48 321.562C1129.79 321.256 1130.03 320.875 1130.2 320.42L1132.14 320.966C1131.94 321.625 1131.59 322.205 1131.11 322.705C1130.63 323.199 1130.03 323.585 1129.32 323.864C1128.61 324.136 1127.81 324.273 1126.93 324.273Z" fill="#333333"/>
<rect x="756" y="200" width="2" height="600" fill="#E5E5E5"/>
</svg>
