<svg width="1512" height="1000" viewBox="0 0 1512 1000" fill="none" xmlns="http://www.w3.org/2000/svg">
<rect width="756" height="500" transform="scale(2)" fill="#F6F6F6"/>
<path d="M625 123H889C935.944 123 974 161.056 974 208C974 254.944 935.944 293 889 293H625C578.056 293 540 254.944 540 208C540 161.056 578.056 123 625 123Z" fill="white"/>
<path d="M625 123H889C935.944 123 974 161.056 974 208C974 254.944 935.944 293 889 293H625C578.056 293 540 254.944 540 208C540 161.056 578.056 123 625 123Z" stroke="#E5E5E5"/>
<path d="M654.442 190V172.545H664.908V174.42H656.555V180.318H664.124V182.193H656.555V190H654.442ZM672.612 190.273C671.43 190.273 670.393 189.991 669.501 189.429C668.615 188.866 667.922 188.08 667.422 187.068C666.928 186.057 666.68 184.875 666.68 183.523C666.68 182.159 666.928 180.969 667.422 179.952C667.922 178.935 668.615 178.145 669.501 177.582C670.393 177.02 671.43 176.739 672.612 176.739C673.794 176.739 674.828 177.02 675.714 177.582C676.607 178.145 677.3 178.935 677.794 179.952C678.294 180.969 678.544 182.159 678.544 183.523C678.544 184.875 678.294 186.057 677.794 187.068C677.3 188.08 676.607 188.866 675.714 189.429C674.828 189.991 673.794 190.273 672.612 190.273ZM672.612 188.466C673.51 188.466 674.249 188.236 674.828 187.776C675.408 187.315 675.837 186.71 676.115 185.96C676.393 185.21 676.533 184.398 676.533 183.523C676.533 182.648 676.393 181.832 676.115 181.077C675.837 180.321 675.408 179.71 674.828 179.244C674.249 178.778 673.51 178.545 672.612 178.545C671.714 178.545 670.976 178.778 670.396 179.244C669.817 179.71 669.388 180.321 669.109 181.077C668.831 181.832 668.692 182.648 668.692 183.523C668.692 184.398 668.831 185.21 669.109 185.96C669.388 186.71 669.817 187.315 670.396 187.776C670.976 188.236 671.714 188.466 672.612 188.466ZM689.864 184.648V176.909H691.876V190H689.864V187.784H689.728C689.421 188.449 688.944 189.014 688.296 189.48C687.648 189.94 686.83 190.17 685.842 190.17C685.023 190.17 684.296 189.991 683.66 189.634C683.023 189.27 682.523 188.724 682.16 187.997C681.796 187.264 681.614 186.341 681.614 185.227V176.909H683.626V185.091C683.626 186.045 683.893 186.807 684.427 187.375C684.967 187.943 685.654 188.227 686.489 188.227C686.989 188.227 687.498 188.099 688.015 187.844C688.538 187.588 688.975 187.196 689.327 186.668C689.685 186.139 689.864 185.466 689.864 184.648ZM697.571 182.125V190H695.56V176.909H697.503V178.955H697.673C697.98 178.29 698.446 177.756 699.071 177.352C699.696 176.943 700.503 176.739 701.491 176.739C702.378 176.739 703.153 176.92 703.818 177.284C704.483 177.642 705 178.188 705.369 178.92C705.739 179.648 705.923 180.568 705.923 181.682V190H703.912V181.818C703.912 180.79 703.645 179.989 703.111 179.415C702.577 178.835 701.844 178.545 700.912 178.545C700.27 178.545 699.696 178.685 699.19 178.963C698.69 179.241 698.295 179.648 698.006 180.182C697.716 180.716 697.571 181.364 697.571 182.125ZM714.542 190.273C713.451 190.273 712.488 189.997 711.653 189.446C710.817 188.889 710.164 188.105 709.692 187.094C709.221 186.077 708.985 184.875 708.985 183.489C708.985 182.114 709.221 180.92 709.692 179.909C710.164 178.898 710.82 178.116 711.661 177.565C712.502 177.014 713.474 176.739 714.576 176.739C715.428 176.739 716.102 176.881 716.596 177.165C717.096 177.443 717.477 177.761 717.738 178.119C718.005 178.472 718.212 178.761 718.36 178.989H718.531V172.545H720.542V190H718.599V187.989H718.36C718.212 188.227 718.002 188.528 717.729 188.892C717.457 189.25 717.067 189.571 716.562 189.855C716.056 190.134 715.383 190.273 714.542 190.273ZM714.815 188.466C715.621 188.466 716.303 188.256 716.86 187.835C717.417 187.409 717.84 186.821 718.13 186.071C718.42 185.315 718.565 184.443 718.565 183.455C718.565 182.477 718.423 181.622 718.138 180.889C717.854 180.151 717.434 179.577 716.877 179.168C716.32 178.753 715.633 178.545 714.815 178.545C713.962 178.545 713.252 178.764 712.684 179.202C712.121 179.634 711.698 180.222 711.414 180.966C711.136 181.705 710.996 182.534 710.996 183.455C710.996 184.386 711.138 185.233 711.423 185.994C711.712 186.75 712.138 187.352 712.701 187.801C713.269 188.244 713.974 188.466 714.815 188.466ZM728.357 190.307C727.528 190.307 726.775 190.151 726.099 189.838C725.423 189.52 724.886 189.062 724.488 188.466C724.09 187.864 723.891 187.136 723.891 186.284C723.891 185.534 724.039 184.926 724.335 184.46C724.63 183.989 725.025 183.619 725.519 183.352C726.013 183.085 726.559 182.886 727.156 182.756C727.758 182.619 728.363 182.511 728.971 182.432C729.766 182.33 730.411 182.253 730.906 182.202C731.406 182.145 731.769 182.051 731.996 181.92C732.229 181.79 732.346 181.562 732.346 181.239V181.17C732.346 180.33 732.116 179.676 731.656 179.21C731.201 178.744 730.511 178.511 729.585 178.511C728.624 178.511 727.871 178.722 727.326 179.142C726.781 179.562 726.397 180.011 726.175 180.489L724.266 179.807C724.607 179.011 725.062 178.392 725.63 177.949C726.204 177.5 726.829 177.187 727.505 177.011C728.187 176.83 728.857 176.739 729.516 176.739C729.937 176.739 730.42 176.79 730.965 176.892C731.516 176.989 732.048 177.19 732.559 177.497C733.076 177.804 733.505 178.267 733.846 178.886C734.187 179.506 734.357 180.335 734.357 181.375V190H732.346V188.227H732.244C732.107 188.511 731.88 188.815 731.562 189.139C731.244 189.463 730.82 189.739 730.292 189.966C729.763 190.193 729.119 190.307 728.357 190.307ZM728.664 188.5C729.46 188.5 730.13 188.344 730.675 188.031C731.227 187.719 731.641 187.315 731.92 186.821C732.204 186.327 732.346 185.807 732.346 185.261V183.42C732.261 183.523 732.073 183.616 731.783 183.702C731.499 183.781 731.17 183.852 730.795 183.915C730.425 183.972 730.065 184.023 729.712 184.068C729.366 184.108 729.085 184.142 728.869 184.17C728.346 184.239 727.857 184.349 727.403 184.503C726.954 184.651 726.59 184.875 726.312 185.176C726.039 185.472 725.903 185.875 725.903 186.386C725.903 187.085 726.161 187.614 726.678 187.972C727.201 188.324 727.863 188.5 728.664 188.5ZM743.722 176.909V178.614H736.938V176.909H743.722ZM738.915 173.773H740.926V186.25C740.926 186.818 741.009 187.244 741.173 187.528C741.344 187.807 741.56 187.994 741.821 188.091C742.088 188.182 742.369 188.227 742.665 188.227C742.886 188.227 743.068 188.216 743.21 188.193C743.352 188.165 743.466 188.142 743.551 188.125L743.96 189.932C743.824 189.983 743.634 190.034 743.389 190.085C743.145 190.142 742.835 190.17 742.46 190.17C741.892 190.17 741.335 190.048 740.79 189.804C740.25 189.56 739.801 189.188 739.443 188.688C739.091 188.188 738.915 187.557 738.915 186.795V173.773ZM746.747 190V176.909H748.759V190H746.747ZM747.77 174.727C747.378 174.727 747.04 174.594 746.756 174.327C746.477 174.06 746.338 173.739 746.338 173.364C746.338 172.989 746.477 172.668 746.756 172.401C747.04 172.134 747.378 172 747.77 172C748.162 172 748.497 172.134 748.776 172.401C749.06 172.668 749.202 172.989 749.202 173.364C749.202 173.739 749.06 174.06 748.776 174.327C748.497 174.594 748.162 174.727 747.77 174.727ZM757.761 190.273C756.579 190.273 755.542 189.991 754.65 189.429C753.763 188.866 753.07 188.08 752.57 187.068C752.076 186.057 751.829 184.875 751.829 183.523C751.829 182.159 752.076 180.969 752.57 179.952C753.07 178.935 753.763 178.145 754.65 177.582C755.542 177.02 756.579 176.739 757.761 176.739C758.942 176.739 759.977 177.02 760.863 177.582C761.755 178.145 762.448 178.935 762.942 179.952C763.442 180.969 763.692 182.159 763.692 183.523C763.692 184.875 763.442 186.057 762.942 187.068C762.448 188.08 761.755 188.866 760.863 189.429C759.977 189.991 758.942 190.273 757.761 190.273ZM757.761 188.466C758.658 188.466 759.397 188.236 759.977 187.776C760.556 187.315 760.985 186.71 761.263 185.96C761.542 185.21 761.681 184.398 761.681 183.523C761.681 182.648 761.542 181.832 761.263 181.077C760.985 180.321 760.556 179.71 759.977 179.244C759.397 178.778 758.658 178.545 757.761 178.545C756.863 178.545 756.124 178.778 755.545 179.244C754.965 179.71 754.536 180.321 754.258 181.077C753.979 181.832 753.84 182.648 753.84 183.523C753.84 184.398 753.979 185.21 754.258 185.96C754.536 186.71 754.965 187.315 755.545 187.776C756.124 188.236 756.863 188.466 757.761 188.466ZM768.774 182.125V190H766.763V176.909H768.706V178.955H768.876C769.183 178.29 769.649 177.756 770.274 177.352C770.899 176.943 771.706 176.739 772.695 176.739C773.581 176.739 774.357 176.92 775.021 177.284C775.686 177.642 776.203 178.188 776.572 178.92C776.942 179.648 777.126 180.568 777.126 181.682V190H775.115V181.818C775.115 180.79 774.848 179.989 774.314 179.415C773.78 178.835 773.047 178.545 772.115 178.545C771.473 178.545 770.899 178.685 770.393 178.963C769.893 179.241 769.499 179.648 769.209 180.182C768.919 180.716 768.774 181.364 768.774 182.125ZM793.245 176.909V178.614H786.461V176.909H793.245ZM788.438 173.773H790.45V186.25C790.45 186.818 790.532 187.244 790.697 187.528C790.867 187.807 791.083 187.994 791.344 188.091C791.612 188.182 791.893 188.227 792.188 188.227C792.41 188.227 792.592 188.216 792.734 188.193C792.876 188.165 792.989 188.142 793.075 188.125L793.484 189.932C793.347 189.983 793.157 190.034 792.913 190.085C792.668 190.142 792.359 190.17 791.984 190.17C791.415 190.17 790.859 190.048 790.313 189.804C789.773 189.56 789.325 189.188 788.967 188.688C788.614 188.188 788.438 187.557 788.438 186.795V173.773ZM801.448 190.273C800.266 190.273 799.229 189.991 798.337 189.429C797.451 188.866 796.758 188.08 796.258 187.068C795.763 186.057 795.516 184.875 795.516 183.523C795.516 182.159 795.763 180.969 796.258 179.952C796.758 178.935 797.451 178.145 798.337 177.582C799.229 177.02 800.266 176.739 801.448 176.739C802.63 176.739 803.664 177.02 804.55 177.582C805.442 178.145 806.136 178.935 806.63 179.952C807.13 180.969 807.38 182.159 807.38 183.523C807.38 184.875 807.13 186.057 806.63 187.068C806.136 188.08 805.442 188.866 804.55 189.429C803.664 189.991 802.63 190.273 801.448 190.273ZM801.448 188.466C802.346 188.466 803.085 188.236 803.664 187.776C804.244 187.315 804.673 186.71 804.951 185.96C805.229 185.21 805.369 184.398 805.369 183.523C805.369 182.648 805.229 181.832 804.951 181.077C804.673 180.321 804.244 179.71 803.664 179.244C803.085 178.778 802.346 178.545 801.448 178.545C800.55 178.545 799.812 178.778 799.232 179.244C798.653 179.71 798.224 180.321 797.945 181.077C797.667 181.832 797.528 182.648 797.528 183.523C797.528 184.398 797.667 185.21 797.945 185.96C798.224 186.71 798.653 187.315 799.232 187.776C799.812 188.236 800.55 188.466 801.448 188.466ZM812.325 185.227L812.291 182.739H812.7L818.428 176.909H820.916L814.814 183.08H814.643L812.325 185.227ZM810.45 190V172.545H812.462V190H810.45ZM818.768 190L813.655 183.523L815.087 182.125L821.325 190H818.768ZM828.455 190.273C827.193 190.273 826.105 189.994 825.19 189.438C824.281 188.875 823.58 188.091 823.085 187.085C822.597 186.074 822.352 184.898 822.352 183.557C822.352 182.216 822.597 181.034 823.085 180.011C823.58 178.983 824.267 178.182 825.148 177.608C826.034 177.028 827.068 176.739 828.25 176.739C828.932 176.739 829.605 176.852 830.27 177.08C830.935 177.307 831.54 177.676 832.085 178.188C832.631 178.693 833.065 179.364 833.389 180.199C833.713 181.034 833.875 182.062 833.875 183.284V184.136H823.784V182.398H831.83C831.83 181.659 831.682 181 831.386 180.42C831.097 179.841 830.682 179.384 830.142 179.048C829.608 178.713 828.977 178.545 828.25 178.545C827.449 178.545 826.756 178.744 826.17 179.142C825.591 179.534 825.145 180.045 824.832 180.676C824.52 181.307 824.364 181.983 824.364 182.705V183.864C824.364 184.852 824.534 185.69 824.875 186.378C825.222 187.06 825.702 187.58 826.315 187.938C826.929 188.29 827.642 188.466 828.455 188.466C828.983 188.466 829.46 188.392 829.886 188.244C830.318 188.091 830.69 187.864 831.003 187.562C831.315 187.256 831.557 186.875 831.727 186.42L833.67 186.966C833.466 187.625 833.122 188.205 832.639 188.705C832.156 189.199 831.56 189.585 830.849 189.864C830.139 190.136 829.341 190.273 828.455 190.273ZM838.946 182.125V190H836.935V176.909H838.878V178.955H839.048C839.355 178.29 839.821 177.756 840.446 177.352C841.071 176.943 841.878 176.739 842.866 176.739C843.753 176.739 844.528 176.92 845.193 177.284C845.858 177.642 846.375 178.188 846.744 178.92C847.114 179.648 847.298 180.568 847.298 181.682V190H845.287V181.818C845.287 180.79 845.02 179.989 844.486 179.415C843.952 178.835 843.219 178.545 842.287 178.545C841.645 178.545 841.071 178.685 840.565 178.963C840.065 179.241 839.67 179.648 839.381 180.182C839.091 180.716 838.946 181.364 838.946 182.125ZM860.246 179.841L858.44 180.352C858.326 180.051 858.158 179.759 857.937 179.474C857.721 179.185 857.425 178.946 857.05 178.759C856.675 178.571 856.195 178.477 855.61 178.477C854.809 178.477 854.141 178.662 853.607 179.031C853.079 179.395 852.815 179.858 852.815 180.42C852.815 180.92 852.996 181.315 853.36 181.605C853.724 181.895 854.292 182.136 855.065 182.33L857.008 182.807C858.178 183.091 859.05 183.526 859.624 184.111C860.198 184.69 860.485 185.437 860.485 186.352C860.485 187.102 860.269 187.773 859.837 188.364C859.411 188.955 858.815 189.42 858.048 189.761C857.281 190.102 856.388 190.273 855.371 190.273C854.036 190.273 852.931 189.983 852.056 189.403C851.181 188.824 850.627 187.977 850.394 186.864L852.303 186.386C852.485 187.091 852.829 187.619 853.335 187.972C853.846 188.324 854.513 188.5 855.337 188.5C856.275 188.5 857.019 188.301 857.57 187.903C858.127 187.5 858.406 187.017 858.406 186.455C858.406 186 858.246 185.619 857.928 185.312C857.61 185 857.121 184.767 856.462 184.614L854.281 184.102C853.082 183.818 852.201 183.378 851.638 182.781C851.082 182.179 850.803 181.426 850.803 180.523C850.803 179.784 851.011 179.131 851.425 178.562C851.846 177.994 852.417 177.548 853.138 177.224C853.866 176.901 854.69 176.739 855.61 176.739C856.906 176.739 857.923 177.023 858.661 177.591C859.406 178.159 859.934 178.909 860.246 179.841Z" fill="#666666"/>
<rect x="603" y="220" width="24" height="24" rx="2" fill="#DB0025"/>
<path d="M652.601 226.727V229.511H643.572V226.727H652.601ZM645.83 242V225.286C645.83 224.258 646.042 223.403 646.466 222.72C646.897 222.037 647.473 221.527 648.196 221.189C648.919 220.851 649.721 220.682 650.602 220.682C651.225 220.682 651.779 220.732 652.263 220.831C652.747 220.93 653.105 221.02 653.337 221.099L652.621 223.884C652.468 223.837 652.276 223.791 652.044 223.744C651.812 223.691 651.554 223.665 651.268 223.665C650.599 223.665 650.125 223.827 649.847 224.152C649.575 224.47 649.439 224.928 649.439 225.524V242H645.83ZM661.507 242.298C660.016 242.298 658.723 241.97 657.63 241.314C656.536 240.658 655.687 239.74 655.084 238.56C654.488 237.38 654.189 236.001 654.189 234.423C654.189 232.846 654.488 231.464 655.084 230.277C655.687 229.09 656.536 228.169 657.63 227.513C658.723 226.857 660.016 226.528 661.507 226.528C662.999 226.528 664.292 226.857 665.385 227.513C666.479 228.169 667.324 229.09 667.921 230.277C668.524 231.464 668.826 232.846 668.826 234.423C668.826 236.001 668.524 237.38 667.921 238.56C667.324 239.74 666.479 240.658 665.385 241.314C664.292 241.97 662.999 242.298 661.507 242.298ZM661.527 239.415C662.336 239.415 663.012 239.193 663.556 238.749C664.099 238.298 664.504 237.695 664.769 236.939C665.041 236.183 665.176 235.341 665.176 234.413C665.176 233.479 665.041 232.634 664.769 231.878C664.504 231.116 664.099 230.509 663.556 230.058C663.012 229.607 662.336 229.382 661.527 229.382C660.699 229.382 660.009 229.607 659.459 230.058C658.916 230.509 658.508 231.116 658.236 231.878C657.971 232.634 657.838 233.479 657.838 234.413C657.838 235.341 657.971 236.183 658.236 236.939C658.508 237.695 658.916 238.298 659.459 238.749C660.009 239.193 660.699 239.415 661.527 239.415ZM681.615 235.577V226.727H685.214V242H681.724V239.286H681.565C681.221 240.141 680.654 240.84 679.865 241.384C679.083 241.927 678.118 242.199 676.972 242.199C675.971 242.199 675.086 241.977 674.317 241.533C673.554 241.082 672.958 240.429 672.527 239.574C672.096 238.712 671.881 237.671 671.881 236.452V226.727H675.48V235.895C675.48 236.863 675.745 237.632 676.276 238.202C676.806 238.772 677.502 239.057 678.364 239.057C678.894 239.057 679.408 238.928 679.905 238.669C680.402 238.411 680.81 238.026 681.128 237.516C681.453 236.999 681.615 236.352 681.615 235.577ZM692.515 233.051V242H688.916V226.727H692.356V229.322H692.535C692.886 228.467 693.447 227.788 694.216 227.284C694.991 226.78 695.949 226.528 697.089 226.528C698.143 226.528 699.061 226.754 699.843 227.205C700.632 227.655 701.242 228.308 701.673 229.163C702.11 230.018 702.326 231.056 702.319 232.276V242H698.72V232.832C698.72 231.812 698.455 231.013 697.924 230.436C697.401 229.859 696.675 229.571 695.747 229.571C695.117 229.571 694.557 229.71 694.066 229.989C693.583 230.26 693.201 230.655 692.923 231.172C692.651 231.689 692.515 232.315 692.515 233.051ZM715.235 232.037V235H706.068V232.037H715.235ZM725.683 242.298C724.159 242.298 722.849 241.964 721.756 241.294C720.669 240.625 719.83 239.7 719.24 238.52C718.657 237.333 718.365 235.968 718.365 234.423C718.365 232.872 718.663 231.503 719.26 230.317C719.857 229.124 720.698 228.196 721.786 227.533C722.879 226.863 724.172 226.528 725.663 226.528C726.903 226.528 728 226.757 728.955 227.214C729.916 227.665 730.681 228.305 731.251 229.134C731.821 229.955 732.146 230.917 732.226 232.017H728.786C728.646 231.281 728.315 230.668 727.791 230.178C727.274 229.68 726.581 229.432 725.713 229.432C724.977 229.432 724.331 229.631 723.774 230.028C723.217 230.42 722.783 230.983 722.472 231.719C722.167 232.455 722.014 233.336 722.014 234.364C722.014 235.404 722.167 236.299 722.472 237.048C722.777 237.791 723.204 238.364 723.754 238.768C724.311 239.166 724.964 239.365 725.713 239.365C726.243 239.365 726.717 239.266 727.135 239.067C727.559 238.861 727.914 238.566 728.199 238.182C728.484 237.797 728.679 237.33 728.786 236.78H732.226C732.14 237.86 731.821 238.818 731.271 239.653C730.721 240.482 729.972 241.132 729.024 241.602C728.076 242.066 726.963 242.298 725.683 242.298ZM741.843 242.298C740.352 242.298 739.059 241.97 737.966 241.314C736.872 240.658 736.023 239.74 735.42 238.56C734.824 237.38 734.525 236.001 734.525 234.423C734.525 232.846 734.824 231.464 735.42 230.277C736.023 229.09 736.872 228.169 737.966 227.513C739.059 226.857 740.352 226.528 741.843 226.528C743.335 226.528 744.627 226.857 745.721 227.513C746.815 228.169 747.66 229.09 748.257 230.277C748.86 231.464 749.162 232.846 749.162 234.423C749.162 236.001 748.86 237.38 748.257 238.56C747.66 239.74 746.815 240.658 745.721 241.314C744.627 241.97 743.335 242.298 741.843 242.298ZM741.863 239.415C742.672 239.415 743.348 239.193 743.892 238.749C744.435 238.298 744.84 237.695 745.105 236.939C745.377 236.183 745.512 235.341 745.512 234.413C745.512 233.479 745.377 232.634 745.105 231.878C744.84 231.116 744.435 230.509 743.892 230.058C743.348 229.607 742.672 229.382 741.863 229.382C741.035 229.382 740.345 229.607 739.795 230.058C739.252 230.509 738.844 231.116 738.572 231.878C738.307 232.634 738.174 233.479 738.174 234.413C738.174 235.341 738.307 236.183 738.572 236.939C738.844 237.695 739.252 238.298 739.795 238.749C740.345 239.193 741.035 239.415 741.863 239.415ZM755.816 221.636V242H752.217V221.636H755.816ZM766.179 242.298C764.688 242.298 763.395 241.97 762.301 241.314C761.208 240.658 760.359 239.74 759.756 238.56C759.159 237.38 758.861 236.001 758.861 234.423C758.861 232.846 759.159 231.464 759.756 230.277C760.359 229.09 761.208 228.169 762.301 227.513C763.395 226.857 764.688 226.528 766.179 226.528C767.671 226.528 768.963 226.857 770.057 227.513C771.151 228.169 771.996 229.09 772.593 230.277C773.196 231.464 773.498 232.846 773.498 234.423C773.498 236.001 773.196 237.38 772.593 238.56C771.996 239.74 771.151 240.658 770.057 241.314C768.963 241.97 767.671 242.298 766.179 242.298ZM766.199 239.415C767.008 239.415 767.684 239.193 768.228 238.749C768.771 238.298 769.176 237.695 769.441 236.939C769.712 236.183 769.848 235.341 769.848 234.413C769.848 233.479 769.712 232.634 769.441 231.878C769.176 231.116 768.771 230.509 768.228 230.058C767.684 229.607 767.008 229.382 766.199 229.382C765.371 229.382 764.681 229.607 764.131 230.058C763.587 230.509 763.18 231.116 762.908 231.878C762.643 232.634 762.51 233.479 762.51 234.413C762.51 235.341 762.643 236.183 762.908 236.939C763.18 237.695 763.587 238.298 764.131 238.749C764.681 239.193 765.371 239.415 766.199 239.415ZM776.553 242V226.727H780.043V229.273H780.202C780.48 228.391 780.957 227.712 781.634 227.234C782.316 226.75 783.095 226.509 783.97 226.509C784.169 226.509 784.391 226.518 784.636 226.538C784.888 226.552 785.097 226.575 785.263 226.608V229.919C785.11 229.866 784.868 229.82 784.537 229.78C784.212 229.733 783.897 229.71 783.592 229.71C782.936 229.71 782.346 229.853 781.822 230.138C781.305 230.416 780.898 230.804 780.599 231.301C780.301 231.798 780.152 232.372 780.152 233.021V242H776.553ZM796.228 232.037V235H787.06V232.037H796.228ZM800.013 242V226.727H803.504V229.273H803.663C803.941 228.391 804.418 227.712 805.094 227.234C805.777 226.75 806.556 226.509 807.431 226.509C807.63 226.509 807.852 226.518 808.097 226.538C808.349 226.552 808.558 226.575 808.724 226.608V229.919C808.571 229.866 808.329 229.82 807.998 229.78C807.673 229.733 807.358 229.71 807.053 229.71C806.397 229.71 805.807 229.853 805.283 230.138C804.766 230.416 804.359 230.804 804.06 231.301C803.762 231.798 803.613 232.372 803.613 233.021V242H800.013ZM817.248 242.298C815.716 242.298 814.394 241.98 813.28 241.344C812.173 240.701 811.321 239.793 810.725 238.619C810.128 237.439 809.83 236.051 809.83 234.453C809.83 232.882 810.128 231.503 810.725 230.317C811.328 229.124 812.17 228.196 813.25 227.533C814.331 226.863 815.6 226.528 817.059 226.528C818 226.528 818.888 226.681 819.723 226.986C820.565 227.284 821.308 227.748 821.951 228.378C822.6 229.008 823.111 229.81 823.482 230.784C823.853 231.752 824.039 232.905 824.039 234.244V235.348H811.52V232.922H820.588C820.582 232.232 820.433 231.619 820.141 231.082C819.849 230.539 819.442 230.111 818.918 229.8C818.401 229.488 817.798 229.332 817.108 229.332C816.373 229.332 815.726 229.511 815.169 229.869C814.613 230.221 814.178 230.685 813.867 231.261C813.562 231.831 813.406 232.458 813.4 233.141V235.259C813.4 236.147 813.562 236.909 813.887 237.545C814.212 238.175 814.666 238.659 815.249 238.997C815.832 239.329 816.515 239.494 817.297 239.494C817.821 239.494 818.295 239.421 818.719 239.276C819.143 239.123 819.511 238.901 819.823 238.609C820.134 238.318 820.37 237.956 820.529 237.526L823.89 237.903C823.677 238.792 823.273 239.567 822.676 240.23C822.087 240.886 821.331 241.397 820.409 241.761C819.488 242.119 818.434 242.298 817.248 242.298ZM832.751 242.268C831.552 242.268 830.478 241.96 829.53 241.344C828.582 240.727 827.833 239.832 827.283 238.659C826.732 237.486 826.457 236.061 826.457 234.384C826.457 232.687 826.736 231.255 827.293 230.088C827.856 228.915 828.615 228.03 829.57 227.433C830.524 226.83 831.588 226.528 832.761 226.528C833.656 226.528 834.392 226.681 834.969 226.986C835.545 227.284 836.003 227.645 836.341 228.07C836.679 228.487 836.941 228.882 837.126 229.253H837.276V221.636H840.885V242H837.345V239.594H837.126C836.941 239.965 836.672 240.359 836.321 240.777C835.97 241.188 835.506 241.539 834.929 241.831C834.352 242.123 833.626 242.268 832.751 242.268ZM833.756 239.315C834.518 239.315 835.168 239.11 835.705 238.699C836.241 238.281 836.649 237.701 836.928 236.959C837.206 236.216 837.345 235.351 837.345 234.364C837.345 233.376 837.206 232.518 836.928 231.788C836.656 231.059 836.251 230.492 835.714 230.088C835.184 229.684 834.531 229.482 833.756 229.482C832.954 229.482 832.284 229.69 831.747 230.108C831.21 230.526 830.806 231.102 830.534 231.838C830.262 232.574 830.126 233.416 830.126 234.364C830.126 235.318 830.262 236.17 830.534 236.919C830.813 237.661 831.22 238.248 831.757 238.679C832.301 239.103 832.967 239.315 833.756 239.315ZM853.978 232.037V235H844.81V232.037H853.978ZM864.803 242.278C863.478 242.278 862.291 242.03 861.244 241.533C860.196 241.029 859.364 240.339 858.748 239.464C858.138 238.589 857.813 237.589 857.773 236.462H861.353C861.419 237.297 861.781 237.98 862.437 238.51C863.093 239.034 863.882 239.295 864.803 239.295C865.526 239.295 866.169 239.13 866.732 238.798C867.296 238.467 867.74 238.006 868.065 237.416C868.389 236.826 868.549 236.153 868.542 235.398C868.549 234.629 868.386 233.946 868.055 233.349C867.723 232.753 867.269 232.286 866.692 231.947C866.116 231.603 865.453 231.43 864.704 231.43C864.094 231.424 863.494 231.536 862.904 231.768C862.314 232 861.847 232.305 861.502 232.683L858.171 232.136L859.235 221.636H871.048V224.719H862.288L861.701 230.118H861.82C862.198 229.674 862.732 229.306 863.421 229.014C864.111 228.716 864.866 228.567 865.688 228.567C866.921 228.567 868.022 228.858 868.989 229.442C869.957 230.018 870.719 230.814 871.276 231.828C871.833 232.842 872.112 234.002 872.112 235.308C872.112 236.654 871.8 237.854 871.177 238.908C870.56 239.955 869.702 240.78 868.602 241.384C867.508 241.98 866.242 242.278 864.803 242.278ZM882.969 242.388C881.332 242.388 879.927 241.973 878.754 241.145C877.587 240.31 876.689 239.107 876.059 237.536C875.436 235.958 875.124 234.059 875.124 231.838C875.131 229.617 875.446 227.728 876.069 226.17C876.699 224.606 877.597 223.413 878.763 222.591C879.937 221.769 881.339 221.358 882.969 221.358C884.6 221.358 886.002 221.769 887.175 222.591C888.349 223.413 889.247 224.606 889.87 226.17C890.5 227.735 890.815 229.624 890.815 231.838C890.815 234.065 890.5 235.968 889.87 237.545C889.247 239.116 888.349 240.316 887.175 241.145C886.009 241.973 884.607 242.388 882.969 242.388ZM882.969 239.276C884.242 239.276 885.246 238.649 885.982 237.396C886.725 236.137 887.096 234.284 887.096 231.838C887.096 230.221 886.927 228.862 886.589 227.761C886.251 226.661 885.773 225.832 885.157 225.276C884.54 224.712 883.811 224.43 882.969 224.43C881.703 224.43 880.702 225.06 879.967 226.32C879.231 227.572 878.86 229.412 878.853 231.838C878.846 233.462 879.009 234.828 879.34 235.935C879.678 237.042 880.156 237.877 880.772 238.44C881.388 238.997 882.121 239.276 882.969 239.276ZM901.645 242.388C900.008 242.388 898.603 241.973 897.429 241.145C896.263 240.31 895.364 239.107 894.735 237.536C894.112 235.958 893.8 234.059 893.8 231.838C893.807 229.617 894.122 227.728 894.745 226.17C895.374 224.606 896.273 223.413 897.439 222.591C898.613 221.769 900.015 221.358 901.645 221.358C903.276 221.358 904.678 221.769 905.851 222.591C907.025 223.413 907.923 224.606 908.546 226.17C909.176 227.735 909.49 229.624 909.49 231.838C909.49 234.065 909.176 235.968 908.546 237.545C907.923 239.116 907.025 240.316 905.851 241.145C904.685 241.973 903.283 242.388 901.645 242.388ZM901.645 239.276C902.918 239.276 903.922 238.649 904.658 237.396C905.4 236.137 905.772 234.284 905.772 231.838C905.772 230.221 905.603 228.862 905.265 227.761C904.926 226.661 904.449 225.832 903.833 225.276C903.216 224.712 902.487 224.43 901.645 224.43C900.379 224.43 899.378 225.06 898.642 226.32C897.907 227.572 897.535 229.412 897.529 231.838C897.522 233.462 897.685 234.828 898.016 235.935C898.354 237.042 898.831 237.877 899.448 238.44C900.064 238.997 900.797 239.276 901.645 239.276Z" fill="#333333"/>
<path d="M759 294C759 293.448 758.552 293 758 293C757.448 293 757 293.448 757 294H758H759ZM757.293 414.707C757.683 415.098 758.317 415.098 758.707 414.707L765.071 408.343C765.462 407.953 765.462 407.319 765.071 406.929C764.681 406.538 764.047 406.538 763.657 406.929L758 412.586L752.343 406.929C751.953 406.538 751.319 406.538 750.929 406.929C750.538 407.319 750.538 407.953 750.929 408.343L757.293 414.707ZM758 294H757V414H758H759V294H758Z" fill="#767676"/>
<rect width="53" height="20" transform="matrix(2 0 0 2 704 334)" fill="#F6F6F6"/>
<path d="M715.901 348.909C715.799 348.045 715.384 347.375 714.657 346.898C713.93 346.42 713.038 346.182 711.981 346.182C711.208 346.182 710.532 346.307 709.952 346.557C709.379 346.807 708.93 347.151 708.606 347.588C708.288 348.026 708.129 348.523 708.129 349.08C708.129 349.545 708.239 349.946 708.461 350.281C708.688 350.611 708.978 350.886 709.33 351.108C709.683 351.324 710.052 351.503 710.438 351.645C710.825 351.781 711.18 351.892 711.504 351.977L713.276 352.455C713.731 352.574 714.237 352.739 714.793 352.949C715.356 353.159 715.893 353.446 716.404 353.81C716.921 354.168 717.347 354.628 717.683 355.19C718.018 355.753 718.185 356.443 718.185 357.261C718.185 358.205 717.938 359.057 717.444 359.818C716.955 360.58 716.239 361.185 715.296 361.634C714.359 362.082 713.219 362.307 711.879 362.307C710.629 362.307 709.546 362.105 708.631 361.702C707.722 361.298 707.006 360.736 706.484 360.014C705.967 359.293 705.674 358.455 705.606 357.5H707.788C707.844 358.159 708.066 358.705 708.452 359.136C708.844 359.562 709.339 359.881 709.935 360.091C710.538 360.295 711.185 360.398 711.879 360.398C712.685 360.398 713.41 360.267 714.052 360.006C714.694 359.739 715.202 359.369 715.577 358.898C715.952 358.42 716.14 357.864 716.14 357.227C716.14 356.648 715.978 356.176 715.654 355.812C715.33 355.449 714.904 355.153 714.376 354.926C713.847 354.699 713.276 354.5 712.663 354.33L710.515 353.716C709.151 353.324 708.072 352.764 707.276 352.037C706.481 351.31 706.083 350.358 706.083 349.182C706.083 348.205 706.347 347.352 706.876 346.625C707.41 345.892 708.126 345.324 709.023 344.92C709.927 344.511 710.935 344.307 712.049 344.307C713.174 344.307 714.174 344.509 715.049 344.912C715.924 345.31 716.617 345.855 717.129 346.548C717.646 347.241 717.918 348.028 717.947 348.909H715.901ZM726.876 362.273C725.615 362.273 724.527 361.994 723.612 361.438C722.703 360.875 722.001 360.091 721.507 359.085C721.018 358.074 720.774 356.898 720.774 355.557C720.774 354.216 721.018 353.034 721.507 352.011C722.001 350.983 722.689 350.182 723.57 349.608C724.456 349.028 725.49 348.739 726.672 348.739C727.354 348.739 728.027 348.852 728.692 349.08C729.357 349.307 729.962 349.676 730.507 350.188C731.053 350.693 731.487 351.364 731.811 352.199C732.135 353.034 732.297 354.062 732.297 355.284V356.136H722.206V354.398H730.251C730.251 353.659 730.104 353 729.808 352.42C729.518 351.841 729.104 351.384 728.564 351.048C728.03 350.713 727.399 350.545 726.672 350.545C725.871 350.545 725.178 350.744 724.592 351.142C724.013 351.534 723.567 352.045 723.254 352.676C722.942 353.307 722.786 353.983 722.786 354.705V355.864C722.786 356.852 722.956 357.69 723.297 358.378C723.643 359.06 724.124 359.58 724.737 359.938C725.351 360.29 726.064 360.466 726.876 360.466C727.405 360.466 727.882 360.392 728.308 360.244C728.74 360.091 729.112 359.864 729.425 359.562C729.737 359.256 729.979 358.875 730.149 358.42L732.092 358.966C731.888 359.625 731.544 360.205 731.061 360.705C730.578 361.199 729.982 361.585 729.271 361.864C728.561 362.136 727.763 362.273 726.876 362.273ZM735.357 362V348.909H737.3V350.955H737.47C737.743 350.256 738.183 349.713 738.791 349.327C739.399 348.935 740.129 348.739 740.982 348.739C741.845 348.739 742.564 348.935 743.138 349.327C743.717 349.713 744.169 350.256 744.493 350.955H744.629C744.964 350.278 745.467 349.741 746.138 349.344C746.808 348.94 747.612 348.739 748.55 348.739C749.72 348.739 750.678 349.105 751.422 349.838C752.166 350.565 752.538 351.699 752.538 353.239V362H750.527V353.239C750.527 352.273 750.263 351.582 749.734 351.168C749.206 350.753 748.584 350.545 747.868 350.545C746.947 350.545 746.234 350.824 745.729 351.381C745.223 351.932 744.97 352.631 744.97 353.477V362H742.925V353.034C742.925 352.29 742.683 351.69 742.2 351.236C741.717 350.776 741.095 350.545 740.334 350.545C739.811 350.545 739.322 350.685 738.868 350.963C738.419 351.241 738.055 351.628 737.777 352.122C737.504 352.611 737.368 353.176 737.368 353.818V362H735.357ZM760.068 362.307C759.239 362.307 758.486 362.151 757.81 361.838C757.134 361.52 756.597 361.062 756.199 360.466C755.801 359.864 755.602 359.136 755.602 358.284C755.602 357.534 755.75 356.926 756.045 356.46C756.341 355.989 756.736 355.619 757.23 355.352C757.724 355.085 758.27 354.886 758.866 354.756C759.469 354.619 760.074 354.511 760.682 354.432C761.477 354.33 762.122 354.253 762.616 354.202C763.116 354.145 763.48 354.051 763.707 353.92C763.94 353.79 764.057 353.562 764.057 353.239V353.17C764.057 352.33 763.827 351.676 763.366 351.21C762.912 350.744 762.222 350.511 761.295 350.511C760.335 350.511 759.582 350.722 759.037 351.142C758.491 351.562 758.108 352.011 757.886 352.489L755.977 351.807C756.318 351.011 756.773 350.392 757.341 349.949C757.915 349.5 758.54 349.187 759.216 349.011C759.898 348.83 760.568 348.739 761.227 348.739C761.648 348.739 762.131 348.79 762.676 348.892C763.227 348.989 763.759 349.19 764.27 349.497C764.787 349.804 765.216 350.267 765.557 350.886C765.898 351.506 766.068 352.335 766.068 353.375V362H764.057V360.227H763.955C763.818 360.511 763.591 360.815 763.273 361.139C762.955 361.463 762.531 361.739 762.003 361.966C761.474 362.193 760.83 362.307 760.068 362.307ZM760.375 360.5C761.17 360.5 761.841 360.344 762.386 360.031C762.938 359.719 763.352 359.315 763.631 358.821C763.915 358.327 764.057 357.807 764.057 357.261V355.42C763.972 355.523 763.784 355.616 763.494 355.702C763.21 355.781 762.881 355.852 762.506 355.915C762.136 355.972 761.776 356.023 761.423 356.068C761.077 356.108 760.795 356.142 760.58 356.17C760.057 356.239 759.568 356.349 759.114 356.503C758.665 356.651 758.301 356.875 758.023 357.176C757.75 357.472 757.614 357.875 757.614 358.386C757.614 359.085 757.872 359.614 758.389 359.972C758.912 360.324 759.574 360.5 760.375 360.5ZM771.751 354.125V362H769.739V348.909H771.683V350.955H771.853C772.16 350.29 772.626 349.756 773.251 349.352C773.876 348.943 774.683 348.739 775.671 348.739C776.558 348.739 777.333 348.92 777.998 349.284C778.663 349.642 779.18 350.188 779.549 350.92C779.918 351.648 780.103 352.568 780.103 353.682V362H778.092V353.818C778.092 352.79 777.825 351.989 777.29 351.415C776.756 350.835 776.023 350.545 775.092 350.545C774.45 350.545 773.876 350.685 773.37 350.963C772.87 351.241 772.475 351.648 772.185 352.182C771.896 352.716 771.751 353.364 771.751 354.125ZM789.472 348.909V350.614H782.688V348.909H789.472ZM784.665 345.773H786.676V358.25C786.676 358.818 786.759 359.244 786.923 359.528C787.094 359.807 787.31 359.994 787.571 360.091C787.838 360.182 788.119 360.227 788.415 360.227C788.636 360.227 788.818 360.216 788.96 360.193C789.102 360.165 789.216 360.142 789.301 360.125L789.71 361.932C789.574 361.983 789.384 362.034 789.139 362.085C788.895 362.142 788.585 362.17 788.21 362.17C787.642 362.17 787.085 362.048 786.54 361.804C786 361.56 785.551 361.188 785.193 360.688C784.841 360.188 784.665 359.557 784.665 358.795V345.773ZM792.497 362V348.909H794.509V362H792.497ZM793.52 346.727C793.128 346.727 792.79 346.594 792.506 346.327C792.227 346.06 792.088 345.739 792.088 345.364C792.088 344.989 792.227 344.668 792.506 344.401C792.79 344.134 793.128 344 793.52 344C793.912 344 794.247 344.134 794.526 344.401C794.81 344.668 794.952 344.989 794.952 345.364C794.952 345.739 794.81 346.06 794.526 346.327C794.247 346.594 793.912 346.727 793.52 346.727ZM803.511 362.273C802.283 362.273 801.227 361.983 800.34 361.403C799.454 360.824 798.772 360.026 798.295 359.009C797.817 357.991 797.579 356.83 797.579 355.523C797.579 354.193 797.823 353.02 798.312 352.003C798.806 350.98 799.494 350.182 800.374 349.608C801.261 349.028 802.295 348.739 803.477 348.739C804.397 348.739 805.227 348.909 805.965 349.25C806.704 349.591 807.309 350.068 807.781 350.682C808.252 351.295 808.545 352.011 808.658 352.83H806.647C806.494 352.233 806.153 351.705 805.624 351.244C805.102 350.778 804.397 350.545 803.511 350.545C802.727 350.545 802.039 350.75 801.448 351.159C800.863 351.562 800.406 352.134 800.076 352.872C799.752 353.605 799.59 354.466 799.59 355.455C799.59 356.466 799.749 357.347 800.067 358.097C800.391 358.847 800.846 359.429 801.431 359.844C802.022 360.259 802.715 360.466 803.511 360.466C804.033 360.466 804.508 360.375 804.934 360.193C805.36 360.011 805.721 359.75 806.016 359.409C806.312 359.068 806.522 358.659 806.647 358.182H808.658C808.545 358.955 808.263 359.651 807.815 360.27C807.371 360.884 806.783 361.372 806.05 361.736C805.323 362.094 804.477 362.273 803.511 362.273Z" fill="#666666"/>
<path d="M637 415H877C923.944 415 962 453.056 962 500C962 546.944 923.944 585 877 585H637C590.056 585 552 546.944 552 500C552 453.056 590.056 415 637 415Z" fill="white"/>
<path d="M637 415H877C923.944 415 962 453.056 962 500C962 546.944 923.944 585 877 585H637C590.056 585 552 546.944 552 500C552 453.056 590.056 415 637 415Z" stroke="#E5E5E5"/>
<path d="M691.638 482H689.422L695.831 464.545H698.013L704.422 482H702.206L696.99 467.307H696.854L691.638 482ZM692.456 475.182H701.388V477.057H692.456V475.182ZM708.88 464.545V482H706.868V464.545H708.88ZM712.564 482V468.909H714.575V482H712.564ZM713.586 466.727C713.194 466.727 712.856 466.594 712.572 466.327C712.294 466.06 712.154 465.739 712.154 465.364C712.154 464.989 712.294 464.668 712.572 464.401C712.856 464.134 713.194 464 713.586 464C713.978 464 714.314 464.134 714.592 464.401C714.876 464.668 715.018 464.989 715.018 465.364C715.018 465.739 714.876 466.06 714.592 466.327C714.314 466.594 713.978 466.727 713.586 466.727ZM722.111 482.307C721.282 482.307 720.529 482.151 719.853 481.838C719.176 481.52 718.64 481.062 718.242 480.466C717.844 479.864 717.645 479.136 717.645 478.284C717.645 477.534 717.793 476.926 718.088 476.46C718.384 475.989 718.779 475.619 719.273 475.352C719.767 475.085 720.313 474.886 720.909 474.756C721.512 474.619 722.117 474.511 722.725 474.432C723.52 474.33 724.165 474.253 724.659 474.202C725.159 474.145 725.523 474.051 725.75 473.92C725.983 473.79 726.1 473.562 726.1 473.239V473.17C726.1 472.33 725.87 471.676 725.409 471.21C724.955 470.744 724.265 470.511 723.338 470.511C722.378 470.511 721.625 470.722 721.08 471.142C720.534 471.562 720.151 472.011 719.929 472.489L718.02 471.807C718.361 471.011 718.816 470.392 719.384 469.949C719.958 469.5 720.583 469.187 721.259 469.011C721.941 468.83 722.611 468.739 723.27 468.739C723.691 468.739 724.174 468.79 724.719 468.892C725.27 468.989 725.801 469.19 726.313 469.497C726.83 469.804 727.259 470.267 727.6 470.886C727.941 471.506 728.111 472.335 728.111 473.375V482H726.1V480.227H725.998C725.861 480.511 725.634 480.815 725.316 481.139C724.998 481.463 724.574 481.739 724.046 481.966C723.517 482.193 722.873 482.307 722.111 482.307ZM722.418 480.5C723.213 480.5 723.884 480.344 724.429 480.031C724.98 479.719 725.395 479.315 725.674 478.821C725.958 478.327 726.1 477.807 726.1 477.261V475.42C726.015 475.523 725.827 475.616 725.537 475.702C725.253 475.781 724.924 475.852 724.549 475.915C724.179 475.972 723.819 476.023 723.466 476.068C723.12 476.108 722.838 476.142 722.623 476.17C722.1 476.239 721.611 476.349 721.157 476.503C720.708 476.651 720.344 476.875 720.066 477.176C719.793 477.472 719.657 477.875 719.657 478.386C719.657 479.085 719.915 479.614 720.432 479.972C720.955 480.324 721.617 480.5 722.418 480.5ZM741.055 471.841L739.248 472.352C739.135 472.051 738.967 471.759 738.745 471.474C738.529 471.185 738.234 470.946 737.859 470.759C737.484 470.571 737.004 470.477 736.419 470.477C735.618 470.477 734.95 470.662 734.416 471.031C733.887 471.395 733.623 471.858 733.623 472.42C733.623 472.92 733.805 473.315 734.169 473.605C734.532 473.895 735.1 474.136 735.873 474.33L737.816 474.807C738.987 475.091 739.859 475.526 740.433 476.111C741.007 476.69 741.294 477.437 741.294 478.352C741.294 479.102 741.078 479.773 740.646 480.364C740.22 480.955 739.623 481.42 738.856 481.761C738.089 482.102 737.197 482.273 736.18 482.273C734.845 482.273 733.74 481.983 732.865 481.403C731.99 480.824 731.436 479.977 731.203 478.864L733.112 478.386C733.294 479.091 733.637 479.619 734.143 479.972C734.654 480.324 735.322 480.5 736.146 480.5C737.083 480.5 737.828 480.301 738.379 479.903C738.936 479.5 739.214 479.017 739.214 478.455C739.214 478 739.055 477.619 738.737 477.312C738.419 477 737.93 476.767 737.271 476.614L735.089 476.102C733.89 475.818 733.01 475.378 732.447 474.781C731.89 474.179 731.612 473.426 731.612 472.523C731.612 471.784 731.819 471.131 732.234 470.562C732.654 469.994 733.225 469.548 733.947 469.224C734.674 468.901 735.498 468.739 736.419 468.739C737.714 468.739 738.731 469.023 739.47 469.591C740.214 470.159 740.743 470.909 741.055 471.841ZM756.765 468.909V470.614H749.98V468.909H756.765ZM751.958 465.773H753.969V478.25C753.969 478.818 754.051 479.244 754.216 479.528C754.387 479.807 754.603 479.994 754.864 480.091C755.131 480.182 755.412 480.227 755.708 480.227C755.929 480.227 756.111 480.216 756.253 480.193C756.395 480.165 756.509 480.142 756.594 480.125L757.003 481.932C756.867 481.983 756.676 482.034 756.432 482.085C756.188 482.142 755.878 482.17 755.503 482.17C754.935 482.17 754.378 482.048 753.833 481.804C753.293 481.56 752.844 481.188 752.486 480.688C752.134 480.188 751.958 479.557 751.958 478.795V465.773ZM764.968 482.273C763.786 482.273 762.749 481.991 761.857 481.429C760.971 480.866 760.277 480.08 759.777 479.068C759.283 478.057 759.036 476.875 759.036 475.523C759.036 474.159 759.283 472.969 759.777 471.952C760.277 470.935 760.971 470.145 761.857 469.582C762.749 469.02 763.786 468.739 764.968 468.739C766.15 468.739 767.184 469.02 768.07 469.582C768.962 470.145 769.655 470.935 770.15 471.952C770.65 472.969 770.9 474.159 770.9 475.523C770.9 476.875 770.65 478.057 770.15 479.068C769.655 480.08 768.962 480.866 768.07 481.429C767.184 481.991 766.15 482.273 764.968 482.273ZM764.968 480.466C765.865 480.466 766.604 480.236 767.184 479.776C767.763 479.315 768.192 478.71 768.471 477.96C768.749 477.21 768.888 476.398 768.888 475.523C768.888 474.648 768.749 473.832 768.471 473.077C768.192 472.321 767.763 471.71 767.184 471.244C766.604 470.778 765.865 470.545 764.968 470.545C764.07 470.545 763.331 470.778 762.752 471.244C762.172 471.71 761.743 472.321 761.465 473.077C761.186 473.832 761.047 474.648 761.047 475.523C761.047 476.398 761.186 477.21 761.465 477.96C761.743 478.71 762.172 479.315 762.752 479.776C763.331 480.236 764.07 480.466 764.968 480.466ZM775.845 477.227L775.811 474.739H776.22L781.947 468.909H784.436L778.333 475.08H778.163L775.845 477.227ZM773.97 482V464.545H775.981V482H773.97ZM782.288 482L777.174 475.523L778.606 474.125L784.845 482H782.288ZM791.974 482.273C790.713 482.273 789.625 481.994 788.71 481.438C787.801 480.875 787.099 480.091 786.605 479.085C786.116 478.074 785.872 476.898 785.872 475.557C785.872 474.216 786.116 473.034 786.605 472.011C787.099 470.983 787.787 470.182 788.667 469.608C789.554 469.028 790.588 468.739 791.77 468.739C792.451 468.739 793.125 468.852 793.789 469.08C794.454 469.307 795.059 469.676 795.605 470.188C796.15 470.693 796.585 471.364 796.909 472.199C797.233 473.034 797.395 474.062 797.395 475.284V476.136H787.304V474.398H795.349C795.349 473.659 795.201 473 794.906 472.42C794.616 471.841 794.201 471.384 793.662 471.048C793.127 470.713 792.497 470.545 791.77 470.545C790.968 470.545 790.275 470.744 789.69 471.142C789.11 471.534 788.664 472.045 788.352 472.676C788.039 473.307 787.883 473.983 787.883 474.705V475.864C787.883 476.852 788.054 477.69 788.395 478.378C788.741 479.06 789.221 479.58 789.835 479.938C790.449 480.29 791.162 480.466 791.974 480.466C792.502 480.466 792.98 480.392 793.406 480.244C793.838 480.091 794.21 479.864 794.522 479.562C794.835 479.256 795.076 478.875 795.247 478.42L797.19 478.966C796.985 479.625 796.642 480.205 796.159 480.705C795.676 481.199 795.079 481.585 794.369 481.864C793.659 482.136 792.86 482.273 791.974 482.273ZM802.466 474.125V482H800.454V468.909H802.397V470.955H802.568C802.875 470.29 803.341 469.756 803.966 469.352C804.591 468.943 805.397 468.739 806.386 468.739C807.272 468.739 808.048 468.92 808.713 469.284C809.377 469.642 809.895 470.188 810.264 470.92C810.633 471.648 810.818 472.568 810.818 473.682V482H808.806V473.818C808.806 472.79 808.539 471.989 808.005 471.415C807.471 470.835 806.738 470.545 805.806 470.545C805.164 470.545 804.591 470.685 804.085 470.963C803.585 471.241 803.19 471.648 802.9 472.182C802.61 472.716 802.466 473.364 802.466 474.125ZM823.766 471.841L821.959 472.352C821.846 472.051 821.678 471.759 821.456 471.474C821.24 471.185 820.945 470.946 820.57 470.759C820.195 470.571 819.715 470.477 819.13 470.477C818.328 470.477 817.661 470.662 817.127 471.031C816.598 471.395 816.334 471.858 816.334 472.42C816.334 472.92 816.516 473.315 816.88 473.605C817.243 473.895 817.811 474.136 818.584 474.33L820.527 474.807C821.698 475.091 822.57 475.526 823.144 476.111C823.718 476.69 824.005 477.437 824.005 478.352C824.005 479.102 823.789 479.773 823.357 480.364C822.931 480.955 822.334 481.42 821.567 481.761C820.8 482.102 819.908 482.273 818.891 482.273C817.556 482.273 816.451 481.983 815.576 481.403C814.701 480.824 814.147 479.977 813.914 478.864L815.823 478.386C816.005 479.091 816.348 479.619 816.854 479.972C817.365 480.324 818.033 480.5 818.857 480.5C819.794 480.5 820.539 480.301 821.09 479.903C821.647 479.5 821.925 479.017 821.925 478.455C821.925 478 821.766 477.619 821.448 477.312C821.13 477 820.641 476.767 819.982 476.614L817.8 476.102C816.601 475.818 815.721 475.378 815.158 474.781C814.601 474.179 814.323 473.426 814.323 472.523C814.323 471.784 814.53 471.131 814.945 470.562C815.365 469.994 815.936 469.548 816.658 469.224C817.385 468.901 818.209 468.739 819.13 468.739C820.425 468.739 821.442 469.023 822.181 469.591C822.925 470.159 823.453 470.909 823.766 471.841Z" fill="#666666"/>
<path d="M636.567 516.341L630.76 522.148L624.874 516.341L630.76 510.455L636.567 516.341ZM644.044 523.818L638.237 529.705L632.431 523.818L638.237 518.011L644.044 523.818ZM629.09 523.818L623.203 529.705L617.317 523.818L623.203 518.011L629.09 523.818ZM636.567 531.375L630.76 537.182L624.874 531.375L630.76 525.489L636.567 531.375ZM666.344 522.764L663.063 523.122C662.97 522.791 662.808 522.479 662.576 522.188C662.35 521.896 662.046 521.661 661.661 521.482C661.277 521.303 660.806 521.213 660.249 521.213C659.5 521.213 658.87 521.375 658.36 521.7C657.856 522.025 657.608 522.446 657.614 522.963C657.608 523.407 657.77 523.768 658.101 524.047C658.439 524.325 658.996 524.554 659.772 524.733L662.377 525.29C663.822 525.601 664.896 526.095 665.599 526.771C666.308 527.447 666.666 528.332 666.672 529.426C666.666 530.387 666.384 531.236 665.827 531.972C665.277 532.701 664.511 533.271 663.53 533.682C662.549 534.093 661.422 534.298 660.15 534.298C658.28 534.298 656.776 533.907 655.635 533.125C654.495 532.336 653.816 531.239 653.597 529.834L657.107 529.496C657.266 530.185 657.604 530.705 658.121 531.057C658.638 531.408 659.311 531.584 660.14 531.584C660.995 531.584 661.681 531.408 662.198 531.057C662.722 530.705 662.983 530.271 662.983 529.754C662.983 529.317 662.814 528.955 662.476 528.67C662.145 528.385 661.628 528.167 660.925 528.014L658.32 527.467C656.855 527.162 655.771 526.649 655.069 525.926C654.366 525.197 654.018 524.276 654.025 523.162C654.018 522.221 654.273 521.405 654.79 520.716C655.314 520.02 656.04 519.483 656.968 519.105C657.903 518.721 658.98 518.528 660.199 518.528C661.989 518.528 663.398 518.91 664.425 519.672C665.459 520.434 666.099 521.465 666.344 522.764ZM671.878 539.727C671.387 539.727 670.933 539.688 670.515 539.608C670.104 539.535 669.776 539.449 669.531 539.349L670.366 536.545C670.89 536.698 671.357 536.771 671.768 536.764C672.179 536.758 672.541 536.628 672.852 536.376C673.17 536.131 673.439 535.72 673.657 535.143L673.966 534.318L668.427 518.727H672.246L675.765 530.261H675.925L679.454 518.727H683.282L677.167 535.849C676.882 536.658 676.505 537.351 676.034 537.928C675.563 538.511 674.987 538.955 674.304 539.26C673.628 539.571 672.819 539.727 671.878 539.727ZM697.844 522.764L694.563 523.122C694.47 522.791 694.308 522.479 694.076 522.188C693.85 521.896 693.546 521.661 693.161 521.482C692.777 521.303 692.306 521.213 691.749 521.213C691 521.213 690.37 521.375 689.86 521.7C689.356 522.025 689.108 522.446 689.114 522.963C689.108 523.407 689.27 523.768 689.601 524.047C689.939 524.325 690.496 524.554 691.272 524.733L693.877 525.29C695.322 525.601 696.396 526.095 697.099 526.771C697.808 527.447 698.166 528.332 698.172 529.426C698.166 530.387 697.884 531.236 697.327 531.972C696.777 532.701 696.011 533.271 695.03 533.682C694.049 534.093 692.922 534.298 691.65 534.298C689.78 534.298 688.276 533.907 687.135 533.125C685.995 532.336 685.316 531.239 685.097 529.834L688.607 529.496C688.766 530.185 689.104 530.705 689.621 531.057C690.138 531.408 690.811 531.584 691.64 531.584C692.495 531.584 693.181 531.408 693.698 531.057C694.222 530.705 694.483 530.271 694.483 529.754C694.483 529.317 694.314 528.955 693.976 528.67C693.645 528.385 693.128 528.167 692.425 528.014L689.82 527.467C688.355 527.162 687.271 526.649 686.569 525.926C685.866 525.197 685.518 524.276 685.525 523.162C685.518 522.221 685.773 521.405 686.29 520.716C686.814 520.02 687.54 519.483 688.468 519.105C689.403 518.721 690.48 518.528 691.699 518.528C693.489 518.528 694.898 518.91 695.925 519.672C696.959 520.434 697.599 521.465 697.844 522.764ZM710.398 524.037V527H701.23V524.037H710.398ZM720.845 534.298C719.321 534.298 718.012 533.964 716.918 533.294C715.831 532.625 714.992 531.7 714.402 530.52C713.819 529.333 713.527 527.968 713.527 526.423C713.527 524.872 713.825 523.503 714.422 522.317C715.019 521.124 715.86 520.196 716.948 519.533C718.041 518.863 719.334 518.528 720.825 518.528C722.065 518.528 723.162 518.757 724.117 519.214C725.078 519.665 725.843 520.305 726.414 521.134C726.984 521.955 727.308 522.917 727.388 524.017H723.948C723.808 523.281 723.477 522.668 722.953 522.178C722.436 521.68 721.744 521.432 720.875 521.432C720.139 521.432 719.493 521.631 718.936 522.028C718.379 522.42 717.945 522.983 717.634 523.719C717.329 524.455 717.176 525.336 717.176 526.364C717.176 527.404 717.329 528.299 717.634 529.048C717.939 529.791 718.366 530.364 718.916 530.768C719.473 531.166 720.126 531.365 720.875 531.365C721.405 531.365 721.879 531.266 722.297 531.067C722.721 530.861 723.076 530.566 723.361 530.182C723.646 529.797 723.842 529.33 723.948 528.78H727.388C727.302 529.86 726.984 530.818 726.433 531.653C725.883 532.482 725.134 533.132 724.186 533.602C723.238 534.066 722.125 534.298 720.845 534.298ZM737.006 534.298C735.514 534.298 734.221 533.97 733.128 533.314C732.034 532.658 731.185 531.74 730.582 530.56C729.986 529.38 729.687 528.001 729.687 526.423C729.687 524.846 729.986 523.464 730.582 522.277C731.185 521.09 732.034 520.169 733.128 519.513C734.221 518.857 735.514 518.528 737.006 518.528C738.497 518.528 739.79 518.857 740.883 519.513C741.977 520.169 742.822 521.09 743.419 522.277C744.022 523.464 744.324 524.846 744.324 526.423C744.324 528.001 744.022 529.38 743.419 530.56C742.822 531.74 741.977 532.658 740.883 533.314C739.79 533.97 738.497 534.298 737.006 534.298ZM737.025 531.415C737.834 531.415 738.51 531.193 739.054 530.749C739.597 530.298 740.002 529.695 740.267 528.939C740.539 528.183 740.675 527.341 740.675 526.413C740.675 525.479 740.539 524.634 740.267 523.878C740.002 523.116 739.597 522.509 739.054 522.058C738.51 521.607 737.834 521.382 737.025 521.382C736.197 521.382 735.507 521.607 734.957 522.058C734.414 522.509 734.006 523.116 733.734 523.878C733.469 524.634 733.336 525.479 733.336 526.413C733.336 527.341 733.469 528.183 733.734 528.939C734.006 529.695 734.414 530.298 734.957 530.749C735.507 531.193 736.197 531.415 737.025 531.415ZM750.978 513.636V534H747.379V513.636H750.978ZM761.341 534.298C759.85 534.298 758.557 533.97 757.464 533.314C756.37 532.658 755.521 531.74 754.918 530.56C754.322 529.38 754.023 528.001 754.023 526.423C754.023 524.846 754.322 523.464 754.918 522.277C755.521 521.09 756.37 520.169 757.464 519.513C758.557 518.857 759.85 518.528 761.341 518.528C762.833 518.528 764.126 518.857 765.219 519.513C766.313 520.169 767.158 521.09 767.755 522.277C768.358 523.464 768.66 524.846 768.66 526.423C768.66 528.001 768.358 529.38 767.755 530.56C767.158 531.74 766.313 532.658 765.219 533.314C764.126 533.97 762.833 534.298 761.341 534.298ZM761.361 531.415C762.17 531.415 762.846 531.193 763.39 530.749C763.933 530.298 764.338 529.695 764.603 528.939C764.875 528.183 765.01 527.341 765.01 526.413C765.01 525.479 764.875 524.634 764.603 523.878C764.338 523.116 763.933 522.509 763.39 522.058C762.846 521.607 762.17 521.382 761.361 521.382C760.533 521.382 759.843 521.607 759.293 522.058C758.75 522.509 758.342 523.116 758.07 523.878C757.805 524.634 757.672 525.479 757.672 526.413C757.672 527.341 757.805 528.183 758.07 528.939C758.342 529.695 758.75 530.298 759.293 530.749C759.843 531.193 760.533 531.415 761.361 531.415ZM771.715 534V518.727H775.205V521.273H775.364C775.642 520.391 776.119 519.712 776.796 519.234C777.478 518.75 778.257 518.509 779.132 518.509C779.331 518.509 779.553 518.518 779.798 518.538C780.05 518.552 780.259 518.575 780.425 518.608V521.919C780.272 521.866 780.03 521.82 779.699 521.78C779.374 521.733 779.059 521.71 778.754 521.71C778.098 521.71 777.508 521.853 776.985 522.138C776.468 522.416 776.06 522.804 775.762 523.301C775.463 523.798 775.314 524.372 775.314 525.021V534H771.715ZM791.39 524.037V527H782.222V524.037H791.39ZM795.176 539.727V518.727H798.715V521.253H798.924C799.11 520.882 799.372 520.487 799.71 520.07C800.048 519.645 800.505 519.284 801.082 518.986C801.659 518.681 802.394 518.528 803.289 518.528C804.469 518.528 805.533 518.83 806.481 519.433C807.436 520.03 808.191 520.915 808.748 522.088C809.311 523.255 809.593 524.687 809.593 526.384C809.593 528.061 809.318 529.486 808.768 530.659C808.218 531.832 807.469 532.727 806.521 533.344C805.573 533.96 804.499 534.268 803.299 534.268C802.424 534.268 801.698 534.123 801.122 533.831C800.545 533.539 800.081 533.188 799.73 532.777C799.385 532.359 799.116 531.965 798.924 531.594H798.775V539.727H795.176ZM798.705 526.364C798.705 527.351 798.845 528.216 799.123 528.959C799.408 529.701 799.816 530.281 800.346 530.699C800.883 531.11 801.533 531.315 802.295 531.315C803.09 531.315 803.757 531.103 804.294 530.679C804.83 530.248 805.235 529.661 805.507 528.919C805.785 528.17 805.924 527.318 805.924 526.364C805.924 525.416 805.788 524.574 805.517 523.838C805.245 523.102 804.84 522.526 804.303 522.108C803.767 521.69 803.097 521.482 802.295 521.482C801.526 521.482 800.873 521.684 800.336 522.088C799.799 522.492 799.392 523.059 799.113 523.788C798.841 524.518 798.705 525.376 798.705 526.364ZM812.676 534V518.727H816.166V521.273H816.325C816.603 520.391 817.08 519.712 817.757 519.234C818.439 518.75 819.218 518.509 820.093 518.509C820.292 518.509 820.514 518.518 820.759 518.538C821.011 518.552 821.22 518.575 821.386 518.608V521.919C821.233 521.866 820.991 521.82 820.66 521.78C820.335 521.733 820.02 521.71 819.715 521.71C819.059 521.71 818.469 521.853 817.945 522.138C817.428 522.416 817.021 522.804 816.722 523.301C816.424 523.798 816.275 524.372 816.275 525.021V534H812.676ZM823.777 534V518.727H827.377V534H823.777ZM825.587 516.56C825.017 516.56 824.526 516.371 824.115 515.993C823.704 515.608 823.499 515.148 823.499 514.611C823.499 514.067 823.704 513.607 824.115 513.229C824.526 512.844 825.017 512.652 825.587 512.652C826.164 512.652 826.654 512.844 827.058 513.229C827.469 513.607 827.675 514.067 827.675 514.611C827.675 515.148 827.469 515.608 827.058 515.993C826.654 516.371 826.164 516.56 825.587 516.56ZM831.078 534V518.727H834.518V521.322H834.697C835.015 520.447 835.542 519.765 836.278 519.274C837.014 518.777 837.892 518.528 838.913 518.528C839.947 518.528 840.819 518.78 841.528 519.284C842.244 519.781 842.748 520.461 843.04 521.322H843.199C843.537 520.474 844.107 519.798 844.909 519.294C845.718 518.784 846.675 518.528 847.782 518.528C849.188 518.528 850.335 518.973 851.223 519.861C852.111 520.749 852.555 522.045 852.555 523.749V534H848.946V524.305C848.946 523.357 848.694 522.665 848.19 522.227C847.686 521.783 847.07 521.561 846.341 521.561C845.472 521.561 844.793 521.833 844.302 522.376C843.818 522.913 843.577 523.613 843.577 524.474V534H840.047V524.156C840.047 523.367 839.808 522.738 839.331 522.267C838.86 521.796 838.244 521.561 837.481 521.561C836.964 521.561 836.494 521.694 836.069 521.959C835.645 522.217 835.307 522.585 835.055 523.062C834.803 523.533 834.677 524.083 834.677 524.713V534H831.078ZM860.602 534.308C859.634 534.308 858.762 534.136 857.987 533.791C857.218 533.44 856.608 532.923 856.157 532.24C855.713 531.557 855.491 530.715 855.491 529.714C855.491 528.853 855.65 528.14 855.968 527.577C856.286 527.013 856.721 526.562 857.271 526.224C857.821 525.886 858.441 525.631 859.13 525.459C859.826 525.28 860.545 525.151 861.288 525.071C862.183 524.978 862.909 524.895 863.465 524.822C864.022 524.743 864.427 524.624 864.678 524.464C864.937 524.299 865.066 524.044 865.066 523.699V523.639C865.066 522.89 864.844 522.31 864.4 521.899C863.956 521.488 863.316 521.283 862.481 521.283C861.599 521.283 860.9 521.475 860.383 521.859C859.873 522.244 859.528 522.698 859.349 523.222L855.988 522.744C856.253 521.816 856.691 521.041 857.301 520.418C857.91 519.788 858.656 519.317 859.538 519.006C860.419 518.688 861.394 518.528 862.461 518.528C863.197 518.528 863.929 518.615 864.659 518.787C865.388 518.959 866.054 519.244 866.657 519.642C867.26 520.033 867.744 520.567 868.109 521.243C868.48 521.919 868.666 522.764 868.666 523.778V534H865.205V531.902H865.086C864.867 532.326 864.559 532.724 864.161 533.095C863.77 533.46 863.276 533.755 862.68 533.98C862.09 534.199 861.397 534.308 860.602 534.308ZM861.536 531.663C862.259 531.663 862.885 531.521 863.416 531.236C863.946 530.944 864.354 530.56 864.639 530.082C864.93 529.605 865.076 529.085 865.076 528.521V526.722C864.963 526.814 864.771 526.901 864.499 526.98C864.234 527.06 863.936 527.129 863.605 527.189C863.273 527.249 862.945 527.302 862.62 527.348C862.295 527.394 862.014 527.434 861.775 527.467C861.238 527.54 860.758 527.66 860.333 527.825C859.909 527.991 859.574 528.223 859.329 528.521C859.084 528.813 858.961 529.191 858.961 529.655C858.961 530.318 859.203 530.818 859.687 531.156C860.171 531.494 860.787 531.663 861.536 531.663ZM872.285 534V518.727H875.775V521.273H875.934C876.213 520.391 876.69 519.712 877.366 519.234C878.049 518.75 878.828 518.509 879.703 518.509C879.901 518.509 880.124 518.518 880.369 518.538C880.621 518.552 880.829 518.575 880.995 518.608V521.919C880.843 521.866 880.601 521.82 880.269 521.78C879.945 521.733 879.63 521.71 879.325 521.71C878.669 521.71 878.079 521.853 877.555 522.138C877.038 522.416 876.63 522.804 876.332 523.301C876.034 523.798 875.884 524.372 875.884 525.021V534H872.285ZM886.089 539.727C885.598 539.727 885.144 539.688 884.726 539.608C884.315 539.535 883.987 539.449 883.742 539.349L884.577 536.545C885.101 536.698 885.568 536.771 885.979 536.764C886.39 536.758 886.751 536.628 887.063 536.376C887.381 536.131 887.65 535.72 887.868 535.143L888.177 534.318L882.638 518.727H886.456L889.976 530.261H890.135L893.665 518.727H897.493L891.378 535.849C891.093 536.658 890.715 537.351 890.245 537.928C889.774 538.511 889.198 538.955 888.515 539.26C887.839 539.571 887.03 539.727 886.089 539.727Z" fill="#333333"/>
<path d="M759 586C759 585.448 758.552 585 758 585C757.448 585 757 585.448 757 586H758H759ZM757.293 706.707C757.683 707.098 758.317 707.098 758.707 706.707L765.071 700.343C765.462 699.953 765.462 699.319 765.071 698.929C764.681 698.538 764.047 698.538 763.657 698.929L758 704.586L752.343 698.929C751.953 698.538 751.319 698.538 750.929 698.929C750.538 699.319 750.538 699.953 750.929 700.343L757.293 706.707ZM758 586H757V706H758H759V586H758Z" fill="#767676"/>
<rect width="43" height="20" transform="matrix(2 0 0 2 714 626)" fill="#F6F6F6"/>
<path d="M716.962 654H714.746L721.156 636.545H723.337L729.746 654H727.531L722.315 639.307H722.178L716.962 654ZM717.781 647.182H726.712V649.057H717.781V647.182ZM732.192 658.909V640.909H734.136V642.989H734.374C734.522 642.761 734.727 642.472 734.988 642.119C735.255 641.761 735.636 641.443 736.13 641.165C736.63 640.881 737.306 640.739 738.158 640.739C739.261 640.739 740.232 641.014 741.073 641.565C741.914 642.116 742.57 642.898 743.042 643.909C743.513 644.92 743.749 646.114 743.749 647.489C743.749 648.875 743.513 650.077 743.042 651.094C742.57 652.105 741.917 652.889 741.082 653.446C740.246 653.997 739.283 654.273 738.192 654.273C737.352 654.273 736.678 654.134 736.173 653.855C735.667 653.571 735.278 653.25 735.005 652.892C734.732 652.528 734.522 652.227 734.374 651.989H734.204V658.909H732.192ZM734.17 647.455C734.17 648.443 734.315 649.315 734.604 650.071C734.894 650.821 735.317 651.409 735.874 651.835C736.431 652.256 737.113 652.466 737.92 652.466C738.761 652.466 739.462 652.244 740.025 651.801C740.593 651.352 741.019 650.75 741.303 649.994C741.593 649.233 741.738 648.386 741.738 647.455C741.738 646.534 741.596 645.705 741.312 644.966C741.033 644.222 740.61 643.634 740.042 643.202C739.479 642.764 738.772 642.545 737.92 642.545C737.102 642.545 736.414 642.753 735.857 643.168C735.3 643.577 734.88 644.151 734.596 644.889C734.312 645.622 734.17 646.477 734.17 647.455ZM746.817 658.909V640.909H748.761V642.989H748.999C749.147 642.761 749.352 642.472 749.613 642.119C749.88 641.761 750.261 641.443 750.755 641.165C751.255 640.881 751.931 640.739 752.783 640.739C753.886 640.739 754.857 641.014 755.698 641.565C756.539 642.116 757.195 642.898 757.667 643.909C758.138 644.92 758.374 646.114 758.374 647.489C758.374 648.875 758.138 650.077 757.667 651.094C757.195 652.105 756.542 652.889 755.707 653.446C754.871 653.997 753.908 654.273 752.817 654.273C751.977 654.273 751.303 654.134 750.798 653.855C750.292 653.571 749.903 653.25 749.63 652.892C749.357 652.528 749.147 652.227 748.999 651.989H748.829V658.909H746.817ZM748.795 647.455C748.795 648.443 748.94 649.315 749.229 650.071C749.519 650.821 749.942 651.409 750.499 651.835C751.056 652.256 751.738 652.466 752.545 652.466C753.386 652.466 754.087 652.244 754.65 651.801C755.218 651.352 755.644 650.75 755.928 649.994C756.218 649.233 756.363 648.386 756.363 647.455C756.363 646.534 756.221 645.705 755.937 644.966C755.658 644.222 755.235 643.634 754.667 643.202C754.104 642.764 753.397 642.545 752.545 642.545C751.727 642.545 751.039 642.753 750.482 643.168C749.925 643.577 749.505 644.151 749.221 644.889C748.937 645.622 748.795 646.477 748.795 647.455ZM763.454 636.545V654H761.442V636.545H763.454ZM767.138 654V640.909H769.149V654H767.138ZM768.161 638.727C767.768 638.727 767.43 638.594 767.146 638.327C766.868 638.06 766.729 637.739 766.729 637.364C766.729 636.989 766.868 636.668 767.146 636.401C767.43 636.134 767.768 636 768.161 636C768.553 636 768.888 636.134 769.166 636.401C769.45 636.668 769.592 636.989 769.592 637.364C769.592 637.739 769.45 638.06 769.166 638.327C768.888 638.594 768.553 638.727 768.161 638.727ZM778.322 654.273C777.06 654.273 775.972 653.994 775.058 653.438C774.148 652.875 773.447 652.091 772.952 651.085C772.464 650.074 772.219 648.898 772.219 647.557C772.219 646.216 772.464 645.034 772.952 644.011C773.447 642.983 774.134 642.182 775.015 641.608C775.901 641.028 776.935 640.739 778.117 640.739C778.799 640.739 779.472 640.852 780.137 641.08C780.802 641.307 781.407 641.676 781.952 642.188C782.498 642.693 782.933 643.364 783.256 644.199C783.58 645.034 783.742 646.062 783.742 647.284V648.136H773.651V646.398H781.697C781.697 645.659 781.549 645 781.254 644.42C780.964 643.841 780.549 643.384 780.009 643.048C779.475 642.713 778.844 642.545 778.117 642.545C777.316 642.545 776.623 642.744 776.038 643.142C775.458 643.534 775.012 644.045 774.7 644.676C774.387 645.307 774.231 645.983 774.231 646.705V647.864C774.231 648.852 774.401 649.69 774.742 650.378C775.089 651.06 775.569 651.58 776.183 651.938C776.796 652.29 777.509 652.466 778.322 652.466C778.85 652.466 779.327 652.392 779.754 652.244C780.185 652.091 780.558 651.864 780.87 651.562C781.183 651.256 781.424 650.875 781.594 650.42L783.538 650.966C783.333 651.625 782.989 652.205 782.506 652.705C782.023 653.199 781.427 653.585 780.717 653.864C780.006 654.136 779.208 654.273 778.322 654.273ZM791.745 654.273C790.654 654.273 789.691 653.997 788.856 653.446C788.021 652.889 787.367 652.105 786.896 651.094C786.424 650.077 786.188 648.875 786.188 647.489C786.188 646.114 786.424 644.92 786.896 643.909C787.367 642.898 788.023 642.116 788.864 641.565C789.705 641.014 790.677 640.739 791.779 640.739C792.631 640.739 793.305 640.881 793.799 641.165C794.299 641.443 794.68 641.761 794.941 642.119C795.208 642.472 795.415 642.761 795.563 642.989H795.734V636.545H797.745V654H795.802V651.989H795.563C795.415 652.227 795.205 652.528 794.933 652.892C794.66 653.25 794.271 653.571 793.765 653.855C793.259 654.134 792.586 654.273 791.745 654.273ZM792.018 652.466C792.825 652.466 793.506 652.256 794.063 651.835C794.62 651.409 795.043 650.821 795.333 650.071C795.623 649.315 795.768 648.443 795.768 647.455C795.768 646.477 795.626 645.622 795.342 644.889C795.058 644.151 794.637 643.577 794.08 643.168C793.523 642.753 792.836 642.545 792.018 642.545C791.165 642.545 790.455 642.764 789.887 643.202C789.325 643.634 788.901 644.222 788.617 644.966C788.339 645.705 788.2 646.534 788.2 647.455C788.2 648.386 788.342 649.233 788.626 649.994C788.915 650.75 789.342 651.352 789.904 651.801C790.472 652.244 791.177 652.466 792.018 652.466Z" fill="#666666"/>
<path d="M592 707H922C968.944 707 1007 745.056 1007 792C1007 838.944 968.944 877 922 877H592C545.056 877 507 838.944 507 792C507 745.056 545.056 707 592 707Z" fill="white"/>
<path d="M592 707H922C968.944 707 1007 745.056 1007 792C1007 838.944 968.944 877 922 877H592C545.056 877 507 838.944 507 792C507 745.056 545.056 707 592 707Z" stroke="#E5E5E5"/>
<path d="M665.628 762H663.514C663.389 761.392 663.17 760.858 662.858 760.398C662.551 759.938 662.176 759.551 661.733 759.239C661.295 758.92 660.81 758.682 660.276 758.523C659.741 758.364 659.185 758.284 658.605 758.284C657.548 758.284 656.591 758.551 655.733 759.085C654.881 759.619 654.202 760.406 653.696 761.446C653.196 762.486 652.946 763.761 652.946 765.273C652.946 766.784 653.196 768.06 653.696 769.099C654.202 770.139 654.881 770.926 655.733 771.46C656.591 771.994 657.548 772.261 658.605 772.261C659.185 772.261 659.741 772.182 660.276 772.023C660.81 771.864 661.295 771.628 661.733 771.315C662.176 770.997 662.551 770.608 662.858 770.148C663.17 769.682 663.389 769.148 663.514 768.545H665.628C665.469 769.437 665.179 770.236 664.759 770.94C664.338 771.645 663.815 772.244 663.19 772.739C662.565 773.227 661.864 773.599 661.085 773.855C660.313 774.111 659.486 774.239 658.605 774.239C657.116 774.239 655.793 773.875 654.634 773.148C653.474 772.42 652.563 771.386 651.898 770.045C651.233 768.705 650.901 767.114 650.901 765.273C650.901 763.432 651.233 761.841 651.898 760.5C652.563 759.159 653.474 758.125 654.634 757.398C655.793 756.67 657.116 756.307 658.605 756.307C659.486 756.307 660.313 756.435 661.085 756.69C661.864 756.946 662.565 757.321 663.19 757.815C663.815 758.304 664.338 758.901 664.759 759.605C665.179 760.304 665.469 761.102 665.628 762ZM674.089 774.273C672.907 774.273 671.87 773.991 670.978 773.429C670.092 772.866 669.398 772.08 668.898 771.068C668.404 770.057 668.157 768.875 668.157 767.523C668.157 766.159 668.404 764.969 668.898 763.952C669.398 762.935 670.092 762.145 670.978 761.582C671.87 761.02 672.907 760.739 674.089 760.739C675.271 760.739 676.305 761.02 677.191 761.582C678.083 762.145 678.776 762.935 679.271 763.952C679.771 764.969 680.021 766.159 680.021 767.523C680.021 768.875 679.771 770.057 679.271 771.068C678.776 772.08 678.083 772.866 677.191 773.429C676.305 773.991 675.271 774.273 674.089 774.273ZM674.089 772.466C674.987 772.466 675.725 772.236 676.305 771.776C676.884 771.315 677.313 770.71 677.592 769.96C677.87 769.21 678.009 768.398 678.009 767.523C678.009 766.648 677.87 765.832 677.592 765.077C677.313 764.321 676.884 763.71 676.305 763.244C675.725 762.778 674.987 762.545 674.089 762.545C673.191 762.545 672.452 762.778 671.873 763.244C671.293 763.71 670.864 764.321 670.586 765.077C670.308 765.832 670.168 766.648 670.168 767.523C670.168 768.398 670.308 769.21 670.586 769.96C670.864 770.71 671.293 771.315 671.873 771.776C672.452 772.236 673.191 772.466 674.089 772.466ZM683.091 774V760.909H685.034V762.955H685.205C685.477 762.256 685.918 761.713 686.526 761.327C687.134 760.935 687.864 760.739 688.716 760.739C689.58 760.739 690.298 760.935 690.872 761.327C691.452 761.713 691.903 762.256 692.227 762.955H692.364C692.699 762.278 693.202 761.741 693.872 761.344C694.543 760.94 695.347 760.739 696.284 760.739C697.455 760.739 698.412 761.105 699.156 761.838C699.901 762.565 700.273 763.699 700.273 765.239V774H698.261V765.239C698.261 764.273 697.997 763.582 697.469 763.168C696.94 762.753 696.318 762.545 695.602 762.545C694.682 762.545 693.969 762.824 693.463 763.381C692.957 763.932 692.705 764.631 692.705 765.477V774H690.659V765.034C690.659 764.29 690.418 763.69 689.935 763.236C689.452 762.776 688.83 762.545 688.068 762.545C687.545 762.545 687.057 762.685 686.602 762.963C686.153 763.241 685.79 763.628 685.511 764.122C685.239 764.611 685.102 765.176 685.102 765.818V774H683.091ZM703.95 778.909V760.909H705.893V762.989H706.132C706.28 762.761 706.484 762.472 706.746 762.119C707.013 761.761 707.393 761.443 707.888 761.165C708.388 760.881 709.064 760.739 709.916 760.739C711.018 760.739 711.99 761.014 712.831 761.565C713.672 762.116 714.328 762.898 714.8 763.909C715.271 764.92 715.507 766.114 715.507 767.489C715.507 768.875 715.271 770.077 714.8 771.094C714.328 772.105 713.675 772.889 712.839 773.446C712.004 773.997 711.041 774.273 709.95 774.273C709.109 774.273 708.436 774.134 707.93 773.855C707.425 773.571 707.036 773.25 706.763 772.892C706.49 772.528 706.28 772.227 706.132 771.989H705.962V778.909H703.95ZM705.928 767.455C705.928 768.443 706.072 769.315 706.362 770.071C706.652 770.821 707.075 771.409 707.632 771.835C708.189 772.256 708.871 772.466 709.678 772.466C710.518 772.466 711.22 772.244 711.783 771.801C712.351 771.352 712.777 770.75 713.061 769.994C713.351 769.233 713.496 768.386 713.496 767.455C713.496 766.534 713.354 765.705 713.07 764.966C712.791 764.222 712.368 763.634 711.8 763.202C711.237 762.764 710.53 762.545 709.678 762.545C708.859 762.545 708.172 762.753 707.615 763.168C707.058 763.577 706.638 764.151 706.354 764.889C706.07 765.622 705.928 766.477 705.928 767.455ZM723.893 774.273C722.712 774.273 721.675 773.991 720.783 773.429C719.896 772.866 719.203 772.08 718.703 771.068C718.209 770.057 717.962 768.875 717.962 767.523C717.962 766.159 718.209 764.969 718.703 763.952C719.203 762.935 719.896 762.145 720.783 761.582C721.675 761.02 722.712 760.739 723.893 760.739C725.075 760.739 726.109 761.02 726.996 761.582C727.888 762.145 728.581 762.935 729.075 763.952C729.575 764.969 729.825 766.159 729.825 767.523C729.825 768.875 729.575 770.057 729.075 771.068C728.581 772.08 727.888 772.866 726.996 773.429C726.109 773.991 725.075 774.273 723.893 774.273ZM723.893 772.466C724.791 772.466 725.53 772.236 726.109 771.776C726.689 771.315 727.118 770.71 727.396 769.96C727.675 769.21 727.814 768.398 727.814 767.523C727.814 766.648 727.675 765.832 727.396 765.077C727.118 764.321 726.689 763.71 726.109 763.244C725.53 762.778 724.791 762.545 723.893 762.545C722.996 762.545 722.257 762.778 721.678 763.244C721.098 763.71 720.669 764.321 720.391 765.077C720.112 765.832 719.973 766.648 719.973 767.523C719.973 768.398 720.112 769.21 720.391 769.96C720.669 770.71 721.098 771.315 721.678 771.776C722.257 772.236 722.996 772.466 723.893 772.466ZM734.907 766.125V774H732.896V760.909H734.839V762.955H735.009C735.316 762.29 735.782 761.756 736.407 761.352C737.032 760.943 737.839 760.739 738.827 760.739C739.714 760.739 740.489 760.92 741.154 761.284C741.819 761.642 742.336 762.188 742.705 762.92C743.075 763.648 743.259 764.568 743.259 765.682V774H741.248V765.818C741.248 764.79 740.981 763.989 740.447 763.415C739.913 762.835 739.18 762.545 738.248 762.545C737.606 762.545 737.032 762.685 736.526 762.963C736.026 763.241 735.631 763.648 735.342 764.182C735.052 764.716 734.907 765.364 734.907 766.125ZM752.423 774.273C751.162 774.273 750.074 773.994 749.159 773.438C748.25 772.875 747.548 772.091 747.054 771.085C746.565 770.074 746.321 768.898 746.321 767.557C746.321 766.216 746.565 765.034 747.054 764.011C747.548 762.983 748.236 762.182 749.116 761.608C750.003 761.028 751.037 760.739 752.219 760.739C752.901 760.739 753.574 760.852 754.239 761.08C754.903 761.307 755.509 761.676 756.054 762.188C756.599 762.693 757.034 763.364 757.358 764.199C757.682 765.034 757.844 766.062 757.844 767.284V768.136H747.753V766.398H755.798C755.798 765.659 755.651 765 755.355 764.42C755.065 763.841 754.651 763.384 754.111 763.048C753.577 762.713 752.946 762.545 752.219 762.545C751.418 762.545 750.724 762.744 750.139 763.142C749.56 763.534 749.114 764.045 748.801 764.676C748.489 765.307 748.332 765.983 748.332 766.705V767.864C748.332 768.852 748.503 769.69 748.844 770.378C749.19 771.06 749.67 771.58 750.284 771.938C750.898 772.29 751.611 772.466 752.423 772.466C752.952 772.466 753.429 772.392 753.855 772.244C754.287 772.091 754.659 771.864 754.972 771.562C755.284 771.256 755.526 770.875 755.696 770.42L757.639 770.966C757.435 771.625 757.091 772.205 756.608 772.705C756.125 773.199 755.528 773.585 754.818 773.864C754.108 774.136 753.31 774.273 752.423 774.273ZM762.915 766.125V774H760.903V760.909H762.847V762.955H763.017C763.324 762.29 763.79 761.756 764.415 761.352C765.04 760.943 765.847 760.739 766.835 760.739C767.722 760.739 768.497 760.92 769.162 761.284C769.827 761.642 770.344 762.188 770.713 762.92C771.082 763.648 771.267 764.568 771.267 765.682V774H769.256V765.818C769.256 764.79 768.989 763.989 768.455 763.415C767.92 762.835 767.188 762.545 766.256 762.545C765.614 762.545 765.04 762.685 764.534 762.963C764.034 763.241 763.639 763.648 763.349 764.182C763.06 764.716 762.915 765.364 762.915 766.125ZM780.636 760.909V762.614H773.852V760.909H780.636ZM775.829 757.773H777.84V770.25C777.84 770.818 777.923 771.244 778.087 771.528C778.258 771.807 778.474 771.994 778.735 772.091C779.002 772.182 779.283 772.227 779.579 772.227C779.8 772.227 779.982 772.216 780.124 772.193C780.266 772.165 780.38 772.142 780.465 772.125L780.874 773.932C780.738 773.983 780.548 774.034 780.303 774.085C780.059 774.142 779.749 774.17 779.374 774.17C778.806 774.17 778.249 774.048 777.704 773.804C777.164 773.56 776.715 773.188 776.357 772.688C776.005 772.188 775.829 771.557 775.829 770.795V757.773ZM796.104 760.909V762.614H789.32V760.909H796.104ZM791.298 757.773H793.309V770.25C793.309 770.818 793.391 771.244 793.556 771.528C793.727 771.807 793.942 771.994 794.204 772.091C794.471 772.182 794.752 772.227 795.048 772.227C795.269 772.227 795.451 772.216 795.593 772.193C795.735 772.165 795.849 772.142 795.934 772.125L796.343 773.932C796.207 773.983 796.016 774.034 795.772 774.085C795.528 774.142 795.218 774.17 794.843 774.17C794.275 774.17 793.718 774.048 793.173 773.804C792.633 773.56 792.184 773.188 791.826 772.688C791.474 772.188 791.298 771.557 791.298 770.795V757.773ZM804.308 774.273C803.126 774.273 802.089 773.991 801.197 773.429C800.31 772.866 799.617 772.08 799.117 771.068C798.623 770.057 798.376 768.875 798.376 767.523C798.376 766.159 798.623 764.969 799.117 763.952C799.617 762.935 800.31 762.145 801.197 761.582C802.089 761.02 803.126 760.739 804.308 760.739C805.489 760.739 806.523 761.02 807.41 761.582C808.302 762.145 808.995 762.935 809.489 763.952C809.989 764.969 810.239 766.159 810.239 767.523C810.239 768.875 809.989 770.057 809.489 771.068C808.995 772.08 808.302 772.866 807.41 773.429C806.523 773.991 805.489 774.273 804.308 774.273ZM804.308 772.466C805.205 772.466 805.944 772.236 806.523 771.776C807.103 771.315 807.532 770.71 807.81 769.96C808.089 769.21 808.228 768.398 808.228 767.523C808.228 766.648 808.089 765.832 807.81 765.077C807.532 764.321 807.103 763.71 806.523 763.244C805.944 762.778 805.205 762.545 804.308 762.545C803.41 762.545 802.671 762.778 802.092 763.244C801.512 763.71 801.083 764.321 800.805 765.077C800.526 765.832 800.387 766.648 800.387 767.523C800.387 768.398 800.526 769.21 800.805 769.96C801.083 770.71 801.512 771.315 802.092 771.776C802.671 772.236 803.41 772.466 804.308 772.466ZM815.185 769.227L815.151 766.739H815.56L821.287 760.909H823.776L817.673 767.08H817.503L815.185 769.227ZM813.31 774V756.545H815.321V774H813.31ZM821.628 774L816.514 767.523L817.946 766.125L824.185 774H821.628ZM831.314 774.273C830.053 774.273 828.964 773.994 828.05 773.438C827.141 772.875 826.439 772.091 825.945 771.085C825.456 770.074 825.212 768.898 825.212 767.557C825.212 766.216 825.456 765.034 825.945 764.011C826.439 762.983 827.126 762.182 828.007 761.608C828.893 761.028 829.928 760.739 831.109 760.739C831.791 760.739 832.464 760.852 833.129 761.08C833.794 761.307 834.399 761.676 834.945 762.188C835.49 762.693 835.925 763.364 836.249 764.199C836.572 765.034 836.734 766.062 836.734 767.284V768.136H826.643V766.398H834.689C834.689 765.659 834.541 765 834.246 764.42C833.956 763.841 833.541 763.384 833.001 763.048C832.467 762.713 831.837 762.545 831.109 762.545C830.308 762.545 829.615 762.744 829.03 763.142C828.45 763.534 828.004 764.045 827.692 764.676C827.379 765.307 827.223 765.983 827.223 766.705V767.864C827.223 768.852 827.393 769.69 827.734 770.378C828.081 771.06 828.561 771.58 829.175 771.938C829.788 772.29 830.501 772.466 831.314 772.466C831.842 772.466 832.32 772.392 832.746 772.244C833.178 772.091 833.55 771.864 833.862 771.562C834.175 771.256 834.416 770.875 834.587 770.42L836.53 770.966C836.325 771.625 835.982 772.205 835.499 772.705C835.016 773.199 834.419 773.585 833.709 773.864C832.999 774.136 832.2 774.273 831.314 774.273ZM841.805 766.125V774H839.794V760.909H841.737V762.955H841.908C842.214 762.29 842.68 761.756 843.305 761.352C843.93 760.943 844.737 760.739 845.726 760.739C846.612 760.739 847.388 760.92 848.053 761.284C848.717 761.642 849.234 762.188 849.604 762.92C849.973 763.648 850.158 764.568 850.158 765.682V774H848.146V765.818C848.146 764.79 847.879 763.989 847.345 763.415C846.811 762.835 846.078 762.545 845.146 762.545C844.504 762.545 843.93 762.685 843.425 762.963C842.925 763.241 842.53 763.648 842.24 764.182C841.95 764.716 841.805 765.364 841.805 766.125ZM863.106 763.841L861.299 764.352C861.185 764.051 861.018 763.759 860.796 763.474C860.58 763.185 860.285 762.946 859.91 762.759C859.535 762.571 859.055 762.477 858.469 762.477C857.668 762.477 857.001 762.662 856.467 763.031C855.938 763.395 855.674 763.858 855.674 764.42C855.674 764.92 855.856 765.315 856.219 765.605C856.583 765.895 857.151 766.136 857.924 766.33L859.867 766.807C861.038 767.091 861.91 767.526 862.484 768.111C863.058 768.69 863.344 769.437 863.344 770.352C863.344 771.102 863.129 771.773 862.697 772.364C862.271 772.955 861.674 773.42 860.907 773.761C860.14 774.102 859.248 774.273 858.231 774.273C856.896 774.273 855.79 773.983 854.915 773.403C854.04 772.824 853.487 771.977 853.254 770.864L855.163 770.386C855.344 771.091 855.688 771.619 856.194 771.972C856.705 772.324 857.373 772.5 858.197 772.5C859.134 772.5 859.879 772.301 860.43 771.903C860.987 771.5 861.265 771.017 861.265 770.455C861.265 770 861.106 769.619 860.788 769.312C860.469 769 859.981 768.767 859.322 768.614L857.14 768.102C855.941 767.818 855.06 767.378 854.498 766.781C853.941 766.179 853.663 765.426 853.663 764.523C853.663 763.784 853.87 763.131 854.285 762.562C854.705 761.994 855.276 761.548 855.998 761.224C856.725 760.901 857.549 760.739 858.469 760.739C859.765 760.739 860.782 761.023 861.521 761.591C862.265 762.159 862.793 762.909 863.106 763.841Z" fill="#666666"/>
<path d="M591.518 808.341L585.711 814.148L579.825 808.341L585.711 802.455L591.518 808.341ZM598.995 815.818L593.189 821.705L587.382 815.818L593.189 810.011L598.995 815.818ZM584.041 815.818L578.154 821.705L572.268 815.818L578.154 810.011L584.041 815.818ZM591.518 823.375L585.711 829.182L579.825 823.375L585.711 817.489L591.518 823.375ZM615.886 826.298C614.362 826.298 613.053 825.964 611.959 825.294C610.872 824.625 610.033 823.7 609.443 822.52C608.86 821.333 608.568 819.968 608.568 818.423C608.568 816.872 608.866 815.503 609.463 814.317C610.06 813.124 610.902 812.196 611.989 811.533C613.082 810.863 614.375 810.528 615.866 810.528C617.106 810.528 618.203 810.757 619.158 811.214C620.119 811.665 620.884 812.305 621.455 813.134C622.025 813.955 622.349 814.917 622.429 816.017H618.989C618.849 815.281 618.518 814.668 617.994 814.178C617.477 813.68 616.785 813.432 615.916 813.432C615.18 813.432 614.534 813.631 613.977 814.028C613.42 814.42 612.986 814.983 612.675 815.719C612.37 816.455 612.217 817.336 612.217 818.364C612.217 819.404 612.37 820.299 612.675 821.048C612.98 821.791 613.407 822.364 613.957 822.768C614.514 823.166 615.167 823.365 615.916 823.365C616.446 823.365 616.92 823.266 617.338 823.067C617.762 822.861 618.117 822.566 618.402 822.182C618.687 821.797 618.883 821.33 618.989 820.78H622.429C622.343 821.86 622.025 822.818 621.474 823.653C620.924 824.482 620.175 825.132 619.227 825.602C618.279 826.066 617.166 826.298 615.886 826.298ZM632.047 826.298C630.555 826.298 629.262 825.97 628.169 825.314C627.075 824.658 626.226 823.74 625.623 822.56C625.027 821.38 624.728 820.001 624.728 818.423C624.728 816.846 625.027 815.464 625.623 814.277C626.226 813.09 627.075 812.169 628.169 811.513C629.262 810.857 630.555 810.528 632.047 810.528C633.538 810.528 634.831 810.857 635.924 811.513C637.018 812.169 637.863 813.09 638.46 814.277C639.063 815.464 639.365 816.846 639.365 818.423C639.365 820.001 639.063 821.38 638.46 822.56C637.863 823.74 637.018 824.658 635.924 825.314C634.831 825.97 633.538 826.298 632.047 826.298ZM632.066 823.415C632.875 823.415 633.551 823.193 634.095 822.749C634.638 822.298 635.043 821.695 635.308 820.939C635.58 820.183 635.716 819.341 635.716 818.413C635.716 817.479 635.58 816.634 635.308 815.878C635.043 815.116 634.638 814.509 634.095 814.058C633.551 813.607 632.875 813.382 632.066 813.382C631.238 813.382 630.548 813.607 629.998 814.058C629.455 814.509 629.047 815.116 628.775 815.878C628.51 816.634 628.377 817.479 628.377 818.413C628.377 819.341 628.51 820.183 628.775 820.939C629.047 821.695 629.455 822.298 629.998 822.749C630.548 823.193 631.238 823.415 632.066 823.415ZM642.42 826V810.727H645.86V813.322H646.039C646.357 812.447 646.884 811.765 647.62 811.274C648.356 810.777 649.234 810.528 650.255 810.528C651.289 810.528 652.161 810.78 652.87 811.284C653.586 811.781 654.09 812.461 654.381 813.322H654.54C654.879 812.474 655.449 811.798 656.251 811.294C657.059 810.784 658.017 810.528 659.124 810.528C660.53 810.528 661.676 810.973 662.565 811.861C663.453 812.749 663.897 814.045 663.897 815.749V826H660.288V816.305C660.288 815.357 660.036 814.665 659.532 814.227C659.028 813.783 658.412 813.561 657.683 813.561C656.814 813.561 656.135 813.833 655.644 814.376C655.16 814.913 654.918 815.613 654.918 816.474V826H651.388V816.156C651.388 815.367 651.15 814.738 650.673 814.267C650.202 813.796 649.585 813.561 648.823 813.561C648.306 813.561 647.835 813.694 647.411 813.959C646.987 814.217 646.649 814.585 646.397 815.062C646.145 815.533 646.019 816.083 646.019 816.713V826H642.42ZM667.549 831.727V810.727H671.088V813.253H671.297C671.483 812.882 671.745 812.487 672.083 812.07C672.421 811.645 672.878 811.284 673.455 810.986C674.032 810.681 674.767 810.528 675.662 810.528C676.842 810.528 677.906 810.83 678.854 811.433C679.809 812.03 680.564 812.915 681.121 814.088C681.685 815.255 681.966 816.687 681.966 818.384C681.966 820.061 681.691 821.486 681.141 822.659C680.591 823.832 679.842 824.727 678.894 825.344C677.946 825.96 676.872 826.268 675.672 826.268C674.797 826.268 674.071 826.123 673.495 825.831C672.918 825.539 672.454 825.188 672.103 824.777C671.758 824.359 671.489 823.965 671.297 823.594H671.148V831.727H667.549ZM671.078 818.364C671.078 819.351 671.218 820.216 671.496 820.959C671.781 821.701 672.189 822.281 672.719 822.699C673.256 823.11 673.906 823.315 674.668 823.315C675.463 823.315 676.13 823.103 676.667 822.679C677.203 822.248 677.608 821.661 677.88 820.919C678.158 820.17 678.297 819.318 678.297 818.364C678.297 817.416 678.161 816.574 677.89 815.838C677.618 815.102 677.213 814.526 676.676 814.108C676.14 813.69 675.47 813.482 674.668 813.482C673.899 813.482 673.246 813.684 672.709 814.088C672.172 814.492 671.765 815.059 671.486 815.788C671.214 816.518 671.078 817.376 671.078 818.364ZM694.306 816.037V819H685.138V816.037H694.306ZM698.251 826V805.636H701.85V813.253H701.999C702.185 812.882 702.447 812.487 702.785 812.07C703.123 811.645 703.58 811.284 704.157 810.986C704.734 810.681 705.469 810.528 706.364 810.528C707.544 810.528 708.608 810.83 709.556 811.433C710.511 812.03 711.266 812.915 711.823 814.088C712.387 815.255 712.668 816.687 712.668 818.384C712.668 820.061 712.393 821.486 711.843 822.659C711.293 823.832 710.544 824.727 709.596 825.344C708.648 825.96 707.574 826.268 706.374 826.268C705.499 826.268 704.773 826.123 704.197 825.831C703.62 825.539 703.156 825.188 702.805 824.777C702.46 824.359 702.192 823.965 701.999 823.594H701.79V826H698.251ZM701.781 818.364C701.781 819.351 701.92 820.216 702.198 820.959C702.483 821.701 702.891 822.281 703.421 822.699C703.958 823.11 704.608 823.315 705.37 823.315C706.165 823.315 706.832 823.103 707.369 822.679C707.906 822.248 708.31 821.661 708.582 820.919C708.86 820.17 708.999 819.318 708.999 818.364C708.999 817.416 708.863 816.574 708.592 815.838C708.32 815.102 707.915 814.526 707.379 814.108C706.842 813.69 706.172 813.482 705.37 813.482C704.601 813.482 703.948 813.684 703.411 814.088C702.874 814.492 702.467 815.059 702.188 815.788C701.916 816.518 701.781 817.376 701.781 818.364ZM725.463 819.577V810.727H729.062V826H725.572V823.286H725.413C725.068 824.141 724.502 824.84 723.713 825.384C722.931 825.927 721.966 826.199 720.819 826.199C719.818 826.199 718.933 825.977 718.164 825.533C717.402 825.082 716.806 824.429 716.375 823.574C715.944 822.712 715.728 821.671 715.728 820.452V810.727H719.328V819.895C719.328 820.863 719.593 821.632 720.123 822.202C720.654 822.772 721.35 823.057 722.211 823.057C722.742 823.057 723.255 822.928 723.752 822.669C724.25 822.411 724.657 822.026 724.975 821.516C725.3 820.999 725.463 820.352 725.463 819.577ZM740.39 810.727V813.511H731.61V810.727H740.39ZM733.778 807.068H737.377V821.406C737.377 821.89 737.45 822.261 737.596 822.52C737.748 822.772 737.947 822.944 738.192 823.037C738.438 823.13 738.71 823.176 739.008 823.176C739.233 823.176 739.439 823.16 739.624 823.126C739.817 823.093 739.962 823.063 740.062 823.037L740.668 825.851C740.476 825.917 740.201 825.99 739.843 826.07C739.492 826.149 739.061 826.196 738.55 826.209C737.649 826.235 736.837 826.099 736.114 825.801C735.392 825.496 734.818 825.026 734.394 824.389C733.977 823.753 733.771 822.957 733.778 822.003V807.068ZM751.027 810.727V813.511H742.247V810.727H751.027ZM744.414 807.068H748.014V821.406C748.014 821.89 748.087 822.261 748.233 822.52C748.385 822.772 748.584 822.944 748.829 823.037C749.074 823.13 749.346 823.176 749.645 823.176C749.87 823.176 750.075 823.16 750.261 823.126C750.453 823.093 750.599 823.063 750.699 823.037L751.305 825.851C751.113 825.917 750.838 825.99 750.48 826.07C750.128 826.149 749.698 826.196 749.187 826.209C748.286 826.235 747.474 826.099 746.751 825.801C746.029 825.496 745.455 825.026 745.031 824.389C744.613 823.753 744.408 822.957 744.414 822.003V807.068ZM760.535 826.298C759.043 826.298 757.751 825.97 756.657 825.314C755.563 824.658 754.715 823.74 754.112 822.56C753.515 821.38 753.217 820.001 753.217 818.423C753.217 816.846 753.515 815.464 754.112 814.277C754.715 813.09 755.563 812.169 756.657 811.513C757.751 810.857 759.043 810.528 760.535 810.528C762.026 810.528 763.319 810.857 764.413 811.513C765.506 812.169 766.352 813.09 766.948 814.277C767.551 815.464 767.853 816.846 767.853 818.423C767.853 820.001 767.551 821.38 766.948 822.56C766.352 823.74 765.506 824.658 764.413 825.314C763.319 825.97 762.026 826.298 760.535 826.298ZM760.555 823.415C761.363 823.415 762.04 823.193 762.583 822.749C763.127 822.298 763.531 821.695 763.796 820.939C764.068 820.183 764.204 819.341 764.204 818.413C764.204 817.479 764.068 816.634 763.796 815.878C763.531 815.116 763.127 814.509 762.583 814.058C762.04 813.607 761.363 813.382 760.555 813.382C759.726 813.382 759.037 813.607 758.487 814.058C757.943 814.509 757.535 815.116 757.263 815.878C756.998 816.634 756.866 817.479 756.866 818.413C756.866 819.341 756.998 820.183 757.263 820.939C757.535 821.695 757.943 822.298 758.487 822.749C759.037 823.193 759.726 823.415 760.555 823.415ZM774.507 817.051V826H770.908V810.727H774.348V813.322H774.527C774.879 812.467 775.439 811.788 776.208 811.284C776.983 810.78 777.941 810.528 779.081 810.528C780.135 810.528 781.053 810.754 781.836 811.205C782.624 811.655 783.234 812.308 783.665 813.163C784.103 814.018 784.318 815.056 784.311 816.276V826H780.712V816.832C780.712 815.812 780.447 815.013 779.917 814.436C779.393 813.859 778.667 813.571 777.739 813.571C777.109 813.571 776.549 813.71 776.059 813.989C775.575 814.26 775.194 814.655 774.915 815.172C774.643 815.689 774.507 816.315 774.507 817.051ZM797.228 816.037V819H788.06V816.037H797.228ZM813.085 814.764L809.803 815.122C809.71 814.791 809.548 814.479 809.316 814.188C809.091 813.896 808.786 813.661 808.401 813.482C808.017 813.303 807.546 813.213 806.989 813.213C806.24 813.213 805.611 813.375 805.1 813.7C804.596 814.025 804.348 814.446 804.354 814.963C804.348 815.407 804.51 815.768 804.842 816.047C805.18 816.325 805.737 816.554 806.512 816.733L809.117 817.29C810.562 817.601 811.636 818.095 812.339 818.771C813.048 819.447 813.406 820.332 813.413 821.426C813.406 822.387 813.124 823.236 812.567 823.972C812.017 824.701 811.252 825.271 810.271 825.682C809.29 826.093 808.163 826.298 806.89 826.298C805.021 826.298 803.516 825.907 802.376 825.125C801.236 824.336 800.556 823.239 800.337 821.834L803.847 821.496C804.006 822.185 804.344 822.705 804.862 823.057C805.379 823.408 806.051 823.584 806.88 823.584C807.735 823.584 808.421 823.408 808.938 823.057C809.462 822.705 809.724 822.271 809.724 821.754C809.724 821.317 809.555 820.955 809.217 820.67C808.885 820.385 808.368 820.167 807.665 820.014L805.06 819.467C803.595 819.162 802.512 818.649 801.809 817.926C801.106 817.197 800.758 816.276 800.765 815.162C800.758 814.221 801.013 813.405 801.531 812.716C802.054 812.02 802.78 811.483 803.708 811.105C804.643 810.721 805.72 810.528 806.94 810.528C808.729 810.528 810.138 810.91 811.165 811.672C812.2 812.434 812.839 813.465 813.085 814.764ZM816.381 826V810.727H819.821V813.322H820C820.318 812.447 820.845 811.765 821.581 811.274C822.317 810.777 823.195 810.528 824.216 810.528C825.25 810.528 826.122 810.78 826.831 811.284C827.547 811.781 828.051 812.461 828.342 813.322H828.501C828.839 812.474 829.41 811.798 830.212 811.294C831.02 810.784 831.978 810.528 833.085 810.528C834.491 810.528 835.637 810.973 836.526 811.861C837.414 812.749 837.858 814.045 837.858 815.749V826H834.249V816.305C834.249 815.357 833.997 814.665 833.493 814.227C832.989 813.783 832.373 813.561 831.643 813.561C830.775 813.561 830.096 813.833 829.605 814.376C829.121 814.913 828.879 815.613 828.879 816.474V826H825.349V816.156C825.349 815.367 825.111 814.738 824.634 814.267C824.163 813.796 823.546 813.561 822.784 813.561C822.267 813.561 821.796 813.694 821.372 813.959C820.948 814.217 820.61 814.585 820.358 815.062C820.106 815.533 819.98 816.083 819.98 816.713V826H816.381ZM850.767 816.037V819H841.599V816.037H850.767ZM854.712 826V805.636H858.311V813.253H858.46C858.646 812.882 858.908 812.487 859.246 812.07C859.584 811.645 860.041 811.284 860.618 810.986C861.195 810.681 861.93 810.528 862.825 810.528C864.005 810.528 865.069 810.83 866.017 811.433C866.972 812.03 867.727 812.915 868.284 814.088C868.848 815.255 869.129 816.687 869.129 818.384C869.129 820.061 868.854 821.486 868.304 822.659C867.754 823.832 867.005 824.727 866.057 825.344C865.109 825.96 864.035 826.268 862.835 826.268C861.96 826.268 861.234 826.123 860.658 825.831C860.081 825.539 859.617 825.188 859.266 824.777C858.921 824.359 858.652 823.965 858.46 823.594H858.251V826H854.712ZM858.241 818.364C858.241 819.351 858.381 820.216 858.659 820.959C858.944 821.701 859.352 822.281 859.882 822.699C860.419 823.11 861.069 823.315 861.831 823.315C862.626 823.315 863.293 823.103 863.83 822.679C864.366 822.248 864.771 821.661 865.043 820.919C865.321 820.17 865.46 819.318 865.46 818.364C865.46 817.416 865.324 816.574 865.053 815.838C864.781 815.102 864.376 814.526 863.839 814.108C863.303 813.69 862.633 813.482 861.831 813.482C861.062 813.482 860.409 813.684 859.872 814.088C859.335 814.492 858.928 815.059 858.649 815.788C858.377 816.518 858.241 817.376 858.241 818.364ZM878.851 826.298C877.36 826.298 876.067 825.97 874.973 825.314C873.88 824.658 873.031 823.74 872.428 822.56C871.831 821.38 871.533 820.001 871.533 818.423C871.533 816.846 871.831 815.464 872.428 814.277C873.031 813.09 873.88 812.169 874.973 811.513C876.067 810.857 877.36 810.528 878.851 810.528C880.343 810.528 881.635 810.857 882.729 811.513C883.823 812.169 884.668 813.09 885.265 814.277C885.868 815.464 886.169 816.846 886.169 818.423C886.169 820.001 885.868 821.38 885.265 822.56C884.668 823.74 883.823 824.658 882.729 825.314C881.635 825.97 880.343 826.298 878.851 826.298ZM878.871 823.415C879.68 823.415 880.356 823.193 880.9 822.749C881.443 822.298 881.847 821.695 882.113 820.939C882.384 820.183 882.52 819.341 882.52 818.413C882.52 817.479 882.384 816.634 882.113 815.878C881.847 815.116 881.443 814.509 880.9 814.058C880.356 813.607 879.68 813.382 878.871 813.382C878.042 813.382 877.353 813.607 876.803 814.058C876.259 814.509 875.852 815.116 875.58 815.878C875.315 816.634 875.182 817.479 875.182 818.413C875.182 819.341 875.315 820.183 875.58 820.939C875.852 821.695 876.259 822.298 876.803 822.749C877.353 823.193 878.042 823.415 878.871 823.415ZM889.224 826V810.727H892.714V813.273H892.874C893.152 812.391 893.629 811.712 894.305 811.234C894.988 810.75 895.767 810.509 896.642 810.509C896.841 810.509 897.063 810.518 897.308 810.538C897.56 810.552 897.769 810.575 897.935 810.608V813.919C897.782 813.866 897.54 813.82 897.209 813.78C896.884 813.733 896.569 813.71 896.264 813.71C895.608 813.71 895.018 813.853 894.494 814.138C893.977 814.416 893.57 814.804 893.271 815.301C892.973 815.798 892.824 816.372 892.824 817.021V826H889.224ZM905.365 826.268C904.165 826.268 903.091 825.96 902.143 825.344C901.195 824.727 900.446 823.832 899.896 822.659C899.346 821.486 899.071 820.061 899.071 818.384C899.071 816.687 899.349 815.255 899.906 814.088C900.469 812.915 901.228 812.03 902.183 811.433C903.137 810.83 904.201 810.528 905.375 810.528C906.27 810.528 907.005 810.681 907.582 810.986C908.159 811.284 908.616 811.645 908.954 812.07C909.292 812.487 909.554 812.882 909.74 813.253H909.889V805.636H913.498V826H909.958V823.594H909.74C909.554 823.965 909.286 824.359 908.934 824.777C908.583 825.188 908.119 825.539 907.542 825.831C906.966 826.123 906.24 826.268 905.365 826.268ZM906.369 823.315C907.131 823.315 907.781 823.11 908.318 822.699C908.855 822.281 909.262 821.701 909.541 820.959C909.819 820.216 909.958 819.351 909.958 818.364C909.958 817.376 909.819 816.518 909.541 815.788C909.269 815.059 908.865 814.492 908.328 814.088C907.797 813.684 907.145 813.482 906.369 813.482C905.567 813.482 904.897 813.69 904.36 814.108C903.824 814.526 903.419 815.102 903.147 815.838C902.876 816.574 902.74 817.416 902.74 818.364C902.74 819.318 902.876 820.17 903.147 820.919C903.426 821.661 903.833 822.248 904.37 822.679C904.914 823.103 905.58 823.315 906.369 823.315ZM924.095 826.298C922.564 826.298 921.241 825.98 920.128 825.344C919.021 824.701 918.169 823.793 917.572 822.619C916.976 821.439 916.678 820.051 916.678 818.453C916.678 816.882 916.976 815.503 917.572 814.317C918.176 813.124 919.018 812.196 920.098 811.533C921.179 810.863 922.448 810.528 923.906 810.528C924.848 810.528 925.736 810.681 926.571 810.986C927.413 811.284 928.155 811.748 928.798 812.378C929.448 813.008 929.958 813.81 930.33 814.784C930.701 815.752 930.886 816.905 930.886 818.244V819.348H918.368V816.922H927.436C927.429 816.232 927.28 815.619 926.989 815.082C926.697 814.539 926.289 814.111 925.766 813.8C925.249 813.488 924.645 813.332 923.956 813.332C923.22 813.332 922.574 813.511 922.017 813.869C921.46 814.221 921.026 814.685 920.714 815.261C920.41 815.831 920.254 816.458 920.247 817.141V819.259C920.247 820.147 920.41 820.909 920.734 821.545C921.059 822.175 921.513 822.659 922.097 822.997C922.68 823.329 923.363 823.494 924.145 823.494C924.669 823.494 925.143 823.421 925.567 823.276C925.991 823.123 926.359 822.901 926.67 822.609C926.982 822.318 927.217 821.956 927.376 821.526L930.737 821.903C930.525 822.792 930.121 823.567 929.524 824.23C928.934 824.886 928.179 825.397 927.257 825.761C926.336 826.119 925.282 826.298 924.095 826.298ZM933.931 826V810.727H937.422V813.273H937.581C937.859 812.391 938.336 811.712 939.012 811.234C939.695 810.75 940.474 810.509 941.349 810.509C941.548 810.509 941.77 810.518 942.015 810.538C942.267 810.552 942.476 810.575 942.642 810.608V813.919C942.489 813.866 942.247 813.82 941.916 813.78C941.591 813.733 941.276 813.71 940.971 813.71C940.315 813.71 939.725 813.853 939.201 814.138C938.684 814.416 938.277 814.804 937.978 815.301C937.68 815.798 937.531 816.372 937.531 817.021V826H933.931Z" fill="#333333"/>
</svg>
