<svg width="690" height="640" viewBox="0 0 690 640" fill="none" xmlns="http://www.w3.org/2000/svg">
<g clip-path="url(#clip0_15283_31239)">
<rect width="345" height="320" transform="scale(2)" fill="#F6F6F6"/>
<g filter="url(#filter0_d_15283_31239)">
<path d="M79 92C79 74.3269 93.3269 60 111 60H1037C1054.67 60 1069 74.3269 1069 92V814C1069 831.673 1054.67 846 1037 846H111C93.3269 846 79 831.673 79 814V92Z" fill="white"/>
</g>
<path d="M153.876 286V259.818H157.827V271.196H170.879V259.818H174.842V286H170.879V274.584H157.827V286H153.876ZM188.56 286.396C186.719 286.396 185.112 285.974 183.74 285.131C182.368 284.287 181.303 283.107 180.544 281.589C179.786 280.072 179.406 278.3 179.406 276.271C179.406 274.234 179.786 272.453 180.544 270.928C181.303 269.402 182.368 268.217 183.74 267.374C185.112 266.53 186.719 266.108 188.56 266.108C190.401 266.108 192.007 266.53 193.379 267.374C194.751 268.217 195.817 269.402 196.575 270.928C197.334 272.453 197.713 274.234 197.713 276.271C197.713 278.3 197.334 280.072 196.575 281.589C195.817 283.107 194.751 284.287 193.379 285.131C192.007 285.974 190.401 286.396 188.56 286.396ZM188.572 283.188C189.766 283.188 190.754 282.872 191.538 282.241C192.322 281.611 192.902 280.771 193.277 279.723C193.661 278.675 193.852 277.52 193.852 276.259C193.852 275.006 193.661 273.855 193.277 272.807C192.902 271.75 192.322 270.902 191.538 270.263C190.754 269.624 189.766 269.304 188.572 269.304C187.371 269.304 186.374 269.624 185.581 270.263C184.797 270.902 184.213 271.75 183.83 272.807C183.455 273.855 183.267 275.006 183.267 276.259C183.267 277.52 183.455 278.675 183.83 279.723C184.213 280.771 184.797 281.611 185.581 282.241C186.374 282.872 187.371 283.188 188.572 283.188ZM205.802 259.818V286H201.98V259.818H205.802ZM210.945 286V266.364H214.767V286H210.945ZM212.875 263.334C212.21 263.334 211.639 263.112 211.162 262.669C210.693 262.217 210.459 261.68 210.459 261.058C210.459 260.428 210.693 259.891 211.162 259.447C211.639 258.996 212.21 258.77 212.875 258.77C213.54 258.77 214.107 258.996 214.575 259.447C215.053 259.891 215.291 260.428 215.291 261.058C215.291 261.68 215.053 262.217 214.575 262.669C214.107 263.112 213.54 263.334 212.875 263.334ZM227.26 286.384C225.675 286.384 224.26 285.979 223.016 285.169C221.78 284.351 220.809 283.187 220.101 281.679C219.402 280.162 219.053 278.342 219.053 276.22C219.053 274.098 219.407 272.283 220.114 270.774C220.83 269.266 221.81 268.111 223.054 267.31C224.299 266.509 225.709 266.108 227.286 266.108C228.505 266.108 229.485 266.312 230.226 266.722C230.976 267.122 231.556 267.591 231.965 268.128C232.382 268.665 232.706 269.138 232.936 269.547H233.167V259.818H236.989V286H233.256V282.945H232.936C232.706 283.362 232.374 283.839 231.939 284.376C231.513 284.913 230.925 285.382 230.175 285.783C229.425 286.183 228.453 286.384 227.26 286.384ZM228.104 283.124C229.203 283.124 230.132 282.834 230.891 282.254C231.658 281.666 232.238 280.852 232.63 279.812C233.03 278.773 233.23 277.562 233.23 276.182C233.23 274.818 233.034 273.625 232.642 272.602C232.25 271.58 231.675 270.783 230.917 270.212C230.158 269.641 229.221 269.355 228.104 269.355C226.953 269.355 225.995 269.653 225.228 270.25C224.461 270.847 223.881 271.661 223.489 272.692C223.105 273.723 222.914 274.886 222.914 276.182C222.914 277.494 223.11 278.675 223.502 279.723C223.894 280.771 224.473 281.602 225.24 282.216C226.016 282.821 226.971 283.124 228.104 283.124ZM248.159 286.435C246.915 286.435 245.79 286.205 244.784 285.744C243.778 285.276 242.982 284.598 242.393 283.712C241.814 282.825 241.524 281.739 241.524 280.452C241.524 279.344 241.737 278.432 242.163 277.716C242.589 277 243.165 276.433 243.889 276.016C244.614 275.598 245.423 275.283 246.318 275.07C247.213 274.857 248.125 274.695 249.054 274.584C250.23 274.447 251.185 274.337 251.918 274.251C252.651 274.158 253.183 274.009 253.516 273.804C253.848 273.599 254.014 273.267 254.014 272.807V272.717C254.014 271.601 253.699 270.736 253.068 270.122C252.446 269.509 251.517 269.202 250.281 269.202C248.994 269.202 247.98 269.487 247.239 270.058C246.506 270.621 245.999 271.247 245.717 271.938L242.125 271.119C242.551 269.926 243.173 268.963 243.991 268.23C244.818 267.489 245.768 266.952 246.842 266.619C247.916 266.278 249.045 266.108 250.23 266.108C251.014 266.108 251.845 266.202 252.723 266.389C253.609 266.568 254.436 266.901 255.203 267.386C255.979 267.872 256.614 268.567 257.108 269.47C257.602 270.365 257.849 271.528 257.849 272.96V286H254.116V283.315H253.963C253.716 283.81 253.345 284.295 252.851 284.773C252.357 285.25 251.722 285.646 250.946 285.962C250.17 286.277 249.241 286.435 248.159 286.435ZM248.99 283.366C250.047 283.366 250.95 283.158 251.7 282.74C252.459 282.322 253.034 281.777 253.426 281.104C253.827 280.422 254.027 279.693 254.027 278.918V276.386C253.891 276.523 253.626 276.651 253.234 276.77C252.851 276.881 252.412 276.979 251.918 277.064C251.423 277.141 250.942 277.213 250.473 277.281C250.004 277.341 249.612 277.392 249.297 277.435C248.555 277.528 247.878 277.686 247.264 277.908C246.659 278.129 246.173 278.449 245.807 278.866C245.449 279.276 245.27 279.821 245.27 280.503C245.27 281.449 245.619 282.165 246.318 282.651C247.017 283.128 247.908 283.366 248.99 283.366ZM264.654 293.364C264.083 293.364 263.563 293.317 263.094 293.223C262.625 293.138 262.276 293.044 262.046 292.942L262.966 289.81C263.665 289.997 264.287 290.078 264.833 290.053C265.378 290.027 265.86 289.822 266.277 289.439C266.703 289.055 267.078 288.429 267.402 287.56L267.875 286.256L260.691 266.364H264.782L269.755 281.602H269.959L274.932 266.364H279.036L270.944 288.621C270.569 289.643 270.091 290.509 269.512 291.216C268.932 291.932 268.242 292.469 267.441 292.827C266.64 293.185 265.711 293.364 264.654 293.364ZM297.343 271.158L293.878 271.771C293.733 271.328 293.503 270.906 293.188 270.506C292.881 270.105 292.463 269.777 291.935 269.521C291.407 269.266 290.746 269.138 289.953 269.138C288.871 269.138 287.968 269.381 287.243 269.866C286.519 270.344 286.157 270.962 286.157 271.72C286.157 272.376 286.4 272.905 286.885 273.305C287.371 273.706 288.155 274.034 289.238 274.29L292.357 275.006C294.164 275.423 295.51 276.067 296.397 276.936C297.283 277.805 297.726 278.935 297.726 280.324C297.726 281.5 297.385 282.548 296.703 283.469C296.03 284.381 295.088 285.097 293.878 285.616C292.676 286.136 291.283 286.396 289.698 286.396C287.499 286.396 285.705 285.928 284.316 284.99C282.926 284.044 282.074 282.702 281.759 280.963L285.453 280.401C285.684 281.364 286.157 282.092 286.873 282.587C287.588 283.072 288.522 283.315 289.672 283.315C290.925 283.315 291.926 283.055 292.676 282.536C293.426 282.007 293.801 281.364 293.801 280.605C293.801 279.991 293.571 279.476 293.111 279.058C292.659 278.641 291.965 278.325 291.027 278.112L287.703 277.384C285.871 276.966 284.516 276.301 283.638 275.389C282.769 274.477 282.334 273.322 282.334 271.925C282.334 270.766 282.658 269.751 283.306 268.882C283.953 268.013 284.848 267.335 285.99 266.849C287.132 266.355 288.441 266.108 289.915 266.108C292.037 266.108 293.708 266.568 294.926 267.489C296.145 268.401 296.951 269.624 297.343 271.158Z" fill="#666666"/>
<rect x="151" y="318" width="280" height="180" rx="4" fill="#EBEBEB"/>
<rect x="215" y="330" width="72" height="72" rx="7.2" fill="#F6F6F6"/>
<rect x="215" y="414" width="72" height="72" rx="7.2" fill="#F6F6F6"/>
<rect x="299" y="330" width="72" height="72" rx="7.2" fill="#F6F6F6"/>
<path d="M168.156 546.696C168.02 545.486 167.457 544.548 166.469 543.884C165.48 543.21 164.236 542.874 162.736 542.874C161.662 542.874 160.733 543.044 159.949 543.385C159.165 543.717 158.555 544.178 158.121 544.766C157.695 545.345 157.482 546.006 157.482 546.747C157.482 547.369 157.626 547.906 157.916 548.358C158.214 548.81 158.602 549.189 159.08 549.496C159.565 549.794 160.085 550.045 160.639 550.25C161.193 550.446 161.726 550.608 162.237 550.736L164.794 551.401C165.629 551.605 166.486 551.882 167.364 552.232C168.241 552.581 169.055 553.041 169.805 553.612C170.555 554.183 171.161 554.891 171.621 555.734C172.089 556.578 172.324 557.588 172.324 558.764C172.324 560.247 171.94 561.564 171.173 562.714C170.415 563.865 169.311 564.773 167.862 565.438C166.422 566.102 164.679 566.435 162.634 566.435C160.673 566.435 158.977 566.124 157.545 565.501C156.114 564.879 154.993 563.997 154.183 562.855C153.374 561.705 152.926 560.341 152.841 558.764H156.804C156.881 559.71 157.188 560.499 157.724 561.129C158.27 561.751 158.964 562.216 159.808 562.523C160.661 562.821 161.594 562.97 162.608 562.97C163.724 562.97 164.717 562.795 165.587 562.446C166.464 562.088 167.155 561.594 167.658 560.963C168.161 560.324 168.412 559.578 168.412 558.726C168.412 557.95 168.19 557.315 167.747 556.821C167.313 556.327 166.72 555.918 165.97 555.594C165.229 555.27 164.389 554.984 163.452 554.737L160.358 553.893C158.261 553.322 156.599 552.483 155.372 551.375C154.153 550.267 153.544 548.801 153.544 546.977C153.544 545.469 153.953 544.152 154.771 543.027C155.589 541.902 156.697 541.028 158.095 540.406C159.493 539.776 161.07 539.46 162.825 539.46C164.598 539.46 166.162 539.771 167.517 540.393C168.881 541.016 169.955 541.872 170.739 542.963C171.523 544.045 171.932 545.29 171.966 546.696H168.156ZM175.753 543.219V539.818H196.016V543.219H187.847V566H183.909V543.219H175.753ZM200.494 566V539.818H216.908V543.219H204.444V551.196H216.052V554.584H204.444V562.599H217.062V566H200.494ZM224.397 566H220.203L229.625 539.818H234.189L243.611 566H239.418L232.016 544.574H231.811L224.397 566ZM225.1 555.747H238.702V559.071H225.1V555.747ZM247.392 539.818H252.186L260.521 560.17H260.828L269.163 539.818H273.957V566H270.199V547.054H269.956L262.234 565.962H259.115L251.393 547.041H251.151V566H247.392V539.818Z" fill="#666666"/>
<rect x="151" y="598" width="280" height="180" rx="4" fill="#EBEBEB"/>
<rect x="215" y="610" width="72" height="72" rx="7.2" fill="#F6F6F6"/>
<rect x="299" y="610" width="72" height="72" rx="7.2" fill="#F6F6F6"/>
<rect x="511" y="318" width="280" height="180" rx="4" fill="#EBEBEB"/>
<rect x="575" y="330" width="72" height="72" rx="7.2" fill="#F6F6F6"/>
<rect x="575" y="414" width="72" height="72" rx="7.2" fill="#F6F6F6"/>
<rect x="659" y="330" width="72" height="72" rx="7.2" fill="#F6F6F6"/>
<path d="M531.595 268.089C531.348 267.314 531.016 266.619 530.598 266.006C530.189 265.384 529.699 264.855 529.128 264.42C528.557 263.977 527.905 263.641 527.172 263.411C526.447 263.18 525.651 263.065 524.781 263.065C523.307 263.065 521.977 263.445 520.793 264.203C519.608 264.962 518.67 266.074 517.98 267.54C517.298 268.997 516.957 270.783 516.957 272.896C516.957 275.018 517.303 276.812 517.993 278.278C518.683 279.744 519.629 280.857 520.831 281.615C522.033 282.374 523.401 282.753 524.935 282.753C526.358 282.753 527.598 282.463 528.655 281.884C529.72 281.304 530.543 280.486 531.122 279.429C531.71 278.364 532.004 277.111 532.004 275.67L533.027 275.862H525.536V272.602H535.827V275.581C535.827 277.78 535.358 279.689 534.42 281.308C533.491 282.919 532.205 284.163 530.56 285.041C528.923 285.919 527.048 286.358 524.935 286.358C522.565 286.358 520.486 285.812 518.696 284.722C516.915 283.631 515.526 282.084 514.528 280.081C513.531 278.07 513.033 275.683 513.033 272.922C513.033 270.834 513.322 268.959 513.902 267.297C514.482 265.635 515.295 264.224 516.344 263.065C517.401 261.898 518.641 261.007 520.064 260.393C521.496 259.771 523.06 259.46 524.756 259.46C526.17 259.46 527.487 259.669 528.706 260.087C529.933 260.504 531.024 261.097 531.979 261.864C532.942 262.631 533.739 263.543 534.369 264.599C535 265.648 535.426 266.811 535.648 268.089H531.595ZM548.998 286.396C547.063 286.396 545.397 285.983 543.999 285.156C542.61 284.321 541.536 283.149 540.777 281.641C540.027 280.124 539.652 278.347 539.652 276.31C539.652 274.298 540.027 272.526 540.777 270.991C541.536 269.457 542.593 268.26 543.948 267.399C545.311 266.538 546.905 266.108 548.729 266.108C549.837 266.108 550.911 266.291 551.951 266.658C552.99 267.024 553.924 267.599 554.75 268.384C555.577 269.168 556.229 270.186 556.706 271.439C557.184 272.683 557.422 274.196 557.422 275.977V277.332H541.813V274.469H553.676C553.676 273.463 553.472 272.572 553.063 271.797C552.654 271.013 552.078 270.395 551.337 269.943C550.604 269.491 549.743 269.266 548.755 269.266C547.681 269.266 546.743 269.53 545.942 270.058C545.15 270.578 544.536 271.26 544.101 272.104C543.675 272.939 543.462 273.847 543.462 274.827V277.064C543.462 278.376 543.692 279.493 544.152 280.413C544.621 281.334 545.273 282.037 546.108 282.523C546.944 283 547.919 283.239 549.036 283.239C549.76 283.239 550.421 283.136 551.017 282.932C551.614 282.719 552.13 282.403 552.564 281.986C552.999 281.568 553.331 281.053 553.561 280.439L557.179 281.091C556.89 282.156 556.37 283.089 555.62 283.891C554.878 284.683 553.945 285.301 552.82 285.744C551.703 286.179 550.429 286.396 548.998 286.396ZM569.935 286.396C568.094 286.396 566.487 285.974 565.115 285.131C563.743 284.287 562.678 283.107 561.919 281.589C561.161 280.072 560.781 278.3 560.781 276.271C560.781 274.234 561.161 272.453 561.919 270.928C562.678 269.402 563.743 268.217 565.115 267.374C566.487 266.53 568.094 266.108 569.935 266.108C571.776 266.108 573.382 266.53 574.754 267.374C576.126 268.217 577.192 269.402 577.95 270.928C578.709 272.453 579.088 274.234 579.088 276.271C579.088 278.3 578.709 280.072 577.95 281.589C577.192 283.107 576.126 284.287 574.754 285.131C573.382 285.974 571.776 286.396 569.935 286.396ZM569.947 283.188C571.141 283.188 572.129 282.872 572.913 282.241C573.697 281.611 574.277 280.771 574.652 279.723C575.036 278.675 575.227 277.52 575.227 276.259C575.227 275.006 575.036 273.855 574.652 272.807C574.277 271.75 573.697 270.902 572.913 270.263C572.129 269.624 571.141 269.304 569.947 269.304C568.746 269.304 567.749 269.624 566.956 270.263C566.172 270.902 565.588 271.75 565.205 272.807C564.83 273.855 564.642 275.006 564.642 276.259C564.642 277.52 564.83 278.675 565.205 279.723C565.588 280.771 566.172 281.611 566.956 282.241C567.749 282.872 568.746 283.188 569.947 283.188ZM591.588 293.773C590.028 293.773 588.686 293.568 587.561 293.159C586.444 292.75 585.532 292.209 584.825 291.536C584.118 290.862 583.589 290.125 583.24 289.324L586.525 287.969C586.755 288.344 587.062 288.74 587.446 289.158C587.838 289.584 588.366 289.946 589.031 290.244C589.704 290.543 590.569 290.692 591.626 290.692C593.075 290.692 594.272 290.338 595.218 289.631C596.164 288.932 596.637 287.815 596.637 286.281V282.42H596.395C596.164 282.838 595.832 283.303 595.397 283.814C594.971 284.325 594.383 284.768 593.633 285.143C592.883 285.518 591.907 285.706 590.706 285.706C589.154 285.706 587.757 285.344 586.512 284.619C585.277 283.886 584.297 282.808 583.572 281.385C582.856 279.953 582.498 278.193 582.498 276.105C582.498 274.017 582.852 272.227 583.559 270.736C584.275 269.244 585.255 268.102 586.5 267.31C587.744 266.509 589.154 266.108 590.731 266.108C591.95 266.108 592.934 266.312 593.684 266.722C594.434 267.122 595.018 267.591 595.436 268.128C595.862 268.665 596.19 269.138 596.42 269.547H596.701V266.364H600.447V286.435C600.447 288.122 600.055 289.507 599.271 290.589C598.487 291.672 597.426 292.473 596.088 292.993C594.758 293.513 593.258 293.773 591.588 293.773ZM591.549 282.536C592.649 282.536 593.578 282.28 594.336 281.768C595.103 281.249 595.683 280.507 596.075 279.544C596.475 278.572 596.676 277.409 596.676 276.054C596.676 274.733 596.48 273.57 596.088 272.564C595.696 271.558 595.12 270.774 594.362 270.212C593.603 269.641 592.666 269.355 591.549 269.355C590.399 269.355 589.44 269.653 588.673 270.25C587.906 270.838 587.326 271.639 586.934 272.653C586.551 273.668 586.359 274.801 586.359 276.054C586.359 277.341 586.555 278.47 586.947 279.442C587.339 280.413 587.919 281.172 588.686 281.717C589.461 282.263 590.416 282.536 591.549 282.536ZM605.574 286V266.364H609.268V269.483H609.473C609.831 268.426 610.461 267.595 611.365 266.99C612.277 266.376 613.308 266.07 614.458 266.07C614.697 266.07 614.978 266.078 615.302 266.095C615.635 266.112 615.895 266.134 616.082 266.159V269.815C615.929 269.773 615.656 269.726 615.264 269.675C614.872 269.615 614.48 269.585 614.088 269.585C613.184 269.585 612.379 269.777 611.672 270.161C610.973 270.536 610.419 271.06 610.01 271.733C609.6 272.398 609.396 273.156 609.396 274.009V286H605.574ZM624.929 286.435C623.684 286.435 622.559 286.205 621.554 285.744C620.548 285.276 619.751 284.598 619.163 283.712C618.583 282.825 618.294 281.739 618.294 280.452C618.294 279.344 618.507 278.432 618.933 277.716C619.359 277 619.934 276.433 620.659 276.016C621.383 275.598 622.193 275.283 623.088 275.07C623.983 274.857 624.895 274.695 625.824 274.584C627 274.447 627.954 274.337 628.687 274.251C629.42 274.158 629.953 274.009 630.285 273.804C630.618 273.599 630.784 273.267 630.784 272.807V272.717C630.784 271.601 630.468 270.736 629.838 270.122C629.216 269.509 628.287 269.202 627.051 269.202C625.764 269.202 624.75 269.487 624.008 270.058C623.275 270.621 622.768 271.247 622.487 271.938L618.895 271.119C619.321 269.926 619.943 268.963 620.761 268.23C621.588 267.489 622.538 266.952 623.612 266.619C624.686 266.278 625.815 266.108 627 266.108C627.784 266.108 628.615 266.202 629.493 266.389C630.379 266.568 631.206 266.901 631.973 267.386C632.748 267.872 633.383 268.567 633.877 269.47C634.372 270.365 634.619 271.528 634.619 272.96V286H630.886V283.315H630.733C630.485 283.81 630.115 284.295 629.62 284.773C629.126 285.25 628.491 285.646 627.716 285.962C626.94 286.277 626.011 286.435 624.929 286.435ZM625.76 283.366C626.816 283.366 627.72 283.158 628.47 282.74C629.228 282.322 629.804 281.777 630.196 281.104C630.596 280.422 630.797 279.693 630.797 278.918V276.386C630.66 276.523 630.396 276.651 630.004 276.77C629.62 276.881 629.181 276.979 628.687 277.064C628.193 277.141 627.711 277.213 627.243 277.281C626.774 277.341 626.382 277.392 626.066 277.435C625.325 277.528 624.647 277.686 624.034 277.908C623.429 278.129 622.943 278.449 622.576 278.866C622.218 279.276 622.039 279.821 622.039 280.503C622.039 281.449 622.389 282.165 623.088 282.651C623.787 283.128 624.677 283.366 625.76 283.366ZM639.71 293.364V266.364H643.443V269.547H643.763C643.984 269.138 644.304 268.665 644.722 268.128C645.139 267.591 645.719 267.122 646.46 266.722C647.202 266.312 648.182 266.108 649.401 266.108C650.986 266.108 652.401 266.509 653.645 267.31C654.889 268.111 655.865 269.266 656.572 270.774C657.288 272.283 657.646 274.098 657.646 276.22C657.646 278.342 657.293 280.162 656.585 281.679C655.878 283.187 654.906 284.351 653.67 285.169C652.435 285.979 651.024 286.384 649.439 286.384C648.246 286.384 647.27 286.183 646.511 285.783C645.761 285.382 645.173 284.913 644.747 284.376C644.321 283.839 643.993 283.362 643.763 282.945H643.533V293.364H639.71ZM643.456 276.182C643.456 277.562 643.656 278.773 644.057 279.812C644.457 280.852 645.037 281.666 645.795 282.254C646.554 282.834 647.483 283.124 648.582 283.124C649.724 283.124 650.679 282.821 651.446 282.216C652.213 281.602 652.793 280.771 653.185 279.723C653.585 278.675 653.786 277.494 653.786 276.182C653.786 274.886 653.589 273.723 653.197 272.692C652.814 271.661 652.234 270.847 651.459 270.25C650.692 269.653 649.733 269.355 648.582 269.355C647.474 269.355 646.537 269.641 645.77 270.212C645.011 270.783 644.436 271.58 644.044 272.602C643.652 273.625 643.456 274.818 643.456 276.182ZM665.751 274.341V286H661.929V259.818H665.7V269.56H665.943C666.403 268.503 667.107 267.663 668.053 267.041C668.999 266.419 670.234 266.108 671.76 266.108C673.107 266.108 674.283 266.385 675.288 266.939C676.303 267.493 677.087 268.32 677.641 269.419C678.203 270.51 678.484 271.874 678.484 273.51V286H674.662V273.97C674.662 272.53 674.291 271.413 673.55 270.621C672.808 269.82 671.777 269.419 670.456 269.419C669.553 269.419 668.743 269.611 668.027 269.994C667.32 270.378 666.761 270.94 666.352 271.682C665.952 272.415 665.751 273.301 665.751 274.341ZM685.298 293.364C684.727 293.364 684.207 293.317 683.739 293.223C683.27 293.138 682.92 293.044 682.69 292.942L683.611 289.81C684.31 289.997 684.932 290.078 685.477 290.053C686.023 290.027 686.504 289.822 686.922 289.439C687.348 289.055 687.723 288.429 688.047 287.56L688.52 286.256L681.335 266.364H685.426L690.399 281.602H690.604L695.577 266.364H699.68L691.588 288.621C691.213 289.643 690.736 290.509 690.156 291.216C689.577 291.932 688.886 292.469 688.085 292.827C687.284 293.185 686.355 293.364 685.298 293.364Z" fill="#666666"/>
<path d="M196.114 165.75H186.159C185.977 164.462 185.606 163.318 185.045 162.318C184.485 161.303 183.765 160.439 182.886 159.727C182.008 159.015 180.992 158.47 179.841 158.091C178.705 157.712 177.47 157.523 176.136 157.523C173.727 157.523 171.629 158.121 169.841 159.318C168.053 160.5 166.667 162.227 165.682 164.5C164.697 166.758 164.205 169.5 164.205 172.727C164.205 176.045 164.697 178.833 165.682 181.091C166.682 183.348 168.076 185.053 169.864 186.205C171.652 187.356 173.72 187.932 176.068 187.932C177.386 187.932 178.606 187.758 179.727 187.409C180.864 187.061 181.871 186.553 182.75 185.886C183.629 185.205 184.356 184.379 184.932 183.409C185.523 182.439 185.932 181.333 186.159 180.091L196.114 180.136C195.856 182.273 195.212 184.333 194.182 186.318C193.167 188.288 191.795 190.053 190.068 191.614C188.356 193.159 186.311 194.386 183.932 195.295C181.568 196.189 178.894 196.636 175.909 196.636C171.758 196.636 168.045 195.697 164.773 193.818C161.515 191.939 158.939 189.22 157.045 185.659C155.167 182.098 154.227 177.788 154.227 172.727C154.227 167.652 155.182 163.333 157.091 159.773C159 156.212 161.591 153.5 164.864 151.636C168.136 149.758 171.818 148.818 175.909 148.818C178.606 148.818 181.106 149.197 183.409 149.955C185.727 150.712 187.78 151.818 189.568 153.273C191.356 154.712 192.811 156.477 193.932 158.568C195.068 160.659 195.795 163.053 196.114 165.75ZM218.761 196.682C215.231 196.682 212.178 195.932 209.602 194.432C207.042 192.917 205.064 190.811 203.67 188.114C202.277 185.402 201.58 182.258 201.58 178.682C201.58 175.076 202.277 171.924 203.67 169.227C205.064 166.515 207.042 164.409 209.602 162.909C212.178 161.394 215.231 160.636 218.761 160.636C222.292 160.636 225.337 161.394 227.898 162.909C230.473 164.409 232.458 166.515 233.852 169.227C235.246 171.924 235.943 175.076 235.943 178.682C235.943 182.258 235.246 185.402 233.852 188.114C232.458 190.811 230.473 192.917 227.898 194.432C225.337 195.932 222.292 196.682 218.761 196.682ZM218.807 189.182C220.413 189.182 221.754 188.727 222.83 187.818C223.905 186.894 224.716 185.636 225.261 184.045C225.822 182.455 226.102 180.644 226.102 178.614C226.102 176.583 225.822 174.773 225.261 173.182C224.716 171.591 223.905 170.333 222.83 169.409C221.754 168.485 220.413 168.023 218.807 168.023C217.186 168.023 215.822 168.485 214.716 169.409C213.625 170.333 212.799 171.591 212.239 173.182C211.693 174.773 211.42 176.583 211.42 178.614C211.42 180.644 211.693 182.455 212.239 184.045C212.799 185.636 213.625 186.894 214.716 187.818C215.822 188.727 217.186 189.182 218.807 189.182ZM264.625 181.136V161.091H274.307V196H265.011V189.659H264.648C263.86 191.705 262.549 193.348 260.716 194.591C258.898 195.833 256.678 196.455 254.057 196.455C251.723 196.455 249.67 195.924 247.898 194.864C246.125 193.803 244.739 192.295 243.739 190.341C242.754 188.386 242.254 186.045 242.239 183.318V161.091H251.92V181.591C251.936 183.652 252.489 185.28 253.58 186.477C254.67 187.674 256.133 188.273 257.966 188.273C259.133 188.273 260.223 188.008 261.239 187.477C262.254 186.932 263.072 186.129 263.693 185.068C264.33 184.008 264.64 182.697 264.625 181.136ZM282.051 196V161.091H291.438V167.182H291.801C292.438 165.015 293.506 163.379 295.006 162.273C296.506 161.152 298.233 160.591 300.188 160.591C300.672 160.591 301.195 160.621 301.756 160.682C302.316 160.742 302.809 160.826 303.233 160.932V169.523C302.778 169.386 302.15 169.265 301.347 169.159C300.544 169.053 299.809 169 299.142 169C297.718 169 296.445 169.311 295.324 169.932C294.218 170.538 293.339 171.386 292.688 172.477C292.051 173.568 291.733 174.826 291.733 176.25V196H282.051ZM337.284 171.045L328.42 171.591C328.269 170.833 327.943 170.152 327.443 169.545C326.943 168.924 326.284 168.432 325.466 168.068C324.663 167.689 323.701 167.5 322.58 167.5C321.08 167.5 319.814 167.818 318.784 168.455C317.754 169.076 317.239 169.909 317.239 170.955C317.239 171.788 317.572 172.492 318.239 173.068C318.905 173.644 320.049 174.106 321.67 174.455L327.989 175.727C331.383 176.424 333.913 177.545 335.58 179.091C337.246 180.636 338.08 182.667 338.08 185.182C338.08 187.47 337.405 189.477 336.057 191.205C334.723 192.932 332.89 194.28 330.557 195.25C328.239 196.205 325.564 196.682 322.534 196.682C317.913 196.682 314.231 195.72 311.489 193.795C308.761 191.856 307.163 189.22 306.693 185.886L316.216 185.386C316.504 186.795 317.201 187.871 318.307 188.614C319.413 189.341 320.83 189.705 322.557 189.705C324.254 189.705 325.617 189.379 326.648 188.727C327.693 188.061 328.223 187.205 328.239 186.159C328.223 185.28 327.852 184.561 327.125 184C326.398 183.424 325.277 182.985 323.761 182.682L317.716 181.477C314.307 180.795 311.769 179.614 310.102 177.932C308.451 176.25 307.625 174.106 307.625 171.5C307.625 169.258 308.231 167.326 309.443 165.705C310.67 164.083 312.39 162.833 314.602 161.955C316.83 161.076 319.436 160.636 322.42 160.636C326.83 160.636 330.299 161.568 332.83 163.432C335.375 165.295 336.86 167.833 337.284 171.045ZM360.085 196.682C356.494 196.682 353.403 195.955 350.812 194.5C348.237 193.03 346.252 190.955 344.858 188.273C343.464 185.576 342.767 182.386 342.767 178.705C342.767 175.114 343.464 171.962 344.858 169.25C346.252 166.538 348.214 164.424 350.744 162.909C353.29 161.394 356.275 160.636 359.699 160.636C362.002 160.636 364.146 161.008 366.131 161.75C368.131 162.477 369.873 163.576 371.358 165.045C372.858 166.515 374.025 168.364 374.858 170.591C375.691 172.803 376.108 175.394 376.108 178.364V181.023H346.631V175.023H366.994C366.994 173.629 366.691 172.394 366.085 171.318C365.479 170.242 364.638 169.402 363.562 168.795C362.502 168.174 361.267 167.864 359.858 167.864C358.388 167.864 357.085 168.205 355.949 168.886C354.828 169.553 353.949 170.455 353.312 171.591C352.676 172.712 352.35 173.962 352.335 175.341V181.045C352.335 182.773 352.653 184.265 353.29 185.523C353.941 186.78 354.858 187.75 356.04 188.432C357.222 189.114 358.623 189.455 360.244 189.455C361.32 189.455 362.305 189.303 363.199 189C364.093 188.697 364.858 188.242 365.494 187.636C366.131 187.03 366.616 186.288 366.949 185.409L375.903 186C375.449 188.152 374.517 190.03 373.108 191.636C371.714 193.227 369.911 194.47 367.699 195.364C365.502 196.242 362.964 196.682 360.085 196.682Z" fill="#333333"/>
<path d="M243 58C243 48.0589 251.059 40 261 40C270.941 40 279 48.0589 279 58C279 67.9411 270.941 76 261 76C251.059 76 243 67.9411 243 58Z" fill="#333333"/>
<path d="M256.266 66V64.4091L261.188 59.3097C261.714 58.7557 262.147 58.2704 262.488 57.8537C262.834 57.4323 263.092 57.0322 263.262 56.6534C263.433 56.2746 263.518 55.8722 263.518 55.446C263.518 54.9631 263.404 54.5464 263.177 54.196C262.95 53.8409 262.639 53.5687 262.246 53.3793C261.853 53.1851 261.411 53.0881 260.918 53.0881C260.397 53.0881 259.943 53.1946 259.555 53.4077C259.166 53.6207 258.868 53.9214 258.66 54.3097C258.451 54.6979 258.347 55.1525 258.347 55.6733H256.252C256.252 54.7879 256.456 54.0137 256.863 53.3509C257.27 52.688 257.829 52.1742 258.539 51.8097C259.249 51.4403 260.057 51.2557 260.961 51.2557C261.875 51.2557 262.68 51.438 263.376 51.8026C264.076 52.1624 264.623 52.6548 265.016 53.2798C265.409 53.9001 265.606 54.6009 265.606 55.3821C265.606 55.9219 265.504 56.4498 265.3 56.9659C265.102 57.482 264.754 58.0573 264.256 58.6918C263.759 59.3215 263.068 60.0862 262.183 60.9858L259.292 64.0114V64.1179H265.84V66H256.266Z" fill="white"/>
<path d="M260 84C260 83.4477 260.448 83 261 83C261.552 83 262 83.4477 262 84H261H260ZM261.707 144.707C261.317 145.098 260.683 145.098 260.293 144.707L253.929 138.343C253.538 137.953 253.538 137.319 253.929 136.929C254.319 136.538 254.953 136.538 255.343 136.929L261 142.586L266.657 136.929C267.047 136.538 267.681 136.538 268.071 136.929C268.462 137.319 268.462 137.953 268.071 138.343L261.707 144.707ZM261 84H262V144H261H260V84H261Z" fill="#333333"/>
</g>
<defs>
<filter id="filter0_d_15283_31239" x="63" y="52" width="1022" height="818" filterUnits="userSpaceOnUse" color-interpolation-filters="sRGB">
<feFlood flood-opacity="0" result="BackgroundImageFix"/>
<feColorMatrix in="SourceAlpha" type="matrix" values="0 0 0 0 0 0 0 0 0 0 0 0 0 0 0 0 0 0 127 0" result="hardAlpha"/>
<feOffset dy="4"/>
<feGaussianBlur stdDeviation="4"/>
<feComposite in2="hardAlpha" operator="out"/>
<feColorMatrix type="matrix" values="0 0 0 0 0.2 0 0 0 0 0.2 0 0 0 0 0.2 0 0 0 0.16 0"/>
<feBlend mode="normal" in2="BackgroundImageFix" result="effect1_dropShadow_15283_31239"/>
<feBlend mode="normal" in="SourceGraphic" in2="effect1_dropShadow_15283_31239" result="shape"/>
</filter>
<clipPath id="clip0_15283_31239">
<rect width="345" height="320" fill="white" transform="scale(2)"/>
</clipPath>
</defs>
</svg>
