<svg width="690" height="640" viewBox="0 0 690 640" fill="none" xmlns="http://www.w3.org/2000/svg">
<g clip-path="url(#clip0_15283_31225)">
<rect width="345" height="320" transform="scale(2)" fill="#F6F6F6"/>
<g filter="url(#filter0_d_15283_31225)">
<rect x="-184" y="-176" width="1126" height="904" fill="white"/>
</g>
<path d="M67.7955 218.545L87.483 280.432H88.2386L107.966 218.545H127.057L98.9773 300H76.7841L48.6648 218.545H67.7955ZM136.543 300V238.909H153.486V300H136.543ZM145.054 231.034C142.535 231.034 140.374 230.199 138.571 228.528C136.795 226.831 135.906 224.803 135.906 222.443C135.906 220.11 136.795 218.108 138.571 216.438C140.374 214.741 142.535 213.892 145.054 213.892C147.573 213.892 149.721 214.741 151.497 216.438C153.3 218.108 154.202 220.11 154.202 222.443C154.202 224.803 153.3 226.831 151.497 228.528C149.721 230.199 147.573 231.034 145.054 231.034ZM194.899 301.193C188.615 301.193 183.206 299.92 178.672 297.375C174.164 294.803 170.691 291.17 168.251 286.477C165.812 281.758 164.592 276.176 164.592 269.733C164.592 263.449 165.812 257.934 168.251 253.188C170.691 248.441 174.125 244.742 178.553 242.091C183.007 239.439 188.231 238.114 194.223 238.114C198.253 238.114 202.005 238.763 205.479 240.062C208.979 241.335 212.028 243.258 214.626 245.83C217.251 248.402 219.293 251.636 220.751 255.534C222.21 259.405 222.939 263.939 222.939 269.136V273.79H171.354V263.29H206.99C206.99 260.85 206.46 258.689 205.399 256.807C204.339 254.924 202.867 253.453 200.984 252.392C199.128 251.305 196.967 250.761 194.501 250.761C191.929 250.761 189.649 251.358 187.661 252.551C185.698 253.718 184.161 255.295 183.047 257.284C181.933 259.246 181.363 261.434 181.337 263.847V273.83C181.337 276.852 181.893 279.464 183.007 281.665C184.147 283.866 185.751 285.562 187.82 286.756C189.888 287.949 192.34 288.545 195.178 288.545C197.06 288.545 198.784 288.28 200.348 287.75C201.912 287.22 203.251 286.424 204.365 285.364C205.479 284.303 206.327 283.004 206.911 281.466L222.581 282.5C221.786 286.265 220.155 289.553 217.689 292.364C215.25 295.148 212.094 297.322 208.223 298.886C204.378 300.424 199.937 301.193 194.899 301.193ZM245.609 300L228.984 238.909H246.126L255.592 279.955H256.149L266.013 238.909H282.837L292.859 279.716H293.376L302.683 238.909H319.786L303.2 300H285.263L274.763 261.58H274.007L263.507 300H245.609ZM329.142 300V218.545H361.756C367.748 218.545 372.746 219.434 376.75 221.21C380.754 222.987 383.763 225.453 385.778 228.608C387.794 231.737 388.801 235.343 388.801 239.426C388.801 242.608 388.165 245.405 386.892 247.818C385.619 250.205 383.869 252.167 381.642 253.705C379.441 255.216 376.922 256.29 374.085 256.926V257.722C377.188 257.854 380.091 258.729 382.795 260.347C385.527 261.964 387.741 264.231 389.438 267.148C391.134 270.038 391.983 273.485 391.983 277.489C391.983 281.811 390.909 285.669 388.761 289.062C386.64 292.43 383.498 295.095 379.335 297.057C375.172 299.019 370.042 300 363.943 300H329.142ZM346.364 285.92H360.403C365.203 285.92 368.703 285.006 370.903 283.176C373.104 281.32 374.205 278.854 374.205 275.778C374.205 273.525 373.661 271.536 372.574 269.812C371.487 268.089 369.936 266.737 367.92 265.756C365.932 264.775 363.559 264.284 360.801 264.284H346.364V285.92ZM346.364 252.631H359.131C361.491 252.631 363.585 252.22 365.415 251.398C367.271 250.549 368.729 249.356 369.79 247.818C370.877 246.28 371.42 244.438 371.42 242.29C371.42 239.347 370.373 236.973 368.278 235.17C366.21 233.367 363.267 232.466 359.449 232.466H346.364V252.631ZM430.473 301.193C424.295 301.193 418.952 299.881 414.445 297.256C409.964 294.604 406.503 290.919 404.064 286.199C401.625 281.453 400.405 275.951 400.405 269.693C400.405 263.383 401.625 257.867 404.064 253.148C406.503 248.402 409.964 244.716 414.445 242.091C418.952 239.439 424.295 238.114 430.473 238.114C436.651 238.114 441.981 239.439 446.462 242.091C450.969 244.716 454.443 248.402 456.882 253.148C459.321 257.867 460.541 263.383 460.541 269.693C460.541 275.951 459.321 281.453 456.882 286.199C454.443 290.919 450.969 294.604 446.462 297.256C441.981 299.881 436.651 301.193 430.473 301.193ZM430.553 288.068C433.363 288.068 435.71 287.273 437.592 285.682C439.475 284.064 440.893 281.864 441.848 279.08C442.829 276.295 443.32 273.127 443.32 269.574C443.32 266.021 442.829 262.852 441.848 260.068C440.893 257.284 439.475 255.083 437.592 253.466C435.71 251.848 433.363 251.04 430.553 251.04C427.715 251.04 425.329 251.848 423.393 253.466C421.484 255.083 420.039 257.284 419.058 260.068C418.104 262.852 417.626 266.021 417.626 269.574C417.626 273.127 418.104 276.295 419.058 279.08C420.039 281.864 421.484 284.064 423.393 285.682C425.329 287.273 427.715 288.068 430.553 288.068ZM488.979 301.153C485.081 301.153 481.607 300.477 478.558 299.125C475.509 297.746 473.096 295.718 471.32 293.04C469.57 290.335 468.695 286.968 468.695 282.938C468.695 279.544 469.318 276.693 470.564 274.386C471.81 272.08 473.507 270.223 475.655 268.818C477.803 267.413 480.242 266.352 482.973 265.636C485.731 264.92 488.621 264.417 491.643 264.125C495.196 263.754 498.06 263.409 500.234 263.091C502.409 262.746 503.986 262.242 504.967 261.58C505.948 260.917 506.439 259.936 506.439 258.636V258.398C506.439 255.879 505.643 253.93 504.053 252.551C502.488 251.172 500.261 250.483 497.371 250.483C494.321 250.483 491.895 251.159 490.092 252.511C488.289 253.837 487.096 255.508 486.513 257.523L470.842 256.25C471.638 252.538 473.202 249.33 475.536 246.625C477.869 243.894 480.878 241.799 484.564 240.341C488.276 238.856 492.571 238.114 497.45 238.114C500.844 238.114 504.092 238.511 507.195 239.307C510.323 240.102 513.094 241.335 515.507 243.006C517.946 244.676 519.869 246.824 521.274 249.449C522.679 252.047 523.382 255.163 523.382 258.795V300H507.314V291.528H506.837C505.856 293.438 504.543 295.121 502.899 296.58C501.255 298.011 499.28 299.138 496.973 299.96C494.666 300.756 492.001 301.153 488.979 301.153ZM493.831 289.46C496.323 289.46 498.524 288.97 500.433 287.989C502.342 286.981 503.84 285.629 504.928 283.932C506.015 282.235 506.558 280.312 506.558 278.165V271.682C506.028 272.027 505.299 272.345 504.371 272.636C503.469 272.902 502.448 273.153 501.308 273.392C500.168 273.604 499.028 273.803 497.888 273.989C496.748 274.148 495.714 274.294 494.786 274.426C492.797 274.718 491.06 275.182 489.575 275.818C488.09 276.455 486.937 277.316 486.115 278.403C485.293 279.464 484.882 280.79 484.882 282.381C484.882 284.688 485.717 286.451 487.388 287.67C489.085 288.864 491.232 289.46 493.831 289.46ZM536.527 300V238.909H552.953V249.568H553.589C554.703 245.777 556.572 242.913 559.197 240.977C561.822 239.015 564.845 238.034 568.266 238.034C569.114 238.034 570.029 238.087 571.01 238.193C571.991 238.299 572.853 238.445 573.595 238.631V253.665C572.8 253.426 571.699 253.214 570.294 253.028C568.889 252.843 567.603 252.75 566.436 252.75C563.944 252.75 561.716 253.294 559.754 254.381C557.819 255.441 556.281 256.926 555.141 258.835C554.027 260.744 553.47 262.945 553.47 265.438V300H536.527ZM602.023 300.994C597.383 300.994 593.18 299.801 589.415 297.415C585.676 295.002 582.706 291.462 580.506 286.795C578.331 282.102 577.244 276.348 577.244 269.534C577.244 262.534 578.371 256.714 580.625 252.074C582.879 247.407 585.875 243.92 589.614 241.614C593.379 239.28 597.502 238.114 601.983 238.114C605.403 238.114 608.254 238.697 610.534 239.864C612.841 241.004 614.697 242.436 616.102 244.159C617.534 245.856 618.621 247.527 619.364 249.17H619.881V218.545H636.784V300H620.08V290.216H619.364C618.568 291.913 617.441 293.597 615.983 295.267C614.551 296.911 612.682 298.277 610.375 299.364C608.095 300.451 605.311 300.994 602.023 300.994ZM607.392 287.511C610.123 287.511 612.43 286.769 614.312 285.284C616.222 283.773 617.68 281.665 618.688 278.96C619.722 276.256 620.239 273.087 620.239 269.455C620.239 265.822 619.735 262.667 618.727 259.989C617.72 257.311 616.261 255.242 614.352 253.784C612.443 252.326 610.123 251.597 607.392 251.597C604.608 251.597 602.261 252.352 600.352 253.864C598.443 255.375 596.998 257.47 596.017 260.148C595.036 262.826 594.545 265.928 594.545 269.455C594.545 273.008 595.036 276.15 596.017 278.881C597.025 281.585 598.47 283.706 600.352 285.244C602.261 286.756 604.608 287.511 607.392 287.511Z" fill="#333333"/>
<rect x="46" y="374" width="120" height="120" rx="12" fill="#EBEBEB"/>
<path d="M14.4947 546V530.727H17.3484V533.213H17.5373C17.8555 532.371 18.3758 531.715 19.0984 531.244C19.8209 530.767 20.686 530.528 21.6935 530.528C22.7144 530.528 23.5695 530.767 24.2589 531.244C24.9549 531.722 25.4686 532.378 25.8001 533.213H25.9592C26.3237 532.398 26.9038 531.748 27.6992 531.264C28.4947 530.774 29.4426 530.528 30.543 530.528C31.9284 530.528 33.0586 530.963 33.9336 531.831C34.8152 532.699 35.256 534.009 35.256 535.759V546H32.283V536.037C32.283 535.003 32.0013 534.254 31.4379 533.79C30.8744 533.326 30.2016 533.094 29.4194 533.094C28.4516 533.094 27.6992 533.392 27.1623 533.989C26.6254 534.579 26.3569 535.338 26.3569 536.266V546H23.3938V535.848C23.3938 535.019 23.1353 534.353 22.6183 533.849C22.1012 533.346 21.4284 533.094 20.5998 533.094C20.0363 533.094 19.516 533.243 19.0387 533.541C18.5681 533.833 18.1869 534.241 17.8952 534.764C17.6102 535.288 17.4677 535.894 17.4677 536.584V546H14.4947ZM40.5732 551.727C40.129 551.727 39.7247 551.691 39.3601 551.618C38.9955 551.552 38.7237 551.479 38.5447 551.399L39.2607 548.963C39.8042 549.109 40.2881 549.172 40.7124 549.152C41.1366 549.132 41.5111 548.973 41.8359 548.675C42.1674 548.376 42.459 547.889 42.7109 547.213L43.0788 546.199L37.4908 530.727H40.6726L44.5405 542.58H44.6996L48.5675 530.727H51.7592L45.4652 548.038C45.1735 548.834 44.8023 549.507 44.3516 550.057C43.9008 550.614 43.3639 551.031 42.7408 551.31C42.1177 551.588 41.3951 551.727 40.5732 551.727ZM56.5717 525.636L62.2393 542.222H62.468L68.1357 525.636H71.4567L64.1286 546H60.5788L53.2507 525.636H56.5717ZM74.1587 546V530.727H77.1317V546H74.1587ZM75.6602 528.371C75.1431 528.371 74.699 528.198 74.3278 527.854C73.9632 527.502 73.7809 527.085 73.7809 526.601C73.7809 526.11 73.9632 525.693 74.3278 525.348C74.699 524.997 75.1431 524.821 75.6602 524.821C76.1772 524.821 76.618 524.997 76.9826 525.348C77.3538 525.693 77.5394 526.11 77.5394 526.601C77.5394 527.085 77.3538 527.502 76.9826 527.854C76.618 528.198 76.1772 528.371 75.6602 528.371ZM87.7138 546.308C86.209 546.308 84.9131 545.987 83.826 545.344C82.7455 544.694 81.9103 543.783 81.3203 542.609C80.737 541.429 80.4453 540.047 80.4453 538.463C80.4453 536.899 80.737 535.52 81.3203 534.327C81.9103 533.134 82.7322 532.202 83.7862 531.533C84.8468 530.863 86.0864 530.528 87.505 530.528C88.3667 530.528 89.2019 530.671 90.0107 530.956C90.8194 531.241 91.5452 531.688 92.1882 532.298C92.8312 532.908 93.3383 533.7 93.7095 534.675C94.0807 535.643 94.2663 536.819 94.2663 538.205V539.259H82.1257V537.031H91.353C91.353 536.249 91.1939 535.556 90.8757 534.953C90.5575 534.343 90.1101 533.863 89.5334 533.511C88.9633 533.16 88.2938 532.984 87.5249 532.984C86.6896 532.984 85.9605 533.19 85.3374 533.601C84.7209 534.005 84.2436 534.536 83.9055 535.192C83.5741 535.841 83.4084 536.547 83.4084 537.31V539.05C83.4084 540.071 83.5874 540.939 83.9453 541.655C84.3099 542.371 84.817 542.918 85.4666 543.295C86.1162 543.667 86.8752 543.852 87.7436 543.852C88.3071 543.852 88.8208 543.773 89.2848 543.614C89.7488 543.448 90.1499 543.203 90.4879 542.878C90.826 542.553 91.0845 542.152 91.2635 541.675L94.0774 542.182C93.852 543.01 93.4477 543.736 92.8643 544.359C92.2876 544.976 91.5618 545.456 90.6868 545.801C89.8184 546.139 88.8274 546.308 87.7138 546.308ZM100.849 546L96.3544 530.727H99.4268L102.42 541.943H102.569L105.572 530.727H108.644L111.627 541.893H111.776L114.749 530.727H117.822L113.337 546H110.305L107.202 534.973H106.974L103.871 546H100.849ZM120.882 546V525.636H128.339C129.784 525.636 130.981 525.875 131.929 526.352C132.877 526.823 133.586 527.463 134.056 528.271C134.527 529.073 134.762 529.978 134.762 530.986C134.762 531.834 134.607 532.55 134.295 533.134C133.984 533.71 133.566 534.174 133.042 534.526C132.525 534.87 131.955 535.122 131.332 535.281V535.48C132.008 535.513 132.668 535.732 133.311 536.136C133.96 536.534 134.497 537.101 134.922 537.837C135.346 538.572 135.558 539.467 135.558 540.521C135.558 541.562 135.313 542.497 134.822 543.325C134.338 544.147 133.589 544.8 132.575 545.284C131.561 545.761 130.265 546 128.687 546H120.882ZM123.954 543.365H128.389C129.86 543.365 130.914 543.08 131.551 542.51C132.187 541.94 132.505 541.227 132.505 540.372C132.505 539.729 132.343 539.139 132.018 538.602C131.693 538.065 131.229 537.638 130.626 537.32C130.029 537.001 129.32 536.842 128.498 536.842H123.954V543.365ZM123.954 534.446H128.071C128.76 534.446 129.38 534.313 129.93 534.048C130.487 533.783 130.928 533.412 131.252 532.935C131.584 532.451 131.75 531.881 131.75 531.224C131.75 530.383 131.455 529.677 130.865 529.107C130.275 528.536 129.37 528.251 128.15 528.251H123.954V534.446ZM145.397 546.308C143.965 546.308 142.715 545.98 141.648 545.324C140.581 544.668 139.752 543.75 139.162 542.57C138.572 541.39 138.277 540.011 138.277 538.433C138.277 536.849 138.572 535.464 139.162 534.277C139.752 533.09 140.581 532.169 141.648 531.513C142.715 530.857 143.965 530.528 145.397 530.528C146.828 530.528 148.078 530.857 149.145 531.513C150.212 532.169 151.041 533.09 151.631 534.277C152.221 535.464 152.516 536.849 152.516 538.433C152.516 540.011 152.221 541.39 151.631 542.57C151.041 543.75 150.212 544.668 149.145 545.324C148.078 545.98 146.828 546.308 145.397 546.308ZM145.407 543.812C146.335 543.812 147.104 543.567 147.713 543.077C148.323 542.586 148.774 541.933 149.066 541.118C149.364 540.303 149.513 539.404 149.513 538.423C149.513 537.449 149.364 536.554 149.066 535.739C148.774 534.917 148.323 534.257 147.713 533.76C147.104 533.263 146.335 533.014 145.407 533.014C144.472 533.014 143.696 533.263 143.08 533.76C142.47 534.257 142.016 534.917 141.718 535.739C141.426 536.554 141.28 537.449 141.28 538.423C141.28 539.404 141.426 540.303 141.718 541.118C142.016 541.933 142.47 542.586 143.08 543.077C143.696 543.567 144.472 543.812 145.407 543.812ZM160.279 546.338C159.311 546.338 158.436 546.159 157.654 545.801C156.872 545.437 156.252 544.91 155.795 544.22C155.344 543.531 155.119 542.686 155.119 541.685C155.119 540.823 155.284 540.114 155.616 539.557C155.947 539 156.395 538.559 156.958 538.234C157.522 537.91 158.151 537.664 158.847 537.499C159.543 537.333 160.253 537.207 160.975 537.121C161.89 537.015 162.632 536.929 163.202 536.862C163.772 536.789 164.187 536.673 164.445 536.514C164.704 536.355 164.833 536.097 164.833 535.739V535.669C164.833 534.801 164.588 534.128 164.097 533.651C163.613 533.173 162.891 532.935 161.93 532.935C160.929 532.935 160.14 533.157 159.563 533.601C158.993 534.038 158.599 534.526 158.38 535.062L155.586 534.426C155.917 533.498 156.401 532.749 157.038 532.179C157.681 531.602 158.42 531.185 159.255 530.926C160.09 530.661 160.969 530.528 161.89 530.528C162.5 530.528 163.146 530.601 163.829 530.747C164.518 530.886 165.161 531.145 165.758 531.523C166.361 531.901 166.855 532.441 167.239 533.143C167.624 533.839 167.816 534.744 167.816 535.858V546H164.913V543.912H164.793C164.601 544.296 164.313 544.674 163.928 545.045C163.544 545.417 163.05 545.725 162.447 545.97C161.844 546.215 161.121 546.338 160.279 546.338ZM160.925 543.952C161.747 543.952 162.45 543.789 163.033 543.464C163.623 543.14 164.071 542.715 164.376 542.192C164.687 541.661 164.843 541.095 164.843 540.491V538.523C164.737 538.629 164.531 538.728 164.227 538.821C163.928 538.907 163.587 538.983 163.202 539.05C162.818 539.109 162.443 539.166 162.079 539.219C161.714 539.265 161.409 539.305 161.164 539.338C160.587 539.411 160.06 539.534 159.583 539.706C159.112 539.878 158.735 540.127 158.45 540.452C158.171 540.77 158.032 541.194 158.032 541.724C158.032 542.46 158.304 543.017 158.847 543.395C159.391 543.766 160.084 543.952 160.925 543.952ZM171.776 546V530.727H174.65V533.153H174.809C175.087 532.331 175.578 531.685 176.28 531.214C176.989 530.737 177.792 530.499 178.686 530.499C178.872 530.499 179.091 530.505 179.343 530.518C179.601 530.532 179.803 530.548 179.949 530.568V533.412C179.83 533.379 179.618 533.342 179.313 533.303C179.008 533.256 178.703 533.233 178.398 533.233C177.695 533.233 177.069 533.382 176.519 533.68C175.975 533.972 175.544 534.38 175.226 534.903C174.908 535.42 174.749 536.01 174.749 536.673V546H171.776ZM187.692 546.298C186.46 546.298 185.359 545.983 184.391 545.354C183.43 544.717 182.674 543.812 182.124 542.639C181.581 541.459 181.309 540.044 181.309 538.393C181.309 536.743 181.584 535.331 182.134 534.158C182.691 532.984 183.453 532.086 184.421 531.463C185.389 530.84 186.486 530.528 187.712 530.528C188.66 530.528 189.423 530.688 189.999 531.006C190.583 531.317 191.033 531.682 191.352 532.099C191.676 532.517 191.928 532.885 192.107 533.203H192.286V525.636H195.259V546H192.356V543.624H192.107C191.928 543.948 191.67 544.32 191.332 544.737C191 545.155 190.543 545.519 189.96 545.831C189.376 546.143 188.621 546.298 187.692 546.298ZM188.349 543.763C189.204 543.763 189.926 543.537 190.516 543.087C191.113 542.629 191.564 541.996 191.869 541.188C192.18 540.379 192.336 539.437 192.336 538.364C192.336 537.303 192.183 536.375 191.879 535.58C191.574 534.784 191.126 534.164 190.536 533.72C189.946 533.276 189.217 533.054 188.349 533.054C187.454 533.054 186.708 533.286 186.112 533.75C185.515 534.214 185.064 534.847 184.759 535.649C184.461 536.451 184.312 537.356 184.312 538.364C184.312 539.384 184.464 540.303 184.769 541.118C185.074 541.933 185.525 542.58 186.121 543.057C186.725 543.527 187.467 543.763 188.349 543.763Z" fill="#333333"/>
<rect x="286" y="374" width="120" height="120" rx="12" fill="#EBEBEB"/>
<path d="M297.977 552H294.716L302.044 531.636H305.593L312.922 552H309.66L303.903 535.335H303.744L297.977 552ZM298.524 544.026H309.103V546.611H298.524V544.026ZM315.76 552V536.727H318.733V552H315.76ZM317.262 534.371C316.745 534.371 316.301 534.198 315.929 533.854C315.565 533.502 315.382 533.085 315.382 532.601C315.382 532.11 315.565 531.693 315.929 531.348C316.301 530.997 316.745 530.821 317.262 530.821C317.779 530.821 318.22 530.997 318.584 531.348C318.955 531.693 319.141 532.11 319.141 532.601C319.141 533.085 318.955 533.502 318.584 533.854C318.22 534.198 317.779 534.371 317.262 534.371ZM322.733 552V536.727H325.607V539.153H325.766C326.044 538.331 326.535 537.685 327.237 537.214C327.946 536.737 328.749 536.499 329.643 536.499C329.829 536.499 330.048 536.505 330.3 536.518C330.558 536.532 330.76 536.548 330.906 536.568V539.412C330.787 539.379 330.575 539.342 330.27 539.303C329.965 539.256 329.66 539.233 329.355 539.233C328.652 539.233 328.026 539.382 327.476 539.68C326.932 539.972 326.501 540.38 326.183 540.903C325.865 541.42 325.706 542.01 325.706 542.673V552H322.733ZM344.824 536.986C344.718 536.045 344.281 535.315 343.512 534.798C342.743 534.275 341.775 534.013 340.608 534.013C339.773 534.013 339.051 534.145 338.441 534.411C337.831 534.669 337.357 535.027 337.019 535.484C336.687 535.935 336.522 536.449 336.522 537.026C336.522 537.509 336.634 537.927 336.86 538.278C337.092 538.63 337.393 538.925 337.765 539.163C338.142 539.395 338.547 539.591 338.978 539.75C339.408 539.902 339.823 540.028 340.221 540.128L342.209 540.645C342.859 540.804 343.525 541.019 344.208 541.291C344.891 541.563 345.524 541.921 346.107 542.365C346.69 542.809 347.161 543.359 347.519 544.016C347.883 544.672 348.066 545.457 348.066 546.372C348.066 547.526 347.767 548.55 347.171 549.445C346.581 550.339 345.722 551.045 344.596 551.562C343.475 552.08 342.12 552.338 340.529 552.338C339.004 552.338 337.685 552.096 336.571 551.612C335.458 551.128 334.586 550.442 333.956 549.554C333.327 548.659 332.979 547.598 332.912 546.372H335.995C336.054 547.108 336.293 547.721 336.711 548.212C337.135 548.696 337.675 549.057 338.331 549.295C338.994 549.527 339.72 549.643 340.509 549.643C341.377 549.643 342.15 549.508 342.826 549.236C343.508 548.957 344.045 548.573 344.436 548.082C344.828 547.585 345.023 547.005 345.023 546.342C345.023 545.739 344.851 545.245 344.506 544.861C344.168 544.476 343.707 544.158 343.124 543.906C342.547 543.654 341.894 543.432 341.165 543.24L338.759 542.584C337.128 542.14 335.836 541.487 334.881 540.625C333.933 539.763 333.459 538.623 333.459 537.205C333.459 536.031 333.777 535.007 334.414 534.132C335.05 533.257 335.912 532.578 336.999 532.094C338.086 531.603 339.312 531.358 340.678 531.358C342.057 531.358 343.273 531.6 344.327 532.084C345.388 532.568 346.223 533.234 346.833 534.082C347.443 534.924 347.761 535.892 347.787 536.986H344.824ZM353.378 557.727C352.934 557.727 352.529 557.691 352.165 557.618C351.8 557.552 351.528 557.479 351.349 557.399L352.065 554.963C352.609 555.109 353.093 555.172 353.517 555.152C353.941 555.132 354.316 554.973 354.641 554.675C354.972 554.376 355.264 553.889 355.516 553.213L355.884 552.199L350.295 536.727H353.477L357.345 548.58H357.504L361.372 536.727H364.564L358.27 554.038C357.978 554.834 357.607 555.507 357.156 556.057C356.705 556.614 356.169 557.031 355.545 557.31C354.922 557.588 354.2 557.727 353.378 557.727ZM370.331 542.932V552H367.358V536.727H370.212V539.213H370.401C370.752 538.404 371.302 537.755 372.051 537.264C372.807 536.774 373.758 536.528 374.905 536.528C375.946 536.528 376.857 536.747 377.639 537.185C378.421 537.616 379.028 538.259 379.459 539.114C379.89 539.969 380.105 541.026 380.105 542.286V552H377.132V542.643C377.132 541.536 376.844 540.671 376.267 540.048C375.69 539.419 374.898 539.104 373.891 539.104C373.201 539.104 372.588 539.253 372.051 539.551C371.521 539.849 371.1 540.287 370.788 540.864C370.483 541.434 370.331 542.123 370.331 542.932ZM390.526 552.308C389.047 552.308 387.775 551.973 386.707 551.304C385.647 550.628 384.831 549.696 384.261 548.51C383.691 547.323 383.406 545.964 383.406 544.433C383.406 542.882 383.698 541.513 384.281 540.327C384.865 539.134 385.687 538.202 386.747 537.533C387.808 536.863 389.057 536.528 390.496 536.528C391.656 536.528 392.69 536.744 393.598 537.175C394.506 537.599 395.239 538.196 395.795 538.964C396.359 539.733 396.694 540.632 396.8 541.659H393.906C393.747 540.943 393.383 540.327 392.812 539.81C392.249 539.293 391.493 539.034 390.545 539.034C389.717 539.034 388.991 539.253 388.368 539.69C387.751 540.121 387.271 540.738 386.926 541.54C386.581 542.335 386.409 543.277 386.409 544.364C386.409 545.477 386.578 546.438 386.916 547.247C387.254 548.056 387.732 548.682 388.348 549.126C388.971 549.571 389.704 549.793 390.545 549.793C391.109 549.793 391.619 549.69 392.077 549.484C392.541 549.272 392.929 548.971 393.24 548.58C393.558 548.188 393.78 547.718 393.906 547.168H396.8C396.694 548.155 396.372 549.037 395.835 549.812C395.298 550.588 394.579 551.198 393.678 551.642C392.783 552.086 391.732 552.308 390.526 552.308Z" fill="#333333"/>
<rect x="526" y="374" width="120" height="120" rx="12" fill="#EBEBEB"/>
<path d="M529.134 531.636H532.862L539.345 547.466H539.584L546.067 531.636H549.796V552H546.872V537.264H546.683L540.678 551.97H538.252L532.246 537.254H532.057V552H529.134V531.636ZM558.469 552.338C557.501 552.338 556.626 552.159 555.844 551.801C555.061 551.437 554.442 550.91 553.984 550.22C553.533 549.531 553.308 548.686 553.308 547.685C553.308 546.823 553.474 546.114 553.805 545.557C554.137 545 554.584 544.559 555.148 544.234C555.711 543.91 556.341 543.664 557.037 543.499C557.733 543.333 558.442 543.207 559.165 543.121C560.079 543.015 560.822 542.929 561.392 542.862C561.962 542.789 562.376 542.673 562.635 542.514C562.893 542.355 563.023 542.097 563.023 541.739V541.669C563.023 540.801 562.777 540.128 562.287 539.651C561.803 539.173 561.08 538.935 560.119 538.935C559.118 538.935 558.329 539.157 557.753 539.601C557.183 540.038 556.788 540.526 556.569 541.062L553.775 540.426C554.107 539.498 554.591 538.749 555.227 538.179C555.87 537.602 556.609 537.185 557.444 536.926C558.28 536.661 559.158 536.528 560.079 536.528C560.689 536.528 561.336 536.601 562.018 536.747C562.708 536.886 563.351 537.145 563.947 537.523C564.55 537.901 565.044 538.441 565.429 539.143C565.813 539.839 566.006 540.744 566.006 541.858V552H563.102V549.912H562.983C562.791 550.296 562.502 550.674 562.118 551.045C561.733 551.417 561.239 551.725 560.636 551.97C560.033 552.215 559.31 552.338 558.469 552.338ZM559.115 549.952C559.937 549.952 560.64 549.789 561.223 549.464C561.813 549.14 562.26 548.715 562.565 548.192C562.877 547.661 563.032 547.095 563.032 546.491V544.523C562.926 544.629 562.721 544.728 562.416 544.821C562.118 544.907 561.776 544.983 561.392 545.05C561.007 545.109 560.633 545.166 560.268 545.219C559.904 545.265 559.599 545.305 559.354 545.338C558.777 545.411 558.25 545.534 557.773 545.706C557.302 545.878 556.924 546.127 556.639 546.452C556.361 546.77 556.221 547.194 556.221 547.724C556.221 548.46 556.493 549.017 557.037 549.395C557.58 549.766 558.273 549.952 559.115 549.952ZM572.938 542.932V552H569.965V536.727H572.819V539.213H573.008C573.359 538.404 573.91 537.755 574.659 537.264C575.414 536.774 576.365 536.528 577.512 536.528C578.553 536.528 579.464 536.747 580.247 537.185C581.029 537.616 581.635 538.259 582.066 539.114C582.497 539.969 582.713 541.026 582.713 542.286V552H579.74V542.643C579.74 541.536 579.451 540.671 578.874 540.048C578.298 539.419 577.506 539.104 576.498 539.104C575.809 539.104 575.195 539.253 574.659 539.551C574.128 539.849 573.707 540.287 573.396 540.864C573.091 541.434 572.938 542.123 572.938 542.932ZM591.144 552.338C590.177 552.338 589.302 552.159 588.519 551.801C587.737 551.437 587.117 550.91 586.66 550.22C586.209 549.531 585.984 548.686 585.984 547.685C585.984 546.823 586.15 546.114 586.481 545.557C586.812 545 587.26 544.559 587.823 544.234C588.387 543.91 589.017 543.664 589.713 543.499C590.409 543.333 591.118 543.207 591.84 543.121C592.755 543.015 593.498 542.929 594.068 542.862C594.638 542.789 595.052 542.673 595.311 542.514C595.569 542.355 595.698 542.097 595.698 541.739V541.669C595.698 540.801 595.453 540.128 594.963 539.651C594.479 539.173 593.756 538.935 592.795 538.935C591.794 538.935 591.005 539.157 590.428 539.601C589.858 540.038 589.464 540.526 589.245 541.062L586.451 540.426C586.783 539.498 587.267 538.749 587.903 538.179C588.546 537.602 589.285 537.185 590.12 536.926C590.955 536.661 591.834 536.528 592.755 536.528C593.365 536.528 594.011 536.601 594.694 536.747C595.383 536.886 596.026 537.145 596.623 537.523C597.226 537.901 597.72 538.441 598.105 539.143C598.489 539.839 598.681 540.744 598.681 541.858V552H595.778V549.912H595.659C595.466 550.296 595.178 550.674 594.794 551.045C594.409 551.417 593.915 551.725 593.312 551.97C592.709 552.215 591.986 552.338 591.144 552.338ZM591.791 549.952C592.613 549.952 593.315 549.789 593.899 549.464C594.489 549.14 594.936 548.715 595.241 548.192C595.552 547.661 595.708 547.095 595.708 546.491V544.523C595.602 544.629 595.397 544.728 595.092 544.821C594.794 544.907 594.452 544.983 594.068 545.05C593.683 545.109 593.309 545.166 592.944 545.219C592.579 545.265 592.275 545.305 592.029 545.338C591.453 545.411 590.926 545.534 590.448 545.706C589.978 545.878 589.6 546.127 589.315 546.452C589.036 546.77 588.897 547.194 588.897 547.724C588.897 548.46 589.169 549.017 589.713 549.395C590.256 549.766 590.949 549.952 591.791 549.952ZM609.045 558.045C607.831 558.045 606.787 557.886 605.912 557.568C605.044 557.25 604.335 556.829 603.785 556.305C603.234 555.782 602.823 555.208 602.552 554.585L605.107 553.531C605.286 553.823 605.525 554.131 605.823 554.456C606.128 554.787 606.539 555.069 607.056 555.301C607.58 555.533 608.252 555.649 609.074 555.649C610.201 555.649 611.133 555.374 611.868 554.824C612.604 554.28 612.972 553.412 612.972 552.219V549.216H612.783C612.604 549.541 612.346 549.902 612.008 550.3C611.676 550.697 611.219 551.042 610.635 551.334C610.052 551.625 609.293 551.771 608.358 551.771C607.152 551.771 606.065 551.49 605.097 550.926C604.136 550.356 603.374 549.518 602.81 548.411C602.253 547.297 601.975 545.928 601.975 544.304C601.975 542.68 602.25 541.288 602.8 540.128C603.357 538.968 604.119 538.08 605.087 537.463C606.055 536.84 607.152 536.528 608.378 536.528C609.326 536.528 610.092 536.688 610.675 537.006C611.259 537.317 611.713 537.682 612.037 538.099C612.369 538.517 612.624 538.885 612.803 539.203H613.022V536.727H615.935V552.338C615.935 553.651 615.63 554.728 615.02 555.57C614.411 556.411 613.585 557.035 612.545 557.439C611.51 557.843 610.344 558.045 609.045 558.045ZM609.015 549.305C609.87 549.305 610.592 549.107 611.182 548.709C611.779 548.304 612.23 547.728 612.535 546.979C612.846 546.223 613.002 545.318 613.002 544.264C613.002 543.237 612.849 542.332 612.545 541.55C612.24 540.768 611.792 540.158 611.202 539.72C610.612 539.276 609.883 539.054 609.015 539.054C608.12 539.054 607.374 539.286 606.778 539.75C606.181 540.207 605.73 540.83 605.425 541.619C605.127 542.408 604.978 543.29 604.978 544.264C604.978 545.265 605.13 546.143 605.435 546.899C605.74 547.655 606.191 548.245 606.787 548.669C607.391 549.093 608.133 549.305 609.015 549.305ZM626.505 552.308C625 552.308 623.704 551.987 622.617 551.344C621.537 550.694 620.701 549.783 620.111 548.609C619.528 547.429 619.236 546.047 619.236 544.463C619.236 542.899 619.528 541.52 620.111 540.327C620.701 539.134 621.523 538.202 622.577 537.533C623.638 536.863 624.877 536.528 626.296 536.528C627.158 536.528 627.993 536.671 628.802 536.956C629.61 537.241 630.336 537.688 630.979 538.298C631.622 538.908 632.129 539.7 632.501 540.675C632.872 541.643 633.057 542.819 633.057 544.205V545.259H620.917V543.031H630.144C630.144 542.249 629.985 541.556 629.667 540.953C629.349 540.343 628.901 539.863 628.324 539.511C627.754 539.16 627.085 538.984 626.316 538.984C625.481 538.984 624.751 539.19 624.128 539.601C623.512 540.005 623.035 540.536 622.697 541.192C622.365 541.841 622.199 542.547 622.199 543.31V545.05C622.199 546.071 622.378 546.939 622.736 547.655C623.101 548.371 623.608 548.918 624.258 549.295C624.907 549.667 625.666 549.852 626.535 549.852C627.098 549.852 627.612 549.773 628.076 549.614C628.54 549.448 628.941 549.203 629.279 548.878C629.617 548.553 629.876 548.152 630.055 547.675L632.868 548.182C632.643 549.01 632.239 549.736 631.655 550.359C631.079 550.976 630.353 551.456 629.478 551.801C628.609 552.139 627.618 552.308 626.505 552.308ZM636.356 552V536.727H639.23V539.153H639.389C639.667 538.331 640.158 537.685 640.86 537.214C641.57 536.737 642.372 536.499 643.267 536.499C643.452 536.499 643.671 536.505 643.923 536.518C644.181 536.532 644.383 536.548 644.529 536.568V539.412C644.41 539.379 644.198 539.342 643.893 539.303C643.588 539.256 643.283 539.233 642.978 539.233C642.276 539.233 641.649 539.382 641.099 539.68C640.555 539.972 640.124 540.38 639.806 540.903C639.488 541.42 639.329 542.01 639.329 542.673V552H636.356Z" fill="#333333"/>
<path d="M328 78C328 68.0589 336.059 60 346 60C355.941 60 364 68.0589 364 78C364 87.9411 355.941 96 346 96C336.059 96 328 87.9411 328 78Z" fill="#333333"/>
<path d="M348.191 71.4545V86H345.989V73.6562H345.904L342.424 75.929V73.8267L346.053 71.4545H348.191Z" fill="white"/>
<path d="M345 104C345 103.448 345.448 103 346 103C346.552 103 347 103.448 347 104H346H345ZM346.707 184.707C346.317 185.098 345.683 185.098 345.293 184.707L338.929 178.343C338.538 177.953 338.538 177.319 338.929 176.929C339.319 176.538 339.953 176.538 340.343 176.929L346 182.586L351.657 176.929C352.047 176.538 352.681 176.538 353.071 176.929C353.462 177.319 353.462 177.953 353.071 178.343L346.707 184.707ZM346 104H347V184H346H345V104H346Z" fill="#333333"/>
</g>
<defs>
<filter id="filter0_d_15283_31225" x="-200" y="-184" width="1158" height="936" filterUnits="userSpaceOnUse" color-interpolation-filters="sRGB">
<feFlood flood-opacity="0" result="BackgroundImageFix"/>
<feColorMatrix in="SourceAlpha" type="matrix" values="0 0 0 0 0 0 0 0 0 0 0 0 0 0 0 0 0 0 127 0" result="hardAlpha"/>
<feOffset dy="4"/>
<feGaussianBlur stdDeviation="4"/>
<feComposite in2="hardAlpha" operator="out"/>
<feColorMatrix type="matrix" values="0 0 0 0 0.2 0 0 0 0 0.2 0 0 0 0 0.2 0 0 0 0.16 0"/>
<feBlend mode="normal" in2="BackgroundImageFix" result="effect1_dropShadow_15283_31225"/>
<feBlend mode="normal" in="SourceGraphic" in2="effect1_dropShadow_15283_31225" result="shape"/>
</filter>
<clipPath id="clip0_15283_31225">
<rect width="345" height="320" fill="white" transform="scale(2)"/>
</clipPath>
</defs>
</svg>
