<svg width="175" height="50" viewBox="0 0 175 50" fill="none" xmlns="http://www.w3.org/2000/svg">
<path fill-rule="evenodd" clip-rule="evenodd" d="M39.4381 3.66678C39.1492 2.48572 38.1891 0.538129 36.2986 0.538129C35.4675 0.538129 34.583 1.04653 34.583 2.14313C34.583 3.05357 34.8911 3.42588 36.229 4.13452L38.5995 5.36721C39.1358 5.66372 39.5847 6.11019 39.8969 6.65783C40.2091 7.20546 40.3728 7.83319 40.37 8.47239C40.37 9.95694 39.3329 12 36.3831 12C35.401 12.004 34.7507 11.7678 34.2808 11.5972C34.0163 11.5011 33.8089 11.4258 33.6318 11.4258C33.294 11.4258 33.2125 11.7293 33.1503 12H32.6954V7.83728H33.1503C33.4673 9.54865 34.3992 11.4477 36.4468 11.4477C38.3728 11.4477 38.4499 9.77861 38.4499 9.55804C38.4499 8.42703 37.6958 8.02343 36.6542 7.49938L35.5801 6.95969C32.8451 5.57526 32.8451 4.12357 32.8451 3.34766C32.8451 2.31677 33.3414 0.0172077 36.3742 0.0172077C37.1741 0.0172077 37.7678 0.23547 38.215 0.399857C38.4851 0.499158 38.7017 0.578801 38.8781 0.578801C39.2484 0.578801 39.3225 0.323816 39.4085 0H39.8885V3.66678H39.4381ZM10.5535 11.6871H14.3789L14.3848 11.2882C13.7596 11.2193 13.6307 10.847 13.6307 10.3214V3.87795H10.5535V4.27842C11.1639 4.39731 11.4054 4.51464 11.4054 5.27959V10.2698C11.4054 11.0593 11.1495 11.1281 10.6069 11.2738L10.5535 11.2882V11.6871ZM12.9713 0.117119C12.8217 0.050732 12.6611 0.0162414 12.4988 0.0156307C12.3349 0.0141785 12.1725 0.0471004 12.0208 0.112486C11.8691 0.177871 11.7312 0.274417 11.6152 0.396519C11.4991 0.518621 11.4072 0.663847 11.3447 0.823767C11.2823 0.983687 11.2505 1.15512 11.2513 1.3281C11.2513 1.67453 11.3816 2.00677 11.6136 2.25173C11.8456 2.4967 12.1603 2.63431 12.4884 2.63431C12.8165 2.63431 13.1312 2.4967 13.3632 2.25173C13.5952 2.00677 13.7255 1.67453 13.7255 1.3281C13.7271 1.15673 13.6965 0.986729 13.6356 0.82787C13.5748 0.669012 13.4847 0.524434 13.3707 0.402456C13.2567 0.280478 13.121 0.183505 12.9713 0.117119ZM9.53545 2.06493C9.88659 1.12008 10.097 0.797829 10.9756 0.67894L10.9711 0.256572H7.56347V0.674247C8.47612 0.730563 8.94282 0.797829 8.94282 1.45641C8.94282 1.78408 8.77981 2.20884 8.63484 2.5866L8.62132 2.62183L6.58711 8.17989L4.48623 2.8424C4.45065 2.74763 4.40687 2.63843 4.36036 2.52243C4.1996 2.12146 4.00619 1.63908 4.00619 1.38914C4.00619 0.771719 4.34945 0.748665 5.2765 0.686399L5.38703 0.67894V0.256572H0V0.67894C0.688935 0.797829 0.928951 0.849452 1.34676 1.86157L5.44777 11.9812H5.88188L9.53545 2.06493ZM16.942 6.91598C16.942 4.56949 17.4843 4.19718 18.0798 4.19718C18.6384 4.19718 18.8473 4.62111 18.9421 4.99498C19.0515 5.4253 19.0691 6.11529 19.0824 6.63678C19.085 6.7371 19.0874 6.83118 19.0903 6.91598H16.942ZM20.7511 9.57533C20.4548 9.96485 19.8859 10.7126 18.9421 10.7126C17.422 10.7126 17.0694 8.98089 17.0161 7.53858H21.0504C21.0015 6.63596 20.7941 3.67469 18.0073 3.67469C16.1686 3.67469 14.7137 5.27656 14.7137 7.77636C14.7137 10.6782 16.3434 11.9343 17.9598 11.9343C19.2414 11.9343 20.1526 11.39 21.1304 9.81311L20.7511 9.57533ZM32.3098 4.283L32.3295 4.27856L32.3324 3.8781H30.1664V4.28169L30.1665 4.2817C30.6168 4.33019 30.9368 4.36464 30.9368 4.90742C30.9368 5.14873 30.5932 6.08197 30.2333 7.0598C30.0379 7.59069 29.8376 8.13471 29.6848 8.58828H29.6537C29.5226 7.98738 29.3126 7.20425 29.1224 6.49502L29.1223 6.4946L29.1222 6.49421L29.1221 6.49408L29.1221 6.49406L29.1221 6.49399C28.8935 5.64167 28.6937 4.89628 28.6937 4.7025C28.6937 4.34739 29.0433 4.31454 29.4626 4.27856V3.8781H25.7098V4.27231C25.7339 4.27553 25.7572 4.27855 25.7797 4.28147C26.118 4.32532 26.2791 4.3462 26.418 4.6806C26.4965 4.88552 26.5943 5.22185 26.7558 5.79909L25.6624 8.70092C25.3888 7.92731 25.1453 7.26759 24.9431 6.72001L24.9431 6.71992L24.9431 6.71989L24.9431 6.71984C24.553 5.66307 24.3171 5.024 24.3171 4.7901C24.3171 4.3723 24.6602 4.31954 24.8868 4.28468C24.9003 4.2826 24.9134 4.28059 24.926 4.27856V3.8781H21.3702V4.27856C21.7865 4.3646 21.8665 4.48193 22.2829 5.58634L24.6534 11.9281H25.0386L26.9913 6.79087H27.0713L28.6714 11.9281H29.0389L31.5264 5.12799C31.7931 4.39952 32.0159 4.34929 32.3098 4.283ZM44.6355 4.19708C43.4458 4.19708 43.3658 5.87248 43.3658 7.80598C43.3658 9.63625 43.3658 11.3977 44.6518 11.4039C45.7601 11.4039 45.8904 9.95693 45.8904 7.80598C45.8904 5.19669 45.6163 4.19708 44.6355 4.19708ZM44.6355 11.9264C42.4087 11.9264 41.0175 10.007 41.0175 7.80598C41.0175 5.62062 42.4087 3.66678 44.6355 3.66678C46.7364 3.66678 48.2373 5.45949 48.2373 7.80598C48.2373 10.0602 46.8149 11.9264 44.6355 11.9264ZM56.8291 11.6871H53.0673V11.2882C53.5992 11.2366 53.8229 10.9503 53.8229 10.3214V6.21663C53.8229 5.74733 53.8081 4.80873 52.934 4.80873C52.2895 4.80873 51.6006 5.63939 51.6006 5.7927V10.3214C51.6006 10.7109 51.648 11.2037 52.3873 11.2882V11.6871H48.5352V11.2882C49.113 11.1693 49.3856 11.1005 49.3856 10.2698V5.2796C49.3856 4.51464 49.1752 4.38324 48.5352 4.27843V3.87796H51.5902V5.0997H51.6228C51.8489 4.66829 52.1797 4.30819 52.5812 4.05637C52.9827 3.80455 53.4404 3.67008 53.9074 3.66678C54.786 3.66678 56.0498 4.19708 56.0498 6.0602V10.3214C56.0498 10.7281 56.0498 11.26 56.8335 11.2882L56.8291 11.6871ZM57.2523 11.6872H61.0777V11.2883C60.454 11.2195 60.3236 10.8472 60.3236 10.3215V3.87808H57.2523V4.27855C57.8627 4.39744 58.1027 4.51476 58.1027 5.27972V10.2699C58.1027 11.0593 57.847 11.1281 57.3059 11.2738L57.2523 11.2883V11.6872ZM59.6693 0.116768C59.5194 0.0504924 59.3586 0.0161639 59.1961 0.0157575C59.0326 0.0147194 58.8705 0.0479587 58.7192 0.113549C58.568 0.179139 58.4306 0.275775 58.3149 0.397857C58.1993 0.519938 58.1078 0.665036 58.0457 0.824741C57.9835 0.984446 57.9521 1.15558 57.9531 1.32823C57.9641 1.66663 58.0993 1.98726 58.3299 2.22251C58.5606 2.45776 58.8687 2.58924 59.1894 2.58924C59.5101 2.58924 59.8183 2.45776 60.0489 2.22251C60.2796 1.98726 60.4147 1.66663 60.4258 1.32823C60.4272 1.15665 60.3964 0.986487 60.3353 0.827517C60.2741 0.668548 60.1838 0.523914 60.0695 0.401936C59.9552 0.279958 59.8192 0.183043 59.6693 0.116768ZM67.9011 10.1431C67.1603 11.2381 66.1055 11.9264 64.8461 11.9264C62.803 11.9264 61.4222 10.1243 61.4222 8.03907C61.4222 4.70705 63.7038 3.66678 65.1943 3.66678C66.3307 3.66678 67.6759 4.29251 67.6759 5.51737C67.6759 6.60145 66.7129 6.60145 66.5855 6.60145C65.6877 6.60145 65.6877 5.77079 65.6877 4.85723C65.6886 4.76786 65.6721 4.67924 65.6394 4.59684C65.6066 4.51444 65.5582 4.44001 65.4971 4.37814C65.436 4.31628 65.3635 4.26829 65.2842 4.23715C65.2048 4.20601 65.1203 4.19237 65.0358 4.19708C63.8001 4.19708 63.689 6.2792 63.689 7.04103C63.689 9.41411 64.658 10.7954 65.8951 10.7954C66.8107 10.7954 67.2285 10.3011 67.6107 9.8443L67.9011 10.1431ZM68.0612 2.86233C67.9537 3.02414 67.8937 3.21581 67.8888 3.4134C67.8848 3.54815 67.9066 3.68236 67.9529 3.80798C67.9992 3.93361 68.0691 4.04806 68.1584 4.14447C68.2476 4.24089 68.3544 4.31728 68.4722 4.36907C68.5901 4.42086 68.7167 4.44698 68.8444 4.44586C69.0316 4.44517 69.2144 4.38627 69.3701 4.2765C69.5258 4.16673 69.6474 4.01097 69.7197 3.82866C69.7921 3.64635 69.8119 3.44558 69.7768 3.25142C69.7417 3.05727 69.6532 2.87834 69.5224 2.73697C69.3916 2.59561 69.2242 2.49808 69.0411 2.45657C68.8581 2.41506 68.6676 2.43141 68.4933 2.50357C68.319 2.57574 68.1687 2.70052 68.0612 2.86233ZM69.4904 4.43506C69.2999 4.57265 69.0751 4.6477 68.8444 4.65078C68.6892 4.65328 68.5351 4.62308 68.3911 4.56196C68.2471 4.50084 68.1161 4.41001 68.0057 4.2948C67.8954 4.17958 67.8079 4.04229 67.7484 3.89096C67.6888 3.73962 67.6585 3.57727 67.6591 3.4134C67.6594 3.16972 67.7279 2.93157 67.8561 2.7289C67.9842 2.52623 68.1663 2.36808 68.3793 2.27434C68.5923 2.1806 68.8269 2.15545 69.0534 2.20206C69.2799 2.24867 69.4884 2.36495 69.6525 2.53628C69.8166 2.70762 69.9291 2.92635 69.9758 3.165C70.0225 3.40364 70.0013 3.65154 69.915 3.87752C69.8286 4.1035 69.6809 4.29747 69.4904 4.43506ZM68.8325 3.51508H68.5969V4.13143H68.391V2.70476H68.9081C69.2251 2.70476 69.3851 2.82834 69.3851 3.11149C69.388 3.16199 69.381 3.21256 69.3646 3.2601C69.3482 3.30764 69.3228 3.35114 69.2899 3.38792C69.257 3.4247 69.2174 3.45399 69.1734 3.47397C69.1293 3.49396 69.0819 3.50422 69.034 3.50413L69.4177 4.12986H69.1896L68.8325 3.51508ZM68.5969 2.88466V3.33206H68.8444C69.0236 3.33206 69.1718 3.31798 69.1718 3.09741C69.1718 2.92064 69.0236 2.88466 68.8755 2.88466H68.5969Z" fill="white"/>
<path d="M7.38352 44H1.45384V27.2727H7.43253C9.11506 27.2727 10.5634 27.6076 11.7777 28.2773C12.992 28.9416 13.9258 29.8973 14.5792 31.1442C15.238 32.3911 15.5675 33.883 15.5675 35.62C15.5675 37.3625 15.238 38.8598 14.5792 40.1122C13.9258 41.3646 12.9865 42.3256 11.7614 42.9954C10.5417 43.6651 9.08239 44 7.38352 44ZM4.99041 40.9698H7.23651C8.28196 40.9698 9.16134 40.7847 9.87465 40.4144C10.5934 40.0387 11.1325 39.4588 11.4918 38.6747C11.8567 37.8852 12.0391 36.867 12.0391 35.62C12.0391 34.384 11.8567 33.3739 11.4918 32.5898C11.1325 31.8058 10.5961 31.2286 9.88281 30.8583C9.16951 30.488 8.29013 30.3029 7.24467 30.3029H4.99041V40.9698ZM24.2992 44.245C23.0087 44.245 21.8979 43.9837 20.9668 43.4609C20.0412 42.9328 19.3279 42.1868 18.8269 41.223C18.326 40.2538 18.0755 39.1076 18.0755 37.7844C18.0755 36.494 18.326 35.3614 18.8269 34.3867C19.3279 33.4121 20.033 32.6525 20.9423 32.108C21.8571 31.5634 22.9298 31.2912 24.1604 31.2912C24.988 31.2912 25.7585 31.4246 26.4718 31.6914C27.1906 31.9528 27.8167 32.3475 28.3504 32.8757C28.8894 33.4039 29.3087 34.0682 29.6082 34.8686C29.9076 35.6636 30.0574 36.5947 30.0574 37.6619V38.6175H19.464V36.4613H26.7822C26.7822 35.9603 26.6733 35.5166 26.4555 35.13C26.2377 34.7434 25.9355 34.4412 25.5489 34.2234C25.1677 34.0001 24.7239 33.8885 24.2175 33.8885C23.6894 33.8885 23.2211 34.011 22.8127 34.256C22.4098 34.4956 22.094 34.8196 21.8653 35.228C21.6366 35.6309 21.5195 36.0801 21.5141 36.5756V38.6257C21.5141 39.2464 21.6284 39.7828 21.8571 40.2347C22.0912 40.6867 22.4207 41.0352 22.8454 41.2802C23.2701 41.5252 23.7738 41.6477 24.3564 41.6477C24.743 41.6477 25.0969 41.5933 25.4182 41.4844C25.7394 41.3755 26.0144 41.2121 26.2431 40.9943C26.4718 40.7765 26.646 40.5097 26.7658 40.1939L29.9839 40.4062C29.8205 41.1795 29.4857 41.8546 28.9793 42.4318C28.4783 43.0036 27.8304 43.45 27.0354 43.7713C26.2458 44.0871 25.3338 44.245 24.2992 44.245ZM43.2262 35.032L40.0408 35.228C39.9864 34.9557 39.8693 34.7107 39.6896 34.4929C39.5099 34.2696 39.2731 34.0927 38.979 33.962C38.6904 33.8259 38.3447 33.7578 37.9418 33.7578C37.4027 33.7578 36.948 33.8722 36.5778 34.1009C36.2075 34.3241 36.0224 34.6236 36.0224 34.9993C36.0224 35.2988 36.1422 35.552 36.3817 35.7589C36.6213 35.9658 37.0324 36.1319 37.615 36.2571L39.8856 36.7145C41.1053 36.965 42.0147 37.3679 42.6136 37.9233C43.2126 38.4787 43.5121 39.2083 43.5121 40.1122C43.5121 40.9344 43.2698 41.6559 42.7851 42.2766C42.306 42.8974 41.6471 43.382 40.8086 43.7305C39.9755 44.0735 39.0144 44.245 37.9254 44.245C36.2647 44.245 34.9415 43.8993 33.956 43.2077C32.9758 42.5108 32.4014 41.5633 32.2326 40.3654L35.6548 40.1857C35.7583 40.6921 36.0087 41.0787 36.4062 41.3455C36.8037 41.6069 37.3128 41.7376 37.9336 41.7376C38.5434 41.7376 39.0335 41.6205 39.4038 41.3864C39.7795 41.1468 39.97 40.8391 39.9755 40.4634C39.97 40.1476 39.8366 39.889 39.5753 39.6875C39.3139 39.4806 38.911 39.3227 38.3665 39.2138L36.1939 38.7809C34.9687 38.5359 34.0567 38.1112 33.4577 37.5067C32.8642 36.9023 32.5675 36.1319 32.5675 35.1953C32.5675 34.3894 32.7853 33.6952 33.2209 33.1126C33.6619 32.5299 34.2799 32.0807 35.0749 31.7649C35.8753 31.4491 36.8119 31.2912 37.8846 31.2912C39.4691 31.2912 40.716 31.6261 41.6253 32.2958C42.5401 32.9656 43.0737 33.8776 43.2262 35.032ZM46.163 44V31.4545H49.6424V44H46.163ZM47.9109 29.8374C47.3936 29.8374 46.9498 29.6658 46.5796 29.3228C46.2148 28.9743 46.0323 28.5578 46.0323 28.0732C46.0323 27.594 46.2148 27.1829 46.5796 26.8398C46.9498 26.4914 47.3936 26.3171 47.9109 26.3171C48.4282 26.3171 48.8692 26.4914 49.234 26.8398C49.6043 27.1829 49.7894 27.594 49.7894 28.0732C49.7894 28.5578 49.6043 28.9743 49.234 29.3228C48.8692 29.6658 48.4282 29.8374 47.9109 29.8374ZM58.5416 48.9659C57.4145 48.9659 56.448 48.8107 55.6421 48.5004C54.8417 48.1954 54.2046 47.7789 53.7309 47.2507C53.2572 46.7225 52.9495 46.129 52.808 45.4702L56.026 45.0373C56.124 45.2878 56.2792 45.5219 56.4915 45.7397C56.7039 45.9575 56.9843 46.1317 57.3328 46.2624C57.6867 46.3986 58.1169 46.4666 58.6233 46.4666C59.3802 46.4666 60.0036 46.2815 60.4937 45.9112C60.9892 45.5464 61.2369 44.9338 61.2369 44.0735V41.7784H61.0899C60.9374 42.1269 60.7088 42.4563 60.4038 42.7667C60.0989 43.0771 59.7069 43.3303 59.2277 43.5263C58.7485 43.7223 58.1768 43.8203 57.5125 43.8203C56.5705 43.8203 55.7129 43.6025 54.9397 43.1669C54.1719 42.7259 53.5594 42.0534 53.102 41.1495C52.65 40.2402 52.4241 39.0913 52.4241 37.7028C52.4241 36.2816 52.6555 35.0946 53.1183 34.1417C53.5812 33.1888 54.1964 32.4755 54.9642 32.0018C55.7374 31.5281 56.5841 31.2912 57.5043 31.2912C58.2067 31.2912 58.7948 31.411 59.2685 31.6506C59.7423 31.8847 60.1234 32.1787 60.412 32.5327C60.706 32.8812 60.932 33.2242 61.0899 33.5618H61.2206V31.4545H64.6755V44.1225C64.6755 45.1897 64.4141 46.0827 63.8914 46.8015C63.3687 47.5202 62.6445 48.0593 61.7188 48.4187C60.7986 48.7835 59.7395 48.9659 58.5416 48.9659ZM58.6151 41.2067C59.176 41.2067 59.6497 41.0678 60.0363 40.7901C60.4283 40.507 60.7278 40.104 60.9347 39.5813C61.1471 39.0531 61.2533 38.4215 61.2533 37.6864C61.2533 36.9513 61.1498 36.3143 60.9429 35.7752C60.736 35.2307 60.4365 34.8087 60.0445 34.5092C59.6524 34.2098 59.176 34.06 58.6151 34.06C58.0434 34.06 57.5615 34.2152 57.1695 34.5256C56.7774 34.8305 56.4807 35.2552 56.2792 35.7997C56.0777 36.3442 55.977 36.9731 55.977 37.6864C55.977 38.4106 56.0777 39.0368 56.2792 39.565C56.4861 40.0877 56.7829 40.4934 57.1695 40.782C57.5615 41.0651 58.0434 41.2067 58.6151 41.2067ZM71.3837 36.7472V44H67.9043V31.4545H71.2204V33.668H71.3674C71.6451 32.9383 72.1106 32.3611 72.764 31.9364C73.4175 31.5063 74.2097 31.2912 75.1408 31.2912C76.012 31.2912 76.7716 31.4818 77.4196 31.8629C78.0676 32.2441 78.5712 32.7886 78.9306 33.4964C79.29 34.1989 79.4697 35.0374 79.4697 36.0121V44H75.9903V36.6328C75.9957 35.8651 75.7997 35.2661 75.4022 34.8359C75.0047 34.4003 74.4575 34.1825 73.7605 34.1825C73.2922 34.1825 72.8784 34.2833 72.519 34.4847C72.1651 34.6862 71.8874 34.9802 71.6859 35.3668C71.4899 35.748 71.3892 36.2081 71.3837 36.7472ZM97.5947 32.0835C97.5294 31.4246 97.249 30.9128 96.7535 30.5479C96.258 30.1831 95.5855 30.0007 94.7361 30.0007C94.1589 30.0007 93.6716 30.0824 93.2741 30.2457C92.8766 30.4036 92.5717 30.6242 92.3593 30.9073C92.1524 31.1905 92.0489 31.5117 92.0489 31.8711C92.038 32.1706 92.1007 32.4319 92.2368 32.6552C92.3784 32.8784 92.5717 33.0717 92.8167 33.2351C93.0617 33.393 93.3449 33.5318 93.6661 33.6516C93.9874 33.766 94.3304 33.864 94.6952 33.9457L96.1981 34.305C96.9277 34.4684 97.5975 34.6862 98.2073 34.9585C98.8172 35.2307 99.3453 35.5656 99.7918 35.9631C100.238 36.3606 100.584 36.8288 100.829 37.3679C101.08 37.907 101.208 38.525 101.213 39.2219C101.208 40.2456 100.946 41.1332 100.429 41.8846C99.9171 42.6306 99.1765 43.2105 98.2073 43.6243C97.2435 44.0327 96.081 44.2369 94.7197 44.2369C93.3694 44.2369 92.1932 44.0299 91.1913 43.6161C90.1949 43.2023 89.4162 42.5897 88.8554 41.7784C88.3 40.9616 88.0087 39.9516 87.9815 38.7482H91.4037C91.4418 39.3091 91.6024 39.7773 91.8856 40.1531C92.1742 40.5233 92.558 40.8037 93.0372 40.9943C93.5218 41.1795 94.069 41.272 94.6789 41.272C95.2779 41.272 95.7979 41.1849 96.2389 41.0107C96.6854 40.8364 97.0312 40.5941 97.2762 40.2837C97.5212 39.9734 97.6437 39.6167 97.6437 39.2138C97.6437 38.8381 97.5321 38.5223 97.3089 38.2663C97.0911 38.0104 96.7698 37.7926 96.3451 37.6129C95.9258 37.4332 95.4113 37.2699 94.8014 37.1229L92.98 36.6655C91.5698 36.3224 90.4562 35.7861 89.6395 35.0565C88.8227 34.3268 88.4171 33.344 88.4225 32.108C88.4171 31.0952 88.6866 30.2103 89.2311 29.4535C89.7811 28.6966 90.5352 28.1058 91.4935 27.6811C92.4519 27.2564 93.5409 27.044 94.7606 27.044C96.0021 27.044 97.0856 27.2564 98.0113 27.6811C98.9424 28.1058 99.6666 28.6966 100.184 29.4535C100.701 30.2103 100.968 31.087 100.984 32.0835H97.5947ZM106.135 48.7045C105.693 48.7045 105.28 48.6692 104.893 48.5984C104.512 48.533 104.196 48.4486 103.946 48.3452L104.73 45.7479C105.138 45.8731 105.506 45.9412 105.832 45.9521C106.164 45.9629 106.45 45.8867 106.69 45.7234C106.935 45.56 107.134 45.2823 107.286 44.8903L107.49 44.3594L102.99 31.4545H106.649L109.246 40.6676H109.377L111.999 31.4545H115.682L110.806 45.3558C110.572 46.031 110.254 46.6191 109.851 47.12C109.453 47.6264 108.95 48.0157 108.34 48.288C107.73 48.5657 106.995 48.7045 106.135 48.7045ZM128.361 35.032L125.176 35.228C125.121 34.9557 125.004 34.7107 124.825 34.4929C124.645 34.2696 124.408 34.0927 124.114 33.962C123.825 33.8259 123.48 33.7578 123.077 33.7578C122.538 33.7578 122.083 33.8722 121.713 34.1009C121.343 34.3241 121.157 34.6236 121.157 34.9993C121.157 35.2988 121.277 35.552 121.517 35.7589C121.756 35.9658 122.167 36.1319 122.75 36.2571L125.021 36.7145C126.24 36.965 127.15 37.3679 127.749 37.9233C128.348 38.4787 128.647 39.2083 128.647 40.1122C128.647 40.9344 128.405 41.6559 127.92 42.2766C127.441 42.8974 126.782 43.382 125.944 43.7305C125.111 44.0735 124.149 44.245 123.06 44.245C121.4 44.245 120.077 43.8993 119.091 43.2077C118.111 42.5108 117.536 41.5633 117.368 40.3654L120.79 40.1857C120.893 40.6921 121.144 41.0787 121.541 41.3455C121.939 41.6069 122.448 41.7376 123.069 41.7376C123.678 41.7376 124.169 41.6205 124.539 41.3864C124.915 41.1468 125.105 40.8391 125.111 40.4634C125.105 40.1476 124.972 39.889 124.71 39.6875C124.449 39.4806 124.046 39.3227 123.502 39.2138L121.329 38.7809C120.104 38.5359 119.192 38.1112 118.593 37.5067C117.999 36.9023 117.702 36.1319 117.702 35.1953C117.702 34.3894 117.92 33.6952 118.356 33.1126C118.797 32.5299 119.415 32.0807 120.21 31.7649C121.01 31.4491 121.947 31.2912 123.02 31.2912C124.604 31.2912 125.851 31.6261 126.76 32.2958C127.675 32.9656 128.209 33.8776 128.361 35.032ZM137.971 31.4545V34.0682H130.416V31.4545H137.971ZM132.131 28.4489H135.611V40.1449C135.611 40.4661 135.66 40.7166 135.758 40.8963C135.856 41.0705 135.992 41.1931 136.166 41.2638C136.346 41.3346 136.553 41.37 136.787 41.37C136.95 41.37 137.113 41.3564 137.277 41.3292C137.44 41.2965 137.565 41.272 137.652 41.2557L138.2 43.8448C138.025 43.8993 137.78 43.9619 137.465 44.0327C137.149 44.1089 136.765 44.1552 136.313 44.1715C135.474 44.2042 134.739 44.0926 134.108 43.8366C133.482 43.5807 132.994 43.1832 132.646 42.6442C132.297 42.1051 132.126 41.4245 132.131 40.6023V28.4489ZM146.28 44.245C144.99 44.245 143.879 43.9837 142.948 43.4609C142.022 42.9328 141.309 42.1868 140.808 41.223C140.307 40.2538 140.056 39.1076 140.056 37.7844C140.056 36.494 140.307 35.3614 140.808 34.3867C141.309 33.4121 142.014 32.6525 142.923 32.108C143.838 31.5634 144.911 31.2912 146.141 31.2912C146.969 31.2912 147.739 31.4246 148.453 31.6914C149.171 31.9528 149.798 32.3475 150.331 32.8757C150.87 33.4039 151.29 34.0682 151.589 34.8686C151.889 35.6636 152.038 36.5947 152.038 37.6619V38.6175H141.445V36.4613H148.763C148.763 35.9603 148.654 35.5166 148.436 35.13C148.219 34.7434 147.916 34.4412 147.53 34.2234C147.149 34.0001 146.705 33.8885 146.198 33.8885C145.67 33.8885 145.202 34.011 144.794 34.256C144.391 34.4956 144.075 34.8196 143.846 35.228C143.617 35.6309 143.5 36.0801 143.495 36.5756V38.6257C143.495 39.2464 143.609 39.7828 143.838 40.2347C144.072 40.6867 144.402 41.0352 144.826 41.2802C145.251 41.5252 145.755 41.6477 146.337 41.6477C146.724 41.6477 147.078 41.5933 147.399 41.4844C147.72 41.3755 147.995 41.2121 148.224 40.9943C148.453 40.7765 148.627 40.5097 148.747 40.1939L151.965 40.4062C151.801 41.1795 151.467 41.8546 150.96 42.4318C150.459 43.0036 149.811 43.45 149.016 43.7713C148.227 44.0871 147.315 44.245 146.28 44.245ZM154.769 44V31.4545H158.085V33.668H158.232C158.493 32.9329 158.929 32.353 159.539 31.9283C160.149 31.5036 160.878 31.2912 161.728 31.2912C162.588 31.2912 163.32 31.5063 163.925 31.9364C164.529 32.3611 164.932 32.9383 165.134 33.668H165.264C165.52 32.9492 165.983 32.3748 166.653 31.9446C167.328 31.509 168.126 31.2912 169.046 31.2912C170.217 31.2912 171.167 31.6642 171.896 32.4102C172.631 33.1507 172.999 34.2016 172.999 35.5629V44H169.528V36.2489C169.528 35.552 169.343 35.0292 168.972 34.6808C168.602 34.3323 168.139 34.158 167.584 34.158C166.952 34.158 166.459 34.3595 166.105 34.7624C165.752 35.1599 165.575 35.6854 165.575 36.3388V44H162.201V36.1754C162.201 35.5601 162.024 35.0701 161.67 34.7053C161.322 34.3404 160.862 34.158 160.29 34.158C159.904 34.158 159.555 34.256 159.245 34.4521C158.94 34.6426 158.697 34.9122 158.518 35.2607C158.338 35.6037 158.248 36.0066 158.248 36.4695V44H154.769Z" fill="white"/>
</svg>
