<svg width="690" height="640" viewBox="0 0 690 640" fill="none" xmlns="http://www.w3.org/2000/svg">
<g clip-path="url(#clip0_15283_31265)">
<rect width="345" height="320" transform="scale(2)" fill="#F6F6F6"/>
<path d="M76 232C76 218.745 86.7452 208 100 208H1332C1345.25 208 1356 218.745 1356 232V440C1356 453.255 1345.25 464 1332 464H100C86.7452 464 76 453.255 76 440V232Z" fill="white"/>
<path d="M276.818 386V362.727H284.955C286.576 362.727 287.913 363.008 288.966 363.568C290.019 364.121 290.803 364.867 291.318 365.807C291.833 366.739 292.091 367.773 292.091 368.909C292.091 369.909 291.913 370.735 291.557 371.386C291.208 372.038 290.746 372.553 290.17 372.932C289.602 373.311 288.985 373.591 288.318 373.773V374C289.03 374.045 289.746 374.295 290.466 374.75C291.186 375.205 291.788 375.856 292.273 376.705C292.758 377.553 293 378.591 293 379.818C293 380.985 292.735 382.034 292.205 382.966C291.674 383.898 290.837 384.636 289.693 385.182C288.549 385.727 287.061 386 285.227 386H276.818ZM279.636 383.5H285.227C287.068 383.5 288.375 383.144 289.148 382.432C289.928 381.712 290.318 380.841 290.318 379.818C290.318 379.03 290.117 378.303 289.716 377.636C289.314 376.962 288.742 376.424 288 376.023C287.258 375.614 286.379 375.409 285.364 375.409H279.636V383.5ZM279.636 372.955H284.864C285.712 372.955 286.477 372.788 287.159 372.455C287.848 372.121 288.394 371.652 288.795 371.045C289.205 370.439 289.409 369.727 289.409 368.909C289.409 367.886 289.053 367.019 288.341 366.307C287.629 365.587 286.5 365.227 284.955 365.227H279.636V372.955ZM302.403 386.409C301.297 386.409 300.294 386.201 299.392 385.784C298.491 385.36 297.775 384.75 297.244 383.955C296.714 383.152 296.449 382.182 296.449 381.045C296.449 380.045 296.646 379.235 297.04 378.614C297.434 377.985 297.96 377.492 298.619 377.136C299.278 376.78 300.006 376.515 300.801 376.341C301.604 376.159 302.411 376.015 303.222 375.909C304.282 375.773 305.142 375.67 305.801 375.602C306.468 375.527 306.953 375.402 307.256 375.227C307.566 375.053 307.722 374.75 307.722 374.318V374.227C307.722 373.106 307.415 372.235 306.801 371.614C306.195 370.992 305.275 370.682 304.04 370.682C302.759 370.682 301.756 370.962 301.028 371.523C300.301 372.083 299.79 372.682 299.494 373.318L296.949 372.409C297.403 371.348 298.009 370.523 298.767 369.932C299.532 369.333 300.366 368.917 301.267 368.682C302.176 368.439 303.07 368.318 303.949 368.318C304.509 368.318 305.153 368.386 305.881 368.523C306.616 368.652 307.324 368.92 308.006 369.33C308.695 369.739 309.267 370.356 309.722 371.182C310.176 372.008 310.403 373.114 310.403 374.5V386H307.722V383.636H307.585C307.403 384.015 307.1 384.42 306.676 384.852C306.252 385.284 305.688 385.652 304.983 385.955C304.278 386.258 303.419 386.409 302.403 386.409ZM302.812 384C303.873 384 304.767 383.792 305.494 383.375C306.229 382.958 306.782 382.42 307.153 381.761C307.532 381.102 307.722 380.409 307.722 379.682V377.227C307.608 377.364 307.358 377.489 306.972 377.602C306.593 377.708 306.153 377.803 305.653 377.886C305.161 377.962 304.68 378.03 304.21 378.091C303.748 378.144 303.373 378.189 303.085 378.227C302.388 378.318 301.737 378.466 301.131 378.67C300.532 378.867 300.047 379.167 299.676 379.568C299.313 379.962 299.131 380.5 299.131 381.182C299.131 382.114 299.475 382.818 300.165 383.295C300.862 383.765 301.744 384 302.812 384ZM327.662 372.455L325.253 373.136C325.101 372.735 324.878 372.345 324.582 371.966C324.295 371.58 323.901 371.261 323.401 371.011C322.901 370.761 322.26 370.636 321.48 370.636C320.412 370.636 319.522 370.883 318.81 371.375C318.105 371.86 317.753 372.477 317.753 373.227C317.753 373.894 317.995 374.42 318.48 374.807C318.965 375.193 319.723 375.515 320.753 375.773L323.344 376.409C324.904 376.788 326.067 377.367 326.832 378.148C327.598 378.92 327.98 379.917 327.98 381.136C327.98 382.136 327.692 383.03 327.116 383.818C326.548 384.606 325.753 385.227 324.73 385.682C323.707 386.136 322.518 386.364 321.162 386.364C319.382 386.364 317.908 385.977 316.741 385.205C315.575 384.432 314.836 383.303 314.526 381.818L317.071 381.182C317.313 382.121 317.772 382.826 318.446 383.295C319.128 383.765 320.018 384 321.116 384C322.366 384 323.359 383.735 324.094 383.205C324.836 382.667 325.207 382.023 325.207 381.273C325.207 380.667 324.995 380.159 324.571 379.75C324.147 379.333 323.495 379.023 322.616 378.818L319.707 378.136C318.109 377.758 316.935 377.17 316.185 376.375C315.442 375.572 315.071 374.568 315.071 373.364C315.071 372.379 315.348 371.508 315.901 370.75C316.461 369.992 317.223 369.398 318.185 368.966C319.154 368.534 320.253 368.318 321.48 368.318C323.207 368.318 324.563 368.697 325.548 369.455C326.541 370.212 327.245 371.212 327.662 372.455ZM332.017 386V368.545H334.699V386H332.017ZM333.381 365.636C332.858 365.636 332.407 365.458 332.028 365.102C331.657 364.746 331.472 364.318 331.472 363.818C331.472 363.318 331.657 362.89 332.028 362.534C332.407 362.178 332.858 362 333.381 362C333.903 362 334.35 362.178 334.722 362.534C335.1 362.89 335.29 363.318 335.29 363.818C335.29 364.318 335.1 364.746 334.722 365.102C334.35 365.458 333.903 365.636 333.381 365.636ZM346.702 386.364C345.065 386.364 343.656 385.977 342.474 385.205C341.293 384.432 340.384 383.367 339.747 382.011C339.111 380.655 338.793 379.106 338.793 377.364C338.793 375.591 339.118 374.027 339.77 372.67C340.429 371.307 341.346 370.242 342.52 369.477C343.702 368.705 345.08 368.318 346.656 368.318C347.884 368.318 348.99 368.545 349.974 369C350.959 369.455 351.766 370.091 352.395 370.909C353.024 371.727 353.414 372.682 353.565 373.773H350.884C350.679 372.977 350.224 372.273 349.52 371.659C348.823 371.038 347.884 370.727 346.702 370.727C345.656 370.727 344.74 371 343.952 371.545C343.171 372.083 342.562 372.845 342.122 373.83C341.69 374.807 341.474 375.955 341.474 377.273C341.474 378.621 341.687 379.795 342.111 380.795C342.543 381.795 343.149 382.572 343.929 383.125C344.717 383.678 345.641 383.955 346.702 383.955C347.399 383.955 348.031 383.833 348.599 383.591C349.168 383.348 349.649 383 350.043 382.545C350.437 382.091 350.717 381.545 350.884 380.909H353.565C353.414 381.939 353.039 382.867 352.44 383.693C351.849 384.511 351.065 385.163 350.088 385.648C349.118 386.125 347.99 386.364 346.702 386.364ZM371.077 386L364.713 362.727H367.577L372.44 381.682H372.668L377.622 362.727H380.804L385.759 381.682H385.986L390.849 362.727H393.713L387.349 386H384.44L379.304 367.455H379.122L373.986 386H371.077ZM399.543 375.5V386H396.861V362.727H399.543V371.273H399.77C400.179 370.371 400.793 369.655 401.611 369.125C402.437 368.587 403.535 368.318 404.906 368.318C406.096 368.318 407.137 368.557 408.031 369.034C408.925 369.504 409.618 370.227 410.111 371.205C410.611 372.174 410.861 373.409 410.861 374.909V386H408.179V375.091C408.179 373.705 407.819 372.633 407.099 371.875C406.387 371.11 405.399 370.727 404.134 370.727C403.255 370.727 402.467 370.913 401.77 371.284C401.08 371.655 400.535 372.197 400.134 372.909C399.74 373.621 399.543 374.485 399.543 375.5ZM415.767 386V368.545H418.449V386H415.767ZM417.131 365.636C416.608 365.636 416.157 365.458 415.778 365.102C415.407 364.746 415.222 364.318 415.222 363.818C415.222 363.318 415.407 362.89 415.778 362.534C416.157 362.178 416.608 362 417.131 362C417.653 362 418.1 362.178 418.472 362.534C418.85 362.89 419.04 363.318 419.04 363.818C419.04 364.318 418.85 364.746 418.472 365.102C418.1 365.458 417.653 365.636 417.131 365.636ZM430.952 368.545V370.818H421.906V368.545H430.952ZM424.543 364.364H427.224V381C427.224 381.758 427.334 382.326 427.554 382.705C427.781 383.076 428.069 383.326 428.418 383.455C428.774 383.576 429.149 383.636 429.543 383.636C429.838 383.636 430.08 383.621 430.27 383.591C430.459 383.553 430.611 383.523 430.724 383.5L431.27 385.909C431.088 385.977 430.834 386.045 430.509 386.114C430.183 386.189 429.77 386.227 429.27 386.227C428.512 386.227 427.77 386.064 427.043 385.739C426.323 385.413 425.724 384.917 425.247 384.25C424.777 383.583 424.543 382.742 424.543 381.727V364.364ZM442.116 386.364C440.435 386.364 438.984 385.992 437.764 385.25C436.552 384.5 435.616 383.455 434.957 382.114C434.306 380.765 433.98 379.197 433.98 377.409C433.98 375.621 434.306 374.045 434.957 372.682C435.616 371.311 436.533 370.242 437.707 369.477C438.889 368.705 440.268 368.318 441.844 368.318C442.753 368.318 443.651 368.47 444.537 368.773C445.423 369.076 446.23 369.568 446.957 370.25C447.685 370.924 448.264 371.818 448.696 372.932C449.128 374.045 449.344 375.417 449.344 377.045V378.182H435.889V375.864H446.616C446.616 374.879 446.42 374 446.026 373.227C445.639 372.455 445.086 371.845 444.366 371.398C443.654 370.951 442.813 370.727 441.844 370.727C440.776 370.727 439.851 370.992 439.071 371.523C438.298 372.045 437.704 372.727 437.287 373.568C436.87 374.409 436.662 375.311 436.662 376.273V377.818C436.662 379.136 436.889 380.254 437.344 381.17C437.806 382.08 438.446 382.773 439.264 383.25C440.082 383.72 441.033 383.955 442.116 383.955C442.821 383.955 443.457 383.856 444.026 383.659C444.601 383.455 445.098 383.152 445.514 382.75C445.931 382.341 446.253 381.833 446.48 381.227L449.071 381.955C448.798 382.833 448.34 383.606 447.696 384.273C447.052 384.932 446.257 385.447 445.31 385.818C444.363 386.182 443.298 386.364 442.116 386.364ZM453.787 386V362.727H456.469V371.318H456.696C456.893 371.015 457.166 370.629 457.514 370.159C457.87 369.682 458.378 369.258 459.037 368.886C459.704 368.508 460.605 368.318 461.741 368.318C463.211 368.318 464.507 368.686 465.628 369.42C466.749 370.155 467.624 371.197 468.253 372.545C468.882 373.894 469.196 375.485 469.196 377.318C469.196 379.167 468.882 380.769 468.253 382.125C467.624 383.473 466.753 384.519 465.639 385.261C464.526 385.996 463.241 386.364 461.787 386.364C460.666 386.364 459.768 386.178 459.094 385.807C458.42 385.428 457.901 385 457.537 384.523C457.173 384.038 456.893 383.636 456.696 383.318H456.378V386H453.787ZM456.423 377.273C456.423 378.591 456.616 379.754 457.003 380.761C457.389 381.761 457.954 382.545 458.696 383.114C459.438 383.674 460.348 383.955 461.423 383.955C462.545 383.955 463.48 383.659 464.23 383.068C464.988 382.47 465.556 381.667 465.935 380.659C466.321 379.644 466.514 378.515 466.514 377.273C466.514 376.045 466.325 374.939 465.946 373.955C465.575 372.962 465.01 372.178 464.253 371.602C463.503 371.019 462.56 370.727 461.423 370.727C460.332 370.727 459.416 371.004 458.673 371.557C457.931 372.102 457.37 372.867 456.991 373.852C456.613 374.83 456.423 375.97 456.423 377.273ZM480.389 386.364C478.813 386.364 477.431 385.989 476.241 385.239C475.06 384.489 474.135 383.439 473.469 382.091C472.81 380.742 472.48 379.167 472.48 377.364C472.48 375.545 472.81 373.958 473.469 372.602C474.135 371.246 475.06 370.193 476.241 369.443C477.431 368.693 478.813 368.318 480.389 368.318C481.965 368.318 483.344 368.693 484.526 369.443C485.715 370.193 486.639 371.246 487.298 372.602C487.965 373.958 488.298 375.545 488.298 377.364C488.298 379.167 487.965 380.742 487.298 382.091C486.639 383.439 485.715 384.489 484.526 385.239C483.344 385.989 481.965 386.364 480.389 386.364ZM480.389 383.955C481.586 383.955 482.571 383.648 483.344 383.034C484.116 382.42 484.688 381.614 485.06 380.614C485.431 379.614 485.616 378.53 485.616 377.364C485.616 376.197 485.431 375.11 485.06 374.102C484.688 373.095 484.116 372.28 483.344 371.659C482.571 371.038 481.586 370.727 480.389 370.727C479.192 370.727 478.207 371.038 477.435 371.659C476.662 372.28 476.09 373.095 475.719 374.102C475.348 375.11 475.162 376.197 475.162 377.364C475.162 378.53 475.348 379.614 475.719 380.614C476.09 381.614 476.662 382.42 477.435 383.034C478.207 383.648 479.192 383.955 480.389 383.955ZM497.528 386.409C496.422 386.409 495.419 386.201 494.517 385.784C493.616 385.36 492.9 384.75 492.369 383.955C491.839 383.152 491.574 382.182 491.574 381.045C491.574 380.045 491.771 379.235 492.165 378.614C492.559 377.985 493.085 377.492 493.744 377.136C494.403 376.78 495.131 376.515 495.926 376.341C496.729 376.159 497.536 376.015 498.347 375.909C499.407 375.773 500.267 375.67 500.926 375.602C501.593 375.527 502.078 375.402 502.381 375.227C502.691 375.053 502.847 374.75 502.847 374.318V374.227C502.847 373.106 502.54 372.235 501.926 371.614C501.32 370.992 500.4 370.682 499.165 370.682C497.884 370.682 496.881 370.962 496.153 371.523C495.426 372.083 494.915 372.682 494.619 373.318L492.074 372.409C492.528 371.348 493.134 370.523 493.892 369.932C494.657 369.333 495.491 368.917 496.392 368.682C497.301 368.439 498.195 368.318 499.074 368.318C499.634 368.318 500.278 368.386 501.006 368.523C501.741 368.652 502.449 368.92 503.131 369.33C503.82 369.739 504.392 370.356 504.847 371.182C505.301 372.008 505.528 373.114 505.528 374.5V386H502.847V383.636H502.71C502.528 384.015 502.225 384.42 501.801 384.852C501.377 385.284 500.813 385.652 500.108 385.955C499.403 386.258 498.544 386.409 497.528 386.409ZM497.938 384C498.998 384 499.892 383.792 500.619 383.375C501.354 382.958 501.907 382.42 502.278 381.761C502.657 381.102 502.847 380.409 502.847 379.682V377.227C502.733 377.364 502.483 377.489 502.097 377.602C501.718 377.708 501.278 377.803 500.778 377.886C500.286 377.962 499.805 378.03 499.335 378.091C498.873 378.144 498.498 378.189 498.21 378.227C497.513 378.318 496.862 378.466 496.256 378.67C495.657 378.867 495.172 379.167 494.801 379.568C494.438 379.962 494.256 380.5 494.256 381.182C494.256 382.114 494.6 382.818 495.29 383.295C495.987 383.765 496.869 384 497.938 384ZM510.423 386V368.545H513.014V371.182H513.196C513.514 370.318 514.09 369.617 514.923 369.08C515.757 368.542 516.696 368.273 517.741 368.273C517.938 368.273 518.185 368.277 518.48 368.284C518.776 368.292 518.999 368.303 519.151 368.318V371.045C519.06 371.023 518.851 370.989 518.526 370.943C518.207 370.89 517.87 370.864 517.514 370.864C516.666 370.864 515.908 371.042 515.241 371.398C514.582 371.746 514.06 372.231 513.673 372.852C513.295 373.466 513.105 374.167 513.105 374.955V386H510.423ZM528.389 386.364C526.935 386.364 525.651 385.996 524.537 385.261C523.423 384.519 522.552 383.473 521.923 382.125C521.295 380.769 520.98 379.167 520.98 377.318C520.98 375.485 521.295 373.894 521.923 372.545C522.552 371.197 523.427 370.155 524.548 369.42C525.67 368.686 526.965 368.318 528.435 368.318C529.571 368.318 530.469 368.508 531.128 368.886C531.795 369.258 532.302 369.682 532.651 370.159C533.007 370.629 533.283 371.015 533.48 371.318H533.707V362.727H536.389V386H533.798V383.318H533.48C533.283 383.636 533.003 384.038 532.639 384.523C532.276 385 531.757 385.428 531.082 385.807C530.408 386.178 529.51 386.364 528.389 386.364ZM528.753 383.955C529.829 383.955 530.738 383.674 531.48 383.114C532.223 382.545 532.787 381.761 533.173 380.761C533.56 379.754 533.753 378.591 533.753 377.273C533.753 375.97 533.563 374.83 533.185 373.852C532.806 372.867 532.245 372.102 531.503 371.557C530.76 371.004 529.844 370.727 528.753 370.727C527.616 370.727 526.67 371.019 525.912 371.602C525.162 372.178 524.598 372.962 524.219 373.955C523.848 374.939 523.662 376.045 523.662 377.273C523.662 378.515 523.851 379.644 524.23 380.659C524.616 381.667 525.185 382.47 525.935 383.068C526.692 383.659 527.632 383.955 528.753 383.955ZM541.673 386V368.545H544.355V386H541.673ZM543.037 365.636C542.514 365.636 542.063 365.458 541.685 365.102C541.313 364.746 541.128 364.318 541.128 363.818C541.128 363.318 541.313 362.89 541.685 362.534C542.063 362.178 542.514 362 543.037 362C543.56 362 544.007 362.178 544.378 362.534C544.757 362.89 544.946 363.318 544.946 363.818C544.946 364.318 544.757 364.746 544.378 365.102C544.007 365.458 543.56 365.636 543.037 365.636ZM551.949 375.5V386H549.267V368.545H551.858V371.273H552.085C552.494 370.386 553.116 369.674 553.949 369.136C554.782 368.591 555.858 368.318 557.176 368.318C558.358 368.318 559.392 368.561 560.278 369.045C561.165 369.523 561.854 370.25 562.347 371.227C562.839 372.197 563.085 373.424 563.085 374.909V386H560.403V375.091C560.403 373.72 560.047 372.652 559.335 371.886C558.623 371.114 557.646 370.727 556.403 370.727C555.547 370.727 554.782 370.913 554.108 371.284C553.441 371.655 552.915 372.197 552.528 372.909C552.142 373.621 551.949 374.485 551.949 375.5ZM575.031 392.909C573.736 392.909 572.622 392.742 571.69 392.409C570.759 392.083 569.982 391.652 569.361 391.114C568.747 390.583 568.259 390.015 567.895 389.409L570.031 387.909C570.274 388.227 570.58 388.591 570.952 389C571.323 389.417 571.83 389.777 572.474 390.08C573.126 390.39 573.978 390.545 575.031 390.545C576.44 390.545 577.603 390.205 578.52 389.523C579.437 388.841 579.895 387.773 579.895 386.318V382.773H579.668C579.471 383.091 579.19 383.485 578.827 383.955C578.471 384.417 577.955 384.83 577.281 385.193C576.615 385.549 575.713 385.727 574.577 385.727C573.168 385.727 571.902 385.394 570.781 384.727C569.668 384.061 568.785 383.091 568.134 381.818C567.49 380.545 567.168 379 567.168 377.182C567.168 375.394 567.482 373.837 568.111 372.511C568.74 371.178 569.615 370.148 570.736 369.42C571.857 368.686 573.152 368.318 574.622 368.318C575.759 368.318 576.66 368.508 577.327 368.886C578.001 369.258 578.516 369.682 578.872 370.159C579.236 370.629 579.516 371.015 579.713 371.318H579.986V368.545H582.577V386.5C582.577 388 582.236 389.22 581.554 390.159C580.88 391.106 579.971 391.799 578.827 392.239C577.69 392.686 576.425 392.909 575.031 392.909ZM574.94 383.318C576.016 383.318 576.925 383.072 577.668 382.58C578.41 382.087 578.974 381.379 579.361 380.455C579.747 379.53 579.94 378.424 579.94 377.136C579.94 375.879 579.751 374.769 579.372 373.807C578.993 372.845 578.433 372.091 577.69 371.545C576.948 371 576.031 370.727 574.94 370.727C573.804 370.727 572.857 371.015 572.099 371.591C571.349 372.167 570.785 372.939 570.406 373.909C570.035 374.879 569.849 375.955 569.849 377.136C569.849 378.348 570.039 379.42 570.418 380.352C570.804 381.277 571.372 382.004 572.122 382.534C572.88 383.057 573.819 383.318 574.94 383.318ZM604.259 368.545V370.818H594.849V368.545H604.259ZM597.668 386V366.136C597.668 365.136 597.902 364.303 598.372 363.636C598.842 362.97 599.452 362.47 600.202 362.136C600.952 361.803 601.743 361.636 602.577 361.636C603.236 361.636 603.774 361.689 604.19 361.795C604.607 361.902 604.918 362 605.122 362.091L604.349 364.409C604.213 364.364 604.024 364.307 603.781 364.239C603.546 364.17 603.236 364.136 602.849 364.136C601.963 364.136 601.323 364.36 600.929 364.807C600.543 365.254 600.349 365.909 600.349 366.773V386H597.668ZM614.616 386.364C612.935 386.364 611.484 385.992 610.264 385.25C609.052 384.5 608.116 383.455 607.457 382.114C606.806 380.765 606.48 379.197 606.48 377.409C606.48 375.621 606.806 374.045 607.457 372.682C608.116 371.311 609.033 370.242 610.207 369.477C611.389 368.705 612.768 368.318 614.344 368.318C615.253 368.318 616.151 368.47 617.037 368.773C617.923 369.076 618.73 369.568 619.457 370.25C620.185 370.924 620.764 371.818 621.196 372.932C621.628 374.045 621.844 375.417 621.844 377.045V378.182H608.389V375.864H619.116C619.116 374.879 618.92 374 618.526 373.227C618.139 372.455 617.586 371.845 616.866 371.398C616.154 370.951 615.313 370.727 614.344 370.727C613.276 370.727 612.351 370.992 611.571 371.523C610.798 372.045 610.204 372.727 609.787 373.568C609.37 374.409 609.162 375.311 609.162 376.273V377.818C609.162 379.136 609.389 380.254 609.844 381.17C610.306 382.08 610.946 382.773 611.764 383.25C612.582 383.72 613.533 383.955 614.616 383.955C615.321 383.955 615.957 383.856 616.526 383.659C617.101 383.455 617.598 383.152 618.014 382.75C618.431 382.341 618.753 381.833 618.98 381.227L621.571 381.955C621.298 382.833 620.84 383.606 620.196 384.273C619.552 384.932 618.757 385.447 617.81 385.818C616.863 386.182 615.798 386.364 614.616 386.364ZM631.06 386.409C629.954 386.409 628.95 386.201 628.048 385.784C627.147 385.36 626.431 384.75 625.901 383.955C625.37 383.152 625.105 382.182 625.105 381.045C625.105 380.045 625.302 379.235 625.696 378.614C626.09 377.985 626.616 377.492 627.276 377.136C627.935 376.78 628.662 376.515 629.457 376.341C630.26 376.159 631.067 376.015 631.878 375.909C632.938 375.773 633.798 375.67 634.457 375.602C635.124 375.527 635.609 375.402 635.912 375.227C636.223 375.053 636.378 374.75 636.378 374.318V374.227C636.378 373.106 636.071 372.235 635.457 371.614C634.851 370.992 633.931 370.682 632.696 370.682C631.416 370.682 630.412 370.962 629.685 371.523C628.957 372.083 628.446 372.682 628.151 373.318L625.605 372.409C626.06 371.348 626.666 370.523 627.423 369.932C628.188 369.333 629.022 368.917 629.923 368.682C630.832 368.439 631.726 368.318 632.605 368.318C633.166 368.318 633.81 368.386 634.537 368.523C635.272 368.652 635.98 368.92 636.662 369.33C637.351 369.739 637.923 370.356 638.378 371.182C638.832 372.008 639.06 373.114 639.06 374.5V386H636.378V383.636H636.241C636.06 384.015 635.757 384.42 635.332 384.852C634.908 385.284 634.344 385.652 633.639 385.955C632.935 386.258 632.075 386.409 631.06 386.409ZM631.469 384C632.529 384 633.423 383.792 634.151 383.375C634.885 382.958 635.438 382.42 635.81 381.761C636.188 381.102 636.378 380.409 636.378 379.682V377.227C636.264 377.364 636.014 377.489 635.628 377.602C635.249 377.708 634.81 377.803 634.31 377.886C633.817 377.962 633.336 378.03 632.866 378.091C632.404 378.144 632.029 378.189 631.741 378.227C631.045 378.318 630.393 378.466 629.787 378.67C629.188 378.867 628.704 379.167 628.332 379.568C627.969 379.962 627.787 380.5 627.787 381.182C627.787 382.114 628.132 382.818 628.821 383.295C629.518 383.765 630.401 384 631.469 384ZM651.545 368.545V370.818H642.5V368.545H651.545ZM645.136 364.364H647.818V381C647.818 381.758 647.928 382.326 648.148 382.705C648.375 383.076 648.663 383.326 649.011 383.455C649.367 383.576 649.742 383.636 650.136 383.636C650.432 383.636 650.674 383.621 650.864 383.591C651.053 383.553 651.205 383.523 651.318 383.5L651.864 385.909C651.682 385.977 651.428 386.045 651.102 386.114C650.777 386.189 650.364 386.227 649.864 386.227C649.106 386.227 648.364 386.064 647.636 385.739C646.917 385.413 646.318 384.917 645.841 384.25C645.371 383.583 645.136 382.742 645.136 381.727V364.364ZM666.58 378.864V368.545H669.261V386H666.58V383.045H666.398C665.989 383.932 665.352 384.686 664.489 385.307C663.625 385.92 662.534 386.227 661.216 386.227C660.125 386.227 659.155 385.989 658.307 385.511C657.458 385.027 656.792 384.299 656.307 383.33C655.822 382.352 655.58 381.121 655.58 379.636V368.545H658.261V379.455C658.261 380.727 658.617 381.742 659.33 382.5C660.049 383.258 660.966 383.636 662.08 383.636C662.746 383.636 663.424 383.466 664.114 383.125C664.811 382.784 665.394 382.261 665.864 381.557C666.341 380.852 666.58 379.955 666.58 378.864ZM674.173 386V368.545H676.764V371.182H676.946C677.264 370.318 677.84 369.617 678.673 369.08C679.507 368.542 680.446 368.273 681.491 368.273C681.688 368.273 681.935 368.277 682.23 368.284C682.526 368.292 682.749 368.303 682.901 368.318V371.045C682.81 371.023 682.601 370.989 682.276 370.943C681.957 370.89 681.62 370.864 681.264 370.864C680.416 370.864 679.658 371.042 678.991 371.398C678.332 371.746 677.81 372.231 677.423 372.852C677.045 373.466 676.855 374.167 676.855 374.955V386H674.173ZM692.866 386.364C691.185 386.364 689.734 385.992 688.514 385.25C687.302 384.5 686.366 383.455 685.707 382.114C685.056 380.765 684.73 379.197 684.73 377.409C684.73 375.621 685.056 374.045 685.707 372.682C686.366 371.311 687.283 370.242 688.457 369.477C689.639 368.705 691.018 368.318 692.594 368.318C693.503 368.318 694.401 368.47 695.287 368.773C696.173 369.076 696.98 369.568 697.707 370.25C698.435 370.924 699.014 371.818 699.446 372.932C699.878 374.045 700.094 375.417 700.094 377.045V378.182H686.639V375.864H697.366C697.366 374.879 697.17 374 696.776 373.227C696.389 372.455 695.836 371.845 695.116 371.398C694.404 370.951 693.563 370.727 692.594 370.727C691.526 370.727 690.601 370.992 689.821 371.523C689.048 372.045 688.454 372.727 688.037 373.568C687.62 374.409 687.412 375.311 687.412 376.273V377.818C687.412 379.136 687.639 380.254 688.094 381.17C688.556 382.08 689.196 382.773 690.014 383.25C690.832 383.72 691.783 383.955 692.866 383.955C693.571 383.955 694.207 383.856 694.776 383.659C695.351 383.455 695.848 383.152 696.264 382.75C696.681 382.341 697.003 381.833 697.23 381.227L699.821 381.955C699.548 382.833 699.09 383.606 698.446 384.273C697.802 384.932 697.007 385.447 696.06 385.818C695.113 386.182 694.048 386.364 692.866 386.364ZM716.537 372.455L714.128 373.136C713.976 372.735 713.753 372.345 713.457 371.966C713.17 371.58 712.776 371.261 712.276 371.011C711.776 370.761 711.135 370.636 710.355 370.636C709.287 370.636 708.397 370.883 707.685 371.375C706.98 371.86 706.628 372.477 706.628 373.227C706.628 373.894 706.87 374.42 707.355 374.807C707.84 375.193 708.598 375.515 709.628 375.773L712.219 376.409C713.779 376.788 714.942 377.367 715.707 378.148C716.473 378.92 716.855 379.917 716.855 381.136C716.855 382.136 716.567 383.03 715.991 383.818C715.423 384.606 714.628 385.227 713.605 385.682C712.582 386.136 711.393 386.364 710.037 386.364C708.257 386.364 706.783 385.977 705.616 385.205C704.45 384.432 703.711 383.303 703.401 381.818L705.946 381.182C706.188 382.121 706.647 382.826 707.321 383.295C708.003 383.765 708.893 384 709.991 384C711.241 384 712.234 383.735 712.969 383.205C713.711 382.667 714.082 382.023 714.082 381.273C714.082 380.667 713.87 380.159 713.446 379.75C713.022 379.333 712.37 379.023 711.491 378.818L708.582 378.136C706.984 377.758 705.81 377.17 705.06 376.375C704.317 375.572 703.946 374.568 703.946 373.364C703.946 372.379 704.223 371.508 704.776 370.75C705.336 369.992 706.098 369.398 707.06 368.966C708.029 368.534 709.128 368.318 710.355 368.318C712.082 368.318 713.438 368.697 714.423 369.455C715.416 370.212 716.12 371.212 716.537 372.455ZM737.665 368.545V370.818H728.256V368.545H737.665ZM731.074 386V366.136C731.074 365.136 731.309 364.303 731.778 363.636C732.248 362.97 732.858 362.47 733.608 362.136C734.358 361.803 735.15 361.636 735.983 361.636C736.642 361.636 737.18 361.689 737.597 361.795C738.013 361.902 738.324 362 738.528 362.091L737.756 364.409C737.619 364.364 737.43 364.307 737.188 364.239C736.953 364.17 736.642 364.136 736.256 364.136C735.369 364.136 734.729 364.36 734.335 364.807C733.949 365.254 733.756 365.909 733.756 366.773V386H731.074ZM747.795 386.364C746.22 386.364 744.837 385.989 743.648 385.239C742.466 384.489 741.542 383.439 740.875 382.091C740.216 380.742 739.886 379.167 739.886 377.364C739.886 375.545 740.216 373.958 740.875 372.602C741.542 371.246 742.466 370.193 743.648 369.443C744.837 368.693 746.22 368.318 747.795 368.318C749.371 368.318 750.75 368.693 751.932 369.443C753.121 370.193 754.045 371.246 754.705 372.602C755.371 373.958 755.705 375.545 755.705 377.364C755.705 379.167 755.371 380.742 754.705 382.091C754.045 383.439 753.121 384.489 751.932 385.239C750.75 385.989 749.371 386.364 747.795 386.364ZM747.795 383.955C748.992 383.955 749.977 383.648 750.75 383.034C751.523 382.42 752.095 381.614 752.466 380.614C752.837 379.614 753.023 378.53 753.023 377.364C753.023 376.197 752.837 375.11 752.466 374.102C752.095 373.095 751.523 372.28 750.75 371.659C749.977 371.038 748.992 370.727 747.795 370.727C746.598 370.727 745.614 371.038 744.841 371.659C744.068 372.28 743.496 373.095 743.125 374.102C742.754 375.11 742.568 376.197 742.568 377.364C742.568 378.53 742.754 379.614 743.125 380.614C743.496 381.614 744.068 382.42 744.841 383.034C745.614 383.648 746.598 383.955 747.795 383.955ZM759.798 386V368.545H762.389V371.182H762.571C762.889 370.318 763.465 369.617 764.298 369.08C765.132 368.542 766.071 368.273 767.116 368.273C767.313 368.273 767.56 368.277 767.855 368.284C768.151 368.292 768.374 368.303 768.526 368.318V371.045C768.435 371.023 768.226 370.989 767.901 370.943C767.582 370.89 767.245 370.864 766.889 370.864C766.041 370.864 765.283 371.042 764.616 371.398C763.957 371.746 763.435 372.231 763.048 372.852C762.67 373.466 762.48 374.167 762.48 374.955V386H759.798ZM780.705 386V368.545H783.386V386H780.705ZM782.068 365.636C781.545 365.636 781.095 365.458 780.716 365.102C780.345 364.746 780.159 364.318 780.159 363.818C780.159 363.318 780.345 362.89 780.716 362.534C781.095 362.178 781.545 362 782.068 362C782.591 362 783.038 362.178 783.409 362.534C783.788 362.89 783.977 363.318 783.977 363.818C783.977 364.318 783.788 364.746 783.409 365.102C783.038 365.458 782.591 365.636 782.068 365.636ZM790.98 375.5V386H788.298V368.545H790.889V371.273H791.116C791.526 370.386 792.147 369.674 792.98 369.136C793.813 368.591 794.889 368.318 796.207 368.318C797.389 368.318 798.423 368.561 799.31 369.045C800.196 369.523 800.885 370.25 801.378 371.227C801.87 372.197 802.116 373.424 802.116 374.909V386H799.435V375.091C799.435 373.72 799.079 372.652 798.366 371.886C797.654 371.114 796.677 370.727 795.435 370.727C794.579 370.727 793.813 370.913 793.139 371.284C792.473 371.655 791.946 372.197 791.56 372.909C791.173 373.621 790.98 374.485 790.98 375.5ZM813.608 386.364C812.153 386.364 810.869 385.996 809.756 385.261C808.642 384.519 807.771 383.473 807.142 382.125C806.513 380.769 806.199 379.167 806.199 377.318C806.199 375.485 806.513 373.894 807.142 372.545C807.771 371.197 808.646 370.155 809.767 369.42C810.888 368.686 812.184 368.318 813.653 368.318C814.79 368.318 815.688 368.508 816.347 368.886C817.013 369.258 817.521 369.682 817.869 370.159C818.225 370.629 818.502 371.015 818.699 371.318H818.926V362.727H821.608V386H819.017V383.318H818.699C818.502 383.636 818.222 384.038 817.858 384.523C817.494 385 816.975 385.428 816.301 385.807C815.627 386.178 814.729 386.364 813.608 386.364ZM813.972 383.955C815.047 383.955 815.956 383.674 816.699 383.114C817.441 382.545 818.006 381.761 818.392 380.761C818.778 379.754 818.972 378.591 818.972 377.273C818.972 375.97 818.782 374.83 818.403 373.852C818.025 372.867 817.464 372.102 816.722 371.557C815.979 371.004 815.063 370.727 813.972 370.727C812.835 370.727 811.888 371.019 811.131 371.602C810.381 372.178 809.816 372.962 809.438 373.955C809.066 374.939 808.881 376.045 808.881 377.273C808.881 378.515 809.07 379.644 809.449 380.659C809.835 381.667 810.403 382.47 811.153 383.068C811.911 383.659 812.85 383.955 813.972 383.955ZM826.892 386V368.545H829.574V386H826.892ZM828.256 365.636C827.733 365.636 827.282 365.458 826.903 365.102C826.532 364.746 826.347 364.318 826.347 363.818C826.347 363.318 826.532 362.89 826.903 362.534C827.282 362.178 827.733 362 828.256 362C828.778 362 829.225 362.178 829.597 362.534C829.975 362.89 830.165 363.318 830.165 363.818C830.165 364.318 829.975 364.746 829.597 365.102C829.225 365.458 828.778 365.636 828.256 365.636ZM848.759 368.545L842.304 386H839.577L833.122 368.545H836.031L840.849 382.455H841.031L845.849 368.545H848.759ZM852.298 386V368.545H854.98V386H852.298ZM853.662 365.636C853.139 365.636 852.688 365.458 852.31 365.102C851.938 364.746 851.753 364.318 851.753 363.818C851.753 363.318 851.938 362.89 852.31 362.534C852.688 362.178 853.139 362 853.662 362C854.185 362 854.632 362.178 855.003 362.534C855.382 362.89 855.571 363.318 855.571 363.818C855.571 364.318 855.382 364.746 855.003 365.102C854.632 365.458 854.185 365.636 853.662 365.636ZM866.483 386.364C865.028 386.364 863.744 385.996 862.631 385.261C861.517 384.519 860.646 383.473 860.017 382.125C859.388 380.769 859.074 379.167 859.074 377.318C859.074 375.485 859.388 373.894 860.017 372.545C860.646 371.197 861.521 370.155 862.642 369.42C863.763 368.686 865.059 368.318 866.528 368.318C867.665 368.318 868.563 368.508 869.222 368.886C869.888 369.258 870.396 369.682 870.744 370.159C871.1 370.629 871.377 371.015 871.574 371.318H871.801V362.727H874.483V386H871.892V383.318H871.574C871.377 383.636 871.097 384.038 870.733 384.523C870.369 385 869.85 385.428 869.176 385.807C868.502 386.178 867.604 386.364 866.483 386.364ZM866.847 383.955C867.922 383.955 868.831 383.674 869.574 383.114C870.316 382.545 870.881 381.761 871.267 380.761C871.653 379.754 871.847 378.591 871.847 377.273C871.847 375.97 871.657 374.83 871.278 373.852C870.9 372.867 870.339 372.102 869.597 371.557C868.854 371.004 867.938 370.727 866.847 370.727C865.71 370.727 864.763 371.019 864.006 371.602C863.256 372.178 862.691 372.962 862.312 373.955C861.941 374.939 861.756 376.045 861.756 377.273C861.756 378.515 861.945 379.644 862.324 380.659C862.71 381.667 863.278 382.47 864.028 383.068C864.786 383.659 865.725 383.955 866.847 383.955ZM890.767 378.864V368.545H893.449V386H890.767V383.045H890.585C890.176 383.932 889.54 384.686 888.676 385.307C887.813 385.92 886.722 386.227 885.403 386.227C884.312 386.227 883.343 385.989 882.494 385.511C881.646 385.027 880.979 384.299 880.494 383.33C880.009 382.352 879.767 381.121 879.767 379.636V368.545H882.449V379.455C882.449 380.727 882.805 381.742 883.517 382.5C884.237 383.258 885.153 383.636 886.267 383.636C886.934 383.636 887.612 383.466 888.301 383.125C888.998 382.784 889.581 382.261 890.051 381.557C890.528 380.852 890.767 379.955 890.767 378.864ZM903.497 386.409C902.391 386.409 901.387 386.201 900.486 385.784C899.584 385.36 898.868 384.75 898.338 383.955C897.808 383.152 897.543 382.182 897.543 381.045C897.543 380.045 897.74 379.235 898.134 378.614C898.527 377.985 899.054 377.492 899.713 377.136C900.372 376.78 901.099 376.515 901.895 376.341C902.698 376.159 903.505 376.015 904.315 375.909C905.376 375.773 906.236 375.67 906.895 375.602C907.562 375.527 908.046 375.402 908.349 375.227C908.66 375.053 908.815 374.75 908.815 374.318V374.227C908.815 373.106 908.509 372.235 907.895 371.614C907.289 370.992 906.368 370.682 905.134 370.682C903.853 370.682 902.849 370.962 902.122 371.523C901.395 372.083 900.884 372.682 900.588 373.318L898.043 372.409C898.497 371.348 899.103 370.523 899.861 369.932C900.626 369.333 901.459 368.917 902.361 368.682C903.27 368.439 904.164 368.318 905.043 368.318C905.603 368.318 906.247 368.386 906.974 368.523C907.709 368.652 908.418 368.92 909.099 369.33C909.789 369.739 910.361 370.356 910.815 371.182C911.27 372.008 911.497 373.114 911.497 374.5V386H908.815V383.636H908.679C908.497 384.015 908.194 384.42 907.77 384.852C907.346 385.284 906.781 385.652 906.077 385.955C905.372 386.258 904.512 386.409 903.497 386.409ZM903.906 384C904.967 384 905.861 383.792 906.588 383.375C907.323 382.958 907.876 382.42 908.247 381.761C908.626 381.102 908.815 380.409 908.815 379.682V377.227C908.702 377.364 908.452 377.489 908.065 377.602C907.687 377.708 907.247 377.803 906.747 377.886C906.255 377.962 905.774 378.03 905.304 378.091C904.842 378.144 904.467 378.189 904.179 378.227C903.482 378.318 902.83 378.466 902.224 378.67C901.626 378.867 901.141 379.167 900.77 379.568C900.406 379.962 900.224 380.5 900.224 381.182C900.224 382.114 900.569 382.818 901.259 383.295C901.955 383.765 902.838 384 903.906 384ZM919.074 362.727V386H916.392V362.727H919.074ZM943.986 378.864V368.545H946.668V386H943.986V383.045H943.804C943.395 383.932 942.759 384.686 941.895 385.307C941.031 385.92 939.94 386.227 938.622 386.227C937.531 386.227 936.562 385.989 935.713 385.511C934.865 385.027 934.198 384.299 933.713 383.33C933.228 382.352 932.986 381.121 932.986 379.636V368.545H935.668V379.455C935.668 380.727 936.024 381.742 936.736 382.5C937.455 383.258 938.372 383.636 939.486 383.636C940.152 383.636 940.83 383.466 941.52 383.125C942.217 382.784 942.8 382.261 943.27 381.557C943.747 380.852 943.986 379.955 943.986 378.864ZM963.943 372.455L961.534 373.136C961.383 372.735 961.159 372.345 960.864 371.966C960.576 371.58 960.182 371.261 959.682 371.011C959.182 370.761 958.542 370.636 957.761 370.636C956.693 370.636 955.803 370.883 955.091 371.375C954.386 371.86 954.034 372.477 954.034 373.227C954.034 373.894 954.277 374.42 954.761 374.807C955.246 375.193 956.004 375.515 957.034 375.773L959.625 376.409C961.186 376.788 962.348 377.367 963.114 378.148C963.879 378.92 964.261 379.917 964.261 381.136C964.261 382.136 963.973 383.03 963.398 383.818C962.83 384.606 962.034 385.227 961.011 385.682C959.989 386.136 958.799 386.364 957.443 386.364C955.663 386.364 954.189 385.977 953.023 385.205C951.856 384.432 951.117 383.303 950.807 381.818L953.352 381.182C953.595 382.121 954.053 382.826 954.727 383.295C955.409 383.765 956.299 384 957.398 384C958.648 384 959.64 383.735 960.375 383.205C961.117 382.667 961.489 382.023 961.489 381.273C961.489 380.667 961.277 380.159 960.852 379.75C960.428 379.333 959.777 379.023 958.898 378.818L955.989 378.136C954.39 377.758 953.216 377.17 952.466 376.375C951.723 375.572 951.352 374.568 951.352 373.364C951.352 372.379 951.629 371.508 952.182 370.75C952.742 369.992 953.504 369.398 954.466 368.966C955.436 368.534 956.534 368.318 957.761 368.318C959.489 368.318 960.845 368.697 961.83 369.455C962.822 370.212 963.527 371.212 963.943 372.455ZM975.616 386.364C973.935 386.364 972.484 385.992 971.264 385.25C970.052 384.5 969.116 383.455 968.457 382.114C967.806 380.765 967.48 379.197 967.48 377.409C967.48 375.621 967.806 374.045 968.457 372.682C969.116 371.311 970.033 370.242 971.207 369.477C972.389 368.705 973.768 368.318 975.344 368.318C976.253 368.318 977.151 368.47 978.037 368.773C978.923 369.076 979.73 369.568 980.457 370.25C981.185 370.924 981.764 371.818 982.196 372.932C982.628 374.045 982.844 375.417 982.844 377.045V378.182H969.389V375.864H980.116C980.116 374.879 979.92 374 979.526 373.227C979.139 372.455 978.586 371.845 977.866 371.398C977.154 370.951 976.313 370.727 975.344 370.727C974.276 370.727 973.351 370.992 972.571 371.523C971.798 372.045 971.204 372.727 970.787 373.568C970.37 374.409 970.162 375.311 970.162 376.273V377.818C970.162 379.136 970.389 380.254 970.844 381.17C971.306 382.08 971.946 382.773 972.764 383.25C973.582 383.72 974.533 383.955 975.616 383.955C976.321 383.955 976.957 383.856 977.526 383.659C978.101 383.455 978.598 383.152 979.014 382.75C979.431 382.341 979.753 381.833 979.98 381.227L982.571 381.955C982.298 382.833 981.84 383.606 981.196 384.273C980.552 384.932 979.757 385.447 978.81 385.818C977.863 386.182 976.798 386.364 975.616 386.364ZM986.923 386V368.545H989.514V371.182H989.696C990.014 370.318 990.59 369.617 991.423 369.08C992.257 368.542 993.196 368.273 994.241 368.273C994.438 368.273 994.685 368.277 994.98 368.284C995.276 368.292 995.499 368.303 995.651 368.318V371.045C995.56 371.023 995.351 370.989 995.026 370.943C994.707 370.89 994.37 370.864 994.014 370.864C993.166 370.864 992.408 371.042 991.741 371.398C991.082 371.746 990.56 372.231 990.173 372.852C989.795 373.466 989.605 374.167 989.605 374.955V386H986.923ZM1011.19 372.455L1008.78 373.136C1008.63 372.735 1008.41 372.345 1008.11 371.966C1007.83 371.58 1007.43 371.261 1006.93 371.011C1006.43 370.761 1005.79 370.636 1005.01 370.636C1003.94 370.636 1003.05 370.883 1002.34 371.375C1001.64 371.86 1001.28 372.477 1001.28 373.227C1001.28 373.894 1001.53 374.42 1002.01 374.807C1002.5 375.193 1003.25 375.515 1004.28 375.773L1006.88 376.409C1008.44 376.788 1009.6 377.367 1010.36 378.148C1011.13 378.92 1011.51 379.917 1011.51 381.136C1011.51 382.136 1011.22 383.03 1010.65 383.818C1010.08 384.606 1009.28 385.227 1008.26 385.682C1007.24 386.136 1006.05 386.364 1004.69 386.364C1002.91 386.364 1001.44 385.977 1000.27 385.205C999.106 384.432 998.367 383.303 998.057 381.818L1000.6 381.182C1000.84 382.121 1001.3 382.826 1001.98 383.295C1002.66 383.765 1003.55 384 1004.65 384C1005.9 384 1006.89 383.735 1007.62 383.205C1008.37 382.667 1008.74 382.023 1008.74 381.273C1008.74 380.667 1008.53 380.159 1008.1 379.75C1007.68 379.333 1007.03 379.023 1006.15 378.818L1003.24 378.136C1001.64 377.758 1000.47 377.17 999.716 376.375C998.973 375.572 998.602 374.568 998.602 373.364C998.602 372.379 998.879 371.508 999.432 370.75C999.992 369.992 1000.75 369.398 1001.72 368.966C1002.69 368.534 1003.78 368.318 1005.01 368.318C1006.74 368.318 1008.09 368.697 1009.08 369.455C1010.07 370.212 1010.78 371.212 1011.19 372.455Z" fill="#666666"/>
<path d="M295.972 297.131C295.835 295.756 295.25 294.687 294.216 293.926C293.182 293.165 291.778 292.784 290.006 292.784C288.801 292.784 287.784 292.955 286.955 293.295C286.125 293.625 285.489 294.085 285.045 294.676C284.614 295.267 284.398 295.938 284.398 296.688C284.375 297.312 284.506 297.858 284.79 298.324C285.085 298.79 285.489 299.193 286 299.534C286.511 299.864 287.102 300.153 287.773 300.403C288.443 300.642 289.159 300.847 289.92 301.017L293.057 301.767C294.58 302.108 295.977 302.562 297.25 303.131C298.523 303.699 299.625 304.398 300.557 305.227C301.489 306.057 302.21 307.034 302.722 308.159C303.244 309.284 303.511 310.574 303.523 312.028C303.511 314.165 302.966 316.017 301.886 317.585C300.818 319.142 299.273 320.352 297.25 321.216C295.239 322.068 292.813 322.494 289.972 322.494C287.153 322.494 284.699 322.062 282.608 321.199C280.528 320.335 278.903 319.057 277.733 317.364C276.574 315.659 275.966 313.551 275.909 311.04H283.051C283.131 312.21 283.466 313.187 284.057 313.972C284.659 314.744 285.46 315.33 286.46 315.727C287.472 316.114 288.614 316.307 289.886 316.307C291.136 316.307 292.222 316.125 293.142 315.761C294.074 315.398 294.795 314.892 295.307 314.244C295.818 313.597 296.074 312.852 296.074 312.011C296.074 311.227 295.841 310.568 295.375 310.034C294.92 309.5 294.25 309.045 293.364 308.67C292.489 308.295 291.415 307.955 290.142 307.648L286.341 306.693C283.398 305.977 281.074 304.858 279.369 303.335C277.665 301.812 276.818 299.761 276.83 297.182C276.818 295.068 277.381 293.222 278.517 291.642C279.665 290.062 281.239 288.83 283.239 287.943C285.239 287.057 287.511 286.614 290.057 286.614C292.648 286.614 294.909 287.057 296.841 287.943C298.784 288.83 300.295 290.062 301.375 291.642C302.455 293.222 303.011 295.051 303.045 297.131H295.972ZM322.277 295.818V301.273H306.51V295.818H322.277ZM310.089 289.545H317.351V313.955C317.351 314.625 317.453 315.148 317.658 315.523C317.862 315.886 318.146 316.142 318.51 316.29C318.885 316.437 319.317 316.511 319.805 316.511C320.146 316.511 320.487 316.483 320.828 316.426C321.169 316.358 321.43 316.307 321.612 316.273L322.754 321.676C322.391 321.79 321.879 321.92 321.22 322.068C320.561 322.227 319.76 322.324 318.817 322.358C317.067 322.426 315.533 322.193 314.214 321.659C312.908 321.125 311.891 320.295 311.163 319.17C310.436 318.045 310.078 316.625 310.089 314.909V289.545ZM334.473 322.494C332.803 322.494 331.314 322.205 330.007 321.625C328.7 321.034 327.666 320.165 326.905 319.017C326.155 317.858 325.78 316.415 325.78 314.688C325.78 313.233 326.047 312.011 326.581 311.023C327.115 310.034 327.842 309.239 328.763 308.636C329.683 308.034 330.729 307.58 331.899 307.273C333.081 306.966 334.32 306.75 335.615 306.625C337.138 306.466 338.365 306.318 339.297 306.182C340.229 306.034 340.905 305.818 341.325 305.534C341.746 305.25 341.956 304.83 341.956 304.273V304.17C341.956 303.091 341.615 302.256 340.933 301.665C340.263 301.074 339.308 300.778 338.07 300.778C336.763 300.778 335.723 301.068 334.95 301.648C334.178 302.216 333.666 302.932 333.416 303.795L326.7 303.25C327.041 301.659 327.712 300.284 328.712 299.125C329.712 297.955 331.001 297.057 332.581 296.432C334.172 295.795 336.013 295.477 338.104 295.477C339.558 295.477 340.95 295.648 342.28 295.989C343.621 296.33 344.808 296.858 345.842 297.574C346.888 298.29 347.712 299.21 348.314 300.335C348.916 301.449 349.217 302.784 349.217 304.341V322H342.331V318.369H342.126C341.706 319.188 341.143 319.909 340.439 320.534C339.734 321.148 338.888 321.631 337.899 321.983C336.911 322.324 335.768 322.494 334.473 322.494ZM336.553 317.483C337.621 317.483 338.564 317.273 339.382 316.852C340.2 316.42 340.842 315.841 341.308 315.114C341.774 314.386 342.007 313.562 342.007 312.642V309.864C341.78 310.011 341.467 310.148 341.07 310.273C340.683 310.386 340.246 310.494 339.757 310.597C339.268 310.687 338.78 310.773 338.291 310.852C337.803 310.92 337.359 310.983 336.962 311.04C336.109 311.165 335.365 311.364 334.729 311.636C334.092 311.909 333.598 312.278 333.246 312.744C332.893 313.199 332.717 313.767 332.717 314.449C332.717 315.438 333.075 316.193 333.791 316.716C334.518 317.227 335.439 317.483 336.553 317.483ZM362.112 306.864V322H354.851V295.818H361.771V300.438H362.078C362.658 298.915 363.629 297.71 364.993 296.824C366.357 295.926 368.01 295.477 369.953 295.477C371.771 295.477 373.357 295.875 374.709 296.67C376.061 297.466 377.112 298.602 377.862 300.08C378.612 301.545 378.987 303.295 378.987 305.33V322H371.726V306.625C371.737 305.023 371.328 303.773 370.499 302.875C369.669 301.966 368.527 301.511 367.072 301.511C366.095 301.511 365.232 301.722 364.482 302.142C363.743 302.562 363.163 303.176 362.743 303.983C362.334 304.778 362.124 305.739 362.112 306.864ZM394.358 322.426C392.369 322.426 390.568 321.915 388.955 320.892C387.352 319.858 386.08 318.341 385.136 316.341C384.205 314.33 383.739 311.864 383.739 308.943C383.739 305.943 384.222 303.449 385.188 301.46C386.153 299.46 387.438 297.966 389.04 296.977C390.653 295.977 392.42 295.477 394.341 295.477C395.807 295.477 397.028 295.727 398.006 296.227C398.994 296.716 399.79 297.33 400.392 298.068C401.006 298.795 401.472 299.511 401.79 300.216H402.011V287.091H409.256V322H402.097V317.807H401.79C401.449 318.534 400.966 319.256 400.341 319.972C399.727 320.676 398.926 321.261 397.938 321.727C396.96 322.193 395.767 322.426 394.358 322.426ZM396.659 316.648C397.83 316.648 398.818 316.33 399.625 315.693C400.443 315.045 401.068 314.142 401.5 312.983C401.943 311.824 402.165 310.466 402.165 308.909C402.165 307.352 401.949 306 401.517 304.852C401.085 303.705 400.46 302.818 399.642 302.193C398.824 301.568 397.83 301.256 396.659 301.256C395.466 301.256 394.46 301.58 393.642 302.227C392.824 302.875 392.205 303.773 391.784 304.92C391.364 306.068 391.153 307.398 391.153 308.909C391.153 310.432 391.364 311.778 391.784 312.949C392.216 314.108 392.835 315.017 393.642 315.676C394.46 316.324 395.466 316.648 396.659 316.648ZM422.692 322.494C421.021 322.494 419.533 322.205 418.226 321.625C416.919 321.034 415.885 320.165 415.124 319.017C414.374 317.858 413.999 316.415 413.999 314.688C413.999 313.233 414.266 312.011 414.8 311.023C415.334 310.034 416.061 309.239 416.982 308.636C417.902 308.034 418.947 307.58 420.118 307.273C421.3 306.966 422.538 306.75 423.834 306.625C425.357 306.466 426.584 306.318 427.516 306.182C428.447 306.034 429.124 305.818 429.544 305.534C429.964 305.25 430.175 304.83 430.175 304.273V304.17C430.175 303.091 429.834 302.256 429.152 301.665C428.482 301.074 427.527 300.778 426.288 300.778C424.982 300.778 423.942 301.068 423.169 301.648C422.396 302.216 421.885 302.932 421.635 303.795L414.919 303.25C415.26 301.659 415.93 300.284 416.93 299.125C417.93 297.955 419.22 297.057 420.8 296.432C422.391 295.795 424.232 295.477 426.322 295.477C427.777 295.477 429.169 295.648 430.499 295.989C431.839 296.33 433.027 296.858 434.061 297.574C435.107 298.29 435.93 299.21 436.533 300.335C437.135 301.449 437.436 302.784 437.436 304.341V322H430.55V318.369H430.345C429.925 319.188 429.362 319.909 428.658 320.534C427.953 321.148 427.107 321.631 426.118 321.983C425.129 322.324 423.987 322.494 422.692 322.494ZM424.771 317.483C425.839 317.483 426.783 317.273 427.601 316.852C428.419 316.42 429.061 315.841 429.527 315.114C429.993 314.386 430.226 313.562 430.226 312.642V309.864C429.999 310.011 429.686 310.148 429.288 310.273C428.902 310.386 428.464 310.494 427.976 310.597C427.487 310.687 426.999 310.773 426.51 310.852C426.021 310.92 425.578 310.983 425.18 311.04C424.328 311.165 423.584 311.364 422.947 311.636C422.311 311.909 421.817 312.278 421.464 312.744C421.112 313.199 420.936 313.767 420.936 314.449C420.936 315.438 421.294 316.193 422.01 316.716C422.737 317.227 423.658 317.483 424.771 317.483ZM443.07 322V295.818H450.109V300.386H450.382C450.859 298.761 451.661 297.534 452.786 296.705C453.911 295.864 455.206 295.443 456.672 295.443C457.036 295.443 457.428 295.466 457.848 295.511C458.268 295.557 458.638 295.619 458.956 295.699V302.142C458.615 302.04 458.143 301.949 457.541 301.869C456.939 301.79 456.388 301.75 455.888 301.75C454.82 301.75 453.865 301.983 453.024 302.449C452.195 302.903 451.536 303.54 451.047 304.358C450.57 305.176 450.331 306.119 450.331 307.188V322H443.07ZM471.139 322.426C469.151 322.426 467.349 321.915 465.736 320.892C464.134 319.858 462.861 318.341 461.918 316.341C460.986 314.33 460.52 311.864 460.52 308.943C460.52 305.943 461.003 303.449 461.969 301.46C462.935 299.46 464.219 297.966 465.821 296.977C467.435 295.977 469.202 295.477 471.122 295.477C472.588 295.477 473.81 295.727 474.787 296.227C475.776 296.716 476.571 297.33 477.173 298.068C477.787 298.795 478.253 299.511 478.571 300.216H478.793V287.091H486.037V322H478.878V317.807H478.571C478.23 318.534 477.747 319.256 477.122 319.972C476.509 320.676 475.707 321.261 474.719 321.727C473.741 322.193 472.548 322.426 471.139 322.426ZM473.44 316.648C474.611 316.648 475.599 316.33 476.406 315.693C477.224 315.045 477.849 314.142 478.281 312.983C478.724 311.824 478.946 310.466 478.946 308.909C478.946 307.352 478.73 306 478.298 304.852C477.866 303.705 477.241 302.818 476.423 302.193C475.605 301.568 474.611 301.256 473.44 301.256C472.247 301.256 471.241 301.58 470.423 302.227C469.605 302.875 468.986 303.773 468.565 304.92C468.145 306.068 467.935 307.398 467.935 308.909C467.935 310.432 468.145 311.778 468.565 312.949C468.997 314.108 469.616 315.017 470.423 315.676C471.241 316.324 472.247 316.648 473.44 316.648Z" fill="#333333"/>
<path d="M100.622 146.332H96.6335C96.4801 145.48 96.1946 144.73 95.777 144.082C95.3594 143.435 94.848 142.885 94.2429 142.433C93.6378 141.982 92.9602 141.641 92.2102 141.411C91.4688 141.18 90.6804 141.065 89.8452 141.065C88.3366 141.065 86.9858 141.445 85.7926 142.203C84.608 142.962 83.6705 144.074 82.9801 145.54C82.2983 147.006 81.9574 148.795 81.9574 150.909C81.9574 153.04 82.2983 154.838 82.9801 156.304C83.6705 157.77 84.6122 158.878 85.8054 159.628C86.9986 160.378 88.3409 160.753 89.8324 160.753C90.6591 160.753 91.4432 160.642 92.1847 160.42C92.9347 160.19 93.6122 159.854 94.2173 159.411C94.8224 158.967 95.3338 158.426 95.7514 157.787C96.1776 157.139 96.4716 156.398 96.6335 155.562L100.622 155.575C100.409 156.862 99.9957 158.047 99.3821 159.129C98.777 160.203 97.9972 161.132 97.0426 161.916C96.0966 162.692 95.0142 163.293 93.7955 163.719C92.5767 164.145 91.2472 164.358 89.8068 164.358C87.5398 164.358 85.5199 163.821 83.7472 162.747C81.9744 161.665 80.5767 160.118 79.554 158.107C78.5398 156.095 78.0327 153.696 78.0327 150.909C78.0327 148.114 78.544 145.714 79.5668 143.712C80.5895 141.7 81.9872 140.158 83.7599 139.084C85.5327 138.001 87.5483 137.46 89.8068 137.46C91.196 137.46 92.4915 137.661 93.6932 138.061C94.9034 138.453 95.9901 139.033 96.9531 139.8C97.9162 140.558 98.7131 141.487 99.3438 142.587C99.9744 143.678 100.401 144.926 100.622 146.332ZM117.481 155.857V144.364H121.316V164H117.558V160.599H117.353C116.902 161.648 116.177 162.521 115.18 163.22C114.191 163.911 112.96 164.256 111.485 164.256C110.224 164.256 109.108 163.979 108.136 163.425C107.173 162.862 106.414 162.031 105.86 160.932C105.315 159.832 105.042 158.473 105.042 156.854V144.364H108.865V156.393C108.865 157.732 109.235 158.797 109.977 159.589C110.718 160.382 111.681 160.778 112.866 160.778C113.582 160.778 114.294 160.599 115.001 160.241C115.717 159.884 116.309 159.342 116.778 158.618C117.255 157.893 117.49 156.973 117.481 155.857ZM126.452 164V144.364H130.147V147.483H130.352C130.71 146.426 131.34 145.595 132.244 144.99C133.156 144.376 134.187 144.07 135.337 144.07C135.576 144.07 135.857 144.078 136.181 144.095C136.513 144.112 136.773 144.134 136.961 144.159V147.815C136.808 147.773 136.535 147.726 136.143 147.675C135.751 147.615 135.359 147.585 134.967 147.585C134.063 147.585 133.258 147.777 132.55 148.161C131.852 148.536 131.298 149.06 130.888 149.733C130.479 150.398 130.275 151.156 130.275 152.009V164H126.452ZM140.269 164V144.364H143.963V147.483H144.168C144.526 146.426 145.157 145.595 146.06 144.99C146.972 144.376 148.003 144.07 149.154 144.07C149.392 144.07 149.674 144.078 149.998 144.095C150.33 144.112 150.59 144.134 150.777 144.159V147.815C150.624 147.773 150.351 147.726 149.959 147.675C149.567 147.615 149.175 147.585 148.783 147.585C147.88 147.585 147.074 147.777 146.367 148.161C145.668 148.536 145.114 149.06 144.705 149.733C144.296 150.398 144.091 151.156 144.091 152.009V164H140.269ZM161.845 164.396C159.911 164.396 158.244 163.983 156.847 163.156C155.457 162.321 154.384 161.149 153.625 159.641C152.875 158.124 152.5 156.347 152.5 154.31C152.5 152.298 152.875 150.526 153.625 148.991C154.384 147.457 155.44 146.26 156.795 145.399C158.159 144.538 159.753 144.108 161.577 144.108C162.685 144.108 163.759 144.291 164.798 144.658C165.838 145.024 166.771 145.599 167.598 146.384C168.425 147.168 169.077 148.186 169.554 149.439C170.031 150.683 170.27 152.196 170.27 153.977V155.332H154.661V152.469H166.524C166.524 151.463 166.32 150.572 165.911 149.797C165.501 149.013 164.926 148.395 164.185 147.943C163.452 147.491 162.591 147.266 161.602 147.266C160.528 147.266 159.591 147.53 158.79 148.058C157.997 148.578 157.384 149.26 156.949 150.104C156.523 150.939 156.31 151.847 156.31 152.827V155.064C156.31 156.376 156.54 157.493 157 158.413C157.469 159.334 158.121 160.037 158.956 160.523C159.791 161 160.767 161.239 161.884 161.239C162.608 161.239 163.268 161.136 163.865 160.932C164.462 160.719 164.977 160.403 165.412 159.986C165.847 159.568 166.179 159.053 166.409 158.439L170.027 159.091C169.737 160.156 169.217 161.089 168.467 161.891C167.726 162.683 166.793 163.301 165.668 163.744C164.551 164.179 163.277 164.396 161.845 164.396ZM178.333 152.341V164H174.511V144.364H178.18V147.56H178.423C178.875 146.52 179.582 145.685 180.545 145.054C181.517 144.423 182.74 144.108 184.214 144.108C185.552 144.108 186.724 144.389 187.73 144.952C188.735 145.506 189.515 146.332 190.069 147.432C190.623 148.531 190.9 149.891 190.9 151.51V164H187.078V151.97C187.078 150.547 186.707 149.435 185.966 148.634C185.224 147.824 184.206 147.419 182.91 147.419C182.024 147.419 181.235 147.611 180.545 147.994C179.863 148.378 179.322 148.94 178.922 149.682C178.529 150.415 178.333 151.301 178.333 152.341ZM205.193 144.364V147.432H194.467V144.364H205.193ZM197.343 139.659H201.166V158.234C201.166 158.976 201.277 159.534 201.498 159.909C201.72 160.276 202.005 160.527 202.355 160.663C202.713 160.791 203.1 160.855 203.518 160.855C203.825 160.855 204.093 160.834 204.324 160.791C204.554 160.749 204.733 160.714 204.86 160.689L205.551 163.847C205.329 163.932 205.014 164.017 204.605 164.102C204.196 164.196 203.684 164.247 203.071 164.256C202.065 164.273 201.127 164.094 200.258 163.719C199.389 163.344 198.686 162.764 198.149 161.98C197.612 161.196 197.343 160.212 197.343 159.027V139.659ZM218.949 171.364V144.364H222.681V147.547H223.001C223.223 147.138 223.542 146.665 223.96 146.128C224.377 145.591 224.957 145.122 225.699 144.722C226.44 144.312 227.42 144.108 228.639 144.108C230.224 144.108 231.639 144.509 232.883 145.31C234.127 146.111 235.103 147.266 235.811 148.774C236.527 150.283 236.885 152.098 236.885 154.22C236.885 156.342 236.531 158.162 235.824 159.679C235.116 161.187 234.145 162.351 232.909 163.169C231.673 163.979 230.262 164.384 228.677 164.384C227.484 164.384 226.508 164.183 225.75 163.783C225 163.382 224.412 162.913 223.985 162.376C223.559 161.839 223.231 161.362 223.001 160.945H222.771V171.364H218.949ZM222.694 154.182C222.694 155.562 222.895 156.773 223.295 157.812C223.696 158.852 224.275 159.666 225.034 160.254C225.792 160.834 226.721 161.124 227.821 161.124C228.963 161.124 229.917 160.821 230.684 160.216C231.451 159.602 232.031 158.771 232.423 157.723C232.824 156.675 233.024 155.494 233.024 154.182C233.024 152.886 232.828 151.723 232.436 150.692C232.052 149.661 231.473 148.847 230.697 148.25C229.93 147.653 228.971 147.355 227.821 147.355C226.713 147.355 225.775 147.641 225.008 148.212C224.25 148.783 223.674 149.58 223.282 150.602C222.89 151.625 222.694 152.818 222.694 154.182ZM244.99 137.818V164H241.167V137.818H244.99ZM255.847 164.435C254.602 164.435 253.477 164.205 252.472 163.744C251.466 163.276 250.669 162.598 250.081 161.712C249.501 160.825 249.212 159.739 249.212 158.452C249.212 157.344 249.425 156.432 249.851 155.716C250.277 155 250.852 154.433 251.577 154.016C252.301 153.598 253.111 153.283 254.006 153.07C254.901 152.857 255.813 152.695 256.741 152.584C257.918 152.447 258.872 152.337 259.605 152.251C260.338 152.158 260.871 152.009 261.203 151.804C261.536 151.599 261.702 151.267 261.702 150.807V150.717C261.702 149.601 261.386 148.736 260.756 148.122C260.134 147.509 259.205 147.202 257.969 147.202C256.682 147.202 255.668 147.487 254.926 148.058C254.193 148.621 253.686 149.247 253.405 149.938L249.812 149.119C250.239 147.926 250.861 146.963 251.679 146.23C252.506 145.489 253.456 144.952 254.53 144.619C255.604 144.278 256.733 144.108 257.918 144.108C258.702 144.108 259.533 144.202 260.411 144.389C261.297 144.568 262.124 144.901 262.891 145.386C263.666 145.872 264.301 146.567 264.795 147.47C265.29 148.365 265.537 149.528 265.537 150.96V164H261.804V161.315H261.651C261.403 161.81 261.033 162.295 260.538 162.773C260.044 163.25 259.409 163.646 258.634 163.962C257.858 164.277 256.929 164.435 255.847 164.435ZM256.678 161.366C257.734 161.366 258.638 161.158 259.388 160.74C260.146 160.322 260.722 159.777 261.114 159.104C261.514 158.422 261.714 157.693 261.714 156.918V154.386C261.578 154.523 261.314 154.651 260.922 154.77C260.538 154.881 260.099 154.979 259.605 155.064C259.111 155.141 258.629 155.213 258.161 155.281C257.692 155.341 257.3 155.392 256.984 155.435C256.243 155.528 255.565 155.686 254.952 155.908C254.347 156.129 253.861 156.449 253.494 156.866C253.136 157.276 252.957 157.821 252.957 158.503C252.957 159.449 253.307 160.165 254.006 160.651C254.705 161.128 255.595 161.366 256.678 161.366ZM274.451 152.341V164H270.628V144.364H274.297V147.56H274.54C274.992 146.52 275.699 145.685 276.662 145.054C277.634 144.423 278.857 144.108 280.331 144.108C281.669 144.108 282.841 144.389 283.847 144.952C284.853 145.506 285.632 146.332 286.186 147.432C286.74 148.531 287.017 149.891 287.017 151.51V164H283.195V151.97C283.195 150.547 282.824 149.435 282.083 148.634C281.341 147.824 280.323 147.419 279.027 147.419C278.141 147.419 277.353 147.611 276.662 147.994C275.98 148.378 275.439 148.94 275.039 149.682C274.647 150.415 274.451 151.301 274.451 152.341Z" fill="#666666"/>
<rect x="124" y="276" width="120" height="120" rx="12" fill="#EBEBEB"/>
<path d="M328 124C328 114.059 336.059 106 346 106C355.941 106 364 114.059 364 124C364 133.941 355.941 142 346 142C336.059 142 328 133.941 328 124Z" fill="#333333"/>
<path d="M346.018 132.199C345.042 132.199 344.171 132.031 343.404 131.695C342.642 131.358 342.038 130.892 341.593 130.295C341.153 129.694 340.916 128.998 340.883 128.207H343.113C343.141 128.638 343.286 129.012 343.546 129.33C343.811 129.642 344.157 129.884 344.583 130.054C345.009 130.224 345.483 130.31 346.004 130.31C346.576 130.31 347.083 130.21 347.523 130.011C347.969 129.812 348.317 129.536 348.567 129.18C348.818 128.821 348.944 128.406 348.944 127.938C348.944 127.45 348.818 127.021 348.567 126.652C348.321 126.278 347.959 125.984 347.481 125.771C347.007 125.558 346.434 125.452 345.762 125.452H344.533V123.662H345.762C346.302 123.662 346.775 123.565 347.183 123.371C347.594 123.177 347.916 122.907 348.148 122.561C348.38 122.211 348.496 121.801 348.496 121.332C348.496 120.883 348.395 120.492 348.191 120.161C347.992 119.824 347.708 119.562 347.339 119.372C346.974 119.183 346.543 119.088 346.046 119.088C345.573 119.088 345.13 119.176 344.718 119.351C344.311 119.521 343.979 119.768 343.724 120.089C343.468 120.407 343.331 120.788 343.312 121.233H341.188C341.212 120.447 341.444 119.756 341.884 119.159C342.329 118.562 342.916 118.096 343.646 117.76C344.375 117.424 345.184 117.256 346.075 117.256C347.007 117.256 347.812 117.438 348.489 117.803C349.171 118.162 349.697 118.643 350.066 119.244C350.44 119.846 350.625 120.504 350.62 121.219C350.625 122.033 350.397 122.724 349.938 123.293C349.484 123.861 348.878 124.242 348.12 124.436V124.55C349.086 124.696 349.834 125.08 350.364 125.7C350.899 126.321 351.165 127.09 351.16 128.009C351.165 128.809 350.942 129.526 350.492 130.161C350.047 130.795 349.439 131.295 348.667 131.659C347.895 132.019 347.012 132.199 346.018 132.199Z" fill="white"/>
<path d="M347 150C347 149.448 346.552 149 346 149C345.448 149 345 149.448 345 150H346H347ZM345.293 270.707C345.683 271.098 346.317 271.098 346.707 270.707L353.071 264.343C353.462 263.953 353.462 263.319 353.071 262.929C352.681 262.538 352.047 262.538 351.657 262.929L346 268.586L340.343 262.929C339.953 262.538 339.319 262.538 338.929 262.929C338.538 263.319 338.538 263.953 338.929 264.343L345.293 270.707ZM346 150H345V270H346H347V150H346Z" fill="#333333"/>
</g>
<defs>
<clipPath id="clip0_15283_31265">
<rect width="345" height="320" fill="white" transform="scale(2)"/>
</clipPath>
</defs>
</svg>
