<svg width="1512" height="720" viewBox="0 0 1512 720" fill="none" xmlns="http://www.w3.org/2000/svg">
<rect width="756" height="360" transform="scale(2)" fill="#F6F6F6"/>
<path d="M406 341C405.448 341 405 341.448 405 342C405 342.552 405.448 343 406 343L406 342L406 341ZM466.707 342.707C467.098 342.317 467.098 341.683 466.707 341.293L460.343 334.929C459.953 334.538 459.319 334.538 458.929 334.929C458.538 335.319 458.538 335.953 458.929 336.343L464.586 342L458.929 347.657C458.538 348.047 458.538 348.681 458.929 349.071C459.319 349.462 459.953 349.462 460.343 349.071L466.707 342.707ZM406 342L406 343L466 343L466 342L466 341L406 341L406 342Z" fill="#4D4D4D"/>
<path d="M886 341C885.448 341 885 341.448 885 342C885 342.552 885.448 343 886 343L886 342L886 341ZM946.707 342.707C947.098 342.317 947.098 341.683 946.707 341.293L940.343 334.929C939.953 334.538 939.319 334.538 938.929 334.929C938.538 335.319 938.538 335.953 938.929 336.343L944.586 342L938.929 347.657C938.538 348.047 938.538 348.681 938.929 349.071C939.319 349.462 939.953 349.462 940.343 349.071L946.707 342.707ZM886 342L886 343L946 343L946 342L946 341L886 341L886 342Z" fill="#4D4D4D"/>
<path d="M956 340C956 257.157 1023.16 190 1106 190H1206C1288.84 190 1356 257.157 1356 340C1356 422.843 1288.84 490 1206 490H1106C1023.16 490 956 422.843 956 340Z" fill="#DB0025"/>
<path d="M1020.65 335.909L1016.08 349H1011.99L1007.41 335.909H1011.24L1013.96 345.276H1014.1L1016.81 335.909H1020.65ZM1033.4 339.642L1030.08 339.847C1030.02 339.562 1029.9 339.307 1029.71 339.08C1029.53 338.847 1029.28 338.662 1028.97 338.526C1028.67 338.384 1028.31 338.312 1027.89 338.312C1027.33 338.312 1026.85 338.432 1026.47 338.67C1026.08 338.903 1025.89 339.216 1025.89 339.608C1025.89 339.92 1026.01 340.185 1026.26 340.401C1026.51 340.616 1026.94 340.79 1027.55 340.92L1029.92 341.398C1031.19 341.659 1032.14 342.08 1032.76 342.659C1033.39 343.239 1033.7 344 1033.7 344.943C1033.7 345.801 1033.45 346.554 1032.94 347.202C1032.44 347.849 1031.76 348.355 1030.88 348.719C1030.01 349.077 1029.01 349.256 1027.87 349.256C1026.14 349.256 1024.76 348.895 1023.73 348.173C1022.71 347.446 1022.11 346.457 1021.93 345.207L1025.5 345.02C1025.61 345.548 1025.87 345.952 1026.29 346.23C1026.7 346.503 1027.23 346.639 1027.88 346.639C1028.52 346.639 1029.03 346.517 1029.41 346.273C1029.81 346.023 1030.01 345.702 1030.01 345.31C1030.01 344.98 1029.87 344.71 1029.59 344.5C1029.32 344.284 1028.9 344.119 1028.33 344.006L1026.07 343.554C1024.79 343.298 1023.84 342.855 1023.21 342.224C1022.59 341.594 1022.28 340.79 1022.28 339.812C1022.28 338.972 1022.51 338.247 1022.96 337.639C1023.42 337.031 1024.07 336.562 1024.9 336.233C1025.73 335.903 1026.71 335.739 1027.83 335.739C1029.48 335.739 1030.78 336.088 1031.73 336.787C1032.69 337.486 1033.24 338.437 1033.4 339.642ZM1040.81 349.213C1039.82 349.213 1038.92 348.957 1038.11 348.446C1037.31 347.929 1036.67 347.17 1036.2 346.17C1035.74 345.165 1035.5 343.932 1035.5 342.472C1035.5 340.972 1035.74 339.724 1036.23 338.73C1036.71 337.73 1037.35 336.983 1038.15 336.489C1038.96 335.989 1039.84 335.739 1040.8 335.739C1041.54 335.739 1042.15 335.864 1042.64 336.114C1043.13 336.358 1043.53 336.665 1043.83 337.034C1044.14 337.398 1044.37 337.756 1044.53 338.108H1044.64V331.545H1048.26V349H1044.68V346.903H1044.53C1044.36 347.267 1044.12 347.628 1043.8 347.986C1043.5 348.338 1043.1 348.631 1042.6 348.864C1042.11 349.097 1041.52 349.213 1040.81 349.213ZM1041.96 346.324C1042.55 346.324 1043.04 346.165 1043.45 345.847C1043.85 345.523 1044.17 345.071 1044.38 344.491C1044.6 343.912 1044.72 343.233 1044.72 342.455C1044.72 341.676 1044.61 341 1044.39 340.426C1044.18 339.852 1043.86 339.409 1043.45 339.097C1043.04 338.784 1042.55 338.628 1041.96 338.628C1041.37 338.628 1040.86 338.79 1040.45 339.114C1040.04 339.437 1039.74 339.886 1039.52 340.46C1039.31 341.034 1039.21 341.699 1039.21 342.455C1039.21 343.216 1039.31 343.889 1039.52 344.474C1039.74 345.054 1040.05 345.509 1040.45 345.838C1040.86 346.162 1041.37 346.324 1041.96 346.324ZM1062.14 339.642L1058.81 339.847C1058.76 339.562 1058.63 339.307 1058.45 339.08C1058.26 338.847 1058.01 338.662 1057.71 338.526C1057.4 338.384 1057.04 338.312 1056.62 338.312C1056.06 338.312 1055.59 338.432 1055.2 338.67C1054.81 338.903 1054.62 339.216 1054.62 339.608C1054.62 339.92 1054.75 340.185 1055 340.401C1055.25 340.616 1055.67 340.79 1056.28 340.92L1058.65 341.398C1059.92 341.659 1060.87 342.08 1061.5 342.659C1062.12 343.239 1062.44 344 1062.44 344.943C1062.44 345.801 1062.18 346.554 1061.68 347.202C1061.18 347.849 1060.49 348.355 1059.62 348.719C1058.75 349.077 1057.74 349.256 1056.61 349.256C1054.87 349.256 1053.49 348.895 1052.46 348.173C1051.44 347.446 1050.84 346.457 1050.67 345.207L1054.24 345.02C1054.35 345.548 1054.61 345.952 1055.02 346.23C1055.44 346.503 1055.97 346.639 1056.62 346.639C1057.25 346.639 1057.76 346.517 1058.15 346.273C1058.54 346.023 1058.74 345.702 1058.75 345.31C1058.74 344.98 1058.6 344.71 1058.33 344.5C1058.06 344.284 1057.63 344.119 1057.07 344.006L1054.8 343.554C1053.52 343.298 1052.57 342.855 1051.94 342.224C1051.33 341.594 1051.02 340.79 1051.02 339.812C1051.02 338.972 1051.24 338.247 1051.7 337.639C1052.16 337.031 1052.8 336.562 1053.63 336.233C1054.47 335.903 1055.44 335.739 1056.56 335.739C1058.22 335.739 1059.52 336.088 1060.47 336.787C1061.42 337.486 1061.98 338.437 1062.14 339.642ZM1072.88 340.392V343.273H1064.92V340.392H1072.88ZM1086.86 339.642L1083.54 339.847C1083.48 339.562 1083.36 339.307 1083.17 339.08C1082.99 338.847 1082.74 338.662 1082.43 338.526C1082.13 338.384 1081.77 338.312 1081.35 338.312C1080.79 338.312 1080.31 338.432 1079.93 338.67C1079.54 338.903 1079.35 339.216 1079.35 339.608C1079.35 339.92 1079.47 340.185 1079.72 340.401C1079.97 340.616 1080.4 340.79 1081.01 340.92L1083.38 341.398C1084.65 341.659 1085.6 342.08 1086.23 342.659C1086.85 343.239 1087.16 344 1087.16 344.943C1087.16 345.801 1086.91 346.554 1086.4 347.202C1085.9 347.849 1085.22 348.355 1084.34 348.719C1083.47 349.077 1082.47 349.256 1081.33 349.256C1079.6 349.256 1078.22 348.895 1077.19 348.173C1076.17 347.446 1075.57 346.457 1075.39 345.207L1078.96 345.02C1079.07 345.548 1079.33 345.952 1079.75 346.23C1080.16 346.503 1080.69 346.639 1081.34 346.639C1081.98 346.639 1082.49 346.517 1082.88 346.273C1083.27 346.023 1083.47 345.702 1083.47 345.31C1083.47 344.98 1083.33 344.71 1083.05 344.5C1082.78 344.284 1082.36 344.119 1081.79 344.006L1079.53 343.554C1078.25 343.298 1077.3 342.855 1076.67 342.224C1076.05 341.594 1075.74 340.79 1075.74 339.812C1075.74 338.972 1075.97 338.247 1076.42 337.639C1076.88 337.031 1077.53 336.562 1078.36 336.233C1079.19 335.903 1080.17 335.739 1081.29 335.739C1082.94 335.739 1084.25 336.088 1085.19 336.787C1086.15 337.486 1086.71 338.437 1086.86 339.642ZM1091.69 353.909C1091.23 353.909 1090.8 353.872 1090.39 353.798C1090 353.73 1089.67 353.642 1089.41 353.534L1090.22 350.824C1090.65 350.955 1091.03 351.026 1091.38 351.037C1091.72 351.048 1092.02 350.969 1092.27 350.798C1092.53 350.628 1092.73 350.338 1092.89 349.929L1093.11 349.375L1088.41 335.909H1092.23L1094.94 345.523H1095.07L1097.81 335.909H1101.65L1096.57 350.415C1096.32 351.119 1095.99 351.733 1095.57 352.256C1095.15 352.784 1094.63 353.19 1093.99 353.474C1093.36 353.764 1092.59 353.909 1091.69 353.909ZM1114.4 339.642L1111.08 339.847C1111.02 339.562 1110.9 339.307 1110.71 339.08C1110.53 338.847 1110.28 338.662 1109.97 338.526C1109.67 338.384 1109.31 338.312 1108.89 338.312C1108.33 338.312 1107.85 338.432 1107.47 338.67C1107.08 338.903 1106.89 339.216 1106.89 339.608C1106.89 339.92 1107.01 340.185 1107.26 340.401C1107.51 340.616 1107.94 340.79 1108.55 340.92L1110.92 341.398C1112.19 341.659 1113.14 342.08 1113.76 342.659C1114.39 343.239 1114.7 344 1114.7 344.943C1114.7 345.801 1114.45 346.554 1113.94 347.202C1113.44 347.849 1112.76 348.355 1111.88 348.719C1111.01 349.077 1110.01 349.256 1108.87 349.256C1107.14 349.256 1105.76 348.895 1104.73 348.173C1103.71 347.446 1103.11 346.457 1102.93 345.207L1106.5 345.02C1106.61 345.548 1106.87 345.952 1107.29 346.23C1107.7 346.503 1108.23 346.639 1108.88 346.639C1109.52 346.639 1110.03 346.517 1110.41 346.273C1110.81 346.023 1111.01 345.702 1111.01 345.31C1111.01 344.98 1110.87 344.71 1110.59 344.5C1110.32 344.284 1109.9 344.119 1109.33 344.006L1107.07 343.554C1105.79 343.298 1104.84 342.855 1104.21 342.224C1103.59 341.594 1103.28 340.79 1103.28 339.812C1103.28 338.972 1103.51 338.247 1103.96 337.639C1104.42 337.031 1105.07 336.562 1105.9 336.233C1106.73 335.903 1107.71 335.739 1108.83 335.739C1110.48 335.739 1111.78 336.088 1112.73 336.787C1113.69 337.486 1114.24 338.437 1114.4 339.642ZM1125.14 340.392V343.273H1117.18V340.392H1125.14ZM1135.28 335.909V338.636H1127.2V335.909H1135.28ZM1129.05 349V334.963C1129.05 334.014 1129.23 333.227 1129.6 332.602C1129.98 331.977 1130.49 331.509 1131.14 331.196C1131.78 330.884 1132.52 330.727 1133.34 330.727C1133.9 330.727 1134.41 330.77 1134.87 330.855C1135.33 330.94 1135.68 331.017 1135.91 331.085L1135.26 333.812C1135.12 333.767 1134.94 333.724 1134.73 333.685C1134.53 333.645 1134.32 333.625 1134.1 333.625C1133.57 333.625 1133.2 333.75 1132.99 334C1132.77 334.244 1132.67 334.588 1132.67 335.031V349H1129.05ZM1142.94 349.256C1141.62 349.256 1140.47 348.974 1139.51 348.412C1138.55 347.844 1137.81 347.054 1137.28 346.043C1136.76 345.026 1136.5 343.847 1136.5 342.506C1136.5 341.153 1136.76 339.972 1137.28 338.96C1137.81 337.943 1138.55 337.153 1139.51 336.591C1140.47 336.023 1141.62 335.739 1142.94 335.739C1144.27 335.739 1145.41 336.023 1146.37 336.591C1147.33 337.153 1148.08 337.943 1148.6 338.96C1149.12 339.972 1149.38 341.153 1149.38 342.506C1149.38 343.847 1149.12 345.026 1148.6 346.043C1148.08 347.054 1147.33 347.844 1146.37 348.412C1145.41 348.974 1144.27 349.256 1142.94 349.256ZM1142.96 346.443C1143.56 346.443 1144.06 346.273 1144.47 345.932C1144.87 345.585 1145.17 345.114 1145.38 344.517C1145.59 343.92 1145.69 343.241 1145.69 342.48C1145.69 341.719 1145.59 341.04 1145.38 340.443C1145.17 339.847 1144.87 339.375 1144.47 339.028C1144.06 338.682 1143.56 338.509 1142.96 338.509C1142.35 338.509 1141.84 338.682 1141.42 339.028C1141.02 339.375 1140.71 339.847 1140.5 340.443C1140.29 341.04 1140.19 341.719 1140.19 342.48C1140.19 343.241 1140.29 343.92 1140.5 344.517C1140.71 345.114 1141.02 345.585 1141.42 345.932C1141.84 346.273 1142.35 346.443 1142.96 346.443ZM1155.38 341.432V349H1151.75V335.909H1155.21V338.219H1155.36C1155.65 337.457 1156.13 336.855 1156.82 336.412C1157.5 335.963 1158.33 335.739 1159.3 335.739C1160.21 335.739 1161 335.938 1161.67 336.335C1162.35 336.733 1162.88 337.301 1163.25 338.04C1163.63 338.773 1163.81 339.648 1163.81 340.665V349H1160.18V341.312C1160.19 340.511 1159.98 339.886 1159.57 339.438C1159.15 338.983 1158.58 338.756 1157.86 338.756C1157.37 338.756 1156.94 338.861 1156.56 339.071C1156.19 339.281 1155.9 339.588 1155.69 339.991C1155.49 340.389 1155.38 340.869 1155.38 341.432ZM1173.64 335.909V338.636H1165.75V335.909H1173.64ZM1167.54 332.773H1171.18V344.977C1171.18 345.312 1171.23 345.574 1171.33 345.761C1171.43 345.943 1171.57 346.071 1171.75 346.145C1171.94 346.219 1172.16 346.256 1172.4 346.256C1172.57 346.256 1172.74 346.241 1172.91 346.213C1173.08 346.179 1173.22 346.153 1173.31 346.136L1173.88 348.838C1173.7 348.895 1173.44 348.96 1173.11 349.034C1172.78 349.114 1172.38 349.162 1171.91 349.179C1171.03 349.213 1170.27 349.097 1169.61 348.83C1168.95 348.562 1168.45 348.148 1168.08 347.585C1167.72 347.023 1167.54 346.312 1167.54 345.455V332.773ZM1183.76 340.392V343.273H1175.8V340.392H1183.76ZM1197.75 339.642L1194.42 339.847C1194.37 339.562 1194.24 339.307 1194.06 339.08C1193.87 338.847 1193.62 338.662 1193.32 338.526C1193.01 338.384 1192.65 338.312 1192.23 338.312C1191.67 338.312 1191.2 338.432 1190.81 338.67C1190.42 338.903 1190.23 339.216 1190.23 339.608C1190.23 339.92 1190.36 340.185 1190.61 340.401C1190.86 340.616 1191.28 340.79 1191.89 340.92L1194.26 341.398C1195.53 341.659 1196.48 342.08 1197.11 342.659C1197.73 343.239 1198.05 344 1198.05 344.943C1198.05 345.801 1197.79 346.554 1197.29 347.202C1196.79 347.849 1196.1 348.355 1195.22 348.719C1194.36 349.077 1193.35 349.256 1192.22 349.256C1190.48 349.256 1189.1 348.895 1188.07 348.173C1187.05 347.446 1186.45 346.457 1186.28 345.207L1189.85 345.02C1189.95 345.548 1190.22 345.952 1190.63 346.23C1191.05 346.503 1191.58 346.639 1192.22 346.639C1192.86 346.639 1193.37 346.517 1193.76 346.273C1194.15 346.023 1194.35 345.702 1194.36 345.31C1194.35 344.98 1194.21 344.71 1193.94 344.5C1193.66 344.284 1193.24 344.119 1192.68 344.006L1190.41 343.554C1189.13 343.298 1188.18 342.855 1187.55 342.224C1186.93 341.594 1186.62 340.79 1186.62 339.812C1186.62 338.972 1186.85 338.247 1187.31 337.639C1187.77 337.031 1188.41 336.562 1189.24 336.233C1190.08 335.903 1191.05 335.739 1192.17 335.739C1193.83 335.739 1195.13 336.088 1196.08 336.787C1197.03 337.486 1197.59 338.437 1197.75 339.642ZM1200.33 349V335.909H1203.96V349H1200.33ZM1202.16 334.222C1201.62 334.222 1201.15 334.043 1200.77 333.685C1200.39 333.321 1200.2 332.886 1200.2 332.381C1200.2 331.881 1200.39 331.452 1200.77 331.094C1201.15 330.73 1201.62 330.548 1202.16 330.548C1202.7 330.548 1203.16 330.73 1203.54 331.094C1203.92 331.452 1204.12 331.881 1204.12 332.381C1204.12 332.886 1203.92 333.321 1203.54 333.685C1203.16 334.043 1202.7 334.222 1202.16 334.222ZM1206.8 349V346.835L1213.21 338.901V338.807H1207.02V335.909H1217.58V338.27L1211.57 346.009V346.102H1217.81V349H1206.8ZM1226.17 349.256C1224.83 349.256 1223.67 348.983 1222.7 348.438C1221.73 347.886 1220.99 347.108 1220.46 346.102C1219.94 345.091 1219.68 343.895 1219.68 342.514C1219.68 341.168 1219.94 339.986 1220.46 338.969C1220.99 337.952 1221.72 337.159 1222.67 336.591C1223.62 336.023 1224.74 335.739 1226.03 335.739C1226.89 335.739 1227.7 335.878 1228.44 336.156C1229.19 336.429 1229.84 336.841 1230.4 337.392C1230.96 337.943 1231.4 338.636 1231.71 339.472C1232.02 340.301 1232.18 341.273 1232.18 342.386V343.384H1221.13V341.134H1228.76C1228.76 340.611 1228.65 340.148 1228.42 339.744C1228.2 339.341 1227.88 339.026 1227.48 338.798C1227.08 338.565 1226.62 338.449 1226.09 338.449C1225.54 338.449 1225.05 338.577 1224.62 338.832C1224.2 339.082 1223.87 339.42 1223.63 339.847C1223.39 340.267 1223.27 340.736 1223.27 341.253V343.392C1223.27 344.04 1223.39 344.599 1223.62 345.071C1223.87 345.543 1224.21 345.906 1224.66 346.162C1225.1 346.418 1225.62 346.545 1226.23 346.545C1226.64 346.545 1227 346.489 1227.34 346.375C1227.68 346.261 1227.96 346.091 1228.2 345.864C1228.44 345.636 1228.62 345.358 1228.75 345.028L1232.1 345.25C1231.93 346.057 1231.58 346.761 1231.06 347.364C1230.53 347.96 1229.86 348.426 1229.03 348.761C1228.2 349.091 1227.25 349.256 1226.17 349.256ZM1242.71 340.392V343.273H1234.75V340.392H1242.71ZM1245.87 349V331.545H1249.5V338.108H1249.61C1249.77 337.756 1250 337.398 1250.3 337.034C1250.61 336.665 1251 336.358 1251.49 336.114C1251.99 335.864 1252.6 335.739 1253.33 335.739C1254.29 335.739 1255.17 335.989 1255.98 336.489C1256.78 336.983 1257.43 337.73 1257.91 338.73C1258.39 339.724 1258.64 340.972 1258.64 342.472C1258.64 343.932 1258.4 345.165 1257.93 346.17C1257.46 347.17 1256.83 347.929 1256.02 348.446C1255.22 348.957 1254.32 349.213 1253.33 349.213C1252.62 349.213 1252.02 349.097 1251.53 348.864C1251.04 348.631 1250.64 348.338 1250.33 347.986C1250.01 347.628 1249.77 347.267 1249.61 346.903H1249.45V349H1245.87ZM1249.42 342.455C1249.42 343.233 1249.53 343.912 1249.75 344.491C1249.96 345.071 1250.27 345.523 1250.68 345.847C1251.09 346.165 1251.59 346.324 1252.18 346.324C1252.77 346.324 1253.27 346.162 1253.68 345.838C1254.08 345.509 1254.39 345.054 1254.6 344.474C1254.82 343.889 1254.93 343.216 1254.93 342.455C1254.93 341.699 1254.82 341.034 1254.61 340.46C1254.4 339.886 1254.09 339.437 1253.68 339.114C1253.27 338.79 1252.77 338.628 1252.18 338.628C1251.58 338.628 1251.08 338.784 1250.68 339.097C1250.27 339.409 1249.96 339.852 1249.75 340.426C1249.53 341 1249.42 341.676 1249.42 342.455ZM1266.97 349.256C1265.65 349.256 1264.5 348.974 1263.54 348.412C1262.58 347.844 1261.84 347.054 1261.31 346.043C1260.79 345.026 1260.53 343.847 1260.53 342.506C1260.53 341.153 1260.79 339.972 1261.31 338.96C1261.84 337.943 1262.58 337.153 1263.54 336.591C1264.5 336.023 1265.65 335.739 1266.97 335.739C1268.3 335.739 1269.44 336.023 1270.4 336.591C1271.37 337.153 1272.11 337.943 1272.63 338.96C1273.15 339.972 1273.42 341.153 1273.42 342.506C1273.42 343.847 1273.15 345.026 1272.63 346.043C1272.11 347.054 1271.37 347.844 1270.4 348.412C1269.44 348.974 1268.3 349.256 1266.97 349.256ZM1266.99 346.443C1267.59 346.443 1268.1 346.273 1268.5 345.932C1268.9 345.585 1269.21 345.114 1269.41 344.517C1269.62 343.92 1269.73 343.241 1269.73 342.48C1269.73 341.719 1269.62 341.04 1269.41 340.443C1269.21 339.847 1268.9 339.375 1268.5 339.028C1268.1 338.682 1267.59 338.509 1266.99 338.509C1266.38 338.509 1265.87 338.682 1265.46 339.028C1265.05 339.375 1264.74 339.847 1264.53 340.443C1264.32 341.04 1264.22 341.719 1264.22 342.48C1264.22 343.241 1264.32 343.92 1264.53 344.517C1264.74 345.114 1265.05 345.585 1265.46 345.932C1265.87 346.273 1266.38 346.443 1266.99 346.443ZM1280.6 349.213C1279.61 349.213 1278.71 348.957 1277.9 348.446C1277.1 347.929 1276.46 347.17 1275.99 346.17C1275.52 345.165 1275.29 343.932 1275.29 342.472C1275.29 340.972 1275.53 339.724 1276.02 338.73C1276.5 337.73 1277.14 336.983 1277.94 336.489C1278.75 335.989 1279.63 335.739 1280.59 335.739C1281.33 335.739 1281.94 335.864 1282.42 336.114C1282.92 336.358 1283.32 336.665 1283.62 337.034C1283.92 337.398 1284.16 337.756 1284.32 338.108H1284.43V331.545H1288.05V349H1284.47V346.903H1284.32C1284.15 347.267 1283.9 347.628 1283.59 347.986C1283.29 348.338 1282.88 348.631 1282.39 348.864C1281.9 349.097 1281.31 349.213 1280.6 349.213ZM1281.75 346.324C1282.34 346.324 1282.83 346.165 1283.23 345.847C1283.64 345.523 1283.96 345.071 1284.17 344.491C1284.39 343.912 1284.5 343.233 1284.5 342.455C1284.5 341.676 1284.4 341 1284.18 340.426C1283.96 339.852 1283.65 339.409 1283.24 339.097C1282.83 338.784 1282.34 338.628 1281.75 338.628C1281.15 338.628 1280.65 338.79 1280.24 339.114C1279.83 339.437 1279.52 339.886 1279.31 340.46C1279.1 341.034 1279 341.699 1279 342.455C1279 343.216 1279.1 343.889 1279.31 344.474C1279.53 345.054 1279.84 345.509 1280.24 345.838C1280.65 346.162 1281.15 346.324 1281.75 346.324ZM1293.28 353.909C1292.82 353.909 1292.38 353.872 1291.98 353.798C1291.58 353.73 1291.25 353.642 1290.99 353.534L1291.81 350.824C1292.24 350.955 1292.62 351.026 1292.96 351.037C1293.31 351.048 1293.61 350.969 1293.86 350.798C1294.11 350.628 1294.32 350.338 1294.48 349.929L1294.69 349.375L1290 335.909H1293.81L1296.52 345.523H1296.66L1299.4 335.909H1303.24L1298.15 350.415C1297.91 351.119 1297.57 351.733 1297.15 352.256C1296.74 352.784 1296.21 353.19 1295.58 353.474C1294.94 353.764 1294.17 353.909 1293.28 353.909Z" fill="white"/>
<path d="M578.203 158V140.545H589.027V142.812H580.836V148.131H588.251V150.389H580.836V158H578.203ZM596.614 158.264C595.387 158.264 594.316 157.983 593.401 157.42C592.486 156.858 591.776 156.071 591.27 155.06C590.765 154.048 590.512 152.866 590.512 151.514C590.512 150.156 590.765 148.969 591.27 147.952C591.776 146.935 592.486 146.145 593.401 145.582C594.316 145.02 595.387 144.739 596.614 144.739C597.841 144.739 598.912 145.02 599.827 145.582C600.742 146.145 601.452 146.935 601.958 147.952C602.463 148.969 602.716 150.156 602.716 151.514C602.716 152.866 602.463 154.048 601.958 155.06C601.452 156.071 600.742 156.858 599.827 157.42C598.912 157.983 597.841 158.264 596.614 158.264ZM596.623 156.125C597.418 156.125 598.077 155.915 598.6 155.494C599.123 155.074 599.509 154.514 599.759 153.815C600.015 153.116 600.142 152.347 600.142 151.506C600.142 150.67 600.015 149.903 599.759 149.205C599.509 148.5 599.123 147.935 598.6 147.509C598.077 147.082 597.418 146.869 596.623 146.869C595.821 146.869 595.157 147.082 594.628 147.509C594.105 147.935 593.716 148.5 593.461 149.205C593.211 149.903 593.086 150.67 593.086 151.506C593.086 152.347 593.211 153.116 593.461 153.815C593.716 154.514 594.105 155.074 594.628 155.494C595.157 155.915 595.821 156.125 596.623 156.125ZM613.853 152.571V144.909H616.41V158H613.904V155.733H613.768C613.467 156.432 612.984 157.014 612.319 157.48C611.66 157.94 610.839 158.17 609.856 158.17C609.015 158.17 608.271 157.986 607.623 157.616C606.981 157.241 606.475 156.688 606.106 155.955C605.743 155.222 605.561 154.315 605.561 153.236V144.909H608.109V152.929C608.109 153.821 608.356 154.531 608.85 155.06C609.345 155.588 609.987 155.852 610.777 155.852C611.254 155.852 611.728 155.733 612.2 155.494C612.677 155.256 613.072 154.895 613.385 154.412C613.703 153.929 613.859 153.315 613.853 152.571ZM622.382 150.227V158H619.834V144.909H622.28V147.04H622.442C622.743 146.347 623.215 145.79 623.857 145.369C624.505 144.949 625.32 144.739 626.303 144.739C627.195 144.739 627.976 144.926 628.647 145.301C629.317 145.67 629.837 146.222 630.206 146.955C630.576 147.687 630.76 148.594 630.76 149.673V158H628.212V149.98C628.212 149.031 627.965 148.29 627.471 147.756C626.976 147.216 626.297 146.946 625.434 146.946C624.843 146.946 624.317 147.074 623.857 147.33C623.402 147.585 623.042 147.96 622.775 148.455C622.513 148.943 622.382 149.534 622.382 150.227ZM639.078 158.256C638.022 158.256 637.078 157.986 636.249 157.446C635.425 156.901 634.777 156.125 634.306 155.119C633.84 154.108 633.607 152.895 633.607 151.48C633.607 150.065 633.843 148.855 634.314 147.849C634.792 146.844 635.445 146.074 636.275 145.54C637.104 145.006 638.044 144.739 639.096 144.739C639.908 144.739 640.561 144.875 641.056 145.148C641.556 145.415 641.942 145.727 642.215 146.085C642.493 146.443 642.709 146.759 642.863 147.031H643.016V140.545H645.564V158H643.076V155.963H642.863C642.709 156.241 642.488 156.56 642.198 156.918C641.914 157.276 641.522 157.588 641.022 157.855C640.522 158.122 639.874 158.256 639.078 158.256ZM639.641 156.082C640.374 156.082 640.993 155.889 641.499 155.503C642.01 155.111 642.397 154.568 642.658 153.875C642.925 153.182 643.059 152.375 643.059 151.455C643.059 150.545 642.928 149.75 642.667 149.068C642.405 148.386 642.022 147.855 641.516 147.474C641.01 147.094 640.385 146.903 639.641 146.903C638.874 146.903 638.235 147.102 637.723 147.5C637.212 147.898 636.826 148.44 636.564 149.128C636.309 149.815 636.181 150.591 636.181 151.455C636.181 152.33 636.311 153.116 636.573 153.815C636.834 154.514 637.221 155.068 637.732 155.477C638.249 155.881 638.885 156.082 639.641 156.082ZM653.011 158.29C652.181 158.29 651.431 158.136 650.761 157.83C650.091 157.517 649.559 157.065 649.167 156.474C648.781 155.884 648.588 155.159 648.588 154.301C648.588 153.562 648.73 152.955 649.014 152.477C649.298 152 649.681 151.622 650.164 151.344C650.647 151.065 651.187 150.855 651.784 150.713C652.38 150.571 652.988 150.463 653.608 150.389C654.392 150.298 655.028 150.224 655.517 150.168C656.005 150.105 656.36 150.006 656.582 149.869C656.804 149.733 656.914 149.511 656.914 149.205V149.145C656.914 148.401 656.704 147.824 656.284 147.415C655.869 147.006 655.25 146.801 654.426 146.801C653.568 146.801 652.892 146.991 652.397 147.372C651.909 147.747 651.571 148.165 651.383 148.625L648.988 148.08C649.272 147.284 649.687 146.642 650.233 146.153C650.784 145.659 651.417 145.301 652.133 145.08C652.849 144.852 653.602 144.739 654.392 144.739C654.914 144.739 655.468 144.801 656.054 144.926C656.645 145.045 657.196 145.267 657.707 145.591C658.224 145.915 658.647 146.378 658.977 146.98C659.306 147.577 659.471 148.352 659.471 149.307V158H656.983V156.21H656.88C656.716 156.54 656.468 156.864 656.139 157.182C655.809 157.5 655.386 157.764 654.869 157.974C654.352 158.185 653.733 158.29 653.011 158.29ZM653.565 156.244C654.27 156.244 654.872 156.105 655.372 155.827C655.877 155.548 656.261 155.185 656.522 154.736C656.789 154.281 656.923 153.795 656.923 153.278V151.591C656.832 151.682 656.656 151.767 656.395 151.847C656.139 151.92 655.846 151.986 655.517 152.043C655.187 152.094 654.866 152.142 654.554 152.188C654.241 152.227 653.98 152.261 653.77 152.29C653.275 152.352 652.824 152.457 652.414 152.605C652.011 152.753 651.687 152.966 651.443 153.244C651.204 153.517 651.085 153.881 651.085 154.335C651.085 154.966 651.318 155.443 651.784 155.767C652.25 156.085 652.843 156.244 653.565 156.244ZM668.976 144.909V146.955H661.826V144.909H668.976ZM663.743 141.773H666.292V154.156C666.292 154.651 666.365 155.023 666.513 155.273C666.661 155.517 666.851 155.685 667.084 155.776C667.323 155.861 667.581 155.903 667.86 155.903C668.064 155.903 668.243 155.889 668.397 155.861C668.55 155.832 668.669 155.81 668.755 155.793L669.215 157.898C669.067 157.955 668.857 158.011 668.584 158.068C668.311 158.131 667.971 158.165 667.561 158.17C666.891 158.182 666.266 158.062 665.686 157.812C665.107 157.562 664.638 157.176 664.28 156.653C663.922 156.131 663.743 155.474 663.743 154.685V141.773ZM671.795 158V144.909H674.343V158H671.795ZM673.082 142.889C672.639 142.889 672.258 142.741 671.94 142.446C671.627 142.145 671.471 141.787 671.471 141.372C671.471 140.952 671.627 140.594 671.94 140.298C672.258 139.997 672.639 139.847 673.082 139.847C673.525 139.847 673.903 139.997 674.216 140.298C674.534 140.594 674.693 140.952 674.693 141.372C674.693 141.787 674.534 142.145 674.216 142.446C673.903 142.741 673.525 142.889 673.082 142.889ZM683.286 158.264C682.059 158.264 680.988 157.983 680.073 157.42C679.158 156.858 678.448 156.071 677.942 155.06C677.436 154.048 677.184 152.866 677.184 151.514C677.184 150.156 677.436 148.969 677.942 147.952C678.448 146.935 679.158 146.145 680.073 145.582C680.988 145.02 682.059 144.739 683.286 144.739C684.513 144.739 685.584 145.02 686.499 145.582C687.414 146.145 688.124 146.935 688.63 147.952C689.135 148.969 689.388 150.156 689.388 151.514C689.388 152.866 689.135 154.048 688.63 155.06C688.124 156.071 687.414 156.858 686.499 157.42C685.584 157.983 684.513 158.264 683.286 158.264ZM683.294 156.125C684.09 156.125 684.749 155.915 685.272 155.494C685.794 155.074 686.181 154.514 686.431 153.815C686.686 153.116 686.814 152.347 686.814 151.506C686.814 150.67 686.686 149.903 686.431 149.205C686.181 148.5 685.794 147.935 685.272 147.509C684.749 147.082 684.09 146.869 683.294 146.869C682.493 146.869 681.828 147.082 681.3 147.509C680.777 147.935 680.388 148.5 680.132 149.205C679.882 149.903 679.757 150.67 679.757 151.506C679.757 152.347 679.882 153.116 680.132 153.815C680.388 154.514 680.777 155.074 681.3 155.494C681.828 155.915 682.493 156.125 683.294 156.125ZM694.781 150.227V158H692.233V144.909H694.679V147.04H694.841C695.142 146.347 695.613 145.79 696.255 145.369C696.903 144.949 697.718 144.739 698.701 144.739C699.593 144.739 700.375 144.926 701.045 145.301C701.716 145.67 702.235 146.222 702.605 146.955C702.974 147.687 703.159 148.594 703.159 149.673V158H700.61V149.98C700.61 149.031 700.363 148.29 699.869 147.756C699.375 147.216 698.696 146.946 697.832 146.946C697.241 146.946 696.716 147.074 696.255 147.33C695.801 147.585 695.44 147.96 695.173 148.455C694.912 148.943 694.781 149.534 694.781 150.227ZM719.039 144.909V146.955H711.888V144.909H719.039ZM713.806 141.773H716.354V154.156C716.354 154.651 716.428 155.023 716.576 155.273C716.723 155.517 716.914 155.685 717.147 155.776C717.385 155.861 717.644 155.903 717.922 155.903C718.127 155.903 718.306 155.889 718.459 155.861C718.613 155.832 718.732 155.81 718.817 155.793L719.277 157.898C719.13 157.955 718.919 158.011 718.647 158.068C718.374 158.131 718.033 158.165 717.624 158.17C716.953 158.182 716.328 158.062 715.749 157.812C715.169 157.562 714.701 157.176 714.343 156.653C713.985 156.131 713.806 155.474 713.806 154.685V141.773ZM727.231 158.264C726.004 158.264 724.933 157.983 724.018 157.42C723.103 156.858 722.393 156.071 721.887 155.06C721.382 154.048 721.129 152.866 721.129 151.514C721.129 150.156 721.382 148.969 721.887 147.952C722.393 146.935 723.103 146.145 724.018 145.582C724.933 145.02 726.004 144.739 727.231 144.739C728.458 144.739 729.529 145.02 730.444 145.582C731.359 146.145 732.069 146.935 732.575 147.952C733.081 148.969 733.333 150.156 733.333 151.514C733.333 152.866 733.081 154.048 732.575 155.06C732.069 156.071 731.359 156.858 730.444 157.42C729.529 157.983 728.458 158.264 727.231 158.264ZM727.24 156.125C728.035 156.125 728.694 155.915 729.217 155.494C729.74 155.074 730.126 154.514 730.376 153.815C730.632 153.116 730.76 152.347 730.76 151.506C730.76 150.67 730.632 149.903 730.376 149.205C730.126 148.5 729.74 147.935 729.217 147.509C728.694 147.082 728.035 146.869 727.24 146.869C726.439 146.869 725.774 147.082 725.245 147.509C724.723 147.935 724.333 148.5 724.078 149.205C723.828 149.903 723.703 150.67 723.703 151.506C723.703 152.347 723.828 153.116 724.078 153.815C724.333 154.514 724.723 155.074 725.245 155.494C725.774 155.915 726.439 156.125 727.24 156.125ZM738.522 153.56L738.505 150.449H738.948L744.164 144.909H747.215L741.266 151.216H740.865L738.522 153.56ZM736.178 158V140.545H738.726V158H736.178ZM744.445 158L739.757 151.778L741.513 149.997L747.573 158H744.445ZM754.64 158.264C753.35 158.264 752.24 157.989 751.308 157.438C750.382 156.881 749.666 156.099 749.16 155.094C748.66 154.082 748.41 152.898 748.41 151.54C748.41 150.199 748.66 149.017 749.16 147.994C749.666 146.972 750.37 146.173 751.274 145.599C752.183 145.026 753.245 144.739 754.461 144.739C755.2 144.739 755.916 144.861 756.609 145.105C757.302 145.349 757.924 145.733 758.475 146.256C759.027 146.778 759.461 147.457 759.779 148.293C760.098 149.122 760.257 150.131 760.257 151.318V152.222H749.85V150.312H757.76C757.76 149.642 757.623 149.048 757.35 148.531C757.078 148.009 756.694 147.597 756.2 147.295C755.711 146.994 755.137 146.844 754.478 146.844C753.762 146.844 753.137 147.02 752.603 147.372C752.075 147.719 751.666 148.173 751.376 148.736C751.092 149.293 750.95 149.898 750.95 150.551V152.043C750.95 152.918 751.103 153.662 751.41 154.276C751.723 154.889 752.157 155.358 752.714 155.682C753.271 156 753.922 156.159 754.666 156.159C755.149 156.159 755.589 156.091 755.987 155.955C756.385 155.812 756.728 155.602 757.018 155.324C757.308 155.045 757.529 154.702 757.683 154.293L760.095 154.727C759.902 155.437 759.555 156.06 759.055 156.594C758.561 157.122 757.939 157.534 757.189 157.83C756.444 158.119 755.595 158.264 754.64 158.264ZM765.632 150.227V158H763.084V144.909H765.53V147.04H765.692C765.993 146.347 766.465 145.79 767.107 145.369C767.755 144.949 768.57 144.739 769.553 144.739C770.445 144.739 771.226 144.926 771.897 145.301C772.567 145.67 773.087 146.222 773.456 146.955C773.826 147.687 774.01 148.594 774.01 149.673V158H771.462V149.98C771.462 149.031 771.215 148.29 770.721 147.756C770.226 147.216 769.547 146.946 768.684 146.946C768.093 146.946 767.567 147.074 767.107 147.33C766.652 147.585 766.292 147.96 766.025 148.455C765.763 148.943 765.632 149.534 765.632 150.227Z" fill="#333333"/>
<path d="M621.131 528.909V530.955H613.733V528.909H621.131ZM615.761 542V527.392C615.761 526.574 615.94 525.895 616.298 525.355C616.656 524.81 617.131 524.403 617.722 524.136C618.313 523.864 618.955 523.727 619.648 523.727C620.159 523.727 620.597 523.77 620.96 523.855C621.324 523.935 621.594 524.009 621.77 524.077L621.173 526.139C621.054 526.105 620.901 526.065 620.713 526.02C620.526 525.969 620.298 525.943 620.031 525.943C619.412 525.943 618.969 526.097 618.702 526.403C618.44 526.71 618.31 527.153 618.31 527.733V542H615.761ZM628.759 542.264C627.531 542.264 626.46 541.983 625.545 541.42C624.631 540.858 623.92 540.071 623.415 539.06C622.909 538.048 622.656 536.866 622.656 535.514C622.656 534.156 622.909 532.969 623.415 531.952C623.92 530.935 624.631 530.145 625.545 529.582C626.46 529.02 627.531 528.739 628.759 528.739C629.986 528.739 631.057 529.02 631.972 529.582C632.886 530.145 633.597 530.935 634.102 531.952C634.608 532.969 634.861 534.156 634.861 535.514C634.861 536.866 634.608 538.048 634.102 539.06C633.597 540.071 632.886 540.858 631.972 541.42C631.057 541.983 629.986 542.264 628.759 542.264ZM628.767 540.125C629.563 540.125 630.222 539.915 630.744 539.494C631.267 539.074 631.653 538.514 631.903 537.815C632.159 537.116 632.287 536.347 632.287 535.506C632.287 534.67 632.159 533.903 631.903 533.205C631.653 532.5 631.267 531.935 630.744 531.509C630.222 531.082 629.563 530.869 628.767 530.869C627.966 530.869 627.301 531.082 626.773 531.509C626.25 531.935 625.861 532.5 625.605 533.205C625.355 533.903 625.23 534.67 625.23 535.506C625.23 536.347 625.355 537.116 625.605 537.815C625.861 538.514 626.25 539.074 626.773 539.494C627.301 539.915 627.966 540.125 628.767 540.125ZM640.254 534.227V542H637.705V528.909H640.151V531.04H640.313C640.614 530.347 641.086 529.79 641.728 529.369C642.376 528.949 643.191 528.739 644.174 528.739C645.066 528.739 645.847 528.926 646.518 529.301C647.188 529.67 647.708 530.222 648.077 530.955C648.447 531.687 648.631 532.594 648.631 533.673V542H646.083V533.98C646.083 533.031 645.836 532.29 645.342 531.756C644.847 531.216 644.168 530.946 643.305 530.946C642.714 530.946 642.188 531.074 641.728 531.33C641.273 531.585 640.913 531.96 640.646 532.455C640.384 532.943 640.254 533.534 640.254 534.227ZM658.16 528.909V530.955H651.009V528.909H658.16ZM652.927 525.773H655.475V538.156C655.475 538.651 655.549 539.023 655.697 539.273C655.844 539.517 656.035 539.685 656.268 539.776C656.506 539.861 656.765 539.903 657.043 539.903C657.248 539.903 657.427 539.889 657.58 539.861C657.734 539.832 657.853 539.81 657.938 539.793L658.398 541.898C658.251 541.955 658.04 542.011 657.768 542.068C657.495 542.131 657.154 542.165 656.745 542.17C656.075 542.182 655.45 542.062 654.87 541.812C654.29 541.562 653.822 541.176 653.464 540.653C653.106 540.131 652.927 539.474 652.927 538.685V525.773ZM668.246 533.52V535.727H660.508V533.52H668.246ZM677.873 528.909V530.955H670.475V528.909H677.873ZM672.504 542V527.392C672.504 526.574 672.683 525.895 673.04 525.355C673.398 524.81 673.873 524.403 674.464 524.136C675.055 523.864 675.697 523.727 676.39 523.727C676.901 523.727 677.339 523.77 677.702 523.855C678.066 523.935 678.336 524.009 678.512 524.077L677.915 526.139C677.796 526.105 677.643 526.065 677.455 526.02C677.268 525.969 677.04 525.943 676.773 525.943C676.154 525.943 675.711 526.097 675.444 526.403C675.183 526.71 675.052 527.153 675.052 527.733V542H672.504ZM683.913 542.29C683.084 542.29 682.334 542.136 681.663 541.83C680.993 541.517 680.462 541.065 680.07 540.474C679.683 539.884 679.49 539.159 679.49 538.301C679.49 537.562 679.632 536.955 679.916 536.477C680.2 536 680.584 535.622 681.067 535.344C681.55 535.065 682.089 534.855 682.686 534.713C683.283 534.571 683.891 534.463 684.51 534.389C685.294 534.298 685.93 534.224 686.419 534.168C686.908 534.105 687.263 534.006 687.484 533.869C687.706 533.733 687.817 533.511 687.817 533.205V533.145C687.817 532.401 687.607 531.824 687.186 531.415C686.771 531.006 686.152 530.801 685.328 530.801C684.47 530.801 683.794 530.991 683.3 531.372C682.811 531.747 682.473 532.165 682.286 532.625L679.891 532.08C680.175 531.284 680.589 530.642 681.135 530.153C681.686 529.659 682.32 529.301 683.036 529.08C683.751 528.852 684.504 528.739 685.294 528.739C685.817 528.739 686.371 528.801 686.956 528.926C687.547 529.045 688.098 529.267 688.609 529.591C689.126 529.915 689.55 530.378 689.879 530.98C690.209 531.577 690.374 532.352 690.374 533.307V542H687.885V540.21H687.783C687.618 540.54 687.371 540.864 687.041 541.182C686.712 541.5 686.288 541.764 685.771 541.974C685.254 542.185 684.635 542.29 683.913 542.29ZM684.467 540.244C685.172 540.244 685.774 540.105 686.274 539.827C686.78 539.548 687.163 539.185 687.425 538.736C687.692 538.281 687.825 537.795 687.825 537.278V535.591C687.734 535.682 687.558 535.767 687.297 535.847C687.041 535.92 686.749 535.986 686.419 536.043C686.089 536.094 685.768 536.142 685.456 536.188C685.143 536.227 684.882 536.261 684.672 536.29C684.178 536.352 683.726 536.457 683.317 536.605C682.913 536.753 682.589 536.966 682.345 537.244C682.107 537.517 681.987 537.881 681.987 538.335C681.987 538.966 682.22 539.443 682.686 539.767C683.152 540.085 683.746 540.244 684.467 540.244ZM693.768 542V528.909H696.214V531.04H696.376C696.648 530.318 697.094 529.756 697.714 529.352C698.333 528.943 699.075 528.739 699.938 528.739C700.813 528.739 701.546 528.943 702.137 529.352C702.734 529.761 703.174 530.324 703.458 531.04H703.594C703.907 530.341 704.404 529.784 705.086 529.369C705.768 528.949 706.58 528.739 707.523 528.739C708.711 528.739 709.68 529.111 710.43 529.855C711.185 530.599 711.563 531.722 711.563 533.222V542H709.015V533.46C709.015 532.574 708.773 531.932 708.29 531.534C707.808 531.136 707.231 530.938 706.56 530.938C705.731 530.938 705.086 531.193 704.626 531.705C704.165 532.21 703.935 532.861 703.935 533.656V542H701.396V533.298C701.396 532.588 701.174 532.017 700.731 531.585C700.288 531.153 699.711 530.938 699.001 530.938C698.518 530.938 698.072 531.065 697.663 531.321C697.259 531.571 696.933 531.92 696.683 532.369C696.438 532.818 696.316 533.338 696.316 533.929V542H693.768ZM714.979 542V528.909H717.527V542H714.979ZM716.266 526.889C715.822 526.889 715.442 526.741 715.124 526.446C714.811 526.145 714.655 525.787 714.655 525.372C714.655 524.952 714.811 524.594 715.124 524.298C715.442 523.997 715.822 523.847 716.266 523.847C716.709 523.847 717.087 523.997 717.399 524.298C717.717 524.594 717.876 524.952 717.876 525.372C717.876 525.787 717.717 526.145 717.399 526.446C717.087 526.741 716.709 526.889 716.266 526.889ZM723.504 524.545V542H720.955V524.545H723.504ZM728.543 546.909C728.162 546.909 727.815 546.878 727.503 546.815C727.19 546.759 726.957 546.696 726.804 546.628L727.418 544.54C727.884 544.665 728.298 544.719 728.662 544.702C729.026 544.685 729.347 544.548 729.625 544.293C729.909 544.037 730.159 543.619 730.375 543.04L730.69 542.17L725.901 528.909H728.628L731.943 539.068H732.08L735.395 528.909H738.131L732.736 543.747C732.486 544.429 732.168 545.006 731.781 545.477C731.395 545.955 730.935 546.313 730.401 546.551C729.866 546.79 729.247 546.909 728.543 546.909ZM616.748 564.909V566.955H609.35V564.909H616.748ZM611.379 578V563.392C611.379 562.574 611.558 561.895 611.915 561.355C612.273 560.81 612.748 560.403 613.339 560.136C613.93 559.864 614.572 559.727 615.265 559.727C615.776 559.727 616.214 559.77 616.577 559.855C616.941 559.935 617.211 560.009 617.387 560.077L616.79 562.139C616.671 562.105 616.518 562.065 616.33 562.02C616.143 561.969 615.915 561.943 615.648 561.943C615.029 561.943 614.586 562.097 614.319 562.403C614.058 562.71 613.927 563.153 613.927 563.733V578H611.379ZM624.376 578.264C623.148 578.264 622.077 577.983 621.163 577.42C620.248 576.858 619.538 576.071 619.032 575.06C618.526 574.048 618.273 572.866 618.273 571.514C618.273 570.156 618.526 568.969 619.032 567.952C619.538 566.935 620.248 566.145 621.163 565.582C622.077 565.02 623.148 564.739 624.376 564.739C625.603 564.739 626.674 565.02 627.589 565.582C628.504 566.145 629.214 566.935 629.719 567.952C630.225 568.969 630.478 570.156 630.478 571.514C630.478 572.866 630.225 574.048 629.719 575.06C629.214 576.071 628.504 576.858 627.589 577.42C626.674 577.983 625.603 578.264 624.376 578.264ZM624.384 576.125C625.18 576.125 625.839 575.915 626.362 575.494C626.884 575.074 627.271 574.514 627.521 573.815C627.776 573.116 627.904 572.347 627.904 571.506C627.904 570.67 627.776 569.903 627.521 569.205C627.271 568.5 626.884 567.935 626.362 567.509C625.839 567.082 625.18 566.869 624.384 566.869C623.583 566.869 622.918 567.082 622.39 567.509C621.867 567.935 621.478 568.5 621.222 569.205C620.972 569.903 620.847 570.67 620.847 571.506C620.847 572.347 620.972 573.116 621.222 573.815C621.478 574.514 621.867 575.074 622.39 575.494C622.918 575.915 623.583 576.125 624.384 576.125ZM635.871 570.227V578H633.322V564.909H635.768V567.04H635.93C636.232 566.347 636.703 565.79 637.345 565.369C637.993 564.949 638.808 564.739 639.791 564.739C640.683 564.739 641.464 564.926 642.135 565.301C642.805 565.67 643.325 566.222 643.695 566.955C644.064 567.687 644.249 568.594 644.249 569.673V578H641.7V569.98C641.7 569.031 641.453 568.29 640.959 567.756C640.464 567.216 639.786 566.946 638.922 566.946C638.331 566.946 637.805 567.074 637.345 567.33C636.891 567.585 636.53 567.96 636.263 568.455C636.001 568.943 635.871 569.534 635.871 570.227ZM653.777 564.909V566.955H646.626V564.909H653.777ZM648.544 561.773H651.092V574.156C651.092 574.651 651.166 575.023 651.314 575.273C651.462 575.517 651.652 575.685 651.885 575.776C652.124 575.861 652.382 575.903 652.661 575.903C652.865 575.903 653.044 575.889 653.197 575.861C653.351 575.832 653.47 575.81 653.555 575.793L654.016 577.898C653.868 577.955 653.658 578.011 653.385 578.068C653.112 578.131 652.771 578.165 652.362 578.17C651.692 578.182 651.067 578.062 650.487 577.812C649.908 577.562 649.439 577.176 649.081 576.653C648.723 576.131 648.544 575.474 648.544 574.685V561.773ZM663.864 569.52V571.727H656.125V569.52H663.864ZM670.098 578L666.246 564.909H668.879L671.445 574.523H671.572L674.146 564.909H676.78L679.337 574.48H679.464L682.013 564.909H684.646L680.803 578H678.203L675.544 568.548H675.348L672.689 578H670.098ZM692.308 578.264C691.018 578.264 689.908 577.989 688.976 577.438C688.05 576.881 687.334 576.099 686.828 575.094C686.328 574.082 686.078 572.898 686.078 571.54C686.078 570.199 686.328 569.017 686.828 567.994C687.334 566.972 688.038 566.173 688.942 565.599C689.851 565.026 690.913 564.739 692.129 564.739C692.868 564.739 693.584 564.861 694.277 565.105C694.97 565.349 695.592 565.733 696.143 566.256C696.695 566.778 697.129 567.457 697.447 568.293C697.766 569.122 697.925 570.131 697.925 571.318V572.222H687.518V570.312H695.428C695.428 569.642 695.291 569.048 695.018 568.531C694.746 568.009 694.362 567.597 693.868 567.295C693.379 566.994 692.805 566.844 692.146 566.844C691.43 566.844 690.805 567.02 690.271 567.372C689.743 567.719 689.334 568.173 689.044 568.736C688.76 569.293 688.618 569.898 688.618 570.551V572.043C688.618 572.918 688.771 573.662 689.078 574.276C689.391 574.889 689.825 575.358 690.382 575.682C690.939 576 691.589 576.159 692.334 576.159C692.817 576.159 693.257 576.091 693.655 575.955C694.053 575.812 694.396 575.602 694.686 575.324C694.976 575.045 695.197 574.702 695.351 574.293L697.763 574.727C697.57 575.437 697.223 576.06 696.723 576.594C696.229 577.122 695.607 577.534 694.857 577.83C694.112 578.119 693.263 578.264 692.308 578.264ZM700.752 578V564.909H703.3V578H700.752ZM702.039 562.889C701.596 562.889 701.215 562.741 700.897 562.446C700.585 562.145 700.428 561.787 700.428 561.372C700.428 560.952 700.585 560.594 700.897 560.298C701.215 559.997 701.596 559.847 702.039 559.847C702.482 559.847 702.86 559.997 703.173 560.298C703.491 560.594 703.65 560.952 703.65 561.372C703.65 561.787 703.491 562.145 703.173 562.446C702.86 562.741 702.482 562.889 702.039 562.889ZM712.217 583.182C711.178 583.182 710.283 583.045 709.533 582.773C708.788 582.5 708.18 582.139 707.709 581.69C707.237 581.241 706.885 580.75 706.652 580.216L708.842 579.312C708.996 579.562 709.2 579.827 709.456 580.105C709.717 580.389 710.07 580.631 710.513 580.83C710.962 581.028 711.538 581.128 712.243 581.128C713.209 581.128 714.007 580.892 714.638 580.42C715.268 579.955 715.584 579.21 715.584 578.188V575.614H715.422C715.268 575.892 715.047 576.202 714.757 576.543C714.473 576.884 714.081 577.179 713.581 577.429C713.081 577.679 712.43 577.804 711.629 577.804C710.595 577.804 709.663 577.562 708.834 577.08C708.01 576.591 707.357 575.872 706.874 574.923C706.396 573.969 706.158 572.795 706.158 571.403C706.158 570.011 706.393 568.818 706.865 567.824C707.342 566.83 707.996 566.068 708.825 565.54C709.655 565.006 710.595 564.739 711.646 564.739C712.459 564.739 713.115 564.875 713.615 565.148C714.115 565.415 714.504 565.727 714.783 566.085C715.067 566.443 715.286 566.759 715.439 567.031H715.626V564.909H718.124V578.29C718.124 579.415 717.862 580.338 717.339 581.06C716.817 581.781 716.109 582.315 715.217 582.662C714.331 583.009 713.331 583.182 712.217 583.182ZM712.192 575.69C712.925 575.69 713.544 575.52 714.05 575.179C714.561 574.832 714.947 574.338 715.209 573.696C715.476 573.048 715.609 572.273 715.609 571.369C715.609 570.489 715.479 569.713 715.217 569.043C714.956 568.372 714.572 567.849 714.067 567.474C713.561 567.094 712.936 566.903 712.192 566.903C711.425 566.903 710.786 567.102 710.274 567.5C709.763 567.892 709.376 568.426 709.115 569.102C708.859 569.778 708.732 570.534 708.732 571.369C708.732 572.227 708.862 572.98 709.124 573.628C709.385 574.276 709.771 574.781 710.283 575.145C710.8 575.509 711.436 575.69 712.192 575.69ZM724.089 570.227V578H721.541V560.545H724.055V567.04H724.217C724.524 566.335 724.993 565.776 725.624 565.361C726.254 564.946 727.078 564.739 728.095 564.739C728.993 564.739 729.777 564.923 730.447 565.293C731.124 565.662 731.646 566.213 732.016 566.946C732.391 567.673 732.578 568.582 732.578 569.673V578H730.03V569.98C730.03 569.02 729.783 568.276 729.288 567.747C728.794 567.213 728.107 566.946 727.226 566.946C726.624 566.946 726.084 567.074 725.607 567.33C725.135 567.585 724.763 567.96 724.49 568.455C724.223 568.943 724.089 569.534 724.089 570.227ZM742.089 564.909V566.955H734.939V564.909H742.089ZM736.857 561.773H739.405V574.156C739.405 574.651 739.479 575.023 739.626 575.273C739.774 575.517 739.964 575.685 740.197 575.776C740.436 575.861 740.695 575.903 740.973 575.903C741.178 575.903 741.357 575.889 741.51 575.861C741.663 575.832 741.783 575.81 741.868 575.793L742.328 577.898C742.18 577.955 741.97 578.011 741.697 578.068C741.425 578.131 741.084 578.165 740.675 578.17C740.004 578.182 739.379 578.062 738.8 577.812C738.22 577.562 737.751 577.176 737.393 576.653C737.036 576.131 736.857 575.474 736.857 574.685V561.773Z" fill="#333333"/>
<mask id="path-7-inside-1_15283_31290" fill="white">
<path d="M156 340C156 273.726 209.726 220 276 220C342.274 220 396 273.726 396 340C396 406.274 342.274 460 276 460C209.726 460 156 406.274 156 340Z"/>
</mask>
<path d="M156 340C156 273.726 209.726 220 276 220C342.274 220 396 273.726 396 340C396 406.274 342.274 460 276 460C209.726 460 156 406.274 156 340Z" fill="white"/>
<path d="M276 460V456.627C211.589 456.627 159.373 404.411 159.373 340H156H152.627C152.627 408.137 207.863 463.373 276 463.373V460ZM396 340H392.627C392.627 404.411 340.411 456.627 276 456.627V460V463.373C344.137 463.373 399.373 408.137 399.373 340H396ZM276 220V223.373C340.411 223.373 392.627 275.589 392.627 340H396H399.373C399.373 271.863 344.137 216.627 276 216.627V220ZM276 220V216.627C207.863 216.627 152.627 271.863 152.627 340H156H159.373C159.373 275.589 211.589 223.373 276 223.373V220Z" fill="#E5E5E5" mask="url(#path-7-inside-1_15283_31290)"/>
<path d="M244.045 364H236.591L253.341 317.455H261.455L278.205 364H270.75L257.591 325.909H257.227L244.045 364ZM245.295 345.773H269.477V351.682H245.295V345.773ZM294.54 364.773C292.328 364.773 290.328 364.364 288.54 363.545C286.752 362.712 285.335 361.508 284.29 359.932C283.259 358.356 282.744 356.424 282.744 354.136C282.744 352.167 283.123 350.545 283.881 349.273C284.638 348 285.661 346.992 286.949 346.25C288.237 345.508 289.676 344.947 291.267 344.568C292.858 344.189 294.479 343.902 296.131 343.705C298.222 343.462 299.919 343.265 301.222 343.114C302.525 342.947 303.472 342.682 304.062 342.318C304.653 341.955 304.949 341.364 304.949 340.545V340.386C304.949 338.402 304.388 336.864 303.267 335.773C302.161 334.682 300.509 334.136 298.312 334.136C296.025 334.136 294.222 334.644 292.903 335.659C291.6 336.659 290.699 337.773 290.199 339L283.812 337.545C284.57 335.424 285.676 333.712 287.131 332.409C288.6 331.091 290.29 330.136 292.199 329.545C294.108 328.939 296.116 328.636 298.222 328.636C299.616 328.636 301.093 328.803 302.653 329.136C304.229 329.455 305.699 330.045 307.062 330.909C308.441 331.773 309.57 333.008 310.449 334.614C311.328 336.205 311.767 338.273 311.767 340.818V364H305.131V359.227H304.858C304.419 360.106 303.759 360.97 302.881 361.818C302.002 362.667 300.873 363.371 299.494 363.932C298.116 364.492 296.464 364.773 294.54 364.773ZM296.017 359.318C297.896 359.318 299.502 358.947 300.835 358.205C302.184 357.462 303.206 356.492 303.903 355.295C304.616 354.083 304.972 352.788 304.972 351.409V346.909C304.729 347.152 304.259 347.379 303.562 347.591C302.881 347.788 302.1 347.962 301.222 348.114C300.343 348.25 299.487 348.379 298.653 348.5C297.82 348.606 297.123 348.697 296.562 348.773C295.244 348.939 294.04 349.22 292.949 349.614C291.873 350.008 291.009 350.576 290.358 351.318C289.722 352.045 289.403 353.015 289.403 354.227C289.403 355.909 290.025 357.182 291.267 358.045C292.509 358.894 294.093 359.318 296.017 359.318Z" fill="#333333"/>
<mask id="path-10-inside-2_15283_31290" fill="white">
<path d="M476 340C476 257.157 543.157 190 626 190H726C808.843 190 876 257.157 876 340C876 422.843 808.843 490 726 490H626C543.157 490 476 422.843 476 340Z"/>
</mask>
<path d="M476 340C476 257.157 543.157 190 626 190H726C808.843 190 876 257.157 876 340C876 422.843 808.843 490 726 490H626C543.157 490 476 422.843 476 340Z" fill="white"/>
<path d="M626 190V193.373H726V190V186.627H626V190ZM726 490V486.626H626V490V493.374H726V490ZM626 490V486.626C545.02 486.626 479.373 420.98 479.373 340H476H472.627C472.627 424.706 541.294 493.374 626 493.374V490ZM876 340H872.626C872.626 420.98 806.98 486.626 726 486.626V490V493.374C810.706 493.374 879.374 424.706 879.374 340H876ZM726 190V193.373C806.98 193.373 872.626 259.02 872.626 340H876H879.374C879.374 255.294 810.706 186.627 726 186.627V190ZM626 190V186.627C541.294 186.627 472.627 255.294 472.627 340H476H479.373C479.373 259.02 545.02 193.373 626 193.373V190Z" fill="#E5E5E5" mask="url(#path-10-inside-2_15283_31290)"/>
<path d="M501.192 335.909L496.616 349H492.525L487.948 335.909H491.783L494.502 345.276H494.638L497.349 335.909H501.192ZM513.942 339.642L510.619 339.847C510.562 339.562 510.44 339.307 510.252 339.08C510.065 338.847 509.817 338.662 509.511 338.526C509.21 338.384 508.849 338.312 508.428 338.312C507.866 338.312 507.391 338.432 507.005 338.67C506.619 338.903 506.425 339.216 506.425 339.608C506.425 339.92 506.55 340.185 506.8 340.401C507.05 340.616 507.479 340.79 508.087 340.92L510.457 341.398C511.729 341.659 512.678 342.08 513.303 342.659C513.928 343.239 514.241 344 514.241 344.943C514.241 345.801 513.988 346.554 513.482 347.202C512.982 347.849 512.295 348.355 511.42 348.719C510.55 349.077 509.548 349.256 508.411 349.256C506.678 349.256 505.298 348.895 504.269 348.173C503.246 347.446 502.647 346.457 502.471 345.207L506.042 345.02C506.15 345.548 506.411 345.952 506.826 346.23C507.241 346.503 507.772 346.639 508.42 346.639C509.056 346.639 509.567 346.517 509.954 346.273C510.346 346.023 510.545 345.702 510.55 345.31C510.545 344.98 510.406 344.71 510.133 344.5C509.86 344.284 509.44 344.119 508.871 344.006L506.604 343.554C505.326 343.298 504.374 342.855 503.749 342.224C503.13 341.594 502.82 340.79 502.82 339.812C502.82 338.972 503.048 338.247 503.502 337.639C503.962 337.031 504.607 336.562 505.437 336.233C506.272 335.903 507.249 335.739 508.369 335.739C510.022 335.739 511.323 336.088 512.272 336.787C513.227 337.486 513.783 338.437 513.942 339.642ZM521.351 349.213C520.357 349.213 519.456 348.957 518.649 348.446C517.848 347.929 517.212 347.17 516.74 346.17C516.274 345.165 516.041 343.932 516.041 342.472C516.041 340.972 516.283 339.724 516.766 338.73C517.249 337.73 517.891 336.983 518.692 336.489C519.499 335.989 520.382 335.739 521.342 335.739C522.075 335.739 522.686 335.864 523.175 336.114C523.669 336.358 524.067 336.665 524.368 337.034C524.675 337.398 524.908 337.756 525.067 338.108H525.178V331.545H528.8V349H525.22V346.903H525.067C524.896 347.267 524.655 347.628 524.342 347.986C524.036 348.338 523.635 348.631 523.141 348.864C522.652 349.097 522.055 349.213 521.351 349.213ZM522.501 346.324C523.087 346.324 523.581 346.165 523.984 345.847C524.393 345.523 524.706 345.071 524.922 344.491C525.143 343.912 525.254 343.233 525.254 342.455C525.254 341.676 525.146 341 524.93 340.426C524.714 339.852 524.402 339.409 523.993 339.097C523.584 338.784 523.087 338.628 522.501 338.628C521.905 338.628 521.402 338.79 520.993 339.114C520.584 339.437 520.274 339.886 520.064 340.46C519.854 341.034 519.749 341.699 519.749 342.455C519.749 343.216 519.854 343.889 520.064 344.474C520.28 345.054 520.589 345.509 520.993 345.838C521.402 346.162 521.905 346.324 522.501 346.324ZM542.677 339.642L539.353 339.847C539.296 339.562 539.174 339.307 538.987 339.08C538.799 338.847 538.552 338.662 538.245 338.526C537.944 338.384 537.583 338.312 537.163 338.312C536.6 338.312 536.126 338.432 535.739 338.67C535.353 338.903 535.16 339.216 535.16 339.608C535.16 339.92 535.285 340.185 535.535 340.401C535.785 340.616 536.214 340.79 536.822 340.92L539.191 341.398C540.464 341.659 541.413 342.08 542.038 342.659C542.663 343.239 542.975 344 542.975 344.943C542.975 345.801 542.722 346.554 542.217 347.202C541.717 347.849 541.029 348.355 540.154 348.719C539.285 349.077 538.282 349.256 537.146 349.256C535.413 349.256 534.032 348.895 533.004 348.173C531.981 347.446 531.381 346.457 531.205 345.207L534.776 345.02C534.884 345.548 535.146 345.952 535.56 346.23C535.975 346.503 536.506 346.639 537.154 346.639C537.79 346.639 538.302 346.517 538.688 346.273C539.08 346.023 539.279 345.702 539.285 345.31C539.279 344.98 539.14 344.71 538.867 344.5C538.594 344.284 538.174 344.119 537.606 344.006L535.339 343.554C534.06 343.298 533.109 342.855 532.484 342.224C531.864 341.594 531.555 340.79 531.555 339.812C531.555 338.972 531.782 338.247 532.237 337.639C532.697 337.031 533.342 336.562 534.171 336.233C535.006 335.903 535.984 335.739 537.103 335.739C538.756 335.739 540.058 336.088 541.006 336.787C541.961 337.486 542.518 338.437 542.677 339.642ZM553.418 340.392V343.273H545.457V340.392H553.418ZM563.551 335.909V338.636H555.472V335.909H563.551ZM557.321 349V334.963C557.321 334.014 557.506 333.227 557.875 332.602C558.25 331.977 558.761 331.509 559.409 331.196C560.057 330.884 560.793 330.727 561.616 330.727C562.173 330.727 562.682 330.77 563.142 330.855C563.608 330.94 563.955 331.017 564.182 331.085L563.534 333.812C563.392 333.767 563.216 333.724 563.006 333.685C562.801 333.645 562.591 333.625 562.375 333.625C561.841 333.625 561.469 333.75 561.259 334C561.048 334.244 560.943 334.588 560.943 335.031V349H557.321ZM571.215 349.256C569.891 349.256 568.746 348.974 567.781 348.412C566.82 347.844 566.079 347.054 565.556 346.043C565.033 345.026 564.772 343.847 564.772 342.506C564.772 341.153 565.033 339.972 565.556 338.96C566.079 337.943 566.82 337.153 567.781 336.591C568.746 336.023 569.891 335.739 571.215 335.739C572.539 335.739 573.681 336.023 574.641 336.591C575.607 337.153 576.352 337.943 576.874 338.96C577.397 339.972 577.658 341.153 577.658 342.506C577.658 343.847 577.397 345.026 576.874 346.043C576.352 347.054 575.607 347.844 574.641 348.412C573.681 348.974 572.539 349.256 571.215 349.256ZM571.232 346.443C571.835 346.443 572.337 346.273 572.741 345.932C573.144 345.585 573.448 345.114 573.653 344.517C573.863 343.92 573.968 343.241 573.968 342.48C573.968 341.719 573.863 341.04 573.653 340.443C573.448 339.847 573.144 339.375 572.741 339.028C572.337 338.682 571.835 338.509 571.232 338.509C570.624 338.509 570.113 338.682 569.698 339.028C569.289 339.375 568.979 339.847 568.769 340.443C568.565 341.04 568.462 341.719 568.462 342.48C568.462 343.241 568.565 343.92 568.769 344.517C568.979 345.114 569.289 345.585 569.698 345.932C570.113 346.273 570.624 346.443 571.232 346.443ZM588.414 343.426V335.909H592.045V349H588.559V346.622H588.423C588.127 347.389 587.636 348.006 586.948 348.472C586.266 348.937 585.434 349.17 584.451 349.17C583.576 349.17 582.806 348.972 582.141 348.574C581.477 348.176 580.957 347.611 580.582 346.878C580.212 346.145 580.025 345.267 580.019 344.244V335.909H583.65V343.597C583.656 344.369 583.863 344.98 584.272 345.429C584.681 345.878 585.229 346.102 585.917 346.102C586.354 346.102 586.763 346.003 587.144 345.804C587.525 345.599 587.832 345.298 588.065 344.901C588.303 344.503 588.42 344.011 588.414 343.426ZM598.58 341.432V349H594.949V335.909H598.409V338.219H598.562C598.852 337.457 599.338 336.855 600.02 336.412C600.702 335.963 601.528 335.739 602.5 335.739C603.409 335.739 604.202 335.938 604.878 336.335C605.554 336.733 606.08 337.301 606.455 338.04C606.83 338.773 607.017 339.648 607.017 340.665V349H603.386V341.312C603.392 340.511 603.188 339.886 602.773 339.438C602.358 338.983 601.787 338.756 601.06 338.756C600.571 338.756 600.139 338.861 599.764 339.071C599.395 339.281 599.105 339.588 598.895 339.991C598.69 340.389 598.585 340.869 598.58 341.432ZM618.035 340.392V343.273H610.075V340.392H618.035ZM628.168 335.909V338.636H620.089V335.909H628.168ZM621.938 349V334.963C621.938 334.014 622.123 333.227 622.492 332.602C622.867 331.977 623.379 331.509 624.026 331.196C624.674 330.884 625.41 330.727 626.234 330.727C626.79 330.727 627.299 330.77 627.759 330.855C628.225 330.94 628.572 331.017 628.799 331.085L628.151 333.812C628.009 333.767 627.833 333.724 627.623 333.685C627.418 333.645 627.208 333.625 626.992 333.625C626.458 333.625 626.086 333.75 625.876 334C625.665 334.244 625.56 334.588 625.56 335.031V349H621.938ZM635.832 349.256C634.509 349.256 633.364 348.974 632.398 348.412C631.438 347.844 630.696 347.054 630.173 346.043C629.651 345.026 629.389 343.847 629.389 342.506C629.389 341.153 629.651 339.972 630.173 338.96C630.696 337.943 631.438 337.153 632.398 336.591C633.364 336.023 634.509 335.739 635.832 335.739C637.156 335.739 638.298 336.023 639.259 336.591C640.224 337.153 640.969 337.943 641.491 338.96C642.014 339.972 642.276 341.153 642.276 342.506C642.276 343.847 642.014 345.026 641.491 346.043C640.969 347.054 640.224 347.844 639.259 348.412C638.298 348.974 637.156 349.256 635.832 349.256ZM635.849 346.443C636.452 346.443 636.955 346.273 637.358 345.932C637.761 345.585 638.065 345.114 638.27 344.517C638.48 343.92 638.585 343.241 638.585 342.48C638.585 341.719 638.48 341.04 638.27 340.443C638.065 339.847 637.761 339.375 637.358 339.028C636.955 338.682 636.452 338.509 635.849 338.509C635.241 338.509 634.73 338.682 634.315 339.028C633.906 339.375 633.597 339.847 633.386 340.443C633.182 341.04 633.08 341.719 633.08 342.48C633.08 343.241 633.182 343.92 633.386 344.517C633.597 345.114 633.906 345.585 634.315 345.932C634.73 346.273 635.241 346.443 635.849 346.443ZM648.267 341.432V349H644.636V335.909H648.097V338.219H648.25C648.54 337.457 649.026 336.855 649.707 336.412C650.389 335.963 651.216 335.739 652.188 335.739C653.097 335.739 653.889 335.938 654.565 336.335C655.241 336.733 655.767 337.301 656.142 338.04C656.517 338.773 656.705 339.648 656.705 340.665V349H653.074V341.312C653.08 340.511 652.875 339.886 652.46 339.438C652.045 338.983 651.474 338.756 650.747 338.756C650.259 338.756 649.827 338.861 649.452 339.071C649.082 339.281 648.793 339.588 648.582 339.991C648.378 340.389 648.273 340.869 648.267 341.432ZM666.529 335.909V338.636H658.646V335.909H666.529ZM660.435 332.773H664.066V344.977C664.066 345.312 664.117 345.574 664.219 345.761C664.322 345.943 664.464 346.071 664.646 346.145C664.833 346.219 665.049 346.256 665.293 346.256C665.464 346.256 665.634 346.241 665.805 346.213C665.975 346.179 666.106 346.153 666.197 346.136L666.768 348.838C666.586 348.895 666.33 348.96 666.001 349.034C665.671 349.114 665.271 349.162 664.799 349.179C663.924 349.213 663.157 349.097 662.498 348.83C661.844 348.562 661.336 348.148 660.972 347.585C660.609 347.023 660.43 346.312 660.435 345.455V332.773ZM676.652 340.392V343.273H668.692V340.392H676.652ZM682.328 349L678.766 335.909H682.439L684.467 344.705H684.587L686.7 335.909H690.305L692.453 344.653H692.564L694.558 335.909H698.223L694.669 349H690.825L688.575 340.767H688.413L686.163 349H682.328ZM705.798 349.256C704.451 349.256 703.292 348.983 702.32 348.438C701.354 347.886 700.61 347.108 700.087 346.102C699.565 345.091 699.303 343.895 699.303 342.514C699.303 341.168 699.565 339.986 700.087 338.969C700.61 337.952 701.346 337.159 702.295 336.591C703.249 336.023 704.369 335.739 705.653 335.739C706.516 335.739 707.32 335.878 708.065 336.156C708.815 336.429 709.468 336.841 710.025 337.392C710.587 337.943 711.025 338.636 711.337 339.472C711.65 340.301 711.806 341.273 711.806 342.386V343.384H700.752V341.134H708.388C708.388 340.611 708.275 340.148 708.048 339.744C707.82 339.341 707.505 339.026 707.102 338.798C706.704 338.565 706.241 338.449 705.712 338.449C705.161 338.449 704.673 338.577 704.246 338.832C703.826 339.082 703.496 339.42 703.258 339.847C703.019 340.267 702.897 340.736 702.891 341.253V343.392C702.891 344.04 703.011 344.599 703.249 345.071C703.494 345.543 703.837 345.906 704.281 346.162C704.724 346.418 705.249 346.545 705.857 346.545C706.261 346.545 706.63 346.489 706.965 346.375C707.3 346.261 707.587 346.091 707.826 345.864C708.065 345.636 708.246 345.358 708.371 345.028L711.729 345.25C711.559 346.057 711.21 346.761 710.681 347.364C710.158 347.96 709.482 348.426 708.653 348.761C707.829 349.091 706.877 349.256 705.798 349.256ZM714.175 349V335.909H717.806V349H714.175ZM715.999 334.222C715.46 334.222 714.996 334.043 714.61 333.685C714.229 333.321 714.039 332.886 714.039 332.381C714.039 331.881 714.229 331.452 714.61 331.094C714.996 330.73 715.46 330.548 715.999 330.548C716.539 330.548 716.999 330.73 717.38 331.094C717.766 331.452 717.96 331.881 717.96 332.381C717.96 332.886 717.766 333.321 717.38 333.685C716.999 334.043 716.539 334.222 715.999 334.222ZM726.612 354.182C725.436 354.182 724.428 354.02 723.587 353.696C722.751 353.378 722.087 352.943 721.592 352.392C721.098 351.841 720.777 351.222 720.629 350.534L723.987 350.082C724.089 350.344 724.251 350.588 724.473 350.815C724.695 351.043 724.987 351.224 725.351 351.361C725.72 351.503 726.169 351.574 726.697 351.574C727.487 351.574 728.138 351.381 728.649 350.994C729.166 350.614 729.425 349.974 729.425 349.077V346.682H729.271C729.112 347.045 728.874 347.389 728.555 347.713C728.237 348.037 727.828 348.301 727.328 348.506C726.828 348.71 726.232 348.812 725.538 348.812C724.555 348.812 723.661 348.585 722.854 348.131C722.053 347.67 721.413 346.969 720.936 346.026C720.464 345.077 720.229 343.878 720.229 342.429C720.229 340.946 720.47 339.707 720.953 338.713C721.436 337.719 722.078 336.974 722.879 336.48C723.686 335.986 724.57 335.739 725.53 335.739C726.263 335.739 726.876 335.864 727.371 336.114C727.865 336.358 728.263 336.665 728.564 337.034C728.871 337.398 729.107 337.756 729.271 338.108H729.408V335.909H733.013V349.128C733.013 350.241 732.74 351.173 732.195 351.923C731.649 352.673 730.893 353.236 729.928 353.611C728.967 353.991 727.862 354.182 726.612 354.182ZM726.689 346.085C727.274 346.085 727.768 345.94 728.172 345.651C728.581 345.355 728.893 344.935 729.109 344.389C729.331 343.838 729.442 343.179 729.442 342.412C729.442 341.645 729.334 340.98 729.118 340.418C728.902 339.849 728.589 339.409 728.18 339.097C727.771 338.784 727.274 338.628 726.689 338.628C726.092 338.628 725.589 338.79 725.18 339.114C724.771 339.432 724.462 339.875 724.251 340.443C724.041 341.011 723.936 341.668 723.936 342.412C723.936 343.168 724.041 343.821 724.251 344.372C724.467 344.918 724.777 345.341 725.18 345.642C725.589 345.937 726.092 346.085 726.689 346.085ZM739.533 341.432V349H735.902V331.545H739.43V338.219H739.584C739.879 337.446 740.357 336.841 741.016 336.403C741.675 335.96 742.501 335.739 743.496 335.739C744.405 335.739 745.197 335.938 745.874 336.335C746.555 336.727 747.084 337.293 747.459 338.031C747.839 338.764 748.027 339.642 748.021 340.665V349H744.391V341.312C744.396 340.506 744.192 339.878 743.777 339.429C743.368 338.98 742.794 338.756 742.055 338.756C741.561 338.756 741.124 338.861 740.743 339.071C740.368 339.281 740.072 339.588 739.857 339.991C739.646 340.389 739.538 340.869 739.533 341.432ZM757.842 335.909V338.636H749.958V335.909H757.842ZM751.748 332.773H755.379V344.977C755.379 345.312 755.43 345.574 755.532 345.761C755.634 345.943 755.776 346.071 755.958 346.145C756.146 346.219 756.362 346.256 756.606 346.256C756.776 346.256 756.947 346.241 757.117 346.213C757.288 346.179 757.418 346.153 757.509 346.136L758.08 348.838C757.898 348.895 757.643 348.96 757.313 349.034C756.984 349.114 756.583 349.162 756.112 349.179C755.237 349.213 754.469 349.097 753.81 348.83C753.157 348.562 752.648 348.148 752.285 347.585C751.921 347.023 751.742 346.312 751.748 345.455V332.773ZM767.964 340.392V343.273H760.004V340.392H767.964ZM771.058 349V335.909H774.518V338.219H774.672C774.945 337.452 775.399 336.847 776.036 336.403C776.672 335.96 777.433 335.739 778.32 335.739C779.217 335.739 779.982 335.963 780.612 336.412C781.243 336.855 781.663 337.457 781.874 338.219H782.01C782.277 337.469 782.76 336.869 783.459 336.42C784.163 335.966 784.996 335.739 785.956 335.739C787.178 335.739 788.169 336.128 788.93 336.906C789.697 337.679 790.081 338.776 790.081 340.196V349H786.459V340.912C786.459 340.185 786.266 339.639 785.879 339.276C785.493 338.912 785.01 338.73 784.43 338.73C783.771 338.73 783.257 338.94 782.888 339.361C782.518 339.776 782.334 340.324 782.334 341.006V349H778.814V340.835C778.814 340.193 778.629 339.682 778.26 339.301C777.896 338.92 777.416 338.73 776.82 338.73C776.416 338.73 776.053 338.832 775.729 339.037C775.411 339.236 775.158 339.517 774.97 339.881C774.783 340.239 774.689 340.659 774.689 341.142V349H771.058ZM798.915 349.256C797.568 349.256 796.409 348.983 795.438 348.438C794.472 347.886 793.727 347.108 793.205 346.102C792.682 345.091 792.42 343.895 792.42 342.514C792.42 341.168 792.682 339.986 793.205 338.969C793.727 337.952 794.463 337.159 795.412 336.591C796.366 336.023 797.486 335.739 798.77 335.739C799.634 335.739 800.438 335.878 801.182 336.156C801.932 336.429 802.585 336.841 803.142 337.392C803.705 337.943 804.142 338.636 804.455 339.472C804.767 340.301 804.923 341.273 804.923 342.386V343.384H793.869V341.134H801.506C801.506 340.611 801.392 340.148 801.165 339.744C800.938 339.341 800.622 339.026 800.219 338.798C799.821 338.565 799.358 338.449 798.83 338.449C798.278 338.449 797.79 338.577 797.364 338.832C796.943 339.082 796.614 339.42 796.375 339.847C796.136 340.267 796.014 340.736 796.009 341.253V343.392C796.009 344.04 796.128 344.599 796.366 345.071C796.611 345.543 796.955 345.906 797.398 346.162C797.841 346.418 798.366 346.545 798.974 346.545C799.378 346.545 799.747 346.489 800.082 346.375C800.418 346.261 800.705 346.091 800.943 345.864C801.182 345.636 801.364 345.358 801.489 345.028L804.847 345.25C804.676 346.057 804.327 346.761 803.798 347.364C803.276 347.96 802.599 348.426 801.77 348.761C800.946 349.091 799.994 349.256 798.915 349.256ZM812.116 349.213C811.122 349.213 810.222 348.957 809.415 348.446C808.614 347.929 807.977 347.17 807.506 346.17C807.04 345.165 806.807 343.932 806.807 342.472C806.807 340.972 807.048 339.724 807.531 338.73C808.014 337.73 808.656 336.983 809.457 336.489C810.264 335.989 811.148 335.739 812.108 335.739C812.841 335.739 813.452 335.864 813.94 336.114C814.435 336.358 814.832 336.665 815.134 337.034C815.44 337.398 815.673 337.756 815.832 338.108H815.943V331.545H819.565V349H815.986V346.903H815.832C815.662 347.267 815.42 347.628 815.108 347.986C814.801 348.338 814.401 348.631 813.906 348.864C813.418 349.097 812.821 349.213 812.116 349.213ZM813.267 346.324C813.852 346.324 814.347 346.165 814.75 345.847C815.159 345.523 815.472 345.071 815.688 344.491C815.909 343.912 816.02 343.233 816.02 342.455C816.02 341.676 815.912 341 815.696 340.426C815.48 339.852 815.168 339.409 814.759 339.097C814.349 338.784 813.852 338.628 813.267 338.628C812.67 338.628 812.168 338.79 811.759 339.114C811.349 339.437 811.04 339.886 810.83 340.46C810.619 341.034 810.514 341.699 810.514 342.455C810.514 343.216 810.619 343.889 810.83 344.474C811.045 345.054 811.355 345.509 811.759 345.838C812.168 346.162 812.67 346.324 813.267 346.324ZM822.55 349V335.909H826.181V349H822.55ZM824.374 334.222C823.835 334.222 823.371 334.043 822.985 333.685C822.604 333.321 822.414 332.886 822.414 332.381C822.414 331.881 822.604 331.452 822.985 331.094C823.371 330.73 823.835 330.548 824.374 330.548C824.914 330.548 825.374 330.73 825.755 331.094C826.141 331.452 826.335 331.881 826.335 332.381C826.335 332.886 826.141 333.321 825.755 333.685C825.374 334.043 824.914 334.222 824.374 334.222ZM837.484 343.426V335.909H841.115V349H837.629V346.622H837.493C837.197 347.389 836.706 348.006 836.018 348.472C835.337 348.937 834.504 349.17 833.521 349.17C832.646 349.17 831.876 348.972 831.212 348.574C830.547 348.176 830.027 347.611 829.652 346.878C829.283 346.145 829.095 345.267 829.089 344.244V335.909H832.72V343.597C832.726 344.369 832.933 344.98 833.342 345.429C833.751 345.878 834.3 346.102 834.987 346.102C835.425 346.102 835.834 346.003 836.214 345.804C836.595 345.599 836.902 345.298 837.135 344.901C837.374 344.503 837.49 344.011 837.484 343.426ZM844.019 349V335.909H847.479V338.219H847.633C847.906 337.452 848.36 336.847 848.996 336.403C849.633 335.96 850.394 335.739 851.281 335.739C852.178 335.739 852.942 335.963 853.573 336.412C854.204 336.855 854.624 337.457 854.835 338.219H854.971C855.238 337.469 855.721 336.869 856.42 336.42C857.124 335.966 857.957 335.739 858.917 335.739C860.138 335.739 861.13 336.128 861.891 336.906C862.658 337.679 863.042 338.776 863.042 340.196V349H859.42V340.912C859.42 340.185 859.227 339.639 858.84 339.276C858.454 338.912 857.971 338.73 857.391 338.73C856.732 338.73 856.218 338.94 855.849 339.361C855.479 339.776 855.295 340.324 855.295 341.006V349H851.775V340.835C851.775 340.193 851.59 339.682 851.221 339.301C850.857 338.92 850.377 338.73 849.781 338.73C849.377 338.73 849.013 338.832 848.69 339.037C848.371 339.236 848.119 339.517 847.931 339.881C847.744 340.239 847.65 340.659 847.65 341.142V349H844.019Z" fill="#333333"/>
<path d="M215.83 142.812V140.545H229.339V142.812H223.893V158H221.268V142.812H215.83ZM235.863 158.264C234.573 158.264 233.462 157.989 232.531 157.438C231.604 156.881 230.888 156.099 230.383 155.094C229.883 154.082 229.633 152.898 229.633 151.54C229.633 150.199 229.883 149.017 230.383 147.994C230.888 146.972 231.593 146.173 232.496 145.599C233.406 145.026 234.468 144.739 235.684 144.739C236.423 144.739 237.138 144.861 237.832 145.105C238.525 145.349 239.147 145.733 239.698 146.256C240.249 146.778 240.684 147.457 241.002 148.293C241.32 149.122 241.479 150.131 241.479 151.318V152.222H231.073V150.312H238.982C238.982 149.642 238.846 149.048 238.573 148.531C238.3 148.009 237.917 147.597 237.423 147.295C236.934 146.994 236.36 146.844 235.701 146.844C234.985 146.844 234.36 147.02 233.826 147.372C233.298 147.719 232.888 148.173 232.599 148.736C232.315 149.293 232.173 149.898 232.173 150.551V152.043C232.173 152.918 232.326 153.662 232.633 154.276C232.945 154.889 233.38 155.358 233.937 155.682C234.494 156 235.144 156.159 235.888 156.159C236.371 156.159 236.812 156.091 237.21 155.955C237.607 155.812 237.951 155.602 238.241 155.324C238.531 155.045 238.752 154.702 238.906 154.293L241.317 154.727C241.124 155.437 240.778 156.06 240.278 156.594C239.783 157.122 239.161 157.534 238.411 157.83C237.667 158.119 236.817 158.264 235.863 158.264ZM246.013 144.909L248.903 150.006L251.817 144.909H254.604L250.522 151.455L254.638 158H251.852L248.903 153.108L245.962 158H243.167L247.241 151.455L243.218 144.909H246.013ZM263.332 144.909V146.955H256.181V144.909H263.332ZM258.099 141.773H260.647V154.156C260.647 154.651 260.721 155.023 260.869 155.273C261.016 155.517 261.207 155.685 261.44 155.776C261.678 155.861 261.937 155.903 262.215 155.903C262.42 155.903 262.599 155.889 262.752 155.861C262.906 155.832 263.025 155.81 263.11 155.793L263.57 157.898C263.423 157.955 263.212 158.011 262.94 158.068C262.667 158.131 262.326 158.165 261.917 158.17C261.246 158.182 260.621 158.062 260.042 157.812C259.462 157.562 258.994 157.176 258.636 156.653C258.278 156.131 258.099 155.474 258.099 154.685V141.773ZM272.707 158V140.545H275.255V147.031H275.408C275.556 146.759 275.769 146.443 276.048 146.085C276.326 145.727 276.712 145.415 277.207 145.148C277.701 144.875 278.354 144.739 279.167 144.739C280.224 144.739 281.167 145.006 281.996 145.54C282.826 146.074 283.477 146.844 283.948 147.849C284.425 148.855 284.664 150.065 284.664 151.48C284.664 152.895 284.428 154.108 283.957 155.119C283.485 156.125 282.837 156.901 282.013 157.446C281.19 157.986 280.249 158.256 279.192 158.256C278.397 158.256 277.746 158.122 277.241 157.855C276.741 157.588 276.349 157.276 276.065 156.918C275.781 156.56 275.562 156.241 275.408 155.963H275.195V158H272.707ZM275.204 151.455C275.204 152.375 275.337 153.182 275.604 153.875C275.871 154.568 276.258 155.111 276.763 155.503C277.269 155.889 277.888 156.082 278.621 156.082C279.383 156.082 280.019 155.881 280.531 155.477C281.042 155.068 281.428 154.514 281.69 153.815C281.957 153.116 282.09 152.33 282.09 151.455C282.09 150.591 281.96 149.815 281.698 149.128C281.442 148.44 281.056 147.898 280.539 147.5C280.028 147.102 279.388 146.903 278.621 146.903C277.883 146.903 277.258 147.094 276.746 147.474C276.241 147.855 275.857 148.386 275.596 149.068C275.335 149.75 275.204 150.545 275.204 151.455ZM290.074 140.545V158H287.526V140.545H290.074ZM299.016 158.264C297.789 158.264 296.718 157.983 295.803 157.42C294.888 156.858 294.178 156.071 293.673 155.06C293.167 154.048 292.914 152.866 292.914 151.514C292.914 150.156 293.167 148.969 293.673 147.952C294.178 146.935 294.888 146.145 295.803 145.582C296.718 145.02 297.789 144.739 299.016 144.739C300.244 144.739 301.315 145.02 302.229 145.582C303.144 146.145 303.854 146.935 304.36 147.952C304.866 148.969 305.119 150.156 305.119 151.514C305.119 152.866 304.866 154.048 304.36 155.06C303.854 156.071 303.144 156.858 302.229 157.42C301.315 157.983 300.244 158.264 299.016 158.264ZM299.025 156.125C299.82 156.125 300.479 155.915 301.002 155.494C301.525 155.074 301.911 154.514 302.161 153.815C302.417 153.116 302.545 152.347 302.545 151.506C302.545 150.67 302.417 149.903 302.161 149.205C301.911 148.5 301.525 147.935 301.002 147.509C300.479 147.082 299.82 146.869 299.025 146.869C298.224 146.869 297.559 147.082 297.031 147.509C296.508 147.935 296.119 148.5 295.863 149.205C295.613 149.903 295.488 150.67 295.488 151.506C295.488 152.347 295.613 153.116 295.863 153.815C296.119 154.514 296.508 155.074 297.031 155.494C297.559 155.915 298.224 156.125 299.025 156.125ZM313.477 158.264C312.21 158.264 311.119 157.977 310.205 157.403C309.295 156.824 308.597 156.026 308.108 155.009C307.619 153.991 307.375 152.827 307.375 151.514C307.375 150.185 307.625 149.011 308.125 147.994C308.625 146.972 309.33 146.173 310.239 145.599C311.148 145.026 312.219 144.739 313.452 144.739C314.446 144.739 315.332 144.923 316.111 145.293C316.889 145.656 317.517 146.168 317.994 146.827C318.477 147.486 318.764 148.256 318.855 149.136H316.375C316.239 148.523 315.926 147.994 315.438 147.551C314.955 147.108 314.307 146.886 313.494 146.886C312.784 146.886 312.162 147.074 311.628 147.449C311.099 147.818 310.688 148.347 310.392 149.034C310.097 149.716 309.949 150.523 309.949 151.455C309.949 152.409 310.094 153.233 310.384 153.926C310.673 154.619 311.082 155.156 311.611 155.537C312.145 155.918 312.773 156.108 313.494 156.108C313.977 156.108 314.415 156.02 314.807 155.844C315.205 155.662 315.537 155.403 315.804 155.068C316.077 154.733 316.267 154.33 316.375 153.858H318.855C318.764 154.705 318.489 155.46 318.028 156.125C317.568 156.79 316.952 157.312 316.179 157.693C315.412 158.074 314.511 158.264 313.477 158.264ZM323.924 153.56L323.907 150.449H324.35L329.566 144.909H332.617L326.668 151.216H326.268L323.924 153.56ZM321.58 158V140.545H324.129V158H321.58ZM329.847 158L325.16 151.778L326.915 149.997L332.975 158H329.847Z" fill="#333333"/>
<path d="M1096.32 158H1093.53L1099.81 140.545H1102.85L1109.13 158H1106.34L1101.4 143.716H1101.26L1096.32 158ZM1096.79 151.165H1105.86V153.381H1096.79V151.165ZM1114 140.545V158H1111.45V140.545H1114ZM1117.42 158V144.909H1119.97V158H1117.42ZM1118.71 142.889C1118.27 142.889 1117.89 142.741 1117.57 142.446C1117.26 142.145 1117.1 141.787 1117.1 141.372C1117.1 140.952 1117.26 140.594 1117.57 140.298C1117.89 139.997 1118.27 139.847 1118.71 139.847C1119.15 139.847 1119.53 139.997 1119.84 140.298C1120.16 140.594 1120.32 140.952 1120.32 141.372C1120.32 141.787 1120.16 142.145 1119.84 142.446C1119.53 142.741 1119.15 142.889 1118.71 142.889ZM1127.21 158.29C1126.38 158.29 1125.63 158.136 1124.96 157.83C1124.29 157.517 1123.76 157.065 1123.37 156.474C1122.98 155.884 1122.79 155.159 1122.79 154.301C1122.79 153.562 1122.93 152.955 1123.21 152.477C1123.5 152 1123.88 151.622 1124.36 151.344C1124.85 151.065 1125.39 150.855 1125.98 150.713C1126.58 150.571 1127.19 150.463 1127.81 150.389C1128.59 150.298 1129.23 150.224 1129.72 150.168C1130.2 150.105 1130.56 150.006 1130.78 149.869C1131 149.733 1131.11 149.511 1131.11 149.205V149.145C1131.11 148.401 1130.9 147.824 1130.48 147.415C1130.07 147.006 1129.45 146.801 1128.62 146.801C1127.77 146.801 1127.09 146.991 1126.6 147.372C1126.11 147.747 1125.77 148.165 1125.58 148.625L1123.19 148.08C1123.47 147.284 1123.89 146.642 1124.43 146.153C1124.98 145.659 1125.62 145.301 1126.33 145.08C1127.05 144.852 1127.8 144.739 1128.59 144.739C1129.11 144.739 1129.67 144.801 1130.25 144.926C1130.84 145.045 1131.39 145.267 1131.91 145.591C1132.42 145.915 1132.85 146.378 1133.18 146.98C1133.51 147.577 1133.67 148.352 1133.67 149.307V158H1131.18V156.21H1131.08C1130.91 156.54 1130.67 156.864 1130.34 157.182C1130.01 157.5 1129.59 157.764 1129.07 157.974C1128.55 158.185 1127.93 158.29 1127.21 158.29ZM1127.76 156.244C1128.47 156.244 1129.07 156.105 1129.57 155.827C1130.08 155.548 1130.46 155.185 1130.72 154.736C1130.99 154.281 1131.12 153.795 1131.12 153.278V151.591C1131.03 151.682 1130.86 151.767 1130.59 151.847C1130.34 151.92 1130.05 151.986 1129.72 152.043C1129.39 152.094 1129.07 152.142 1128.75 152.188C1128.44 152.227 1128.18 152.261 1127.97 152.29C1127.47 152.352 1127.02 152.457 1126.61 152.605C1126.21 152.753 1125.89 152.966 1125.64 153.244C1125.4 153.517 1125.28 153.881 1125.28 154.335C1125.28 154.966 1125.52 155.443 1125.98 155.767C1126.45 156.085 1127.04 156.244 1127.76 156.244ZM1146.87 148.105L1144.56 148.514C1144.47 148.219 1144.31 147.937 1144.1 147.67C1143.9 147.403 1143.62 147.185 1143.27 147.014C1142.92 146.844 1142.48 146.759 1141.95 146.759C1141.23 146.759 1140.62 146.92 1140.14 147.244C1139.66 147.562 1139.42 147.974 1139.42 148.48C1139.42 148.918 1139.58 149.27 1139.9 149.537C1140.23 149.804 1140.75 150.023 1141.47 150.193L1143.55 150.67C1144.75 150.949 1145.65 151.378 1146.24 151.957C1146.83 152.537 1147.13 153.29 1147.13 154.216C1147.13 155 1146.9 155.699 1146.45 156.312C1146 156.92 1145.37 157.398 1144.56 157.744C1143.76 158.091 1142.83 158.264 1141.78 158.264C1140.31 158.264 1139.12 157.952 1138.19 157.327C1137.26 156.696 1136.7 155.801 1136.49 154.642L1138.95 154.267C1139.1 154.909 1139.42 155.395 1139.89 155.724C1140.37 156.048 1140.99 156.21 1141.76 156.21C1142.6 156.21 1143.26 156.037 1143.76 155.69C1144.26 155.338 1144.51 154.909 1144.51 154.403C1144.51 153.994 1144.36 153.651 1144.05 153.372C1143.75 153.094 1143.29 152.884 1142.66 152.741L1140.45 152.256C1139.23 151.977 1138.32 151.534 1137.74 150.926C1137.16 150.318 1136.87 149.548 1136.87 148.616C1136.87 147.844 1137.08 147.168 1137.52 146.588C1137.95 146.009 1138.54 145.557 1139.31 145.233C1140.07 144.903 1140.94 144.739 1141.92 144.739C1143.34 144.739 1144.45 145.045 1145.26 145.659C1146.08 146.267 1146.61 147.082 1146.87 148.105ZM1162.39 144.909V146.955H1155.24V144.909H1162.39ZM1157.16 141.773H1159.71V154.156C1159.71 154.651 1159.78 155.023 1159.93 155.273C1160.08 155.517 1160.27 155.685 1160.5 155.776C1160.74 155.861 1161 155.903 1161.28 155.903C1161.48 155.903 1161.66 155.889 1161.81 155.861C1161.97 155.832 1162.09 155.81 1162.17 155.793L1162.63 157.898C1162.49 157.955 1162.27 158.011 1162 158.068C1161.73 158.131 1161.39 158.165 1160.98 158.17C1160.31 158.182 1159.68 158.062 1159.1 157.812C1158.52 157.562 1158.06 157.176 1157.7 156.653C1157.34 156.131 1157.16 155.474 1157.16 154.685V141.773ZM1170.59 158.264C1169.36 158.264 1168.29 157.983 1167.37 157.42C1166.46 156.858 1165.75 156.071 1165.24 155.06C1164.74 154.048 1164.48 152.866 1164.48 151.514C1164.48 150.156 1164.74 148.969 1165.24 147.952C1165.75 146.935 1166.46 146.145 1167.37 145.582C1168.29 145.02 1169.36 144.739 1170.59 144.739C1171.81 144.739 1172.88 145.02 1173.8 145.582C1174.71 146.145 1175.42 146.935 1175.93 147.952C1176.44 148.969 1176.69 150.156 1176.69 151.514C1176.69 152.866 1176.44 154.048 1175.93 155.06C1175.42 156.071 1174.71 156.858 1173.8 157.42C1172.88 157.983 1171.81 158.264 1170.59 158.264ZM1170.6 156.125C1171.39 156.125 1172.05 155.915 1172.57 155.494C1173.1 155.074 1173.48 154.514 1173.73 153.815C1173.99 153.116 1174.12 152.347 1174.12 151.506C1174.12 150.67 1173.99 149.903 1173.73 149.205C1173.48 148.5 1173.1 147.935 1172.57 147.509C1172.05 147.082 1171.39 146.869 1170.6 146.869C1169.79 146.869 1169.13 147.082 1168.6 147.509C1168.08 147.935 1167.69 148.5 1167.43 149.205C1167.18 149.903 1167.06 150.67 1167.06 151.506C1167.06 152.347 1167.18 153.116 1167.43 153.815C1167.69 154.514 1168.08 155.074 1168.6 155.494C1169.13 155.915 1169.79 156.125 1170.6 156.125ZM1181.88 153.56L1181.86 150.449H1182.3L1187.52 144.909H1190.57L1184.62 151.216H1184.22L1181.88 153.56ZM1179.53 158V140.545H1182.08V158H1179.53ZM1187.8 158L1183.11 151.778L1184.87 149.997L1190.93 158H1187.8ZM1198 158.264C1196.71 158.264 1195.6 157.989 1194.66 157.438C1193.74 156.881 1193.02 156.099 1192.52 155.094C1192.02 154.082 1191.77 152.898 1191.77 151.54C1191.77 150.199 1192.02 149.017 1192.52 147.994C1193.02 146.972 1193.73 146.173 1194.63 145.599C1195.54 145.026 1196.6 144.739 1197.82 144.739C1198.56 144.739 1199.27 144.861 1199.96 145.105C1200.66 145.349 1201.28 145.733 1201.83 146.256C1202.38 146.778 1202.82 147.457 1203.13 148.293C1203.45 149.122 1203.61 150.131 1203.61 151.318V152.222H1193.21V150.312H1201.12C1201.12 149.642 1200.98 149.048 1200.71 148.531C1200.43 148.009 1200.05 147.597 1199.56 147.295C1199.07 146.994 1198.49 146.844 1197.83 146.844C1197.12 146.844 1196.49 147.02 1195.96 147.372C1195.43 147.719 1195.02 148.173 1194.73 148.736C1194.45 149.293 1194.31 149.898 1194.31 150.551V152.043C1194.31 152.918 1194.46 153.662 1194.77 154.276C1195.08 154.889 1195.51 155.358 1196.07 155.682C1196.63 156 1197.28 156.159 1198.02 156.159C1198.5 156.159 1198.94 156.091 1199.34 155.955C1199.74 155.812 1200.08 155.602 1200.37 155.324C1200.66 155.045 1200.88 154.702 1201.04 154.293L1203.45 154.727C1203.26 155.437 1202.91 156.06 1202.41 156.594C1201.92 157.122 1201.29 157.534 1200.54 157.83C1199.8 158.119 1198.95 158.264 1198 158.264ZM1208.99 150.227V158H1206.44V144.909H1208.89V147.04H1209.05C1209.35 146.347 1209.82 145.79 1210.46 145.369C1211.11 144.949 1211.93 144.739 1212.91 144.739C1213.8 144.739 1214.58 144.926 1215.25 145.301C1215.92 145.67 1216.44 146.222 1216.81 146.955C1217.18 147.687 1217.37 148.594 1217.37 149.673V158H1214.82V149.98C1214.82 149.031 1214.57 148.29 1214.08 147.756C1213.58 147.216 1212.9 146.946 1212.04 146.946C1211.45 146.946 1210.92 147.074 1210.46 147.33C1210.01 147.585 1209.65 147.96 1209.38 148.455C1209.12 148.943 1208.99 149.534 1208.99 150.227Z" fill="#333333"/>
<path d="M1112.67 528.909V530.955H1105.28V528.909H1112.67ZM1107.3 542V527.392C1107.3 526.574 1107.48 525.895 1107.84 525.355C1108.2 524.81 1108.67 524.403 1109.26 524.136C1109.86 523.864 1110.5 523.727 1111.19 523.727C1111.7 523.727 1112.14 523.77 1112.5 523.855C1112.87 523.935 1113.14 524.009 1113.31 524.077L1112.72 526.139C1112.6 526.105 1112.44 526.065 1112.26 526.02C1112.07 525.969 1111.84 525.943 1111.57 525.943C1110.95 525.943 1110.51 526.097 1110.24 526.403C1109.98 526.71 1109.85 527.153 1109.85 527.733V542H1107.3ZM1120.3 542.264C1119.07 542.264 1118 541.983 1117.09 541.42C1116.17 540.858 1115.46 540.071 1114.96 539.06C1114.45 538.048 1114.2 536.866 1114.2 535.514C1114.2 534.156 1114.45 532.969 1114.96 531.952C1115.46 530.935 1116.17 530.145 1117.09 529.582C1118 529.02 1119.07 528.739 1120.3 528.739C1121.53 528.739 1122.6 529.02 1123.51 529.582C1124.43 530.145 1125.14 530.935 1125.65 531.952C1126.15 532.969 1126.4 534.156 1126.4 535.514C1126.4 536.866 1126.15 538.048 1125.65 539.06C1125.14 540.071 1124.43 540.858 1123.51 541.42C1122.6 541.983 1121.53 542.264 1120.3 542.264ZM1120.31 540.125C1121.11 540.125 1121.76 539.915 1122.29 539.494C1122.81 539.074 1123.2 538.514 1123.45 537.815C1123.7 537.116 1123.83 536.347 1123.83 535.506C1123.83 534.67 1123.7 533.903 1123.45 533.205C1123.2 532.5 1122.81 531.935 1122.29 531.509C1121.76 531.082 1121.11 530.869 1120.31 530.869C1119.51 530.869 1118.84 531.082 1118.32 531.509C1117.79 531.935 1117.4 532.5 1117.15 533.205C1116.9 533.903 1116.77 534.67 1116.77 535.506C1116.77 536.347 1116.9 537.116 1117.15 537.815C1117.4 538.514 1117.79 539.074 1118.32 539.494C1118.84 539.915 1119.51 540.125 1120.31 540.125ZM1131.8 534.227V542H1129.25V528.909H1131.69V531.04H1131.86C1132.16 530.347 1132.63 529.79 1133.27 529.369C1133.92 528.949 1134.73 528.739 1135.72 528.739C1136.61 528.739 1137.39 528.926 1138.06 529.301C1138.73 529.67 1139.25 530.222 1139.62 530.955C1139.99 531.687 1140.17 532.594 1140.17 533.673V542H1137.63V533.98C1137.63 533.031 1137.38 532.29 1136.88 531.756C1136.39 531.216 1135.71 530.946 1134.85 530.946C1134.26 530.946 1133.73 531.074 1133.27 531.33C1132.82 531.585 1132.46 531.96 1132.19 532.455C1131.93 532.943 1131.8 533.534 1131.8 534.227ZM1149.7 528.909V530.955H1142.55V528.909H1149.7ZM1144.47 525.773H1147.02V538.156C1147.02 538.651 1147.09 539.023 1147.24 539.273C1147.39 539.517 1147.58 539.685 1147.81 539.776C1148.05 539.861 1148.31 539.903 1148.59 539.903C1148.79 539.903 1148.97 539.889 1149.12 539.861C1149.28 539.832 1149.4 539.81 1149.48 539.793L1149.94 541.898C1149.79 541.955 1149.58 542.011 1149.31 542.068C1149.04 542.131 1148.7 542.165 1148.29 542.17C1147.62 542.182 1146.99 542.062 1146.41 541.812C1145.83 541.562 1145.36 541.176 1145.01 540.653C1144.65 540.131 1144.47 539.474 1144.47 538.685V525.773ZM1159.79 533.52V535.727H1152.05V533.52H1159.79ZM1173 532.105L1170.69 532.514C1170.59 532.219 1170.44 531.937 1170.23 531.67C1170.02 531.403 1169.74 531.185 1169.39 531.014C1169.04 530.844 1168.6 530.759 1168.07 530.759C1167.35 530.759 1166.75 530.92 1166.26 531.244C1165.78 531.562 1165.54 531.974 1165.54 532.48C1165.54 532.918 1165.7 533.27 1166.02 533.537C1166.35 533.804 1166.87 534.023 1167.59 534.193L1169.67 534.67C1170.88 534.949 1171.77 535.378 1172.36 535.957C1172.96 536.537 1173.25 537.29 1173.25 538.216C1173.25 539 1173.02 539.699 1172.57 540.312C1172.12 540.92 1171.49 541.398 1170.69 541.744C1169.88 542.091 1168.96 542.264 1167.9 542.264C1166.43 542.264 1165.24 541.952 1164.31 541.327C1163.38 540.696 1162.82 539.801 1162.61 538.642L1165.07 538.267C1165.22 538.909 1165.54 539.395 1166.02 539.724C1166.49 540.048 1167.11 540.21 1167.88 540.21C1168.72 540.21 1169.38 540.037 1169.88 539.69C1170.38 539.338 1170.63 538.909 1170.63 538.403C1170.63 537.994 1170.48 537.651 1170.17 537.372C1169.87 537.094 1169.41 536.884 1168.79 536.741L1166.57 536.256C1165.35 535.977 1164.44 535.534 1163.86 534.926C1163.28 534.318 1162.99 533.548 1162.99 532.616C1162.99 531.844 1163.21 531.168 1163.64 530.588C1164.07 530.009 1164.67 529.557 1165.43 529.233C1166.19 528.903 1167.06 528.739 1168.04 528.739C1169.46 528.739 1170.57 529.045 1171.38 529.659C1172.2 530.267 1172.73 531.082 1173 532.105ZM1176.05 542V528.909H1178.6V542H1176.05ZM1177.34 526.889C1176.9 526.889 1176.52 526.741 1176.2 526.446C1175.89 526.145 1175.73 525.787 1175.73 525.372C1175.73 524.952 1175.89 524.594 1176.2 524.298C1176.52 523.997 1176.9 523.847 1177.34 523.847C1177.78 523.847 1178.16 523.997 1178.47 524.298C1178.79 524.594 1178.95 524.952 1178.95 525.372C1178.95 525.787 1178.79 526.145 1178.47 526.446C1178.16 526.741 1177.78 526.889 1177.34 526.889ZM1181.76 542V540.253L1188.85 531.244V531.125H1181.99V528.909H1192.03V530.767L1185.21 539.665V539.784H1192.27V542H1181.76ZM1200.54 542.264C1199.25 542.264 1198.14 541.989 1197.21 541.438C1196.28 540.881 1195.56 540.099 1195.06 539.094C1194.56 538.082 1194.31 536.898 1194.31 535.54C1194.31 534.199 1194.56 533.017 1195.06 531.994C1195.56 530.972 1196.27 530.173 1197.17 529.599C1198.08 529.026 1199.14 528.739 1200.36 528.739C1201.1 528.739 1201.81 528.861 1202.51 529.105C1203.2 529.349 1203.82 529.733 1204.37 530.256C1204.93 530.778 1205.36 531.457 1205.68 532.293C1206 533.122 1206.16 534.131 1206.16 535.318V536.222H1195.75V534.312H1203.66C1203.66 533.642 1203.52 533.048 1203.25 532.531C1202.98 532.009 1202.59 531.597 1202.1 531.295C1201.61 530.994 1201.04 530.844 1200.38 530.844C1199.66 530.844 1199.04 531.02 1198.5 531.372C1197.97 531.719 1197.56 532.173 1197.27 532.736C1196.99 533.293 1196.85 533.898 1196.85 534.551V536.043C1196.85 536.918 1197 537.662 1197.31 538.276C1197.62 538.889 1198.06 539.358 1198.61 539.682C1199.17 540 1199.82 540.159 1200.56 540.159C1201.05 540.159 1201.49 540.091 1201.89 539.955C1202.28 539.812 1202.63 539.602 1202.92 539.324C1203.21 539.045 1203.43 538.702 1203.58 538.293L1205.99 538.727C1205.8 539.437 1205.45 540.06 1204.95 540.594C1204.46 541.122 1203.84 541.534 1203.09 541.83C1202.34 542.119 1201.49 542.264 1200.54 542.264Z" fill="#333333"/>
</svg>
