<svg width="1512" height="720" viewBox="0 0 1512 720" fill="none" xmlns="http://www.w3.org/2000/svg">
<rect width="756" height="360" transform="scale(2)" fill="#F6F6F6"/>
<path d="M810 361C809.448 361 809 361.448 809 362C809 362.552 809.448 363 810 363V362V361ZM876.707 362.707C877.098 362.317 877.098 361.683 876.707 361.293L870.343 354.929C869.953 354.538 869.319 354.538 868.929 354.929C868.538 355.319 868.538 355.953 868.929 356.343L874.586 362L868.929 367.657C868.538 368.047 868.538 368.681 868.929 369.071C869.319 369.462 869.953 369.462 870.343 369.071L876.707 362.707ZM810 362V363L876 363L876 362L876 361L810 361V362Z" fill="#4D4D4D"/>
<path d="M1230.71 500.707C1231.1 500.317 1231.1 499.683 1230.71 499.293L1224.34 492.929C1223.95 492.538 1223.32 492.538 1222.93 492.929C1222.54 493.319 1222.54 493.953 1222.93 494.343L1228.59 500L1222.93 505.657C1222.54 506.047 1222.54 506.681 1222.93 507.071C1223.32 507.462 1223.95 507.462 1224.34 507.071L1230.71 500.707ZM1179 500L1179 501L1230 501L1230 500L1230 499L1179 499L1179 500ZM1147 468L1148 468L1148 376L1147 376L1146 376L1146 468L1147 468ZM1131 360L1131 359L1086 359L1086 360L1086 361L1131 361L1131 360ZM1147 376L1148 376C1148 366.611 1140.39 359 1131 359L1131 360L1131 361C1139.28 361 1146 367.716 1146 376L1147 376ZM1179 500L1179 499C1161.88 499 1148 485.121 1148 468L1147 468L1146 468C1146 486.225 1160.77 501 1179 501L1179 500Z" fill="#4D4D4D"/>
<path d="M1230.71 219.293C1231.1 219.683 1231.1 220.317 1230.71 220.707L1224.34 227.071C1223.95 227.462 1223.32 227.462 1222.93 227.071C1222.54 226.681 1222.54 226.047 1222.93 225.657L1228.59 220L1222.93 214.343C1222.54 213.953 1222.54 213.319 1222.93 212.929C1223.32 212.538 1223.95 212.538 1224.34 212.929L1230.71 219.293ZM1179 220L1179 219L1230 219L1230 220L1230 221L1179 221L1179 220ZM1147 252L1148 252L1148 344L1147 344L1146 344L1146 252L1147 252ZM1131 360L1131 361L1086 361L1086 360L1086 359L1131 359L1131 360ZM1147 344L1148 344C1148 353.389 1140.39 361 1131 361L1131 360L1131 359C1139.28 359 1146 352.284 1146 344L1147 344ZM1179 220L1179 221C1161.88 221 1148 234.879 1148 252L1147 252L1146 252C1146 233.775 1160.77 219 1179 219L1179 220Z" fill="#4D4D4D"/>
<mask id="path-4-inside-1_15283_31155" fill="white">
<path d="M406 360C406 277.157 473.157 210 556 210H656C738.843 210 806 277.157 806 360C806 442.843 738.843 510 656 510H556C473.157 510 406 442.843 406 360Z"/>
</mask>
<path d="M406 360C406 277.157 473.157 210 556 210H656C738.843 210 806 277.157 806 360C806 442.843 738.843 510 656 510H556C473.157 510 406 442.843 406 360Z" fill="white"/>
<path d="M556 210V213.373H656V210V206.627H556V210ZM656 510V506.626H556V510V513.374H656V510ZM556 510V506.626C475.02 506.626 409.373 440.98 409.373 360H406H402.627C402.627 444.706 471.294 513.374 556 513.374V510ZM806 360H802.626C802.626 440.98 736.98 506.626 656 506.626V510V513.374C740.706 513.374 809.374 444.706 809.374 360H806ZM656 210V213.373C736.98 213.373 802.626 279.02 802.626 360H806H809.374C809.374 275.294 740.706 206.627 656 206.627V210ZM556 210V206.627C471.294 206.627 402.627 275.294 402.627 360H406H409.373C409.373 279.02 475.02 213.373 556 213.373V210Z" fill="#E5E5E5" mask="url(#path-4-inside-1_15283_31155)"/>
<path d="M574.314 336.775L570.99 336.979C570.933 336.695 570.811 336.439 570.623 336.212C570.436 335.979 570.189 335.794 569.882 335.658C569.581 335.516 569.22 335.445 568.799 335.445C568.237 335.445 567.762 335.564 567.376 335.803C566.99 336.036 566.797 336.348 566.797 336.741C566.797 337.053 566.922 337.317 567.172 337.533C567.422 337.749 567.85 337.922 568.458 338.053L570.828 338.53C572.1 338.792 573.049 339.212 573.674 339.792C574.299 340.371 574.612 341.133 574.612 342.076C574.612 342.934 574.359 343.687 573.853 344.334C573.353 344.982 572.666 345.488 571.791 345.851C570.922 346.209 569.919 346.388 568.782 346.388C567.049 346.388 565.669 346.027 564.64 345.306C563.618 344.579 563.018 343.59 562.842 342.34L566.413 342.152C566.521 342.681 566.782 343.084 567.197 343.363C567.612 343.635 568.143 343.772 568.791 343.772C569.427 343.772 569.939 343.65 570.325 343.405C570.717 343.155 570.916 342.834 570.922 342.442C570.916 342.113 570.777 341.843 570.504 341.633C570.231 341.417 569.811 341.252 569.243 341.138L566.975 340.687C565.697 340.431 564.745 339.988 564.12 339.357C563.501 338.726 563.191 337.922 563.191 336.945C563.191 336.104 563.419 335.38 563.873 334.772C564.333 334.164 564.978 333.695 565.808 333.366C566.643 333.036 567.62 332.871 568.74 332.871C570.393 332.871 571.694 333.221 572.643 333.919C573.598 334.618 574.154 335.57 574.314 336.775ZM576.898 346.133V333.042H580.529V346.133H576.898ZM578.722 331.354C578.182 331.354 577.719 331.175 577.333 330.817C576.952 330.454 576.762 330.019 576.762 329.513C576.762 329.013 576.952 328.584 577.333 328.226C577.719 327.863 578.182 327.681 578.722 327.681C579.262 327.681 579.722 327.863 580.103 328.226C580.489 328.584 580.682 329.013 580.682 329.513C580.682 330.019 580.489 330.454 580.103 330.817C579.722 331.175 579.262 331.354 578.722 331.354ZM583.369 346.133V343.968L589.778 336.033V335.939H583.591V333.042H594.15V335.402L588.133 343.141V343.235H594.372V346.133H583.369ZM602.739 346.388C601.392 346.388 600.233 346.116 599.262 345.57C598.296 345.019 597.551 344.241 597.029 343.235C596.506 342.223 596.245 341.027 596.245 339.647C596.245 338.3 596.506 337.118 597.029 336.101C597.551 335.084 598.287 334.292 599.236 333.723C600.191 333.155 601.31 332.871 602.594 332.871C603.458 332.871 604.262 333.01 605.006 333.289C605.756 333.562 606.409 333.973 606.966 334.525C607.529 335.076 607.966 335.769 608.279 336.604C608.591 337.434 608.748 338.405 608.748 339.519V340.516H597.694V338.266H605.33C605.33 337.743 605.216 337.28 604.989 336.877C604.762 336.473 604.446 336.158 604.043 335.931C603.645 335.698 603.182 335.581 602.654 335.581C602.103 335.581 601.614 335.709 601.188 335.965C600.767 336.215 600.438 336.553 600.199 336.979C599.961 337.4 599.838 337.868 599.833 338.385V340.525C599.833 341.172 599.952 341.732 600.191 342.204C600.435 342.675 600.779 343.039 601.222 343.295C601.665 343.55 602.191 343.678 602.799 343.678C603.202 343.678 603.571 343.621 603.907 343.508C604.242 343.394 604.529 343.223 604.767 342.996C605.006 342.769 605.188 342.491 605.313 342.161L608.671 342.383C608.5 343.189 608.151 343.894 607.623 344.496C607.1 345.093 606.424 345.559 605.594 345.894C604.77 346.223 603.819 346.388 602.739 346.388ZM618.719 327.86L613.094 348.758H609.966L615.591 327.86H618.719ZM620.434 346.133V343.473L626.647 337.721C627.176 337.209 627.619 336.749 627.977 336.34C628.341 335.931 628.616 335.53 628.804 335.138C628.991 334.741 629.085 334.312 629.085 333.851C629.085 333.34 628.968 332.9 628.735 332.53C628.502 332.155 628.184 331.868 627.781 331.669C627.377 331.465 626.92 331.363 626.409 331.363C625.875 331.363 625.409 331.471 625.011 331.687C624.613 331.902 624.306 332.212 624.091 332.616C623.875 333.019 623.767 333.499 623.767 334.056H620.264C620.264 332.914 620.522 331.922 621.039 331.081C621.556 330.241 622.281 329.59 623.213 329.13C624.145 328.669 625.218 328.439 626.434 328.439C627.684 328.439 628.772 328.661 629.699 329.104C630.63 329.542 631.355 330.15 631.872 330.928C632.389 331.706 632.647 332.598 632.647 333.604C632.647 334.263 632.517 334.914 632.255 335.556C632 336.198 631.542 336.911 630.883 337.695C630.224 338.473 629.295 339.408 628.096 340.499L625.548 342.996V343.116H632.877V346.133H620.434ZM634.912 343.064V340.158L642.199 328.678H644.705V332.701H643.222L638.628 339.971V340.107H648.983V343.064H634.912ZM643.29 346.133V342.178L643.358 340.891V328.678H646.819V346.133H643.29Z" fill="#333333"/>
<path d="M461.506 385C461.506 375.684 469.058 368.133 478.373 368.133H733.626C742.942 368.133 750.494 375.684 750.494 385C750.494 394.316 742.942 401.868 733.626 401.868H478.373C469.058 401.868 461.506 394.316 461.506 385Z" fill="white"/>
<path d="M486.686 381.959L482.682 393H480.382L476.371 381.959H478.679L481.475 390.456H481.59L484.379 381.959H486.686ZM497.789 384.655L495.841 385C495.759 384.751 495.63 384.514 495.453 384.288C495.28 384.063 495.045 383.879 494.748 383.735C494.451 383.591 494.08 383.519 493.634 383.519C493.026 383.519 492.518 383.656 492.11 383.929C491.703 384.197 491.499 384.545 491.499 384.971C491.499 385.34 491.636 385.637 491.909 385.862C492.182 386.088 492.623 386.272 493.232 386.416L494.985 386.818C496.001 387.053 496.758 387.415 497.257 387.904C497.755 388.393 498.004 389.028 498.004 389.809C498.004 390.47 497.813 391.059 497.429 391.577C497.051 392.09 496.521 392.492 495.841 392.784C495.165 393.077 494.382 393.223 493.49 393.223C492.254 393.223 491.245 392.959 490.464 392.432C489.683 391.9 489.204 391.146 489.027 390.168L491.104 389.852C491.233 390.393 491.499 390.803 491.902 391.081C492.304 391.354 492.829 391.491 493.476 391.491C494.18 391.491 494.743 391.344 495.165 391.052C495.587 390.755 495.798 390.393 495.798 389.967C495.798 389.622 495.668 389.332 495.409 389.097C495.156 388.862 494.765 388.685 494.238 388.565L492.369 388.155C491.339 387.921 490.577 387.547 490.083 387.034C489.595 386.521 489.35 385.872 489.35 385.086C489.35 384.434 489.532 383.864 489.896 383.375C490.261 382.887 490.764 382.506 491.406 382.233C492.048 381.955 492.784 381.816 493.613 381.816C494.806 381.816 495.745 382.074 496.43 382.592C497.115 383.105 497.568 383.792 497.789 384.655ZM505.31 393.216C504.419 393.216 503.623 392.988 502.924 392.533C502.229 392.073 501.682 391.419 501.285 390.571C500.892 389.718 500.695 388.694 500.695 387.501C500.695 386.308 500.894 385.287 501.292 384.439C501.694 383.591 502.246 382.942 502.945 382.491C503.645 382.041 504.438 381.816 505.324 381.816C506.01 381.816 506.561 381.931 506.978 382.161C507.399 382.386 507.725 382.65 507.955 382.951C508.19 383.253 508.372 383.519 508.501 383.749H508.631V378.279H510.78V393H508.681V391.282H508.501C508.372 391.517 508.185 391.785 507.941 392.087C507.701 392.389 507.37 392.653 506.949 392.878C506.527 393.103 505.981 393.216 505.31 393.216ZM505.784 391.383C506.402 391.383 506.925 391.22 507.351 390.894C507.783 390.563 508.108 390.106 508.329 389.521C508.554 388.936 508.667 388.256 508.667 387.48C508.667 386.713 508.556 386.042 508.336 385.467C508.116 384.892 507.792 384.444 507.366 384.123C506.939 383.802 506.412 383.641 505.784 383.641C505.137 383.641 504.598 383.809 504.167 384.145C503.736 384.48 503.41 384.938 503.19 385.517C502.974 386.097 502.866 386.751 502.866 387.48C502.866 388.218 502.976 388.881 503.197 389.471C503.417 390.06 503.743 390.527 504.174 390.872C504.61 391.213 505.147 391.383 505.784 391.383ZM522.93 384.655L520.982 385C520.901 384.751 520.771 384.514 520.594 384.288C520.422 384.063 520.187 383.879 519.89 383.735C519.593 383.591 519.221 383.519 518.776 383.519C518.167 383.519 517.659 383.656 517.252 383.929C516.844 384.197 516.641 384.545 516.641 384.971C516.641 385.34 516.777 385.637 517.05 385.862C517.324 386.088 517.764 386.272 518.373 386.416L520.127 386.818C521.143 387.053 521.9 387.415 522.398 387.904C522.897 388.393 523.146 389.028 523.146 389.809C523.146 390.47 522.954 391.059 522.571 391.577C522.192 392.09 521.663 392.492 520.982 392.784C520.307 393.077 519.523 393.223 518.632 393.223C517.396 393.223 516.387 392.959 515.606 392.432C514.825 391.9 514.345 391.146 514.168 390.168L516.245 389.852C516.375 390.393 516.641 390.803 517.043 391.081C517.446 391.354 517.971 391.491 518.617 391.491C519.322 391.491 519.885 391.344 520.307 391.052C520.728 390.755 520.939 390.393 520.939 389.967C520.939 389.622 520.81 389.332 520.551 389.097C520.297 388.862 519.906 388.685 519.379 388.565L517.511 388.155C516.48 387.921 515.718 387.547 515.225 387.034C514.736 386.521 514.492 385.872 514.492 385.086C514.492 384.434 514.674 383.864 515.038 383.375C515.402 382.887 515.905 382.506 516.547 382.233C517.189 381.955 517.925 381.816 518.754 381.816C519.947 381.816 520.886 382.074 521.572 382.592C522.257 383.105 522.71 383.792 522.93 384.655ZM532.823 385.848V387.71H526.297V385.848H532.823ZM544.771 384.655L542.823 385C542.741 384.751 542.612 384.514 542.435 384.288C542.262 384.063 542.027 383.879 541.73 383.735C541.433 383.591 541.062 383.519 540.616 383.519C540.007 383.519 539.5 383.656 539.092 383.929C538.685 384.197 538.481 384.545 538.481 384.971C538.481 385.34 538.618 385.637 538.891 385.862C539.164 386.088 539.605 386.272 540.214 386.416L541.967 386.818C542.983 387.053 543.74 387.415 544.239 387.904C544.737 388.393 544.986 389.028 544.986 389.809C544.986 390.47 544.795 391.059 544.411 391.577C544.033 392.09 543.503 392.492 542.823 392.784C542.147 393.077 541.364 393.223 540.472 393.223C539.236 393.223 538.227 392.959 537.446 392.432C536.665 391.9 536.186 391.146 536.009 390.168L538.086 389.852C538.215 390.393 538.481 390.803 538.884 391.081C539.286 391.354 539.811 391.491 540.458 391.491C541.162 391.491 541.725 391.344 542.147 391.052C542.569 390.755 542.78 390.393 542.78 389.967C542.78 389.622 542.65 389.332 542.391 389.097C542.137 388.862 541.747 388.685 541.22 388.565L539.351 388.155C538.321 387.921 537.559 387.547 537.065 387.034C536.576 386.521 536.332 385.872 536.332 385.086C536.332 384.434 536.514 383.864 536.878 383.375C537.243 382.887 537.746 382.506 538.388 382.233C539.03 381.955 539.765 381.816 540.594 381.816C541.788 381.816 542.727 382.074 543.412 382.592C544.097 383.105 544.55 383.792 544.771 384.655ZM549.517 397.14C549.196 397.14 548.904 397.114 548.64 397.061C548.377 397.013 548.18 396.961 548.051 396.903L548.569 395.142C548.962 395.247 549.311 395.293 549.618 395.279C549.925 395.264 550.195 395.149 550.43 394.934C550.67 394.718 550.881 394.366 551.063 393.877L551.329 393.144L547.289 381.959H549.589L552.385 390.527H552.5L555.296 381.959H557.604L553.054 394.474C552.843 395.049 552.575 395.535 552.249 395.933C551.923 396.335 551.535 396.637 551.084 396.838C550.634 397.04 550.112 397.14 549.517 397.14ZM568.706 384.655L566.758 385C566.677 384.751 566.548 384.514 566.37 384.288C566.198 384.063 565.963 383.879 565.666 383.735C565.369 383.591 564.997 383.519 564.552 383.519C563.943 383.519 563.435 383.656 563.028 383.929C562.621 384.197 562.417 384.545 562.417 384.971C562.417 385.34 562.554 385.637 562.827 385.862C563.1 386.088 563.541 386.272 564.149 386.416L565.903 386.818C566.919 387.053 567.676 387.415 568.174 387.904C568.673 388.393 568.922 389.028 568.922 389.809C568.922 390.47 568.73 391.059 568.347 391.577C567.968 392.09 567.439 392.492 566.758 392.784C566.083 393.077 565.299 393.223 564.408 393.223C563.172 393.223 562.163 392.959 561.382 392.432C560.601 391.9 560.122 391.146 559.944 390.168L562.022 389.852C562.151 390.393 562.417 390.803 562.82 391.081C563.222 391.354 563.747 391.491 564.394 391.491C565.098 391.491 565.661 391.344 566.083 391.052C566.504 390.755 566.715 390.393 566.715 389.967C566.715 389.622 566.586 389.332 566.327 389.097C566.073 388.862 565.683 388.685 565.156 388.565L563.287 388.155C562.256 387.921 561.495 387.547 561.001 387.034C560.512 386.521 560.268 385.872 560.268 385.086C560.268 384.434 560.45 383.864 560.814 383.375C561.178 382.887 561.681 382.506 562.324 382.233C562.966 381.955 563.701 381.816 564.53 381.816C565.723 381.816 566.663 382.074 567.348 382.592C568.033 383.105 568.486 383.792 568.706 384.655ZM578.6 385.848V387.71H572.073V385.848H578.6ZM587.528 381.959V383.685H581.289V381.959H587.528ZM583 393V380.68C583 379.99 583.151 379.417 583.452 378.962C583.754 378.502 584.154 378.16 584.653 377.934C585.151 377.704 585.693 377.589 586.277 377.589C586.709 377.589 587.077 377.625 587.384 377.697C587.691 377.764 587.918 377.826 588.067 377.884L587.564 379.623C587.463 379.595 587.334 379.561 587.176 379.523C587.018 379.48 586.826 379.458 586.601 379.458C586.078 379.458 585.705 379.587 585.479 379.846C585.259 380.105 585.149 380.479 585.149 380.968V393H583ZM594.771 393.223C593.736 393.223 592.832 392.986 592.061 392.511C591.289 392.037 590.69 391.373 590.264 390.52C589.837 389.667 589.624 388.671 589.624 387.53C589.624 386.385 589.837 385.383 590.264 384.526C590.69 383.668 591.289 383.002 592.061 382.527C592.832 382.053 593.736 381.816 594.771 381.816C595.806 381.816 596.709 382.053 597.481 382.527C598.252 383.002 598.851 383.668 599.277 384.526C599.704 385.383 599.917 386.385 599.917 387.53C599.917 388.671 599.704 389.667 599.277 390.52C598.851 391.373 598.252 392.037 597.481 392.511C596.709 392.986 595.806 393.223 594.771 393.223ZM594.778 391.419C595.449 391.419 596.005 391.241 596.445 390.887C596.886 390.532 597.212 390.06 597.423 389.471C597.639 388.881 597.746 388.232 597.746 387.523C597.746 386.818 597.639 386.172 597.423 385.582C597.212 384.988 596.886 384.511 596.445 384.152C596.005 383.792 595.449 383.613 594.778 383.613C594.102 383.613 593.542 383.792 593.096 384.152C592.655 384.511 592.327 384.988 592.111 385.582C591.9 386.172 591.795 386.818 591.795 387.523C591.795 388.232 591.9 388.881 592.111 389.471C592.327 390.06 592.655 390.532 593.096 390.887C593.542 391.241 594.102 391.419 594.778 391.419ZM605.275 386.445V393H603.126V381.959H605.189V383.756H605.325C605.579 383.172 605.977 382.702 606.518 382.348C607.065 381.993 607.752 381.816 608.581 381.816C609.334 381.816 609.993 381.974 610.558 382.29C611.123 382.602 611.562 383.066 611.873 383.685C612.185 384.303 612.341 385.067 612.341 385.977V393H610.191V386.236C610.191 385.436 609.983 384.811 609.566 384.36C609.149 383.905 608.577 383.677 607.848 383.677C607.35 383.677 606.907 383.785 606.518 384.001C606.135 384.216 605.831 384.533 605.606 384.95C605.385 385.362 605.275 385.86 605.275 386.445ZM621.186 381.959V383.685H615.156V381.959H621.186ZM616.773 379.314H618.922V389.758C618.922 390.175 618.984 390.489 619.109 390.7C619.234 390.906 619.394 391.047 619.591 391.124C619.792 391.196 620.01 391.232 620.245 391.232C620.417 391.232 620.568 391.22 620.697 391.196C620.827 391.172 620.927 391.153 620.999 391.138L621.387 392.914C621.263 392.962 621.086 393.01 620.856 393.058C620.626 393.11 620.338 393.139 619.993 393.144C619.428 393.153 618.9 393.053 618.412 392.842C617.923 392.631 617.528 392.305 617.226 391.864C616.924 391.423 616.773 390.87 616.773 390.204V379.314ZM630.503 385.848V387.71H623.976V385.848H630.503ZM642.45 384.655L640.502 385C640.42 384.751 640.291 384.514 640.114 384.288C639.941 384.063 639.707 383.879 639.409 383.735C639.112 383.591 638.741 383.519 638.295 383.519C637.687 383.519 637.179 383.656 636.771 383.929C636.364 384.197 636.161 384.545 636.161 384.971C636.161 385.34 636.297 385.637 636.57 385.862C636.843 386.088 637.284 386.272 637.893 386.416L639.647 386.818C640.662 387.053 641.42 387.415 641.918 387.904C642.416 388.393 642.666 389.028 642.666 389.809C642.666 390.47 642.474 391.059 642.09 391.577C641.712 392.09 641.182 392.492 640.502 392.784C639.826 393.077 639.043 393.223 638.152 393.223C636.915 393.223 635.907 392.959 635.125 392.432C634.344 391.9 633.865 391.146 633.688 390.168L635.765 389.852C635.895 390.393 636.161 390.803 636.563 391.081C636.966 391.354 637.49 391.491 638.137 391.491C638.842 391.491 639.405 391.344 639.826 391.052C640.248 390.755 640.459 390.393 640.459 389.967C640.459 389.622 640.329 389.332 640.071 389.097C639.817 388.862 639.426 388.685 638.899 388.565L637.03 388.155C636 387.921 635.238 387.547 634.744 387.034C634.256 386.521 634.011 385.872 634.011 385.086C634.011 384.434 634.193 383.864 634.558 383.375C634.922 382.887 635.425 382.506 636.067 382.233C636.709 381.955 637.445 381.816 638.274 381.816C639.467 381.816 640.406 382.074 641.091 382.592C641.777 383.105 642.229 383.792 642.45 384.655ZM645.838 393V381.959H647.987V393H645.838ZM646.924 380.256C646.55 380.256 646.229 380.131 645.96 379.882C645.697 379.628 645.565 379.326 645.565 378.977C645.565 378.622 645.697 378.32 645.96 378.071C646.229 377.817 646.55 377.69 646.924 377.69C647.297 377.69 647.616 377.817 647.879 378.071C648.148 378.32 648.282 378.622 648.282 378.977C648.282 379.326 648.148 379.628 647.879 379.882C647.616 380.131 647.297 380.256 646.924 380.256ZM651.458 393V391.526L657.439 383.929V383.828H651.652V381.959H660.12V383.526L654.369 391.031V391.131H660.321V393H651.458ZM668.108 393.223C667.02 393.223 666.084 392.99 665.298 392.526C664.517 392.056 663.913 391.397 663.486 390.549C663.065 389.696 662.854 388.697 662.854 387.552C662.854 386.421 663.065 385.424 663.486 384.561C663.913 383.699 664.507 383.026 665.269 382.542C666.036 382.058 666.932 381.816 667.957 381.816C668.58 381.816 669.184 381.919 669.768 382.125C670.353 382.331 670.878 382.654 671.343 383.095C671.807 383.536 672.174 384.109 672.442 384.813C672.711 385.513 672.845 386.363 672.845 387.365V388.127H664.069V386.517H670.739C670.739 385.951 670.624 385.45 670.394 385.014C670.164 384.573 669.84 384.226 669.423 383.972C669.011 383.718 668.527 383.591 667.972 383.591C667.368 383.591 666.841 383.74 666.39 384.037C665.945 384.329 665.6 384.712 665.355 385.187C665.116 385.656 664.996 386.167 664.996 386.718V387.976C664.996 388.714 665.125 389.341 665.384 389.859C665.647 390.376 666.014 390.772 666.484 391.045C666.953 391.313 667.502 391.447 668.13 391.447C668.537 391.447 668.908 391.39 669.244 391.275C669.579 391.155 669.869 390.978 670.113 390.743C670.358 390.508 670.545 390.218 670.674 389.873L672.708 390.24C672.545 390.839 672.253 391.364 671.831 391.814C671.414 392.26 670.89 392.607 670.257 392.856C669.63 393.101 668.913 393.223 668.108 393.223ZM682.544 385.848V387.71H676.018V385.848H682.544ZM686.391 393V378.279H688.54V383.749H688.669C688.794 383.519 688.973 383.253 689.208 382.951C689.443 382.65 689.769 382.386 690.186 382.161C690.603 381.931 691.154 381.816 691.839 381.816C692.73 381.816 693.526 382.041 694.225 382.491C694.925 382.942 695.474 383.591 695.871 384.439C696.274 385.287 696.475 386.308 696.475 387.501C696.475 388.694 696.276 389.718 695.879 390.571C695.481 391.419 694.935 392.073 694.24 392.533C693.545 392.988 692.752 393.216 691.861 393.216C691.19 393.216 690.641 393.103 690.215 392.878C689.793 392.653 689.462 392.389 689.223 392.087C688.983 391.785 688.799 391.517 688.669 391.282H688.489V393H686.391ZM688.497 387.48C688.497 388.256 688.609 388.936 688.834 389.521C689.06 390.106 689.386 390.563 689.812 390.894C690.238 391.22 690.761 391.383 691.379 391.383C692.021 391.383 692.558 391.213 692.989 390.872C693.42 390.527 693.746 390.06 693.967 389.471C694.192 388.881 694.304 388.218 694.304 387.48C694.304 386.751 694.194 386.097 693.974 385.517C693.758 384.938 693.432 384.48 692.996 384.145C692.565 383.809 692.026 383.641 691.379 383.641C690.756 383.641 690.229 383.802 689.798 384.123C689.371 384.444 689.048 384.892 688.827 385.467C688.607 386.042 688.497 386.713 688.497 387.48ZM704.349 393.223C703.314 393.223 702.41 392.986 701.639 392.511C700.867 392.037 700.268 391.373 699.842 390.52C699.415 389.667 699.202 388.671 699.202 387.53C699.202 386.385 699.415 385.383 699.842 384.526C700.268 383.668 700.867 383.002 701.639 382.527C702.41 382.053 703.314 381.816 704.349 381.816C705.384 381.816 706.287 382.053 707.058 382.527C707.83 383.002 708.429 383.668 708.855 384.526C709.282 385.383 709.495 386.385 709.495 387.53C709.495 388.671 709.282 389.667 708.855 390.52C708.429 391.373 707.83 392.037 707.058 392.511C706.287 392.986 705.384 393.223 704.349 393.223ZM704.356 391.419C705.027 391.419 705.583 391.241 706.023 390.887C706.464 390.532 706.79 390.06 707.001 389.471C707.217 388.881 707.324 388.232 707.324 387.523C707.324 386.818 707.217 386.172 707.001 385.582C706.79 384.988 706.464 384.511 706.023 384.152C705.583 383.792 705.027 383.613 704.356 383.613C703.68 383.613 703.119 383.792 702.674 384.152C702.233 384.511 701.905 384.988 701.689 385.582C701.478 386.172 701.373 386.818 701.373 387.523C701.373 388.232 701.478 388.881 701.689 389.471C701.905 390.06 702.233 390.532 702.674 390.887C703.119 391.241 703.68 391.419 704.356 391.419ZM716.837 393.216C715.945 393.216 715.15 392.988 714.45 392.533C713.756 392.073 713.209 391.419 712.812 390.571C712.419 389.718 712.222 388.694 712.222 387.501C712.222 386.308 712.421 385.287 712.819 384.439C713.221 383.591 713.772 382.942 714.472 382.491C715.172 382.041 715.965 381.816 716.851 381.816C717.536 381.816 718.087 381.931 718.504 382.161C718.926 382.386 719.252 382.65 719.482 382.951C719.717 383.253 719.899 383.519 720.028 383.749H720.157V378.279H722.307V393H720.208V391.282H720.028C719.899 391.517 719.712 391.785 719.467 392.087C719.228 392.389 718.897 392.653 718.476 392.878C718.054 393.103 717.508 393.216 716.837 393.216ZM717.311 391.383C717.929 391.383 718.452 391.22 718.878 390.894C719.309 390.563 719.635 390.106 719.856 389.521C720.081 388.936 720.193 388.256 720.193 387.48C720.193 386.713 720.083 386.042 719.863 385.467C719.642 384.892 719.319 384.444 718.892 384.123C718.466 383.802 717.939 383.641 717.311 383.641C716.664 383.641 716.125 383.809 715.694 384.145C715.263 384.48 714.937 384.938 714.716 385.517C714.501 386.097 714.393 386.751 714.393 387.48C714.393 388.218 714.503 388.881 714.723 389.471C714.944 390.06 715.27 390.527 715.701 390.872C716.137 391.213 716.674 391.383 717.311 391.383ZM727.542 397.14C727.221 397.14 726.929 397.114 726.665 397.061C726.402 397.013 726.205 396.961 726.076 396.903L726.593 395.142C726.986 395.247 727.336 395.293 727.643 395.279C727.95 395.264 728.22 395.149 728.455 394.934C728.695 394.718 728.906 394.366 729.088 393.877L729.354 393.144L725.314 381.959H727.614L730.41 390.527H730.525L733.321 381.959H735.629L731.079 394.474C730.868 395.049 730.599 395.535 730.274 395.933C729.948 396.335 729.56 396.637 729.109 396.838C728.659 397.04 728.136 397.14 727.542 397.14Z" fill="#333333"/>
<path d="M140.203 178V160.545H151.027V162.812H142.836V168.131H150.251V170.389H142.836V178H140.203ZM158.614 178.264C157.387 178.264 156.316 177.983 155.401 177.42C154.486 176.858 153.776 176.071 153.27 175.06C152.765 174.048 152.512 172.866 152.512 171.514C152.512 170.156 152.765 168.969 153.27 167.952C153.776 166.935 154.486 166.145 155.401 165.582C156.316 165.02 157.387 164.739 158.614 164.739C159.841 164.739 160.912 165.02 161.827 165.582C162.742 166.145 163.452 166.935 163.958 167.952C164.463 168.969 164.716 170.156 164.716 171.514C164.716 172.866 164.463 174.048 163.958 175.06C163.452 176.071 162.742 176.858 161.827 177.42C160.912 177.983 159.841 178.264 158.614 178.264ZM158.623 176.125C159.418 176.125 160.077 175.915 160.6 175.494C161.123 175.074 161.509 174.514 161.759 173.815C162.015 173.116 162.142 172.347 162.142 171.506C162.142 170.67 162.015 169.903 161.759 169.205C161.509 168.5 161.123 167.935 160.6 167.509C160.077 167.082 159.418 166.869 158.623 166.869C157.821 166.869 157.157 167.082 156.628 167.509C156.105 167.935 155.716 168.5 155.461 169.205C155.211 169.903 155.086 170.67 155.086 171.506C155.086 172.347 155.211 173.116 155.461 173.815C155.716 174.514 156.105 175.074 156.628 175.494C157.157 175.915 157.821 176.125 158.623 176.125ZM175.853 172.571V164.909H178.41V178H175.904V175.733H175.768C175.467 176.432 174.984 177.014 174.319 177.48C173.66 177.94 172.839 178.17 171.856 178.17C171.015 178.17 170.271 177.986 169.623 177.616C168.981 177.241 168.475 176.688 168.106 175.955C167.743 175.222 167.561 174.315 167.561 173.236V164.909H170.109V172.929C170.109 173.821 170.356 174.531 170.85 175.06C171.345 175.588 171.987 175.852 172.777 175.852C173.254 175.852 173.728 175.733 174.2 175.494C174.677 175.256 175.072 174.895 175.385 174.412C175.703 173.929 175.859 173.315 175.853 172.571ZM184.382 170.227V178H181.834V164.909H184.28V167.04H184.442C184.743 166.347 185.215 165.79 185.857 165.369C186.505 164.949 187.32 164.739 188.303 164.739C189.195 164.739 189.976 164.926 190.647 165.301C191.317 165.67 191.837 166.222 192.206 166.955C192.576 167.687 192.76 168.594 192.76 169.673V178H190.212V169.98C190.212 169.031 189.965 168.29 189.471 167.756C188.976 167.216 188.297 166.946 187.434 166.946C186.843 166.946 186.317 167.074 185.857 167.33C185.402 167.585 185.042 167.96 184.775 168.455C184.513 168.943 184.382 169.534 184.382 170.227ZM201.078 178.256C200.022 178.256 199.078 177.986 198.249 177.446C197.425 176.901 196.777 176.125 196.306 175.119C195.84 174.108 195.607 172.895 195.607 171.48C195.607 170.065 195.843 168.855 196.314 167.849C196.792 166.844 197.445 166.074 198.275 165.54C199.104 165.006 200.044 164.739 201.096 164.739C201.908 164.739 202.561 164.875 203.056 165.148C203.556 165.415 203.942 165.727 204.215 166.085C204.493 166.443 204.709 166.759 204.863 167.031H205.016V160.545H207.564V178H205.076V175.963H204.863C204.709 176.241 204.488 176.56 204.198 176.918C203.914 177.276 203.522 177.588 203.022 177.855C202.522 178.122 201.874 178.256 201.078 178.256ZM201.641 176.082C202.374 176.082 202.993 175.889 203.499 175.503C204.01 175.111 204.397 174.568 204.658 173.875C204.925 173.182 205.059 172.375 205.059 171.455C205.059 170.545 204.928 169.75 204.667 169.068C204.405 168.386 204.022 167.855 203.516 167.474C203.01 167.094 202.385 166.903 201.641 166.903C200.874 166.903 200.235 167.102 199.723 167.5C199.212 167.898 198.826 168.44 198.564 169.128C198.309 169.815 198.181 170.591 198.181 171.455C198.181 172.33 198.311 173.116 198.573 173.815C198.834 174.514 199.221 175.068 199.732 175.477C200.249 175.881 200.885 176.082 201.641 176.082ZM215.011 178.29C214.181 178.29 213.431 178.136 212.761 177.83C212.091 177.517 211.559 177.065 211.167 176.474C210.781 175.884 210.588 175.159 210.588 174.301C210.588 173.562 210.73 172.955 211.014 172.477C211.298 172 211.681 171.622 212.164 171.344C212.647 171.065 213.187 170.855 213.784 170.713C214.38 170.571 214.988 170.463 215.608 170.389C216.392 170.298 217.028 170.224 217.517 170.168C218.005 170.105 218.36 170.006 218.582 169.869C218.804 169.733 218.914 169.511 218.914 169.205V169.145C218.914 168.401 218.704 167.824 218.284 167.415C217.869 167.006 217.25 166.801 216.426 166.801C215.568 166.801 214.892 166.991 214.397 167.372C213.909 167.747 213.571 168.165 213.383 168.625L210.988 168.08C211.272 167.284 211.687 166.642 212.233 166.153C212.784 165.659 213.417 165.301 214.133 165.08C214.849 164.852 215.602 164.739 216.392 164.739C216.914 164.739 217.468 164.801 218.054 164.926C218.645 165.045 219.196 165.267 219.707 165.591C220.224 165.915 220.647 166.378 220.977 166.98C221.306 167.577 221.471 168.352 221.471 169.307V178H218.983V176.21H218.88C218.716 176.54 218.468 176.864 218.139 177.182C217.809 177.5 217.386 177.764 216.869 177.974C216.352 178.185 215.733 178.29 215.011 178.29ZM215.565 176.244C216.27 176.244 216.872 176.105 217.372 175.827C217.877 175.548 218.261 175.185 218.522 174.736C218.789 174.281 218.923 173.795 218.923 173.278V171.591C218.832 171.682 218.656 171.767 218.395 171.847C218.139 171.92 217.846 171.986 217.517 172.043C217.187 172.094 216.866 172.142 216.554 172.188C216.241 172.227 215.98 172.261 215.77 172.29C215.275 172.352 214.824 172.457 214.414 172.605C214.011 172.753 213.687 172.966 213.443 173.244C213.204 173.517 213.085 173.881 213.085 174.335C213.085 174.966 213.318 175.443 213.784 175.767C214.25 176.085 214.843 176.244 215.565 176.244ZM230.976 164.909V166.955H223.826V164.909H230.976ZM225.743 161.773H228.292V174.156C228.292 174.651 228.365 175.023 228.513 175.273C228.661 175.517 228.851 175.685 229.084 175.776C229.323 175.861 229.581 175.903 229.86 175.903C230.064 175.903 230.243 175.889 230.397 175.861C230.55 175.832 230.669 175.81 230.755 175.793L231.215 177.898C231.067 177.955 230.857 178.011 230.584 178.068C230.311 178.131 229.971 178.165 229.561 178.17C228.891 178.182 228.266 178.062 227.686 177.812C227.107 177.562 226.638 177.176 226.28 176.653C225.922 176.131 225.743 175.474 225.743 174.685V161.773ZM233.795 178V164.909H236.343V178H233.795ZM235.082 162.889C234.639 162.889 234.258 162.741 233.94 162.446C233.627 162.145 233.471 161.787 233.471 161.372C233.471 160.952 233.627 160.594 233.94 160.298C234.258 159.997 234.639 159.847 235.082 159.847C235.525 159.847 235.903 159.997 236.216 160.298C236.534 160.594 236.693 160.952 236.693 161.372C236.693 161.787 236.534 162.145 236.216 162.446C235.903 162.741 235.525 162.889 235.082 162.889ZM245.286 178.264C244.059 178.264 242.988 177.983 242.073 177.42C241.158 176.858 240.448 176.071 239.942 175.06C239.436 174.048 239.184 172.866 239.184 171.514C239.184 170.156 239.436 168.969 239.942 167.952C240.448 166.935 241.158 166.145 242.073 165.582C242.988 165.02 244.059 164.739 245.286 164.739C246.513 164.739 247.584 165.02 248.499 165.582C249.414 166.145 250.124 166.935 250.63 167.952C251.135 168.969 251.388 170.156 251.388 171.514C251.388 172.866 251.135 174.048 250.63 175.06C250.124 176.071 249.414 176.858 248.499 177.42C247.584 177.983 246.513 178.264 245.286 178.264ZM245.294 176.125C246.09 176.125 246.749 175.915 247.272 175.494C247.794 175.074 248.181 174.514 248.431 173.815C248.686 173.116 248.814 172.347 248.814 171.506C248.814 170.67 248.686 169.903 248.431 169.205C248.181 168.5 247.794 167.935 247.272 167.509C246.749 167.082 246.09 166.869 245.294 166.869C244.493 166.869 243.828 167.082 243.3 167.509C242.777 167.935 242.388 168.5 242.132 169.205C241.882 169.903 241.757 170.67 241.757 171.506C241.757 172.347 241.882 173.116 242.132 173.815C242.388 174.514 242.777 175.074 243.3 175.494C243.828 175.915 244.493 176.125 245.294 176.125ZM256.781 170.227V178H254.233V164.909H256.679V167.04H256.841C257.142 166.347 257.613 165.79 258.255 165.369C258.903 164.949 259.718 164.739 260.701 164.739C261.593 164.739 262.375 164.926 263.045 165.301C263.716 165.67 264.235 166.222 264.605 166.955C264.974 167.687 265.159 168.594 265.159 169.673V178H262.61V169.98C262.61 169.031 262.363 168.29 261.869 167.756C261.375 167.216 260.696 166.946 259.832 166.946C259.241 166.946 258.716 167.074 258.255 167.33C257.801 167.585 257.44 167.96 257.173 168.455C256.912 168.943 256.781 169.534 256.781 170.227ZM281.039 164.909V166.955H273.888V164.909H281.039ZM275.806 161.773H278.354V174.156C278.354 174.651 278.428 175.023 278.576 175.273C278.723 175.517 278.914 175.685 279.147 175.776C279.385 175.861 279.644 175.903 279.922 175.903C280.127 175.903 280.306 175.889 280.459 175.861C280.613 175.832 280.732 175.81 280.817 175.793L281.277 177.898C281.13 177.955 280.919 178.011 280.647 178.068C280.374 178.131 280.033 178.165 279.624 178.17C278.953 178.182 278.328 178.062 277.749 177.812C277.169 177.562 276.701 177.176 276.343 176.653C275.985 176.131 275.806 175.474 275.806 174.685V161.773ZM289.231 178.264C288.004 178.264 286.933 177.983 286.018 177.42C285.103 176.858 284.393 176.071 283.887 175.06C283.382 174.048 283.129 172.866 283.129 171.514C283.129 170.156 283.382 168.969 283.887 167.952C284.393 166.935 285.103 166.145 286.018 165.582C286.933 165.02 288.004 164.739 289.231 164.739C290.458 164.739 291.529 165.02 292.444 165.582C293.359 166.145 294.069 166.935 294.575 167.952C295.081 168.969 295.333 170.156 295.333 171.514C295.333 172.866 295.081 174.048 294.575 175.06C294.069 176.071 293.359 176.858 292.444 177.42C291.529 177.983 290.458 178.264 289.231 178.264ZM289.24 176.125C290.035 176.125 290.694 175.915 291.217 175.494C291.74 175.074 292.126 174.514 292.376 173.815C292.632 173.116 292.76 172.347 292.76 171.506C292.76 170.67 292.632 169.903 292.376 169.205C292.126 168.5 291.74 167.935 291.217 167.509C290.694 167.082 290.035 166.869 289.24 166.869C288.439 166.869 287.774 167.082 287.245 167.509C286.723 167.935 286.333 168.5 286.078 169.205C285.828 169.903 285.703 170.67 285.703 171.506C285.703 172.347 285.828 173.116 286.078 173.815C286.333 174.514 286.723 175.074 287.245 175.494C287.774 175.915 288.439 176.125 289.24 176.125ZM300.522 173.56L300.505 170.449H300.948L306.164 164.909H309.215L303.266 171.216H302.865L300.522 173.56ZM298.178 178V160.545H300.726V178H298.178ZM306.445 178L301.757 171.778L303.513 169.997L309.573 178H306.445ZM316.64 178.264C315.35 178.264 314.24 177.989 313.308 177.438C312.382 176.881 311.666 176.099 311.16 175.094C310.66 174.082 310.41 172.898 310.41 171.54C310.41 170.199 310.66 169.017 311.16 167.994C311.666 166.972 312.37 166.173 313.274 165.599C314.183 165.026 315.245 164.739 316.461 164.739C317.2 164.739 317.916 164.861 318.609 165.105C319.302 165.349 319.924 165.733 320.475 166.256C321.027 166.778 321.461 167.457 321.779 168.293C322.098 169.122 322.257 170.131 322.257 171.318V172.222H311.85V170.312H319.76C319.76 169.642 319.623 169.048 319.35 168.531C319.078 168.009 318.694 167.597 318.2 167.295C317.711 166.994 317.137 166.844 316.478 166.844C315.762 166.844 315.137 167.02 314.603 167.372C314.075 167.719 313.666 168.173 313.376 168.736C313.092 169.293 312.95 169.898 312.95 170.551V172.043C312.95 172.918 313.103 173.662 313.41 174.276C313.723 174.889 314.157 175.358 314.714 175.682C315.271 176 315.922 176.159 316.666 176.159C317.149 176.159 317.589 176.091 317.987 175.955C318.385 175.812 318.728 175.602 319.018 175.324C319.308 175.045 319.529 174.702 319.683 174.293L322.095 174.727C321.902 175.437 321.555 176.06 321.055 176.594C320.561 177.122 319.939 177.534 319.189 177.83C318.444 178.119 317.595 178.264 316.64 178.264ZM327.632 170.227V178H325.084V164.909H327.53V167.04H327.692C327.993 166.347 328.465 165.79 329.107 165.369C329.755 164.949 330.57 164.739 331.553 164.739C332.445 164.739 333.226 164.926 333.897 165.301C334.567 165.67 335.087 166.222 335.456 166.955C335.826 167.687 336.01 168.594 336.01 169.673V178H333.462V169.98C333.462 169.031 333.215 168.29 332.721 167.756C332.226 167.216 331.547 166.946 330.684 166.946C330.093 166.946 329.567 167.074 329.107 167.33C328.652 167.585 328.292 167.96 328.025 168.455C327.763 168.943 327.632 169.534 327.632 170.227Z" fill="#333333"/>
<mask id="path-10-inside-2_15283_31155" fill="white">
<path d="M38 360C38 277.157 105.157 210 188 210H288C370.843 210 438 277.157 438 360C438 442.843 370.843 510 288 510H188C105.157 510 38 442.843 38 360Z"/>
</mask>
<path d="M38 360C38 277.157 105.157 210 188 210H288C370.843 210 438 277.157 438 360C438 442.843 370.843 510 288 510H188C105.157 510 38 442.843 38 360Z" fill="white"/>
<path d="M188 210V213.373H288V210V206.627H188V210ZM288 510V506.626H188V510V513.374H288V510ZM188 510V506.626C107.02 506.626 41.3735 440.98 41.3735 360H38H34.6265C34.6265 444.706 103.294 513.374 188 513.374V510ZM438 360H434.626C434.626 440.98 368.98 506.626 288 506.626V510V513.374C372.706 513.374 441.374 444.706 441.374 360H438ZM288 210V213.373C368.98 213.373 434.626 279.02 434.626 360H438H441.374C441.374 275.294 372.706 206.627 288 206.627V210ZM188 210V206.627C103.294 206.627 34.6265 275.294 34.6265 360H38H41.3735C41.3735 279.02 107.02 213.373 188 213.373V210Z" fill="#E5E5E5" mask="url(#path-10-inside-2_15283_31155)"/>
<path d="M171.238 348.759L167.676 335.668H171.349L173.377 344.464H173.497L175.61 335.668H179.216L181.363 344.412H181.474L183.468 335.668H187.133L183.579 348.759H179.735L177.485 340.526H177.324L175.074 348.759H171.238ZM194.708 349.015C193.361 349.015 192.202 348.742 191.23 348.197C190.265 347.645 189.52 346.867 188.998 345.861C188.475 344.85 188.213 343.654 188.213 342.273C188.213 340.927 188.475 339.745 188.998 338.728C189.52 337.711 190.256 336.918 191.205 336.35C192.159 335.782 193.279 335.498 194.563 335.498C195.426 335.498 196.23 335.637 196.975 335.915C197.725 336.188 198.378 336.6 198.935 337.151C199.498 337.702 199.935 338.395 200.248 339.231C200.56 340.06 200.716 341.032 200.716 342.145V343.143H189.662V340.893H197.299C197.299 340.37 197.185 339.907 196.958 339.503C196.73 339.1 196.415 338.785 196.012 338.557C195.614 338.324 195.151 338.208 194.623 338.208C194.071 338.208 193.583 338.336 193.157 338.591C192.736 338.841 192.407 339.179 192.168 339.606C191.929 340.026 191.807 340.495 191.801 341.012V343.151C191.801 343.799 191.921 344.358 192.159 344.83C192.404 345.302 192.748 345.665 193.191 345.921C193.634 346.177 194.159 346.304 194.767 346.304C195.171 346.304 195.54 346.248 195.875 346.134C196.211 346.02 196.498 345.85 196.736 345.623C196.975 345.395 197.157 345.117 197.282 344.787L200.64 345.009C200.469 345.816 200.12 346.52 199.591 347.123C199.069 347.719 198.392 348.185 197.563 348.52C196.739 348.85 195.787 349.015 194.708 349.015ZM203.086 348.759V335.668H206.716V348.759H203.086ZM204.909 333.981C204.37 333.981 203.907 333.802 203.52 333.444C203.14 333.08 202.949 332.645 202.949 332.14C202.949 331.64 203.14 331.211 203.52 330.853C203.907 330.489 204.37 330.307 204.909 330.307C205.449 330.307 205.909 330.489 206.29 330.853C206.676 331.211 206.87 331.64 206.87 332.14C206.87 332.645 206.676 333.08 206.29 333.444C205.909 333.802 205.449 333.981 204.909 333.981ZM215.522 353.941C214.346 353.941 213.338 353.779 212.497 353.455C211.662 353.137 210.997 352.702 210.502 352.151C210.008 351.6 209.687 350.981 209.539 350.293L212.897 349.841C213 350.103 213.162 350.347 213.383 350.574C213.605 350.802 213.897 350.983 214.261 351.12C214.63 351.262 215.079 351.333 215.608 351.333C216.397 351.333 217.048 351.14 217.559 350.753C218.076 350.373 218.335 349.733 218.335 348.836V346.441H218.181C218.022 346.804 217.784 347.148 217.466 347.472C217.147 347.796 216.738 348.06 216.238 348.265C215.738 348.469 215.142 348.572 214.449 348.572C213.466 348.572 212.571 348.344 211.764 347.89C210.963 347.429 210.324 346.728 209.846 345.785C209.375 344.836 209.139 343.637 209.139 342.188C209.139 340.705 209.38 339.466 209.863 338.472C210.346 337.478 210.988 336.733 211.789 336.239C212.596 335.745 213.48 335.498 214.44 335.498C215.173 335.498 215.787 335.623 216.281 335.873C216.775 336.117 217.173 336.424 217.474 336.793C217.781 337.157 218.017 337.515 218.181 337.867H218.318V335.668H221.923V348.887C221.923 350.001 221.65 350.932 221.105 351.682C220.559 352.432 219.804 352.995 218.838 353.37C217.877 353.751 216.772 353.941 215.522 353.941ZM215.599 345.844C216.184 345.844 216.679 345.699 217.082 345.41C217.491 345.114 217.804 344.694 218.02 344.148C218.241 343.597 218.352 342.938 218.352 342.171C218.352 341.404 218.244 340.739 218.028 340.177C217.812 339.608 217.5 339.168 217.091 338.856C216.681 338.543 216.184 338.387 215.599 338.387C215.002 338.387 214.5 338.549 214.091 338.873C213.681 339.191 213.372 339.634 213.162 340.202C212.951 340.77 212.846 341.427 212.846 342.171C212.846 342.927 212.951 343.58 213.162 344.131C213.377 344.677 213.687 345.1 214.091 345.401C214.5 345.697 215.002 345.844 215.599 345.844ZM228.443 341.191V348.759H224.812V331.304H228.341V337.978H228.494C228.789 337.205 229.267 336.6 229.926 336.162C230.585 335.719 231.412 335.498 232.406 335.498C233.315 335.498 234.108 335.697 234.784 336.094C235.466 336.486 235.994 337.052 236.369 337.79C236.75 338.523 236.937 339.401 236.931 340.424V348.759H233.301V341.072C233.306 340.265 233.102 339.637 232.687 339.188C232.278 338.739 231.704 338.515 230.966 338.515C230.471 338.515 230.034 338.62 229.653 338.83C229.278 339.04 228.983 339.347 228.767 339.751C228.556 340.148 228.449 340.628 228.443 341.191ZM246.752 335.668V338.395H238.868V335.668H246.752ZM240.658 332.532H244.289V344.736C244.289 345.072 244.34 345.333 244.442 345.52C244.544 345.702 244.686 345.83 244.868 345.904C245.056 345.978 245.272 346.015 245.516 346.015C245.686 346.015 245.857 346.001 246.027 345.972C246.198 345.938 246.328 345.912 246.419 345.895L246.99 348.597C246.809 348.654 246.553 348.719 246.223 348.793C245.894 348.873 245.493 348.921 245.022 348.938C244.147 348.972 243.38 348.856 242.721 348.589C242.067 348.322 241.559 347.907 241.195 347.344C240.831 346.782 240.652 346.072 240.658 345.214V332.532ZM256.719 330.486L251.094 351.384H247.966L253.591 330.486H256.719ZM258.537 348.759V331.304H262.167V337.867H262.278C262.437 337.515 262.667 337.157 262.968 336.793C263.275 336.424 263.673 336.117 264.162 335.873C264.656 335.623 265.27 335.498 266.002 335.498C266.957 335.498 267.838 335.748 268.645 336.248C269.451 336.742 270.096 337.489 270.579 338.489C271.062 339.483 271.304 340.731 271.304 342.231C271.304 343.691 271.068 344.924 270.596 345.929C270.13 346.929 269.494 347.688 268.687 348.205C267.886 348.716 266.988 348.972 265.994 348.972C265.289 348.972 264.69 348.856 264.196 348.623C263.707 348.39 263.306 348.097 262.994 347.745C262.681 347.387 262.443 347.026 262.278 346.662H262.116V348.759H258.537ZM262.091 342.214C262.091 342.992 262.199 343.671 262.414 344.251C262.63 344.83 262.943 345.282 263.352 345.606C263.761 345.924 264.258 346.083 264.843 346.083C265.434 346.083 265.934 345.921 266.343 345.597C266.752 345.268 267.062 344.813 267.272 344.233C267.488 343.648 267.596 342.975 267.596 342.214C267.596 341.458 267.491 340.793 267.281 340.219C267.071 339.645 266.761 339.197 266.352 338.873C265.943 338.549 265.44 338.387 264.843 338.387C264.252 338.387 263.752 338.543 263.343 338.856C262.94 339.168 262.63 339.611 262.414 340.185C262.199 340.759 262.091 341.435 262.091 342.214ZM279.641 349.015C278.317 349.015 277.172 348.733 276.206 348.171C275.246 347.603 274.505 346.813 273.982 345.802C273.459 344.785 273.198 343.606 273.198 342.265C273.198 340.912 273.459 339.731 273.982 338.719C274.505 337.702 275.246 336.912 276.206 336.35C277.172 335.782 278.317 335.498 279.641 335.498C280.965 335.498 282.107 335.782 283.067 336.35C284.033 336.912 284.777 337.702 285.3 338.719C285.823 339.731 286.084 340.912 286.084 342.265C286.084 343.606 285.823 344.785 285.3 345.802C284.777 346.813 284.033 347.603 283.067 348.171C282.107 348.733 280.965 349.015 279.641 349.015ZM279.658 346.202C280.26 346.202 280.763 346.032 281.167 345.691C281.57 345.344 281.874 344.873 282.078 344.276C282.289 343.679 282.394 343.001 282.394 342.239C282.394 341.478 282.289 340.799 282.078 340.202C281.874 339.606 281.57 339.134 281.167 338.787C280.763 338.441 280.26 338.268 279.658 338.268C279.05 338.268 278.539 338.441 278.124 338.787C277.715 339.134 277.405 339.606 277.195 340.202C276.99 340.799 276.888 341.478 276.888 342.239C276.888 343.001 276.99 343.679 277.195 344.276C277.405 344.873 277.715 345.344 278.124 345.691C278.539 346.032 279.05 346.202 279.658 346.202ZM292.076 331.304V348.759H288.445V331.304H292.076ZM299.808 348.972C298.814 348.972 297.913 348.716 297.106 348.205C296.305 347.688 295.669 346.929 295.197 345.929C294.731 344.924 294.498 343.691 294.498 342.231C294.498 340.731 294.74 339.483 295.223 338.489C295.706 337.489 296.348 336.742 297.149 336.248C297.956 335.748 298.839 335.498 299.799 335.498C300.532 335.498 301.143 335.623 301.632 335.873C302.126 336.117 302.524 336.424 302.825 336.793C303.132 337.157 303.365 337.515 303.524 337.867H303.635V331.304H307.257V348.759H303.677V346.662H303.524C303.353 347.026 303.112 347.387 302.799 347.745C302.493 348.097 302.092 348.39 301.598 348.623C301.109 348.856 300.512 348.972 299.808 348.972ZM300.958 346.083C301.544 346.083 302.038 345.924 302.441 345.606C302.85 345.282 303.163 344.83 303.379 344.251C303.6 343.671 303.711 342.992 303.711 342.214C303.711 341.435 303.603 340.759 303.387 340.185C303.172 339.611 302.859 339.168 302.45 338.856C302.041 338.543 301.544 338.387 300.958 338.387C300.362 338.387 299.859 338.549 299.45 338.873C299.041 339.197 298.731 339.645 298.521 340.219C298.311 340.793 298.206 341.458 298.206 342.214C298.206 342.975 298.311 343.648 298.521 344.233C298.737 344.813 299.047 345.268 299.45 345.597C299.859 345.921 300.362 346.083 300.958 346.083Z" fill="#333333"/>
<path d="M77.5059 382.374C77.5059 373.058 85.0577 365.506 94.3733 365.506H381.626C390.942 365.506 398.494 373.058 398.494 382.374C398.494 391.689 390.942 399.241 381.626 399.241H94.3733C85.0577 399.241 77.5059 391.689 77.5059 382.374Z" fill="white"/>
<path d="M102.34 379.333L98.3366 390.374H96.0365L92.0257 379.333H94.333L97.1291 387.829H97.2441L100.033 379.333H102.34ZM113.443 382.028L111.495 382.373C111.414 382.124 111.284 381.887 111.107 381.662C110.934 381.437 110.7 381.252 110.402 381.108C110.105 380.965 109.734 380.893 109.288 380.893C108.68 380.893 108.172 381.029 107.764 381.302C107.357 381.571 107.154 381.918 107.154 382.345C107.154 382.714 107.29 383.011 107.563 383.236C107.836 383.461 108.277 383.646 108.886 383.789L110.64 384.192C111.656 384.427 112.413 384.789 112.911 385.277C113.409 385.766 113.659 386.401 113.659 387.182C113.659 387.843 113.467 388.433 113.084 388.95C112.705 389.463 112.175 389.866 111.495 390.158C110.819 390.45 110.036 390.596 109.145 390.596C107.908 390.596 106.9 390.333 106.118 389.806C105.337 389.274 104.858 388.519 104.681 387.542L106.758 387.225C106.888 387.767 107.154 388.176 107.556 388.454C107.959 388.728 108.483 388.864 109.13 388.864C109.835 388.864 110.398 388.718 110.819 388.426C111.241 388.129 111.452 387.767 111.452 387.34C111.452 386.995 111.322 386.705 111.064 386.471C110.81 386.236 110.419 386.058 109.892 385.939L108.023 385.529C106.993 385.294 106.231 384.92 105.738 384.408C105.249 383.895 105.004 383.246 105.004 382.46C105.004 381.808 105.186 381.238 105.551 380.749C105.915 380.26 106.418 379.879 107.06 379.606C107.702 379.328 108.438 379.189 109.267 379.189C110.46 379.189 111.399 379.448 112.084 379.966C112.77 380.478 113.222 381.166 113.443 382.028ZM120.964 390.589C120.073 390.589 119.277 390.362 118.578 389.906C117.883 389.446 117.337 388.792 116.939 387.944C116.546 387.091 116.35 386.068 116.35 384.875C116.35 383.682 116.548 382.661 116.946 381.813C117.349 380.965 117.9 380.315 118.599 379.865C119.299 379.414 120.092 379.189 120.979 379.189C121.664 379.189 122.215 379.304 122.632 379.534C123.053 379.759 123.379 380.023 123.609 380.325C123.844 380.627 124.026 380.893 124.156 381.123H124.285V375.653H126.434V390.374H124.335V388.656H124.156C124.026 388.89 123.839 389.159 123.595 389.461C123.355 389.763 123.025 390.026 122.603 390.251C122.181 390.477 121.635 390.589 120.964 390.589ZM121.439 388.756C122.057 388.756 122.579 388.593 123.006 388.267C123.437 387.937 123.763 387.479 123.983 386.895C124.208 386.31 124.321 385.63 124.321 384.853C124.321 384.087 124.211 383.416 123.99 382.841C123.77 382.266 123.446 381.818 123.02 381.497C122.593 381.175 122.066 381.015 121.439 381.015C120.792 381.015 120.253 381.183 119.821 381.518C119.39 381.854 119.064 382.311 118.844 382.891C118.628 383.471 118.52 384.125 118.52 384.853C118.52 385.591 118.631 386.255 118.851 386.844C119.071 387.434 119.397 387.901 119.829 388.246C120.265 388.586 120.801 388.756 121.439 388.756ZM138.584 382.028L136.636 382.373C136.555 382.124 136.426 381.887 136.248 381.662C136.076 381.437 135.841 381.252 135.544 381.108C135.247 380.965 134.875 380.893 134.43 380.893C133.821 380.893 133.313 381.029 132.906 381.302C132.499 381.571 132.295 381.918 132.295 382.345C132.295 382.714 132.432 383.011 132.705 383.236C132.978 383.461 133.419 383.646 134.027 383.789L135.781 384.192C136.797 384.427 137.554 384.789 138.052 385.277C138.551 385.766 138.8 386.401 138.8 387.182C138.8 387.843 138.608 388.433 138.225 388.95C137.846 389.463 137.317 389.866 136.636 390.158C135.961 390.45 135.177 390.596 134.286 390.596C133.05 390.596 132.041 390.333 131.26 389.806C130.479 389.274 130 388.519 129.822 387.542L131.9 387.225C132.029 387.767 132.295 388.176 132.698 388.454C133.1 388.728 133.625 388.864 134.272 388.864C134.976 388.864 135.539 388.718 135.961 388.426C136.383 388.129 136.593 387.767 136.593 387.34C136.593 386.995 136.464 386.705 136.205 386.471C135.951 386.236 135.561 386.058 135.034 385.939L133.165 385.529C132.134 385.294 131.373 384.92 130.879 384.408C130.39 383.895 130.146 383.246 130.146 382.46C130.146 381.808 130.328 381.238 130.692 380.749C131.056 380.26 131.559 379.879 132.202 379.606C132.844 379.328 133.579 379.189 134.408 379.189C135.601 379.189 136.541 379.448 137.226 379.966C137.911 380.478 138.364 381.166 138.584 382.028ZM148.478 383.222V385.083H141.951V383.222H148.478ZM157.406 379.333V381.058H151.167V379.333H157.406ZM152.878 390.374V378.054C152.878 377.364 153.029 376.791 153.33 376.336C153.632 375.876 154.032 375.533 154.531 375.308C155.029 375.078 155.571 374.963 156.155 374.963C156.587 374.963 156.956 374.999 157.262 375.071C157.569 375.138 157.797 375.2 157.945 375.258L157.442 376.997C157.341 376.968 157.212 376.935 157.054 376.896C156.896 376.853 156.704 376.832 156.479 376.832C155.956 376.832 155.583 376.961 155.357 377.22C155.137 377.479 155.027 377.852 155.027 378.341V390.374H152.878ZM164.649 390.596C163.614 390.596 162.71 390.359 161.939 389.885C161.167 389.41 160.568 388.747 160.142 387.894C159.715 387.041 159.502 386.044 159.502 384.904C159.502 383.758 159.715 382.757 160.142 381.899C160.568 381.041 161.167 380.375 161.939 379.901C162.71 379.426 163.614 379.189 164.649 379.189C165.684 379.189 166.587 379.426 167.359 379.901C168.13 380.375 168.729 381.041 169.155 381.899C169.582 382.757 169.795 383.758 169.795 384.904C169.795 386.044 169.582 387.041 169.155 387.894C168.729 388.747 168.13 389.41 167.359 389.885C166.587 390.359 165.684 390.596 164.649 390.596ZM164.656 388.792C165.327 388.792 165.883 388.615 166.323 388.26C166.764 387.906 167.09 387.434 167.301 386.844C167.517 386.255 167.624 385.606 167.624 384.896C167.624 384.192 167.517 383.545 167.301 382.956C167.09 382.361 166.764 381.885 166.323 381.525C165.883 381.166 165.327 380.986 164.656 380.986C163.98 380.986 163.42 381.166 162.974 381.525C162.533 381.885 162.205 382.361 161.989 382.956C161.778 383.545 161.673 384.192 161.673 384.896C161.673 385.606 161.778 386.255 161.989 386.844C162.205 387.434 162.533 387.906 162.974 388.26C163.42 388.615 163.98 388.792 164.656 388.792ZM179.998 385.795V379.333H182.154V390.374H180.041V388.462H179.926C179.672 389.051 179.264 389.542 178.704 389.935C178.148 390.323 177.455 390.517 176.626 390.517C175.917 390.517 175.29 390.362 174.743 390.05C174.202 389.734 173.775 389.267 173.464 388.648C173.157 388.03 173.004 387.266 173.004 386.356V379.333H175.153V386.097C175.153 386.849 175.361 387.448 175.778 387.894C176.195 388.339 176.737 388.562 177.403 388.562C177.805 388.562 178.205 388.462 178.603 388.26C179.006 388.059 179.339 387.755 179.602 387.347C179.871 386.94 180.002 386.423 179.998 385.795ZM188 383.818V390.374H185.851V379.333H187.914V381.13H188.051C188.305 380.545 188.702 380.076 189.244 379.721C189.79 379.367 190.478 379.189 191.307 379.189C192.059 379.189 192.718 379.347 193.284 379.664C193.849 379.975 194.287 380.44 194.599 381.058C194.91 381.676 195.066 382.441 195.066 383.351V390.374H192.917V383.61C192.917 382.81 192.708 382.184 192.292 381.734C191.875 381.279 191.302 381.051 190.574 381.051C190.075 381.051 189.632 381.159 189.244 381.374C188.861 381.59 188.556 381.906 188.331 382.323C188.111 382.735 188 383.234 188 383.818ZM205.263 383.222V385.083H198.736V383.222H205.263ZM214.191 379.333V381.058H207.952V379.333H214.191ZM209.663 390.374V378.054C209.663 377.364 209.814 376.791 210.116 376.336C210.418 375.876 210.818 375.533 211.316 375.308C211.815 375.078 212.356 374.963 212.941 374.963C213.372 374.963 213.741 374.999 214.048 375.071C214.354 375.138 214.582 375.2 214.73 375.258L214.227 376.997C214.127 376.968 213.997 376.935 213.839 376.896C213.681 376.853 213.489 376.832 213.264 376.832C212.742 376.832 212.368 376.961 212.143 377.22C211.922 377.479 211.812 377.852 211.812 378.341V390.374H209.663ZM221.434 390.596C220.399 390.596 219.496 390.359 218.724 389.885C217.953 389.41 217.354 388.747 216.927 387.894C216.501 387.041 216.288 386.044 216.288 384.904C216.288 383.758 216.501 382.757 216.927 381.899C217.354 381.041 217.953 380.375 218.724 379.901C219.496 379.426 220.399 379.189 221.434 379.189C222.469 379.189 223.372 379.426 224.144 379.901C224.915 380.375 225.514 381.041 225.941 381.899C226.367 382.757 226.581 383.758 226.581 384.904C226.581 386.044 226.367 387.041 225.941 387.894C225.514 388.747 224.915 389.41 224.144 389.885C223.372 390.359 222.469 390.596 221.434 390.596ZM221.441 388.792C222.112 388.792 222.668 388.615 223.109 388.26C223.55 387.906 223.876 387.434 224.086 386.844C224.302 386.255 224.41 385.606 224.41 384.896C224.41 384.192 224.302 383.545 224.086 382.956C223.876 382.361 223.55 381.885 223.109 381.525C222.668 381.166 222.112 380.986 221.441 380.986C220.766 380.986 220.205 381.166 219.759 381.525C219.318 381.885 218.99 382.361 218.775 382.956C218.564 383.545 218.458 384.192 218.458 384.896C218.458 385.606 218.564 386.255 218.775 386.844C218.99 387.434 219.318 387.906 219.759 388.26C220.205 388.615 220.766 388.792 221.441 388.792ZM231.938 383.818V390.374H229.789V379.333H231.852V381.13H231.989C232.243 380.545 232.64 380.076 233.182 379.721C233.728 379.367 234.416 379.189 235.245 379.189C235.997 379.189 236.656 379.347 237.221 379.664C237.787 379.975 238.225 380.44 238.537 381.058C238.848 381.676 239.004 382.441 239.004 383.351V390.374H236.855V383.61C236.855 382.81 236.646 382.184 236.229 381.734C235.813 381.279 235.24 381.051 234.512 381.051C234.013 381.051 233.57 381.159 233.182 381.374C232.798 381.59 232.494 381.906 232.269 382.323C232.049 382.735 231.938 383.234 231.938 383.818ZM247.85 379.333V381.058H241.819V379.333H247.85ZM243.436 376.688H245.585V387.132C245.585 387.549 245.648 387.863 245.772 388.073C245.897 388.279 246.057 388.421 246.254 388.498C246.455 388.569 246.673 388.605 246.908 388.605C247.081 388.605 247.231 388.593 247.361 388.569C247.49 388.545 247.591 388.526 247.663 388.512L248.051 390.287C247.926 390.335 247.749 390.383 247.519 390.431C247.289 390.484 247.001 390.513 246.656 390.517C246.091 390.527 245.564 390.426 245.075 390.215C244.586 390.005 244.191 389.679 243.889 389.238C243.587 388.797 243.436 388.244 243.436 387.577V376.688ZM257.166 383.222V385.083H250.64V383.222H257.166ZM263.234 390.374L259.985 379.333H262.206L264.369 387.441H264.477L266.648 379.333H268.869L271.025 387.405H271.133L273.282 379.333H275.503L272.262 390.374H270.069L267.827 382.402H267.661L265.419 390.374H263.234ZM282.775 390.596C281.687 390.596 280.75 390.364 279.964 389.899C279.183 389.43 278.579 388.771 278.153 387.922C277.731 387.07 277.52 386.07 277.52 384.925C277.52 383.794 277.731 382.798 278.153 381.935C278.579 381.072 279.174 380.399 279.936 379.915C280.702 379.431 281.598 379.189 282.624 379.189C283.247 379.189 283.851 379.292 284.435 379.498C285.02 379.704 285.545 380.028 286.009 380.469C286.474 380.91 286.841 381.482 287.109 382.187C287.377 382.886 287.512 383.737 287.512 384.738V385.5H278.735V383.89H285.406C285.406 383.325 285.291 382.824 285.061 382.388C284.831 381.947 284.507 381.6 284.09 381.346C283.678 381.092 283.194 380.965 282.638 380.965C282.034 380.965 281.507 381.113 281.057 381.41C280.611 381.703 280.266 382.086 280.022 382.56C279.782 383.03 279.662 383.54 279.662 384.091V385.349C279.662 386.087 279.792 386.715 280.051 387.232C280.314 387.75 280.681 388.145 281.15 388.418C281.62 388.687 282.169 388.821 282.796 388.821C283.204 388.821 283.575 388.763 283.91 388.648C284.246 388.529 284.536 388.351 284.78 388.117C285.025 387.882 285.211 387.592 285.341 387.247L287.375 387.613C287.212 388.212 286.92 388.737 286.498 389.188C286.081 389.633 285.556 389.981 284.924 390.23C284.296 390.474 283.58 390.596 282.775 390.596ZM290.706 390.374V379.333H292.855V390.374H290.706ZM291.791 377.629C291.417 377.629 291.096 377.505 290.828 377.256C290.564 377.002 290.433 376.7 290.433 376.35C290.433 375.995 290.564 375.694 290.828 375.444C291.096 375.19 291.417 375.063 291.791 375.063C292.165 375.063 292.484 375.19 292.747 375.444C293.015 375.694 293.15 375.995 293.15 376.35C293.15 376.7 293.015 377.002 292.747 377.256C292.484 377.505 292.165 377.629 291.791 377.629ZM301.185 394.744C300.308 394.744 299.553 394.629 298.921 394.399C298.293 394.169 297.78 393.864 297.383 393.486C296.985 393.107 296.688 392.693 296.491 392.242L298.338 391.48C298.468 391.691 298.64 391.914 298.856 392.149C299.076 392.389 299.374 392.592 299.747 392.76C300.126 392.928 300.612 393.011 301.206 393.011C302.021 393.011 302.694 392.813 303.226 392.415C303.758 392.022 304.024 391.394 304.024 390.532V388.361H303.888C303.758 388.596 303.571 388.857 303.327 389.144C303.087 389.432 302.757 389.681 302.335 389.892C301.913 390.103 301.365 390.208 300.689 390.208C299.817 390.208 299.031 390.005 298.331 389.597C297.636 389.185 297.085 388.579 296.678 387.779C296.276 386.974 296.074 385.984 296.074 384.81C296.074 383.636 296.273 382.63 296.671 381.791C297.073 380.953 297.624 380.311 298.324 379.865C299.024 379.414 299.817 379.189 300.703 379.189C301.389 379.189 301.942 379.304 302.364 379.534C302.785 379.759 303.114 380.023 303.348 380.325C303.588 380.627 303.772 380.893 303.902 381.123H304.06V379.333H306.166V390.618C306.166 391.567 305.946 392.345 305.505 392.954C305.064 393.563 304.467 394.013 303.715 394.305C302.967 394.598 302.124 394.744 301.185 394.744ZM301.163 388.426C301.781 388.426 302.304 388.282 302.73 387.994C303.162 387.702 303.487 387.285 303.708 386.744C303.933 386.197 304.046 385.543 304.046 384.781C304.046 384.039 303.935 383.385 303.715 382.819C303.495 382.254 303.171 381.813 302.745 381.497C302.318 381.175 301.791 381.015 301.163 381.015C300.516 381.015 299.977 381.183 299.546 381.518C299.115 381.849 298.789 382.299 298.568 382.869C298.353 383.44 298.245 384.077 298.245 384.781C298.245 385.505 298.355 386.14 298.576 386.686C298.796 387.232 299.122 387.659 299.553 387.966C299.989 388.272 300.526 388.426 301.163 388.426ZM312.007 383.818V390.374H309.858V375.653H311.978V381.13H312.115C312.374 380.536 312.769 380.064 313.301 379.714C313.833 379.364 314.528 379.189 315.385 379.189C316.143 379.189 316.804 379.345 317.369 379.656C317.94 379.968 318.38 380.433 318.692 381.051C319.008 381.664 319.166 382.431 319.166 383.351V390.374H317.017V383.61C317.017 382.8 316.809 382.172 316.392 381.727C315.975 381.276 315.395 381.051 314.652 381.051C314.144 381.051 313.689 381.159 313.287 381.374C312.889 381.59 312.575 381.906 312.345 382.323C312.12 382.735 312.007 383.234 312.007 383.818ZM327.998 379.333V381.058H321.967V379.333H327.998ZM323.584 376.688H325.733V387.132C325.733 387.549 325.796 387.863 325.92 388.073C326.045 388.279 326.205 388.421 326.402 388.498C326.603 388.569 326.821 388.605 327.056 388.605C327.228 388.605 327.379 388.593 327.509 388.569C327.638 388.545 327.739 388.526 327.811 388.512L328.199 390.287C328.074 390.335 327.897 390.383 327.667 390.431C327.437 390.484 327.149 390.513 326.804 390.517C326.239 390.527 325.712 390.426 325.223 390.215C324.734 390.005 324.339 389.679 324.037 389.238C323.735 388.797 323.584 388.244 323.584 387.577V376.688ZM337.314 383.222V385.083H330.787V383.222H337.314ZM341.16 390.374V375.653H343.31V381.123H343.439C343.564 380.893 343.743 380.627 343.978 380.325C344.213 380.023 344.539 379.759 344.956 379.534C345.373 379.304 345.924 379.189 346.609 379.189C347.5 379.189 348.296 379.414 348.995 379.865C349.695 380.315 350.244 380.965 350.641 381.813C351.044 382.661 351.245 383.682 351.245 384.875C351.245 386.068 351.046 387.091 350.648 387.944C350.251 388.792 349.704 389.446 349.01 389.906C348.315 390.362 347.522 390.589 346.63 390.589C345.96 390.589 345.411 390.477 344.984 390.251C344.563 390.026 344.232 389.763 343.992 389.461C343.753 389.159 343.568 388.89 343.439 388.656H343.259V390.374H341.16ZM343.267 384.853C343.267 385.63 343.379 386.31 343.604 386.895C343.83 387.479 344.155 387.937 344.582 388.267C345.008 388.593 345.531 388.756 346.149 388.756C346.791 388.756 347.328 388.586 347.759 388.246C348.19 387.901 348.516 387.434 348.736 386.844C348.962 386.255 349.074 385.591 349.074 384.853C349.074 384.125 348.964 383.471 348.744 382.891C348.528 382.311 348.202 381.854 347.766 381.518C347.335 381.183 346.796 381.015 346.149 381.015C345.526 381.015 344.999 381.175 344.568 381.497C344.141 381.818 343.818 382.266 343.597 382.841C343.377 383.416 343.267 384.087 343.267 384.853ZM359.119 390.596C358.083 390.596 357.18 390.359 356.409 389.885C355.637 389.41 355.038 388.747 354.612 387.894C354.185 387.041 353.972 386.044 353.972 384.904C353.972 383.758 354.185 382.757 354.612 381.899C355.038 381.041 355.637 380.375 356.409 379.901C357.18 379.426 358.083 379.189 359.119 379.189C360.154 379.189 361.057 379.426 361.828 379.901C362.6 380.375 363.199 381.041 363.625 381.899C364.052 382.757 364.265 383.758 364.265 384.904C364.265 386.044 364.052 387.041 363.625 387.894C363.199 388.747 362.6 389.41 361.828 389.885C361.057 390.359 360.154 390.596 359.119 390.596ZM359.126 388.792C359.797 388.792 360.352 388.615 360.793 388.26C361.234 387.906 361.56 387.434 361.771 386.844C361.986 386.255 362.094 385.606 362.094 384.896C362.094 384.192 361.986 383.545 361.771 382.956C361.56 382.361 361.234 381.885 360.793 381.525C360.352 381.166 359.797 380.986 359.126 380.986C358.45 380.986 357.889 381.166 357.444 381.525C357.003 381.885 356.675 382.361 356.459 382.956C356.248 383.545 356.143 384.192 356.143 384.896C356.143 385.606 356.248 386.255 356.459 386.844C356.675 387.434 357.003 387.906 357.444 388.26C357.889 388.615 358.45 388.792 359.126 388.792ZM369.623 375.653V390.374H367.474V375.653H369.623ZM377.457 390.589C376.565 390.589 375.77 390.362 375.07 389.906C374.376 389.446 373.829 388.792 373.432 387.944C373.039 387.091 372.842 386.068 372.842 384.875C372.842 383.682 373.041 382.661 373.439 381.813C373.841 380.965 374.392 380.315 375.092 379.865C375.792 379.414 376.585 379.189 377.471 379.189C378.156 379.189 378.707 379.304 379.124 379.534C379.546 379.759 379.872 380.023 380.102 380.325C380.337 380.627 380.519 380.893 380.648 381.123H380.777V375.653H382.927V390.374H380.828V388.656H380.648C380.519 388.89 380.332 389.159 380.087 389.461C379.848 389.763 379.517 390.026 379.096 390.251C378.674 390.477 378.128 390.589 377.457 390.589ZM377.931 388.756C378.549 388.756 379.072 388.593 379.498 388.267C379.929 387.937 380.255 387.479 380.476 386.895C380.701 386.31 380.813 385.63 380.813 384.853C380.813 384.087 380.703 383.416 380.483 382.841C380.262 382.266 379.939 381.818 379.512 381.497C379.086 381.175 378.559 381.015 377.931 381.015C377.284 381.015 376.745 381.183 376.314 381.518C375.883 381.854 375.557 382.311 375.336 382.891C375.121 383.471 375.013 384.125 375.013 384.853C375.013 385.591 375.123 386.255 375.343 386.844C375.564 387.434 375.89 387.901 376.321 388.246C376.757 388.586 377.294 388.756 377.931 388.756Z" fill="#333333"/>
<mask id="path-15-inside-3_15283_31155" fill="white">
<path d="M882 362C882 306.772 926.772 262 982 262C1037.23 262 1082 306.772 1082 362C1082 417.228 1037.23 462 982 462C926.772 462 882 417.228 882 362Z"/>
</mask>
<path d="M882 362C882 306.772 926.772 262 982 262C1037.23 262 1082 306.772 1082 362C1082 417.228 1037.23 462 982 462C926.772 462 882 417.228 882 362Z" fill="white"/>
<path d="M982 462V458.627C928.635 458.627 885.373 415.365 885.373 362H882H878.627C878.627 419.092 924.908 465.373 982 465.373V462ZM1082 362H1078.63C1078.63 415.365 1035.37 458.627 982 458.627V462V465.373C1039.09 465.373 1085.37 419.092 1085.37 362H1082ZM982 262V265.373C1035.37 265.373 1078.63 308.635 1078.63 362H1082H1085.37C1085.37 304.908 1039.09 258.627 982 258.627V262ZM982 262V258.627C924.908 258.627 878.627 304.908 878.627 362H882H885.373C885.373 308.635 928.635 265.373 982 265.373V262Z" fill="#E5E5E5" mask="url(#path-15-inside-3_15283_31155)"/>
<path d="M936.982 371V353.545H943.868C945.192 353.545 946.32 353.798 947.252 354.304C948.184 354.804 948.894 355.5 949.382 356.392C949.877 357.278 950.124 358.301 950.124 359.46C950.124 360.619 949.874 361.642 949.374 362.528C948.874 363.415 948.15 364.105 947.201 364.599C946.257 365.094 945.115 365.341 943.775 365.341H939.385V362.384H943.178C943.888 362.384 944.473 362.261 944.934 362.017C945.4 361.767 945.746 361.423 945.973 360.986C946.206 360.543 946.323 360.034 946.323 359.46C946.323 358.881 946.206 358.375 945.973 357.943C945.746 357.506 945.4 357.168 944.934 356.929C944.468 356.685 943.877 356.562 943.161 356.562H940.672V371H936.982ZM952.453 371V357.909H955.973V360.193H956.109C956.348 359.381 956.748 358.767 957.311 358.352C957.873 357.932 958.521 357.722 959.254 357.722C959.436 357.722 959.632 357.733 959.842 357.756C960.052 357.778 960.237 357.81 960.396 357.849V361.071C960.225 361.02 959.99 360.974 959.689 360.935C959.387 360.895 959.112 360.875 958.862 360.875C958.328 360.875 957.85 360.991 957.43 361.224C957.015 361.452 956.686 361.77 956.441 362.179C956.203 362.588 956.083 363.06 956.083 363.594V371H952.453ZM967.578 371.256C966.255 371.256 965.11 370.974 964.144 370.412C963.184 369.844 962.442 369.054 961.919 368.043C961.397 367.026 961.135 365.847 961.135 364.506C961.135 363.153 961.397 361.972 961.919 360.96C962.442 359.943 963.184 359.153 964.144 358.591C965.11 358.023 966.255 357.739 967.578 357.739C968.902 357.739 970.044 358.023 971.005 358.591C971.971 359.153 972.715 359.943 973.238 360.96C973.76 361.972 974.022 363.153 974.022 364.506C974.022 365.847 973.76 367.026 973.238 368.043C972.715 369.054 971.971 369.844 971.005 370.412C970.044 370.974 968.902 371.256 967.578 371.256ZM967.596 368.443C968.198 368.443 968.701 368.273 969.104 367.932C969.507 367.585 969.811 367.114 970.016 366.517C970.226 365.92 970.331 365.241 970.331 364.48C970.331 363.719 970.226 363.04 970.016 362.443C969.811 361.847 969.507 361.375 969.104 361.028C968.701 360.682 968.198 360.509 967.596 360.509C966.988 360.509 966.476 360.682 966.061 361.028C965.652 361.375 965.343 361.847 965.132 362.443C964.928 363.04 964.826 363.719 964.826 364.48C964.826 365.241 964.928 365.92 965.132 366.517C965.343 367.114 965.652 367.585 966.061 367.932C966.476 368.273 966.988 368.443 967.596 368.443ZM981.206 371.213C980.212 371.213 979.311 370.957 978.505 370.446C977.703 369.929 977.067 369.17 976.596 368.17C976.13 367.165 975.897 365.932 975.897 364.472C975.897 362.972 976.138 361.724 976.621 360.73C977.104 359.73 977.746 358.983 978.547 358.489C979.354 357.989 980.238 357.739 981.198 357.739C981.931 357.739 982.542 357.864 983.03 358.114C983.525 358.358 983.922 358.665 984.223 359.034C984.53 359.398 984.763 359.756 984.922 360.108H985.033V353.545H988.655V371H985.076V368.903H984.922C984.752 369.267 984.51 369.628 984.198 369.986C983.891 370.338 983.49 370.631 982.996 370.864C982.507 371.097 981.911 371.213 981.206 371.213ZM982.357 368.324C982.942 368.324 983.436 368.165 983.84 367.847C984.249 367.523 984.561 367.071 984.777 366.491C984.999 365.912 985.11 365.233 985.11 364.455C985.11 363.676 985.002 363 984.786 362.426C984.57 361.852 984.257 361.409 983.848 361.097C983.439 360.784 982.942 360.628 982.357 360.628C981.76 360.628 981.257 360.79 980.848 361.114C980.439 361.437 980.13 361.886 979.919 362.46C979.709 363.034 979.604 363.699 979.604 364.455C979.604 365.216 979.709 365.889 979.919 366.474C980.135 367.054 980.445 367.509 980.848 367.838C981.257 368.162 981.76 368.324 982.357 368.324ZM1000.04 365.426V357.909H1003.67V371H1000.18V368.622H1000.04C999.748 369.389 999.257 370.006 998.569 370.472C997.887 370.937 997.055 371.17 996.072 371.17C995.197 371.17 994.427 370.972 993.762 370.574C993.098 370.176 992.578 369.611 992.203 368.878C991.833 368.145 991.646 367.267 991.64 366.244V357.909H995.271V365.597C995.277 366.369 995.484 366.98 995.893 367.429C996.302 367.878 996.85 368.102 997.538 368.102C997.975 368.102 998.385 368.003 998.765 367.804C999.146 367.599 999.453 367.298 999.686 366.901C999.924 366.503 1000.04 366.011 1000.04 365.426ZM1012.48 371.256C1011.14 371.256 1009.99 370.972 1009.02 370.403C1008.06 369.83 1007.33 369.034 1006.81 368.017C1006.3 367 1006.04 365.83 1006.04 364.506C1006.04 363.165 1006.3 361.989 1006.82 360.977C1007.34 359.96 1008.08 359.168 1009.04 358.599C1010 358.026 1011.14 357.739 1012.47 357.739C1013.61 357.739 1014.61 357.946 1015.47 358.361C1016.33 358.776 1017 359.358 1017.5 360.108C1018 360.858 1018.28 361.739 1018.33 362.75H1014.91C1014.81 362.097 1014.55 361.571 1014.14 361.173C1013.73 360.77 1013.19 360.568 1012.53 360.568C1011.96 360.568 1011.47 360.722 1011.05 361.028C1010.64 361.33 1010.31 361.77 1010.08 362.349C1009.85 362.929 1009.73 363.631 1009.73 364.455C1009.73 365.29 1009.85 366 1010.07 366.585C1010.31 367.17 1010.63 367.616 1011.05 367.923C1011.47 368.23 1011.96 368.384 1012.53 368.384C1012.94 368.384 1013.31 368.298 1013.64 368.128C1013.98 367.957 1014.25 367.71 1014.47 367.386C1014.69 367.057 1014.84 366.662 1014.91 366.202H1018.33C1018.27 367.202 1018 368.082 1017.51 368.844C1017.03 369.599 1016.36 370.19 1015.51 370.616C1014.66 371.043 1013.65 371.256 1012.48 371.256ZM1027.62 357.909V360.636H1019.74V357.909H1027.62ZM1021.53 354.773H1025.16V366.977C1025.16 367.312 1025.21 367.574 1025.31 367.761C1025.41 367.943 1025.55 368.071 1025.74 368.145C1025.92 368.219 1026.14 368.256 1026.38 368.256C1026.55 368.256 1026.72 368.241 1026.89 368.213C1027.06 368.179 1027.2 368.153 1027.29 368.136L1027.86 370.838C1027.68 370.895 1027.42 370.96 1027.09 371.034C1026.76 371.114 1026.36 371.162 1025.89 371.179C1025.01 371.213 1024.25 371.097 1023.59 370.83C1022.93 370.562 1022.43 370.148 1022.06 369.585C1021.7 369.023 1021.52 368.312 1021.53 367.455V354.773Z" fill="#333333"/>
<path d="M1234 220C1234 153.726 1287.73 100 1354 100C1420.27 100 1474 153.726 1474 220C1474 286.274 1420.27 340 1354 340C1287.73 340 1234 286.274 1234 220Z" fill="#DB0025"/>
<path d="M1324.27 208.727V232H1319.35V208.727H1324.27ZM1333.07 221.909V232H1328.23V214.545H1332.84V217.625H1333.05C1333.43 216.61 1334.08 215.807 1334.99 215.216C1335.9 214.617 1337 214.318 1338.3 214.318C1339.51 214.318 1340.57 214.583 1341.47 215.114C1342.37 215.644 1343.07 216.402 1343.57 217.386C1344.07 218.364 1344.32 219.53 1344.32 220.886V232H1339.48V221.75C1339.49 220.682 1339.21 219.848 1338.66 219.25C1338.11 218.644 1337.35 218.341 1336.38 218.341C1335.72 218.341 1335.15 218.481 1334.65 218.761C1334.16 219.042 1333.77 219.451 1333.49 219.989C1333.22 220.519 1333.08 221.159 1333.07 221.909ZM1357.42 214.545V218.182H1346.91V214.545H1357.42ZM1349.29 210.364H1354.13V226.636C1354.13 227.083 1354.2 227.432 1354.34 227.682C1354.48 227.924 1354.67 228.095 1354.91 228.193C1355.16 228.292 1355.45 228.341 1355.77 228.341C1356 228.341 1356.23 228.322 1356.45 228.284C1356.68 228.239 1356.85 228.205 1356.98 228.182L1357.74 231.784C1357.49 231.86 1357.15 231.947 1356.71 232.045C1356.28 232.152 1355.74 232.216 1355.11 232.239C1353.95 232.284 1352.92 232.129 1352.04 231.773C1351.17 231.417 1350.49 230.864 1350.01 230.114C1349.53 229.364 1349.29 228.417 1349.29 227.273V210.364ZM1368.34 232.341C1366.54 232.341 1365 231.977 1363.7 231.25C1362.42 230.515 1361.42 229.477 1360.73 228.136C1360.03 226.788 1359.68 225.193 1359.68 223.352C1359.68 221.557 1360.03 219.981 1360.73 218.625C1361.42 217.269 1362.4 216.212 1363.67 215.455C1364.94 214.697 1366.43 214.318 1368.15 214.318C1369.3 214.318 1370.37 214.504 1371.36 214.875C1372.36 215.239 1373.23 215.788 1373.98 216.523C1374.73 217.258 1375.31 218.182 1375.73 219.295C1376.14 220.402 1376.35 221.697 1376.35 223.182V224.511H1361.61V221.511H1371.79C1371.79 220.814 1371.64 220.197 1371.34 219.659C1371.04 219.121 1370.62 218.701 1370.08 218.398C1369.55 218.087 1368.93 217.932 1368.23 217.932C1367.49 217.932 1366.84 218.102 1366.27 218.443C1365.71 218.777 1365.27 219.227 1364.95 219.795C1364.63 220.356 1364.47 220.981 1364.46 221.67V224.523C1364.46 225.386 1364.62 226.133 1364.94 226.761C1365.27 227.39 1365.73 227.875 1366.32 228.216C1366.91 228.557 1367.61 228.727 1368.42 228.727C1368.96 228.727 1369.45 228.652 1369.9 228.5C1370.34 228.348 1370.73 228.121 1371.04 227.818C1371.36 227.515 1371.6 227.144 1371.77 226.705L1376.25 227C1376.02 228.076 1375.56 229.015 1374.85 229.818C1374.15 230.614 1373.25 231.235 1372.15 231.682C1371.05 232.121 1369.78 232.341 1368.34 232.341ZM1379.51 232V214.545H1384.2V217.591H1384.38C1384.7 216.508 1385.24 215.689 1385.99 215.136C1386.74 214.576 1387.6 214.295 1388.58 214.295C1388.82 214.295 1389.08 214.311 1389.36 214.341C1389.64 214.371 1389.89 214.413 1390.1 214.466V218.761C1389.87 218.693 1389.56 218.633 1389.16 218.58C1388.76 218.527 1388.39 218.5 1388.06 218.5C1387.34 218.5 1386.71 218.655 1386.15 218.966C1385.59 219.269 1385.15 219.693 1384.83 220.239C1384.51 220.784 1384.35 221.413 1384.35 222.125V232H1379.51Z" fill="white"/>
<path d="M1234 500C1234 433.726 1287.73 380 1354 380C1420.27 380 1474 433.726 1474 500C1474 566.274 1420.27 620 1354 620C1287.73 620 1234 566.274 1234 500Z" fill="#DB0025"/>
<path d="M1254.29 512V488.288H1259.12L1266 500.928L1268.4 506.048H1268.56C1268.43 504.811 1268.29 503.456 1268.14 501.984C1267.99 500.512 1267.92 499.104 1267.92 497.76V488.288H1272.4V512H1267.57L1260.75 499.328L1258.35 494.24H1258.19C1258.3 495.52 1258.43 496.875 1258.58 498.304C1258.72 499.733 1258.8 501.131 1258.8 502.496V512H1254.29ZM1285.36 512.448C1283.87 512.448 1282.46 512.075 1281.14 511.328C1279.83 510.581 1278.78 509.515 1277.97 508.128C1277.16 506.72 1276.75 505.024 1276.75 503.04C1276.75 501.056 1277.16 499.371 1277.97 497.984C1278.78 496.576 1279.83 495.499 1281.14 494.752C1282.46 494.005 1283.87 493.632 1285.36 493.632C1286.49 493.632 1287.57 493.845 1288.59 494.272C1289.62 494.699 1290.53 495.317 1291.34 496.128C1292.15 496.917 1292.79 497.899 1293.26 499.072C1293.73 500.224 1293.97 501.547 1293.97 503.04C1293.97 505.024 1293.56 506.72 1292.75 508.128C1291.94 509.515 1290.87 510.581 1289.55 511.328C1288.25 512.075 1286.85 512.448 1285.36 512.448ZM1285.36 508.608C1286.17 508.608 1286.85 508.384 1287.41 507.936C1287.98 507.467 1288.41 506.816 1288.69 505.984C1288.99 505.152 1289.14 504.171 1289.14 503.04C1289.14 501.909 1288.99 500.928 1288.69 500.096C1288.41 499.264 1287.98 498.624 1287.41 498.176C1286.85 497.707 1286.17 497.472 1285.36 497.472C1284.55 497.472 1283.86 497.707 1283.28 498.176C1282.73 498.624 1282.3 499.264 1282 500.096C1281.72 500.928 1281.58 501.909 1281.58 503.04C1281.58 504.171 1281.72 505.152 1282 505.984C1282.3 506.816 1282.73 507.467 1283.28 507.936C1283.86 508.384 1284.55 508.608 1285.36 508.608ZM1303.43 512.448C1302.02 512.448 1300.88 512.171 1300.01 511.616C1299.13 511.04 1298.5 510.251 1298.12 509.248C1297.74 508.245 1297.54 507.083 1297.54 505.76V497.792H1295.02V494.304L1297.8 494.08L1298.34 489.248H1302.22V494.08H1306.66V497.792H1302.22V505.728C1302.22 506.752 1302.43 507.509 1302.86 508C1303.28 508.491 1303.89 508.736 1304.68 508.736C1304.98 508.736 1305.29 508.693 1305.61 508.608C1305.93 508.523 1306.21 508.437 1306.44 508.352L1307.24 511.776C1306.75 511.925 1306.18 512.075 1305.54 512.224C1304.93 512.373 1304.22 512.448 1303.43 512.448ZM1317.05 512.448C1315.55 512.448 1314.15 512.075 1312.82 511.328C1311.52 510.581 1310.47 509.515 1309.66 508.128C1308.84 506.72 1308.44 505.024 1308.44 503.04C1308.44 501.056 1308.84 499.371 1309.66 497.984C1310.47 496.576 1311.52 495.499 1312.82 494.752C1314.15 494.005 1315.55 493.632 1317.05 493.632C1318.18 493.632 1319.26 493.845 1320.28 494.272C1321.3 494.699 1322.22 495.317 1323.03 496.128C1323.84 496.917 1324.48 497.899 1324.95 499.072C1325.42 500.224 1325.66 501.547 1325.66 503.04C1325.66 505.024 1325.25 506.72 1324.44 508.128C1323.63 509.515 1322.56 510.581 1321.24 511.328C1319.94 512.075 1318.54 512.448 1317.05 512.448ZM1317.05 508.608C1317.86 508.608 1318.54 508.384 1319.1 507.936C1319.67 507.467 1320.1 506.816 1320.38 505.984C1320.67 505.152 1320.82 504.171 1320.82 503.04C1320.82 501.909 1320.67 500.928 1320.38 500.096C1320.1 499.264 1319.67 498.624 1319.1 498.176C1318.54 497.707 1317.86 497.472 1317.05 497.472C1316.24 497.472 1315.54 497.707 1314.97 498.176C1314.41 498.624 1313.99 499.264 1313.69 500.096C1313.41 500.928 1313.27 501.909 1313.27 503.04C1313.27 504.171 1313.41 505.152 1313.69 505.984C1313.99 506.816 1314.41 507.467 1314.97 507.936C1315.54 508.384 1316.24 508.608 1317.05 508.608ZM1344.3 512.448C1342.72 512.448 1341.17 512.149 1339.66 511.552C1338.14 510.955 1336.81 510.101 1335.66 508.992L1338.38 505.728C1339.21 506.517 1340.16 507.157 1341.22 507.648C1342.31 508.117 1343.37 508.352 1344.39 508.352C1345.63 508.352 1346.57 508.107 1347.21 507.616C1347.85 507.125 1348.17 506.464 1348.17 505.632C1348.17 505.035 1348.01 504.565 1347.69 504.224C1347.39 503.861 1346.97 503.541 1346.44 503.264C1345.91 502.987 1345.29 502.709 1344.58 502.432L1341.45 501.056C1340.66 500.736 1339.89 500.309 1339.14 499.776C1338.42 499.221 1337.81 498.528 1337.32 497.696C1336.85 496.864 1336.62 495.872 1336.62 494.72C1336.62 493.419 1336.97 492.256 1337.67 491.232C1338.38 490.208 1339.35 489.397 1340.58 488.8C1341.82 488.181 1343.23 487.872 1344.81 487.872C1346.22 487.872 1347.57 488.139 1348.87 488.672C1350.17 489.205 1351.3 489.963 1352.26 490.944L1349.86 493.888C1349.12 493.269 1348.34 492.789 1347.53 492.448C1346.72 492.107 1345.81 491.936 1344.81 491.936C1343.78 491.936 1342.96 492.16 1342.34 492.608C1341.75 493.035 1341.45 493.643 1341.45 494.432C1341.45 494.987 1341.62 495.445 1341.96 495.808C1342.3 496.171 1342.75 496.491 1343.3 496.768C1343.86 497.024 1344.47 497.291 1345.13 497.568L1348.23 498.816C1349.19 499.2 1350.02 499.68 1350.73 500.256C1351.45 500.832 1352.01 501.525 1352.39 502.336C1352.8 503.147 1353 504.128 1353 505.28C1353 506.56 1352.65 507.744 1351.94 508.832C1351.26 509.92 1350.27 510.795 1348.97 511.456C1347.69 512.117 1346.13 512.448 1344.3 512.448ZM1361.19 512.448C1360.15 512.448 1359.22 512.224 1358.41 511.776C1357.62 511.307 1357 510.667 1356.55 509.856C1356.13 509.045 1355.91 508.128 1355.91 507.104C1355.91 505.205 1356.73 503.733 1358.38 502.688C1360.02 501.621 1362.63 500.896 1366.22 500.512C1366.2 499.915 1366.09 499.392 1365.9 498.944C1365.71 498.475 1365.39 498.101 1364.94 497.824C1364.51 497.547 1363.92 497.408 1363.18 497.408C1362.35 497.408 1361.52 497.568 1360.71 497.888C1359.9 498.208 1359.08 498.624 1358.25 499.136L1356.59 496C1357.29 495.552 1358.04 495.157 1358.83 494.816C1359.61 494.475 1360.45 494.197 1361.32 493.984C1362.2 493.749 1363.1 493.632 1364.04 493.632C1365.56 493.632 1366.83 493.931 1367.85 494.528C1368.87 495.125 1369.64 496.011 1370.15 497.184C1370.67 498.357 1370.92 499.808 1370.92 501.536V512H1367.08L1366.76 510.08H1366.6C1365.83 510.763 1365 511.328 1364.11 511.776C1363.21 512.224 1362.24 512.448 1361.19 512.448ZM1362.76 508.768C1363.42 508.768 1364.02 508.619 1364.55 508.32C1365.11 508 1365.66 507.563 1366.22 507.008V503.424C1364.77 503.595 1363.61 503.84 1362.76 504.16C1361.91 504.48 1361.3 504.864 1360.94 505.312C1360.57 505.739 1360.39 506.219 1360.39 506.752C1360.39 507.456 1360.61 507.968 1361.03 508.288C1361.48 508.608 1362.06 508.768 1362.76 508.768ZM1375.72 512V494.08H1379.56L1379.91 496.448H1380C1380.79 495.68 1381.66 495.019 1382.6 494.464C1383.53 493.909 1384.61 493.632 1385.83 493.632C1387.77 493.632 1389.18 494.272 1390.05 495.552C1390.93 496.811 1391.36 498.571 1391.36 500.832V512H1386.66V501.408C1386.66 500.021 1386.46 499.051 1386.05 498.496C1385.67 497.941 1385.03 497.664 1384.13 497.664C1383.41 497.664 1382.77 497.835 1382.21 498.176C1381.68 498.517 1381.08 499.019 1380.42 499.68V512H1375.72ZM1401.34 512.448C1400.14 512.448 1398.92 512.213 1397.69 511.744C1396.47 511.275 1395.42 510.677 1394.52 509.952L1396.66 506.976C1397.45 507.573 1398.23 508.053 1399 508.416C1399.79 508.757 1400.61 508.928 1401.46 508.928C1402.36 508.928 1403.01 508.757 1403.42 508.416C1403.84 508.053 1404.06 507.595 1404.06 507.04C1404.06 506.592 1403.87 506.219 1403.51 505.92C1403.15 505.6 1402.68 505.323 1402.1 505.088C1401.53 504.832 1400.93 504.587 1400.31 504.352C1399.56 504.053 1398.82 503.691 1398.07 503.264C1397.35 502.837 1396.74 502.293 1396.25 501.632C1395.76 500.949 1395.51 500.107 1395.51 499.104C1395.51 498.037 1395.79 497.099 1396.34 496.288C1396.9 495.456 1397.67 494.805 1398.65 494.336C1399.65 493.867 1400.83 493.632 1402.2 493.632C1403.5 493.632 1404.65 493.856 1405.66 494.304C1406.68 494.752 1407.55 495.264 1408.28 495.84L1406.17 498.688C1405.53 498.219 1404.89 497.845 1404.25 497.568C1403.63 497.291 1402.99 497.152 1402.33 497.152C1401.5 497.152 1400.89 497.312 1400.5 497.632C1400.12 497.952 1399.93 498.368 1399.93 498.88C1399.93 499.307 1400.09 499.669 1400.41 499.968C1400.73 500.245 1401.16 500.491 1401.72 500.704C1402.27 500.917 1402.86 501.141 1403.48 501.376C1404.08 501.589 1404.66 501.845 1405.24 502.144C1405.84 502.421 1406.38 502.763 1406.87 503.168C1407.36 503.573 1407.75 504.075 1408.02 504.672C1408.32 505.248 1408.47 505.952 1408.47 506.784C1408.47 507.829 1408.19 508.789 1407.64 509.664C1407.11 510.517 1406.31 511.2 1405.24 511.712C1404.19 512.203 1402.89 512.448 1401.34 512.448ZM1424.4 512V492.256H1417.74V488.288H1435.82V492.256H1429.13V512H1424.4ZM1448.17 512.448C1446.68 512.448 1445.28 512.192 1443.98 511.68C1442.68 511.147 1441.52 510.357 1440.52 509.312C1439.54 508.267 1438.76 506.987 1438.19 505.472C1437.63 503.957 1437.35 502.219 1437.35 500.256C1437.35 498.293 1437.64 496.555 1438.22 495.04C1438.79 493.504 1439.58 492.203 1440.59 491.136C1441.61 490.069 1442.78 489.259 1444.11 488.704C1445.45 488.149 1446.87 487.872 1448.36 487.872C1449.88 487.872 1451.22 488.181 1452.39 488.8C1453.59 489.397 1454.56 490.101 1455.31 490.912L1452.84 493.92C1452.24 493.323 1451.58 492.843 1450.86 492.48C1450.15 492.117 1449.35 491.936 1448.46 491.936C1447.26 491.936 1446.19 492.267 1445.23 492.928C1444.29 493.568 1443.55 494.496 1443.02 495.712C1442.48 496.928 1442.22 498.389 1442.22 500.096C1442.22 501.824 1442.46 503.307 1442.95 504.544C1443.47 505.76 1444.18 506.699 1445.1 507.36C1446.04 508.021 1447.12 508.352 1448.36 508.352C1449.39 508.352 1450.29 508.139 1451.08 507.712C1451.89 507.264 1452.61 506.699 1453.23 506.016L1455.75 508.96C1454.77 510.112 1453.65 510.987 1452.39 511.584C1451.13 512.16 1449.73 512.448 1448.17 512.448Z" fill="white"/>
<path d="M548.322 178H545.526L551.808 160.545H554.85L561.131 178H558.336L553.401 163.716H553.265L548.322 178ZM548.79 171.165H557.859V173.381H548.79V171.165ZM565.996 160.545V178H563.447V160.545H565.996ZM569.424 178V164.909H571.972V178H569.424ZM570.711 162.889C570.268 162.889 569.887 162.741 569.569 162.446C569.256 162.145 569.1 161.787 569.1 161.372C569.1 160.952 569.256 160.594 569.569 160.298C569.887 159.997 570.268 159.847 570.711 159.847C571.154 159.847 571.532 159.997 571.844 160.298C572.163 160.594 572.322 160.952 572.322 161.372C572.322 161.787 572.163 162.145 571.844 162.446C571.532 162.741 571.154 162.889 570.711 162.889ZM579.21 178.29C578.381 178.29 577.631 178.136 576.96 177.83C576.29 177.517 575.759 177.065 575.366 176.474C574.98 175.884 574.787 175.159 574.787 174.301C574.787 173.562 574.929 172.955 575.213 172.477C575.497 172 575.881 171.622 576.364 171.344C576.847 171.065 577.386 170.855 577.983 170.713C578.58 170.571 579.188 170.463 579.807 170.389C580.591 170.298 581.227 170.224 581.716 170.168C582.205 170.105 582.56 170.006 582.781 169.869C583.003 169.733 583.114 169.511 583.114 169.205V169.145C583.114 168.401 582.903 167.824 582.483 167.415C582.068 167.006 581.449 166.801 580.625 166.801C579.767 166.801 579.091 166.991 578.597 167.372C578.108 167.747 577.77 168.165 577.582 168.625L575.188 168.08C575.472 167.284 575.886 166.642 576.432 166.153C576.983 165.659 577.616 165.301 578.332 165.08C579.048 164.852 579.801 164.739 580.591 164.739C581.114 164.739 581.668 164.801 582.253 164.926C582.844 165.045 583.395 165.267 583.906 165.591C584.423 165.915 584.847 166.378 585.176 166.98C585.506 167.577 585.67 168.352 585.67 169.307V178H583.182V176.21H583.08C582.915 176.54 582.668 176.864 582.338 177.182C582.009 177.5 581.585 177.764 581.068 177.974C580.551 178.185 579.932 178.29 579.21 178.29ZM579.764 176.244C580.469 176.244 581.071 176.105 581.571 175.827C582.077 175.548 582.46 175.185 582.722 174.736C582.989 174.281 583.122 173.795 583.122 173.278V171.591C583.031 171.682 582.855 171.767 582.594 171.847C582.338 171.92 582.045 171.986 581.716 172.043C581.386 172.094 581.065 172.142 580.753 172.188C580.44 172.227 580.179 172.261 579.969 172.29C579.474 172.352 579.023 172.457 578.614 172.605C578.21 172.753 577.886 172.966 577.642 173.244C577.403 173.517 577.284 173.881 577.284 174.335C577.284 174.966 577.517 175.443 577.983 175.767C578.449 176.085 579.043 176.244 579.764 176.244ZM598.874 168.105L596.565 168.514C596.468 168.219 596.315 167.937 596.104 167.67C595.9 167.403 595.621 167.185 595.269 167.014C594.917 166.844 594.477 166.759 593.948 166.759C593.227 166.759 592.624 166.92 592.141 167.244C591.658 167.562 591.417 167.974 591.417 168.48C591.417 168.918 591.579 169.27 591.903 169.537C592.227 169.804 592.749 170.023 593.471 170.193L595.55 170.67C596.755 170.949 597.653 171.378 598.244 171.957C598.835 172.537 599.13 173.29 599.13 174.216C599.13 175 598.903 175.699 598.448 176.312C597.999 176.92 597.371 177.398 596.565 177.744C595.763 178.091 594.835 178.264 593.778 178.264C592.312 178.264 591.116 177.952 590.19 177.327C589.263 176.696 588.695 175.801 588.485 174.642L590.948 174.267C591.102 174.909 591.417 175.395 591.894 175.724C592.371 176.048 592.994 176.21 593.761 176.21C594.596 176.21 595.263 176.037 595.763 175.69C596.263 175.338 596.513 174.909 596.513 174.403C596.513 173.994 596.36 173.651 596.053 173.372C595.752 173.094 595.289 172.884 594.664 172.741L592.448 172.256C591.227 171.977 590.323 171.534 589.738 170.926C589.158 170.318 588.869 169.548 588.869 168.616C588.869 167.844 589.085 167.168 589.516 166.588C589.948 166.009 590.545 165.557 591.306 165.233C592.067 164.903 592.94 164.739 593.923 164.739C595.337 164.739 596.451 165.045 597.263 165.659C598.076 166.267 598.613 167.082 598.874 168.105ZM614.394 164.909V166.955H607.244V164.909H614.394ZM609.161 161.773H611.71V174.156C611.71 174.651 611.783 175.023 611.931 175.273C612.079 175.517 612.269 175.685 612.502 175.776C612.741 175.861 612.999 175.903 613.278 175.903C613.482 175.903 613.661 175.889 613.815 175.861C613.968 175.832 614.087 175.81 614.173 175.793L614.633 177.898C614.485 177.955 614.275 178.011 614.002 178.068C613.729 178.131 613.388 178.165 612.979 178.17C612.309 178.182 611.684 178.062 611.104 177.812C610.525 177.562 610.056 177.176 609.698 176.653C609.34 176.131 609.161 175.474 609.161 174.685V161.773ZM622.587 178.264C621.359 178.264 620.288 177.983 619.374 177.42C618.459 176.858 617.749 176.071 617.243 175.06C616.737 174.048 616.484 172.866 616.484 171.514C616.484 170.156 616.737 168.969 617.243 167.952C617.749 166.935 618.459 166.145 619.374 165.582C620.288 165.02 621.359 164.739 622.587 164.739C623.814 164.739 624.885 165.02 625.8 165.582C626.714 166.145 627.425 166.935 627.93 167.952C628.436 168.969 628.689 170.156 628.689 171.514C628.689 172.866 628.436 174.048 627.93 175.06C627.425 176.071 626.714 176.858 625.8 177.42C624.885 177.983 623.814 178.264 622.587 178.264ZM622.595 176.125C623.391 176.125 624.05 175.915 624.572 175.494C625.095 175.074 625.482 174.514 625.732 173.815C625.987 173.116 626.115 172.347 626.115 171.506C626.115 170.67 625.987 169.903 625.732 169.205C625.482 168.5 625.095 167.935 624.572 167.509C624.05 167.082 623.391 166.869 622.595 166.869C621.794 166.869 621.129 167.082 620.601 167.509C620.078 167.935 619.689 168.5 619.433 169.205C619.183 169.903 619.058 170.67 619.058 171.506C619.058 172.347 619.183 173.116 619.433 173.815C619.689 174.514 620.078 175.074 620.601 175.494C621.129 175.915 621.794 176.125 622.595 176.125ZM633.877 173.56L633.86 170.449H634.303L639.519 164.909H642.57L636.621 171.216H636.221L633.877 173.56ZM631.533 178V160.545H634.082V178H631.533ZM639.8 178L635.113 171.778L636.869 169.997L642.928 178H639.8ZM649.996 178.264C648.706 178.264 647.595 177.989 646.663 177.438C645.737 176.881 645.021 176.099 644.516 175.094C644.016 174.082 643.766 172.898 643.766 171.54C643.766 170.199 644.016 169.017 644.516 167.994C645.021 166.972 645.726 166.173 646.629 165.599C647.538 165.026 648.601 164.739 649.817 164.739C650.555 164.739 651.271 164.861 651.964 165.105C652.658 165.349 653.28 165.733 653.831 166.256C654.382 166.778 654.817 167.457 655.135 168.293C655.453 169.122 655.612 170.131 655.612 171.318V172.222H645.206V170.312H653.115C653.115 169.642 652.979 169.048 652.706 168.531C652.433 168.009 652.05 167.597 651.555 167.295C651.067 166.994 650.493 166.844 649.834 166.844C649.118 166.844 648.493 167.02 647.959 167.372C647.43 167.719 647.021 168.173 646.732 168.736C646.447 169.293 646.305 169.898 646.305 170.551V172.043C646.305 172.918 646.459 173.662 646.766 174.276C647.078 174.889 647.513 175.358 648.07 175.682C648.626 176 649.277 176.159 650.021 176.159C650.504 176.159 650.945 176.091 651.342 175.955C651.74 175.812 652.084 175.602 652.374 175.324C652.663 175.045 652.885 174.702 653.038 174.293L655.45 174.727C655.257 175.437 654.911 176.06 654.411 176.594C653.916 177.122 653.294 177.534 652.544 177.83C651.8 178.119 650.95 178.264 649.996 178.264ZM660.988 170.227V178H658.44V164.909H660.886V167.04H661.048C661.349 166.347 661.82 165.79 662.462 165.369C663.11 164.949 663.925 164.739 664.908 164.739C665.8 164.739 666.582 164.926 667.252 165.301C667.923 165.67 668.442 166.222 668.812 166.955C669.181 167.687 669.366 168.594 669.366 169.673V178H666.817V169.98C666.817 169.031 666.57 168.29 666.076 167.756C665.582 167.216 664.903 166.946 664.039 166.946C663.448 166.946 662.923 167.074 662.462 167.33C662.008 167.585 661.647 167.96 661.38 168.455C661.119 168.943 660.988 169.534 660.988 170.227Z" fill="#333333"/>
</svg>
