<svg width="690" height="640" viewBox="0 0 690 640" fill="none" xmlns="http://www.w3.org/2000/svg">
<g clip-path="url(#clip0_15283_31281)">
<rect width="345" height="320" transform="scale(2)" fill="#F6F6F6"/>
<g filter="url(#filter0_d_15283_31281)">
<path d="M-135 -82C-135 -99.6731 -120.673 -114 -103 -114H593C610.673 -114 625 -99.6731 625 -82V414C625 431.673 610.673 446 593 446H-103C-120.673 446 -135 431.673 -135 414V-82Z" fill="white"/>
</g>
<rect x="-192" y="-10" width="754" height="48" rx="4" fill="#EBEBEB"/>
<rect x="-192" y="62" width="754" height="48" rx="4" fill="#F2F2F2"/>
<rect x="-192" y="134" width="638" height="48" rx="4" fill="#F6F6F6"/>
<path d="M477 526C477 516.059 485.059 508 495 508C504.941 508 513 516.059 513 526C513 535.941 504.941 544 495 544C485.059 544 477 535.941 477 526Z" fill="#333333"/>
<path d="M494.999 534.199C494.109 534.199 493.309 534.028 492.599 533.688C491.893 533.342 491.33 532.868 490.908 532.267C490.487 531.666 490.262 530.979 490.233 530.207H492.364C492.416 530.832 492.693 531.346 493.195 531.749C493.697 532.151 494.298 532.352 494.999 532.352C495.558 532.352 496.053 532.224 496.483 531.969C496.919 531.708 497.26 531.351 497.506 530.896C497.757 530.442 497.883 529.923 497.883 529.341C497.883 528.749 497.755 528.221 497.499 527.757C497.243 527.293 496.891 526.929 496.441 526.663C495.996 526.398 495.484 526.263 494.907 526.259C494.466 526.259 494.024 526.334 493.579 526.486C493.134 526.637 492.774 526.836 492.499 527.082L490.489 526.784L491.306 519.455H499.303V521.337H493.131L492.67 525.406H492.755C493.039 525.132 493.415 524.902 493.884 524.717C494.358 524.533 494.864 524.44 495.404 524.44C496.289 524.44 497.078 524.651 497.769 525.072C498.465 525.494 499.012 526.069 499.41 526.798C499.812 527.523 500.011 528.356 500.006 529.298C500.011 530.241 499.798 531.081 499.367 531.82C498.941 532.558 498.349 533.141 497.591 533.567C496.839 533.988 495.974 534.199 494.999 534.199Z" fill="white"/>
<path d="M493 500C493 500.552 493.448 501 494 501C494.552 501 495 500.552 495 500H494H493ZM494.707 379.293C494.317 378.902 493.683 378.902 493.293 379.293L486.929 385.657C486.538 386.047 486.538 386.681 486.929 387.071C487.319 387.462 487.953 387.462 488.343 387.071L494 381.414L499.657 387.071C500.047 387.462 500.681 387.462 501.071 387.071C501.462 386.681 501.462 386.047 501.071 385.657L494.707 379.293ZM494 500H495V380H494H493V500H494Z" fill="#333333"/>
<g clip-path="url(#clip1_15283_31281)">
<path d="M288.471 323.259H285.369C285.25 322.596 285.028 322.012 284.703 321.509C284.378 321.005 283.98 320.577 283.51 320.226C283.039 319.875 282.512 319.609 281.929 319.43C281.352 319.251 280.739 319.162 280.089 319.162C278.916 319.162 277.865 319.457 276.937 320.047C276.016 320.637 275.287 321.502 274.75 322.642C274.219 323.782 273.954 325.174 273.954 326.818C273.954 328.475 274.219 329.874 274.75 331.014C275.287 332.154 276.019 333.016 276.947 333.599C277.875 334.183 278.919 334.474 280.079 334.474C280.722 334.474 281.332 334.388 281.909 334.216C282.492 334.037 283.019 333.775 283.49 333.43C283.96 333.086 284.358 332.665 284.683 332.168C285.014 331.664 285.243 331.087 285.369 330.438L288.471 330.447C288.306 331.448 287.984 332.37 287.507 333.212C287.036 334.047 286.43 334.769 285.687 335.379C284.951 335.982 284.11 336.45 283.162 336.781C282.214 337.113 281.18 337.278 280.059 337.278C278.296 337.278 276.725 336.861 275.346 336.026C273.967 335.184 272.88 333.981 272.085 332.416C271.296 330.852 270.902 328.986 270.902 326.818C270.902 324.644 271.299 322.778 272.095 321.22C272.89 319.656 273.977 318.456 275.356 317.621C276.735 316.779 278.303 316.358 280.059 316.358C281.14 316.358 282.147 316.514 283.082 316.825C284.023 317.13 284.869 317.581 285.618 318.178C286.367 318.768 286.986 319.49 287.477 320.345C287.967 321.194 288.299 322.165 288.471 323.259ZM296.914 337.338C295.946 337.338 295.071 337.159 294.289 336.801C293.507 336.437 292.887 335.91 292.429 335.22C291.979 334.531 291.753 333.686 291.753 332.685C291.753 331.823 291.919 331.114 292.25 330.557C292.582 330 293.029 329.559 293.593 329.234C294.156 328.91 294.786 328.664 295.482 328.499C296.178 328.333 296.887 328.207 297.61 328.121C298.525 328.015 299.267 327.929 299.837 327.862C300.407 327.789 300.821 327.673 301.08 327.514C301.338 327.355 301.468 327.097 301.468 326.739V326.669C301.468 325.801 301.222 325.128 300.732 324.651C300.248 324.173 299.525 323.935 298.564 323.935C297.563 323.935 296.775 324.157 296.198 324.601C295.628 325.038 295.233 325.526 295.015 326.062L292.221 325.426C292.552 324.498 293.036 323.749 293.672 323.179C294.315 322.602 295.054 322.185 295.89 321.926C296.725 321.661 297.603 321.528 298.525 321.528C299.134 321.528 299.781 321.601 300.463 321.747C301.153 321.886 301.796 322.145 302.392 322.523C302.996 322.901 303.489 323.441 303.874 324.143C304.258 324.839 304.451 325.744 304.451 326.858V337H301.547V334.912H301.428C301.236 335.296 300.947 335.674 300.563 336.045C300.178 336.417 299.685 336.725 299.081 336.97C298.478 337.215 297.756 337.338 296.914 337.338ZM297.56 334.952C298.382 334.952 299.085 334.789 299.668 334.464C300.258 334.14 300.705 333.715 301.01 333.192C301.322 332.661 301.478 332.095 301.478 331.491V329.523C301.372 329.629 301.166 329.728 300.861 329.821C300.563 329.907 300.221 329.983 299.837 330.05C299.453 330.109 299.078 330.166 298.713 330.219C298.349 330.265 298.044 330.305 297.799 330.338C297.222 330.411 296.695 330.534 296.218 330.706C295.747 330.878 295.369 331.127 295.084 331.452C294.806 331.77 294.667 332.194 294.667 332.724C294.667 333.46 294.938 334.017 295.482 334.395C296.025 334.766 296.718 334.952 297.56 334.952ZM311.944 327.932V337H308.971V321.727H311.824V324.213H312.013C312.364 323.404 312.915 322.755 313.664 322.264C314.419 321.774 315.371 321.528 316.517 321.528C317.558 321.528 318.47 321.747 319.252 322.185C320.034 322.616 320.641 323.259 321.071 324.114C321.502 324.969 321.718 326.026 321.718 327.286V337H318.745V327.643C318.745 326.536 318.456 325.671 317.88 325.048C317.303 324.419 316.511 324.104 315.503 324.104C314.814 324.104 314.201 324.253 313.664 324.551C313.133 324.849 312.712 325.287 312.401 325.864C312.096 326.434 311.944 327.123 311.944 327.932ZM332.698 337.308C331.22 337.308 329.947 336.973 328.88 336.304C327.819 335.628 327.004 334.696 326.434 333.51C325.864 332.323 325.579 330.964 325.579 329.433C325.579 327.882 325.87 326.513 326.454 325.327C327.037 324.134 327.859 323.202 328.92 322.533C329.98 321.863 331.23 321.528 332.668 321.528C333.828 321.528 334.862 321.744 335.771 322.175C336.679 322.599 337.411 323.196 337.968 323.964C338.531 324.733 338.866 325.632 338.972 326.659H336.079C335.92 325.943 335.555 325.327 334.985 324.81C334.422 324.293 333.666 324.034 332.718 324.034C331.889 324.034 331.164 324.253 330.54 324.69C329.924 325.121 329.443 325.738 329.099 326.54C328.754 327.335 328.582 328.277 328.582 329.364C328.582 330.477 328.751 331.438 329.089 332.247C329.427 333.056 329.904 333.682 330.521 334.126C331.144 334.571 331.876 334.793 332.718 334.793C333.281 334.793 333.792 334.69 334.249 334.484C334.713 334.272 335.101 333.971 335.413 333.58C335.731 333.188 335.953 332.718 336.079 332.168H338.972C338.866 333.155 338.545 334.037 338.008 334.812C337.471 335.588 336.752 336.198 335.85 336.642C334.955 337.086 333.905 337.308 332.698 337.308ZM349.294 337.308C347.789 337.308 346.493 336.987 345.406 336.344C344.326 335.694 343.491 334.783 342.901 333.609C342.317 332.429 342.026 331.047 342.026 329.463C342.026 327.899 342.317 326.52 342.901 325.327C343.491 324.134 344.312 323.202 345.366 322.533C346.427 321.863 347.667 321.528 349.085 321.528C349.947 321.528 350.782 321.671 351.591 321.956C352.4 322.241 353.125 322.688 353.768 323.298C354.411 323.908 354.919 324.7 355.29 325.675C355.661 326.643 355.847 327.819 355.847 329.205V330.259H343.706V328.031H352.933C352.933 327.249 352.774 326.556 352.456 325.953C352.138 325.343 351.69 324.863 351.114 324.511C350.544 324.16 349.874 323.984 349.105 323.984C348.27 323.984 347.541 324.19 346.918 324.601C346.301 325.005 345.824 325.536 345.486 326.192C345.154 326.841 344.989 327.547 344.989 328.31V330.05C344.989 331.071 345.168 331.939 345.526 332.655C345.89 333.371 346.397 333.918 347.047 334.295C347.696 334.667 348.455 334.852 349.324 334.852C349.887 334.852 350.401 334.773 350.865 334.614C351.329 334.448 351.73 334.203 352.068 333.878C352.406 333.553 352.665 333.152 352.844 332.675L355.658 333.182C355.432 334.01 355.028 334.736 354.445 335.359C353.868 335.976 353.142 336.456 352.267 336.801C351.399 337.139 350.408 337.308 349.294 337.308ZM362.678 316.636V337H359.705V316.636H362.678Z" fill="#333333"/>
</g>
<g clip-path="url(#clip2_15283_31281)">
<mask id="path-10-inside-1_15283_31281" fill="white">
<path d="M429 302C429 293.163 436.163 286 445 286H545C553.837 286 561 293.163 561 302V350C561 358.837 553.837 366 545 366H445C436.163 366 429 358.837 429 350V302Z"/>
</mask>
<path d="M429 302C429 293.163 436.163 286 445 286H545C553.837 286 561 293.163 561 302V350C561 358.837 553.837 366 545 366H445C436.163 366 429 358.837 429 350V302Z" fill="black"/>
<path d="M474.91 321.986C474.804 321.045 474.366 320.315 473.597 319.798C472.829 319.275 471.861 319.013 470.694 319.013C469.859 319.013 469.136 319.145 468.526 319.411C467.917 319.669 467.443 320.027 467.105 320.484C466.773 320.935 466.607 321.449 466.607 322.026C466.607 322.509 466.72 322.927 466.946 323.278C467.178 323.63 467.479 323.925 467.85 324.163C468.228 324.395 468.633 324.591 469.063 324.75C469.494 324.902 469.909 325.028 470.306 325.128L472.295 325.645C472.945 325.804 473.611 326.019 474.294 326.291C474.976 326.563 475.609 326.921 476.193 327.365C476.776 327.809 477.247 328.359 477.605 329.016C477.969 329.672 478.151 330.457 478.151 331.372C478.151 332.526 477.853 333.55 477.257 334.445C476.667 335.339 475.808 336.045 474.681 336.562C473.561 337.08 472.205 337.338 470.615 337.338C469.09 337.338 467.771 337.096 466.657 336.612C465.544 336.128 464.672 335.442 464.042 334.554C463.412 333.659 463.064 332.598 462.998 331.372H466.08C466.14 332.108 466.379 332.721 466.796 333.212C467.221 333.696 467.761 334.057 468.417 334.295C469.08 334.527 469.806 334.643 470.595 334.643C471.463 334.643 472.235 334.508 472.911 334.236C473.594 333.957 474.131 333.573 474.522 333.082C474.913 332.585 475.109 332.005 475.109 331.342C475.109 330.739 474.937 330.245 474.592 329.861C474.254 329.476 473.793 329.158 473.21 328.906C472.633 328.654 471.98 328.432 471.251 328.24L468.845 327.584C467.214 327.14 465.921 326.487 464.967 325.625C464.019 324.763 463.545 323.623 463.545 322.205C463.545 321.031 463.863 320.007 464.499 319.132C465.136 318.257 465.998 317.578 467.085 317.094C468.172 316.603 469.398 316.358 470.764 316.358C472.142 316.358 473.359 316.6 474.413 317.084C475.473 317.568 476.309 318.234 476.919 319.082C477.528 319.924 477.847 320.892 477.873 321.986H474.91ZM486.589 337.338C485.621 337.338 484.746 337.159 483.964 336.801C483.182 336.437 482.562 335.91 482.105 335.22C481.654 334.531 481.428 333.686 481.428 332.685C481.428 331.823 481.594 331.114 481.926 330.557C482.257 330 482.704 329.559 483.268 329.234C483.831 328.91 484.461 328.664 485.157 328.499C485.853 328.333 486.562 328.207 487.285 328.121C488.2 328.015 488.942 327.929 489.512 327.862C490.082 327.789 490.497 327.673 490.755 327.514C491.014 327.355 491.143 327.097 491.143 326.739V326.669C491.143 325.801 490.898 325.128 490.407 324.651C489.923 324.173 489.201 323.935 488.24 323.935C487.239 323.935 486.45 324.157 485.873 324.601C485.303 325.038 484.909 325.526 484.69 326.062L481.896 325.426C482.227 324.498 482.711 323.749 483.347 323.179C483.99 322.602 484.73 322.185 485.565 321.926C486.4 321.661 487.278 321.528 488.2 321.528C488.81 321.528 489.456 321.601 490.139 321.747C490.828 321.886 491.471 322.145 492.068 322.523C492.671 322.901 493.165 323.441 493.549 324.143C493.934 324.839 494.126 325.744 494.126 326.858V337H491.222V334.912H491.103C490.911 335.296 490.623 335.674 490.238 336.045C489.854 336.417 489.36 336.725 488.757 336.97C488.153 337.215 487.431 337.338 486.589 337.338ZM487.235 334.952C488.057 334.952 488.76 334.789 489.343 334.464C489.933 334.14 490.381 333.715 490.686 333.192C490.997 332.661 491.153 332.095 491.153 331.491V329.523C491.047 329.629 490.841 329.728 490.536 329.821C490.238 329.907 489.897 329.983 489.512 330.05C489.128 330.109 488.753 330.166 488.389 330.219C488.024 330.265 487.719 330.305 487.474 330.338C486.897 330.411 486.37 330.534 485.893 330.706C485.422 330.878 485.044 331.127 484.759 331.452C484.481 331.77 484.342 332.194 484.342 332.724C484.342 333.46 484.614 334.017 485.157 334.395C485.701 334.766 486.393 334.952 487.235 334.952ZM511.164 321.727L505.626 337H502.444L496.896 321.727H500.088L503.955 333.48H504.115L507.972 321.727H511.164ZM520.581 337.308C519.076 337.308 517.78 336.987 516.693 336.344C515.613 335.694 514.778 334.783 514.188 333.609C513.604 332.429 513.313 331.047 513.313 329.463C513.313 327.899 513.604 326.52 514.188 325.327C514.778 324.134 515.6 323.202 516.654 322.533C517.714 321.863 518.954 321.528 520.372 321.528C521.234 321.528 522.069 321.671 522.878 321.956C523.687 322.241 524.413 322.688 525.056 323.298C525.699 323.908 526.206 324.7 526.577 325.675C526.948 326.643 527.134 327.819 527.134 329.205V330.259H514.993V328.031H524.22C524.22 327.249 524.061 326.556 523.743 325.953C523.425 325.343 522.977 324.863 522.401 324.511C521.831 324.16 521.161 323.984 520.392 323.984C519.557 323.984 518.828 324.19 518.205 324.601C517.588 325.005 517.111 325.536 516.773 326.192C516.441 326.841 516.276 327.547 516.276 328.31V330.05C516.276 331.071 516.455 331.939 516.813 332.655C517.177 333.371 517.684 333.918 518.334 334.295C518.984 334.667 519.743 334.852 520.611 334.852C521.174 334.852 521.688 334.773 522.152 334.614C522.616 334.448 523.017 334.203 523.355 333.878C523.693 333.553 523.952 333.152 524.131 332.675L526.945 333.182C526.719 334.01 526.315 334.736 525.732 335.359C525.155 335.976 524.429 336.456 523.554 336.801C522.686 337.139 521.695 337.308 520.581 337.308Z" fill="white"/>
</g>
<path d="M445 286V288H545V286V284H445V286ZM561 302H559V350H561H563V302H561ZM545 366V364H445V366V368H545V366ZM429 350H431V302H429H427V350H429ZM445 366V364C437.268 364 431 357.732 431 350H429H427C427 359.941 435.059 368 445 368V366ZM561 350H559C559 357.732 552.732 364 545 364V366V368C554.941 368 563 359.941 563 350H561ZM545 286V288C552.732 288 559 294.268 559 302H561H563C563 292.059 554.941 284 545 284V286ZM445 286V284C435.059 284 427 292.059 427 302H429H431C431 294.268 437.268 288 445 288V286Z" fill="black" mask="url(#path-10-inside-1_15283_31281)"/>
</g>
<defs>
<filter id="filter0_d_15283_31281" x="-151" y="-122" width="792" height="592" filterUnits="userSpaceOnUse" color-interpolation-filters="sRGB">
<feFlood flood-opacity="0" result="BackgroundImageFix"/>
<feColorMatrix in="SourceAlpha" type="matrix" values="0 0 0 0 0 0 0 0 0 0 0 0 0 0 0 0 0 0 127 0" result="hardAlpha"/>
<feOffset dy="4"/>
<feGaussianBlur stdDeviation="4"/>
<feComposite in2="hardAlpha" operator="out"/>
<feColorMatrix type="matrix" values="0 0 0 0 0.2 0 0 0 0 0.2 0 0 0 0 0.2 0 0 0 0.16 0"/>
<feBlend mode="normal" in2="BackgroundImageFix" result="effect1_dropShadow_15283_31281"/>
<feBlend mode="normal" in="SourceGraphic" in2="effect1_dropShadow_15283_31281" result="shape"/>
</filter>
<clipPath id="clip0_15283_31281">
<rect width="345" height="320" fill="white" transform="scale(2)"/>
</clipPath>
<clipPath id="clip1_15283_31281">
<path d="M237 302C237 293.163 244.163 286 253 286H381C389.837 286 397 293.163 397 302V350C397 358.837 389.837 366 381 366H253C244.163 366 237 358.837 237 350V302Z" fill="white"/>
</clipPath>
<clipPath id="clip2_15283_31281">
<path d="M429 302C429 293.163 436.163 286 445 286H545C553.837 286 561 293.163 561 302V350C561 358.837 553.837 366 545 366H445C436.163 366 429 358.837 429 350V302Z" fill="white"/>
</clipPath>
</defs>
</svg>
