<svg width="48" height="48" viewBox="0 0 48 48" fill="none" xmlns="http://www.w3.org/2000/svg">
<path fill-rule="evenodd" clip-rule="evenodd" d="M4.39844 24.0014C4.39844 13.1766 13.1737 4.40137 23.9984 4.40137C34.8232 4.40137 43.5984 13.1766 43.5984 24.0014C43.5984 34.8261 34.8232 43.6014 23.9984 43.6014C13.1737 43.6014 4.39844 34.8261 4.39844 24.0014ZM8.19538 19.6014C7.80636 21.0016 7.59844 22.4772 7.59844 24.0014C7.59844 25.5255 7.80636 27.0011 8.19538 28.4014H14.9743C14.4698 25.5369 14.4977 22.773 14.9 20.1802C14.9301 19.9862 14.9622 19.7932 14.9964 19.6014H8.19538ZM18.254 19.6014C18.1822 19.9537 18.1181 20.3103 18.0621 20.6708C17.6891 23.0755 17.6779 25.6757 18.2309 28.4014H29.6714C30.2245 25.6757 30.2133 23.0755 29.8402 20.6708C29.7843 20.3103 29.7201 19.9537 29.6484 19.6014H18.254ZM15.7556 31.6014H9.46194C11.5993 35.6811 15.4038 38.7499 19.9706 39.9031C17.9711 37.109 16.6084 34.3229 15.7556 31.6014ZM23.9512 39.8316C21.6481 37.0391 20.0997 34.2757 19.1321 31.6014H28.7702C27.8026 34.2757 26.2543 37.0391 23.9512 39.8316ZM19.1404 16.4014C20.351 12.9561 22.2039 10.0806 23.9512 8.08177C25.6985 10.0806 27.5514 12.9561 28.7619 16.4014H19.1404ZM19.85 8.13058C18.2587 10.3795 16.7586 13.1901 15.7719 16.4014H9.46194C11.5805 12.3576 15.3368 9.30699 19.85 8.13058ZM32.1468 31.6014C31.291 34.3322 29.9219 37.128 27.9112 39.9317C32.5292 38.8013 36.3797 35.7153 38.5349 31.6014H32.1468ZM33.0024 20.1802C33.4047 22.773 33.4326 25.5369 32.928 28.4014H39.8015C40.1905 27.0011 40.3984 25.5255 40.3984 24.0014C40.3984 22.4772 40.1905 21.0016 39.8015 19.6014H32.9059C32.9401 19.7932 32.9723 19.9862 33.0024 20.1802ZM38.5349 16.4014H32.1304C31.1394 13.176 29.6304 10.3548 28.0313 8.10091C32.5959 9.25507 36.3984 12.3231 38.5349 16.4014Z" fill="#333333"/>
</svg>
