<svg width="1512" height="1000" viewBox="0 0 1512 1000" fill="none" xmlns="http://www.w3.org/2000/svg">
<rect width="756" height="500" transform="scale(2)" fill="#F6F6F6"/>
<path d="M150 500C150 472.386 172.386 450 200 450H1314C1341.61 450 1364 472.386 1364 500C1364 527.614 1341.61 550 1314 550H200C172.386 550 150 527.614 150 500Z" fill="#E5E5E5"/>
<path d="M166 500C166 481.222 181.222 466 200 466H290C308.778 466 324 481.222 324 500C324 518.778 308.778 534 290 534H200C181.222 534 166 518.778 166 500Z" fill="black"/>
<path d="M228.791 495.818L223.833 510H219.401L214.443 495.818H218.598L221.543 505.965H221.691L224.627 495.818H228.791ZM242.604 499.862L239.003 500.084C238.941 499.776 238.809 499.499 238.606 499.253C238.403 499 238.135 498.8 237.803 498.653C237.476 498.499 237.085 498.422 236.63 498.422C236.021 498.422 235.507 498.551 235.088 498.81C234.67 499.062 234.46 499.401 234.46 499.825C234.46 500.164 234.596 500.45 234.866 500.684C235.137 500.918 235.602 501.106 236.261 501.247L238.827 501.764C240.206 502.047 241.234 502.503 241.911 503.131C242.588 503.759 242.927 504.583 242.927 505.605C242.927 506.535 242.653 507.35 242.105 508.052C241.563 508.754 240.819 509.301 239.871 509.695C238.929 510.083 237.843 510.277 236.612 510.277C234.734 510.277 233.238 509.886 232.124 509.104C231.016 508.317 230.367 507.246 230.176 505.891L234.045 505.688C234.162 506.261 234.445 506.698 234.894 506.999C235.344 507.295 235.919 507.442 236.621 507.442C237.31 507.442 237.864 507.31 238.283 507.045C238.707 506.775 238.923 506.427 238.929 506.002C238.923 505.645 238.772 505.353 238.477 505.125C238.181 504.891 237.726 504.713 237.11 504.589L234.654 504.1C233.269 503.823 232.238 503.343 231.561 502.66C230.89 501.977 230.555 501.106 230.555 500.047C230.555 499.136 230.801 498.351 231.293 497.692C231.792 497.034 232.491 496.526 233.389 496.169C234.294 495.812 235.353 495.634 236.565 495.634C238.357 495.634 239.766 496.012 240.794 496.769C241.828 497.526 242.431 498.557 242.604 499.862ZM250.629 510.231C249.552 510.231 248.577 509.954 247.703 509.4C246.835 508.84 246.145 508.018 245.634 506.935C245.13 505.845 244.877 504.509 244.877 502.928C244.877 501.303 245.139 499.951 245.662 498.874C246.185 497.791 246.881 496.982 247.749 496.446C248.623 495.904 249.58 495.634 250.62 495.634C251.414 495.634 252.076 495.769 252.605 496.04C253.141 496.304 253.572 496.637 253.898 497.037C254.23 497.431 254.483 497.819 254.655 498.2H254.775V491.091H258.699V510H254.821V507.729H254.655C254.47 508.123 254.209 508.513 253.87 508.901C253.538 509.283 253.104 509.6 252.568 509.852C252.039 510.105 251.393 510.231 250.629 510.231ZM251.876 507.101C252.51 507.101 253.045 506.929 253.482 506.584C253.926 506.233 254.264 505.744 254.498 505.116C254.738 504.488 254.858 503.752 254.858 502.909C254.858 502.066 254.741 501.333 254.507 500.712C254.273 500.09 253.935 499.61 253.492 499.271C253.048 498.933 252.51 498.763 251.876 498.763C251.23 498.763 250.685 498.939 250.242 499.29C249.798 499.641 249.463 500.127 249.235 500.749C249.008 501.37 248.894 502.09 248.894 502.909C248.894 503.734 249.008 504.463 249.235 505.097C249.469 505.725 249.805 506.218 250.242 506.575C250.685 506.925 251.23 507.101 251.876 507.101ZM273.733 499.862L270.132 500.084C270.07 499.776 269.938 499.499 269.735 499.253C269.532 499 269.264 498.8 268.931 498.653C268.605 498.499 268.214 498.422 267.759 498.422C267.15 498.422 266.636 498.551 266.217 498.81C265.798 499.062 265.589 499.401 265.589 499.825C265.589 500.164 265.725 500.45 265.995 500.684C266.266 500.918 266.731 501.106 267.39 501.247L269.956 501.764C271.335 502.047 272.363 502.503 273.04 503.131C273.717 503.759 274.056 504.583 274.056 505.605C274.056 506.535 273.782 507.35 273.234 508.052C272.692 508.754 271.948 509.301 271 509.695C270.058 510.083 268.971 510.277 267.74 510.277C265.863 510.277 264.367 509.886 263.253 509.104C262.145 508.317 261.496 507.246 261.305 505.891L265.174 505.688C265.291 506.261 265.574 506.698 266.023 506.999C266.472 507.295 267.048 507.442 267.75 507.442C268.439 507.442 268.993 507.31 269.412 507.045C269.836 506.775 270.052 506.427 270.058 506.002C270.052 505.645 269.901 505.353 269.605 505.125C269.31 504.891 268.855 504.713 268.239 504.589L265.783 504.1C264.398 503.823 263.367 503.343 262.69 502.66C262.019 501.977 261.684 501.106 261.684 500.047C261.684 499.136 261.93 498.351 262.422 497.692C262.921 497.034 263.619 496.526 264.518 496.169C265.423 495.812 266.482 495.634 267.694 495.634C269.485 495.634 270.895 496.012 271.923 496.769C272.957 497.526 273.56 498.557 273.733 499.862Z" fill="white"/>
<path d="M347.534 508.707V496.52H349.602V508.707H347.534ZM342.474 503.648V501.58H354.662V503.648H342.474Z" fill="#4D4D4D"/>
<path d="M374 500C374 481.222 389.222 466 408 466H494C512.778 466 528 481.222 528 500C528 518.778 512.778 534 494 534H408C389.222 534 374 518.778 374 500Z" fill="black"/>
<path d="M431.196 495.818V498.773H422.443V495.818H431.196ZM424.447 510V494.793C424.447 493.765 424.647 492.913 425.047 492.236C425.453 491.559 426.007 491.051 426.709 490.712C427.411 490.374 428.208 490.205 429.1 490.205C429.703 490.205 430.254 490.251 430.753 490.343C431.258 490.435 431.633 490.518 431.879 490.592L431.178 493.547C431.024 493.498 430.833 493.451 430.605 493.408C430.384 493.365 430.156 493.344 429.922 493.344C429.343 493.344 428.94 493.479 428.712 493.75C428.485 494.015 428.371 494.387 428.371 494.867V510H424.447ZM439.499 510.277C438.065 510.277 436.824 509.972 435.778 509.363C434.738 508.747 433.934 507.892 433.368 506.796C432.802 505.694 432.519 504.417 432.519 502.964C432.519 501.5 432.802 500.219 433.368 499.124C433.934 498.022 434.738 497.166 435.778 496.557C436.824 495.941 438.065 495.634 439.499 495.634C440.933 495.634 442.17 495.941 443.21 496.557C444.257 497.166 445.063 498.022 445.629 499.124C446.196 500.219 446.479 501.5 446.479 502.964C446.479 504.417 446.196 505.694 445.629 506.796C445.063 507.892 444.257 508.747 443.21 509.363C442.17 509.972 440.933 510.277 439.499 510.277ZM439.517 507.23C440.17 507.23 440.714 507.045 441.151 506.676C441.588 506.301 441.918 505.79 442.139 505.143C442.367 504.497 442.481 503.762 442.481 502.937C442.481 502.112 442.367 501.376 442.139 500.73C441.918 500.084 441.588 499.573 441.151 499.197C440.714 498.822 440.17 498.634 439.517 498.634C438.859 498.634 438.305 498.822 437.855 499.197C437.412 499.573 437.077 500.084 436.849 500.73C436.627 501.376 436.517 502.112 436.517 502.937C436.517 503.762 436.627 504.497 436.849 505.143C437.077 505.79 437.412 506.301 437.855 506.676C438.305 507.045 438.859 507.23 439.517 507.23ZM458.131 503.962V495.818H462.064V510H458.288V507.424H458.14C457.82 508.255 457.288 508.923 456.543 509.428C455.804 509.932 454.902 510.185 453.838 510.185C452.89 510.185 452.056 509.969 451.335 509.538C450.615 509.107 450.052 508.495 449.646 507.701C449.246 506.907 449.043 505.956 449.036 504.848V495.818H452.97V504.146C452.976 504.983 453.2 505.645 453.644 506.131C454.087 506.618 454.681 506.861 455.426 506.861C455.9 506.861 456.343 506.753 456.755 506.538C457.168 506.316 457.5 505.99 457.752 505.559C458.011 505.128 458.137 504.596 458.131 503.962ZM469.143 501.801V510H465.21V495.818H468.959V498.32H469.125C469.439 497.496 469.965 496.843 470.704 496.363C471.442 495.877 472.338 495.634 473.391 495.634C474.375 495.634 475.234 495.849 475.967 496.28C476.699 496.711 477.268 497.326 477.675 498.126C478.081 498.92 478.284 499.868 478.284 500.97V510H474.351V501.672C474.357 500.804 474.135 500.127 473.686 499.641C473.237 499.148 472.618 498.902 471.83 498.902C471.301 498.902 470.833 499.016 470.427 499.244C470.027 499.471 469.713 499.804 469.485 500.241C469.263 500.672 469.15 501.192 469.143 501.801Z" fill="white"/>
<path d="M551.534 508.707V496.52H553.602V508.707H551.534ZM546.474 503.648V501.58H558.662V503.648H546.474Z" fill="#4D4D4D"/>
<path d="M578 500C578 481.222 593.222 466 612 466H830C848.778 466 864 481.222 864 500C864 518.778 848.778 534 830 534H612C593.222 534 578 518.778 578 500Z" fill="#3C5AAA"/>
<path d="M631.06 491.091L635.63 505.457H635.805L640.385 491.091H644.817L638.298 510H633.146L626.619 491.091H631.06ZM647.019 510V495.818H650.952V510H647.019ZM648.995 493.99C648.41 493.99 647.908 493.796 647.49 493.408C647.077 493.014 646.871 492.544 646.871 491.996C646.871 491.454 647.077 490.989 647.49 490.602C647.908 490.208 648.41 490.011 648.995 490.011C649.579 490.011 650.078 490.208 650.49 490.602C650.909 490.989 651.118 491.454 651.118 491.996C651.118 492.544 650.909 493.014 650.49 493.408C650.078 493.796 649.579 493.99 648.995 493.99ZM665.903 499.862L662.302 500.084C662.24 499.776 662.108 499.499 661.905 499.253C661.702 499 661.434 498.8 661.101 498.653C660.775 498.499 660.384 498.422 659.929 498.422C659.319 498.422 658.805 498.551 658.387 498.81C657.968 499.062 657.759 499.401 657.759 499.825C657.759 500.164 657.894 500.45 658.165 500.684C658.436 500.918 658.901 501.106 659.559 501.247L662.126 501.764C663.505 502.047 664.533 502.503 665.21 503.131C665.887 503.759 666.226 504.583 666.226 505.605C666.226 506.535 665.952 507.35 665.404 508.052C664.862 508.754 664.117 509.301 663.17 509.695C662.228 510.083 661.141 510.277 659.91 510.277C658.033 510.277 656.537 509.886 655.423 509.104C654.315 508.317 653.666 507.246 653.475 505.891L657.344 505.688C657.461 506.261 657.744 506.698 658.193 506.999C658.642 507.295 659.218 507.442 659.92 507.442C660.609 507.442 661.163 507.31 661.581 507.045C662.006 506.775 662.222 506.427 662.228 506.002C662.222 505.645 662.071 505.353 661.775 505.125C661.48 504.891 661.024 504.713 660.409 504.589L657.953 504.1C656.568 503.823 655.537 503.343 654.86 502.66C654.189 501.977 653.854 501.106 653.854 500.047C653.854 499.136 654.1 498.351 654.592 497.692C655.091 497.034 655.789 496.526 656.688 496.169C657.593 495.812 658.652 495.634 659.864 495.634C661.655 495.634 663.065 496.012 664.093 496.769C665.127 497.526 665.73 498.557 665.903 499.862ZM677.797 503.962V495.818H681.73V510H677.954V507.424H677.806C677.486 508.255 676.954 508.923 676.209 509.428C675.47 509.932 674.568 510.185 673.504 510.185C672.556 510.185 671.722 509.969 671.001 509.538C670.281 509.107 669.718 508.495 669.312 507.701C668.912 506.907 668.709 505.956 668.702 504.848V495.818H672.636V504.146C672.642 504.983 672.866 505.645 673.31 506.131C673.753 506.618 674.347 506.861 675.092 506.861C675.566 506.861 676.009 506.753 676.421 506.538C676.834 506.316 677.166 505.99 677.418 505.559C677.677 505.128 677.803 504.596 677.797 503.962ZM688.92 510.268C688.015 510.268 687.209 510.111 686.501 509.797C685.793 509.477 685.233 509.006 684.821 508.384C684.415 507.756 684.211 506.975 684.211 506.039C684.211 505.251 684.356 504.589 684.645 504.054C684.935 503.518 685.329 503.088 685.827 502.761C686.326 502.435 686.892 502.189 687.526 502.023C688.166 501.857 688.837 501.74 689.539 501.672C690.364 501.586 691.028 501.506 691.533 501.432C692.038 501.352 692.404 501.235 692.632 501.081C692.86 500.927 692.974 500.699 692.974 500.398V500.342C692.974 499.758 692.789 499.305 692.42 498.985C692.056 498.665 691.539 498.505 690.868 498.505C690.161 498.505 689.597 498.662 689.179 498.976C688.76 499.284 688.483 499.671 688.348 500.139L684.71 499.844C684.895 498.982 685.258 498.237 685.8 497.609C686.341 496.975 687.04 496.489 687.895 496.151C688.757 495.806 689.754 495.634 690.887 495.634C691.675 495.634 692.429 495.726 693.149 495.911C693.875 496.095 694.519 496.381 695.079 496.769C695.645 497.157 696.091 497.656 696.417 498.265C696.744 498.868 696.907 499.591 696.907 500.435V510H693.177V508.033H693.066C692.838 508.477 692.533 508.867 692.152 509.206C691.77 509.538 691.312 509.8 690.776 509.991C690.241 510.175 689.622 510.268 688.92 510.268ZM690.047 507.553C690.625 507.553 691.136 507.439 691.579 507.212C692.023 506.978 692.37 506.664 692.623 506.27C692.875 505.876 693.001 505.43 693.001 504.931V503.426C692.878 503.506 692.709 503.58 692.493 503.648C692.284 503.709 692.047 503.768 691.782 503.823C691.518 503.872 691.253 503.919 690.988 503.962C690.724 503.999 690.484 504.032 690.268 504.063C689.807 504.131 689.403 504.239 689.059 504.386C688.714 504.534 688.446 504.734 688.256 504.987C688.065 505.233 687.969 505.54 687.969 505.91C687.969 506.445 688.163 506.855 688.551 507.138C688.945 507.415 689.443 507.553 690.047 507.553ZM703.892 491.091V510H699.958V491.091H703.892ZM719.523 510.277C718.064 510.277 716.808 509.982 715.756 509.391C714.709 508.794 713.903 507.95 713.337 506.861C712.771 505.765 712.487 504.469 712.487 502.974C712.487 501.515 712.771 500.235 713.337 499.133C713.903 498.031 714.7 497.172 715.728 496.557C716.762 495.941 717.975 495.634 719.366 495.634C720.302 495.634 721.173 495.784 721.979 496.086C722.791 496.381 723.499 496.828 724.102 497.425C724.712 498.022 725.186 498.773 725.524 499.678C725.863 500.576 726.032 501.629 726.032 502.835V503.915H714.057V501.478H722.33C722.33 500.912 722.207 500.41 721.96 499.973C721.714 499.536 721.373 499.194 720.936 498.948C720.505 498.696 720.003 498.57 719.431 498.57C718.834 498.57 718.304 498.708 717.843 498.985C717.387 499.256 717.03 499.622 716.771 500.084C716.513 500.539 716.381 501.047 716.374 501.607V503.925C716.374 504.626 716.504 505.233 716.762 505.744C717.027 506.254 717.399 506.648 717.879 506.925C718.36 507.202 718.929 507.341 719.588 507.341C720.025 507.341 720.425 507.279 720.788 507.156C721.151 507.033 721.462 506.848 721.72 506.602C721.979 506.356 722.176 506.054 722.311 505.697L725.949 505.938C725.764 506.812 725.386 507.575 724.813 508.227C724.247 508.874 723.515 509.378 722.616 509.741C721.723 510.098 720.692 510.277 719.523 510.277ZM732.532 491.091V510H728.599V491.091H732.532ZM742.146 510.277C740.687 510.277 739.431 509.982 738.379 509.391C737.333 508.794 736.526 507.95 735.96 506.861C735.394 505.765 735.11 504.469 735.11 502.974C735.11 501.515 735.394 500.235 735.96 499.133C736.526 498.031 737.323 497.172 738.351 496.557C739.385 495.941 740.598 495.634 741.989 495.634C742.925 495.634 743.796 495.784 744.602 496.086C745.414 496.381 746.122 496.828 746.725 497.425C747.335 498.022 747.809 498.773 748.147 499.678C748.486 500.576 748.655 501.629 748.655 502.835V503.915H736.68V501.478H744.953C744.953 500.912 744.83 500.41 744.583 499.973C744.337 499.536 743.996 499.194 743.559 498.948C743.128 498.696 742.626 498.57 742.054 498.57C741.457 498.57 740.927 498.708 740.466 498.985C740.01 499.256 739.653 499.622 739.395 500.084C739.136 500.539 739.004 501.047 738.998 501.607V503.925C738.998 504.626 739.127 505.233 739.385 505.744C739.65 506.254 740.022 506.648 740.502 506.925C740.983 507.202 741.552 507.341 742.211 507.341C742.648 507.341 743.048 507.279 743.411 507.156C743.774 507.033 744.085 506.848 744.343 506.602C744.602 506.356 744.799 506.054 744.934 505.697L748.572 505.938C748.387 506.812 748.009 507.575 747.436 508.227C746.87 508.874 746.138 509.378 745.239 509.741C744.346 510.098 743.315 510.277 742.146 510.277ZM751.222 510V495.818H754.971V498.32H755.137C755.432 497.489 755.925 496.834 756.614 496.354C757.303 495.874 758.128 495.634 759.088 495.634C760.061 495.634 760.889 495.877 761.572 496.363C762.255 496.843 762.711 497.496 762.939 498.32H763.086C763.376 497.508 763.899 496.858 764.656 496.372C765.419 495.88 766.321 495.634 767.361 495.634C768.685 495.634 769.759 496.055 770.583 496.898C771.414 497.736 771.83 498.924 771.83 500.462V510H767.906V501.238C767.906 500.45 767.697 499.859 767.278 499.465C766.859 499.071 766.336 498.874 765.708 498.874C764.994 498.874 764.437 499.102 764.037 499.558C763.637 500.007 763.437 500.601 763.437 501.339V510H759.624V501.155C759.624 500.459 759.424 499.905 759.024 499.493C758.63 499.08 758.11 498.874 757.463 498.874C757.026 498.874 756.632 498.985 756.282 499.207C755.937 499.422 755.663 499.727 755.46 500.121C755.257 500.509 755.155 500.964 755.155 501.487V510H751.222ZM781.4 510.277C779.941 510.277 778.685 509.982 777.633 509.391C776.586 508.794 775.78 507.95 775.214 506.861C774.647 505.765 774.364 504.469 774.364 502.974C774.364 501.515 774.647 500.235 775.214 499.133C775.78 498.031 776.577 497.172 777.605 496.557C778.639 495.941 779.852 495.634 781.243 495.634C782.179 495.634 783.049 495.784 783.856 496.086C784.668 496.381 785.376 496.828 785.979 497.425C786.589 498.022 787.063 498.773 787.401 499.678C787.74 500.576 787.909 501.629 787.909 502.835V503.915H775.934V501.478H784.207C784.207 500.912 784.084 500.41 783.837 499.973C783.591 499.536 783.25 499.194 782.812 498.948C782.382 498.696 781.88 498.57 781.308 498.57C780.71 498.57 780.181 498.708 779.719 498.985C779.264 499.256 778.907 499.622 778.648 500.084C778.39 500.539 778.258 501.047 778.251 501.607V503.925C778.251 504.626 778.381 505.233 778.639 505.744C778.904 506.254 779.276 506.648 779.756 506.925C780.237 507.202 780.806 507.341 781.464 507.341C781.902 507.341 782.302 507.279 782.665 507.156C783.028 507.033 783.339 506.848 783.597 506.602C783.856 506.356 784.053 506.054 784.188 505.697L787.826 505.938C787.641 506.812 787.263 507.575 786.69 508.227C786.124 508.874 785.392 509.378 784.493 509.741C783.6 510.098 782.569 510.277 781.4 510.277ZM794.409 501.801V510H790.476V495.818H794.224V498.32H794.391C794.705 497.496 795.231 496.843 795.969 496.363C796.708 495.877 797.604 495.634 798.656 495.634C799.641 495.634 800.5 495.849 801.232 496.28C801.965 496.711 802.534 497.326 802.94 498.126C803.347 498.92 803.55 499.868 803.55 500.97V510H799.616V501.672C799.623 500.804 799.401 500.127 798.952 499.641C798.502 499.148 797.884 498.902 797.096 498.902C796.567 498.902 796.099 499.016 795.692 499.244C795.292 499.471 794.978 499.804 794.751 500.241C794.529 500.672 794.415 501.192 794.409 501.801ZM814.193 495.818V498.773H805.653V495.818H814.193ZM807.591 492.42H811.525V505.642C811.525 506.005 811.58 506.288 811.691 506.491C811.802 506.688 811.956 506.827 812.153 506.907C812.356 506.987 812.59 507.027 812.854 507.027C813.039 507.027 813.224 507.012 813.408 506.981C813.593 506.944 813.734 506.916 813.833 506.898L814.452 509.825C814.255 509.886 813.978 509.957 813.621 510.037C813.264 510.123 812.83 510.175 812.319 510.194C811.371 510.231 810.54 510.105 809.826 509.815C809.118 509.526 808.567 509.077 808.173 508.467C807.779 507.858 807.585 507.089 807.591 506.159V492.42Z" fill="white"/>
<path d="M887.534 508.707V496.52H889.602V508.707H887.534ZM882.474 503.648V501.58H894.662V503.648H882.474Z" fill="#4D4D4D"/>
<path d="M914 500C914 481.222 929.222 466 948 466H1096C1114.78 466 1130 481.222 1130 500C1130 518.778 1114.78 534 1096 534H948C929.222 534 914 518.778 914 500Z" fill="#3C5AAA"/>
<path d="M980.327 497.711H976.283C976.21 497.188 976.059 496.723 975.831 496.317C975.603 495.904 975.311 495.554 974.954 495.264C974.597 494.975 974.184 494.753 973.717 494.599C973.255 494.446 972.753 494.369 972.212 494.369C971.233 494.369 970.38 494.612 969.654 495.098C968.928 495.578 968.365 496.28 967.964 497.203C967.564 498.12 967.364 499.234 967.364 500.545C967.364 501.893 967.564 503.026 967.964 503.943C968.371 504.86 968.937 505.553 969.663 506.021C970.39 506.488 971.23 506.722 972.184 506.722C972.719 506.722 973.215 506.652 973.67 506.51C974.132 506.368 974.541 506.162 974.898 505.891C975.255 505.614 975.551 505.279 975.785 504.885C976.025 504.491 976.191 504.042 976.283 503.537L980.327 503.555C980.223 504.423 979.961 505.26 979.543 506.067C979.13 506.867 978.573 507.584 977.871 508.218C977.176 508.846 976.345 509.344 975.379 509.714C974.418 510.077 973.332 510.259 972.119 510.259C970.433 510.259 968.925 509.877 967.595 509.114C966.272 508.35 965.225 507.246 964.456 505.799C963.693 504.353 963.311 502.601 963.311 500.545C963.311 498.483 963.699 496.729 964.474 495.283C965.25 493.836 966.303 492.734 967.632 491.977C968.962 491.214 970.457 490.832 972.119 490.832C973.215 490.832 974.231 490.986 975.166 491.294C976.108 491.602 976.942 492.051 977.668 492.642C978.395 493.227 978.986 493.944 979.441 494.793C979.903 495.643 980.198 496.615 980.327 497.711ZM987.164 510.268C986.26 510.268 985.453 510.111 984.745 509.797C984.038 509.477 983.477 509.006 983.065 508.384C982.659 507.756 982.456 506.975 982.456 506.039C982.456 505.251 982.6 504.589 982.89 504.054C983.179 503.518 983.573 503.088 984.071 502.761C984.57 502.435 985.136 502.189 985.77 502.023C986.41 501.857 987.081 501.74 987.783 501.672C988.608 501.586 989.273 501.506 989.777 501.432C990.282 501.352 990.648 501.235 990.876 501.081C991.104 500.927 991.218 500.699 991.218 500.398V500.342C991.218 499.758 991.033 499.305 990.664 498.985C990.301 498.665 989.783 498.505 989.113 498.505C988.405 498.505 987.842 498.662 987.423 498.976C987.004 499.284 986.727 499.671 986.592 500.139L982.954 499.844C983.139 498.982 983.502 498.237 984.044 497.609C984.585 496.975 985.284 496.489 986.14 496.151C987.001 495.806 987.998 495.634 989.131 495.634C989.919 495.634 990.673 495.726 991.393 495.911C992.119 496.095 992.763 496.381 993.323 496.769C993.889 497.157 994.335 497.656 994.662 498.265C994.988 498.868 995.151 499.591 995.151 500.435V510H991.421V508.033H991.31C991.082 508.477 990.778 508.867 990.396 509.206C990.014 509.538 989.556 509.8 989.02 509.991C988.485 510.175 987.866 510.268 987.164 510.268ZM988.291 507.553C988.869 507.553 989.38 507.439 989.824 507.212C990.267 506.978 990.614 506.664 990.867 506.27C991.119 505.876 991.245 505.43 991.245 504.931V503.426C991.122 503.506 990.953 503.58 990.738 503.648C990.528 503.709 990.291 503.768 990.027 503.823C989.762 503.872 989.497 503.919 989.233 503.962C988.968 503.999 988.728 504.032 988.512 504.063C988.051 504.131 987.648 504.239 987.303 504.386C986.958 504.534 986.69 504.734 986.5 504.987C986.309 505.233 986.213 505.54 986.213 505.91C986.213 506.445 986.407 506.855 986.795 507.138C987.189 507.415 987.688 507.553 988.291 507.553ZM1005.75 495.818V498.773H997.205V495.818H1005.75ZM999.144 492.42H1003.08V505.642C1003.08 506.005 1003.13 506.288 1003.24 506.491C1003.35 506.688 1003.51 506.827 1003.71 506.907C1003.91 506.987 1004.14 507.027 1004.41 507.027C1004.59 507.027 1004.78 507.012 1004.96 506.981C1005.15 506.944 1005.29 506.916 1005.39 506.898L1006 509.825C1005.81 509.886 1005.53 509.957 1005.17 510.037C1004.82 510.123 1004.38 510.175 1003.87 510.194C1002.92 510.231 1002.09 510.105 1001.38 509.815C1000.67 509.526 1000.12 509.077 999.726 508.467C999.332 507.858 999.138 507.089 999.144 506.159V492.42ZM1014.62 510.277C1013.16 510.277 1011.9 509.982 1010.85 509.391C1009.81 508.794 1009 507.95 1008.43 506.861C1007.87 505.765 1007.58 504.469 1007.58 502.974C1007.58 501.515 1007.87 500.235 1008.43 499.133C1009 498.031 1009.8 497.172 1010.82 496.557C1011.86 495.941 1013.07 495.634 1014.46 495.634C1015.4 495.634 1016.27 495.784 1017.07 496.086C1017.89 496.381 1018.59 496.828 1019.2 497.425C1019.81 498.022 1020.28 498.773 1020.62 499.678C1020.96 500.576 1021.13 501.629 1021.13 502.835V503.915H1009.15V501.478H1017.43C1017.43 500.912 1017.3 500.41 1017.06 499.973C1016.81 499.536 1016.47 499.194 1016.03 498.948C1015.6 498.696 1015.1 498.57 1014.53 498.57C1013.93 498.57 1013.4 498.708 1012.94 498.985C1012.48 499.256 1012.13 499.622 1011.87 500.084C1011.61 500.539 1011.48 501.047 1011.47 501.607V503.925C1011.47 504.626 1011.6 505.233 1011.86 505.744C1012.12 506.254 1012.5 506.648 1012.98 506.925C1013.46 507.202 1014.02 507.341 1014.68 507.341C1015.12 507.341 1015.52 507.279 1015.88 507.156C1016.25 507.033 1016.56 506.848 1016.82 506.602C1017.07 506.356 1017.27 506.054 1017.41 505.697L1021.04 505.938C1020.86 506.812 1020.48 507.575 1019.91 508.227C1019.34 508.874 1018.61 509.378 1017.71 509.741C1016.82 510.098 1015.79 510.277 1014.62 510.277ZM1030.08 515.614C1028.81 515.614 1027.72 515.438 1026.81 515.087C1025.9 514.743 1025.18 514.272 1024.65 513.675C1024.11 513.078 1023.76 512.407 1023.6 511.662L1027.24 511.173C1027.35 511.456 1027.53 511.72 1027.77 511.967C1028.01 512.213 1028.32 512.41 1028.72 512.558C1029.12 512.711 1029.6 512.788 1030.18 512.788C1031.03 512.788 1031.74 512.579 1032.29 512.161C1032.85 511.748 1033.13 511.056 1033.13 510.083V507.489H1032.96C1032.79 507.883 1032.53 508.255 1032.19 508.606C1031.84 508.957 1031.4 509.243 1030.86 509.464C1030.32 509.686 1029.67 509.797 1028.92 509.797C1027.86 509.797 1026.89 509.551 1026.01 509.058C1025.14 508.56 1024.45 507.799 1023.93 506.778C1023.42 505.75 1023.17 504.451 1023.17 502.881C1023.17 501.275 1023.43 499.933 1023.95 498.856C1024.48 497.779 1025.17 496.972 1026.04 496.437C1026.91 495.901 1027.87 495.634 1028.91 495.634C1029.71 495.634 1030.37 495.769 1030.91 496.04C1031.44 496.304 1031.87 496.637 1032.2 497.037C1032.53 497.431 1032.79 497.819 1032.96 498.2H1033.11V495.818H1037.02V510.138C1037.02 511.345 1036.72 512.354 1036.13 513.167C1035.54 513.979 1034.72 514.589 1033.68 514.995C1032.64 515.407 1031.44 515.614 1030.08 515.614ZM1030.17 506.842C1030.8 506.842 1031.34 506.685 1031.77 506.371C1032.22 506.051 1032.56 505.596 1032.79 505.005C1033.03 504.408 1033.15 503.694 1033.15 502.863C1033.15 502.032 1033.03 501.312 1032.8 500.702C1032.56 500.087 1032.23 499.61 1031.78 499.271C1031.34 498.933 1030.8 498.763 1030.17 498.763C1029.52 498.763 1028.98 498.939 1028.53 499.29C1028.09 499.634 1027.75 500.115 1027.53 500.73C1027.3 501.346 1027.18 502.057 1027.18 502.863C1027.18 503.682 1027.3 504.389 1027.53 504.987C1027.76 505.577 1028.1 506.036 1028.53 506.362C1028.98 506.682 1029.52 506.842 1030.17 506.842ZM1046.56 510.277C1045.12 510.277 1043.88 509.972 1042.83 509.363C1041.79 508.747 1040.99 507.892 1040.42 506.796C1039.86 505.694 1039.58 504.417 1039.58 502.964C1039.58 501.5 1039.86 500.219 1040.42 499.124C1040.99 498.022 1041.79 497.166 1042.83 496.557C1043.88 495.941 1045.12 495.634 1046.56 495.634C1047.99 495.634 1049.23 495.941 1050.27 496.557C1051.31 497.166 1052.12 498.022 1052.69 499.124C1053.25 500.219 1053.54 501.5 1053.54 502.964C1053.54 504.417 1053.25 505.694 1052.69 506.796C1052.12 507.892 1051.31 508.747 1050.27 509.363C1049.23 509.972 1047.99 510.277 1046.56 510.277ZM1046.57 507.23C1047.23 507.23 1047.77 507.045 1048.21 506.676C1048.65 506.301 1048.97 505.79 1049.2 505.143C1049.42 504.497 1049.54 503.762 1049.54 502.937C1049.54 502.112 1049.42 501.376 1049.2 500.73C1048.97 500.084 1048.65 499.573 1048.21 499.197C1047.77 498.822 1047.23 498.634 1046.57 498.634C1045.92 498.634 1045.36 498.822 1044.91 499.197C1044.47 499.573 1044.13 500.084 1043.91 500.73C1043.68 501.376 1043.57 502.112 1043.57 502.937C1043.57 503.762 1043.68 504.497 1043.91 505.143C1044.13 505.79 1044.47 506.301 1044.91 506.676C1045.36 507.045 1045.92 507.23 1046.57 507.23ZM1056.09 510V495.818H1059.91V498.293H1060.05C1060.31 497.412 1060.75 496.748 1061.36 496.298C1061.97 495.843 1062.67 495.615 1063.46 495.615C1063.66 495.615 1063.87 495.627 1064.1 495.652C1064.33 495.677 1064.53 495.71 1064.7 495.754V499.244C1064.51 499.188 1064.26 499.139 1063.93 499.096C1063.61 499.053 1063.31 499.031 1063.04 499.031C1062.46 499.031 1061.94 499.157 1061.49 499.41C1061.04 499.656 1060.68 500.001 1060.41 500.444C1060.16 500.887 1060.03 501.398 1060.03 501.977V510H1056.09ZM1069.59 515.318C1069.09 515.318 1068.63 515.278 1068.19 515.198C1067.76 515.124 1067.4 515.029 1067.12 514.912L1068 511.976C1068.47 512.117 1068.88 512.194 1069.25 512.207C1069.63 512.219 1069.95 512.133 1070.22 511.948C1070.5 511.763 1070.72 511.45 1070.89 511.006L1071.12 510.406L1066.04 495.818H1070.17L1073.11 506.233H1073.26L1076.22 495.818H1080.38L1074.87 511.533C1074.61 512.296 1074.25 512.961 1073.79 513.527C1073.34 514.099 1072.77 514.54 1072.08 514.847C1071.4 515.161 1070.56 515.318 1069.59 515.318Z" fill="white"/>
<path d="M1153.53 508.707V496.52H1155.6V508.707H1153.53ZM1148.47 503.648V501.58H1160.66V503.648H1148.47Z" fill="#4D4D4D"/>
<path d="M1180 500C1180 481.222 1195.22 466 1214 466H1314C1332.78 466 1348 481.222 1348 500C1348 518.778 1332.78 534 1314 534H1214C1195.22 534 1180 518.778 1180 500Z" fill="#3C5AAA"/>
<path d="M1233.06 491.091L1237.63 505.457H1237.81L1242.38 491.091H1246.82L1240.3 510H1235.15L1228.62 491.091H1233.06ZM1251.49 510.268C1250.58 510.268 1249.78 510.111 1249.07 509.797C1248.36 509.477 1247.8 509.006 1247.39 508.384C1246.98 507.756 1246.78 506.975 1246.78 506.039C1246.78 505.251 1246.92 504.589 1247.21 504.054C1247.5 503.518 1247.9 503.088 1248.4 502.761C1248.89 502.435 1249.46 502.189 1250.09 502.023C1250.73 501.857 1251.41 501.74 1252.11 501.672C1252.93 501.586 1253.6 501.506 1254.1 501.432C1254.61 501.352 1254.97 501.235 1255.2 501.081C1255.43 500.927 1255.54 500.699 1255.54 500.398V500.342C1255.54 499.758 1255.36 499.305 1254.99 498.985C1254.62 498.665 1254.11 498.505 1253.44 498.505C1252.73 498.505 1252.17 498.662 1251.75 498.976C1251.33 499.284 1251.05 499.671 1250.92 500.139L1247.28 499.844C1247.46 498.982 1247.83 498.237 1248.37 497.609C1248.91 496.975 1249.61 496.489 1250.46 496.151C1251.33 495.806 1252.32 495.634 1253.46 495.634C1254.24 495.634 1255 495.726 1255.72 495.911C1256.44 496.095 1257.09 496.381 1257.65 496.769C1258.21 497.157 1258.66 497.656 1258.99 498.265C1259.31 498.868 1259.48 499.591 1259.48 500.435V510H1255.75V508.033H1255.63C1255.41 508.477 1255.1 508.867 1254.72 509.206C1254.34 509.538 1253.88 509.8 1253.34 509.991C1252.81 510.175 1252.19 510.268 1251.49 510.268ZM1252.62 507.553C1253.19 507.553 1253.7 507.439 1254.15 507.212C1254.59 506.978 1254.94 506.664 1255.19 506.27C1255.44 505.876 1255.57 505.43 1255.57 504.931V503.426C1255.45 503.506 1255.28 503.58 1255.06 503.648C1254.85 503.709 1254.62 503.768 1254.35 503.823C1254.09 503.872 1253.82 503.919 1253.56 503.962C1253.29 503.999 1253.05 504.032 1252.84 504.063C1252.38 504.131 1251.97 504.239 1251.63 504.386C1251.28 504.534 1251.01 504.734 1250.82 504.987C1250.63 505.233 1250.54 505.54 1250.54 505.91C1250.54 506.445 1250.73 506.855 1251.12 507.138C1251.51 507.415 1252.01 507.553 1252.62 507.553ZM1266.46 491.091V510H1262.53V491.091H1266.46ZM1278.71 503.962V495.818H1282.64V510H1278.86V507.424H1278.71C1278.39 508.255 1277.86 508.923 1277.12 509.428C1276.38 509.932 1275.48 510.185 1274.41 510.185C1273.46 510.185 1272.63 509.969 1271.91 509.538C1271.19 509.107 1270.63 508.495 1270.22 507.701C1269.82 506.907 1269.62 505.956 1269.61 504.848V495.818H1273.54V504.146C1273.55 504.983 1273.77 505.645 1274.22 506.131C1274.66 506.618 1275.26 506.861 1276 506.861C1276.47 506.861 1276.92 506.753 1277.33 506.538C1277.74 506.316 1278.07 505.99 1278.33 505.559C1278.59 505.128 1278.71 504.596 1278.71 503.962ZM1292.25 510.277C1290.79 510.277 1289.53 509.982 1288.48 509.391C1287.43 508.794 1286.63 507.95 1286.06 506.861C1285.5 505.765 1285.21 504.469 1285.21 502.974C1285.21 501.515 1285.5 500.235 1286.06 499.133C1286.63 498.031 1287.42 497.172 1288.45 496.557C1289.49 495.941 1290.7 495.634 1292.09 495.634C1293.03 495.634 1293.9 495.784 1294.7 496.086C1295.52 496.381 1296.22 496.828 1296.83 497.425C1297.44 498.022 1297.91 498.773 1298.25 499.678C1298.59 500.576 1298.76 501.629 1298.76 502.835V503.915H1286.78V501.478H1295.05C1295.05 500.912 1294.93 500.41 1294.69 499.973C1294.44 499.536 1294.1 499.194 1293.66 498.948C1293.23 498.696 1292.73 498.57 1292.16 498.57C1291.56 498.57 1291.03 498.708 1290.57 498.985C1290.11 499.256 1289.75 499.622 1289.5 500.084C1289.24 500.539 1289.11 501.047 1289.1 501.607V503.925C1289.1 504.626 1289.23 505.233 1289.49 505.744C1289.75 506.254 1290.12 506.648 1290.6 506.925C1291.08 507.202 1291.65 507.341 1292.31 507.341C1292.75 507.341 1293.15 507.279 1293.51 507.156C1293.88 507.033 1294.19 506.848 1294.44 506.602C1294.7 506.356 1294.9 506.054 1295.04 505.697L1298.67 505.938C1298.49 506.812 1298.11 507.575 1297.54 508.227C1296.97 508.874 1296.24 509.378 1295.34 509.741C1294.45 510.098 1293.42 510.277 1292.25 510.277Z" fill="white"/>
<path d="M251.8 610V592.545H258.022C259.38 592.545 260.505 592.793 261.397 593.287C262.289 593.781 262.957 594.457 263.4 595.315C263.843 596.168 264.065 597.128 264.065 598.196C264.065 599.27 263.84 600.236 263.391 601.094C262.948 601.946 262.278 602.622 261.38 603.122C260.488 603.616 259.366 603.864 258.013 603.864H253.735V601.631H257.775C258.633 601.631 259.329 601.483 259.863 601.188C260.397 600.886 260.789 600.477 261.039 599.96C261.289 599.443 261.414 598.855 261.414 598.196C261.414 597.537 261.289 596.952 261.039 596.44C260.789 595.929 260.394 595.528 259.854 595.239C259.32 594.949 258.616 594.804 257.741 594.804H254.434V610H251.8ZM266.947 610V596.909H269.411V598.989H269.547C269.786 598.284 270.206 597.73 270.808 597.327C271.416 596.918 272.104 596.713 272.871 596.713C273.03 596.713 273.217 596.719 273.433 596.73C273.655 596.741 273.828 596.756 273.953 596.773V599.21C273.851 599.182 273.669 599.151 273.408 599.116C273.146 599.077 272.885 599.057 272.624 599.057C272.021 599.057 271.484 599.185 271.013 599.44C270.547 599.69 270.178 600.04 269.905 600.489C269.632 600.932 269.496 601.437 269.496 602.006V610H266.947ZM281.332 610.264C280.042 610.264 278.931 609.989 277.999 609.438C277.073 608.881 276.357 608.099 275.852 607.094C275.352 606.082 275.102 604.898 275.102 603.54C275.102 602.199 275.352 601.017 275.852 599.994C276.357 598.972 277.062 598.173 277.965 597.599C278.874 597.026 279.937 596.739 281.153 596.739C281.891 596.739 282.607 596.861 283.3 597.105C283.994 597.349 284.616 597.733 285.167 598.256C285.718 598.778 286.153 599.457 286.471 600.293C286.789 601.122 286.948 602.131 286.948 603.318V604.222H276.542V602.312H284.451C284.451 601.642 284.315 601.048 284.042 600.531C283.769 600.009 283.386 599.597 282.891 599.295C282.403 598.994 281.829 598.844 281.17 598.844C280.454 598.844 279.829 599.02 279.295 599.372C278.766 599.719 278.357 600.173 278.067 600.736C277.783 601.293 277.641 601.898 277.641 602.551V604.043C277.641 604.918 277.795 605.662 278.102 606.276C278.414 606.889 278.849 607.358 279.406 607.682C279.962 608 280.613 608.159 281.357 608.159C281.84 608.159 282.281 608.091 282.678 607.955C283.076 607.812 283.42 607.602 283.71 607.324C283.999 607.045 284.221 606.702 284.374 606.293L286.786 606.727C286.593 607.437 286.246 608.06 285.746 608.594C285.252 609.122 284.63 609.534 283.88 609.83C283.136 610.119 282.286 610.264 281.332 610.264ZM296.006 596.909V598.955H288.608V596.909H296.006ZM290.636 610V595.392C290.636 594.574 290.815 593.895 291.173 593.355C291.531 592.81 292.006 592.403 292.597 592.136C293.188 591.864 293.83 591.727 294.523 591.727C295.034 591.727 295.472 591.77 295.835 591.855C296.199 591.935 296.469 592.009 296.645 592.077L296.048 594.139C295.929 594.105 295.776 594.065 295.588 594.02C295.401 593.969 295.173 593.943 294.906 593.943C294.287 593.943 293.844 594.097 293.577 594.403C293.315 594.71 293.185 595.153 293.185 595.733V610H290.636ZM298.635 610V596.909H301.183V610H298.635ZM299.922 594.889C299.479 594.889 299.098 594.741 298.78 594.446C298.467 594.145 298.311 593.787 298.311 593.372C298.311 592.952 298.467 592.594 298.78 592.298C299.098 591.997 299.479 591.847 299.922 591.847C300.365 591.847 300.743 591.997 301.055 592.298C301.374 592.594 301.533 592.952 301.533 593.372C301.533 593.787 301.374 594.145 301.055 594.446C300.743 594.741 300.365 594.889 299.922 594.889ZM306.623 596.909L309.512 602.006L312.427 596.909H315.214L311.131 603.455L315.248 610H312.461L309.512 605.108L306.572 610H303.776L307.85 603.455L303.827 596.909H306.623Z" fill="#333333"/>
<path d="M697.364 610.264C696.097 610.264 695.006 609.977 694.091 609.403C693.182 608.824 692.483 608.026 691.995 607.009C691.506 605.991 691.262 604.827 691.262 603.514C691.262 602.185 691.512 601.011 692.012 599.994C692.512 598.972 693.216 598.173 694.125 597.599C695.034 597.026 696.105 596.739 697.338 596.739C698.333 596.739 699.219 596.923 699.998 597.293C700.776 597.656 701.404 598.168 701.881 598.827C702.364 599.486 702.651 600.256 702.742 601.136H700.262C700.125 600.523 699.813 599.994 699.324 599.551C698.841 599.108 698.194 598.886 697.381 598.886C696.671 598.886 696.049 599.074 695.515 599.449C694.986 599.818 694.574 600.347 694.279 601.034C693.983 601.716 693.836 602.523 693.836 603.455C693.836 604.409 693.98 605.233 694.27 605.926C694.56 606.619 694.969 607.156 695.498 607.537C696.032 607.918 696.659 608.108 697.381 608.108C697.864 608.108 698.301 608.02 698.694 607.844C699.091 607.662 699.424 607.403 699.691 607.068C699.963 606.733 700.154 606.33 700.262 605.858H702.742C702.651 606.705 702.375 607.46 701.915 608.125C701.455 608.79 700.838 609.312 700.066 609.693C699.299 610.074 698.398 610.264 697.364 610.264ZM710.981 610.264C709.754 610.264 708.683 609.983 707.768 609.42C706.853 608.858 706.143 608.071 705.637 607.06C705.132 606.048 704.879 604.866 704.879 603.514C704.879 602.156 705.132 600.969 705.637 599.952C706.143 598.935 706.853 598.145 707.768 597.582C708.683 597.02 709.754 596.739 710.981 596.739C712.208 596.739 713.279 597.02 714.194 597.582C715.109 598.145 715.819 598.935 716.325 599.952C716.831 600.969 717.083 602.156 717.083 603.514C717.083 604.866 716.831 606.048 716.325 607.06C715.819 608.071 715.109 608.858 714.194 609.42C713.279 609.983 712.208 610.264 710.981 610.264ZM710.99 608.125C711.785 608.125 712.444 607.915 712.967 607.494C713.49 607.074 713.876 606.514 714.126 605.815C714.382 605.116 714.51 604.347 714.51 603.506C714.51 602.67 714.382 601.903 714.126 601.205C713.876 600.5 713.49 599.935 712.967 599.509C712.444 599.082 711.785 598.869 710.99 598.869C710.189 598.869 709.524 599.082 708.995 599.509C708.473 599.935 708.083 600.5 707.828 601.205C707.578 601.903 707.453 602.67 707.453 603.506C707.453 604.347 707.578 605.116 707.828 605.815C708.083 606.514 708.473 607.074 708.995 607.494C709.524 607.915 710.189 608.125 710.99 608.125ZM722.476 592.545V610H719.928V592.545H722.476ZM731.419 610.264C730.191 610.264 729.12 609.983 728.206 609.42C727.291 608.858 726.581 608.071 726.075 607.06C725.569 606.048 725.316 604.866 725.316 603.514C725.316 602.156 725.569 600.969 726.075 599.952C726.581 598.935 727.291 598.145 728.206 597.582C729.12 597.02 730.191 596.739 731.419 596.739C732.646 596.739 733.717 597.02 734.632 597.582C735.547 598.145 736.257 598.935 736.762 599.952C737.268 600.969 737.521 602.156 737.521 603.514C737.521 604.866 737.268 606.048 736.762 607.06C736.257 608.071 735.547 608.858 734.632 609.42C733.717 609.983 732.646 610.264 731.419 610.264ZM731.427 608.125C732.223 608.125 732.882 607.915 733.404 607.494C733.927 607.074 734.314 606.514 734.564 605.815C734.819 605.116 734.947 604.347 734.947 603.506C734.947 602.67 734.819 601.903 734.564 601.205C734.314 600.5 733.927 599.935 733.404 599.509C732.882 599.082 732.223 598.869 731.427 598.869C730.626 598.869 729.961 599.082 729.433 599.509C728.91 599.935 728.521 600.5 728.265 601.205C728.015 601.903 727.89 602.67 727.89 603.506C727.89 604.347 728.015 605.116 728.265 605.815C728.521 606.514 728.91 607.074 729.433 607.494C729.961 607.915 730.626 608.125 731.427 608.125ZM740.365 610V596.909H742.828V598.989H742.965C743.203 598.284 743.624 597.73 744.226 597.327C744.834 596.918 745.522 596.713 746.289 596.713C746.448 596.713 746.635 596.719 746.851 596.73C747.073 596.741 747.246 596.756 747.371 596.773V599.21C747.269 599.182 747.087 599.151 746.826 599.116C746.564 599.077 746.303 599.057 746.042 599.057C745.439 599.057 744.902 599.185 744.431 599.44C743.965 599.69 743.596 600.04 743.323 600.489C743.05 600.932 742.914 601.437 742.914 602.006V610H740.365ZM703.904 634.909V636.955H696.506V634.909H703.904ZM698.535 648V633.392C698.535 632.574 698.714 631.895 699.072 631.355C699.43 630.81 699.904 630.403 700.495 630.136C701.086 629.864 701.728 629.727 702.421 629.727C702.933 629.727 703.37 629.77 703.734 629.855C704.097 629.935 704.367 630.009 704.543 630.077L703.947 632.139C703.827 632.105 703.674 632.065 703.487 632.02C703.299 631.969 703.072 631.943 702.805 631.943C702.185 631.943 701.742 632.097 701.475 632.403C701.214 632.71 701.083 633.153 701.083 633.733V648H698.535ZM711.532 648.264C710.305 648.264 709.234 647.983 708.319 647.42C707.404 646.858 706.694 646.071 706.188 645.06C705.683 644.048 705.43 642.866 705.43 641.514C705.43 640.156 705.683 638.969 706.188 637.952C706.694 636.935 707.404 636.145 708.319 635.582C709.234 635.02 710.305 634.739 711.532 634.739C712.759 634.739 713.83 635.02 714.745 635.582C715.66 636.145 716.37 636.935 716.876 637.952C717.381 638.969 717.634 640.156 717.634 641.514C717.634 642.866 717.381 644.048 716.876 645.06C716.37 646.071 715.66 646.858 714.745 647.42C713.83 647.983 712.759 648.264 711.532 648.264ZM711.54 646.125C712.336 646.125 712.995 645.915 713.518 645.494C714.04 645.074 714.427 644.514 714.677 643.815C714.933 643.116 715.06 642.347 715.06 641.506C715.06 640.67 714.933 639.903 714.677 639.205C714.427 638.5 714.04 637.935 713.518 637.509C712.995 637.082 712.336 636.869 711.54 636.869C710.739 636.869 710.075 637.082 709.546 637.509C709.023 637.935 708.634 638.5 708.379 639.205C708.129 639.903 708.004 640.67 708.004 641.506C708.004 642.347 708.129 643.116 708.379 643.815C708.634 644.514 709.023 645.074 709.546 645.494C710.075 645.915 710.739 646.125 711.54 646.125ZM723.027 640.227V648H720.479V634.909H722.925V637.04H723.087C723.388 636.347 723.859 635.79 724.501 635.369C725.149 634.949 725.964 634.739 726.947 634.739C727.839 634.739 728.621 634.926 729.291 635.301C729.962 635.67 730.482 636.222 730.851 636.955C731.22 637.687 731.405 638.594 731.405 639.673V648H728.857V639.98C728.857 639.031 728.609 638.29 728.115 637.756C727.621 637.216 726.942 636.946 726.078 636.946C725.487 636.946 724.962 637.074 724.501 637.33C724.047 637.585 723.686 637.96 723.419 638.455C723.158 638.943 723.027 639.534 723.027 640.227ZM740.933 634.909V636.955H733.783V634.909H740.933ZM735.7 631.773H738.249V644.156C738.249 644.651 738.322 645.023 738.47 645.273C738.618 645.517 738.808 645.685 739.041 645.776C739.28 645.861 739.538 645.903 739.817 645.903C740.021 645.903 740.2 645.889 740.354 645.861C740.507 645.832 740.626 645.81 740.712 645.793L741.172 647.898C741.024 647.955 740.814 648.011 740.541 648.068C740.268 648.131 739.928 648.165 739.518 648.17C738.848 648.182 738.223 648.062 737.643 647.812C737.064 647.562 736.595 647.176 736.237 646.653C735.879 646.131 735.7 645.474 735.7 644.685V631.773ZM685.476 676.105L683.166 676.514C683.07 676.219 682.916 675.937 682.706 675.67C682.501 675.403 682.223 675.185 681.871 675.014C681.518 674.844 681.078 674.759 680.55 674.759C679.828 674.759 679.226 674.92 678.743 675.244C678.26 675.562 678.018 675.974 678.018 676.48C678.018 676.918 678.18 677.27 678.504 677.537C678.828 677.804 679.351 678.023 680.072 678.193L682.152 678.67C683.357 678.949 684.254 679.378 684.845 679.957C685.436 680.537 685.732 681.29 685.732 682.216C685.732 683 685.504 683.699 685.05 684.312C684.601 684.92 683.973 685.398 683.166 685.744C682.365 686.091 681.436 686.264 680.379 686.264C678.913 686.264 677.717 685.952 676.791 685.327C675.865 684.696 675.297 683.801 675.087 682.642L677.55 682.267C677.703 682.909 678.018 683.395 678.496 683.724C678.973 684.048 679.595 684.21 680.362 684.21C681.197 684.21 681.865 684.037 682.365 683.69C682.865 683.338 683.115 682.909 683.115 682.403C683.115 681.994 682.962 681.651 682.655 681.372C682.354 681.094 681.891 680.884 681.266 680.741L679.05 680.256C677.828 679.977 676.925 679.534 676.339 678.926C675.76 678.318 675.47 677.548 675.47 676.616C675.47 675.844 675.686 675.168 676.118 674.588C676.55 674.009 677.146 673.557 677.908 673.233C678.669 672.903 679.541 672.739 680.524 672.739C681.939 672.739 683.053 673.045 683.865 673.659C684.678 674.267 685.214 675.082 685.476 676.105ZM688.533 690.909V672.909H691.022V675.031H691.235C691.383 674.759 691.596 674.443 691.874 674.085C692.153 673.727 692.539 673.415 693.033 673.148C693.528 672.875 694.181 672.739 694.994 672.739C696.05 672.739 696.994 673.006 697.823 673.54C698.653 674.074 699.303 674.844 699.775 675.849C700.252 676.855 700.491 678.065 700.491 679.48C700.491 680.895 700.255 682.108 699.783 683.119C699.312 684.125 698.664 684.901 697.84 685.446C697.016 685.986 696.076 686.256 695.019 686.256C694.224 686.256 693.573 686.122 693.067 685.855C692.567 685.588 692.175 685.276 691.891 684.918C691.607 684.56 691.388 684.241 691.235 683.963H691.082V690.909H688.533ZM691.031 679.455C691.031 680.375 691.164 681.182 691.431 681.875C691.698 682.568 692.085 683.111 692.59 683.503C693.096 683.889 693.715 684.082 694.448 684.082C695.21 684.082 695.846 683.881 696.357 683.477C696.869 683.068 697.255 682.514 697.516 681.815C697.783 681.116 697.917 680.33 697.917 679.455C697.917 678.591 697.786 677.815 697.525 677.128C697.269 676.44 696.883 675.898 696.366 675.5C695.854 675.102 695.215 674.903 694.448 674.903C693.71 674.903 693.085 675.094 692.573 675.474C692.067 675.855 691.684 676.386 691.423 677.068C691.161 677.75 691.031 678.545 691.031 679.455ZM707.156 686.29C706.326 686.29 705.576 686.136 704.906 685.83C704.235 685.517 703.704 685.065 703.312 684.474C702.925 683.884 702.732 683.159 702.732 682.301C702.732 681.562 702.874 680.955 703.158 680.477C703.442 680 703.826 679.622 704.309 679.344C704.792 679.065 705.332 678.855 705.928 678.713C706.525 678.571 707.133 678.463 707.752 678.389C708.536 678.298 709.173 678.224 709.661 678.168C710.15 678.105 710.505 678.006 710.727 677.869C710.948 677.733 711.059 677.511 711.059 677.205V677.145C711.059 676.401 710.849 675.824 710.428 675.415C710.013 675.006 709.394 674.801 708.57 674.801C707.712 674.801 707.036 674.991 706.542 675.372C706.053 675.747 705.715 676.165 705.528 676.625L703.133 676.08C703.417 675.284 703.832 674.642 704.377 674.153C704.928 673.659 705.562 673.301 706.278 673.08C706.994 672.852 707.746 672.739 708.536 672.739C709.059 672.739 709.613 672.801 710.198 672.926C710.789 673.045 711.34 673.267 711.852 673.591C712.369 673.915 712.792 674.378 713.121 674.98C713.451 675.577 713.616 676.352 713.616 677.307V686H711.127V684.21H711.025C710.86 684.54 710.613 684.864 710.283 685.182C709.954 685.5 709.531 685.764 709.013 685.974C708.496 686.185 707.877 686.29 707.156 686.29ZM707.71 684.244C708.414 684.244 709.016 684.105 709.516 683.827C710.022 683.548 710.406 683.185 710.667 682.736C710.934 682.281 711.067 681.795 711.067 681.278V679.591C710.977 679.682 710.8 679.767 710.539 679.847C710.283 679.92 709.991 679.986 709.661 680.043C709.332 680.094 709.011 680.142 708.698 680.188C708.386 680.227 708.124 680.261 707.914 680.29C707.42 680.352 706.968 680.457 706.559 680.605C706.156 680.753 705.832 680.966 705.587 681.244C705.349 681.517 705.229 681.881 705.229 682.335C705.229 682.966 705.462 683.443 705.928 683.767C706.394 684.085 706.988 684.244 707.71 684.244ZM722.524 686.264C721.257 686.264 720.166 685.977 719.251 685.403C718.342 684.824 717.643 684.026 717.155 683.009C716.666 681.991 716.422 680.827 716.422 679.514C716.422 678.185 716.672 677.011 717.172 675.994C717.672 674.972 718.376 674.173 719.286 673.599C720.195 673.026 721.266 672.739 722.499 672.739C723.493 672.739 724.379 672.923 725.158 673.293C725.936 673.656 726.564 674.168 727.041 674.827C727.524 675.486 727.811 676.256 727.902 677.136H725.422C725.286 676.523 724.973 675.994 724.484 675.551C724.001 675.108 723.354 674.886 722.541 674.886C721.831 674.886 721.209 675.074 720.675 675.449C720.146 675.818 719.734 676.347 719.439 677.034C719.143 677.716 718.996 678.523 718.996 679.455C718.996 680.409 719.141 681.233 719.43 681.926C719.72 682.619 720.129 683.156 720.658 683.537C721.192 683.918 721.82 684.108 722.541 684.108C723.024 684.108 723.462 684.02 723.854 683.844C724.251 683.662 724.584 683.403 724.851 683.068C725.124 682.733 725.314 682.33 725.422 681.858H727.902C727.811 682.705 727.536 683.46 727.075 684.125C726.615 684.79 725.999 685.312 725.226 685.693C724.459 686.074 723.558 686.264 722.524 686.264ZM730.627 686V672.909H733.175V686H730.627ZM731.914 670.889C731.471 670.889 731.09 670.741 730.772 670.446C730.46 670.145 730.303 669.787 730.303 669.372C730.303 668.952 730.46 668.594 730.772 668.298C731.09 667.997 731.471 667.847 731.914 667.847C732.357 667.847 732.735 667.997 733.048 668.298C733.366 668.594 733.525 668.952 733.525 669.372C733.525 669.787 733.366 670.145 733.048 670.446C732.735 670.741 732.357 670.889 731.914 670.889ZM739.152 678.227V686H736.604V672.909H739.05V675.04H739.212C739.513 674.347 739.984 673.79 740.626 673.369C741.274 672.949 742.089 672.739 743.072 672.739C743.964 672.739 744.746 672.926 745.416 673.301C746.087 673.67 746.607 674.222 746.976 674.955C747.345 675.687 747.53 676.594 747.53 677.673V686H744.982V677.98C744.982 677.031 744.734 676.29 744.24 675.756C743.746 675.216 743.067 674.946 742.203 674.946C741.612 674.946 741.087 675.074 740.626 675.33C740.172 675.585 739.811 675.96 739.544 676.455C739.283 676.943 739.152 677.534 739.152 678.227ZM756.436 691.182C755.396 691.182 754.501 691.045 753.751 690.773C753.007 690.5 752.399 690.139 751.928 689.69C751.456 689.241 751.104 688.75 750.871 688.216L753.061 687.312C753.214 687.562 753.419 687.827 753.675 688.105C753.936 688.389 754.288 688.631 754.732 688.83C755.18 689.028 755.757 689.128 756.462 689.128C757.428 689.128 758.226 688.892 758.857 688.42C759.487 687.955 759.803 687.21 759.803 686.188V683.614H759.641C759.487 683.892 759.266 684.202 758.976 684.543C758.692 684.884 758.3 685.179 757.8 685.429C757.3 685.679 756.649 685.804 755.848 685.804C754.814 685.804 753.882 685.562 753.053 685.08C752.229 684.591 751.575 683.872 751.092 682.923C750.615 681.969 750.376 680.795 750.376 679.403C750.376 678.011 750.612 676.818 751.084 675.824C751.561 674.83 752.214 674.068 753.044 673.54C753.874 673.006 754.814 672.739 755.865 672.739C756.678 672.739 757.334 672.875 757.834 673.148C758.334 673.415 758.723 673.727 759.001 674.085C759.286 674.443 759.504 674.759 759.658 675.031H759.845V672.909H762.342V686.29C762.342 687.415 762.081 688.338 761.558 689.06C761.036 689.781 760.328 690.315 759.436 690.662C758.55 691.009 757.55 691.182 756.436 691.182ZM756.411 683.69C757.143 683.69 757.763 683.52 758.268 683.179C758.78 682.832 759.166 682.338 759.428 681.696C759.695 681.048 759.828 680.273 759.828 679.369C759.828 678.489 759.697 677.713 759.436 677.043C759.175 676.372 758.791 675.849 758.286 675.474C757.78 675.094 757.155 674.903 756.411 674.903C755.643 674.903 755.004 675.102 754.493 675.5C753.982 675.892 753.595 676.426 753.334 677.102C753.078 677.778 752.95 678.534 752.95 679.369C752.95 680.227 753.081 680.98 753.342 681.628C753.604 682.276 753.99 682.781 754.501 683.145C755.018 683.509 755.655 683.69 756.411 683.69ZM719.191 711.037C718.753 711.037 718.375 710.889 718.057 710.594C717.739 710.298 717.58 709.94 717.58 709.52C717.58 709.099 717.739 708.741 718.057 708.446C718.375 708.151 718.753 708.003 719.191 708.003C719.634 708.003 720.012 708.151 720.324 708.446C720.642 708.741 720.801 709.099 720.801 709.52C720.801 709.94 720.642 710.298 720.324 710.594C720.012 710.889 719.634 711.037 719.191 711.037ZM719.02 717.795C718.583 717.795 718.205 717.648 717.887 717.352C717.569 717.057 717.409 716.699 717.409 716.278C717.409 715.858 717.569 715.5 717.887 715.205C718.205 714.909 718.583 714.761 719.02 714.761C719.463 714.761 719.841 714.909 720.154 715.205C720.472 715.5 720.631 715.858 720.631 716.278C720.631 716.699 720.472 717.057 720.154 717.352C719.841 717.648 719.463 717.795 719.02 717.795ZM719.191 724.588C718.753 724.588 718.375 724.44 718.057 724.145C717.739 723.849 717.58 723.491 717.58 723.071C717.58 722.651 717.739 722.293 718.057 721.997C718.375 721.702 718.753 721.554 719.191 721.554C719.634 721.554 720.012 721.702 720.324 721.997C720.642 722.293 720.801 722.651 720.801 723.071C720.801 723.491 720.642 723.849 720.324 724.145C720.012 724.44 719.634 724.588 719.191 724.588Z" fill="#333333"/>
<path d="M999.238 610V592.545H1001.79V599.031H1001.94C1002.09 598.759 1002.3 598.443 1002.58 598.085C1002.86 597.727 1003.24 597.415 1003.74 597.148C1004.23 596.875 1004.89 596.739 1005.7 596.739C1006.75 596.739 1007.7 597.006 1008.53 597.54C1009.36 598.074 1010.01 598.844 1010.48 599.849C1010.96 600.855 1011.2 602.065 1011.2 603.48C1011.2 604.895 1010.96 606.108 1010.49 607.119C1010.02 608.125 1009.37 608.901 1008.54 609.446C1007.72 609.986 1006.78 610.256 1005.72 610.256C1004.93 610.256 1004.28 610.122 1003.77 609.855C1003.27 609.588 1002.88 609.276 1002.6 608.918C1002.31 608.56 1002.09 608.241 1001.94 607.963H1001.73V610H999.238ZM1001.74 603.455C1001.74 604.375 1001.87 605.182 1002.14 605.875C1002.4 606.568 1002.79 607.111 1003.29 607.503C1003.8 607.889 1004.42 608.082 1005.15 608.082C1005.91 608.082 1006.55 607.881 1007.06 607.477C1007.57 607.068 1007.96 606.514 1008.22 605.815C1008.49 605.116 1008.62 604.33 1008.62 603.455C1008.62 602.591 1008.49 601.815 1008.23 601.128C1007.97 600.44 1007.59 599.898 1007.07 599.5C1006.56 599.102 1005.92 598.903 1005.15 598.903C1004.41 598.903 1003.79 599.094 1003.28 599.474C1002.77 599.855 1002.39 600.386 1002.13 601.068C1001.87 601.75 1001.74 602.545 1001.74 603.455ZM1016.61 592.545V610H1014.06V592.545H1016.61ZM1028.33 604.571V596.909H1030.88V610H1028.38V607.733H1028.24C1027.94 608.432 1027.46 609.014 1026.79 609.48C1026.13 609.94 1025.31 610.17 1024.33 610.17C1023.49 610.17 1022.74 609.986 1022.1 609.616C1021.45 609.241 1020.95 608.688 1020.58 607.955C1020.22 607.222 1020.03 606.315 1020.03 605.236V596.909H1022.58V604.929C1022.58 605.821 1022.83 606.531 1023.32 607.06C1023.82 607.588 1024.46 607.852 1025.25 607.852C1025.73 607.852 1026.2 607.733 1026.67 607.494C1027.15 607.256 1027.54 606.895 1027.86 606.412C1028.18 605.929 1028.33 605.315 1028.33 604.571ZM1039.95 610.264C1038.66 610.264 1037.55 609.989 1036.62 609.438C1035.69 608.881 1034.97 608.099 1034.47 607.094C1033.97 606.082 1033.72 604.898 1033.72 603.54C1033.72 602.199 1033.97 601.017 1034.47 599.994C1034.97 598.972 1035.68 598.173 1036.58 597.599C1037.49 597.026 1038.55 596.739 1039.77 596.739C1040.51 596.739 1041.22 596.861 1041.92 597.105C1042.61 597.349 1043.23 597.733 1043.78 598.256C1044.34 598.778 1044.77 599.457 1045.09 600.293C1045.41 601.122 1045.57 602.131 1045.57 603.318V604.222H1035.16V602.312H1043.07C1043.07 601.642 1042.93 601.048 1042.66 600.531C1042.39 600.009 1042 599.597 1041.51 599.295C1041.02 598.994 1040.45 598.844 1039.79 598.844C1039.07 598.844 1038.45 599.02 1037.91 599.372C1037.38 599.719 1036.97 600.173 1036.68 600.736C1036.4 601.293 1036.26 601.898 1036.26 602.551V604.043C1036.26 604.918 1036.41 605.662 1036.72 606.276C1037.03 606.889 1037.47 607.358 1038.02 607.682C1038.58 608 1039.23 608.159 1039.97 608.159C1040.46 608.159 1040.9 608.091 1041.3 607.955C1041.69 607.812 1042.04 607.602 1042.33 607.324C1042.62 607.045 1042.84 606.702 1042.99 606.293L1045.4 606.727C1045.21 607.437 1044.86 608.06 1044.36 608.594C1043.87 609.122 1043.25 609.534 1042.5 609.83C1041.75 610.119 1040.9 610.264 1039.95 610.264ZM995.502 634.909V636.955H988.104V634.909H995.502ZM990.132 648V633.392C990.132 632.574 990.311 631.895 990.669 631.355C991.027 630.81 991.502 630.403 992.093 630.136C992.684 629.864 993.326 629.727 994.019 629.727C994.53 629.727 994.968 629.77 995.331 629.855C995.695 629.935 995.965 630.009 996.141 630.077L995.544 632.139C995.425 632.105 995.272 632.065 995.084 632.02C994.897 631.969 994.669 631.943 994.402 631.943C993.783 631.943 993.34 632.097 993.073 632.403C992.811 632.71 992.681 633.153 992.681 633.733V648H990.132ZM1001.54 648.29C1000.71 648.29 999.963 648.136 999.292 647.83C998.622 647.517 998.091 647.065 997.699 646.474C997.312 645.884 997.119 645.159 997.119 644.301C997.119 643.562 997.261 642.955 997.545 642.477C997.829 642 998.213 641.622 998.696 641.344C999.179 641.065 999.718 640.855 1000.31 640.713C1000.91 640.571 1001.52 640.463 1002.14 640.389C1002.92 640.298 1003.56 640.224 1004.05 640.168C1004.54 640.105 1004.89 640.006 1005.11 639.869C1005.33 639.733 1005.45 639.511 1005.45 639.205V639.145C1005.45 638.401 1005.24 637.824 1004.81 637.415C1004.4 637.006 1003.78 636.801 1002.96 636.801C1002.1 636.801 1001.42 636.991 1000.93 637.372C1000.44 637.747 1000.1 638.165 999.914 638.625L997.52 638.08C997.804 637.284 998.218 636.642 998.764 636.153C999.315 635.659 999.949 635.301 1000.66 635.08C1001.38 634.852 1002.13 634.739 1002.92 634.739C1003.45 634.739 1004 634.801 1004.58 634.926C1005.18 635.045 1005.73 635.267 1006.24 635.591C1006.76 635.915 1007.18 636.378 1007.51 636.98C1007.84 637.577 1008 638.352 1008 639.307V648H1005.51V646.21H1005.41C1005.25 646.54 1005 646.864 1004.67 647.182C1004.34 647.5 1003.92 647.764 1003.4 647.974C1002.88 648.185 1002.26 648.29 1001.54 648.29ZM1002.1 646.244C1002.8 646.244 1003.4 646.105 1003.9 645.827C1004.41 645.548 1004.79 645.185 1005.05 644.736C1005.32 644.281 1005.45 643.795 1005.45 643.278V641.591C1005.36 641.682 1005.19 641.767 1004.93 641.847C1004.67 641.92 1004.38 641.986 1004.05 642.043C1003.72 642.094 1003.4 642.142 1003.08 642.188C1002.77 642.227 1002.51 642.261 1002.3 642.29C1001.81 642.352 1001.35 642.457 1000.95 642.605C1000.54 642.753 1000.22 642.966 999.974 643.244C999.735 643.517 999.616 643.881 999.616 644.335C999.616 644.966 999.849 645.443 1000.31 645.767C1000.78 646.085 1001.37 646.244 1002.1 646.244ZM1011.4 648V634.909H1013.84V637.04H1014C1014.28 636.318 1014.72 635.756 1015.34 635.352C1015.96 634.943 1016.7 634.739 1017.57 634.739C1018.44 634.739 1019.18 634.943 1019.77 635.352C1020.36 635.761 1020.8 636.324 1021.09 637.04H1021.22C1021.54 636.341 1022.03 635.784 1022.71 635.369C1023.4 634.949 1024.21 634.739 1025.15 634.739C1026.34 634.739 1027.31 635.111 1028.06 635.855C1028.81 636.599 1029.19 637.722 1029.19 639.222V648H1026.64V639.46C1026.64 638.574 1026.4 637.932 1025.92 637.534C1025.44 637.136 1024.86 636.938 1024.19 636.938C1023.36 636.938 1022.71 637.193 1022.25 637.705C1021.79 638.21 1021.56 638.861 1021.56 639.656V648H1019.02V639.298C1019.02 638.588 1018.8 638.017 1018.36 637.585C1017.92 637.153 1017.34 636.938 1016.63 636.938C1016.15 636.938 1015.7 637.065 1015.29 637.321C1014.89 637.571 1014.56 637.92 1014.31 638.369C1014.07 638.818 1013.94 639.338 1013.94 639.929V648H1011.4ZM1032.61 648V634.909H1035.16V648H1032.61ZM1033.89 632.889C1033.45 632.889 1033.07 632.741 1032.75 632.446C1032.44 632.145 1032.28 631.787 1032.28 631.372C1032.28 630.952 1032.44 630.594 1032.75 630.298C1033.07 629.997 1033.45 629.847 1033.89 629.847C1034.34 629.847 1034.72 629.997 1035.03 630.298C1035.35 630.594 1035.51 630.952 1035.51 631.372C1035.51 631.787 1035.35 632.145 1035.03 632.446C1034.72 632.741 1034.34 632.889 1033.89 632.889ZM1041.13 630.545V648H1038.58V630.545H1041.13ZM1046.17 652.909C1045.79 652.909 1045.44 652.878 1045.13 652.815C1044.82 652.759 1044.59 652.696 1044.43 652.628L1045.05 650.54C1045.51 650.665 1045.93 650.719 1046.29 650.702C1046.65 650.685 1046.98 650.548 1047.25 650.293C1047.54 650.037 1047.79 649.619 1048 649.04L1048.32 648.17L1043.53 634.909H1046.26L1049.57 645.068H1049.71L1053.02 634.909H1055.76L1050.36 649.747C1050.11 650.429 1049.8 651.006 1049.41 651.477C1049.02 651.955 1048.56 652.313 1048.03 652.551C1047.5 652.79 1046.88 652.909 1046.17 652.909ZM1022.19 711.037C1021.75 711.037 1021.38 710.889 1021.06 710.594C1020.74 710.298 1020.58 709.94 1020.58 709.52C1020.58 709.099 1020.74 708.741 1021.06 708.446C1021.38 708.151 1021.75 708.003 1022.19 708.003C1022.63 708.003 1023.01 708.151 1023.32 708.446C1023.64 708.741 1023.8 709.099 1023.8 709.52C1023.8 709.94 1023.64 710.298 1023.32 710.594C1023.01 710.889 1022.63 711.037 1022.19 711.037ZM1022.02 717.795C1021.58 717.795 1021.2 717.648 1020.89 717.352C1020.57 717.057 1020.41 716.699 1020.41 716.278C1020.41 715.858 1020.57 715.5 1020.89 715.205C1021.2 714.909 1021.58 714.761 1022.02 714.761C1022.46 714.761 1022.84 714.909 1023.15 715.205C1023.47 715.5 1023.63 715.858 1023.63 716.278C1023.63 716.699 1023.47 717.057 1023.15 717.352C1022.84 717.648 1022.46 717.795 1022.02 717.795ZM1022.19 724.588C1021.75 724.588 1021.38 724.44 1021.06 724.145C1020.74 723.849 1020.58 723.491 1020.58 723.071C1020.58 722.651 1020.74 722.293 1021.06 721.997C1021.38 721.702 1021.75 721.554 1022.19 721.554C1022.63 721.554 1023.01 721.702 1023.32 721.997C1023.64 722.293 1023.8 722.651 1023.8 723.071C1023.8 723.491 1023.64 723.849 1023.32 724.145C1023.01 724.44 1022.63 724.588 1022.19 724.588Z" fill="#333333"/>
<path d="M1258.25 610.239C1257.18 610.239 1256.22 610.034 1255.37 609.625C1254.53 609.21 1253.85 608.642 1253.34 607.92C1252.84 607.199 1252.57 606.375 1252.53 605.449H1255.09C1255.15 606.199 1255.49 606.815 1256.09 607.298C1256.69 607.781 1257.41 608.023 1258.25 608.023C1258.92 608.023 1259.52 607.869 1260.03 607.562C1260.56 607.25 1260.97 606.821 1261.26 606.276C1261.56 605.73 1261.71 605.108 1261.71 604.409C1261.71 603.699 1261.56 603.065 1261.25 602.509C1260.95 601.952 1260.52 601.514 1259.98 601.196C1259.45 600.878 1258.84 600.716 1258.14 600.71C1257.61 600.71 1257.08 600.801 1256.55 600.983C1256.01 601.165 1255.58 601.403 1255.25 601.699L1252.84 601.341L1253.82 592.545H1263.42V594.804H1256.01L1255.46 599.688H1255.56C1255.9 599.358 1256.35 599.082 1256.91 598.861C1257.48 598.639 1258.09 598.528 1258.74 598.528C1259.8 598.528 1260.75 598.781 1261.58 599.287C1262.41 599.793 1263.07 600.483 1263.55 601.358C1264.03 602.227 1264.27 603.227 1264.26 604.358C1264.27 605.489 1264.01 606.497 1263.49 607.384C1262.98 608.27 1262.27 608.969 1261.36 609.48C1260.46 609.986 1259.42 610.239 1258.25 610.239ZM1273.45 610.29C1272.1 610.284 1270.95 609.929 1270 609.224C1269.04 608.52 1268.31 607.494 1267.81 606.148C1267.3 604.801 1267.05 603.179 1267.05 601.281C1267.05 599.389 1267.3 597.773 1267.81 596.432C1268.32 595.091 1269.05 594.068 1270.01 593.364C1270.97 592.659 1272.12 592.307 1273.45 592.307C1274.79 592.307 1275.93 592.662 1276.89 593.372C1277.84 594.077 1278.57 595.099 1279.08 596.44C1279.59 597.776 1279.84 599.389 1279.84 601.281C1279.84 603.185 1279.59 604.81 1279.08 606.156C1278.58 607.497 1277.85 608.523 1276.89 609.233C1275.94 609.938 1274.79 610.29 1273.45 610.29ZM1273.45 608.014C1274.63 608.014 1275.56 607.438 1276.22 606.284C1276.89 605.131 1277.23 603.463 1277.23 601.281C1277.23 599.832 1277.07 598.608 1276.77 597.608C1276.47 596.602 1276.03 595.841 1275.46 595.324C1274.9 594.801 1274.23 594.54 1273.45 594.54C1272.27 594.54 1271.35 595.119 1270.68 596.278C1270.01 597.437 1269.67 599.105 1269.67 601.281C1269.67 602.736 1269.82 603.966 1270.12 604.972C1270.43 605.972 1270.86 606.73 1271.42 607.247C1271.99 607.759 1272.66 608.014 1273.45 608.014ZM1250.65 638.105L1248.34 638.514C1248.25 638.219 1248.09 637.937 1247.88 637.67C1247.68 637.403 1247.4 637.185 1247.05 637.014C1246.69 636.844 1246.25 636.759 1245.73 636.759C1245 636.759 1244.4 636.92 1243.92 637.244C1243.44 637.562 1243.19 637.974 1243.19 638.48C1243.19 638.918 1243.36 639.27 1243.68 639.537C1244 639.804 1244.53 640.023 1245.25 640.193L1247.33 640.67C1248.53 640.949 1249.43 641.378 1250.02 641.957C1250.61 642.537 1250.91 643.29 1250.91 644.216C1250.91 645 1250.68 645.699 1250.23 646.312C1249.78 646.92 1249.15 647.398 1248.34 647.744C1247.54 648.091 1246.61 648.264 1245.56 648.264C1244.09 648.264 1242.89 647.952 1241.97 647.327C1241.04 646.696 1240.47 645.801 1240.26 644.642L1242.73 644.267C1242.88 644.909 1243.19 645.395 1243.67 645.724C1244.15 646.048 1244.77 646.21 1245.54 646.21C1246.37 646.21 1247.04 646.037 1247.54 645.69C1248.04 645.338 1248.29 644.909 1248.29 644.403C1248.29 643.994 1248.14 643.651 1247.83 643.372C1247.53 643.094 1247.07 642.884 1246.44 642.741L1244.23 642.256C1243 641.977 1242.1 641.534 1241.52 640.926C1240.94 640.318 1240.65 639.548 1240.65 638.616C1240.65 637.844 1240.86 637.168 1241.29 636.588C1241.73 636.009 1242.32 635.557 1243.08 635.233C1243.84 634.903 1244.72 634.739 1245.7 634.739C1247.11 634.739 1248.23 635.045 1249.04 635.659C1249.85 636.267 1250.39 637.082 1250.65 638.105ZM1257.52 648.29C1256.69 648.29 1255.94 648.136 1255.27 647.83C1254.6 647.517 1254.07 647.065 1253.68 646.474C1253.29 645.884 1253.1 645.159 1253.1 644.301C1253.1 643.562 1253.24 642.955 1253.52 642.477C1253.81 642 1254.19 641.622 1254.67 641.344C1255.16 641.065 1255.69 640.855 1256.29 640.713C1256.89 640.571 1257.5 640.463 1258.12 640.389C1258.9 640.298 1259.54 640.224 1260.02 640.168C1260.51 640.105 1260.87 640.006 1261.09 639.869C1261.31 639.733 1261.42 639.511 1261.42 639.205V639.145C1261.42 638.401 1261.21 637.824 1260.79 637.415C1260.38 637.006 1259.76 636.801 1258.93 636.801C1258.08 636.801 1257.4 636.991 1256.91 637.372C1256.42 637.747 1256.08 638.165 1255.89 638.625L1253.5 638.08C1253.78 637.284 1254.19 636.642 1254.74 636.153C1255.29 635.659 1255.93 635.301 1256.64 635.08C1257.36 634.852 1258.11 634.739 1258.9 634.739C1259.42 634.739 1259.98 634.801 1260.56 634.926C1261.15 635.045 1261.7 635.267 1262.21 635.591C1262.73 635.915 1263.16 636.378 1263.48 636.98C1263.81 637.577 1263.98 638.352 1263.98 639.307V648H1261.49V646.21H1261.39C1261.22 646.54 1260.98 646.864 1260.65 647.182C1260.32 647.5 1259.89 647.764 1259.38 647.974C1258.86 648.185 1258.24 648.29 1257.52 648.29ZM1258.07 646.244C1258.78 646.244 1259.38 646.105 1259.88 645.827C1260.39 645.548 1260.77 645.185 1261.03 644.736C1261.3 644.281 1261.43 643.795 1261.43 643.278V641.591C1261.34 641.682 1261.16 641.767 1260.9 641.847C1260.65 641.92 1260.35 641.986 1260.02 642.043C1259.69 642.094 1259.37 642.142 1259.06 642.188C1258.75 642.227 1258.49 642.261 1258.28 642.29C1257.78 642.352 1257.33 642.457 1256.92 642.605C1256.52 642.753 1256.19 642.966 1255.95 643.244C1255.71 643.517 1255.59 643.881 1255.59 644.335C1255.59 644.966 1255.83 645.443 1256.29 645.767C1256.76 646.085 1257.35 646.244 1258.07 646.244ZM1269.92 640.227V648H1267.37V634.909H1269.82V637.04H1269.98C1270.28 636.347 1270.75 635.79 1271.4 635.369C1272.04 634.949 1272.86 634.739 1273.84 634.739C1274.73 634.739 1275.52 634.926 1276.19 635.301C1276.86 635.67 1277.38 636.222 1277.75 636.955C1278.11 637.687 1278.3 638.594 1278.3 639.673V648H1275.75V639.98C1275.75 639.031 1275.5 638.29 1275.01 637.756C1274.52 637.216 1273.84 636.946 1272.97 636.946C1272.38 636.946 1271.86 637.074 1271.4 637.33C1270.94 637.585 1270.58 637.96 1270.31 638.455C1270.05 638.943 1269.92 639.534 1269.92 640.227ZM1291.53 638.105L1289.22 638.514C1289.12 638.219 1288.97 637.937 1288.76 637.67C1288.55 637.403 1288.27 637.185 1287.92 637.014C1287.57 636.844 1287.13 636.759 1286.6 636.759C1285.88 636.759 1285.28 636.92 1284.79 637.244C1284.31 637.562 1284.07 637.974 1284.07 638.48C1284.07 638.918 1284.23 639.27 1284.56 639.537C1284.88 639.804 1285.4 640.023 1286.12 640.193L1288.2 640.67C1289.41 640.949 1290.31 641.378 1290.9 641.957C1291.49 642.537 1291.78 643.29 1291.78 644.216C1291.78 645 1291.56 645.699 1291.1 646.312C1290.65 646.92 1290.02 647.398 1289.22 647.744C1288.42 648.091 1287.49 648.264 1286.43 648.264C1284.96 648.264 1283.77 647.952 1282.84 647.327C1281.92 646.696 1281.35 645.801 1281.14 644.642L1283.6 644.267C1283.75 644.909 1284.07 645.395 1284.55 645.724C1285.02 646.048 1285.65 646.21 1286.41 646.21C1287.25 646.21 1287.92 646.037 1288.42 645.69C1288.92 645.338 1289.17 644.909 1289.17 644.403C1289.17 643.994 1289.01 643.651 1288.71 643.372C1288.4 643.094 1287.94 642.884 1287.32 642.741L1285.1 642.256C1283.88 641.977 1282.98 641.534 1282.39 640.926C1281.81 640.318 1281.52 639.548 1281.52 638.616C1281.52 637.844 1281.74 637.168 1282.17 636.588C1282.6 636.009 1283.2 635.557 1283.96 635.233C1284.72 634.903 1285.59 634.739 1286.57 634.739C1287.99 634.739 1289.1 635.045 1289.92 635.659C1290.73 636.267 1291.27 637.082 1291.53 638.105ZM1258.25 686.239C1257.18 686.239 1256.22 686.034 1255.37 685.625C1254.53 685.21 1253.85 684.642 1253.34 683.92C1252.84 683.199 1252.57 682.375 1252.53 681.449H1255.09C1255.15 682.199 1255.49 682.815 1256.09 683.298C1256.69 683.781 1257.41 684.023 1258.25 684.023C1258.92 684.023 1259.52 683.869 1260.03 683.562C1260.56 683.25 1260.97 682.821 1261.26 682.276C1261.56 681.73 1261.71 681.108 1261.71 680.409C1261.71 679.699 1261.56 679.065 1261.25 678.509C1260.95 677.952 1260.52 677.514 1259.98 677.196C1259.45 676.878 1258.84 676.716 1258.14 676.71C1257.61 676.71 1257.08 676.801 1256.55 676.983C1256.01 677.165 1255.58 677.403 1255.25 677.699L1252.84 677.341L1253.82 668.545H1263.42V670.804H1256.01L1255.46 675.688H1255.56C1255.9 675.358 1256.35 675.082 1256.91 674.861C1257.48 674.639 1258.09 674.528 1258.74 674.528C1259.8 674.528 1260.75 674.781 1261.58 675.287C1262.41 675.793 1263.07 676.483 1263.55 677.358C1264.03 678.227 1264.27 679.227 1264.26 680.358C1264.27 681.489 1264.01 682.497 1263.49 683.384C1262.98 684.27 1262.27 684.969 1261.36 685.48C1260.46 685.986 1259.42 686.239 1258.25 686.239ZM1273.45 686.29C1272.1 686.284 1270.95 685.929 1270 685.224C1269.04 684.52 1268.31 683.494 1267.81 682.148C1267.3 680.801 1267.05 679.179 1267.05 677.281C1267.05 675.389 1267.3 673.773 1267.81 672.432C1268.32 671.091 1269.05 670.068 1270.01 669.364C1270.97 668.659 1272.12 668.307 1273.45 668.307C1274.79 668.307 1275.93 668.662 1276.89 669.372C1277.84 670.077 1278.57 671.099 1279.08 672.44C1279.59 673.776 1279.84 675.389 1279.84 677.281C1279.84 679.185 1279.59 680.81 1279.08 682.156C1278.58 683.497 1277.85 684.523 1276.89 685.233C1275.94 685.938 1274.79 686.29 1273.45 686.29ZM1273.45 684.014C1274.63 684.014 1275.56 683.438 1276.22 682.284C1276.89 681.131 1277.23 679.463 1277.23 677.281C1277.23 675.832 1277.07 674.608 1276.77 673.608C1276.47 672.602 1276.03 671.841 1275.46 671.324C1274.9 670.801 1274.23 670.54 1273.45 670.54C1272.27 670.54 1271.35 671.119 1270.68 672.278C1270.01 673.437 1269.67 675.105 1269.67 677.281C1269.67 678.736 1269.82 679.966 1270.12 680.972C1270.43 681.972 1270.86 682.73 1271.42 683.247C1271.99 683.759 1272.66 684.014 1273.45 684.014ZM1266.19 711.037C1265.75 711.037 1265.38 710.889 1265.06 710.594C1264.74 710.298 1264.58 709.94 1264.58 709.52C1264.58 709.099 1264.74 708.741 1265.06 708.446C1265.38 708.151 1265.75 708.003 1266.19 708.003C1266.63 708.003 1267.01 708.151 1267.32 708.446C1267.64 708.741 1267.8 709.099 1267.8 709.52C1267.8 709.94 1267.64 710.298 1267.32 710.594C1267.01 710.889 1266.63 711.037 1266.19 711.037ZM1266.02 717.795C1265.58 717.795 1265.2 717.648 1264.89 717.352C1264.57 717.057 1264.41 716.699 1264.41 716.278C1264.41 715.858 1264.57 715.5 1264.89 715.205C1265.2 714.909 1265.58 714.761 1266.02 714.761C1266.46 714.761 1266.84 714.909 1267.15 715.205C1267.47 715.5 1267.63 715.858 1267.63 716.278C1267.63 716.699 1267.47 717.057 1267.15 717.352C1266.84 717.648 1266.46 717.795 1266.02 717.795ZM1266.19 724.588C1265.75 724.588 1265.38 724.44 1265.06 724.145C1264.74 723.849 1264.58 723.491 1264.58 723.071C1264.58 722.651 1264.74 722.293 1265.06 721.997C1265.38 721.702 1265.75 721.554 1266.19 721.554C1266.63 721.554 1267.01 721.702 1267.32 721.997C1267.64 722.293 1267.8 722.651 1267.8 723.071C1267.8 723.491 1267.64 723.849 1267.32 724.145C1267.01 724.44 1266.63 724.588 1266.19 724.588Z" fill="#333333"/>
</svg>
